%TF.GenerationSoftware,KiCad,Pcbnew,8.0.5*%
%TF.CreationDate,2024-10-22T09:55:14-05:00*%
%TF.ProjectId,golf_club_draft,676f6c66-5f63-46c7-9562-5f6472616674,rev?*%
%TF.SameCoordinates,Original*%
%TF.FileFunction,Legend,Top*%
%TF.FilePolarity,Positive*%
%FSLAX46Y46*%
G04 Gerber Fmt 4.6, Leading zero omitted, Abs format (unit mm)*
G04 Created by KiCad (PCBNEW 8.0.5) date 2024-10-22 09:55:14*
%MOMM*%
%LPD*%
G01*
G04 APERTURE LIST*
%ADD10C,0.100000*%
%ADD11C,0.150000*%
%ADD12C,0.120000*%
G04 APERTURE END LIST*
D10*
X147623884Y-76789531D02*
X147623884Y-75789531D01*
X147623884Y-75789531D02*
X148004836Y-75789531D01*
X148004836Y-75789531D02*
X148100074Y-75837150D01*
X148100074Y-75837150D02*
X148147693Y-75884769D01*
X148147693Y-75884769D02*
X148195312Y-75980007D01*
X148195312Y-75980007D02*
X148195312Y-76122864D01*
X148195312Y-76122864D02*
X148147693Y-76218102D01*
X148147693Y-76218102D02*
X148100074Y-76265721D01*
X148100074Y-76265721D02*
X148004836Y-76313340D01*
X148004836Y-76313340D02*
X147623884Y-76313340D01*
X148766741Y-76789531D02*
X148671503Y-76741912D01*
X148671503Y-76741912D02*
X148623884Y-76694292D01*
X148623884Y-76694292D02*
X148576265Y-76599054D01*
X148576265Y-76599054D02*
X148576265Y-76313340D01*
X148576265Y-76313340D02*
X148623884Y-76218102D01*
X148623884Y-76218102D02*
X148671503Y-76170483D01*
X148671503Y-76170483D02*
X148766741Y-76122864D01*
X148766741Y-76122864D02*
X148909598Y-76122864D01*
X148909598Y-76122864D02*
X149004836Y-76170483D01*
X149004836Y-76170483D02*
X149052455Y-76218102D01*
X149052455Y-76218102D02*
X149100074Y-76313340D01*
X149100074Y-76313340D02*
X149100074Y-76599054D01*
X149100074Y-76599054D02*
X149052455Y-76694292D01*
X149052455Y-76694292D02*
X149004836Y-76741912D01*
X149004836Y-76741912D02*
X148909598Y-76789531D01*
X148909598Y-76789531D02*
X148766741Y-76789531D01*
X149481027Y-76741912D02*
X149576265Y-76789531D01*
X149576265Y-76789531D02*
X149766741Y-76789531D01*
X149766741Y-76789531D02*
X149861979Y-76741912D01*
X149861979Y-76741912D02*
X149909598Y-76646673D01*
X149909598Y-76646673D02*
X149909598Y-76599054D01*
X149909598Y-76599054D02*
X149861979Y-76503816D01*
X149861979Y-76503816D02*
X149766741Y-76456197D01*
X149766741Y-76456197D02*
X149623884Y-76456197D01*
X149623884Y-76456197D02*
X149528646Y-76408578D01*
X149528646Y-76408578D02*
X149481027Y-76313340D01*
X149481027Y-76313340D02*
X149481027Y-76265721D01*
X149481027Y-76265721D02*
X149528646Y-76170483D01*
X149528646Y-76170483D02*
X149623884Y-76122864D01*
X149623884Y-76122864D02*
X149766741Y-76122864D01*
X149766741Y-76122864D02*
X149861979Y-76170483D01*
X150338170Y-76789531D02*
X150338170Y-76122864D01*
X150338170Y-75789531D02*
X150290551Y-75837150D01*
X150290551Y-75837150D02*
X150338170Y-75884769D01*
X150338170Y-75884769D02*
X150385789Y-75837150D01*
X150385789Y-75837150D02*
X150338170Y-75789531D01*
X150338170Y-75789531D02*
X150338170Y-75884769D01*
X150671503Y-76122864D02*
X151052455Y-76122864D01*
X150814360Y-75789531D02*
X150814360Y-76646673D01*
X150814360Y-76646673D02*
X150861979Y-76741912D01*
X150861979Y-76741912D02*
X150957217Y-76789531D01*
X150957217Y-76789531D02*
X151052455Y-76789531D01*
X151385789Y-76789531D02*
X151385789Y-76122864D01*
X151385789Y-75789531D02*
X151338170Y-75837150D01*
X151338170Y-75837150D02*
X151385789Y-75884769D01*
X151385789Y-75884769D02*
X151433408Y-75837150D01*
X151433408Y-75837150D02*
X151385789Y-75789531D01*
X151385789Y-75789531D02*
X151385789Y-75884769D01*
X152004836Y-76789531D02*
X151909598Y-76741912D01*
X151909598Y-76741912D02*
X151861979Y-76694292D01*
X151861979Y-76694292D02*
X151814360Y-76599054D01*
X151814360Y-76599054D02*
X151814360Y-76313340D01*
X151814360Y-76313340D02*
X151861979Y-76218102D01*
X151861979Y-76218102D02*
X151909598Y-76170483D01*
X151909598Y-76170483D02*
X152004836Y-76122864D01*
X152004836Y-76122864D02*
X152147693Y-76122864D01*
X152147693Y-76122864D02*
X152242931Y-76170483D01*
X152242931Y-76170483D02*
X152290550Y-76218102D01*
X152290550Y-76218102D02*
X152338169Y-76313340D01*
X152338169Y-76313340D02*
X152338169Y-76599054D01*
X152338169Y-76599054D02*
X152290550Y-76694292D01*
X152290550Y-76694292D02*
X152242931Y-76741912D01*
X152242931Y-76741912D02*
X152147693Y-76789531D01*
X152147693Y-76789531D02*
X152004836Y-76789531D01*
X152766741Y-76122864D02*
X152766741Y-76789531D01*
X152766741Y-76218102D02*
X152814360Y-76170483D01*
X152814360Y-76170483D02*
X152909598Y-76122864D01*
X152909598Y-76122864D02*
X153052455Y-76122864D01*
X153052455Y-76122864D02*
X153147693Y-76170483D01*
X153147693Y-76170483D02*
X153195312Y-76265721D01*
X153195312Y-76265721D02*
X153195312Y-76789531D01*
X154100074Y-76789531D02*
X154100074Y-76265721D01*
X154100074Y-76265721D02*
X154052455Y-76170483D01*
X154052455Y-76170483D02*
X153957217Y-76122864D01*
X153957217Y-76122864D02*
X153766741Y-76122864D01*
X153766741Y-76122864D02*
X153671503Y-76170483D01*
X154100074Y-76741912D02*
X154004836Y-76789531D01*
X154004836Y-76789531D02*
X153766741Y-76789531D01*
X153766741Y-76789531D02*
X153671503Y-76741912D01*
X153671503Y-76741912D02*
X153623884Y-76646673D01*
X153623884Y-76646673D02*
X153623884Y-76551435D01*
X153623884Y-76551435D02*
X153671503Y-76456197D01*
X153671503Y-76456197D02*
X153766741Y-76408578D01*
X153766741Y-76408578D02*
X154004836Y-76408578D01*
X154004836Y-76408578D02*
X154100074Y-76360959D01*
X154719122Y-76789531D02*
X154623884Y-76741912D01*
X154623884Y-76741912D02*
X154576265Y-76646673D01*
X154576265Y-76646673D02*
X154576265Y-75789531D01*
X156385789Y-75837150D02*
X156290551Y-75789531D01*
X156290551Y-75789531D02*
X156147694Y-75789531D01*
X156147694Y-75789531D02*
X156004837Y-75837150D01*
X156004837Y-75837150D02*
X155909599Y-75932388D01*
X155909599Y-75932388D02*
X155861980Y-76027626D01*
X155861980Y-76027626D02*
X155814361Y-76218102D01*
X155814361Y-76218102D02*
X155814361Y-76360959D01*
X155814361Y-76360959D02*
X155861980Y-76551435D01*
X155861980Y-76551435D02*
X155909599Y-76646673D01*
X155909599Y-76646673D02*
X156004837Y-76741912D01*
X156004837Y-76741912D02*
X156147694Y-76789531D01*
X156147694Y-76789531D02*
X156242932Y-76789531D01*
X156242932Y-76789531D02*
X156385789Y-76741912D01*
X156385789Y-76741912D02*
X156433408Y-76694292D01*
X156433408Y-76694292D02*
X156433408Y-76360959D01*
X156433408Y-76360959D02*
X156242932Y-76360959D01*
X157004837Y-76789531D02*
X156909599Y-76741912D01*
X156909599Y-76741912D02*
X156861980Y-76694292D01*
X156861980Y-76694292D02*
X156814361Y-76599054D01*
X156814361Y-76599054D02*
X156814361Y-76313340D01*
X156814361Y-76313340D02*
X156861980Y-76218102D01*
X156861980Y-76218102D02*
X156909599Y-76170483D01*
X156909599Y-76170483D02*
X157004837Y-76122864D01*
X157004837Y-76122864D02*
X157147694Y-76122864D01*
X157147694Y-76122864D02*
X157242932Y-76170483D01*
X157242932Y-76170483D02*
X157290551Y-76218102D01*
X157290551Y-76218102D02*
X157338170Y-76313340D01*
X157338170Y-76313340D02*
X157338170Y-76599054D01*
X157338170Y-76599054D02*
X157290551Y-76694292D01*
X157290551Y-76694292D02*
X157242932Y-76741912D01*
X157242932Y-76741912D02*
X157147694Y-76789531D01*
X157147694Y-76789531D02*
X157004837Y-76789531D01*
X157909599Y-76789531D02*
X157814361Y-76741912D01*
X157814361Y-76741912D02*
X157766742Y-76646673D01*
X157766742Y-76646673D02*
X157766742Y-75789531D01*
X158147695Y-76122864D02*
X158528647Y-76122864D01*
X158290552Y-76789531D02*
X158290552Y-75932388D01*
X158290552Y-75932388D02*
X158338171Y-75837150D01*
X158338171Y-75837150D02*
X158433409Y-75789531D01*
X158433409Y-75789531D02*
X158528647Y-75789531D01*
X159576267Y-76741912D02*
X159719124Y-76789531D01*
X159719124Y-76789531D02*
X159957219Y-76789531D01*
X159957219Y-76789531D02*
X160052457Y-76741912D01*
X160052457Y-76741912D02*
X160100076Y-76694292D01*
X160100076Y-76694292D02*
X160147695Y-76599054D01*
X160147695Y-76599054D02*
X160147695Y-76503816D01*
X160147695Y-76503816D02*
X160100076Y-76408578D01*
X160100076Y-76408578D02*
X160052457Y-76360959D01*
X160052457Y-76360959D02*
X159957219Y-76313340D01*
X159957219Y-76313340D02*
X159766743Y-76265721D01*
X159766743Y-76265721D02*
X159671505Y-76218102D01*
X159671505Y-76218102D02*
X159623886Y-76170483D01*
X159623886Y-76170483D02*
X159576267Y-76075245D01*
X159576267Y-76075245D02*
X159576267Y-75980007D01*
X159576267Y-75980007D02*
X159623886Y-75884769D01*
X159623886Y-75884769D02*
X159671505Y-75837150D01*
X159671505Y-75837150D02*
X159766743Y-75789531D01*
X159766743Y-75789531D02*
X160004838Y-75789531D01*
X160004838Y-75789531D02*
X160147695Y-75837150D01*
X160957219Y-76741912D02*
X160861981Y-76789531D01*
X160861981Y-76789531D02*
X160671505Y-76789531D01*
X160671505Y-76789531D02*
X160576267Y-76741912D01*
X160576267Y-76741912D02*
X160528648Y-76646673D01*
X160528648Y-76646673D02*
X160528648Y-76265721D01*
X160528648Y-76265721D02*
X160576267Y-76170483D01*
X160576267Y-76170483D02*
X160671505Y-76122864D01*
X160671505Y-76122864D02*
X160861981Y-76122864D01*
X160861981Y-76122864D02*
X160957219Y-76170483D01*
X160957219Y-76170483D02*
X161004838Y-76265721D01*
X161004838Y-76265721D02*
X161004838Y-76360959D01*
X161004838Y-76360959D02*
X160528648Y-76456197D01*
X161433410Y-76122864D02*
X161433410Y-76789531D01*
X161433410Y-76218102D02*
X161481029Y-76170483D01*
X161481029Y-76170483D02*
X161576267Y-76122864D01*
X161576267Y-76122864D02*
X161719124Y-76122864D01*
X161719124Y-76122864D02*
X161814362Y-76170483D01*
X161814362Y-76170483D02*
X161861981Y-76265721D01*
X161861981Y-76265721D02*
X161861981Y-76789531D01*
X162290553Y-76741912D02*
X162385791Y-76789531D01*
X162385791Y-76789531D02*
X162576267Y-76789531D01*
X162576267Y-76789531D02*
X162671505Y-76741912D01*
X162671505Y-76741912D02*
X162719124Y-76646673D01*
X162719124Y-76646673D02*
X162719124Y-76599054D01*
X162719124Y-76599054D02*
X162671505Y-76503816D01*
X162671505Y-76503816D02*
X162576267Y-76456197D01*
X162576267Y-76456197D02*
X162433410Y-76456197D01*
X162433410Y-76456197D02*
X162338172Y-76408578D01*
X162338172Y-76408578D02*
X162290553Y-76313340D01*
X162290553Y-76313340D02*
X162290553Y-76265721D01*
X162290553Y-76265721D02*
X162338172Y-76170483D01*
X162338172Y-76170483D02*
X162433410Y-76122864D01*
X162433410Y-76122864D02*
X162576267Y-76122864D01*
X162576267Y-76122864D02*
X162671505Y-76170483D01*
X163290553Y-76789531D02*
X163195315Y-76741912D01*
X163195315Y-76741912D02*
X163147696Y-76694292D01*
X163147696Y-76694292D02*
X163100077Y-76599054D01*
X163100077Y-76599054D02*
X163100077Y-76313340D01*
X163100077Y-76313340D02*
X163147696Y-76218102D01*
X163147696Y-76218102D02*
X163195315Y-76170483D01*
X163195315Y-76170483D02*
X163290553Y-76122864D01*
X163290553Y-76122864D02*
X163433410Y-76122864D01*
X163433410Y-76122864D02*
X163528648Y-76170483D01*
X163528648Y-76170483D02*
X163576267Y-76218102D01*
X163576267Y-76218102D02*
X163623886Y-76313340D01*
X163623886Y-76313340D02*
X163623886Y-76599054D01*
X163623886Y-76599054D02*
X163576267Y-76694292D01*
X163576267Y-76694292D02*
X163528648Y-76741912D01*
X163528648Y-76741912D02*
X163433410Y-76789531D01*
X163433410Y-76789531D02*
X163290553Y-76789531D01*
X164052458Y-76789531D02*
X164052458Y-76122864D01*
X164052458Y-76313340D02*
X164100077Y-76218102D01*
X164100077Y-76218102D02*
X164147696Y-76170483D01*
X164147696Y-76170483D02*
X164242934Y-76122864D01*
X164242934Y-76122864D02*
X164338172Y-76122864D01*
X164623887Y-76741912D02*
X164719125Y-76789531D01*
X164719125Y-76789531D02*
X164909601Y-76789531D01*
X164909601Y-76789531D02*
X165004839Y-76741912D01*
X165004839Y-76741912D02*
X165052458Y-76646673D01*
X165052458Y-76646673D02*
X165052458Y-76599054D01*
X165052458Y-76599054D02*
X165004839Y-76503816D01*
X165004839Y-76503816D02*
X164909601Y-76456197D01*
X164909601Y-76456197D02*
X164766744Y-76456197D01*
X164766744Y-76456197D02*
X164671506Y-76408578D01*
X164671506Y-76408578D02*
X164623887Y-76313340D01*
X164623887Y-76313340D02*
X164623887Y-76265721D01*
X164623887Y-76265721D02*
X164671506Y-76170483D01*
X164671506Y-76170483D02*
X164766744Y-76122864D01*
X164766744Y-76122864D02*
X164909601Y-76122864D01*
X164909601Y-76122864D02*
X165004839Y-76170483D01*
X166100078Y-75789531D02*
X166433411Y-76789531D01*
X166433411Y-76789531D02*
X166766744Y-75789531D01*
X167623887Y-76789531D02*
X167052459Y-76789531D01*
X167338173Y-76789531D02*
X167338173Y-75789531D01*
X167338173Y-75789531D02*
X167242935Y-75932388D01*
X167242935Y-75932388D02*
X167147697Y-76027626D01*
X167147697Y-76027626D02*
X167052459Y-76075245D01*
X148147693Y-78399475D02*
X147576265Y-78399475D01*
X147861979Y-78399475D02*
X147861979Y-77399475D01*
X147861979Y-77399475D02*
X147766741Y-77542332D01*
X147766741Y-77542332D02*
X147671503Y-77637570D01*
X147671503Y-77637570D02*
X147576265Y-77685189D01*
X148766741Y-77399475D02*
X148861979Y-77399475D01*
X148861979Y-77399475D02*
X148957217Y-77447094D01*
X148957217Y-77447094D02*
X149004836Y-77494713D01*
X149004836Y-77494713D02*
X149052455Y-77589951D01*
X149052455Y-77589951D02*
X149100074Y-77780427D01*
X149100074Y-77780427D02*
X149100074Y-78018522D01*
X149100074Y-78018522D02*
X149052455Y-78208998D01*
X149052455Y-78208998D02*
X149004836Y-78304236D01*
X149004836Y-78304236D02*
X148957217Y-78351856D01*
X148957217Y-78351856D02*
X148861979Y-78399475D01*
X148861979Y-78399475D02*
X148766741Y-78399475D01*
X148766741Y-78399475D02*
X148671503Y-78351856D01*
X148671503Y-78351856D02*
X148623884Y-78304236D01*
X148623884Y-78304236D02*
X148576265Y-78208998D01*
X148576265Y-78208998D02*
X148528646Y-78018522D01*
X148528646Y-78018522D02*
X148528646Y-77780427D01*
X148528646Y-77780427D02*
X148576265Y-77589951D01*
X148576265Y-77589951D02*
X148623884Y-77494713D01*
X148623884Y-77494713D02*
X148671503Y-77447094D01*
X148671503Y-77447094D02*
X148766741Y-77399475D01*
X150242931Y-77351856D02*
X149385789Y-78637570D01*
X150528646Y-77494713D02*
X150576265Y-77447094D01*
X150576265Y-77447094D02*
X150671503Y-77399475D01*
X150671503Y-77399475D02*
X150909598Y-77399475D01*
X150909598Y-77399475D02*
X151004836Y-77447094D01*
X151004836Y-77447094D02*
X151052455Y-77494713D01*
X151052455Y-77494713D02*
X151100074Y-77589951D01*
X151100074Y-77589951D02*
X151100074Y-77685189D01*
X151100074Y-77685189D02*
X151052455Y-77828046D01*
X151052455Y-77828046D02*
X150481027Y-78399475D01*
X150481027Y-78399475D02*
X151100074Y-78399475D01*
X152052455Y-78399475D02*
X151481027Y-78399475D01*
X151766741Y-78399475D02*
X151766741Y-77399475D01*
X151766741Y-77399475D02*
X151671503Y-77542332D01*
X151671503Y-77542332D02*
X151576265Y-77637570D01*
X151576265Y-77637570D02*
X151481027Y-77685189D01*
X153195312Y-77351856D02*
X152338170Y-78637570D01*
X153481027Y-77494713D02*
X153528646Y-77447094D01*
X153528646Y-77447094D02*
X153623884Y-77399475D01*
X153623884Y-77399475D02*
X153861979Y-77399475D01*
X153861979Y-77399475D02*
X153957217Y-77447094D01*
X153957217Y-77447094D02*
X154004836Y-77494713D01*
X154004836Y-77494713D02*
X154052455Y-77589951D01*
X154052455Y-77589951D02*
X154052455Y-77685189D01*
X154052455Y-77685189D02*
X154004836Y-77828046D01*
X154004836Y-77828046D02*
X153433408Y-78399475D01*
X153433408Y-78399475D02*
X154052455Y-78399475D01*
X154671503Y-77399475D02*
X154766741Y-77399475D01*
X154766741Y-77399475D02*
X154861979Y-77447094D01*
X154861979Y-77447094D02*
X154909598Y-77494713D01*
X154909598Y-77494713D02*
X154957217Y-77589951D01*
X154957217Y-77589951D02*
X155004836Y-77780427D01*
X155004836Y-77780427D02*
X155004836Y-78018522D01*
X155004836Y-78018522D02*
X154957217Y-78208998D01*
X154957217Y-78208998D02*
X154909598Y-78304236D01*
X154909598Y-78304236D02*
X154861979Y-78351856D01*
X154861979Y-78351856D02*
X154766741Y-78399475D01*
X154766741Y-78399475D02*
X154671503Y-78399475D01*
X154671503Y-78399475D02*
X154576265Y-78351856D01*
X154576265Y-78351856D02*
X154528646Y-78304236D01*
X154528646Y-78304236D02*
X154481027Y-78208998D01*
X154481027Y-78208998D02*
X154433408Y-78018522D01*
X154433408Y-78018522D02*
X154433408Y-77780427D01*
X154433408Y-77780427D02*
X154481027Y-77589951D01*
X154481027Y-77589951D02*
X154528646Y-77494713D01*
X154528646Y-77494713D02*
X154576265Y-77447094D01*
X154576265Y-77447094D02*
X154671503Y-77399475D01*
X155385789Y-77494713D02*
X155433408Y-77447094D01*
X155433408Y-77447094D02*
X155528646Y-77399475D01*
X155528646Y-77399475D02*
X155766741Y-77399475D01*
X155766741Y-77399475D02*
X155861979Y-77447094D01*
X155861979Y-77447094D02*
X155909598Y-77494713D01*
X155909598Y-77494713D02*
X155957217Y-77589951D01*
X155957217Y-77589951D02*
X155957217Y-77685189D01*
X155957217Y-77685189D02*
X155909598Y-77828046D01*
X155909598Y-77828046D02*
X155338170Y-78399475D01*
X155338170Y-78399475D02*
X155957217Y-78399475D01*
X156814360Y-77732808D02*
X156814360Y-78399475D01*
X156576265Y-77351856D02*
X156338170Y-78066141D01*
X156338170Y-78066141D02*
X156957217Y-78066141D01*
X147481027Y-79009419D02*
X148052455Y-79009419D01*
X147766741Y-80009419D02*
X147766741Y-79009419D01*
X148766741Y-79961800D02*
X148671503Y-80009419D01*
X148671503Y-80009419D02*
X148481027Y-80009419D01*
X148481027Y-80009419D02*
X148385789Y-79961800D01*
X148385789Y-79961800D02*
X148338170Y-79866561D01*
X148338170Y-79866561D02*
X148338170Y-79485609D01*
X148338170Y-79485609D02*
X148385789Y-79390371D01*
X148385789Y-79390371D02*
X148481027Y-79342752D01*
X148481027Y-79342752D02*
X148671503Y-79342752D01*
X148671503Y-79342752D02*
X148766741Y-79390371D01*
X148766741Y-79390371D02*
X148814360Y-79485609D01*
X148814360Y-79485609D02*
X148814360Y-79580847D01*
X148814360Y-79580847D02*
X148338170Y-79676085D01*
X149671503Y-80009419D02*
X149671503Y-79485609D01*
X149671503Y-79485609D02*
X149623884Y-79390371D01*
X149623884Y-79390371D02*
X149528646Y-79342752D01*
X149528646Y-79342752D02*
X149338170Y-79342752D01*
X149338170Y-79342752D02*
X149242932Y-79390371D01*
X149671503Y-79961800D02*
X149576265Y-80009419D01*
X149576265Y-80009419D02*
X149338170Y-80009419D01*
X149338170Y-80009419D02*
X149242932Y-79961800D01*
X149242932Y-79961800D02*
X149195313Y-79866561D01*
X149195313Y-79866561D02*
X149195313Y-79771323D01*
X149195313Y-79771323D02*
X149242932Y-79676085D01*
X149242932Y-79676085D02*
X149338170Y-79628466D01*
X149338170Y-79628466D02*
X149576265Y-79628466D01*
X149576265Y-79628466D02*
X149671503Y-79580847D01*
X150147694Y-80009419D02*
X150147694Y-79342752D01*
X150147694Y-79437990D02*
X150195313Y-79390371D01*
X150195313Y-79390371D02*
X150290551Y-79342752D01*
X150290551Y-79342752D02*
X150433408Y-79342752D01*
X150433408Y-79342752D02*
X150528646Y-79390371D01*
X150528646Y-79390371D02*
X150576265Y-79485609D01*
X150576265Y-79485609D02*
X150576265Y-80009419D01*
X150576265Y-79485609D02*
X150623884Y-79390371D01*
X150623884Y-79390371D02*
X150719122Y-79342752D01*
X150719122Y-79342752D02*
X150861979Y-79342752D01*
X150861979Y-79342752D02*
X150957218Y-79390371D01*
X150957218Y-79390371D02*
X151004837Y-79485609D01*
X151004837Y-79485609D02*
X151004837Y-80009419D01*
X152766741Y-80009419D02*
X152195313Y-80009419D01*
X152481027Y-80009419D02*
X152481027Y-79009419D01*
X152481027Y-79009419D02*
X152385789Y-79152276D01*
X152385789Y-79152276D02*
X152290551Y-79247514D01*
X152290551Y-79247514D02*
X152195313Y-79295133D01*
X153671503Y-79009419D02*
X153195313Y-79009419D01*
X153195313Y-79009419D02*
X153147694Y-79485609D01*
X153147694Y-79485609D02*
X153195313Y-79437990D01*
X153195313Y-79437990D02*
X153290551Y-79390371D01*
X153290551Y-79390371D02*
X153528646Y-79390371D01*
X153528646Y-79390371D02*
X153623884Y-79437990D01*
X153623884Y-79437990D02*
X153671503Y-79485609D01*
X153671503Y-79485609D02*
X153719122Y-79580847D01*
X153719122Y-79580847D02*
X153719122Y-79818942D01*
X153719122Y-79818942D02*
X153671503Y-79914180D01*
X153671503Y-79914180D02*
X153623884Y-79961800D01*
X153623884Y-79961800D02*
X153528646Y-80009419D01*
X153528646Y-80009419D02*
X153290551Y-80009419D01*
X153290551Y-80009419D02*
X153195313Y-79961800D01*
X153195313Y-79961800D02*
X153147694Y-79914180D01*
D11*
X190576580Y-49537857D02*
X190624200Y-49585476D01*
X190624200Y-49585476D02*
X190671819Y-49728333D01*
X190671819Y-49728333D02*
X190671819Y-49823571D01*
X190671819Y-49823571D02*
X190624200Y-49966428D01*
X190624200Y-49966428D02*
X190528961Y-50061666D01*
X190528961Y-50061666D02*
X190433723Y-50109285D01*
X190433723Y-50109285D02*
X190243247Y-50156904D01*
X190243247Y-50156904D02*
X190100390Y-50156904D01*
X190100390Y-50156904D02*
X189909914Y-50109285D01*
X189909914Y-50109285D02*
X189814676Y-50061666D01*
X189814676Y-50061666D02*
X189719438Y-49966428D01*
X189719438Y-49966428D02*
X189671819Y-49823571D01*
X189671819Y-49823571D02*
X189671819Y-49728333D01*
X189671819Y-49728333D02*
X189719438Y-49585476D01*
X189719438Y-49585476D02*
X189767057Y-49537857D01*
X190671819Y-48585476D02*
X190671819Y-49156904D01*
X190671819Y-48871190D02*
X189671819Y-48871190D01*
X189671819Y-48871190D02*
X189814676Y-48966428D01*
X189814676Y-48966428D02*
X189909914Y-49061666D01*
X189909914Y-49061666D02*
X189957533Y-49156904D01*
X189671819Y-47966428D02*
X189671819Y-47871190D01*
X189671819Y-47871190D02*
X189719438Y-47775952D01*
X189719438Y-47775952D02*
X189767057Y-47728333D01*
X189767057Y-47728333D02*
X189862295Y-47680714D01*
X189862295Y-47680714D02*
X190052771Y-47633095D01*
X190052771Y-47633095D02*
X190290866Y-47633095D01*
X190290866Y-47633095D02*
X190481342Y-47680714D01*
X190481342Y-47680714D02*
X190576580Y-47728333D01*
X190576580Y-47728333D02*
X190624200Y-47775952D01*
X190624200Y-47775952D02*
X190671819Y-47871190D01*
X190671819Y-47871190D02*
X190671819Y-47966428D01*
X190671819Y-47966428D02*
X190624200Y-48061666D01*
X190624200Y-48061666D02*
X190576580Y-48109285D01*
X190576580Y-48109285D02*
X190481342Y-48156904D01*
X190481342Y-48156904D02*
X190290866Y-48204523D01*
X190290866Y-48204523D02*
X190052771Y-48204523D01*
X190052771Y-48204523D02*
X189862295Y-48156904D01*
X189862295Y-48156904D02*
X189767057Y-48109285D01*
X189767057Y-48109285D02*
X189719438Y-48061666D01*
X189719438Y-48061666D02*
X189671819Y-47966428D01*
X137818905Y-90623819D02*
X137818905Y-89623819D01*
X137818905Y-89623819D02*
X138057000Y-89623819D01*
X138057000Y-89623819D02*
X138199857Y-89671438D01*
X138199857Y-89671438D02*
X138295095Y-89766676D01*
X138295095Y-89766676D02*
X138342714Y-89861914D01*
X138342714Y-89861914D02*
X138390333Y-90052390D01*
X138390333Y-90052390D02*
X138390333Y-90195247D01*
X138390333Y-90195247D02*
X138342714Y-90385723D01*
X138342714Y-90385723D02*
X138295095Y-90480961D01*
X138295095Y-90480961D02*
X138199857Y-90576200D01*
X138199857Y-90576200D02*
X138057000Y-90623819D01*
X138057000Y-90623819D02*
X137818905Y-90623819D01*
X138771286Y-89719057D02*
X138818905Y-89671438D01*
X138818905Y-89671438D02*
X138914143Y-89623819D01*
X138914143Y-89623819D02*
X139152238Y-89623819D01*
X139152238Y-89623819D02*
X139247476Y-89671438D01*
X139247476Y-89671438D02*
X139295095Y-89719057D01*
X139295095Y-89719057D02*
X139342714Y-89814295D01*
X139342714Y-89814295D02*
X139342714Y-89909533D01*
X139342714Y-89909533D02*
X139295095Y-90052390D01*
X139295095Y-90052390D02*
X138723667Y-90623819D01*
X138723667Y-90623819D02*
X139342714Y-90623819D01*
X175012761Y-88923057D02*
X174917523Y-88875438D01*
X174917523Y-88875438D02*
X174822285Y-88780200D01*
X174822285Y-88780200D02*
X174679428Y-88637342D01*
X174679428Y-88637342D02*
X174584190Y-88589723D01*
X174584190Y-88589723D02*
X174488952Y-88589723D01*
X174536571Y-88827819D02*
X174441333Y-88780200D01*
X174441333Y-88780200D02*
X174346095Y-88684961D01*
X174346095Y-88684961D02*
X174298476Y-88494485D01*
X174298476Y-88494485D02*
X174298476Y-88161152D01*
X174298476Y-88161152D02*
X174346095Y-87970676D01*
X174346095Y-87970676D02*
X174441333Y-87875438D01*
X174441333Y-87875438D02*
X174536571Y-87827819D01*
X174536571Y-87827819D02*
X174727047Y-87827819D01*
X174727047Y-87827819D02*
X174822285Y-87875438D01*
X174822285Y-87875438D02*
X174917523Y-87970676D01*
X174917523Y-87970676D02*
X174965142Y-88161152D01*
X174965142Y-88161152D02*
X174965142Y-88494485D01*
X174965142Y-88494485D02*
X174917523Y-88684961D01*
X174917523Y-88684961D02*
X174822285Y-88780200D01*
X174822285Y-88780200D02*
X174727047Y-88827819D01*
X174727047Y-88827819D02*
X174536571Y-88827819D01*
X175917523Y-88827819D02*
X175346095Y-88827819D01*
X175631809Y-88827819D02*
X175631809Y-87827819D01*
X175631809Y-87827819D02*
X175536571Y-87970676D01*
X175536571Y-87970676D02*
X175441333Y-88065914D01*
X175441333Y-88065914D02*
X175346095Y-88113533D01*
X135088333Y-91641819D02*
X134755000Y-91165628D01*
X134516905Y-91641819D02*
X134516905Y-90641819D01*
X134516905Y-90641819D02*
X134897857Y-90641819D01*
X134897857Y-90641819D02*
X134993095Y-90689438D01*
X134993095Y-90689438D02*
X135040714Y-90737057D01*
X135040714Y-90737057D02*
X135088333Y-90832295D01*
X135088333Y-90832295D02*
X135088333Y-90975152D01*
X135088333Y-90975152D02*
X135040714Y-91070390D01*
X135040714Y-91070390D02*
X134993095Y-91118009D01*
X134993095Y-91118009D02*
X134897857Y-91165628D01*
X134897857Y-91165628D02*
X134516905Y-91165628D01*
X135993095Y-90641819D02*
X135516905Y-90641819D01*
X135516905Y-90641819D02*
X135469286Y-91118009D01*
X135469286Y-91118009D02*
X135516905Y-91070390D01*
X135516905Y-91070390D02*
X135612143Y-91022771D01*
X135612143Y-91022771D02*
X135850238Y-91022771D01*
X135850238Y-91022771D02*
X135945476Y-91070390D01*
X135945476Y-91070390D02*
X135993095Y-91118009D01*
X135993095Y-91118009D02*
X136040714Y-91213247D01*
X136040714Y-91213247D02*
X136040714Y-91451342D01*
X136040714Y-91451342D02*
X135993095Y-91546580D01*
X135993095Y-91546580D02*
X135945476Y-91594200D01*
X135945476Y-91594200D02*
X135850238Y-91641819D01*
X135850238Y-91641819D02*
X135612143Y-91641819D01*
X135612143Y-91641819D02*
X135516905Y-91594200D01*
X135516905Y-91594200D02*
X135469286Y-91546580D01*
X116842009Y-56475047D02*
X116842009Y-56808380D01*
X117365819Y-56808380D02*
X116365819Y-56808380D01*
X116365819Y-56808380D02*
X116365819Y-56332190D01*
X117318200Y-55998856D02*
X117365819Y-55855999D01*
X117365819Y-55855999D02*
X117365819Y-55617904D01*
X117365819Y-55617904D02*
X117318200Y-55522666D01*
X117318200Y-55522666D02*
X117270580Y-55475047D01*
X117270580Y-55475047D02*
X117175342Y-55427428D01*
X117175342Y-55427428D02*
X117080104Y-55427428D01*
X117080104Y-55427428D02*
X116984866Y-55475047D01*
X116984866Y-55475047D02*
X116937247Y-55522666D01*
X116937247Y-55522666D02*
X116889628Y-55617904D01*
X116889628Y-55617904D02*
X116842009Y-55808380D01*
X116842009Y-55808380D02*
X116794390Y-55903618D01*
X116794390Y-55903618D02*
X116746771Y-55951237D01*
X116746771Y-55951237D02*
X116651533Y-55998856D01*
X116651533Y-55998856D02*
X116556295Y-55998856D01*
X116556295Y-55998856D02*
X116461057Y-55951237D01*
X116461057Y-55951237D02*
X116413438Y-55903618D01*
X116413438Y-55903618D02*
X116365819Y-55808380D01*
X116365819Y-55808380D02*
X116365819Y-55570285D01*
X116365819Y-55570285D02*
X116413438Y-55427428D01*
X117365819Y-54427428D02*
X116889628Y-54760761D01*
X117365819Y-54998856D02*
X116365819Y-54998856D01*
X116365819Y-54998856D02*
X116365819Y-54617904D01*
X116365819Y-54617904D02*
X116413438Y-54522666D01*
X116413438Y-54522666D02*
X116461057Y-54475047D01*
X116461057Y-54475047D02*
X116556295Y-54427428D01*
X116556295Y-54427428D02*
X116699152Y-54427428D01*
X116699152Y-54427428D02*
X116794390Y-54475047D01*
X116794390Y-54475047D02*
X116842009Y-54522666D01*
X116842009Y-54522666D02*
X116889628Y-54617904D01*
X116889628Y-54617904D02*
X116889628Y-54998856D01*
X117461057Y-54236952D02*
X117461057Y-53475047D01*
X116365819Y-53379808D02*
X117365819Y-53046475D01*
X117365819Y-53046475D02*
X116365819Y-52713142D01*
X117365819Y-51855999D02*
X117365819Y-52427427D01*
X117365819Y-52141713D02*
X116365819Y-52141713D01*
X116365819Y-52141713D02*
X116508676Y-52236951D01*
X116508676Y-52236951D02*
X116603914Y-52332189D01*
X116603914Y-52332189D02*
X116651533Y-52427427D01*
X153185905Y-96720819D02*
X153185905Y-95720819D01*
X153185905Y-95720819D02*
X153424000Y-95720819D01*
X153424000Y-95720819D02*
X153566857Y-95768438D01*
X153566857Y-95768438D02*
X153662095Y-95863676D01*
X153662095Y-95863676D02*
X153709714Y-95958914D01*
X153709714Y-95958914D02*
X153757333Y-96149390D01*
X153757333Y-96149390D02*
X153757333Y-96292247D01*
X153757333Y-96292247D02*
X153709714Y-96482723D01*
X153709714Y-96482723D02*
X153662095Y-96577961D01*
X153662095Y-96577961D02*
X153566857Y-96673200D01*
X153566857Y-96673200D02*
X153424000Y-96720819D01*
X153424000Y-96720819D02*
X153185905Y-96720819D01*
X154709714Y-96720819D02*
X154138286Y-96720819D01*
X154424000Y-96720819D02*
X154424000Y-95720819D01*
X154424000Y-95720819D02*
X154328762Y-95863676D01*
X154328762Y-95863676D02*
X154233524Y-95958914D01*
X154233524Y-95958914D02*
X154138286Y-96006533D01*
X146322057Y-65500238D02*
X146274438Y-65595476D01*
X146274438Y-65595476D02*
X146179200Y-65690714D01*
X146179200Y-65690714D02*
X146036342Y-65833571D01*
X146036342Y-65833571D02*
X145988723Y-65928809D01*
X145988723Y-65928809D02*
X145988723Y-66024047D01*
X146226819Y-65976428D02*
X146179200Y-66071666D01*
X146179200Y-66071666D02*
X146083961Y-66166904D01*
X146083961Y-66166904D02*
X145893485Y-66214523D01*
X145893485Y-66214523D02*
X145560152Y-66214523D01*
X145560152Y-66214523D02*
X145369676Y-66166904D01*
X145369676Y-66166904D02*
X145274438Y-66071666D01*
X145274438Y-66071666D02*
X145226819Y-65976428D01*
X145226819Y-65976428D02*
X145226819Y-65785952D01*
X145226819Y-65785952D02*
X145274438Y-65690714D01*
X145274438Y-65690714D02*
X145369676Y-65595476D01*
X145369676Y-65595476D02*
X145560152Y-65547857D01*
X145560152Y-65547857D02*
X145893485Y-65547857D01*
X145893485Y-65547857D02*
X146083961Y-65595476D01*
X146083961Y-65595476D02*
X146179200Y-65690714D01*
X146179200Y-65690714D02*
X146226819Y-65785952D01*
X146226819Y-65785952D02*
X146226819Y-65976428D01*
X145226819Y-65214523D02*
X145226819Y-64595476D01*
X145226819Y-64595476D02*
X145607771Y-64928809D01*
X145607771Y-64928809D02*
X145607771Y-64785952D01*
X145607771Y-64785952D02*
X145655390Y-64690714D01*
X145655390Y-64690714D02*
X145703009Y-64643095D01*
X145703009Y-64643095D02*
X145798247Y-64595476D01*
X145798247Y-64595476D02*
X146036342Y-64595476D01*
X146036342Y-64595476D02*
X146131580Y-64643095D01*
X146131580Y-64643095D02*
X146179200Y-64690714D01*
X146179200Y-64690714D02*
X146226819Y-64785952D01*
X146226819Y-64785952D02*
X146226819Y-65071666D01*
X146226819Y-65071666D02*
X146179200Y-65166904D01*
X146179200Y-65166904D02*
X146131580Y-65214523D01*
X167841819Y-75731666D02*
X167365628Y-76064999D01*
X167841819Y-76303094D02*
X166841819Y-76303094D01*
X166841819Y-76303094D02*
X166841819Y-75922142D01*
X166841819Y-75922142D02*
X166889438Y-75826904D01*
X166889438Y-75826904D02*
X166937057Y-75779285D01*
X166937057Y-75779285D02*
X167032295Y-75731666D01*
X167032295Y-75731666D02*
X167175152Y-75731666D01*
X167175152Y-75731666D02*
X167270390Y-75779285D01*
X167270390Y-75779285D02*
X167318009Y-75826904D01*
X167318009Y-75826904D02*
X167365628Y-75922142D01*
X167365628Y-75922142D02*
X167365628Y-76303094D01*
X166841819Y-75398332D02*
X166841819Y-74779285D01*
X166841819Y-74779285D02*
X167222771Y-75112618D01*
X167222771Y-75112618D02*
X167222771Y-74969761D01*
X167222771Y-74969761D02*
X167270390Y-74874523D01*
X167270390Y-74874523D02*
X167318009Y-74826904D01*
X167318009Y-74826904D02*
X167413247Y-74779285D01*
X167413247Y-74779285D02*
X167651342Y-74779285D01*
X167651342Y-74779285D02*
X167746580Y-74826904D01*
X167746580Y-74826904D02*
X167794200Y-74874523D01*
X167794200Y-74874523D02*
X167841819Y-74969761D01*
X167841819Y-74969761D02*
X167841819Y-75255475D01*
X167841819Y-75255475D02*
X167794200Y-75350713D01*
X167794200Y-75350713D02*
X167746580Y-75398332D01*
X199651580Y-46373166D02*
X199699200Y-46420785D01*
X199699200Y-46420785D02*
X199746819Y-46563642D01*
X199746819Y-46563642D02*
X199746819Y-46658880D01*
X199746819Y-46658880D02*
X199699200Y-46801737D01*
X199699200Y-46801737D02*
X199603961Y-46896975D01*
X199603961Y-46896975D02*
X199508723Y-46944594D01*
X199508723Y-46944594D02*
X199318247Y-46992213D01*
X199318247Y-46992213D02*
X199175390Y-46992213D01*
X199175390Y-46992213D02*
X198984914Y-46944594D01*
X198984914Y-46944594D02*
X198889676Y-46896975D01*
X198889676Y-46896975D02*
X198794438Y-46801737D01*
X198794438Y-46801737D02*
X198746819Y-46658880D01*
X198746819Y-46658880D02*
X198746819Y-46563642D01*
X198746819Y-46563642D02*
X198794438Y-46420785D01*
X198794438Y-46420785D02*
X198842057Y-46373166D01*
X199746819Y-45896975D02*
X199746819Y-45706499D01*
X199746819Y-45706499D02*
X199699200Y-45611261D01*
X199699200Y-45611261D02*
X199651580Y-45563642D01*
X199651580Y-45563642D02*
X199508723Y-45468404D01*
X199508723Y-45468404D02*
X199318247Y-45420785D01*
X199318247Y-45420785D02*
X198937295Y-45420785D01*
X198937295Y-45420785D02*
X198842057Y-45468404D01*
X198842057Y-45468404D02*
X198794438Y-45516023D01*
X198794438Y-45516023D02*
X198746819Y-45611261D01*
X198746819Y-45611261D02*
X198746819Y-45801737D01*
X198746819Y-45801737D02*
X198794438Y-45896975D01*
X198794438Y-45896975D02*
X198842057Y-45944594D01*
X198842057Y-45944594D02*
X198937295Y-45992213D01*
X198937295Y-45992213D02*
X199175390Y-45992213D01*
X199175390Y-45992213D02*
X199270628Y-45944594D01*
X199270628Y-45944594D02*
X199318247Y-45896975D01*
X199318247Y-45896975D02*
X199365866Y-45801737D01*
X199365866Y-45801737D02*
X199365866Y-45611261D01*
X199365866Y-45611261D02*
X199318247Y-45516023D01*
X199318247Y-45516023D02*
X199270628Y-45468404D01*
X199270628Y-45468404D02*
X199175390Y-45420785D01*
X147534333Y-51130580D02*
X147486714Y-51178200D01*
X147486714Y-51178200D02*
X147343857Y-51225819D01*
X147343857Y-51225819D02*
X147248619Y-51225819D01*
X147248619Y-51225819D02*
X147105762Y-51178200D01*
X147105762Y-51178200D02*
X147010524Y-51082961D01*
X147010524Y-51082961D02*
X146962905Y-50987723D01*
X146962905Y-50987723D02*
X146915286Y-50797247D01*
X146915286Y-50797247D02*
X146915286Y-50654390D01*
X146915286Y-50654390D02*
X146962905Y-50463914D01*
X146962905Y-50463914D02*
X147010524Y-50368676D01*
X147010524Y-50368676D02*
X147105762Y-50273438D01*
X147105762Y-50273438D02*
X147248619Y-50225819D01*
X147248619Y-50225819D02*
X147343857Y-50225819D01*
X147343857Y-50225819D02*
X147486714Y-50273438D01*
X147486714Y-50273438D02*
X147534333Y-50321057D01*
X147867667Y-50225819D02*
X148534333Y-50225819D01*
X148534333Y-50225819D02*
X148105762Y-51225819D01*
X196603580Y-91120166D02*
X196651200Y-91167785D01*
X196651200Y-91167785D02*
X196698819Y-91310642D01*
X196698819Y-91310642D02*
X196698819Y-91405880D01*
X196698819Y-91405880D02*
X196651200Y-91548737D01*
X196651200Y-91548737D02*
X196555961Y-91643975D01*
X196555961Y-91643975D02*
X196460723Y-91691594D01*
X196460723Y-91691594D02*
X196270247Y-91739213D01*
X196270247Y-91739213D02*
X196127390Y-91739213D01*
X196127390Y-91739213D02*
X195936914Y-91691594D01*
X195936914Y-91691594D02*
X195841676Y-91643975D01*
X195841676Y-91643975D02*
X195746438Y-91548737D01*
X195746438Y-91548737D02*
X195698819Y-91405880D01*
X195698819Y-91405880D02*
X195698819Y-91310642D01*
X195698819Y-91310642D02*
X195746438Y-91167785D01*
X195746438Y-91167785D02*
X195794057Y-91120166D01*
X196698819Y-90167785D02*
X196698819Y-90739213D01*
X196698819Y-90453499D02*
X195698819Y-90453499D01*
X195698819Y-90453499D02*
X195841676Y-90548737D01*
X195841676Y-90548737D02*
X195936914Y-90643975D01*
X195936914Y-90643975D02*
X195984533Y-90739213D01*
X208748333Y-73736580D02*
X208700714Y-73784200D01*
X208700714Y-73784200D02*
X208557857Y-73831819D01*
X208557857Y-73831819D02*
X208462619Y-73831819D01*
X208462619Y-73831819D02*
X208319762Y-73784200D01*
X208319762Y-73784200D02*
X208224524Y-73688961D01*
X208224524Y-73688961D02*
X208176905Y-73593723D01*
X208176905Y-73593723D02*
X208129286Y-73403247D01*
X208129286Y-73403247D02*
X208129286Y-73260390D01*
X208129286Y-73260390D02*
X208176905Y-73069914D01*
X208176905Y-73069914D02*
X208224524Y-72974676D01*
X208224524Y-72974676D02*
X208319762Y-72879438D01*
X208319762Y-72879438D02*
X208462619Y-72831819D01*
X208462619Y-72831819D02*
X208557857Y-72831819D01*
X208557857Y-72831819D02*
X208700714Y-72879438D01*
X208700714Y-72879438D02*
X208748333Y-72927057D01*
X209605476Y-73165152D02*
X209605476Y-73831819D01*
X209367381Y-72784200D02*
X209129286Y-73498485D01*
X209129286Y-73498485D02*
X209748333Y-73498485D01*
X125209009Y-70778380D02*
X125209009Y-71111713D01*
X125732819Y-71111713D02*
X124732819Y-71111713D01*
X124732819Y-71111713D02*
X124732819Y-70635523D01*
X125685200Y-70302189D02*
X125732819Y-70159332D01*
X125732819Y-70159332D02*
X125732819Y-69921237D01*
X125732819Y-69921237D02*
X125685200Y-69825999D01*
X125685200Y-69825999D02*
X125637580Y-69778380D01*
X125637580Y-69778380D02*
X125542342Y-69730761D01*
X125542342Y-69730761D02*
X125447104Y-69730761D01*
X125447104Y-69730761D02*
X125351866Y-69778380D01*
X125351866Y-69778380D02*
X125304247Y-69825999D01*
X125304247Y-69825999D02*
X125256628Y-69921237D01*
X125256628Y-69921237D02*
X125209009Y-70111713D01*
X125209009Y-70111713D02*
X125161390Y-70206951D01*
X125161390Y-70206951D02*
X125113771Y-70254570D01*
X125113771Y-70254570D02*
X125018533Y-70302189D01*
X125018533Y-70302189D02*
X124923295Y-70302189D01*
X124923295Y-70302189D02*
X124828057Y-70254570D01*
X124828057Y-70254570D02*
X124780438Y-70206951D01*
X124780438Y-70206951D02*
X124732819Y-70111713D01*
X124732819Y-70111713D02*
X124732819Y-69873618D01*
X124732819Y-69873618D02*
X124780438Y-69730761D01*
X125732819Y-68730761D02*
X125256628Y-69064094D01*
X125732819Y-69302189D02*
X124732819Y-69302189D01*
X124732819Y-69302189D02*
X124732819Y-68921237D01*
X124732819Y-68921237D02*
X124780438Y-68825999D01*
X124780438Y-68825999D02*
X124828057Y-68778380D01*
X124828057Y-68778380D02*
X124923295Y-68730761D01*
X124923295Y-68730761D02*
X125066152Y-68730761D01*
X125066152Y-68730761D02*
X125161390Y-68778380D01*
X125161390Y-68778380D02*
X125209009Y-68825999D01*
X125209009Y-68825999D02*
X125256628Y-68921237D01*
X125256628Y-68921237D02*
X125256628Y-69302189D01*
X125828057Y-68540285D02*
X125828057Y-67778380D01*
X125732819Y-67540284D02*
X124732819Y-67540284D01*
X124732819Y-66873618D02*
X124732819Y-66683142D01*
X124732819Y-66683142D02*
X124780438Y-66587904D01*
X124780438Y-66587904D02*
X124875676Y-66492666D01*
X124875676Y-66492666D02*
X125066152Y-66445047D01*
X125066152Y-66445047D02*
X125399485Y-66445047D01*
X125399485Y-66445047D02*
X125589961Y-66492666D01*
X125589961Y-66492666D02*
X125685200Y-66587904D01*
X125685200Y-66587904D02*
X125732819Y-66683142D01*
X125732819Y-66683142D02*
X125732819Y-66873618D01*
X125732819Y-66873618D02*
X125685200Y-66968856D01*
X125685200Y-66968856D02*
X125589961Y-67064094D01*
X125589961Y-67064094D02*
X125399485Y-67111713D01*
X125399485Y-67111713D02*
X125066152Y-67111713D01*
X125066152Y-67111713D02*
X124875676Y-67064094D01*
X124875676Y-67064094D02*
X124780438Y-66968856D01*
X124780438Y-66968856D02*
X124732819Y-66873618D01*
X125732819Y-65492666D02*
X125732819Y-66064094D01*
X125732819Y-65778380D02*
X124732819Y-65778380D01*
X124732819Y-65778380D02*
X124875676Y-65873618D01*
X124875676Y-65873618D02*
X124970914Y-65968856D01*
X124970914Y-65968856D02*
X125018533Y-66064094D01*
X127706333Y-69033819D02*
X127373000Y-68557628D01*
X127134905Y-69033819D02*
X127134905Y-68033819D01*
X127134905Y-68033819D02*
X127515857Y-68033819D01*
X127515857Y-68033819D02*
X127611095Y-68081438D01*
X127611095Y-68081438D02*
X127658714Y-68129057D01*
X127658714Y-68129057D02*
X127706333Y-68224295D01*
X127706333Y-68224295D02*
X127706333Y-68367152D01*
X127706333Y-68367152D02*
X127658714Y-68462390D01*
X127658714Y-68462390D02*
X127611095Y-68510009D01*
X127611095Y-68510009D02*
X127515857Y-68557628D01*
X127515857Y-68557628D02*
X127134905Y-68557628D01*
X128039667Y-68033819D02*
X128706333Y-68033819D01*
X128706333Y-68033819D02*
X128277762Y-69033819D01*
X159872999Y-88117509D02*
X160015856Y-88165128D01*
X160015856Y-88165128D02*
X160063475Y-88212747D01*
X160063475Y-88212747D02*
X160111094Y-88307985D01*
X160111094Y-88307985D02*
X160111094Y-88450842D01*
X160111094Y-88450842D02*
X160063475Y-88546080D01*
X160063475Y-88546080D02*
X160015856Y-88593700D01*
X160015856Y-88593700D02*
X159920618Y-88641319D01*
X159920618Y-88641319D02*
X159539666Y-88641319D01*
X159539666Y-88641319D02*
X159539666Y-87641319D01*
X159539666Y-87641319D02*
X159872999Y-87641319D01*
X159872999Y-87641319D02*
X159968237Y-87688938D01*
X159968237Y-87688938D02*
X160015856Y-87736557D01*
X160015856Y-87736557D02*
X160063475Y-87831795D01*
X160063475Y-87831795D02*
X160063475Y-87927033D01*
X160063475Y-87927033D02*
X160015856Y-88022271D01*
X160015856Y-88022271D02*
X159968237Y-88069890D01*
X159968237Y-88069890D02*
X159872999Y-88117509D01*
X159872999Y-88117509D02*
X159539666Y-88117509D01*
X160492047Y-88355604D02*
X160968237Y-88355604D01*
X160396809Y-88641319D02*
X160730142Y-87641319D01*
X160730142Y-87641319D02*
X161063475Y-88641319D01*
X161253952Y-87641319D02*
X161825380Y-87641319D01*
X161539666Y-88641319D02*
X161539666Y-87641319D01*
X162015857Y-87641319D02*
X162587285Y-87641319D01*
X162301571Y-88641319D02*
X162301571Y-87641319D01*
X163492047Y-88546080D02*
X163444428Y-88593700D01*
X163444428Y-88593700D02*
X163301571Y-88641319D01*
X163301571Y-88641319D02*
X163206333Y-88641319D01*
X163206333Y-88641319D02*
X163063476Y-88593700D01*
X163063476Y-88593700D02*
X162968238Y-88498461D01*
X162968238Y-88498461D02*
X162920619Y-88403223D01*
X162920619Y-88403223D02*
X162873000Y-88212747D01*
X162873000Y-88212747D02*
X162873000Y-88069890D01*
X162873000Y-88069890D02*
X162920619Y-87879414D01*
X162920619Y-87879414D02*
X162968238Y-87784176D01*
X162968238Y-87784176D02*
X163063476Y-87688938D01*
X163063476Y-87688938D02*
X163206333Y-87641319D01*
X163206333Y-87641319D02*
X163301571Y-87641319D01*
X163301571Y-87641319D02*
X163444428Y-87688938D01*
X163444428Y-87688938D02*
X163492047Y-87736557D01*
X163920619Y-88641319D02*
X163920619Y-87641319D01*
X163920619Y-88117509D02*
X164492047Y-88117509D01*
X164492047Y-88641319D02*
X164492047Y-87641319D01*
X164920619Y-88355604D02*
X165396809Y-88355604D01*
X164825381Y-88641319D02*
X165158714Y-87641319D01*
X165158714Y-87641319D02*
X165492047Y-88641319D01*
X166396809Y-88641319D02*
X166063476Y-88165128D01*
X165825381Y-88641319D02*
X165825381Y-87641319D01*
X165825381Y-87641319D02*
X166206333Y-87641319D01*
X166206333Y-87641319D02*
X166301571Y-87688938D01*
X166301571Y-87688938D02*
X166349190Y-87736557D01*
X166349190Y-87736557D02*
X166396809Y-87831795D01*
X166396809Y-87831795D02*
X166396809Y-87974652D01*
X166396809Y-87974652D02*
X166349190Y-88069890D01*
X166349190Y-88069890D02*
X166301571Y-88117509D01*
X166301571Y-88117509D02*
X166206333Y-88165128D01*
X166206333Y-88165128D02*
X165825381Y-88165128D01*
X167349190Y-87688938D02*
X167253952Y-87641319D01*
X167253952Y-87641319D02*
X167111095Y-87641319D01*
X167111095Y-87641319D02*
X166968238Y-87688938D01*
X166968238Y-87688938D02*
X166873000Y-87784176D01*
X166873000Y-87784176D02*
X166825381Y-87879414D01*
X166825381Y-87879414D02*
X166777762Y-88069890D01*
X166777762Y-88069890D02*
X166777762Y-88212747D01*
X166777762Y-88212747D02*
X166825381Y-88403223D01*
X166825381Y-88403223D02*
X166873000Y-88498461D01*
X166873000Y-88498461D02*
X166968238Y-88593700D01*
X166968238Y-88593700D02*
X167111095Y-88641319D01*
X167111095Y-88641319D02*
X167206333Y-88641319D01*
X167206333Y-88641319D02*
X167349190Y-88593700D01*
X167349190Y-88593700D02*
X167396809Y-88546080D01*
X167396809Y-88546080D02*
X167396809Y-88212747D01*
X167396809Y-88212747D02*
X167206333Y-88212747D01*
X167825381Y-88117509D02*
X168158714Y-88117509D01*
X168301571Y-88641319D02*
X167825381Y-88641319D01*
X167825381Y-88641319D02*
X167825381Y-87641319D01*
X167825381Y-87641319D02*
X168301571Y-87641319D01*
X169301571Y-88641319D02*
X168968238Y-88165128D01*
X168730143Y-88641319D02*
X168730143Y-87641319D01*
X168730143Y-87641319D02*
X169111095Y-87641319D01*
X169111095Y-87641319D02*
X169206333Y-87688938D01*
X169206333Y-87688938D02*
X169253952Y-87736557D01*
X169253952Y-87736557D02*
X169301571Y-87831795D01*
X169301571Y-87831795D02*
X169301571Y-87974652D01*
X169301571Y-87974652D02*
X169253952Y-88069890D01*
X169253952Y-88069890D02*
X169206333Y-88117509D01*
X169206333Y-88117509D02*
X169111095Y-88165128D01*
X169111095Y-88165128D02*
X168730143Y-88165128D01*
X170253952Y-88641319D02*
X169682524Y-88641319D01*
X169968238Y-88641319D02*
X169968238Y-87641319D01*
X169968238Y-87641319D02*
X169873000Y-87784176D01*
X169873000Y-87784176D02*
X169777762Y-87879414D01*
X169777762Y-87879414D02*
X169682524Y-87927033D01*
X187232819Y-85271047D02*
X187232819Y-84652000D01*
X187232819Y-84652000D02*
X187613771Y-84985333D01*
X187613771Y-84985333D02*
X187613771Y-84842476D01*
X187613771Y-84842476D02*
X187661390Y-84747238D01*
X187661390Y-84747238D02*
X187709009Y-84699619D01*
X187709009Y-84699619D02*
X187804247Y-84652000D01*
X187804247Y-84652000D02*
X188042342Y-84652000D01*
X188042342Y-84652000D02*
X188137580Y-84699619D01*
X188137580Y-84699619D02*
X188185200Y-84747238D01*
X188185200Y-84747238D02*
X188232819Y-84842476D01*
X188232819Y-84842476D02*
X188232819Y-85128190D01*
X188232819Y-85128190D02*
X188185200Y-85223428D01*
X188185200Y-85223428D02*
X188137580Y-85271047D01*
X187232819Y-84366285D02*
X188232819Y-84032952D01*
X188232819Y-84032952D02*
X187232819Y-83699619D01*
X187232819Y-83461523D02*
X187232819Y-82842476D01*
X187232819Y-82842476D02*
X187613771Y-83175809D01*
X187613771Y-83175809D02*
X187613771Y-83032952D01*
X187613771Y-83032952D02*
X187661390Y-82937714D01*
X187661390Y-82937714D02*
X187709009Y-82890095D01*
X187709009Y-82890095D02*
X187804247Y-82842476D01*
X187804247Y-82842476D02*
X188042342Y-82842476D01*
X188042342Y-82842476D02*
X188137580Y-82890095D01*
X188137580Y-82890095D02*
X188185200Y-82937714D01*
X188185200Y-82937714D02*
X188232819Y-83032952D01*
X188232819Y-83032952D02*
X188232819Y-83318666D01*
X188232819Y-83318666D02*
X188185200Y-83413904D01*
X188185200Y-83413904D02*
X188137580Y-83461523D01*
X188232819Y-81937714D02*
X188232819Y-82413904D01*
X188232819Y-82413904D02*
X187232819Y-82413904D01*
X188232819Y-81032952D02*
X187756628Y-81366285D01*
X188232819Y-81604380D02*
X187232819Y-81604380D01*
X187232819Y-81604380D02*
X187232819Y-81223428D01*
X187232819Y-81223428D02*
X187280438Y-81128190D01*
X187280438Y-81128190D02*
X187328057Y-81080571D01*
X187328057Y-81080571D02*
X187423295Y-81032952D01*
X187423295Y-81032952D02*
X187566152Y-81032952D01*
X187566152Y-81032952D02*
X187661390Y-81080571D01*
X187661390Y-81080571D02*
X187709009Y-81128190D01*
X187709009Y-81128190D02*
X187756628Y-81223428D01*
X187756628Y-81223428D02*
X187756628Y-81604380D01*
X188232819Y-80080571D02*
X188232819Y-80651999D01*
X188232819Y-80366285D02*
X187232819Y-80366285D01*
X187232819Y-80366285D02*
X187375676Y-80461523D01*
X187375676Y-80461523D02*
X187470914Y-80556761D01*
X187470914Y-80556761D02*
X187518533Y-80651999D01*
X129231819Y-63666666D02*
X128755628Y-63999999D01*
X129231819Y-64238094D02*
X128231819Y-64238094D01*
X128231819Y-64238094D02*
X128231819Y-63857142D01*
X128231819Y-63857142D02*
X128279438Y-63761904D01*
X128279438Y-63761904D02*
X128327057Y-63714285D01*
X128327057Y-63714285D02*
X128422295Y-63666666D01*
X128422295Y-63666666D02*
X128565152Y-63666666D01*
X128565152Y-63666666D02*
X128660390Y-63714285D01*
X128660390Y-63714285D02*
X128708009Y-63761904D01*
X128708009Y-63761904D02*
X128755628Y-63857142D01*
X128755628Y-63857142D02*
X128755628Y-64238094D01*
X128231819Y-62809523D02*
X128231819Y-62999999D01*
X128231819Y-62999999D02*
X128279438Y-63095237D01*
X128279438Y-63095237D02*
X128327057Y-63142856D01*
X128327057Y-63142856D02*
X128469914Y-63238094D01*
X128469914Y-63238094D02*
X128660390Y-63285713D01*
X128660390Y-63285713D02*
X129041342Y-63285713D01*
X129041342Y-63285713D02*
X129136580Y-63238094D01*
X129136580Y-63238094D02*
X129184200Y-63190475D01*
X129184200Y-63190475D02*
X129231819Y-63095237D01*
X129231819Y-63095237D02*
X129231819Y-62904761D01*
X129231819Y-62904761D02*
X129184200Y-62809523D01*
X129184200Y-62809523D02*
X129136580Y-62761904D01*
X129136580Y-62761904D02*
X129041342Y-62714285D01*
X129041342Y-62714285D02*
X128803247Y-62714285D01*
X128803247Y-62714285D02*
X128708009Y-62761904D01*
X128708009Y-62761904D02*
X128660390Y-62809523D01*
X128660390Y-62809523D02*
X128612771Y-62904761D01*
X128612771Y-62904761D02*
X128612771Y-63095237D01*
X128612771Y-63095237D02*
X128660390Y-63190475D01*
X128660390Y-63190475D02*
X128708009Y-63238094D01*
X128708009Y-63238094D02*
X128803247Y-63285713D01*
X209430580Y-91225666D02*
X209478200Y-91273285D01*
X209478200Y-91273285D02*
X209525819Y-91416142D01*
X209525819Y-91416142D02*
X209525819Y-91511380D01*
X209525819Y-91511380D02*
X209478200Y-91654237D01*
X209478200Y-91654237D02*
X209382961Y-91749475D01*
X209382961Y-91749475D02*
X209287723Y-91797094D01*
X209287723Y-91797094D02*
X209097247Y-91844713D01*
X209097247Y-91844713D02*
X208954390Y-91844713D01*
X208954390Y-91844713D02*
X208763914Y-91797094D01*
X208763914Y-91797094D02*
X208668676Y-91749475D01*
X208668676Y-91749475D02*
X208573438Y-91654237D01*
X208573438Y-91654237D02*
X208525819Y-91511380D01*
X208525819Y-91511380D02*
X208525819Y-91416142D01*
X208525819Y-91416142D02*
X208573438Y-91273285D01*
X208573438Y-91273285D02*
X208621057Y-91225666D01*
X208525819Y-90892332D02*
X208525819Y-90273285D01*
X208525819Y-90273285D02*
X208906771Y-90606618D01*
X208906771Y-90606618D02*
X208906771Y-90463761D01*
X208906771Y-90463761D02*
X208954390Y-90368523D01*
X208954390Y-90368523D02*
X209002009Y-90320904D01*
X209002009Y-90320904D02*
X209097247Y-90273285D01*
X209097247Y-90273285D02*
X209335342Y-90273285D01*
X209335342Y-90273285D02*
X209430580Y-90320904D01*
X209430580Y-90320904D02*
X209478200Y-90368523D01*
X209478200Y-90368523D02*
X209525819Y-90463761D01*
X209525819Y-90463761D02*
X209525819Y-90749475D01*
X209525819Y-90749475D02*
X209478200Y-90844713D01*
X209478200Y-90844713D02*
X209430580Y-90892332D01*
X201059819Y-84652000D02*
X201059819Y-85223428D01*
X201059819Y-84937714D02*
X200059819Y-84937714D01*
X200059819Y-84937714D02*
X200202676Y-85032952D01*
X200202676Y-85032952D02*
X200297914Y-85128190D01*
X200297914Y-85128190D02*
X200345533Y-85223428D01*
X200059819Y-84366285D02*
X201059819Y-84032952D01*
X201059819Y-84032952D02*
X200059819Y-83699619D01*
X200488390Y-83223428D02*
X200440771Y-83318666D01*
X200440771Y-83318666D02*
X200393152Y-83366285D01*
X200393152Y-83366285D02*
X200297914Y-83413904D01*
X200297914Y-83413904D02*
X200250295Y-83413904D01*
X200250295Y-83413904D02*
X200155057Y-83366285D01*
X200155057Y-83366285D02*
X200107438Y-83318666D01*
X200107438Y-83318666D02*
X200059819Y-83223428D01*
X200059819Y-83223428D02*
X200059819Y-83032952D01*
X200059819Y-83032952D02*
X200107438Y-82937714D01*
X200107438Y-82937714D02*
X200155057Y-82890095D01*
X200155057Y-82890095D02*
X200250295Y-82842476D01*
X200250295Y-82842476D02*
X200297914Y-82842476D01*
X200297914Y-82842476D02*
X200393152Y-82890095D01*
X200393152Y-82890095D02*
X200440771Y-82937714D01*
X200440771Y-82937714D02*
X200488390Y-83032952D01*
X200488390Y-83032952D02*
X200488390Y-83223428D01*
X200488390Y-83223428D02*
X200536009Y-83318666D01*
X200536009Y-83318666D02*
X200583628Y-83366285D01*
X200583628Y-83366285D02*
X200678866Y-83413904D01*
X200678866Y-83413904D02*
X200869342Y-83413904D01*
X200869342Y-83413904D02*
X200964580Y-83366285D01*
X200964580Y-83366285D02*
X201012200Y-83318666D01*
X201012200Y-83318666D02*
X201059819Y-83223428D01*
X201059819Y-83223428D02*
X201059819Y-83032952D01*
X201059819Y-83032952D02*
X201012200Y-82937714D01*
X201012200Y-82937714D02*
X200964580Y-82890095D01*
X200964580Y-82890095D02*
X200869342Y-82842476D01*
X200869342Y-82842476D02*
X200678866Y-82842476D01*
X200678866Y-82842476D02*
X200583628Y-82890095D01*
X200583628Y-82890095D02*
X200536009Y-82937714D01*
X200536009Y-82937714D02*
X200488390Y-83032952D01*
X201059819Y-81937714D02*
X201059819Y-82413904D01*
X201059819Y-82413904D02*
X200059819Y-82413904D01*
X201059819Y-81032952D02*
X200583628Y-81366285D01*
X201059819Y-81604380D02*
X200059819Y-81604380D01*
X200059819Y-81604380D02*
X200059819Y-81223428D01*
X200059819Y-81223428D02*
X200107438Y-81128190D01*
X200107438Y-81128190D02*
X200155057Y-81080571D01*
X200155057Y-81080571D02*
X200250295Y-81032952D01*
X200250295Y-81032952D02*
X200393152Y-81032952D01*
X200393152Y-81032952D02*
X200488390Y-81080571D01*
X200488390Y-81080571D02*
X200536009Y-81128190D01*
X200536009Y-81128190D02*
X200583628Y-81223428D01*
X200583628Y-81223428D02*
X200583628Y-81604380D01*
X201059819Y-80080571D02*
X201059819Y-80651999D01*
X201059819Y-80366285D02*
X200059819Y-80366285D01*
X200059819Y-80366285D02*
X200202676Y-80461523D01*
X200202676Y-80461523D02*
X200297914Y-80556761D01*
X200297914Y-80556761D02*
X200345533Y-80651999D01*
X155043819Y-66340904D02*
X155853342Y-66340904D01*
X155853342Y-66340904D02*
X155948580Y-66293285D01*
X155948580Y-66293285D02*
X155996200Y-66245666D01*
X155996200Y-66245666D02*
X156043819Y-66150428D01*
X156043819Y-66150428D02*
X156043819Y-65959952D01*
X156043819Y-65959952D02*
X155996200Y-65864714D01*
X155996200Y-65864714D02*
X155948580Y-65817095D01*
X155948580Y-65817095D02*
X155853342Y-65769476D01*
X155853342Y-65769476D02*
X155043819Y-65769476D01*
X155043819Y-65388523D02*
X155043819Y-64769476D01*
X155043819Y-64769476D02*
X155424771Y-65102809D01*
X155424771Y-65102809D02*
X155424771Y-64959952D01*
X155424771Y-64959952D02*
X155472390Y-64864714D01*
X155472390Y-64864714D02*
X155520009Y-64817095D01*
X155520009Y-64817095D02*
X155615247Y-64769476D01*
X155615247Y-64769476D02*
X155853342Y-64769476D01*
X155853342Y-64769476D02*
X155948580Y-64817095D01*
X155948580Y-64817095D02*
X155996200Y-64864714D01*
X155996200Y-64864714D02*
X156043819Y-64959952D01*
X156043819Y-64959952D02*
X156043819Y-65245666D01*
X156043819Y-65245666D02*
X155996200Y-65340904D01*
X155996200Y-65340904D02*
X155948580Y-65388523D01*
X179633857Y-97396009D02*
X179776714Y-97443628D01*
X179776714Y-97443628D02*
X179824333Y-97491247D01*
X179824333Y-97491247D02*
X179871952Y-97586485D01*
X179871952Y-97586485D02*
X179871952Y-97729342D01*
X179871952Y-97729342D02*
X179824333Y-97824580D01*
X179824333Y-97824580D02*
X179776714Y-97872200D01*
X179776714Y-97872200D02*
X179681476Y-97919819D01*
X179681476Y-97919819D02*
X179300524Y-97919819D01*
X179300524Y-97919819D02*
X179300524Y-96919819D01*
X179300524Y-96919819D02*
X179633857Y-96919819D01*
X179633857Y-96919819D02*
X179729095Y-96967438D01*
X179729095Y-96967438D02*
X179776714Y-97015057D01*
X179776714Y-97015057D02*
X179824333Y-97110295D01*
X179824333Y-97110295D02*
X179824333Y-97205533D01*
X179824333Y-97205533D02*
X179776714Y-97300771D01*
X179776714Y-97300771D02*
X179729095Y-97348390D01*
X179729095Y-97348390D02*
X179633857Y-97396009D01*
X179633857Y-97396009D02*
X179300524Y-97396009D01*
X180252905Y-97634104D02*
X180729095Y-97634104D01*
X180157667Y-97919819D02*
X180491000Y-96919819D01*
X180491000Y-96919819D02*
X180824333Y-97919819D01*
X181014810Y-96919819D02*
X181586238Y-96919819D01*
X181300524Y-97919819D02*
X181300524Y-96919819D01*
X181776715Y-96919819D02*
X182348143Y-96919819D01*
X182062429Y-97919819D02*
X182062429Y-96919819D01*
X182681477Y-97919819D02*
X182681477Y-96919819D01*
X183348143Y-96919819D02*
X183538619Y-96919819D01*
X183538619Y-96919819D02*
X183633857Y-96967438D01*
X183633857Y-96967438D02*
X183729095Y-97062676D01*
X183729095Y-97062676D02*
X183776714Y-97253152D01*
X183776714Y-97253152D02*
X183776714Y-97586485D01*
X183776714Y-97586485D02*
X183729095Y-97776961D01*
X183729095Y-97776961D02*
X183633857Y-97872200D01*
X183633857Y-97872200D02*
X183538619Y-97919819D01*
X183538619Y-97919819D02*
X183348143Y-97919819D01*
X183348143Y-97919819D02*
X183252905Y-97872200D01*
X183252905Y-97872200D02*
X183157667Y-97776961D01*
X183157667Y-97776961D02*
X183110048Y-97586485D01*
X183110048Y-97586485D02*
X183110048Y-97253152D01*
X183110048Y-97253152D02*
X183157667Y-97062676D01*
X183157667Y-97062676D02*
X183252905Y-96967438D01*
X183252905Y-96967438D02*
X183348143Y-96919819D01*
X184729095Y-97919819D02*
X184157667Y-97919819D01*
X184443381Y-97919819D02*
X184443381Y-96919819D01*
X184443381Y-96919819D02*
X184348143Y-97062676D01*
X184348143Y-97062676D02*
X184252905Y-97157914D01*
X184252905Y-97157914D02*
X184157667Y-97205533D01*
X146391333Y-89736819D02*
X146058000Y-89260628D01*
X145819905Y-89736819D02*
X145819905Y-88736819D01*
X145819905Y-88736819D02*
X146200857Y-88736819D01*
X146200857Y-88736819D02*
X146296095Y-88784438D01*
X146296095Y-88784438D02*
X146343714Y-88832057D01*
X146343714Y-88832057D02*
X146391333Y-88927295D01*
X146391333Y-88927295D02*
X146391333Y-89070152D01*
X146391333Y-89070152D02*
X146343714Y-89165390D01*
X146343714Y-89165390D02*
X146296095Y-89213009D01*
X146296095Y-89213009D02*
X146200857Y-89260628D01*
X146200857Y-89260628D02*
X145819905Y-89260628D01*
X147343714Y-89736819D02*
X146772286Y-89736819D01*
X147058000Y-89736819D02*
X147058000Y-88736819D01*
X147058000Y-88736819D02*
X146962762Y-88879676D01*
X146962762Y-88879676D02*
X146867524Y-88974914D01*
X146867524Y-88974914D02*
X146772286Y-89022533D01*
X207535819Y-54657284D02*
X206535819Y-54657284D01*
X207535819Y-54181094D02*
X206535819Y-54181094D01*
X206535819Y-54181094D02*
X207250104Y-53847761D01*
X207250104Y-53847761D02*
X206535819Y-53514428D01*
X206535819Y-53514428D02*
X207535819Y-53514428D01*
X206535819Y-53038237D02*
X207345342Y-53038237D01*
X207345342Y-53038237D02*
X207440580Y-52990618D01*
X207440580Y-52990618D02*
X207488200Y-52942999D01*
X207488200Y-52942999D02*
X207535819Y-52847761D01*
X207535819Y-52847761D02*
X207535819Y-52657285D01*
X207535819Y-52657285D02*
X207488200Y-52562047D01*
X207488200Y-52562047D02*
X207440580Y-52514428D01*
X207440580Y-52514428D02*
X207345342Y-52466809D01*
X207345342Y-52466809D02*
X206535819Y-52466809D01*
X207631057Y-52228714D02*
X207631057Y-51466809D01*
X207535819Y-51228713D02*
X206535819Y-51228713D01*
X206535819Y-50562047D02*
X206535819Y-50371571D01*
X206535819Y-50371571D02*
X206583438Y-50276333D01*
X206583438Y-50276333D02*
X206678676Y-50181095D01*
X206678676Y-50181095D02*
X206869152Y-50133476D01*
X206869152Y-50133476D02*
X207202485Y-50133476D01*
X207202485Y-50133476D02*
X207392961Y-50181095D01*
X207392961Y-50181095D02*
X207488200Y-50276333D01*
X207488200Y-50276333D02*
X207535819Y-50371571D01*
X207535819Y-50371571D02*
X207535819Y-50562047D01*
X207535819Y-50562047D02*
X207488200Y-50657285D01*
X207488200Y-50657285D02*
X207392961Y-50752523D01*
X207392961Y-50752523D02*
X207202485Y-50800142D01*
X207202485Y-50800142D02*
X206869152Y-50800142D01*
X206869152Y-50800142D02*
X206678676Y-50752523D01*
X206678676Y-50752523D02*
X206583438Y-50657285D01*
X206583438Y-50657285D02*
X206535819Y-50562047D01*
X207535819Y-49181095D02*
X207535819Y-49752523D01*
X207535819Y-49466809D02*
X206535819Y-49466809D01*
X206535819Y-49466809D02*
X206678676Y-49562047D01*
X206678676Y-49562047D02*
X206773914Y-49657285D01*
X206773914Y-49657285D02*
X206821533Y-49752523D01*
X135088333Y-89355819D02*
X134755000Y-88879628D01*
X134516905Y-89355819D02*
X134516905Y-88355819D01*
X134516905Y-88355819D02*
X134897857Y-88355819D01*
X134897857Y-88355819D02*
X134993095Y-88403438D01*
X134993095Y-88403438D02*
X135040714Y-88451057D01*
X135040714Y-88451057D02*
X135088333Y-88546295D01*
X135088333Y-88546295D02*
X135088333Y-88689152D01*
X135088333Y-88689152D02*
X135040714Y-88784390D01*
X135040714Y-88784390D02*
X134993095Y-88832009D01*
X134993095Y-88832009D02*
X134897857Y-88879628D01*
X134897857Y-88879628D02*
X134516905Y-88879628D01*
X135945476Y-88689152D02*
X135945476Y-89355819D01*
X135707381Y-88308200D02*
X135469286Y-89022485D01*
X135469286Y-89022485D02*
X136088333Y-89022485D01*
X132548333Y-71700819D02*
X132215000Y-71224628D01*
X131976905Y-71700819D02*
X131976905Y-70700819D01*
X131976905Y-70700819D02*
X132357857Y-70700819D01*
X132357857Y-70700819D02*
X132453095Y-70748438D01*
X132453095Y-70748438D02*
X132500714Y-70796057D01*
X132500714Y-70796057D02*
X132548333Y-70891295D01*
X132548333Y-70891295D02*
X132548333Y-71034152D01*
X132548333Y-71034152D02*
X132500714Y-71129390D01*
X132500714Y-71129390D02*
X132453095Y-71177009D01*
X132453095Y-71177009D02*
X132357857Y-71224628D01*
X132357857Y-71224628D02*
X131976905Y-71224628D01*
X133119762Y-71129390D02*
X133024524Y-71081771D01*
X133024524Y-71081771D02*
X132976905Y-71034152D01*
X132976905Y-71034152D02*
X132929286Y-70938914D01*
X132929286Y-70938914D02*
X132929286Y-70891295D01*
X132929286Y-70891295D02*
X132976905Y-70796057D01*
X132976905Y-70796057D02*
X133024524Y-70748438D01*
X133024524Y-70748438D02*
X133119762Y-70700819D01*
X133119762Y-70700819D02*
X133310238Y-70700819D01*
X133310238Y-70700819D02*
X133405476Y-70748438D01*
X133405476Y-70748438D02*
X133453095Y-70796057D01*
X133453095Y-70796057D02*
X133500714Y-70891295D01*
X133500714Y-70891295D02*
X133500714Y-70938914D01*
X133500714Y-70938914D02*
X133453095Y-71034152D01*
X133453095Y-71034152D02*
X133405476Y-71081771D01*
X133405476Y-71081771D02*
X133310238Y-71129390D01*
X133310238Y-71129390D02*
X133119762Y-71129390D01*
X133119762Y-71129390D02*
X133024524Y-71177009D01*
X133024524Y-71177009D02*
X132976905Y-71224628D01*
X132976905Y-71224628D02*
X132929286Y-71319866D01*
X132929286Y-71319866D02*
X132929286Y-71510342D01*
X132929286Y-71510342D02*
X132976905Y-71605580D01*
X132976905Y-71605580D02*
X133024524Y-71653200D01*
X133024524Y-71653200D02*
X133119762Y-71700819D01*
X133119762Y-71700819D02*
X133310238Y-71700819D01*
X133310238Y-71700819D02*
X133405476Y-71653200D01*
X133405476Y-71653200D02*
X133453095Y-71605580D01*
X133453095Y-71605580D02*
X133500714Y-71510342D01*
X133500714Y-71510342D02*
X133500714Y-71319866D01*
X133500714Y-71319866D02*
X133453095Y-71224628D01*
X133453095Y-71224628D02*
X133405476Y-71177009D01*
X133405476Y-71177009D02*
X133310238Y-71129390D01*
X134059819Y-73318666D02*
X133583628Y-73651999D01*
X134059819Y-73890094D02*
X133059819Y-73890094D01*
X133059819Y-73890094D02*
X133059819Y-73509142D01*
X133059819Y-73509142D02*
X133107438Y-73413904D01*
X133107438Y-73413904D02*
X133155057Y-73366285D01*
X133155057Y-73366285D02*
X133250295Y-73318666D01*
X133250295Y-73318666D02*
X133393152Y-73318666D01*
X133393152Y-73318666D02*
X133488390Y-73366285D01*
X133488390Y-73366285D02*
X133536009Y-73413904D01*
X133536009Y-73413904D02*
X133583628Y-73509142D01*
X133583628Y-73509142D02*
X133583628Y-73890094D01*
X134059819Y-72842475D02*
X134059819Y-72651999D01*
X134059819Y-72651999D02*
X134012200Y-72556761D01*
X134012200Y-72556761D02*
X133964580Y-72509142D01*
X133964580Y-72509142D02*
X133821723Y-72413904D01*
X133821723Y-72413904D02*
X133631247Y-72366285D01*
X133631247Y-72366285D02*
X133250295Y-72366285D01*
X133250295Y-72366285D02*
X133155057Y-72413904D01*
X133155057Y-72413904D02*
X133107438Y-72461523D01*
X133107438Y-72461523D02*
X133059819Y-72556761D01*
X133059819Y-72556761D02*
X133059819Y-72747237D01*
X133059819Y-72747237D02*
X133107438Y-72842475D01*
X133107438Y-72842475D02*
X133155057Y-72890094D01*
X133155057Y-72890094D02*
X133250295Y-72937713D01*
X133250295Y-72937713D02*
X133488390Y-72937713D01*
X133488390Y-72937713D02*
X133583628Y-72890094D01*
X133583628Y-72890094D02*
X133631247Y-72842475D01*
X133631247Y-72842475D02*
X133678866Y-72747237D01*
X133678866Y-72747237D02*
X133678866Y-72556761D01*
X133678866Y-72556761D02*
X133631247Y-72461523D01*
X133631247Y-72461523D02*
X133583628Y-72413904D01*
X133583628Y-72413904D02*
X133488390Y-72366285D01*
X137254595Y-74152819D02*
X137254595Y-74962342D01*
X137254595Y-74962342D02*
X137302214Y-75057580D01*
X137302214Y-75057580D02*
X137349833Y-75105200D01*
X137349833Y-75105200D02*
X137445071Y-75152819D01*
X137445071Y-75152819D02*
X137635547Y-75152819D01*
X137635547Y-75152819D02*
X137730785Y-75105200D01*
X137730785Y-75105200D02*
X137778404Y-75057580D01*
X137778404Y-75057580D02*
X137826023Y-74962342D01*
X137826023Y-74962342D02*
X137826023Y-74152819D01*
X138254595Y-74248057D02*
X138302214Y-74200438D01*
X138302214Y-74200438D02*
X138397452Y-74152819D01*
X138397452Y-74152819D02*
X138635547Y-74152819D01*
X138635547Y-74152819D02*
X138730785Y-74200438D01*
X138730785Y-74200438D02*
X138778404Y-74248057D01*
X138778404Y-74248057D02*
X138826023Y-74343295D01*
X138826023Y-74343295D02*
X138826023Y-74438533D01*
X138826023Y-74438533D02*
X138778404Y-74581390D01*
X138778404Y-74581390D02*
X138206976Y-75152819D01*
X138206976Y-75152819D02*
X138826023Y-75152819D01*
X196683333Y-73736580D02*
X196635714Y-73784200D01*
X196635714Y-73784200D02*
X196492857Y-73831819D01*
X196492857Y-73831819D02*
X196397619Y-73831819D01*
X196397619Y-73831819D02*
X196254762Y-73784200D01*
X196254762Y-73784200D02*
X196159524Y-73688961D01*
X196159524Y-73688961D02*
X196111905Y-73593723D01*
X196111905Y-73593723D02*
X196064286Y-73403247D01*
X196064286Y-73403247D02*
X196064286Y-73260390D01*
X196064286Y-73260390D02*
X196111905Y-73069914D01*
X196111905Y-73069914D02*
X196159524Y-72974676D01*
X196159524Y-72974676D02*
X196254762Y-72879438D01*
X196254762Y-72879438D02*
X196397619Y-72831819D01*
X196397619Y-72831819D02*
X196492857Y-72831819D01*
X196492857Y-72831819D02*
X196635714Y-72879438D01*
X196635714Y-72879438D02*
X196683333Y-72927057D01*
X197064286Y-72927057D02*
X197111905Y-72879438D01*
X197111905Y-72879438D02*
X197207143Y-72831819D01*
X197207143Y-72831819D02*
X197445238Y-72831819D01*
X197445238Y-72831819D02*
X197540476Y-72879438D01*
X197540476Y-72879438D02*
X197588095Y-72927057D01*
X197588095Y-72927057D02*
X197635714Y-73022295D01*
X197635714Y-73022295D02*
X197635714Y-73117533D01*
X197635714Y-73117533D02*
X197588095Y-73260390D01*
X197588095Y-73260390D02*
X197016667Y-73831819D01*
X197016667Y-73831819D02*
X197635714Y-73831819D01*
X190500095Y-54191819D02*
X190500095Y-55001342D01*
X190500095Y-55001342D02*
X190547714Y-55096580D01*
X190547714Y-55096580D02*
X190595333Y-55144200D01*
X190595333Y-55144200D02*
X190690571Y-55191819D01*
X190690571Y-55191819D02*
X190881047Y-55191819D01*
X190881047Y-55191819D02*
X190976285Y-55144200D01*
X190976285Y-55144200D02*
X191023904Y-55096580D01*
X191023904Y-55096580D02*
X191071523Y-55001342D01*
X191071523Y-55001342D02*
X191071523Y-54191819D01*
X192071523Y-55191819D02*
X191500095Y-55191819D01*
X191785809Y-55191819D02*
X191785809Y-54191819D01*
X191785809Y-54191819D02*
X191690571Y-54334676D01*
X191690571Y-54334676D02*
X191595333Y-54429914D01*
X191595333Y-54429914D02*
X191500095Y-54477533D01*
X138242057Y-69437238D02*
X138194438Y-69532476D01*
X138194438Y-69532476D02*
X138099200Y-69627714D01*
X138099200Y-69627714D02*
X137956342Y-69770571D01*
X137956342Y-69770571D02*
X137908723Y-69865809D01*
X137908723Y-69865809D02*
X137908723Y-69961047D01*
X138146819Y-69913428D02*
X138099200Y-70008666D01*
X138099200Y-70008666D02*
X138003961Y-70103904D01*
X138003961Y-70103904D02*
X137813485Y-70151523D01*
X137813485Y-70151523D02*
X137480152Y-70151523D01*
X137480152Y-70151523D02*
X137289676Y-70103904D01*
X137289676Y-70103904D02*
X137194438Y-70008666D01*
X137194438Y-70008666D02*
X137146819Y-69913428D01*
X137146819Y-69913428D02*
X137146819Y-69722952D01*
X137146819Y-69722952D02*
X137194438Y-69627714D01*
X137194438Y-69627714D02*
X137289676Y-69532476D01*
X137289676Y-69532476D02*
X137480152Y-69484857D01*
X137480152Y-69484857D02*
X137813485Y-69484857D01*
X137813485Y-69484857D02*
X138003961Y-69532476D01*
X138003961Y-69532476D02*
X138099200Y-69627714D01*
X138099200Y-69627714D02*
X138146819Y-69722952D01*
X138146819Y-69722952D02*
X138146819Y-69913428D01*
X137242057Y-69103904D02*
X137194438Y-69056285D01*
X137194438Y-69056285D02*
X137146819Y-68961047D01*
X137146819Y-68961047D02*
X137146819Y-68722952D01*
X137146819Y-68722952D02*
X137194438Y-68627714D01*
X137194438Y-68627714D02*
X137242057Y-68580095D01*
X137242057Y-68580095D02*
X137337295Y-68532476D01*
X137337295Y-68532476D02*
X137432533Y-68532476D01*
X137432533Y-68532476D02*
X137575390Y-68580095D01*
X137575390Y-68580095D02*
X138146819Y-69151523D01*
X138146819Y-69151523D02*
X138146819Y-68532476D01*
X142962333Y-80848580D02*
X142914714Y-80896200D01*
X142914714Y-80896200D02*
X142771857Y-80943819D01*
X142771857Y-80943819D02*
X142676619Y-80943819D01*
X142676619Y-80943819D02*
X142533762Y-80896200D01*
X142533762Y-80896200D02*
X142438524Y-80800961D01*
X142438524Y-80800961D02*
X142390905Y-80705723D01*
X142390905Y-80705723D02*
X142343286Y-80515247D01*
X142343286Y-80515247D02*
X142343286Y-80372390D01*
X142343286Y-80372390D02*
X142390905Y-80181914D01*
X142390905Y-80181914D02*
X142438524Y-80086676D01*
X142438524Y-80086676D02*
X142533762Y-79991438D01*
X142533762Y-79991438D02*
X142676619Y-79943819D01*
X142676619Y-79943819D02*
X142771857Y-79943819D01*
X142771857Y-79943819D02*
X142914714Y-79991438D01*
X142914714Y-79991438D02*
X142962333Y-80039057D01*
X143819476Y-79943819D02*
X143629000Y-79943819D01*
X143629000Y-79943819D02*
X143533762Y-79991438D01*
X143533762Y-79991438D02*
X143486143Y-80039057D01*
X143486143Y-80039057D02*
X143390905Y-80181914D01*
X143390905Y-80181914D02*
X143343286Y-80372390D01*
X143343286Y-80372390D02*
X143343286Y-80753342D01*
X143343286Y-80753342D02*
X143390905Y-80848580D01*
X143390905Y-80848580D02*
X143438524Y-80896200D01*
X143438524Y-80896200D02*
X143533762Y-80943819D01*
X143533762Y-80943819D02*
X143724238Y-80943819D01*
X143724238Y-80943819D02*
X143819476Y-80896200D01*
X143819476Y-80896200D02*
X143867095Y-80848580D01*
X143867095Y-80848580D02*
X143914714Y-80753342D01*
X143914714Y-80753342D02*
X143914714Y-80515247D01*
X143914714Y-80515247D02*
X143867095Y-80420009D01*
X143867095Y-80420009D02*
X143819476Y-80372390D01*
X143819476Y-80372390D02*
X143724238Y-80324771D01*
X143724238Y-80324771D02*
X143533762Y-80324771D01*
X143533762Y-80324771D02*
X143438524Y-80372390D01*
X143438524Y-80372390D02*
X143390905Y-80420009D01*
X143390905Y-80420009D02*
X143343286Y-80515247D01*
X193243580Y-47505857D02*
X193291200Y-47553476D01*
X193291200Y-47553476D02*
X193338819Y-47696333D01*
X193338819Y-47696333D02*
X193338819Y-47791571D01*
X193338819Y-47791571D02*
X193291200Y-47934428D01*
X193291200Y-47934428D02*
X193195961Y-48029666D01*
X193195961Y-48029666D02*
X193100723Y-48077285D01*
X193100723Y-48077285D02*
X192910247Y-48124904D01*
X192910247Y-48124904D02*
X192767390Y-48124904D01*
X192767390Y-48124904D02*
X192576914Y-48077285D01*
X192576914Y-48077285D02*
X192481676Y-48029666D01*
X192481676Y-48029666D02*
X192386438Y-47934428D01*
X192386438Y-47934428D02*
X192338819Y-47791571D01*
X192338819Y-47791571D02*
X192338819Y-47696333D01*
X192338819Y-47696333D02*
X192386438Y-47553476D01*
X192386438Y-47553476D02*
X192434057Y-47505857D01*
X193338819Y-46553476D02*
X193338819Y-47124904D01*
X193338819Y-46839190D02*
X192338819Y-46839190D01*
X192338819Y-46839190D02*
X192481676Y-46934428D01*
X192481676Y-46934428D02*
X192576914Y-47029666D01*
X192576914Y-47029666D02*
X192624533Y-47124904D01*
X193338819Y-45601095D02*
X193338819Y-46172523D01*
X193338819Y-45886809D02*
X192338819Y-45886809D01*
X192338819Y-45886809D02*
X192481676Y-45982047D01*
X192481676Y-45982047D02*
X192576914Y-46077285D01*
X192576914Y-46077285D02*
X192624533Y-46172523D01*
X174966333Y-79070580D02*
X174918714Y-79118200D01*
X174918714Y-79118200D02*
X174775857Y-79165819D01*
X174775857Y-79165819D02*
X174680619Y-79165819D01*
X174680619Y-79165819D02*
X174537762Y-79118200D01*
X174537762Y-79118200D02*
X174442524Y-79022961D01*
X174442524Y-79022961D02*
X174394905Y-78927723D01*
X174394905Y-78927723D02*
X174347286Y-78737247D01*
X174347286Y-78737247D02*
X174347286Y-78594390D01*
X174347286Y-78594390D02*
X174394905Y-78403914D01*
X174394905Y-78403914D02*
X174442524Y-78308676D01*
X174442524Y-78308676D02*
X174537762Y-78213438D01*
X174537762Y-78213438D02*
X174680619Y-78165819D01*
X174680619Y-78165819D02*
X174775857Y-78165819D01*
X174775857Y-78165819D02*
X174918714Y-78213438D01*
X174918714Y-78213438D02*
X174966333Y-78261057D01*
X175871095Y-78165819D02*
X175394905Y-78165819D01*
X175394905Y-78165819D02*
X175347286Y-78642009D01*
X175347286Y-78642009D02*
X175394905Y-78594390D01*
X175394905Y-78594390D02*
X175490143Y-78546771D01*
X175490143Y-78546771D02*
X175728238Y-78546771D01*
X175728238Y-78546771D02*
X175823476Y-78594390D01*
X175823476Y-78594390D02*
X175871095Y-78642009D01*
X175871095Y-78642009D02*
X175918714Y-78737247D01*
X175918714Y-78737247D02*
X175918714Y-78975342D01*
X175918714Y-78975342D02*
X175871095Y-79070580D01*
X175871095Y-79070580D02*
X175823476Y-79118200D01*
X175823476Y-79118200D02*
X175728238Y-79165819D01*
X175728238Y-79165819D02*
X175490143Y-79165819D01*
X175490143Y-79165819D02*
X175394905Y-79118200D01*
X175394905Y-79118200D02*
X175347286Y-79070580D01*
X130366819Y-90628333D02*
X131081104Y-90628333D01*
X131081104Y-90628333D02*
X131223961Y-90675952D01*
X131223961Y-90675952D02*
X131319200Y-90771190D01*
X131319200Y-90771190D02*
X131366819Y-90914047D01*
X131366819Y-90914047D02*
X131366819Y-91009285D01*
X131366819Y-89628333D02*
X131366819Y-90199761D01*
X131366819Y-89914047D02*
X130366819Y-89914047D01*
X130366819Y-89914047D02*
X130509676Y-90009285D01*
X130509676Y-90009285D02*
X130604914Y-90104523D01*
X130604914Y-90104523D02*
X130652533Y-90199761D01*
D12*
%TO.C,C10*%
X191162000Y-49156252D02*
X191162000Y-48633748D01*
X192632000Y-49156252D02*
X192632000Y-48633748D01*
%TO.C,D2*%
X137557000Y-88717000D02*
X140417000Y-88717000D01*
X140417000Y-86797000D02*
X137557000Y-86797000D01*
X140417000Y-88717000D02*
X140417000Y-86797000D01*
%TO.C,Q1*%
X173778000Y-85603000D02*
X173778000Y-83003000D01*
X173778000Y-86998000D02*
X173778000Y-86238000D01*
X174348000Y-85603000D02*
X173778000Y-85603000D01*
X174800470Y-83003000D02*
X173778000Y-83003000D01*
X175108000Y-86998000D02*
X173778000Y-86998000D01*
X176438000Y-83003000D02*
X175415530Y-83003000D01*
X176438000Y-85603000D02*
X175868000Y-85603000D01*
X176438000Y-85603000D02*
X176438000Y-83003000D01*
%TO.C,R5*%
X135027936Y-92102000D02*
X135482064Y-92102000D01*
X135027936Y-93572000D02*
X135482064Y-93572000D01*
%TO.C,FSR_V1*%
X118001000Y-49166000D02*
X118001000Y-59546000D01*
X118001000Y-51346000D02*
X118601000Y-51346000D01*
X118001000Y-53886000D02*
X118601000Y-53886000D01*
X118001000Y-56426000D02*
X118601000Y-56426000D01*
X118001000Y-58966000D02*
X118601000Y-58966000D01*
X118001000Y-59546000D02*
X124021000Y-59546000D01*
X118601000Y-49746000D02*
X118001000Y-49746000D01*
X118601000Y-51346000D02*
X118601000Y-49746000D01*
X118601000Y-52286000D02*
X118001000Y-52286000D01*
X118601000Y-53886000D02*
X118601000Y-52286000D01*
X118601000Y-54826000D02*
X118001000Y-54826000D01*
X118601000Y-56426000D02*
X118601000Y-54826000D01*
X118601000Y-57366000D02*
X118001000Y-57366000D01*
X118601000Y-58966000D02*
X118601000Y-57366000D01*
X119031000Y-59836000D02*
X123031000Y-59836000D01*
X122491000Y-50796000D02*
X123021000Y-50546000D01*
X122491000Y-57916000D02*
X122491000Y-50796000D01*
X123021000Y-50546000D02*
X124021000Y-50546000D01*
X123021000Y-58166000D02*
X122491000Y-57916000D01*
X123021000Y-58166000D02*
X123021000Y-50546000D01*
X124021000Y-49166000D02*
X118001000Y-49166000D01*
X124021000Y-50796000D02*
X123021000Y-50796000D01*
X124021000Y-57916000D02*
X123021000Y-57916000D01*
X124021000Y-58166000D02*
X123021000Y-58166000D01*
X124021000Y-59546000D02*
X124021000Y-49166000D01*
%TO.C,D1*%
X153051000Y-91892000D02*
X155911000Y-91892000D01*
X155911000Y-89972000D02*
X153051000Y-89972000D01*
X155911000Y-91892000D02*
X155911000Y-89972000D01*
%TO.C,Q3*%
X140402000Y-64075000D02*
X140402000Y-65097470D01*
X140402000Y-65712530D02*
X140402000Y-66735000D01*
X143002000Y-64075000D02*
X140402000Y-64075000D01*
X143002000Y-64075000D02*
X143002000Y-64645000D01*
X143002000Y-66165000D02*
X143002000Y-66735000D01*
X143002000Y-66735000D02*
X140402000Y-66735000D01*
X144397000Y-65405000D02*
X144397000Y-66735000D01*
X144397000Y-66735000D02*
X143637000Y-66735000D01*
%TO.C,R3*%
X169772000Y-75792064D02*
X169772000Y-75337936D01*
X168302000Y-75792064D02*
X168302000Y-75337936D01*
%TO.C,C9*%
X196877000Y-46072248D02*
X196877000Y-46594752D01*
X198347000Y-46072248D02*
X198347000Y-46594752D01*
%TO.C,C7*%
X147439748Y-51716000D02*
X147962252Y-51716000D01*
X147439748Y-53186000D02*
X147962252Y-53186000D01*
%TO.C,C1*%
X193829000Y-90692248D02*
X193829000Y-91214752D01*
X195299000Y-90692248D02*
X195299000Y-91214752D01*
%TO.C,C4*%
X208653748Y-74322000D02*
X209176252Y-74322000D01*
X208653748Y-75792000D02*
X209176252Y-75792000D01*
%TO.C,FSR_IO1*%
X118168000Y-63136000D02*
X118168000Y-73516000D01*
X118168000Y-64516000D02*
X119168000Y-64516000D01*
X118168000Y-64766000D02*
X119168000Y-64766000D01*
X118168000Y-71886000D02*
X119168000Y-71886000D01*
X118168000Y-73516000D02*
X124188000Y-73516000D01*
X119168000Y-64516000D02*
X119168000Y-72136000D01*
X119168000Y-64516000D02*
X119698000Y-64766000D01*
X119168000Y-72136000D02*
X118168000Y-72136000D01*
X119698000Y-64766000D02*
X119698000Y-71886000D01*
X119698000Y-71886000D02*
X119168000Y-72136000D01*
X123158000Y-62846000D02*
X119158000Y-62846000D01*
X123588000Y-63716000D02*
X123588000Y-65316000D01*
X123588000Y-65316000D02*
X124188000Y-65316000D01*
X123588000Y-66256000D02*
X123588000Y-67856000D01*
X123588000Y-67856000D02*
X124188000Y-67856000D01*
X123588000Y-68796000D02*
X123588000Y-70396000D01*
X123588000Y-70396000D02*
X124188000Y-70396000D01*
X123588000Y-71336000D02*
X123588000Y-72936000D01*
X123588000Y-72936000D02*
X124188000Y-72936000D01*
X124188000Y-63136000D02*
X118168000Y-63136000D01*
X124188000Y-63716000D02*
X123588000Y-63716000D01*
X124188000Y-66256000D02*
X123588000Y-66256000D01*
X124188000Y-68796000D02*
X123588000Y-68796000D01*
X124188000Y-71336000D02*
X123588000Y-71336000D01*
X124188000Y-73516000D02*
X124188000Y-63136000D01*
%TO.C,R7*%
X128100064Y-66194000D02*
X127645936Y-66194000D01*
X128100064Y-67664000D02*
X127645936Y-67664000D01*
D11*
%TO.C,BATTCHARGER1*%
X167123000Y-81911500D02*
X162623000Y-81911500D01*
X167123000Y-87361500D02*
X162623000Y-87361500D01*
D12*
X168753000Y-87151500D02*
X168423000Y-86911500D01*
X168753000Y-86671500D01*
X168753000Y-87151500D01*
G36*
X168753000Y-87151500D02*
G01*
X168423000Y-86911500D01*
X168753000Y-86671500D01*
X168753000Y-87151500D01*
G37*
%TO.C,3V3LR1*%
X188868000Y-80742000D02*
X190128000Y-80742000D01*
X188868000Y-84502000D02*
X188868000Y-80742000D01*
X195688000Y-80742000D02*
X194428000Y-80742000D01*
X195688000Y-84502000D02*
X195688000Y-80742000D01*
X188968000Y-85782000D02*
X188638000Y-86022000D01*
X188638000Y-85542000D01*
X188968000Y-85782000D01*
G36*
X188968000Y-85782000D02*
G01*
X188638000Y-86022000D01*
X188638000Y-85542000D01*
X188968000Y-85782000D01*
G37*
%TO.C,R6*%
X126392000Y-63272936D02*
X126392000Y-63727064D01*
X127862000Y-63272936D02*
X127862000Y-63727064D01*
%TO.C,C3*%
X206656000Y-90797748D02*
X206656000Y-91320252D01*
X208126000Y-90797748D02*
X208126000Y-91320252D01*
%TO.C,1V8LR1*%
X201695000Y-80742000D02*
X202955000Y-80742000D01*
X201695000Y-84502000D02*
X201695000Y-80742000D01*
X208515000Y-80742000D02*
X207255000Y-80742000D01*
X208515000Y-84502000D02*
X208515000Y-80742000D01*
X201795000Y-85782000D02*
X201465000Y-86022000D01*
X201465000Y-85542000D01*
X201795000Y-85782000D01*
G36*
X201795000Y-85782000D02*
G01*
X201465000Y-86022000D01*
X201465000Y-85542000D01*
X201795000Y-85782000D01*
G37*
%TO.C,U3*%
X156889000Y-41279000D02*
X156889000Y-47479000D01*
X156889000Y-41279000D02*
X175289000Y-41279000D01*
X156889000Y-66129000D02*
X156889000Y-67129000D01*
X156889000Y-67129000D02*
X158389000Y-67129000D01*
X175289000Y-41279000D02*
X175289000Y-47479000D01*
X175289000Y-67129000D02*
X173789000Y-67129000D01*
X175289000Y-67129000D02*
X175289000Y-66129000D01*
X156889000Y-48154000D02*
X156389000Y-48154000D01*
X156889000Y-47654000D01*
X156889000Y-48154000D01*
G36*
X156889000Y-48154000D02*
G01*
X156389000Y-48154000D01*
X156889000Y-47654000D01*
X156889000Y-48154000D01*
G37*
%TO.C,BATTIO1*%
X178071000Y-90355000D02*
X178071000Y-96375000D01*
X178071000Y-96375000D02*
X185911000Y-96375000D01*
X178651000Y-95775000D02*
X178651000Y-96375000D01*
X179451000Y-91355000D02*
X179451000Y-90355000D01*
X179701000Y-90355000D02*
X179701000Y-91355000D01*
X179701000Y-91885000D02*
X179451000Y-91355000D01*
X180251000Y-95775000D02*
X178651000Y-95775000D01*
X180251000Y-96375000D02*
X180251000Y-95775000D01*
X181191000Y-95775000D02*
X181191000Y-96375000D01*
X182791000Y-95775000D02*
X181191000Y-95775000D01*
X182791000Y-96375000D02*
X182791000Y-95775000D01*
X183731000Y-95775000D02*
X183731000Y-96375000D01*
X184281000Y-90355000D02*
X184281000Y-91355000D01*
X184281000Y-91885000D02*
X179701000Y-91885000D01*
X184531000Y-90355000D02*
X184531000Y-91355000D01*
X184531000Y-91355000D02*
X179451000Y-91355000D01*
X184531000Y-91355000D02*
X184281000Y-91885000D01*
X185331000Y-95775000D02*
X183731000Y-95775000D01*
X185331000Y-96375000D02*
X185331000Y-95775000D01*
X185911000Y-90355000D02*
X178071000Y-90355000D01*
X185911000Y-96375000D02*
X185911000Y-90355000D01*
X186201000Y-95345000D02*
X186201000Y-91345000D01*
%TO.C,R1*%
X146330936Y-90197000D02*
X146785064Y-90197000D01*
X146330936Y-91667000D02*
X146785064Y-91667000D01*
%TO.C,IMU_IO1*%
X208171000Y-45483000D02*
X208171000Y-58403000D01*
X208171000Y-47663000D02*
X208771000Y-47663000D01*
X208171000Y-50203000D02*
X208771000Y-50203000D01*
X208171000Y-52743000D02*
X208771000Y-52743000D01*
X208171000Y-55283000D02*
X208771000Y-55283000D01*
X208171000Y-57823000D02*
X208771000Y-57823000D01*
X208171000Y-58403000D02*
X214191000Y-58403000D01*
X208771000Y-46063000D02*
X208171000Y-46063000D01*
X208771000Y-47663000D02*
X208771000Y-46063000D01*
X208771000Y-48603000D02*
X208171000Y-48603000D01*
X208771000Y-50203000D02*
X208771000Y-48603000D01*
X208771000Y-51143000D02*
X208171000Y-51143000D01*
X208771000Y-52743000D02*
X208771000Y-51143000D01*
X208771000Y-53683000D02*
X208171000Y-53683000D01*
X208771000Y-55283000D02*
X208771000Y-53683000D01*
X208771000Y-56223000D02*
X208171000Y-56223000D01*
X208771000Y-57823000D02*
X208771000Y-56223000D01*
X209201000Y-58693000D02*
X213201000Y-58693000D01*
X212661000Y-47113000D02*
X213191000Y-46863000D01*
X212661000Y-56773000D02*
X212661000Y-47113000D01*
X213191000Y-46863000D02*
X214191000Y-46863000D01*
X213191000Y-57023000D02*
X212661000Y-56773000D01*
X213191000Y-57023000D02*
X213191000Y-46863000D01*
X214191000Y-45483000D02*
X208171000Y-45483000D01*
X214191000Y-47113000D02*
X213191000Y-47113000D01*
X214191000Y-56773000D02*
X213191000Y-56773000D01*
X214191000Y-57023000D02*
X213191000Y-57023000D01*
X214191000Y-58403000D02*
X214191000Y-45483000D01*
%TO.C,R4*%
X135027936Y-89816000D02*
X135482064Y-89816000D01*
X135027936Y-91286000D02*
X135482064Y-91286000D01*
%TO.C,R8*%
X132942064Y-68861000D02*
X132487936Y-68861000D01*
X132942064Y-70331000D02*
X132487936Y-70331000D01*
%TO.C,R9*%
X134520000Y-73379064D02*
X134520000Y-72924936D01*
X135990000Y-73379064D02*
X135990000Y-72924936D01*
%TO.C,U2*%
X135906500Y-76363000D02*
X135906500Y-76128000D01*
X135906500Y-80108000D02*
X135906500Y-79633000D01*
X136381500Y-75888000D02*
X136206500Y-75888000D01*
X136381500Y-80108000D02*
X135906500Y-80108000D01*
X139651500Y-75888000D02*
X140126500Y-75888000D01*
X139651500Y-80108000D02*
X140126500Y-80108000D01*
X140126500Y-75888000D02*
X140126500Y-76363000D01*
X140126500Y-80108000D02*
X140126500Y-79633000D01*
X135906500Y-75888000D02*
X135666500Y-75558000D01*
X136146500Y-75558000D01*
X135906500Y-75888000D01*
G36*
X135906500Y-75888000D02*
G01*
X135666500Y-75558000D01*
X136146500Y-75558000D01*
X135906500Y-75888000D01*
G37*
%TO.C,C2*%
X196588748Y-74322000D02*
X197111252Y-74322000D01*
X196588748Y-75792000D02*
X197111252Y-75792000D01*
%TO.C,U1*%
X193202000Y-51589000D02*
X193202000Y-51839000D01*
X193202000Y-51589000D02*
X193452000Y-51589000D01*
X193202000Y-54789000D02*
X193202000Y-54539000D01*
X193202000Y-54789000D02*
X193452000Y-54789000D01*
X196402000Y-51589000D02*
X196152000Y-51589000D01*
X196402000Y-51589000D02*
X196402000Y-51839000D01*
X196642000Y-55119000D02*
X196162000Y-55119000D01*
X196402000Y-54789000D01*
X196642000Y-55119000D01*
G36*
X196642000Y-55119000D02*
G01*
X196162000Y-55119000D01*
X196402000Y-54789000D01*
X196642000Y-55119000D01*
G37*
%TO.C,Q2*%
X139067000Y-68012000D02*
X139827000Y-68012000D01*
X139067000Y-69342000D02*
X139067000Y-68012000D01*
X140462000Y-68012000D02*
X143062000Y-68012000D01*
X140462000Y-68582000D02*
X140462000Y-68012000D01*
X140462000Y-70672000D02*
X140462000Y-70102000D01*
X140462000Y-70672000D02*
X143062000Y-70672000D01*
X143062000Y-69034470D02*
X143062000Y-68012000D01*
X143062000Y-70672000D02*
X143062000Y-69649530D01*
%TO.C,C6*%
X142867748Y-81434000D02*
X143390252Y-81434000D01*
X142867748Y-82904000D02*
X143390252Y-82904000D01*
%TO.C,C11*%
X193829000Y-47124252D02*
X193829000Y-46601748D01*
X195299000Y-47124252D02*
X195299000Y-46601748D01*
%TO.C,C5*%
X174871748Y-79656000D02*
X175394252Y-79656000D01*
X174871748Y-81126000D02*
X175394252Y-81126000D01*
%TO.C,J1*%
X121367000Y-85595000D02*
X121367000Y-94995000D01*
X123267000Y-85595000D02*
X121367000Y-85595000D01*
X123267000Y-94995000D02*
X121367000Y-94995000D01*
X127167000Y-85595000D02*
X125167000Y-85595000D01*
X127167000Y-94995000D02*
X125167000Y-94995000D01*
%TD*%
M02*
