%TF.GenerationSoftware,KiCad,Pcbnew,8.0.5*%
%TF.CreationDate,2024-10-21T21:49:35-05:00*%
%TF.ProjectId,golf_club_draft,676f6c66-5f63-46c7-9562-5f6472616674,rev?*%
%TF.SameCoordinates,Original*%
%TF.FileFunction,Drillmap*%
%TF.FilePolarity,Positive*%
%FSLAX45Y45*%
G04 Gerber Fmt 4.5, Leading zero omitted, Abs format (unit mm)*
G04 Created by KiCad (PCBNEW 8.0.5) date 2024-10-21 21:49:35*
%MOMM*%
%LPD*%
G01*
G04 APERTURE LIST*
%ADD10C,0.050000*%
%ADD11C,0.200000*%
%ADD12C,0.100000*%
%ADD13C,0.119000*%
G04 APERTURE END LIST*
D10*
X11709400Y-4038600D02*
X21488400Y-4038600D01*
X21488400Y-9740900D01*
X11709400Y-9740900D01*
X11709400Y-4038600D01*
D11*
D12*
X16308900Y-5583900D02*
X16328900Y-5603900D01*
X16328900Y-5583900D02*
X16308900Y-5603900D01*
X16308900Y-5723900D02*
X16328900Y-5743900D01*
X16328900Y-5723900D02*
X16308900Y-5743900D01*
X16378900Y-5513900D02*
X16398900Y-5533900D01*
X16398900Y-5513900D02*
X16378900Y-5533900D01*
X16378900Y-5653900D02*
X16398900Y-5673900D01*
X16398900Y-5653900D02*
X16378900Y-5673900D01*
X16378900Y-5793900D02*
X16398900Y-5813900D01*
X16398900Y-5793900D02*
X16378900Y-5813900D01*
X16448900Y-5583900D02*
X16468900Y-5603900D01*
X16468900Y-5583900D02*
X16448900Y-5603900D01*
X16448900Y-5723900D02*
X16468900Y-5743900D01*
X16468900Y-5723900D02*
X16448900Y-5743900D01*
X16518900Y-5513900D02*
X16538900Y-5533900D01*
X16538900Y-5513900D02*
X16518900Y-5533900D01*
X16518900Y-5653900D02*
X16538900Y-5673900D01*
X16538900Y-5653900D02*
X16518900Y-5673900D01*
X16518900Y-5793900D02*
X16538900Y-5813900D01*
X16538900Y-5793900D02*
X16518900Y-5813900D01*
X16588900Y-5583900D02*
X16608900Y-5603900D01*
X16608900Y-5583900D02*
X16588900Y-5603900D01*
X16588900Y-5723900D02*
X16608900Y-5743900D01*
X16608900Y-5723900D02*
X16588900Y-5743900D01*
X12969000Y-8001000D02*
G75*
G02*
X12939000Y-8001000I-15000J0D01*
G01*
X12939000Y-8001000D02*
G75*
G02*
X12969000Y-8001000I15000J0D01*
G01*
X13388100Y-8001000D02*
G75*
G02*
X13358100Y-8001000I-15000J0D01*
G01*
X13358100Y-8001000D02*
G75*
G02*
X13388100Y-8001000I15000J0D01*
G01*
X13997700Y-6248400D02*
G75*
G02*
X13967700Y-6248400I-15000J0D01*
G01*
X13967700Y-6248400D02*
G75*
G02*
X13997700Y-6248400I15000J0D01*
G01*
X14251700Y-7175500D02*
G75*
G02*
X14221700Y-7175500I-15000J0D01*
G01*
X14221700Y-7175500D02*
G75*
G02*
X14251700Y-7175500I15000J0D01*
G01*
X14251700Y-7175500D02*
G75*
G02*
X14221700Y-7175500I-15000J0D01*
G01*
X14221700Y-7175500D02*
G75*
G02*
X14251700Y-7175500I15000J0D01*
G01*
X14251700Y-7175500D02*
G75*
G02*
X14221700Y-7175500I-15000J0D01*
G01*
X14221700Y-7175500D02*
G75*
G02*
X14251700Y-7175500I15000J0D01*
G01*
X14251700Y-7175500D02*
G75*
G02*
X14221700Y-7175500I-15000J0D01*
G01*
X14221700Y-7175500D02*
G75*
G02*
X14251700Y-7175500I15000J0D01*
G01*
X14251700Y-7404100D02*
G75*
G02*
X14221700Y-7404100I-15000J0D01*
G01*
X14221700Y-7404100D02*
G75*
G02*
X14251700Y-7404100I15000J0D01*
G01*
X14556500Y-6540500D02*
G75*
G02*
X14526500Y-6540500I-15000J0D01*
G01*
X14526500Y-6540500D02*
G75*
G02*
X14556500Y-6540500I15000J0D01*
G01*
X14848600Y-5397500D02*
G75*
G02*
X14818600Y-5397500I-15000J0D01*
G01*
X14818600Y-5397500D02*
G75*
G02*
X14848600Y-5397500I15000J0D01*
G01*
X15293100Y-5029200D02*
G75*
G02*
X15263100Y-5029200I-15000J0D01*
G01*
X15263100Y-5029200D02*
G75*
G02*
X15293100Y-5029200I15000J0D01*
G01*
X17121900Y-6959600D02*
G75*
G02*
X17091900Y-6959600I-15000J0D01*
G01*
X17091900Y-6959600D02*
G75*
G02*
X17121900Y-6959600I15000J0D01*
G01*
X17121900Y-7137400D02*
G75*
G02*
X17091900Y-7137400I-15000J0D01*
G01*
X17091900Y-7137400D02*
G75*
G02*
X17121900Y-7137400I15000J0D01*
G01*
X17795000Y-6540500D02*
G75*
G02*
X17765000Y-6540500I-15000J0D01*
G01*
X17765000Y-6540500D02*
G75*
G02*
X17795000Y-6540500I15000J0D01*
G01*
X17795000Y-6540500D02*
G75*
G02*
X17765000Y-6540500I-15000J0D01*
G01*
X17765000Y-6540500D02*
G75*
G02*
X17795000Y-6540500I15000J0D01*
G01*
X17820400Y-5765800D02*
G75*
G02*
X17790400Y-5765800I-15000J0D01*
G01*
X17790400Y-5765800D02*
G75*
G02*
X17820400Y-5765800I15000J0D01*
G01*
X18049000Y-5778500D02*
G75*
G02*
X18019000Y-5778500I-15000J0D01*
G01*
X18019000Y-5778500D02*
G75*
G02*
X18049000Y-5778500I15000J0D01*
G01*
X18988800Y-5842000D02*
G75*
G02*
X18958800Y-5842000I-15000J0D01*
G01*
X18958800Y-5842000D02*
G75*
G02*
X18988800Y-5842000I15000J0D01*
G01*
X19153900Y-5702300D02*
G75*
G02*
X19123900Y-5702300I-15000J0D01*
G01*
X19123900Y-5702300D02*
G75*
G02*
X19153900Y-5702300I15000J0D01*
G01*
X19192000Y-5829300D02*
G75*
G02*
X19162000Y-5829300I-15000J0D01*
G01*
X19162000Y-5829300D02*
G75*
G02*
X19192000Y-5829300I15000J0D01*
G01*
X19420600Y-5867400D02*
G75*
G02*
X19390600Y-5867400I-15000J0D01*
G01*
X19390600Y-5867400D02*
G75*
G02*
X19420600Y-5867400I15000J0D01*
G01*
X19522200Y-5613400D02*
G75*
G02*
X19492200Y-5613400I-15000J0D01*
G01*
X19492200Y-5613400D02*
G75*
G02*
X19522200Y-5613400I15000J0D01*
G01*
X19801600Y-5588000D02*
G75*
G02*
X19771600Y-5588000I-15000J0D01*
G01*
X19771600Y-5588000D02*
G75*
G02*
X19801600Y-5588000I15000J0D01*
G01*
X20677900Y-5194300D02*
G75*
G02*
X20647900Y-5194300I-15000J0D01*
G01*
X20647900Y-5194300D02*
G75*
G02*
X20677900Y-5194300I15000J0D01*
G01*
X20677900Y-5448300D02*
G75*
G02*
X20647900Y-5448300I-15000J0D01*
G01*
X20647900Y-5448300D02*
G75*
G02*
X20677900Y-5448300I15000J0D01*
G01*
X20728700Y-5702300D02*
G75*
G02*
X20698700Y-5702300I-15000J0D01*
G01*
X20698700Y-5702300D02*
G75*
G02*
X20728700Y-5702300I15000J0D01*
G01*
X12421700Y-8567500D02*
X12421700Y-8627500D01*
X12391700Y-8597500D02*
X12451700Y-8597500D01*
X12451700Y-8567500D02*
X12391700Y-8567500D01*
X12391700Y-8627500D02*
G75*
G02*
X12391700Y-8567500I0J30000D01*
G01*
X12391700Y-8627500D02*
X12451700Y-8627500D01*
X12451700Y-8627500D02*
G75*
G03*
X12451700Y-8567500I0J30000D01*
G01*
X12421700Y-9431500D02*
X12421700Y-9491500D01*
X12391700Y-9461500D02*
X12451700Y-9461500D01*
X12451700Y-9431500D02*
X12391700Y-9431500D01*
X12391700Y-9491500D02*
G75*
G02*
X12391700Y-9431500I0J30000D01*
G01*
X12391700Y-9491500D02*
X12451700Y-9491500D01*
X12451700Y-9491500D02*
G75*
G03*
X12451700Y-9431500I0J30000D01*
G01*
X12839700Y-8567500D02*
X12839700Y-8627500D01*
X12809700Y-8597500D02*
X12869700Y-8597500D01*
X12894700Y-8567500D02*
X12784700Y-8567500D01*
X12784700Y-8627500D02*
G75*
G02*
X12784700Y-8567500I0J30000D01*
G01*
X12784700Y-8627500D02*
X12894700Y-8627500D01*
X12894700Y-8627500D02*
G75*
G03*
X12894700Y-8567500I0J30000D01*
G01*
X12839700Y-9431500D02*
X12839700Y-9491500D01*
X12809700Y-9461500D02*
X12869700Y-9461500D01*
X12894700Y-9431500D02*
X12784700Y-9431500D01*
X12784700Y-9491500D02*
G75*
G02*
X12784700Y-9431500I0J30000D01*
G01*
X12784700Y-9491500D02*
X12894700Y-9491500D01*
X12894700Y-9491500D02*
G75*
G03*
X12894700Y-9431500I0J30000D01*
G01*
X14007449Y-6958949D02*
X14007449Y-6909451D01*
X13957951Y-6909451D01*
X13957951Y-6958949D01*
X14007449Y-6958949D01*
X14134449Y-6565249D02*
X14134449Y-6515751D01*
X14084951Y-6515751D01*
X14084951Y-6565249D01*
X14134449Y-6565249D01*
X14134449Y-6958949D02*
X14134449Y-6909451D01*
X14084951Y-6909451D01*
X14084951Y-6958949D01*
X14134449Y-6958949D01*
X14261449Y-6565249D02*
X14261449Y-6515751D01*
X14211951Y-6515751D01*
X14211951Y-6565249D01*
X14261449Y-6565249D01*
X14261449Y-6958949D02*
X14261449Y-6909451D01*
X14211951Y-6909451D01*
X14211951Y-6958949D01*
X14261449Y-6958949D01*
X14388449Y-6565249D02*
X14388449Y-6515751D01*
X14338951Y-6515751D01*
X14338951Y-6565249D01*
X14388449Y-6565249D01*
X17535549Y-8394549D02*
X17535549Y-8345051D01*
X17486051Y-8345051D01*
X17486051Y-8394549D01*
X17535549Y-8394549D01*
X17535549Y-8521549D02*
X17535549Y-8472051D01*
X17486051Y-8472051D01*
X17486051Y-8521549D01*
X17535549Y-8521549D01*
X17535549Y-8648549D02*
X17535549Y-8599051D01*
X17486051Y-8599051D01*
X17486051Y-8648549D01*
X17535549Y-8648549D01*
D13*
X12103100Y-5114100D02*
X12162600Y-5054600D01*
X12103100Y-4995100D01*
X12043600Y-5054600D01*
X12103100Y-5114100D01*
X12103100Y-5368100D02*
X12162600Y-5308600D01*
X12103100Y-5249100D01*
X12043600Y-5308600D01*
X12103100Y-5368100D01*
X12103100Y-5622100D02*
X12162600Y-5562600D01*
X12103100Y-5503100D01*
X12043600Y-5562600D01*
X12103100Y-5622100D01*
X12103100Y-5876100D02*
X12162600Y-5816600D01*
X12103100Y-5757100D01*
X12043600Y-5816600D01*
X12103100Y-5876100D01*
X12115800Y-6511100D02*
X12175300Y-6451600D01*
X12115800Y-6392100D01*
X12056300Y-6451600D01*
X12115800Y-6511100D01*
X12115800Y-6765100D02*
X12175300Y-6705600D01*
X12115800Y-6646100D01*
X12056300Y-6705600D01*
X12115800Y-6765100D01*
X12115800Y-7019100D02*
X12175300Y-6959600D01*
X12115800Y-6900100D01*
X12056300Y-6959600D01*
X12115800Y-7019100D01*
X12115800Y-7273100D02*
X12175300Y-7213600D01*
X12115800Y-7154100D01*
X12056300Y-7213600D01*
X12115800Y-7273100D01*
X17945100Y-9394000D02*
X18004600Y-9334500D01*
X17945100Y-9275000D01*
X17885600Y-9334500D01*
X17945100Y-9394000D01*
X18199100Y-9394000D02*
X18258600Y-9334500D01*
X18199100Y-9275000D01*
X18139600Y-9334500D01*
X18199100Y-9394000D01*
X18453100Y-9394000D02*
X18512600Y-9334500D01*
X18453100Y-9275000D01*
X18393600Y-9334500D01*
X18453100Y-9394000D01*
X21120100Y-4745800D02*
X21179600Y-4686300D01*
X21120100Y-4626800D01*
X21060600Y-4686300D01*
X21120100Y-4745800D01*
X21120100Y-4999800D02*
X21179600Y-4940300D01*
X21120100Y-4880800D01*
X21060600Y-4940300D01*
X21120100Y-4999800D01*
X21120100Y-5253800D02*
X21179600Y-5194300D01*
X21120100Y-5134800D01*
X21060600Y-5194300D01*
X21120100Y-5253800D01*
X21120100Y-5507800D02*
X21179600Y-5448300D01*
X21120100Y-5388800D01*
X21060600Y-5448300D01*
X21120100Y-5507800D01*
X21120100Y-5761800D02*
X21179600Y-5702300D01*
X21120100Y-5642800D01*
X21060600Y-5702300D01*
X21120100Y-5761800D01*
D11*
X11967677Y-10054884D02*
X11967677Y-9854884D01*
X11967677Y-9854884D02*
X12015296Y-9854884D01*
X12015296Y-9854884D02*
X12043867Y-9864408D01*
X12043867Y-9864408D02*
X12062915Y-9883455D01*
X12062915Y-9883455D02*
X12072439Y-9902503D01*
X12072439Y-9902503D02*
X12081962Y-9940598D01*
X12081962Y-9940598D02*
X12081962Y-9969170D01*
X12081962Y-9969170D02*
X12072439Y-10007265D01*
X12072439Y-10007265D02*
X12062915Y-10026312D01*
X12062915Y-10026312D02*
X12043867Y-10045360D01*
X12043867Y-10045360D02*
X12015296Y-10054884D01*
X12015296Y-10054884D02*
X11967677Y-10054884D01*
X12167677Y-10054884D02*
X12167677Y-9921550D01*
X12167677Y-9959646D02*
X12177201Y-9940598D01*
X12177201Y-9940598D02*
X12186724Y-9931074D01*
X12186724Y-9931074D02*
X12205772Y-9921550D01*
X12205772Y-9921550D02*
X12224820Y-9921550D01*
X12291486Y-10054884D02*
X12291486Y-9921550D01*
X12291486Y-9854884D02*
X12281962Y-9864408D01*
X12281962Y-9864408D02*
X12291486Y-9873931D01*
X12291486Y-9873931D02*
X12301010Y-9864408D01*
X12301010Y-9864408D02*
X12291486Y-9854884D01*
X12291486Y-9854884D02*
X12291486Y-9873931D01*
X12415296Y-10054884D02*
X12396248Y-10045360D01*
X12396248Y-10045360D02*
X12386724Y-10026312D01*
X12386724Y-10026312D02*
X12386724Y-9854884D01*
X12520058Y-10054884D02*
X12501010Y-10045360D01*
X12501010Y-10045360D02*
X12491486Y-10026312D01*
X12491486Y-10026312D02*
X12491486Y-9854884D01*
X12748629Y-10054884D02*
X12748629Y-9854884D01*
X12748629Y-9854884D02*
X12815296Y-9997741D01*
X12815296Y-9997741D02*
X12881962Y-9854884D01*
X12881962Y-9854884D02*
X12881962Y-10054884D01*
X13062915Y-10054884D02*
X13062915Y-9950122D01*
X13062915Y-9950122D02*
X13053391Y-9931074D01*
X13053391Y-9931074D02*
X13034343Y-9921550D01*
X13034343Y-9921550D02*
X12996248Y-9921550D01*
X12996248Y-9921550D02*
X12977201Y-9931074D01*
X13062915Y-10045360D02*
X13043867Y-10054884D01*
X13043867Y-10054884D02*
X12996248Y-10054884D01*
X12996248Y-10054884D02*
X12977201Y-10045360D01*
X12977201Y-10045360D02*
X12967677Y-10026312D01*
X12967677Y-10026312D02*
X12967677Y-10007265D01*
X12967677Y-10007265D02*
X12977201Y-9988217D01*
X12977201Y-9988217D02*
X12996248Y-9978693D01*
X12996248Y-9978693D02*
X13043867Y-9978693D01*
X13043867Y-9978693D02*
X13062915Y-9969170D01*
X13158153Y-9921550D02*
X13158153Y-10121550D01*
X13158153Y-9931074D02*
X13177201Y-9921550D01*
X13177201Y-9921550D02*
X13215296Y-9921550D01*
X13215296Y-9921550D02*
X13234343Y-9931074D01*
X13234343Y-9931074D02*
X13243867Y-9940598D01*
X13243867Y-9940598D02*
X13253391Y-9959646D01*
X13253391Y-9959646D02*
X13253391Y-10016789D01*
X13253391Y-10016789D02*
X13243867Y-10035836D01*
X13243867Y-10035836D02*
X13234343Y-10045360D01*
X13234343Y-10045360D02*
X13215296Y-10054884D01*
X13215296Y-10054884D02*
X13177201Y-10054884D01*
X13177201Y-10054884D02*
X13158153Y-10045360D01*
X13339105Y-10035836D02*
X13348629Y-10045360D01*
X13348629Y-10045360D02*
X13339105Y-10054884D01*
X13339105Y-10054884D02*
X13329582Y-10045360D01*
X13329582Y-10045360D02*
X13339105Y-10035836D01*
X13339105Y-10035836D02*
X13339105Y-10054884D01*
X13339105Y-9931074D02*
X13348629Y-9940598D01*
X13348629Y-9940598D02*
X13339105Y-9950122D01*
X13339105Y-9950122D02*
X13329582Y-9940598D01*
X13329582Y-9940598D02*
X13339105Y-9931074D01*
X13339105Y-9931074D02*
X13339105Y-9950122D01*
D12*
X11686900Y-10373400D02*
X11706900Y-10393400D01*
X11706900Y-10373400D02*
X11686900Y-10393400D01*
D11*
X12005772Y-10274884D02*
X12024820Y-10274884D01*
X12024820Y-10274884D02*
X12043867Y-10284408D01*
X12043867Y-10284408D02*
X12053391Y-10293931D01*
X12053391Y-10293931D02*
X12062915Y-10312979D01*
X12062915Y-10312979D02*
X12072439Y-10351074D01*
X12072439Y-10351074D02*
X12072439Y-10398693D01*
X12072439Y-10398693D02*
X12062915Y-10436789D01*
X12062915Y-10436789D02*
X12053391Y-10455836D01*
X12053391Y-10455836D02*
X12043867Y-10465360D01*
X12043867Y-10465360D02*
X12024820Y-10474884D01*
X12024820Y-10474884D02*
X12005772Y-10474884D01*
X12005772Y-10474884D02*
X11986724Y-10465360D01*
X11986724Y-10465360D02*
X11977201Y-10455836D01*
X11977201Y-10455836D02*
X11967677Y-10436789D01*
X11967677Y-10436789D02*
X11958153Y-10398693D01*
X11958153Y-10398693D02*
X11958153Y-10351074D01*
X11958153Y-10351074D02*
X11967677Y-10312979D01*
X11967677Y-10312979D02*
X11977201Y-10293931D01*
X11977201Y-10293931D02*
X11986724Y-10284408D01*
X11986724Y-10284408D02*
X12005772Y-10274884D01*
X12158153Y-10455836D02*
X12167677Y-10465360D01*
X12167677Y-10465360D02*
X12158153Y-10474884D01*
X12158153Y-10474884D02*
X12148629Y-10465360D01*
X12148629Y-10465360D02*
X12158153Y-10455836D01*
X12158153Y-10455836D02*
X12158153Y-10474884D01*
X12243867Y-10293931D02*
X12253391Y-10284408D01*
X12253391Y-10284408D02*
X12272439Y-10274884D01*
X12272439Y-10274884D02*
X12320058Y-10274884D01*
X12320058Y-10274884D02*
X12339105Y-10284408D01*
X12339105Y-10284408D02*
X12348629Y-10293931D01*
X12348629Y-10293931D02*
X12358153Y-10312979D01*
X12358153Y-10312979D02*
X12358153Y-10332027D01*
X12358153Y-10332027D02*
X12348629Y-10360598D01*
X12348629Y-10360598D02*
X12234343Y-10474884D01*
X12234343Y-10474884D02*
X12358153Y-10474884D01*
X12481962Y-10274884D02*
X12501010Y-10274884D01*
X12501010Y-10274884D02*
X12520058Y-10284408D01*
X12520058Y-10284408D02*
X12529582Y-10293931D01*
X12529582Y-10293931D02*
X12539105Y-10312979D01*
X12539105Y-10312979D02*
X12548629Y-10351074D01*
X12548629Y-10351074D02*
X12548629Y-10398693D01*
X12548629Y-10398693D02*
X12539105Y-10436789D01*
X12539105Y-10436789D02*
X12529582Y-10455836D01*
X12529582Y-10455836D02*
X12520058Y-10465360D01*
X12520058Y-10465360D02*
X12501010Y-10474884D01*
X12501010Y-10474884D02*
X12481962Y-10474884D01*
X12481962Y-10474884D02*
X12462915Y-10465360D01*
X12462915Y-10465360D02*
X12453391Y-10455836D01*
X12453391Y-10455836D02*
X12443867Y-10436789D01*
X12443867Y-10436789D02*
X12434343Y-10398693D01*
X12434343Y-10398693D02*
X12434343Y-10351074D01*
X12434343Y-10351074D02*
X12443867Y-10312979D01*
X12443867Y-10312979D02*
X12453391Y-10293931D01*
X12453391Y-10293931D02*
X12462915Y-10284408D01*
X12462915Y-10284408D02*
X12481962Y-10274884D01*
X12672439Y-10274884D02*
X12691486Y-10274884D01*
X12691486Y-10274884D02*
X12710534Y-10284408D01*
X12710534Y-10284408D02*
X12720058Y-10293931D01*
X12720058Y-10293931D02*
X12729582Y-10312979D01*
X12729582Y-10312979D02*
X12739105Y-10351074D01*
X12739105Y-10351074D02*
X12739105Y-10398693D01*
X12739105Y-10398693D02*
X12729582Y-10436789D01*
X12729582Y-10436789D02*
X12720058Y-10455836D01*
X12720058Y-10455836D02*
X12710534Y-10465360D01*
X12710534Y-10465360D02*
X12691486Y-10474884D01*
X12691486Y-10474884D02*
X12672439Y-10474884D01*
X12672439Y-10474884D02*
X12653391Y-10465360D01*
X12653391Y-10465360D02*
X12643867Y-10455836D01*
X12643867Y-10455836D02*
X12634343Y-10436789D01*
X12634343Y-10436789D02*
X12624820Y-10398693D01*
X12624820Y-10398693D02*
X12624820Y-10351074D01*
X12624820Y-10351074D02*
X12634343Y-10312979D01*
X12634343Y-10312979D02*
X12643867Y-10293931D01*
X12643867Y-10293931D02*
X12653391Y-10284408D01*
X12653391Y-10284408D02*
X12672439Y-10274884D01*
X12824820Y-10474884D02*
X12824820Y-10341550D01*
X12824820Y-10360598D02*
X12834343Y-10351074D01*
X12834343Y-10351074D02*
X12853391Y-10341550D01*
X12853391Y-10341550D02*
X12881963Y-10341550D01*
X12881963Y-10341550D02*
X12901010Y-10351074D01*
X12901010Y-10351074D02*
X12910534Y-10370122D01*
X12910534Y-10370122D02*
X12910534Y-10474884D01*
X12910534Y-10370122D02*
X12920058Y-10351074D01*
X12920058Y-10351074D02*
X12939105Y-10341550D01*
X12939105Y-10341550D02*
X12967677Y-10341550D01*
X12967677Y-10341550D02*
X12986724Y-10351074D01*
X12986724Y-10351074D02*
X12996248Y-10370122D01*
X12996248Y-10370122D02*
X12996248Y-10474884D01*
X13091486Y-10474884D02*
X13091486Y-10341550D01*
X13091486Y-10360598D02*
X13101010Y-10351074D01*
X13101010Y-10351074D02*
X13120058Y-10341550D01*
X13120058Y-10341550D02*
X13148629Y-10341550D01*
X13148629Y-10341550D02*
X13167677Y-10351074D01*
X13167677Y-10351074D02*
X13177201Y-10370122D01*
X13177201Y-10370122D02*
X13177201Y-10474884D01*
X13177201Y-10370122D02*
X13186724Y-10351074D01*
X13186724Y-10351074D02*
X13205772Y-10341550D01*
X13205772Y-10341550D02*
X13234343Y-10341550D01*
X13234343Y-10341550D02*
X13253391Y-10351074D01*
X13253391Y-10351074D02*
X13262915Y-10370122D01*
X13262915Y-10370122D02*
X13262915Y-10474884D01*
X13653391Y-10265360D02*
X13481963Y-10522503D01*
X13910534Y-10274884D02*
X13929582Y-10274884D01*
X13929582Y-10274884D02*
X13948629Y-10284408D01*
X13948629Y-10284408D02*
X13958153Y-10293931D01*
X13958153Y-10293931D02*
X13967677Y-10312979D01*
X13967677Y-10312979D02*
X13977201Y-10351074D01*
X13977201Y-10351074D02*
X13977201Y-10398693D01*
X13977201Y-10398693D02*
X13967677Y-10436789D01*
X13967677Y-10436789D02*
X13958153Y-10455836D01*
X13958153Y-10455836D02*
X13948629Y-10465360D01*
X13948629Y-10465360D02*
X13929582Y-10474884D01*
X13929582Y-10474884D02*
X13910534Y-10474884D01*
X13910534Y-10474884D02*
X13891486Y-10465360D01*
X13891486Y-10465360D02*
X13881963Y-10455836D01*
X13881963Y-10455836D02*
X13872439Y-10436789D01*
X13872439Y-10436789D02*
X13862915Y-10398693D01*
X13862915Y-10398693D02*
X13862915Y-10351074D01*
X13862915Y-10351074D02*
X13872439Y-10312979D01*
X13872439Y-10312979D02*
X13881963Y-10293931D01*
X13881963Y-10293931D02*
X13891486Y-10284408D01*
X13891486Y-10284408D02*
X13910534Y-10274884D01*
X14062915Y-10455836D02*
X14072439Y-10465360D01*
X14072439Y-10465360D02*
X14062915Y-10474884D01*
X14062915Y-10474884D02*
X14053391Y-10465360D01*
X14053391Y-10465360D02*
X14062915Y-10455836D01*
X14062915Y-10455836D02*
X14062915Y-10474884D01*
X14196248Y-10274884D02*
X14215296Y-10274884D01*
X14215296Y-10274884D02*
X14234344Y-10284408D01*
X14234344Y-10284408D02*
X14243867Y-10293931D01*
X14243867Y-10293931D02*
X14253391Y-10312979D01*
X14253391Y-10312979D02*
X14262915Y-10351074D01*
X14262915Y-10351074D02*
X14262915Y-10398693D01*
X14262915Y-10398693D02*
X14253391Y-10436789D01*
X14253391Y-10436789D02*
X14243867Y-10455836D01*
X14243867Y-10455836D02*
X14234344Y-10465360D01*
X14234344Y-10465360D02*
X14215296Y-10474884D01*
X14215296Y-10474884D02*
X14196248Y-10474884D01*
X14196248Y-10474884D02*
X14177201Y-10465360D01*
X14177201Y-10465360D02*
X14167677Y-10455836D01*
X14167677Y-10455836D02*
X14158153Y-10436789D01*
X14158153Y-10436789D02*
X14148629Y-10398693D01*
X14148629Y-10398693D02*
X14148629Y-10351074D01*
X14148629Y-10351074D02*
X14158153Y-10312979D01*
X14158153Y-10312979D02*
X14167677Y-10293931D01*
X14167677Y-10293931D02*
X14177201Y-10284408D01*
X14177201Y-10284408D02*
X14196248Y-10274884D01*
X14386725Y-10274884D02*
X14405772Y-10274884D01*
X14405772Y-10274884D02*
X14424820Y-10284408D01*
X14424820Y-10284408D02*
X14434344Y-10293931D01*
X14434344Y-10293931D02*
X14443867Y-10312979D01*
X14443867Y-10312979D02*
X14453391Y-10351074D01*
X14453391Y-10351074D02*
X14453391Y-10398693D01*
X14453391Y-10398693D02*
X14443867Y-10436789D01*
X14443867Y-10436789D02*
X14434344Y-10455836D01*
X14434344Y-10455836D02*
X14424820Y-10465360D01*
X14424820Y-10465360D02*
X14405772Y-10474884D01*
X14405772Y-10474884D02*
X14386725Y-10474884D01*
X14386725Y-10474884D02*
X14367677Y-10465360D01*
X14367677Y-10465360D02*
X14358153Y-10455836D01*
X14358153Y-10455836D02*
X14348629Y-10436789D01*
X14348629Y-10436789D02*
X14339106Y-10398693D01*
X14339106Y-10398693D02*
X14339106Y-10351074D01*
X14339106Y-10351074D02*
X14348629Y-10312979D01*
X14348629Y-10312979D02*
X14358153Y-10293931D01*
X14358153Y-10293931D02*
X14367677Y-10284408D01*
X14367677Y-10284408D02*
X14386725Y-10274884D01*
X14520058Y-10274884D02*
X14653391Y-10274884D01*
X14653391Y-10274884D02*
X14567677Y-10474884D01*
X14739106Y-10474884D02*
X14777201Y-10474884D01*
X14777201Y-10474884D02*
X14796248Y-10465360D01*
X14796248Y-10465360D02*
X14805772Y-10455836D01*
X14805772Y-10455836D02*
X14824820Y-10427265D01*
X14824820Y-10427265D02*
X14834344Y-10389170D01*
X14834344Y-10389170D02*
X14834344Y-10312979D01*
X14834344Y-10312979D02*
X14824820Y-10293931D01*
X14824820Y-10293931D02*
X14815296Y-10284408D01*
X14815296Y-10284408D02*
X14796248Y-10274884D01*
X14796248Y-10274884D02*
X14758153Y-10274884D01*
X14758153Y-10274884D02*
X14739106Y-10284408D01*
X14739106Y-10284408D02*
X14729582Y-10293931D01*
X14729582Y-10293931D02*
X14720058Y-10312979D01*
X14720058Y-10312979D02*
X14720058Y-10360598D01*
X14720058Y-10360598D02*
X14729582Y-10379646D01*
X14729582Y-10379646D02*
X14739106Y-10389170D01*
X14739106Y-10389170D02*
X14758153Y-10398693D01*
X14758153Y-10398693D02*
X14796248Y-10398693D01*
X14796248Y-10398693D02*
X14815296Y-10389170D01*
X14815296Y-10389170D02*
X14824820Y-10379646D01*
X14824820Y-10379646D02*
X14834344Y-10360598D01*
X14910534Y-10274884D02*
X14910534Y-10312979D01*
X14986725Y-10274884D02*
X14986725Y-10312979D01*
X15281963Y-10551074D02*
X15272439Y-10541550D01*
X15272439Y-10541550D02*
X15253391Y-10512979D01*
X15253391Y-10512979D02*
X15243868Y-10493931D01*
X15243868Y-10493931D02*
X15234344Y-10465360D01*
X15234344Y-10465360D02*
X15224820Y-10417741D01*
X15224820Y-10417741D02*
X15224820Y-10379646D01*
X15224820Y-10379646D02*
X15234344Y-10332027D01*
X15234344Y-10332027D02*
X15243868Y-10303455D01*
X15243868Y-10303455D02*
X15253391Y-10284408D01*
X15253391Y-10284408D02*
X15272439Y-10255836D01*
X15272439Y-10255836D02*
X15281963Y-10246312D01*
X15462915Y-10474884D02*
X15348629Y-10474884D01*
X15405772Y-10474884D02*
X15405772Y-10274884D01*
X15405772Y-10274884D02*
X15386725Y-10303455D01*
X15386725Y-10303455D02*
X15367677Y-10322503D01*
X15367677Y-10322503D02*
X15348629Y-10332027D01*
X15539106Y-10293931D02*
X15548629Y-10284408D01*
X15548629Y-10284408D02*
X15567677Y-10274884D01*
X15567677Y-10274884D02*
X15615296Y-10274884D01*
X15615296Y-10274884D02*
X15634344Y-10284408D01*
X15634344Y-10284408D02*
X15643868Y-10293931D01*
X15643868Y-10293931D02*
X15653391Y-10312979D01*
X15653391Y-10312979D02*
X15653391Y-10332027D01*
X15653391Y-10332027D02*
X15643868Y-10360598D01*
X15643868Y-10360598D02*
X15529582Y-10474884D01*
X15529582Y-10474884D02*
X15653391Y-10474884D01*
X15891487Y-10474884D02*
X15891487Y-10274884D01*
X15977201Y-10474884D02*
X15977201Y-10370122D01*
X15977201Y-10370122D02*
X15967677Y-10351074D01*
X15967677Y-10351074D02*
X15948630Y-10341550D01*
X15948630Y-10341550D02*
X15920058Y-10341550D01*
X15920058Y-10341550D02*
X15901010Y-10351074D01*
X15901010Y-10351074D02*
X15891487Y-10360598D01*
X16101010Y-10474884D02*
X16081963Y-10465360D01*
X16081963Y-10465360D02*
X16072439Y-10455836D01*
X16072439Y-10455836D02*
X16062915Y-10436789D01*
X16062915Y-10436789D02*
X16062915Y-10379646D01*
X16062915Y-10379646D02*
X16072439Y-10360598D01*
X16072439Y-10360598D02*
X16081963Y-10351074D01*
X16081963Y-10351074D02*
X16101010Y-10341550D01*
X16101010Y-10341550D02*
X16129582Y-10341550D01*
X16129582Y-10341550D02*
X16148630Y-10351074D01*
X16148630Y-10351074D02*
X16158153Y-10360598D01*
X16158153Y-10360598D02*
X16167677Y-10379646D01*
X16167677Y-10379646D02*
X16167677Y-10436789D01*
X16167677Y-10436789D02*
X16158153Y-10455836D01*
X16158153Y-10455836D02*
X16148630Y-10465360D01*
X16148630Y-10465360D02*
X16129582Y-10474884D01*
X16129582Y-10474884D02*
X16101010Y-10474884D01*
X16281963Y-10474884D02*
X16262915Y-10465360D01*
X16262915Y-10465360D02*
X16253391Y-10446312D01*
X16253391Y-10446312D02*
X16253391Y-10274884D01*
X16434344Y-10465360D02*
X16415296Y-10474884D01*
X16415296Y-10474884D02*
X16377201Y-10474884D01*
X16377201Y-10474884D02*
X16358153Y-10465360D01*
X16358153Y-10465360D02*
X16348630Y-10446312D01*
X16348630Y-10446312D02*
X16348630Y-10370122D01*
X16348630Y-10370122D02*
X16358153Y-10351074D01*
X16358153Y-10351074D02*
X16377201Y-10341550D01*
X16377201Y-10341550D02*
X16415296Y-10341550D01*
X16415296Y-10341550D02*
X16434344Y-10351074D01*
X16434344Y-10351074D02*
X16443868Y-10370122D01*
X16443868Y-10370122D02*
X16443868Y-10389170D01*
X16443868Y-10389170D02*
X16348630Y-10408217D01*
X16520058Y-10465360D02*
X16539106Y-10474884D01*
X16539106Y-10474884D02*
X16577201Y-10474884D01*
X16577201Y-10474884D02*
X16596249Y-10465360D01*
X16596249Y-10465360D02*
X16605772Y-10446312D01*
X16605772Y-10446312D02*
X16605772Y-10436789D01*
X16605772Y-10436789D02*
X16596249Y-10417741D01*
X16596249Y-10417741D02*
X16577201Y-10408217D01*
X16577201Y-10408217D02*
X16548630Y-10408217D01*
X16548630Y-10408217D02*
X16529582Y-10398693D01*
X16529582Y-10398693D02*
X16520058Y-10379646D01*
X16520058Y-10379646D02*
X16520058Y-10370122D01*
X16520058Y-10370122D02*
X16529582Y-10351074D01*
X16529582Y-10351074D02*
X16548630Y-10341550D01*
X16548630Y-10341550D02*
X16577201Y-10341550D01*
X16577201Y-10341550D02*
X16596249Y-10351074D01*
X16672439Y-10551074D02*
X16681963Y-10541550D01*
X16681963Y-10541550D02*
X16701011Y-10512979D01*
X16701011Y-10512979D02*
X16710534Y-10493931D01*
X16710534Y-10493931D02*
X16720058Y-10465360D01*
X16720058Y-10465360D02*
X16729582Y-10417741D01*
X16729582Y-10417741D02*
X16729582Y-10379646D01*
X16729582Y-10379646D02*
X16720058Y-10332027D01*
X16720058Y-10332027D02*
X16710534Y-10303455D01*
X16710534Y-10303455D02*
X16701011Y-10284408D01*
X16701011Y-10284408D02*
X16681963Y-10255836D01*
X16681963Y-10255836D02*
X16672439Y-10246312D01*
D12*
X11706900Y-10647400D02*
G75*
G02*
X11676900Y-10647400I-15000J0D01*
G01*
X11676900Y-10647400D02*
G75*
G02*
X11706900Y-10647400I15000J0D01*
G01*
D11*
X12005772Y-10538884D02*
X12024820Y-10538884D01*
X12024820Y-10538884D02*
X12043867Y-10548408D01*
X12043867Y-10548408D02*
X12053391Y-10557931D01*
X12053391Y-10557931D02*
X12062915Y-10576979D01*
X12062915Y-10576979D02*
X12072439Y-10615074D01*
X12072439Y-10615074D02*
X12072439Y-10662693D01*
X12072439Y-10662693D02*
X12062915Y-10700789D01*
X12062915Y-10700789D02*
X12053391Y-10719836D01*
X12053391Y-10719836D02*
X12043867Y-10729360D01*
X12043867Y-10729360D02*
X12024820Y-10738884D01*
X12024820Y-10738884D02*
X12005772Y-10738884D01*
X12005772Y-10738884D02*
X11986724Y-10729360D01*
X11986724Y-10729360D02*
X11977201Y-10719836D01*
X11977201Y-10719836D02*
X11967677Y-10700789D01*
X11967677Y-10700789D02*
X11958153Y-10662693D01*
X11958153Y-10662693D02*
X11958153Y-10615074D01*
X11958153Y-10615074D02*
X11967677Y-10576979D01*
X11967677Y-10576979D02*
X11977201Y-10557931D01*
X11977201Y-10557931D02*
X11986724Y-10548408D01*
X11986724Y-10548408D02*
X12005772Y-10538884D01*
X12158153Y-10719836D02*
X12167677Y-10729360D01*
X12167677Y-10729360D02*
X12158153Y-10738884D01*
X12158153Y-10738884D02*
X12148629Y-10729360D01*
X12148629Y-10729360D02*
X12158153Y-10719836D01*
X12158153Y-10719836D02*
X12158153Y-10738884D01*
X12234343Y-10538884D02*
X12358153Y-10538884D01*
X12358153Y-10538884D02*
X12291486Y-10615074D01*
X12291486Y-10615074D02*
X12320058Y-10615074D01*
X12320058Y-10615074D02*
X12339105Y-10624598D01*
X12339105Y-10624598D02*
X12348629Y-10634122D01*
X12348629Y-10634122D02*
X12358153Y-10653170D01*
X12358153Y-10653170D02*
X12358153Y-10700789D01*
X12358153Y-10700789D02*
X12348629Y-10719836D01*
X12348629Y-10719836D02*
X12339105Y-10729360D01*
X12339105Y-10729360D02*
X12320058Y-10738884D01*
X12320058Y-10738884D02*
X12262915Y-10738884D01*
X12262915Y-10738884D02*
X12243867Y-10729360D01*
X12243867Y-10729360D02*
X12234343Y-10719836D01*
X12481962Y-10538884D02*
X12501010Y-10538884D01*
X12501010Y-10538884D02*
X12520058Y-10548408D01*
X12520058Y-10548408D02*
X12529582Y-10557931D01*
X12529582Y-10557931D02*
X12539105Y-10576979D01*
X12539105Y-10576979D02*
X12548629Y-10615074D01*
X12548629Y-10615074D02*
X12548629Y-10662693D01*
X12548629Y-10662693D02*
X12539105Y-10700789D01*
X12539105Y-10700789D02*
X12529582Y-10719836D01*
X12529582Y-10719836D02*
X12520058Y-10729360D01*
X12520058Y-10729360D02*
X12501010Y-10738884D01*
X12501010Y-10738884D02*
X12481962Y-10738884D01*
X12481962Y-10738884D02*
X12462915Y-10729360D01*
X12462915Y-10729360D02*
X12453391Y-10719836D01*
X12453391Y-10719836D02*
X12443867Y-10700789D01*
X12443867Y-10700789D02*
X12434343Y-10662693D01*
X12434343Y-10662693D02*
X12434343Y-10615074D01*
X12434343Y-10615074D02*
X12443867Y-10576979D01*
X12443867Y-10576979D02*
X12453391Y-10557931D01*
X12453391Y-10557931D02*
X12462915Y-10548408D01*
X12462915Y-10548408D02*
X12481962Y-10538884D01*
X12672439Y-10538884D02*
X12691486Y-10538884D01*
X12691486Y-10538884D02*
X12710534Y-10548408D01*
X12710534Y-10548408D02*
X12720058Y-10557931D01*
X12720058Y-10557931D02*
X12729582Y-10576979D01*
X12729582Y-10576979D02*
X12739105Y-10615074D01*
X12739105Y-10615074D02*
X12739105Y-10662693D01*
X12739105Y-10662693D02*
X12729582Y-10700789D01*
X12729582Y-10700789D02*
X12720058Y-10719836D01*
X12720058Y-10719836D02*
X12710534Y-10729360D01*
X12710534Y-10729360D02*
X12691486Y-10738884D01*
X12691486Y-10738884D02*
X12672439Y-10738884D01*
X12672439Y-10738884D02*
X12653391Y-10729360D01*
X12653391Y-10729360D02*
X12643867Y-10719836D01*
X12643867Y-10719836D02*
X12634343Y-10700789D01*
X12634343Y-10700789D02*
X12624820Y-10662693D01*
X12624820Y-10662693D02*
X12624820Y-10615074D01*
X12624820Y-10615074D02*
X12634343Y-10576979D01*
X12634343Y-10576979D02*
X12643867Y-10557931D01*
X12643867Y-10557931D02*
X12653391Y-10548408D01*
X12653391Y-10548408D02*
X12672439Y-10538884D01*
X12824820Y-10738884D02*
X12824820Y-10605550D01*
X12824820Y-10624598D02*
X12834343Y-10615074D01*
X12834343Y-10615074D02*
X12853391Y-10605550D01*
X12853391Y-10605550D02*
X12881963Y-10605550D01*
X12881963Y-10605550D02*
X12901010Y-10615074D01*
X12901010Y-10615074D02*
X12910534Y-10634122D01*
X12910534Y-10634122D02*
X12910534Y-10738884D01*
X12910534Y-10634122D02*
X12920058Y-10615074D01*
X12920058Y-10615074D02*
X12939105Y-10605550D01*
X12939105Y-10605550D02*
X12967677Y-10605550D01*
X12967677Y-10605550D02*
X12986724Y-10615074D01*
X12986724Y-10615074D02*
X12996248Y-10634122D01*
X12996248Y-10634122D02*
X12996248Y-10738884D01*
X13091486Y-10738884D02*
X13091486Y-10605550D01*
X13091486Y-10624598D02*
X13101010Y-10615074D01*
X13101010Y-10615074D02*
X13120058Y-10605550D01*
X13120058Y-10605550D02*
X13148629Y-10605550D01*
X13148629Y-10605550D02*
X13167677Y-10615074D01*
X13167677Y-10615074D02*
X13177201Y-10634122D01*
X13177201Y-10634122D02*
X13177201Y-10738884D01*
X13177201Y-10634122D02*
X13186724Y-10615074D01*
X13186724Y-10615074D02*
X13205772Y-10605550D01*
X13205772Y-10605550D02*
X13234343Y-10605550D01*
X13234343Y-10605550D02*
X13253391Y-10615074D01*
X13253391Y-10615074D02*
X13262915Y-10634122D01*
X13262915Y-10634122D02*
X13262915Y-10738884D01*
X13653391Y-10529360D02*
X13481963Y-10786503D01*
X13910534Y-10538884D02*
X13929582Y-10538884D01*
X13929582Y-10538884D02*
X13948629Y-10548408D01*
X13948629Y-10548408D02*
X13958153Y-10557931D01*
X13958153Y-10557931D02*
X13967677Y-10576979D01*
X13967677Y-10576979D02*
X13977201Y-10615074D01*
X13977201Y-10615074D02*
X13977201Y-10662693D01*
X13977201Y-10662693D02*
X13967677Y-10700789D01*
X13967677Y-10700789D02*
X13958153Y-10719836D01*
X13958153Y-10719836D02*
X13948629Y-10729360D01*
X13948629Y-10729360D02*
X13929582Y-10738884D01*
X13929582Y-10738884D02*
X13910534Y-10738884D01*
X13910534Y-10738884D02*
X13891486Y-10729360D01*
X13891486Y-10729360D02*
X13881963Y-10719836D01*
X13881963Y-10719836D02*
X13872439Y-10700789D01*
X13872439Y-10700789D02*
X13862915Y-10662693D01*
X13862915Y-10662693D02*
X13862915Y-10615074D01*
X13862915Y-10615074D02*
X13872439Y-10576979D01*
X13872439Y-10576979D02*
X13881963Y-10557931D01*
X13881963Y-10557931D02*
X13891486Y-10548408D01*
X13891486Y-10548408D02*
X13910534Y-10538884D01*
X14062915Y-10719836D02*
X14072439Y-10729360D01*
X14072439Y-10729360D02*
X14062915Y-10738884D01*
X14062915Y-10738884D02*
X14053391Y-10729360D01*
X14053391Y-10729360D02*
X14062915Y-10719836D01*
X14062915Y-10719836D02*
X14062915Y-10738884D01*
X14196248Y-10538884D02*
X14215296Y-10538884D01*
X14215296Y-10538884D02*
X14234344Y-10548408D01*
X14234344Y-10548408D02*
X14243867Y-10557931D01*
X14243867Y-10557931D02*
X14253391Y-10576979D01*
X14253391Y-10576979D02*
X14262915Y-10615074D01*
X14262915Y-10615074D02*
X14262915Y-10662693D01*
X14262915Y-10662693D02*
X14253391Y-10700789D01*
X14253391Y-10700789D02*
X14243867Y-10719836D01*
X14243867Y-10719836D02*
X14234344Y-10729360D01*
X14234344Y-10729360D02*
X14215296Y-10738884D01*
X14215296Y-10738884D02*
X14196248Y-10738884D01*
X14196248Y-10738884D02*
X14177201Y-10729360D01*
X14177201Y-10729360D02*
X14167677Y-10719836D01*
X14167677Y-10719836D02*
X14158153Y-10700789D01*
X14158153Y-10700789D02*
X14148629Y-10662693D01*
X14148629Y-10662693D02*
X14148629Y-10615074D01*
X14148629Y-10615074D02*
X14158153Y-10576979D01*
X14158153Y-10576979D02*
X14167677Y-10557931D01*
X14167677Y-10557931D02*
X14177201Y-10548408D01*
X14177201Y-10548408D02*
X14196248Y-10538884D01*
X14453391Y-10738884D02*
X14339106Y-10738884D01*
X14396248Y-10738884D02*
X14396248Y-10538884D01*
X14396248Y-10538884D02*
X14377201Y-10567455D01*
X14377201Y-10567455D02*
X14358153Y-10586503D01*
X14358153Y-10586503D02*
X14339106Y-10596027D01*
X14643867Y-10738884D02*
X14529582Y-10738884D01*
X14586725Y-10738884D02*
X14586725Y-10538884D01*
X14586725Y-10538884D02*
X14567677Y-10567455D01*
X14567677Y-10567455D02*
X14548629Y-10586503D01*
X14548629Y-10586503D02*
X14529582Y-10596027D01*
X14758153Y-10624598D02*
X14739106Y-10615074D01*
X14739106Y-10615074D02*
X14729582Y-10605550D01*
X14729582Y-10605550D02*
X14720058Y-10586503D01*
X14720058Y-10586503D02*
X14720058Y-10576979D01*
X14720058Y-10576979D02*
X14729582Y-10557931D01*
X14729582Y-10557931D02*
X14739106Y-10548408D01*
X14739106Y-10548408D02*
X14758153Y-10538884D01*
X14758153Y-10538884D02*
X14796248Y-10538884D01*
X14796248Y-10538884D02*
X14815296Y-10548408D01*
X14815296Y-10548408D02*
X14824820Y-10557931D01*
X14824820Y-10557931D02*
X14834344Y-10576979D01*
X14834344Y-10576979D02*
X14834344Y-10586503D01*
X14834344Y-10586503D02*
X14824820Y-10605550D01*
X14824820Y-10605550D02*
X14815296Y-10615074D01*
X14815296Y-10615074D02*
X14796248Y-10624598D01*
X14796248Y-10624598D02*
X14758153Y-10624598D01*
X14758153Y-10624598D02*
X14739106Y-10634122D01*
X14739106Y-10634122D02*
X14729582Y-10643646D01*
X14729582Y-10643646D02*
X14720058Y-10662693D01*
X14720058Y-10662693D02*
X14720058Y-10700789D01*
X14720058Y-10700789D02*
X14729582Y-10719836D01*
X14729582Y-10719836D02*
X14739106Y-10729360D01*
X14739106Y-10729360D02*
X14758153Y-10738884D01*
X14758153Y-10738884D02*
X14796248Y-10738884D01*
X14796248Y-10738884D02*
X14815296Y-10729360D01*
X14815296Y-10729360D02*
X14824820Y-10719836D01*
X14824820Y-10719836D02*
X14834344Y-10700789D01*
X14834344Y-10700789D02*
X14834344Y-10662693D01*
X14834344Y-10662693D02*
X14824820Y-10643646D01*
X14824820Y-10643646D02*
X14815296Y-10634122D01*
X14815296Y-10634122D02*
X14796248Y-10624598D01*
X14910534Y-10538884D02*
X14910534Y-10576979D01*
X14986725Y-10538884D02*
X14986725Y-10576979D01*
X15281963Y-10815074D02*
X15272439Y-10805550D01*
X15272439Y-10805550D02*
X15253391Y-10776979D01*
X15253391Y-10776979D02*
X15243868Y-10757931D01*
X15243868Y-10757931D02*
X15234344Y-10729360D01*
X15234344Y-10729360D02*
X15224820Y-10681741D01*
X15224820Y-10681741D02*
X15224820Y-10643646D01*
X15224820Y-10643646D02*
X15234344Y-10596027D01*
X15234344Y-10596027D02*
X15243868Y-10567455D01*
X15243868Y-10567455D02*
X15253391Y-10548408D01*
X15253391Y-10548408D02*
X15272439Y-10519836D01*
X15272439Y-10519836D02*
X15281963Y-10510312D01*
X15348629Y-10557931D02*
X15358153Y-10548408D01*
X15358153Y-10548408D02*
X15377201Y-10538884D01*
X15377201Y-10538884D02*
X15424820Y-10538884D01*
X15424820Y-10538884D02*
X15443868Y-10548408D01*
X15443868Y-10548408D02*
X15453391Y-10557931D01*
X15453391Y-10557931D02*
X15462915Y-10576979D01*
X15462915Y-10576979D02*
X15462915Y-10596027D01*
X15462915Y-10596027D02*
X15453391Y-10624598D01*
X15453391Y-10624598D02*
X15339106Y-10738884D01*
X15339106Y-10738884D02*
X15462915Y-10738884D01*
X15634344Y-10538884D02*
X15596248Y-10538884D01*
X15596248Y-10538884D02*
X15577201Y-10548408D01*
X15577201Y-10548408D02*
X15567677Y-10557931D01*
X15567677Y-10557931D02*
X15548629Y-10586503D01*
X15548629Y-10586503D02*
X15539106Y-10624598D01*
X15539106Y-10624598D02*
X15539106Y-10700789D01*
X15539106Y-10700789D02*
X15548629Y-10719836D01*
X15548629Y-10719836D02*
X15558153Y-10729360D01*
X15558153Y-10729360D02*
X15577201Y-10738884D01*
X15577201Y-10738884D02*
X15615296Y-10738884D01*
X15615296Y-10738884D02*
X15634344Y-10729360D01*
X15634344Y-10729360D02*
X15643868Y-10719836D01*
X15643868Y-10719836D02*
X15653391Y-10700789D01*
X15653391Y-10700789D02*
X15653391Y-10653170D01*
X15653391Y-10653170D02*
X15643868Y-10634122D01*
X15643868Y-10634122D02*
X15634344Y-10624598D01*
X15634344Y-10624598D02*
X15615296Y-10615074D01*
X15615296Y-10615074D02*
X15577201Y-10615074D01*
X15577201Y-10615074D02*
X15558153Y-10624598D01*
X15558153Y-10624598D02*
X15548629Y-10634122D01*
X15548629Y-10634122D02*
X15539106Y-10653170D01*
X15891487Y-10738884D02*
X15891487Y-10538884D01*
X15977201Y-10738884D02*
X15977201Y-10634122D01*
X15977201Y-10634122D02*
X15967677Y-10615074D01*
X15967677Y-10615074D02*
X15948630Y-10605550D01*
X15948630Y-10605550D02*
X15920058Y-10605550D01*
X15920058Y-10605550D02*
X15901010Y-10615074D01*
X15901010Y-10615074D02*
X15891487Y-10624598D01*
X16101010Y-10738884D02*
X16081963Y-10729360D01*
X16081963Y-10729360D02*
X16072439Y-10719836D01*
X16072439Y-10719836D02*
X16062915Y-10700789D01*
X16062915Y-10700789D02*
X16062915Y-10643646D01*
X16062915Y-10643646D02*
X16072439Y-10624598D01*
X16072439Y-10624598D02*
X16081963Y-10615074D01*
X16081963Y-10615074D02*
X16101010Y-10605550D01*
X16101010Y-10605550D02*
X16129582Y-10605550D01*
X16129582Y-10605550D02*
X16148630Y-10615074D01*
X16148630Y-10615074D02*
X16158153Y-10624598D01*
X16158153Y-10624598D02*
X16167677Y-10643646D01*
X16167677Y-10643646D02*
X16167677Y-10700789D01*
X16167677Y-10700789D02*
X16158153Y-10719836D01*
X16158153Y-10719836D02*
X16148630Y-10729360D01*
X16148630Y-10729360D02*
X16129582Y-10738884D01*
X16129582Y-10738884D02*
X16101010Y-10738884D01*
X16281963Y-10738884D02*
X16262915Y-10729360D01*
X16262915Y-10729360D02*
X16253391Y-10710312D01*
X16253391Y-10710312D02*
X16253391Y-10538884D01*
X16434344Y-10729360D02*
X16415296Y-10738884D01*
X16415296Y-10738884D02*
X16377201Y-10738884D01*
X16377201Y-10738884D02*
X16358153Y-10729360D01*
X16358153Y-10729360D02*
X16348630Y-10710312D01*
X16348630Y-10710312D02*
X16348630Y-10634122D01*
X16348630Y-10634122D02*
X16358153Y-10615074D01*
X16358153Y-10615074D02*
X16377201Y-10605550D01*
X16377201Y-10605550D02*
X16415296Y-10605550D01*
X16415296Y-10605550D02*
X16434344Y-10615074D01*
X16434344Y-10615074D02*
X16443868Y-10634122D01*
X16443868Y-10634122D02*
X16443868Y-10653170D01*
X16443868Y-10653170D02*
X16348630Y-10672217D01*
X16520058Y-10729360D02*
X16539106Y-10738884D01*
X16539106Y-10738884D02*
X16577201Y-10738884D01*
X16577201Y-10738884D02*
X16596249Y-10729360D01*
X16596249Y-10729360D02*
X16605772Y-10710312D01*
X16605772Y-10710312D02*
X16605772Y-10700789D01*
X16605772Y-10700789D02*
X16596249Y-10681741D01*
X16596249Y-10681741D02*
X16577201Y-10672217D01*
X16577201Y-10672217D02*
X16548630Y-10672217D01*
X16548630Y-10672217D02*
X16529582Y-10662693D01*
X16529582Y-10662693D02*
X16520058Y-10643646D01*
X16520058Y-10643646D02*
X16520058Y-10634122D01*
X16520058Y-10634122D02*
X16529582Y-10615074D01*
X16529582Y-10615074D02*
X16548630Y-10605550D01*
X16548630Y-10605550D02*
X16577201Y-10605550D01*
X16577201Y-10605550D02*
X16596249Y-10615074D01*
X16672439Y-10815074D02*
X16681963Y-10805550D01*
X16681963Y-10805550D02*
X16701011Y-10776979D01*
X16701011Y-10776979D02*
X16710534Y-10757931D01*
X16710534Y-10757931D02*
X16720058Y-10729360D01*
X16720058Y-10729360D02*
X16729582Y-10681741D01*
X16729582Y-10681741D02*
X16729582Y-10643646D01*
X16729582Y-10643646D02*
X16720058Y-10596027D01*
X16720058Y-10596027D02*
X16710534Y-10567455D01*
X16710534Y-10567455D02*
X16701011Y-10548408D01*
X16701011Y-10548408D02*
X16681963Y-10519836D01*
X16681963Y-10519836D02*
X16672439Y-10510312D01*
D12*
X11676900Y-10881400D02*
X11676900Y-10941400D01*
X11646900Y-10911400D02*
X11706900Y-10911400D01*
D11*
X12005772Y-10802884D02*
X12024820Y-10802884D01*
X12024820Y-10802884D02*
X12043867Y-10812408D01*
X12043867Y-10812408D02*
X12053391Y-10821931D01*
X12053391Y-10821931D02*
X12062915Y-10840979D01*
X12062915Y-10840979D02*
X12072439Y-10879074D01*
X12072439Y-10879074D02*
X12072439Y-10926693D01*
X12072439Y-10926693D02*
X12062915Y-10964789D01*
X12062915Y-10964789D02*
X12053391Y-10983836D01*
X12053391Y-10983836D02*
X12043867Y-10993360D01*
X12043867Y-10993360D02*
X12024820Y-11002884D01*
X12024820Y-11002884D02*
X12005772Y-11002884D01*
X12005772Y-11002884D02*
X11986724Y-10993360D01*
X11986724Y-10993360D02*
X11977201Y-10983836D01*
X11977201Y-10983836D02*
X11967677Y-10964789D01*
X11967677Y-10964789D02*
X11958153Y-10926693D01*
X11958153Y-10926693D02*
X11958153Y-10879074D01*
X11958153Y-10879074D02*
X11967677Y-10840979D01*
X11967677Y-10840979D02*
X11977201Y-10821931D01*
X11977201Y-10821931D02*
X11986724Y-10812408D01*
X11986724Y-10812408D02*
X12005772Y-10802884D01*
X12158153Y-10983836D02*
X12167677Y-10993360D01*
X12167677Y-10993360D02*
X12158153Y-11002884D01*
X12158153Y-11002884D02*
X12148629Y-10993360D01*
X12148629Y-10993360D02*
X12158153Y-10983836D01*
X12158153Y-10983836D02*
X12158153Y-11002884D01*
X12339105Y-10802884D02*
X12301010Y-10802884D01*
X12301010Y-10802884D02*
X12281962Y-10812408D01*
X12281962Y-10812408D02*
X12272439Y-10821931D01*
X12272439Y-10821931D02*
X12253391Y-10850503D01*
X12253391Y-10850503D02*
X12243867Y-10888598D01*
X12243867Y-10888598D02*
X12243867Y-10964789D01*
X12243867Y-10964789D02*
X12253391Y-10983836D01*
X12253391Y-10983836D02*
X12262915Y-10993360D01*
X12262915Y-10993360D02*
X12281962Y-11002884D01*
X12281962Y-11002884D02*
X12320058Y-11002884D01*
X12320058Y-11002884D02*
X12339105Y-10993360D01*
X12339105Y-10993360D02*
X12348629Y-10983836D01*
X12348629Y-10983836D02*
X12358153Y-10964789D01*
X12358153Y-10964789D02*
X12358153Y-10917170D01*
X12358153Y-10917170D02*
X12348629Y-10898122D01*
X12348629Y-10898122D02*
X12339105Y-10888598D01*
X12339105Y-10888598D02*
X12320058Y-10879074D01*
X12320058Y-10879074D02*
X12281962Y-10879074D01*
X12281962Y-10879074D02*
X12262915Y-10888598D01*
X12262915Y-10888598D02*
X12253391Y-10898122D01*
X12253391Y-10898122D02*
X12243867Y-10917170D01*
X12481962Y-10802884D02*
X12501010Y-10802884D01*
X12501010Y-10802884D02*
X12520058Y-10812408D01*
X12520058Y-10812408D02*
X12529582Y-10821931D01*
X12529582Y-10821931D02*
X12539105Y-10840979D01*
X12539105Y-10840979D02*
X12548629Y-10879074D01*
X12548629Y-10879074D02*
X12548629Y-10926693D01*
X12548629Y-10926693D02*
X12539105Y-10964789D01*
X12539105Y-10964789D02*
X12529582Y-10983836D01*
X12529582Y-10983836D02*
X12520058Y-10993360D01*
X12520058Y-10993360D02*
X12501010Y-11002884D01*
X12501010Y-11002884D02*
X12481962Y-11002884D01*
X12481962Y-11002884D02*
X12462915Y-10993360D01*
X12462915Y-10993360D02*
X12453391Y-10983836D01*
X12453391Y-10983836D02*
X12443867Y-10964789D01*
X12443867Y-10964789D02*
X12434343Y-10926693D01*
X12434343Y-10926693D02*
X12434343Y-10879074D01*
X12434343Y-10879074D02*
X12443867Y-10840979D01*
X12443867Y-10840979D02*
X12453391Y-10821931D01*
X12453391Y-10821931D02*
X12462915Y-10812408D01*
X12462915Y-10812408D02*
X12481962Y-10802884D01*
X12672439Y-10802884D02*
X12691486Y-10802884D01*
X12691486Y-10802884D02*
X12710534Y-10812408D01*
X12710534Y-10812408D02*
X12720058Y-10821931D01*
X12720058Y-10821931D02*
X12729582Y-10840979D01*
X12729582Y-10840979D02*
X12739105Y-10879074D01*
X12739105Y-10879074D02*
X12739105Y-10926693D01*
X12739105Y-10926693D02*
X12729582Y-10964789D01*
X12729582Y-10964789D02*
X12720058Y-10983836D01*
X12720058Y-10983836D02*
X12710534Y-10993360D01*
X12710534Y-10993360D02*
X12691486Y-11002884D01*
X12691486Y-11002884D02*
X12672439Y-11002884D01*
X12672439Y-11002884D02*
X12653391Y-10993360D01*
X12653391Y-10993360D02*
X12643867Y-10983836D01*
X12643867Y-10983836D02*
X12634343Y-10964789D01*
X12634343Y-10964789D02*
X12624820Y-10926693D01*
X12624820Y-10926693D02*
X12624820Y-10879074D01*
X12624820Y-10879074D02*
X12634343Y-10840979D01*
X12634343Y-10840979D02*
X12643867Y-10821931D01*
X12643867Y-10821931D02*
X12653391Y-10812408D01*
X12653391Y-10812408D02*
X12672439Y-10802884D01*
X12824820Y-11002884D02*
X12824820Y-10869550D01*
X12824820Y-10888598D02*
X12834343Y-10879074D01*
X12834343Y-10879074D02*
X12853391Y-10869550D01*
X12853391Y-10869550D02*
X12881963Y-10869550D01*
X12881963Y-10869550D02*
X12901010Y-10879074D01*
X12901010Y-10879074D02*
X12910534Y-10898122D01*
X12910534Y-10898122D02*
X12910534Y-11002884D01*
X12910534Y-10898122D02*
X12920058Y-10879074D01*
X12920058Y-10879074D02*
X12939105Y-10869550D01*
X12939105Y-10869550D02*
X12967677Y-10869550D01*
X12967677Y-10869550D02*
X12986724Y-10879074D01*
X12986724Y-10879074D02*
X12996248Y-10898122D01*
X12996248Y-10898122D02*
X12996248Y-11002884D01*
X13091486Y-11002884D02*
X13091486Y-10869550D01*
X13091486Y-10888598D02*
X13101010Y-10879074D01*
X13101010Y-10879074D02*
X13120058Y-10869550D01*
X13120058Y-10869550D02*
X13148629Y-10869550D01*
X13148629Y-10869550D02*
X13167677Y-10879074D01*
X13167677Y-10879074D02*
X13177201Y-10898122D01*
X13177201Y-10898122D02*
X13177201Y-11002884D01*
X13177201Y-10898122D02*
X13186724Y-10879074D01*
X13186724Y-10879074D02*
X13205772Y-10869550D01*
X13205772Y-10869550D02*
X13234343Y-10869550D01*
X13234343Y-10869550D02*
X13253391Y-10879074D01*
X13253391Y-10879074D02*
X13262915Y-10898122D01*
X13262915Y-10898122D02*
X13262915Y-11002884D01*
X13653391Y-10793360D02*
X13481963Y-11050503D01*
X13910534Y-10802884D02*
X13929582Y-10802884D01*
X13929582Y-10802884D02*
X13948629Y-10812408D01*
X13948629Y-10812408D02*
X13958153Y-10821931D01*
X13958153Y-10821931D02*
X13967677Y-10840979D01*
X13967677Y-10840979D02*
X13977201Y-10879074D01*
X13977201Y-10879074D02*
X13977201Y-10926693D01*
X13977201Y-10926693D02*
X13967677Y-10964789D01*
X13967677Y-10964789D02*
X13958153Y-10983836D01*
X13958153Y-10983836D02*
X13948629Y-10993360D01*
X13948629Y-10993360D02*
X13929582Y-11002884D01*
X13929582Y-11002884D02*
X13910534Y-11002884D01*
X13910534Y-11002884D02*
X13891486Y-10993360D01*
X13891486Y-10993360D02*
X13881963Y-10983836D01*
X13881963Y-10983836D02*
X13872439Y-10964789D01*
X13872439Y-10964789D02*
X13862915Y-10926693D01*
X13862915Y-10926693D02*
X13862915Y-10879074D01*
X13862915Y-10879074D02*
X13872439Y-10840979D01*
X13872439Y-10840979D02*
X13881963Y-10821931D01*
X13881963Y-10821931D02*
X13891486Y-10812408D01*
X13891486Y-10812408D02*
X13910534Y-10802884D01*
X14062915Y-10983836D02*
X14072439Y-10993360D01*
X14072439Y-10993360D02*
X14062915Y-11002884D01*
X14062915Y-11002884D02*
X14053391Y-10993360D01*
X14053391Y-10993360D02*
X14062915Y-10983836D01*
X14062915Y-10983836D02*
X14062915Y-11002884D01*
X14196248Y-10802884D02*
X14215296Y-10802884D01*
X14215296Y-10802884D02*
X14234344Y-10812408D01*
X14234344Y-10812408D02*
X14243867Y-10821931D01*
X14243867Y-10821931D02*
X14253391Y-10840979D01*
X14253391Y-10840979D02*
X14262915Y-10879074D01*
X14262915Y-10879074D02*
X14262915Y-10926693D01*
X14262915Y-10926693D02*
X14253391Y-10964789D01*
X14253391Y-10964789D02*
X14243867Y-10983836D01*
X14243867Y-10983836D02*
X14234344Y-10993360D01*
X14234344Y-10993360D02*
X14215296Y-11002884D01*
X14215296Y-11002884D02*
X14196248Y-11002884D01*
X14196248Y-11002884D02*
X14177201Y-10993360D01*
X14177201Y-10993360D02*
X14167677Y-10983836D01*
X14167677Y-10983836D02*
X14158153Y-10964789D01*
X14158153Y-10964789D02*
X14148629Y-10926693D01*
X14148629Y-10926693D02*
X14148629Y-10879074D01*
X14148629Y-10879074D02*
X14158153Y-10840979D01*
X14158153Y-10840979D02*
X14167677Y-10821931D01*
X14167677Y-10821931D02*
X14177201Y-10812408D01*
X14177201Y-10812408D02*
X14196248Y-10802884D01*
X14339106Y-10821931D02*
X14348629Y-10812408D01*
X14348629Y-10812408D02*
X14367677Y-10802884D01*
X14367677Y-10802884D02*
X14415296Y-10802884D01*
X14415296Y-10802884D02*
X14434344Y-10812408D01*
X14434344Y-10812408D02*
X14443867Y-10821931D01*
X14443867Y-10821931D02*
X14453391Y-10840979D01*
X14453391Y-10840979D02*
X14453391Y-10860027D01*
X14453391Y-10860027D02*
X14443867Y-10888598D01*
X14443867Y-10888598D02*
X14329582Y-11002884D01*
X14329582Y-11002884D02*
X14453391Y-11002884D01*
X14520058Y-10802884D02*
X14643867Y-10802884D01*
X14643867Y-10802884D02*
X14577201Y-10879074D01*
X14577201Y-10879074D02*
X14605772Y-10879074D01*
X14605772Y-10879074D02*
X14624820Y-10888598D01*
X14624820Y-10888598D02*
X14634344Y-10898122D01*
X14634344Y-10898122D02*
X14643867Y-10917170D01*
X14643867Y-10917170D02*
X14643867Y-10964789D01*
X14643867Y-10964789D02*
X14634344Y-10983836D01*
X14634344Y-10983836D02*
X14624820Y-10993360D01*
X14624820Y-10993360D02*
X14605772Y-11002884D01*
X14605772Y-11002884D02*
X14548629Y-11002884D01*
X14548629Y-11002884D02*
X14529582Y-10993360D01*
X14529582Y-10993360D02*
X14520058Y-10983836D01*
X14815296Y-10802884D02*
X14777201Y-10802884D01*
X14777201Y-10802884D02*
X14758153Y-10812408D01*
X14758153Y-10812408D02*
X14748629Y-10821931D01*
X14748629Y-10821931D02*
X14729582Y-10850503D01*
X14729582Y-10850503D02*
X14720058Y-10888598D01*
X14720058Y-10888598D02*
X14720058Y-10964789D01*
X14720058Y-10964789D02*
X14729582Y-10983836D01*
X14729582Y-10983836D02*
X14739106Y-10993360D01*
X14739106Y-10993360D02*
X14758153Y-11002884D01*
X14758153Y-11002884D02*
X14796248Y-11002884D01*
X14796248Y-11002884D02*
X14815296Y-10993360D01*
X14815296Y-10993360D02*
X14824820Y-10983836D01*
X14824820Y-10983836D02*
X14834344Y-10964789D01*
X14834344Y-10964789D02*
X14834344Y-10917170D01*
X14834344Y-10917170D02*
X14824820Y-10898122D01*
X14824820Y-10898122D02*
X14815296Y-10888598D01*
X14815296Y-10888598D02*
X14796248Y-10879074D01*
X14796248Y-10879074D02*
X14758153Y-10879074D01*
X14758153Y-10879074D02*
X14739106Y-10888598D01*
X14739106Y-10888598D02*
X14729582Y-10898122D01*
X14729582Y-10898122D02*
X14720058Y-10917170D01*
X14910534Y-10802884D02*
X14910534Y-10840979D01*
X14986725Y-10802884D02*
X14986725Y-10840979D01*
X15281963Y-11079074D02*
X15272439Y-11069550D01*
X15272439Y-11069550D02*
X15253391Y-11040979D01*
X15253391Y-11040979D02*
X15243868Y-11021931D01*
X15243868Y-11021931D02*
X15234344Y-10993360D01*
X15234344Y-10993360D02*
X15224820Y-10945741D01*
X15224820Y-10945741D02*
X15224820Y-10907646D01*
X15224820Y-10907646D02*
X15234344Y-10860027D01*
X15234344Y-10860027D02*
X15243868Y-10831455D01*
X15243868Y-10831455D02*
X15253391Y-10812408D01*
X15253391Y-10812408D02*
X15272439Y-10783836D01*
X15272439Y-10783836D02*
X15281963Y-10774312D01*
X15396248Y-10802884D02*
X15415296Y-10802884D01*
X15415296Y-10802884D02*
X15434344Y-10812408D01*
X15434344Y-10812408D02*
X15443868Y-10821931D01*
X15443868Y-10821931D02*
X15453391Y-10840979D01*
X15453391Y-10840979D02*
X15462915Y-10879074D01*
X15462915Y-10879074D02*
X15462915Y-10926693D01*
X15462915Y-10926693D02*
X15453391Y-10964789D01*
X15453391Y-10964789D02*
X15443868Y-10983836D01*
X15443868Y-10983836D02*
X15434344Y-10993360D01*
X15434344Y-10993360D02*
X15415296Y-11002884D01*
X15415296Y-11002884D02*
X15396248Y-11002884D01*
X15396248Y-11002884D02*
X15377201Y-10993360D01*
X15377201Y-10993360D02*
X15367677Y-10983836D01*
X15367677Y-10983836D02*
X15358153Y-10964789D01*
X15358153Y-10964789D02*
X15348629Y-10926693D01*
X15348629Y-10926693D02*
X15348629Y-10879074D01*
X15348629Y-10879074D02*
X15358153Y-10840979D01*
X15358153Y-10840979D02*
X15367677Y-10821931D01*
X15367677Y-10821931D02*
X15377201Y-10812408D01*
X15377201Y-10812408D02*
X15396248Y-10802884D01*
X15701010Y-11002884D02*
X15701010Y-10802884D01*
X15786725Y-11002884D02*
X15786725Y-10898122D01*
X15786725Y-10898122D02*
X15777201Y-10879074D01*
X15777201Y-10879074D02*
X15758153Y-10869550D01*
X15758153Y-10869550D02*
X15729582Y-10869550D01*
X15729582Y-10869550D02*
X15710534Y-10879074D01*
X15710534Y-10879074D02*
X15701010Y-10888598D01*
X15910534Y-11002884D02*
X15891487Y-10993360D01*
X15891487Y-10993360D02*
X15881963Y-10983836D01*
X15881963Y-10983836D02*
X15872439Y-10964789D01*
X15872439Y-10964789D02*
X15872439Y-10907646D01*
X15872439Y-10907646D02*
X15881963Y-10888598D01*
X15881963Y-10888598D02*
X15891487Y-10879074D01*
X15891487Y-10879074D02*
X15910534Y-10869550D01*
X15910534Y-10869550D02*
X15939106Y-10869550D01*
X15939106Y-10869550D02*
X15958153Y-10879074D01*
X15958153Y-10879074D02*
X15967677Y-10888598D01*
X15967677Y-10888598D02*
X15977201Y-10907646D01*
X15977201Y-10907646D02*
X15977201Y-10964789D01*
X15977201Y-10964789D02*
X15967677Y-10983836D01*
X15967677Y-10983836D02*
X15958153Y-10993360D01*
X15958153Y-10993360D02*
X15939106Y-11002884D01*
X15939106Y-11002884D02*
X15910534Y-11002884D01*
X16091487Y-11002884D02*
X16072439Y-10993360D01*
X16072439Y-10993360D02*
X16062915Y-10974312D01*
X16062915Y-10974312D02*
X16062915Y-10802884D01*
X16243868Y-10993360D02*
X16224820Y-11002884D01*
X16224820Y-11002884D02*
X16186725Y-11002884D01*
X16186725Y-11002884D02*
X16167677Y-10993360D01*
X16167677Y-10993360D02*
X16158153Y-10974312D01*
X16158153Y-10974312D02*
X16158153Y-10898122D01*
X16158153Y-10898122D02*
X16167677Y-10879074D01*
X16167677Y-10879074D02*
X16186725Y-10869550D01*
X16186725Y-10869550D02*
X16224820Y-10869550D01*
X16224820Y-10869550D02*
X16243868Y-10879074D01*
X16243868Y-10879074D02*
X16253391Y-10898122D01*
X16253391Y-10898122D02*
X16253391Y-10917170D01*
X16253391Y-10917170D02*
X16158153Y-10936217D01*
X16329582Y-10993360D02*
X16348630Y-11002884D01*
X16348630Y-11002884D02*
X16386725Y-11002884D01*
X16386725Y-11002884D02*
X16405772Y-10993360D01*
X16405772Y-10993360D02*
X16415296Y-10974312D01*
X16415296Y-10974312D02*
X16415296Y-10964789D01*
X16415296Y-10964789D02*
X16405772Y-10945741D01*
X16405772Y-10945741D02*
X16386725Y-10936217D01*
X16386725Y-10936217D02*
X16358153Y-10936217D01*
X16358153Y-10936217D02*
X16339106Y-10926693D01*
X16339106Y-10926693D02*
X16329582Y-10907646D01*
X16329582Y-10907646D02*
X16329582Y-10898122D01*
X16329582Y-10898122D02*
X16339106Y-10879074D01*
X16339106Y-10879074D02*
X16358153Y-10869550D01*
X16358153Y-10869550D02*
X16386725Y-10869550D01*
X16386725Y-10869550D02*
X16405772Y-10879074D01*
X16653392Y-10926693D02*
X16805773Y-10926693D01*
X16729582Y-11002884D02*
X16729582Y-10850503D01*
X17139106Y-10869550D02*
X17139106Y-11002884D01*
X17091487Y-10793360D02*
X17043868Y-10936217D01*
X17043868Y-10936217D02*
X17167677Y-10936217D01*
X17386725Y-10993360D02*
X17405773Y-11002884D01*
X17405773Y-11002884D02*
X17443868Y-11002884D01*
X17443868Y-11002884D02*
X17462916Y-10993360D01*
X17462916Y-10993360D02*
X17472439Y-10974312D01*
X17472439Y-10974312D02*
X17472439Y-10964789D01*
X17472439Y-10964789D02*
X17462916Y-10945741D01*
X17462916Y-10945741D02*
X17443868Y-10936217D01*
X17443868Y-10936217D02*
X17415296Y-10936217D01*
X17415296Y-10936217D02*
X17396249Y-10926693D01*
X17396249Y-10926693D02*
X17386725Y-10907646D01*
X17386725Y-10907646D02*
X17386725Y-10898122D01*
X17386725Y-10898122D02*
X17396249Y-10879074D01*
X17396249Y-10879074D02*
X17415296Y-10869550D01*
X17415296Y-10869550D02*
X17443868Y-10869550D01*
X17443868Y-10869550D02*
X17462916Y-10879074D01*
X17586725Y-11002884D02*
X17567677Y-10993360D01*
X17567677Y-10993360D02*
X17558154Y-10974312D01*
X17558154Y-10974312D02*
X17558154Y-10802884D01*
X17691487Y-11002884D02*
X17672439Y-10993360D01*
X17672439Y-10993360D02*
X17662916Y-10983836D01*
X17662916Y-10983836D02*
X17653392Y-10964789D01*
X17653392Y-10964789D02*
X17653392Y-10907646D01*
X17653392Y-10907646D02*
X17662916Y-10888598D01*
X17662916Y-10888598D02*
X17672439Y-10879074D01*
X17672439Y-10879074D02*
X17691487Y-10869550D01*
X17691487Y-10869550D02*
X17720058Y-10869550D01*
X17720058Y-10869550D02*
X17739106Y-10879074D01*
X17739106Y-10879074D02*
X17748630Y-10888598D01*
X17748630Y-10888598D02*
X17758154Y-10907646D01*
X17758154Y-10907646D02*
X17758154Y-10964789D01*
X17758154Y-10964789D02*
X17748630Y-10983836D01*
X17748630Y-10983836D02*
X17739106Y-10993360D01*
X17739106Y-10993360D02*
X17720058Y-11002884D01*
X17720058Y-11002884D02*
X17691487Y-11002884D01*
X17815297Y-10869550D02*
X17891487Y-10869550D01*
X17843868Y-10802884D02*
X17843868Y-10974312D01*
X17843868Y-10974312D02*
X17853392Y-10993360D01*
X17853392Y-10993360D02*
X17872439Y-11002884D01*
X17872439Y-11002884D02*
X17891487Y-11002884D01*
X17948630Y-10993360D02*
X17967677Y-11002884D01*
X17967677Y-11002884D02*
X18005773Y-11002884D01*
X18005773Y-11002884D02*
X18024820Y-10993360D01*
X18024820Y-10993360D02*
X18034344Y-10974312D01*
X18034344Y-10974312D02*
X18034344Y-10964789D01*
X18034344Y-10964789D02*
X18024820Y-10945741D01*
X18024820Y-10945741D02*
X18005773Y-10936217D01*
X18005773Y-10936217D02*
X17977201Y-10936217D01*
X17977201Y-10936217D02*
X17958154Y-10926693D01*
X17958154Y-10926693D02*
X17948630Y-10907646D01*
X17948630Y-10907646D02*
X17948630Y-10898122D01*
X17948630Y-10898122D02*
X17958154Y-10879074D01*
X17958154Y-10879074D02*
X17977201Y-10869550D01*
X17977201Y-10869550D02*
X18005773Y-10869550D01*
X18005773Y-10869550D02*
X18024820Y-10879074D01*
X18101011Y-11079074D02*
X18110535Y-11069550D01*
X18110535Y-11069550D02*
X18129582Y-11040979D01*
X18129582Y-11040979D02*
X18139106Y-11021931D01*
X18139106Y-11021931D02*
X18148630Y-10993360D01*
X18148630Y-10993360D02*
X18158154Y-10945741D01*
X18158154Y-10945741D02*
X18158154Y-10907646D01*
X18158154Y-10907646D02*
X18148630Y-10860027D01*
X18148630Y-10860027D02*
X18139106Y-10831455D01*
X18139106Y-10831455D02*
X18129582Y-10812408D01*
X18129582Y-10812408D02*
X18110535Y-10783836D01*
X18110535Y-10783836D02*
X18101011Y-10774312D01*
D12*
X11696649Y-11200149D02*
X11696649Y-11150651D01*
X11647151Y-11150651D01*
X11647151Y-11200149D01*
X11696649Y-11200149D01*
D11*
X12005772Y-11066884D02*
X12024820Y-11066884D01*
X12024820Y-11066884D02*
X12043867Y-11076408D01*
X12043867Y-11076408D02*
X12053391Y-11085931D01*
X12053391Y-11085931D02*
X12062915Y-11104979D01*
X12062915Y-11104979D02*
X12072439Y-11143074D01*
X12072439Y-11143074D02*
X12072439Y-11190693D01*
X12072439Y-11190693D02*
X12062915Y-11228788D01*
X12062915Y-11228788D02*
X12053391Y-11247836D01*
X12053391Y-11247836D02*
X12043867Y-11257360D01*
X12043867Y-11257360D02*
X12024820Y-11266884D01*
X12024820Y-11266884D02*
X12005772Y-11266884D01*
X12005772Y-11266884D02*
X11986724Y-11257360D01*
X11986724Y-11257360D02*
X11977201Y-11247836D01*
X11977201Y-11247836D02*
X11967677Y-11228788D01*
X11967677Y-11228788D02*
X11958153Y-11190693D01*
X11958153Y-11190693D02*
X11958153Y-11143074D01*
X11958153Y-11143074D02*
X11967677Y-11104979D01*
X11967677Y-11104979D02*
X11977201Y-11085931D01*
X11977201Y-11085931D02*
X11986724Y-11076408D01*
X11986724Y-11076408D02*
X12005772Y-11066884D01*
X12158153Y-11247836D02*
X12167677Y-11257360D01*
X12167677Y-11257360D02*
X12158153Y-11266884D01*
X12158153Y-11266884D02*
X12148629Y-11257360D01*
X12148629Y-11257360D02*
X12158153Y-11247836D01*
X12158153Y-11247836D02*
X12158153Y-11266884D01*
X12234343Y-11066884D02*
X12367677Y-11066884D01*
X12367677Y-11066884D02*
X12281962Y-11266884D01*
X12481962Y-11066884D02*
X12501010Y-11066884D01*
X12501010Y-11066884D02*
X12520058Y-11076408D01*
X12520058Y-11076408D02*
X12529582Y-11085931D01*
X12529582Y-11085931D02*
X12539105Y-11104979D01*
X12539105Y-11104979D02*
X12548629Y-11143074D01*
X12548629Y-11143074D02*
X12548629Y-11190693D01*
X12548629Y-11190693D02*
X12539105Y-11228788D01*
X12539105Y-11228788D02*
X12529582Y-11247836D01*
X12529582Y-11247836D02*
X12520058Y-11257360D01*
X12520058Y-11257360D02*
X12501010Y-11266884D01*
X12501010Y-11266884D02*
X12481962Y-11266884D01*
X12481962Y-11266884D02*
X12462915Y-11257360D01*
X12462915Y-11257360D02*
X12453391Y-11247836D01*
X12453391Y-11247836D02*
X12443867Y-11228788D01*
X12443867Y-11228788D02*
X12434343Y-11190693D01*
X12434343Y-11190693D02*
X12434343Y-11143074D01*
X12434343Y-11143074D02*
X12443867Y-11104979D01*
X12443867Y-11104979D02*
X12453391Y-11085931D01*
X12453391Y-11085931D02*
X12462915Y-11076408D01*
X12462915Y-11076408D02*
X12481962Y-11066884D01*
X12672439Y-11066884D02*
X12691486Y-11066884D01*
X12691486Y-11066884D02*
X12710534Y-11076408D01*
X12710534Y-11076408D02*
X12720058Y-11085931D01*
X12720058Y-11085931D02*
X12729582Y-11104979D01*
X12729582Y-11104979D02*
X12739105Y-11143074D01*
X12739105Y-11143074D02*
X12739105Y-11190693D01*
X12739105Y-11190693D02*
X12729582Y-11228788D01*
X12729582Y-11228788D02*
X12720058Y-11247836D01*
X12720058Y-11247836D02*
X12710534Y-11257360D01*
X12710534Y-11257360D02*
X12691486Y-11266884D01*
X12691486Y-11266884D02*
X12672439Y-11266884D01*
X12672439Y-11266884D02*
X12653391Y-11257360D01*
X12653391Y-11257360D02*
X12643867Y-11247836D01*
X12643867Y-11247836D02*
X12634343Y-11228788D01*
X12634343Y-11228788D02*
X12624820Y-11190693D01*
X12624820Y-11190693D02*
X12624820Y-11143074D01*
X12624820Y-11143074D02*
X12634343Y-11104979D01*
X12634343Y-11104979D02*
X12643867Y-11085931D01*
X12643867Y-11085931D02*
X12653391Y-11076408D01*
X12653391Y-11076408D02*
X12672439Y-11066884D01*
X12824820Y-11266884D02*
X12824820Y-11133550D01*
X12824820Y-11152598D02*
X12834343Y-11143074D01*
X12834343Y-11143074D02*
X12853391Y-11133550D01*
X12853391Y-11133550D02*
X12881963Y-11133550D01*
X12881963Y-11133550D02*
X12901010Y-11143074D01*
X12901010Y-11143074D02*
X12910534Y-11162122D01*
X12910534Y-11162122D02*
X12910534Y-11266884D01*
X12910534Y-11162122D02*
X12920058Y-11143074D01*
X12920058Y-11143074D02*
X12939105Y-11133550D01*
X12939105Y-11133550D02*
X12967677Y-11133550D01*
X12967677Y-11133550D02*
X12986724Y-11143074D01*
X12986724Y-11143074D02*
X12996248Y-11162122D01*
X12996248Y-11162122D02*
X12996248Y-11266884D01*
X13091486Y-11266884D02*
X13091486Y-11133550D01*
X13091486Y-11152598D02*
X13101010Y-11143074D01*
X13101010Y-11143074D02*
X13120058Y-11133550D01*
X13120058Y-11133550D02*
X13148629Y-11133550D01*
X13148629Y-11133550D02*
X13167677Y-11143074D01*
X13167677Y-11143074D02*
X13177201Y-11162122D01*
X13177201Y-11162122D02*
X13177201Y-11266884D01*
X13177201Y-11162122D02*
X13186724Y-11143074D01*
X13186724Y-11143074D02*
X13205772Y-11133550D01*
X13205772Y-11133550D02*
X13234343Y-11133550D01*
X13234343Y-11133550D02*
X13253391Y-11143074D01*
X13253391Y-11143074D02*
X13262915Y-11162122D01*
X13262915Y-11162122D02*
X13262915Y-11266884D01*
X13653391Y-11057360D02*
X13481963Y-11314503D01*
X13910534Y-11066884D02*
X13929582Y-11066884D01*
X13929582Y-11066884D02*
X13948629Y-11076408D01*
X13948629Y-11076408D02*
X13958153Y-11085931D01*
X13958153Y-11085931D02*
X13967677Y-11104979D01*
X13967677Y-11104979D02*
X13977201Y-11143074D01*
X13977201Y-11143074D02*
X13977201Y-11190693D01*
X13977201Y-11190693D02*
X13967677Y-11228788D01*
X13967677Y-11228788D02*
X13958153Y-11247836D01*
X13958153Y-11247836D02*
X13948629Y-11257360D01*
X13948629Y-11257360D02*
X13929582Y-11266884D01*
X13929582Y-11266884D02*
X13910534Y-11266884D01*
X13910534Y-11266884D02*
X13891486Y-11257360D01*
X13891486Y-11257360D02*
X13881963Y-11247836D01*
X13881963Y-11247836D02*
X13872439Y-11228788D01*
X13872439Y-11228788D02*
X13862915Y-11190693D01*
X13862915Y-11190693D02*
X13862915Y-11143074D01*
X13862915Y-11143074D02*
X13872439Y-11104979D01*
X13872439Y-11104979D02*
X13881963Y-11085931D01*
X13881963Y-11085931D02*
X13891486Y-11076408D01*
X13891486Y-11076408D02*
X13910534Y-11066884D01*
X14062915Y-11247836D02*
X14072439Y-11257360D01*
X14072439Y-11257360D02*
X14062915Y-11266884D01*
X14062915Y-11266884D02*
X14053391Y-11257360D01*
X14053391Y-11257360D02*
X14062915Y-11247836D01*
X14062915Y-11247836D02*
X14062915Y-11266884D01*
X14196248Y-11066884D02*
X14215296Y-11066884D01*
X14215296Y-11066884D02*
X14234344Y-11076408D01*
X14234344Y-11076408D02*
X14243867Y-11085931D01*
X14243867Y-11085931D02*
X14253391Y-11104979D01*
X14253391Y-11104979D02*
X14262915Y-11143074D01*
X14262915Y-11143074D02*
X14262915Y-11190693D01*
X14262915Y-11190693D02*
X14253391Y-11228788D01*
X14253391Y-11228788D02*
X14243867Y-11247836D01*
X14243867Y-11247836D02*
X14234344Y-11257360D01*
X14234344Y-11257360D02*
X14215296Y-11266884D01*
X14215296Y-11266884D02*
X14196248Y-11266884D01*
X14196248Y-11266884D02*
X14177201Y-11257360D01*
X14177201Y-11257360D02*
X14167677Y-11247836D01*
X14167677Y-11247836D02*
X14158153Y-11228788D01*
X14158153Y-11228788D02*
X14148629Y-11190693D01*
X14148629Y-11190693D02*
X14148629Y-11143074D01*
X14148629Y-11143074D02*
X14158153Y-11104979D01*
X14158153Y-11104979D02*
X14167677Y-11085931D01*
X14167677Y-11085931D02*
X14177201Y-11076408D01*
X14177201Y-11076408D02*
X14196248Y-11066884D01*
X14339106Y-11085931D02*
X14348629Y-11076408D01*
X14348629Y-11076408D02*
X14367677Y-11066884D01*
X14367677Y-11066884D02*
X14415296Y-11066884D01*
X14415296Y-11066884D02*
X14434344Y-11076408D01*
X14434344Y-11076408D02*
X14443867Y-11085931D01*
X14443867Y-11085931D02*
X14453391Y-11104979D01*
X14453391Y-11104979D02*
X14453391Y-11124027D01*
X14453391Y-11124027D02*
X14443867Y-11152598D01*
X14443867Y-11152598D02*
X14329582Y-11266884D01*
X14329582Y-11266884D02*
X14453391Y-11266884D01*
X14520058Y-11066884D02*
X14653391Y-11066884D01*
X14653391Y-11066884D02*
X14567677Y-11266884D01*
X14815296Y-11066884D02*
X14777201Y-11066884D01*
X14777201Y-11066884D02*
X14758153Y-11076408D01*
X14758153Y-11076408D02*
X14748629Y-11085931D01*
X14748629Y-11085931D02*
X14729582Y-11114503D01*
X14729582Y-11114503D02*
X14720058Y-11152598D01*
X14720058Y-11152598D02*
X14720058Y-11228788D01*
X14720058Y-11228788D02*
X14729582Y-11247836D01*
X14729582Y-11247836D02*
X14739106Y-11257360D01*
X14739106Y-11257360D02*
X14758153Y-11266884D01*
X14758153Y-11266884D02*
X14796248Y-11266884D01*
X14796248Y-11266884D02*
X14815296Y-11257360D01*
X14815296Y-11257360D02*
X14824820Y-11247836D01*
X14824820Y-11247836D02*
X14834344Y-11228788D01*
X14834344Y-11228788D02*
X14834344Y-11181170D01*
X14834344Y-11181170D02*
X14824820Y-11162122D01*
X14824820Y-11162122D02*
X14815296Y-11152598D01*
X14815296Y-11152598D02*
X14796248Y-11143074D01*
X14796248Y-11143074D02*
X14758153Y-11143074D01*
X14758153Y-11143074D02*
X14739106Y-11152598D01*
X14739106Y-11152598D02*
X14729582Y-11162122D01*
X14729582Y-11162122D02*
X14720058Y-11181170D01*
X14910534Y-11066884D02*
X14910534Y-11104979D01*
X14986725Y-11066884D02*
X14986725Y-11104979D01*
X15281963Y-11343074D02*
X15272439Y-11333550D01*
X15272439Y-11333550D02*
X15253391Y-11304979D01*
X15253391Y-11304979D02*
X15243868Y-11285931D01*
X15243868Y-11285931D02*
X15234344Y-11257360D01*
X15234344Y-11257360D02*
X15224820Y-11209741D01*
X15224820Y-11209741D02*
X15224820Y-11171646D01*
X15224820Y-11171646D02*
X15234344Y-11124027D01*
X15234344Y-11124027D02*
X15243868Y-11095455D01*
X15243868Y-11095455D02*
X15253391Y-11076408D01*
X15253391Y-11076408D02*
X15272439Y-11047836D01*
X15272439Y-11047836D02*
X15281963Y-11038312D01*
X15367677Y-11266884D02*
X15405772Y-11266884D01*
X15405772Y-11266884D02*
X15424820Y-11257360D01*
X15424820Y-11257360D02*
X15434344Y-11247836D01*
X15434344Y-11247836D02*
X15453391Y-11219265D01*
X15453391Y-11219265D02*
X15462915Y-11181170D01*
X15462915Y-11181170D02*
X15462915Y-11104979D01*
X15462915Y-11104979D02*
X15453391Y-11085931D01*
X15453391Y-11085931D02*
X15443868Y-11076408D01*
X15443868Y-11076408D02*
X15424820Y-11066884D01*
X15424820Y-11066884D02*
X15386725Y-11066884D01*
X15386725Y-11066884D02*
X15367677Y-11076408D01*
X15367677Y-11076408D02*
X15358153Y-11085931D01*
X15358153Y-11085931D02*
X15348629Y-11104979D01*
X15348629Y-11104979D02*
X15348629Y-11152598D01*
X15348629Y-11152598D02*
X15358153Y-11171646D01*
X15358153Y-11171646D02*
X15367677Y-11181170D01*
X15367677Y-11181170D02*
X15386725Y-11190693D01*
X15386725Y-11190693D02*
X15424820Y-11190693D01*
X15424820Y-11190693D02*
X15443868Y-11181170D01*
X15443868Y-11181170D02*
X15453391Y-11171646D01*
X15453391Y-11171646D02*
X15462915Y-11152598D01*
X15701010Y-11266884D02*
X15701010Y-11066884D01*
X15786725Y-11266884D02*
X15786725Y-11162122D01*
X15786725Y-11162122D02*
X15777201Y-11143074D01*
X15777201Y-11143074D02*
X15758153Y-11133550D01*
X15758153Y-11133550D02*
X15729582Y-11133550D01*
X15729582Y-11133550D02*
X15710534Y-11143074D01*
X15710534Y-11143074D02*
X15701010Y-11152598D01*
X15910534Y-11266884D02*
X15891487Y-11257360D01*
X15891487Y-11257360D02*
X15881963Y-11247836D01*
X15881963Y-11247836D02*
X15872439Y-11228788D01*
X15872439Y-11228788D02*
X15872439Y-11171646D01*
X15872439Y-11171646D02*
X15881963Y-11152598D01*
X15881963Y-11152598D02*
X15891487Y-11143074D01*
X15891487Y-11143074D02*
X15910534Y-11133550D01*
X15910534Y-11133550D02*
X15939106Y-11133550D01*
X15939106Y-11133550D02*
X15958153Y-11143074D01*
X15958153Y-11143074D02*
X15967677Y-11152598D01*
X15967677Y-11152598D02*
X15977201Y-11171646D01*
X15977201Y-11171646D02*
X15977201Y-11228788D01*
X15977201Y-11228788D02*
X15967677Y-11247836D01*
X15967677Y-11247836D02*
X15958153Y-11257360D01*
X15958153Y-11257360D02*
X15939106Y-11266884D01*
X15939106Y-11266884D02*
X15910534Y-11266884D01*
X16091487Y-11266884D02*
X16072439Y-11257360D01*
X16072439Y-11257360D02*
X16062915Y-11238312D01*
X16062915Y-11238312D02*
X16062915Y-11066884D01*
X16243868Y-11257360D02*
X16224820Y-11266884D01*
X16224820Y-11266884D02*
X16186725Y-11266884D01*
X16186725Y-11266884D02*
X16167677Y-11257360D01*
X16167677Y-11257360D02*
X16158153Y-11238312D01*
X16158153Y-11238312D02*
X16158153Y-11162122D01*
X16158153Y-11162122D02*
X16167677Y-11143074D01*
X16167677Y-11143074D02*
X16186725Y-11133550D01*
X16186725Y-11133550D02*
X16224820Y-11133550D01*
X16224820Y-11133550D02*
X16243868Y-11143074D01*
X16243868Y-11143074D02*
X16253391Y-11162122D01*
X16253391Y-11162122D02*
X16253391Y-11181170D01*
X16253391Y-11181170D02*
X16158153Y-11200217D01*
X16329582Y-11257360D02*
X16348630Y-11266884D01*
X16348630Y-11266884D02*
X16386725Y-11266884D01*
X16386725Y-11266884D02*
X16405772Y-11257360D01*
X16405772Y-11257360D02*
X16415296Y-11238312D01*
X16415296Y-11238312D02*
X16415296Y-11228788D01*
X16415296Y-11228788D02*
X16405772Y-11209741D01*
X16405772Y-11209741D02*
X16386725Y-11200217D01*
X16386725Y-11200217D02*
X16358153Y-11200217D01*
X16358153Y-11200217D02*
X16339106Y-11190693D01*
X16339106Y-11190693D02*
X16329582Y-11171646D01*
X16329582Y-11171646D02*
X16329582Y-11162122D01*
X16329582Y-11162122D02*
X16339106Y-11143074D01*
X16339106Y-11143074D02*
X16358153Y-11133550D01*
X16358153Y-11133550D02*
X16386725Y-11133550D01*
X16386725Y-11133550D02*
X16405772Y-11143074D01*
X16481963Y-11343074D02*
X16491487Y-11333550D01*
X16491487Y-11333550D02*
X16510534Y-11304979D01*
X16510534Y-11304979D02*
X16520058Y-11285931D01*
X16520058Y-11285931D02*
X16529582Y-11257360D01*
X16529582Y-11257360D02*
X16539106Y-11209741D01*
X16539106Y-11209741D02*
X16539106Y-11171646D01*
X16539106Y-11171646D02*
X16529582Y-11124027D01*
X16529582Y-11124027D02*
X16520058Y-11095455D01*
X16520058Y-11095455D02*
X16510534Y-11076408D01*
X16510534Y-11076408D02*
X16491487Y-11047836D01*
X16491487Y-11047836D02*
X16481963Y-11038312D01*
D13*
X11647400Y-11498900D02*
X11706900Y-11439400D01*
X11647400Y-11379900D01*
X11587900Y-11439400D01*
X11647400Y-11498900D01*
D11*
X12072439Y-11530884D02*
X11958153Y-11530884D01*
X12015296Y-11530884D02*
X12015296Y-11330884D01*
X12015296Y-11330884D02*
X11996248Y-11359455D01*
X11996248Y-11359455D02*
X11977201Y-11378503D01*
X11977201Y-11378503D02*
X11958153Y-11388027D01*
X12158153Y-11511836D02*
X12167677Y-11521360D01*
X12167677Y-11521360D02*
X12158153Y-11530884D01*
X12158153Y-11530884D02*
X12148629Y-11521360D01*
X12148629Y-11521360D02*
X12158153Y-11511836D01*
X12158153Y-11511836D02*
X12158153Y-11530884D01*
X12358153Y-11530884D02*
X12243867Y-11530884D01*
X12301010Y-11530884D02*
X12301010Y-11330884D01*
X12301010Y-11330884D02*
X12281962Y-11359455D01*
X12281962Y-11359455D02*
X12262915Y-11378503D01*
X12262915Y-11378503D02*
X12243867Y-11388027D01*
X12453391Y-11530884D02*
X12491486Y-11530884D01*
X12491486Y-11530884D02*
X12510534Y-11521360D01*
X12510534Y-11521360D02*
X12520058Y-11511836D01*
X12520058Y-11511836D02*
X12539105Y-11483265D01*
X12539105Y-11483265D02*
X12548629Y-11445169D01*
X12548629Y-11445169D02*
X12548629Y-11368979D01*
X12548629Y-11368979D02*
X12539105Y-11349931D01*
X12539105Y-11349931D02*
X12529582Y-11340408D01*
X12529582Y-11340408D02*
X12510534Y-11330884D01*
X12510534Y-11330884D02*
X12472439Y-11330884D01*
X12472439Y-11330884D02*
X12453391Y-11340408D01*
X12453391Y-11340408D02*
X12443867Y-11349931D01*
X12443867Y-11349931D02*
X12434343Y-11368979D01*
X12434343Y-11368979D02*
X12434343Y-11416598D01*
X12434343Y-11416598D02*
X12443867Y-11435646D01*
X12443867Y-11435646D02*
X12453391Y-11445169D01*
X12453391Y-11445169D02*
X12472439Y-11454693D01*
X12472439Y-11454693D02*
X12510534Y-11454693D01*
X12510534Y-11454693D02*
X12529582Y-11445169D01*
X12529582Y-11445169D02*
X12539105Y-11435646D01*
X12539105Y-11435646D02*
X12548629Y-11416598D01*
X12672439Y-11330884D02*
X12691486Y-11330884D01*
X12691486Y-11330884D02*
X12710534Y-11340408D01*
X12710534Y-11340408D02*
X12720058Y-11349931D01*
X12720058Y-11349931D02*
X12729582Y-11368979D01*
X12729582Y-11368979D02*
X12739105Y-11407074D01*
X12739105Y-11407074D02*
X12739105Y-11454693D01*
X12739105Y-11454693D02*
X12729582Y-11492788D01*
X12729582Y-11492788D02*
X12720058Y-11511836D01*
X12720058Y-11511836D02*
X12710534Y-11521360D01*
X12710534Y-11521360D02*
X12691486Y-11530884D01*
X12691486Y-11530884D02*
X12672439Y-11530884D01*
X12672439Y-11530884D02*
X12653391Y-11521360D01*
X12653391Y-11521360D02*
X12643867Y-11511836D01*
X12643867Y-11511836D02*
X12634343Y-11492788D01*
X12634343Y-11492788D02*
X12624820Y-11454693D01*
X12624820Y-11454693D02*
X12624820Y-11407074D01*
X12624820Y-11407074D02*
X12634343Y-11368979D01*
X12634343Y-11368979D02*
X12643867Y-11349931D01*
X12643867Y-11349931D02*
X12653391Y-11340408D01*
X12653391Y-11340408D02*
X12672439Y-11330884D01*
X12824820Y-11530884D02*
X12824820Y-11397550D01*
X12824820Y-11416598D02*
X12834343Y-11407074D01*
X12834343Y-11407074D02*
X12853391Y-11397550D01*
X12853391Y-11397550D02*
X12881963Y-11397550D01*
X12881963Y-11397550D02*
X12901010Y-11407074D01*
X12901010Y-11407074D02*
X12910534Y-11426122D01*
X12910534Y-11426122D02*
X12910534Y-11530884D01*
X12910534Y-11426122D02*
X12920058Y-11407074D01*
X12920058Y-11407074D02*
X12939105Y-11397550D01*
X12939105Y-11397550D02*
X12967677Y-11397550D01*
X12967677Y-11397550D02*
X12986724Y-11407074D01*
X12986724Y-11407074D02*
X12996248Y-11426122D01*
X12996248Y-11426122D02*
X12996248Y-11530884D01*
X13091486Y-11530884D02*
X13091486Y-11397550D01*
X13091486Y-11416598D02*
X13101010Y-11407074D01*
X13101010Y-11407074D02*
X13120058Y-11397550D01*
X13120058Y-11397550D02*
X13148629Y-11397550D01*
X13148629Y-11397550D02*
X13167677Y-11407074D01*
X13167677Y-11407074D02*
X13177201Y-11426122D01*
X13177201Y-11426122D02*
X13177201Y-11530884D01*
X13177201Y-11426122D02*
X13186724Y-11407074D01*
X13186724Y-11407074D02*
X13205772Y-11397550D01*
X13205772Y-11397550D02*
X13234343Y-11397550D01*
X13234343Y-11397550D02*
X13253391Y-11407074D01*
X13253391Y-11407074D02*
X13262915Y-11426122D01*
X13262915Y-11426122D02*
X13262915Y-11530884D01*
X13653391Y-11321360D02*
X13481963Y-11578503D01*
X13910534Y-11330884D02*
X13929582Y-11330884D01*
X13929582Y-11330884D02*
X13948629Y-11340408D01*
X13948629Y-11340408D02*
X13958153Y-11349931D01*
X13958153Y-11349931D02*
X13967677Y-11368979D01*
X13967677Y-11368979D02*
X13977201Y-11407074D01*
X13977201Y-11407074D02*
X13977201Y-11454693D01*
X13977201Y-11454693D02*
X13967677Y-11492788D01*
X13967677Y-11492788D02*
X13958153Y-11511836D01*
X13958153Y-11511836D02*
X13948629Y-11521360D01*
X13948629Y-11521360D02*
X13929582Y-11530884D01*
X13929582Y-11530884D02*
X13910534Y-11530884D01*
X13910534Y-11530884D02*
X13891486Y-11521360D01*
X13891486Y-11521360D02*
X13881963Y-11511836D01*
X13881963Y-11511836D02*
X13872439Y-11492788D01*
X13872439Y-11492788D02*
X13862915Y-11454693D01*
X13862915Y-11454693D02*
X13862915Y-11407074D01*
X13862915Y-11407074D02*
X13872439Y-11368979D01*
X13872439Y-11368979D02*
X13881963Y-11349931D01*
X13881963Y-11349931D02*
X13891486Y-11340408D01*
X13891486Y-11340408D02*
X13910534Y-11330884D01*
X14062915Y-11511836D02*
X14072439Y-11521360D01*
X14072439Y-11521360D02*
X14062915Y-11530884D01*
X14062915Y-11530884D02*
X14053391Y-11521360D01*
X14053391Y-11521360D02*
X14062915Y-11511836D01*
X14062915Y-11511836D02*
X14062915Y-11530884D01*
X14196248Y-11330884D02*
X14215296Y-11330884D01*
X14215296Y-11330884D02*
X14234344Y-11340408D01*
X14234344Y-11340408D02*
X14243867Y-11349931D01*
X14243867Y-11349931D02*
X14253391Y-11368979D01*
X14253391Y-11368979D02*
X14262915Y-11407074D01*
X14262915Y-11407074D02*
X14262915Y-11454693D01*
X14262915Y-11454693D02*
X14253391Y-11492788D01*
X14253391Y-11492788D02*
X14243867Y-11511836D01*
X14243867Y-11511836D02*
X14234344Y-11521360D01*
X14234344Y-11521360D02*
X14215296Y-11530884D01*
X14215296Y-11530884D02*
X14196248Y-11530884D01*
X14196248Y-11530884D02*
X14177201Y-11521360D01*
X14177201Y-11521360D02*
X14167677Y-11511836D01*
X14167677Y-11511836D02*
X14158153Y-11492788D01*
X14158153Y-11492788D02*
X14148629Y-11454693D01*
X14148629Y-11454693D02*
X14148629Y-11407074D01*
X14148629Y-11407074D02*
X14158153Y-11368979D01*
X14158153Y-11368979D02*
X14167677Y-11349931D01*
X14167677Y-11349931D02*
X14177201Y-11340408D01*
X14177201Y-11340408D02*
X14196248Y-11330884D01*
X14434344Y-11397550D02*
X14434344Y-11530884D01*
X14386725Y-11321360D02*
X14339106Y-11464217D01*
X14339106Y-11464217D02*
X14462915Y-11464217D01*
X14624820Y-11330884D02*
X14586725Y-11330884D01*
X14586725Y-11330884D02*
X14567677Y-11340408D01*
X14567677Y-11340408D02*
X14558153Y-11349931D01*
X14558153Y-11349931D02*
X14539106Y-11378503D01*
X14539106Y-11378503D02*
X14529582Y-11416598D01*
X14529582Y-11416598D02*
X14529582Y-11492788D01*
X14529582Y-11492788D02*
X14539106Y-11511836D01*
X14539106Y-11511836D02*
X14548629Y-11521360D01*
X14548629Y-11521360D02*
X14567677Y-11530884D01*
X14567677Y-11530884D02*
X14605772Y-11530884D01*
X14605772Y-11530884D02*
X14624820Y-11521360D01*
X14624820Y-11521360D02*
X14634344Y-11511836D01*
X14634344Y-11511836D02*
X14643867Y-11492788D01*
X14643867Y-11492788D02*
X14643867Y-11445169D01*
X14643867Y-11445169D02*
X14634344Y-11426122D01*
X14634344Y-11426122D02*
X14624820Y-11416598D01*
X14624820Y-11416598D02*
X14605772Y-11407074D01*
X14605772Y-11407074D02*
X14567677Y-11407074D01*
X14567677Y-11407074D02*
X14548629Y-11416598D01*
X14548629Y-11416598D02*
X14539106Y-11426122D01*
X14539106Y-11426122D02*
X14529582Y-11445169D01*
X14739106Y-11530884D02*
X14777201Y-11530884D01*
X14777201Y-11530884D02*
X14796248Y-11521360D01*
X14796248Y-11521360D02*
X14805772Y-11511836D01*
X14805772Y-11511836D02*
X14824820Y-11483265D01*
X14824820Y-11483265D02*
X14834344Y-11445169D01*
X14834344Y-11445169D02*
X14834344Y-11368979D01*
X14834344Y-11368979D02*
X14824820Y-11349931D01*
X14824820Y-11349931D02*
X14815296Y-11340408D01*
X14815296Y-11340408D02*
X14796248Y-11330884D01*
X14796248Y-11330884D02*
X14758153Y-11330884D01*
X14758153Y-11330884D02*
X14739106Y-11340408D01*
X14739106Y-11340408D02*
X14729582Y-11349931D01*
X14729582Y-11349931D02*
X14720058Y-11368979D01*
X14720058Y-11368979D02*
X14720058Y-11416598D01*
X14720058Y-11416598D02*
X14729582Y-11435646D01*
X14729582Y-11435646D02*
X14739106Y-11445169D01*
X14739106Y-11445169D02*
X14758153Y-11454693D01*
X14758153Y-11454693D02*
X14796248Y-11454693D01*
X14796248Y-11454693D02*
X14815296Y-11445169D01*
X14815296Y-11445169D02*
X14824820Y-11435646D01*
X14824820Y-11435646D02*
X14834344Y-11416598D01*
X14910534Y-11330884D02*
X14910534Y-11368979D01*
X14986725Y-11330884D02*
X14986725Y-11368979D01*
X15281963Y-11607074D02*
X15272439Y-11597550D01*
X15272439Y-11597550D02*
X15253391Y-11568979D01*
X15253391Y-11568979D02*
X15243868Y-11549931D01*
X15243868Y-11549931D02*
X15234344Y-11521360D01*
X15234344Y-11521360D02*
X15224820Y-11473741D01*
X15224820Y-11473741D02*
X15224820Y-11435646D01*
X15224820Y-11435646D02*
X15234344Y-11388027D01*
X15234344Y-11388027D02*
X15243868Y-11359455D01*
X15243868Y-11359455D02*
X15253391Y-11340408D01*
X15253391Y-11340408D02*
X15272439Y-11311836D01*
X15272439Y-11311836D02*
X15281963Y-11302312D01*
X15462915Y-11530884D02*
X15348629Y-11530884D01*
X15405772Y-11530884D02*
X15405772Y-11330884D01*
X15405772Y-11330884D02*
X15386725Y-11359455D01*
X15386725Y-11359455D02*
X15367677Y-11378503D01*
X15367677Y-11378503D02*
X15348629Y-11388027D01*
X15634344Y-11330884D02*
X15596248Y-11330884D01*
X15596248Y-11330884D02*
X15577201Y-11340408D01*
X15577201Y-11340408D02*
X15567677Y-11349931D01*
X15567677Y-11349931D02*
X15548629Y-11378503D01*
X15548629Y-11378503D02*
X15539106Y-11416598D01*
X15539106Y-11416598D02*
X15539106Y-11492788D01*
X15539106Y-11492788D02*
X15548629Y-11511836D01*
X15548629Y-11511836D02*
X15558153Y-11521360D01*
X15558153Y-11521360D02*
X15577201Y-11530884D01*
X15577201Y-11530884D02*
X15615296Y-11530884D01*
X15615296Y-11530884D02*
X15634344Y-11521360D01*
X15634344Y-11521360D02*
X15643868Y-11511836D01*
X15643868Y-11511836D02*
X15653391Y-11492788D01*
X15653391Y-11492788D02*
X15653391Y-11445169D01*
X15653391Y-11445169D02*
X15643868Y-11426122D01*
X15643868Y-11426122D02*
X15634344Y-11416598D01*
X15634344Y-11416598D02*
X15615296Y-11407074D01*
X15615296Y-11407074D02*
X15577201Y-11407074D01*
X15577201Y-11407074D02*
X15558153Y-11416598D01*
X15558153Y-11416598D02*
X15548629Y-11426122D01*
X15548629Y-11426122D02*
X15539106Y-11445169D01*
X15891487Y-11530884D02*
X15891487Y-11330884D01*
X15977201Y-11530884D02*
X15977201Y-11426122D01*
X15977201Y-11426122D02*
X15967677Y-11407074D01*
X15967677Y-11407074D02*
X15948630Y-11397550D01*
X15948630Y-11397550D02*
X15920058Y-11397550D01*
X15920058Y-11397550D02*
X15901010Y-11407074D01*
X15901010Y-11407074D02*
X15891487Y-11416598D01*
X16101010Y-11530884D02*
X16081963Y-11521360D01*
X16081963Y-11521360D02*
X16072439Y-11511836D01*
X16072439Y-11511836D02*
X16062915Y-11492788D01*
X16062915Y-11492788D02*
X16062915Y-11435646D01*
X16062915Y-11435646D02*
X16072439Y-11416598D01*
X16072439Y-11416598D02*
X16081963Y-11407074D01*
X16081963Y-11407074D02*
X16101010Y-11397550D01*
X16101010Y-11397550D02*
X16129582Y-11397550D01*
X16129582Y-11397550D02*
X16148630Y-11407074D01*
X16148630Y-11407074D02*
X16158153Y-11416598D01*
X16158153Y-11416598D02*
X16167677Y-11435646D01*
X16167677Y-11435646D02*
X16167677Y-11492788D01*
X16167677Y-11492788D02*
X16158153Y-11511836D01*
X16158153Y-11511836D02*
X16148630Y-11521360D01*
X16148630Y-11521360D02*
X16129582Y-11530884D01*
X16129582Y-11530884D02*
X16101010Y-11530884D01*
X16281963Y-11530884D02*
X16262915Y-11521360D01*
X16262915Y-11521360D02*
X16253391Y-11502312D01*
X16253391Y-11502312D02*
X16253391Y-11330884D01*
X16434344Y-11521360D02*
X16415296Y-11530884D01*
X16415296Y-11530884D02*
X16377201Y-11530884D01*
X16377201Y-11530884D02*
X16358153Y-11521360D01*
X16358153Y-11521360D02*
X16348630Y-11502312D01*
X16348630Y-11502312D02*
X16348630Y-11426122D01*
X16348630Y-11426122D02*
X16358153Y-11407074D01*
X16358153Y-11407074D02*
X16377201Y-11397550D01*
X16377201Y-11397550D02*
X16415296Y-11397550D01*
X16415296Y-11397550D02*
X16434344Y-11407074D01*
X16434344Y-11407074D02*
X16443868Y-11426122D01*
X16443868Y-11426122D02*
X16443868Y-11445169D01*
X16443868Y-11445169D02*
X16348630Y-11464217D01*
X16520058Y-11521360D02*
X16539106Y-11530884D01*
X16539106Y-11530884D02*
X16577201Y-11530884D01*
X16577201Y-11530884D02*
X16596249Y-11521360D01*
X16596249Y-11521360D02*
X16605772Y-11502312D01*
X16605772Y-11502312D02*
X16605772Y-11492788D01*
X16605772Y-11492788D02*
X16596249Y-11473741D01*
X16596249Y-11473741D02*
X16577201Y-11464217D01*
X16577201Y-11464217D02*
X16548630Y-11464217D01*
X16548630Y-11464217D02*
X16529582Y-11454693D01*
X16529582Y-11454693D02*
X16520058Y-11435646D01*
X16520058Y-11435646D02*
X16520058Y-11426122D01*
X16520058Y-11426122D02*
X16529582Y-11407074D01*
X16529582Y-11407074D02*
X16548630Y-11397550D01*
X16548630Y-11397550D02*
X16577201Y-11397550D01*
X16577201Y-11397550D02*
X16596249Y-11407074D01*
X16672439Y-11607074D02*
X16681963Y-11597550D01*
X16681963Y-11597550D02*
X16701011Y-11568979D01*
X16701011Y-11568979D02*
X16710534Y-11549931D01*
X16710534Y-11549931D02*
X16720058Y-11521360D01*
X16720058Y-11521360D02*
X16729582Y-11473741D01*
X16729582Y-11473741D02*
X16729582Y-11435646D01*
X16729582Y-11435646D02*
X16720058Y-11388027D01*
X16720058Y-11388027D02*
X16710534Y-11359455D01*
X16710534Y-11359455D02*
X16701011Y-11340408D01*
X16701011Y-11340408D02*
X16681963Y-11311836D01*
X16681963Y-11311836D02*
X16672439Y-11302312D01*
M02*
