M48
; DRILL file {KiCad 8.0.5} date 2024-10-29T11:33:37-0500
; FORMAT={-:-/ absolute / inch / decimal}
; #@! TF.CreationDate,2024-10-29T11:33:37-05:00
; #@! TF.GenerationSoftware,Kicad,Pcbnew,8.0.5
; #@! TF.FileFunction,Plated,1,2,PTH
FMAT,2
INCH
; #@! TA.AperFunction,Plated,PTH,ComponentDrill
T1C0.0079
; #@! TA.AperFunction,Plated,PTH,ViaDrill
T2C0.0118
; #@! TA.AperFunction,Plated,PTH,ComponentDrill
T3C0.0236
; #@! TA.AperFunction,Plated,PTH,ComponentDrill
T4C0.0276
; #@! TA.AperFunction,Plated,PTH,ComponentDrill
T5C0.0469
%
G90
G05
T1
X2.9233Y-1.5564
X2.9233Y-1.6115
X2.9509Y-1.5288
X2.9509Y-1.5839
X2.9509Y-1.6391
X2.9785Y-1.5564
X2.9785Y-1.6115
X3.006Y-1.5288
X3.006Y-1.5839
X3.006Y-1.6391
X3.0336Y-1.5564
X3.0336Y-1.6115
T2
X2.018Y-1.78
X2.202Y-1.414
X2.256Y-1.542
X2.282Y-1.602
X2.282Y-1.654
X2.288Y-1.48
X2.29Y-1.43
X2.34Y-1.272
X2.516Y-1.912
X2.58Y-1.602
X2.58Y-1.654
X2.586Y-1.43
X2.586Y-1.48
X2.882Y-2.174
X3.102Y-2.178
X3.478Y-2.318
X3.48Y-1.48
X3.482Y-1.43
X3.812Y-1.83
X3.921Y-1.994
X4.052Y-2.612
X4.074Y-1.664
X4.078Y-1.778
X4.116Y-1.662
X4.2678Y-1.5482
X4.292Y-1.528
X4.46Y-2.684
X4.4622Y-2.0171
X4.464Y-2.322
X4.474Y-1.644
X4.598Y-1.692
X4.604Y-1.448
X4.818Y-1.872
X4.834Y-1.426
X4.91Y-1.348
X4.91Y-1.512
X4.93Y-1.64
X4.94Y-1.692
X4.956Y-1.608
X4.962Y-1.826
X5.154Y-1.474
T4
X3.723Y-1.8302
X3.723Y-1.8802
X3.723Y-1.9302
X4.048Y-1.896
X4.048Y-1.946
X4.048Y-1.996
X4.816Y-1.974
X4.866Y-1.974
X4.916Y-1.974
T5
X1.81Y-1.308
X1.81Y-1.408
X1.81Y-1.508
X1.81Y-1.608
X1.81Y-2.376
X1.81Y-2.476
X1.81Y-2.576
X1.81Y-2.676
X2.836Y-2.4168
X2.936Y-2.4168
X3.036Y-2.4168
X3.136Y-2.4168
X3.236Y-2.4168
X5.414Y-2.492
X5.414Y-2.592
X5.414Y-2.692
T3
G00X5.2418Y-1.4818
M15
G01X5.2851Y-1.4818
M16
G05
G00X5.2418Y-1.822
M15
G01X5.2851Y-1.822
M16
G05
G00X5.4162Y-1.4818
M15
G01X5.4398Y-1.4818
M16
G05
G00X5.4162Y-1.822
M15
G01X5.4398Y-1.822
M16
G05
M30
