%TF.GenerationSoftware,KiCad,Pcbnew,8.0.5*%
%TF.CreationDate,2024-10-29T11:33:28-05:00*%
%TF.ProjectId,golf_club_draft,676f6c66-5f63-46c7-9562-5f6472616674,rev?*%
%TF.SameCoordinates,Original*%
%TF.FileFunction,Legend,Top*%
%TF.FilePolarity,Positive*%
%FSLAX46Y46*%
G04 Gerber Fmt 4.6, Leading zero omitted, Abs format (unit mm)*
G04 Created by KiCad (PCBNEW 8.0.5) date 2024-10-29 11:33:28*
%MOMM*%
%LPD*%
G01*
G04 APERTURE LIST*
%ADD10C,0.100000*%
%ADD11C,0.150000*%
%ADD12C,0.120000*%
G04 APERTURE END LIST*
D10*
X90270684Y-33939731D02*
X90270684Y-32939731D01*
X90270684Y-32939731D02*
X90651636Y-32939731D01*
X90651636Y-32939731D02*
X90746874Y-32987350D01*
X90746874Y-32987350D02*
X90794493Y-33034969D01*
X90794493Y-33034969D02*
X90842112Y-33130207D01*
X90842112Y-33130207D02*
X90842112Y-33273064D01*
X90842112Y-33273064D02*
X90794493Y-33368302D01*
X90794493Y-33368302D02*
X90746874Y-33415921D01*
X90746874Y-33415921D02*
X90651636Y-33463540D01*
X90651636Y-33463540D02*
X90270684Y-33463540D01*
X91413541Y-33939731D02*
X91318303Y-33892112D01*
X91318303Y-33892112D02*
X91270684Y-33844492D01*
X91270684Y-33844492D02*
X91223065Y-33749254D01*
X91223065Y-33749254D02*
X91223065Y-33463540D01*
X91223065Y-33463540D02*
X91270684Y-33368302D01*
X91270684Y-33368302D02*
X91318303Y-33320683D01*
X91318303Y-33320683D02*
X91413541Y-33273064D01*
X91413541Y-33273064D02*
X91556398Y-33273064D01*
X91556398Y-33273064D02*
X91651636Y-33320683D01*
X91651636Y-33320683D02*
X91699255Y-33368302D01*
X91699255Y-33368302D02*
X91746874Y-33463540D01*
X91746874Y-33463540D02*
X91746874Y-33749254D01*
X91746874Y-33749254D02*
X91699255Y-33844492D01*
X91699255Y-33844492D02*
X91651636Y-33892112D01*
X91651636Y-33892112D02*
X91556398Y-33939731D01*
X91556398Y-33939731D02*
X91413541Y-33939731D01*
X92127827Y-33892112D02*
X92223065Y-33939731D01*
X92223065Y-33939731D02*
X92413541Y-33939731D01*
X92413541Y-33939731D02*
X92508779Y-33892112D01*
X92508779Y-33892112D02*
X92556398Y-33796873D01*
X92556398Y-33796873D02*
X92556398Y-33749254D01*
X92556398Y-33749254D02*
X92508779Y-33654016D01*
X92508779Y-33654016D02*
X92413541Y-33606397D01*
X92413541Y-33606397D02*
X92270684Y-33606397D01*
X92270684Y-33606397D02*
X92175446Y-33558778D01*
X92175446Y-33558778D02*
X92127827Y-33463540D01*
X92127827Y-33463540D02*
X92127827Y-33415921D01*
X92127827Y-33415921D02*
X92175446Y-33320683D01*
X92175446Y-33320683D02*
X92270684Y-33273064D01*
X92270684Y-33273064D02*
X92413541Y-33273064D01*
X92413541Y-33273064D02*
X92508779Y-33320683D01*
X92984970Y-33939731D02*
X92984970Y-33273064D01*
X92984970Y-32939731D02*
X92937351Y-32987350D01*
X92937351Y-32987350D02*
X92984970Y-33034969D01*
X92984970Y-33034969D02*
X93032589Y-32987350D01*
X93032589Y-32987350D02*
X92984970Y-32939731D01*
X92984970Y-32939731D02*
X92984970Y-33034969D01*
X93318303Y-33273064D02*
X93699255Y-33273064D01*
X93461160Y-32939731D02*
X93461160Y-33796873D01*
X93461160Y-33796873D02*
X93508779Y-33892112D01*
X93508779Y-33892112D02*
X93604017Y-33939731D01*
X93604017Y-33939731D02*
X93699255Y-33939731D01*
X94032589Y-33939731D02*
X94032589Y-33273064D01*
X94032589Y-32939731D02*
X93984970Y-32987350D01*
X93984970Y-32987350D02*
X94032589Y-33034969D01*
X94032589Y-33034969D02*
X94080208Y-32987350D01*
X94080208Y-32987350D02*
X94032589Y-32939731D01*
X94032589Y-32939731D02*
X94032589Y-33034969D01*
X94651636Y-33939731D02*
X94556398Y-33892112D01*
X94556398Y-33892112D02*
X94508779Y-33844492D01*
X94508779Y-33844492D02*
X94461160Y-33749254D01*
X94461160Y-33749254D02*
X94461160Y-33463540D01*
X94461160Y-33463540D02*
X94508779Y-33368302D01*
X94508779Y-33368302D02*
X94556398Y-33320683D01*
X94556398Y-33320683D02*
X94651636Y-33273064D01*
X94651636Y-33273064D02*
X94794493Y-33273064D01*
X94794493Y-33273064D02*
X94889731Y-33320683D01*
X94889731Y-33320683D02*
X94937350Y-33368302D01*
X94937350Y-33368302D02*
X94984969Y-33463540D01*
X94984969Y-33463540D02*
X94984969Y-33749254D01*
X94984969Y-33749254D02*
X94937350Y-33844492D01*
X94937350Y-33844492D02*
X94889731Y-33892112D01*
X94889731Y-33892112D02*
X94794493Y-33939731D01*
X94794493Y-33939731D02*
X94651636Y-33939731D01*
X95413541Y-33273064D02*
X95413541Y-33939731D01*
X95413541Y-33368302D02*
X95461160Y-33320683D01*
X95461160Y-33320683D02*
X95556398Y-33273064D01*
X95556398Y-33273064D02*
X95699255Y-33273064D01*
X95699255Y-33273064D02*
X95794493Y-33320683D01*
X95794493Y-33320683D02*
X95842112Y-33415921D01*
X95842112Y-33415921D02*
X95842112Y-33939731D01*
X96746874Y-33939731D02*
X96746874Y-33415921D01*
X96746874Y-33415921D02*
X96699255Y-33320683D01*
X96699255Y-33320683D02*
X96604017Y-33273064D01*
X96604017Y-33273064D02*
X96413541Y-33273064D01*
X96413541Y-33273064D02*
X96318303Y-33320683D01*
X96746874Y-33892112D02*
X96651636Y-33939731D01*
X96651636Y-33939731D02*
X96413541Y-33939731D01*
X96413541Y-33939731D02*
X96318303Y-33892112D01*
X96318303Y-33892112D02*
X96270684Y-33796873D01*
X96270684Y-33796873D02*
X96270684Y-33701635D01*
X96270684Y-33701635D02*
X96318303Y-33606397D01*
X96318303Y-33606397D02*
X96413541Y-33558778D01*
X96413541Y-33558778D02*
X96651636Y-33558778D01*
X96651636Y-33558778D02*
X96746874Y-33511159D01*
X97365922Y-33939731D02*
X97270684Y-33892112D01*
X97270684Y-33892112D02*
X97223065Y-33796873D01*
X97223065Y-33796873D02*
X97223065Y-32939731D01*
X99032589Y-32987350D02*
X98937351Y-32939731D01*
X98937351Y-32939731D02*
X98794494Y-32939731D01*
X98794494Y-32939731D02*
X98651637Y-32987350D01*
X98651637Y-32987350D02*
X98556399Y-33082588D01*
X98556399Y-33082588D02*
X98508780Y-33177826D01*
X98508780Y-33177826D02*
X98461161Y-33368302D01*
X98461161Y-33368302D02*
X98461161Y-33511159D01*
X98461161Y-33511159D02*
X98508780Y-33701635D01*
X98508780Y-33701635D02*
X98556399Y-33796873D01*
X98556399Y-33796873D02*
X98651637Y-33892112D01*
X98651637Y-33892112D02*
X98794494Y-33939731D01*
X98794494Y-33939731D02*
X98889732Y-33939731D01*
X98889732Y-33939731D02*
X99032589Y-33892112D01*
X99032589Y-33892112D02*
X99080208Y-33844492D01*
X99080208Y-33844492D02*
X99080208Y-33511159D01*
X99080208Y-33511159D02*
X98889732Y-33511159D01*
X99651637Y-33939731D02*
X99556399Y-33892112D01*
X99556399Y-33892112D02*
X99508780Y-33844492D01*
X99508780Y-33844492D02*
X99461161Y-33749254D01*
X99461161Y-33749254D02*
X99461161Y-33463540D01*
X99461161Y-33463540D02*
X99508780Y-33368302D01*
X99508780Y-33368302D02*
X99556399Y-33320683D01*
X99556399Y-33320683D02*
X99651637Y-33273064D01*
X99651637Y-33273064D02*
X99794494Y-33273064D01*
X99794494Y-33273064D02*
X99889732Y-33320683D01*
X99889732Y-33320683D02*
X99937351Y-33368302D01*
X99937351Y-33368302D02*
X99984970Y-33463540D01*
X99984970Y-33463540D02*
X99984970Y-33749254D01*
X99984970Y-33749254D02*
X99937351Y-33844492D01*
X99937351Y-33844492D02*
X99889732Y-33892112D01*
X99889732Y-33892112D02*
X99794494Y-33939731D01*
X99794494Y-33939731D02*
X99651637Y-33939731D01*
X100556399Y-33939731D02*
X100461161Y-33892112D01*
X100461161Y-33892112D02*
X100413542Y-33796873D01*
X100413542Y-33796873D02*
X100413542Y-32939731D01*
X100794495Y-33273064D02*
X101175447Y-33273064D01*
X100937352Y-33939731D02*
X100937352Y-33082588D01*
X100937352Y-33082588D02*
X100984971Y-32987350D01*
X100984971Y-32987350D02*
X101080209Y-32939731D01*
X101080209Y-32939731D02*
X101175447Y-32939731D01*
X102223067Y-33892112D02*
X102365924Y-33939731D01*
X102365924Y-33939731D02*
X102604019Y-33939731D01*
X102604019Y-33939731D02*
X102699257Y-33892112D01*
X102699257Y-33892112D02*
X102746876Y-33844492D01*
X102746876Y-33844492D02*
X102794495Y-33749254D01*
X102794495Y-33749254D02*
X102794495Y-33654016D01*
X102794495Y-33654016D02*
X102746876Y-33558778D01*
X102746876Y-33558778D02*
X102699257Y-33511159D01*
X102699257Y-33511159D02*
X102604019Y-33463540D01*
X102604019Y-33463540D02*
X102413543Y-33415921D01*
X102413543Y-33415921D02*
X102318305Y-33368302D01*
X102318305Y-33368302D02*
X102270686Y-33320683D01*
X102270686Y-33320683D02*
X102223067Y-33225445D01*
X102223067Y-33225445D02*
X102223067Y-33130207D01*
X102223067Y-33130207D02*
X102270686Y-33034969D01*
X102270686Y-33034969D02*
X102318305Y-32987350D01*
X102318305Y-32987350D02*
X102413543Y-32939731D01*
X102413543Y-32939731D02*
X102651638Y-32939731D01*
X102651638Y-32939731D02*
X102794495Y-32987350D01*
X103604019Y-33892112D02*
X103508781Y-33939731D01*
X103508781Y-33939731D02*
X103318305Y-33939731D01*
X103318305Y-33939731D02*
X103223067Y-33892112D01*
X103223067Y-33892112D02*
X103175448Y-33796873D01*
X103175448Y-33796873D02*
X103175448Y-33415921D01*
X103175448Y-33415921D02*
X103223067Y-33320683D01*
X103223067Y-33320683D02*
X103318305Y-33273064D01*
X103318305Y-33273064D02*
X103508781Y-33273064D01*
X103508781Y-33273064D02*
X103604019Y-33320683D01*
X103604019Y-33320683D02*
X103651638Y-33415921D01*
X103651638Y-33415921D02*
X103651638Y-33511159D01*
X103651638Y-33511159D02*
X103175448Y-33606397D01*
X104080210Y-33273064D02*
X104080210Y-33939731D01*
X104080210Y-33368302D02*
X104127829Y-33320683D01*
X104127829Y-33320683D02*
X104223067Y-33273064D01*
X104223067Y-33273064D02*
X104365924Y-33273064D01*
X104365924Y-33273064D02*
X104461162Y-33320683D01*
X104461162Y-33320683D02*
X104508781Y-33415921D01*
X104508781Y-33415921D02*
X104508781Y-33939731D01*
X104937353Y-33892112D02*
X105032591Y-33939731D01*
X105032591Y-33939731D02*
X105223067Y-33939731D01*
X105223067Y-33939731D02*
X105318305Y-33892112D01*
X105318305Y-33892112D02*
X105365924Y-33796873D01*
X105365924Y-33796873D02*
X105365924Y-33749254D01*
X105365924Y-33749254D02*
X105318305Y-33654016D01*
X105318305Y-33654016D02*
X105223067Y-33606397D01*
X105223067Y-33606397D02*
X105080210Y-33606397D01*
X105080210Y-33606397D02*
X104984972Y-33558778D01*
X104984972Y-33558778D02*
X104937353Y-33463540D01*
X104937353Y-33463540D02*
X104937353Y-33415921D01*
X104937353Y-33415921D02*
X104984972Y-33320683D01*
X104984972Y-33320683D02*
X105080210Y-33273064D01*
X105080210Y-33273064D02*
X105223067Y-33273064D01*
X105223067Y-33273064D02*
X105318305Y-33320683D01*
X105937353Y-33939731D02*
X105842115Y-33892112D01*
X105842115Y-33892112D02*
X105794496Y-33844492D01*
X105794496Y-33844492D02*
X105746877Y-33749254D01*
X105746877Y-33749254D02*
X105746877Y-33463540D01*
X105746877Y-33463540D02*
X105794496Y-33368302D01*
X105794496Y-33368302D02*
X105842115Y-33320683D01*
X105842115Y-33320683D02*
X105937353Y-33273064D01*
X105937353Y-33273064D02*
X106080210Y-33273064D01*
X106080210Y-33273064D02*
X106175448Y-33320683D01*
X106175448Y-33320683D02*
X106223067Y-33368302D01*
X106223067Y-33368302D02*
X106270686Y-33463540D01*
X106270686Y-33463540D02*
X106270686Y-33749254D01*
X106270686Y-33749254D02*
X106223067Y-33844492D01*
X106223067Y-33844492D02*
X106175448Y-33892112D01*
X106175448Y-33892112D02*
X106080210Y-33939731D01*
X106080210Y-33939731D02*
X105937353Y-33939731D01*
X106699258Y-33939731D02*
X106699258Y-33273064D01*
X106699258Y-33463540D02*
X106746877Y-33368302D01*
X106746877Y-33368302D02*
X106794496Y-33320683D01*
X106794496Y-33320683D02*
X106889734Y-33273064D01*
X106889734Y-33273064D02*
X106984972Y-33273064D01*
X107270687Y-33892112D02*
X107365925Y-33939731D01*
X107365925Y-33939731D02*
X107556401Y-33939731D01*
X107556401Y-33939731D02*
X107651639Y-33892112D01*
X107651639Y-33892112D02*
X107699258Y-33796873D01*
X107699258Y-33796873D02*
X107699258Y-33749254D01*
X107699258Y-33749254D02*
X107651639Y-33654016D01*
X107651639Y-33654016D02*
X107556401Y-33606397D01*
X107556401Y-33606397D02*
X107413544Y-33606397D01*
X107413544Y-33606397D02*
X107318306Y-33558778D01*
X107318306Y-33558778D02*
X107270687Y-33463540D01*
X107270687Y-33463540D02*
X107270687Y-33415921D01*
X107270687Y-33415921D02*
X107318306Y-33320683D01*
X107318306Y-33320683D02*
X107413544Y-33273064D01*
X107413544Y-33273064D02*
X107556401Y-33273064D01*
X107556401Y-33273064D02*
X107651639Y-33320683D01*
X108746878Y-32939731D02*
X109080211Y-33939731D01*
X109080211Y-33939731D02*
X109413544Y-32939731D01*
X109699259Y-33034969D02*
X109746878Y-32987350D01*
X109746878Y-32987350D02*
X109842116Y-32939731D01*
X109842116Y-32939731D02*
X110080211Y-32939731D01*
X110080211Y-32939731D02*
X110175449Y-32987350D01*
X110175449Y-32987350D02*
X110223068Y-33034969D01*
X110223068Y-33034969D02*
X110270687Y-33130207D01*
X110270687Y-33130207D02*
X110270687Y-33225445D01*
X110270687Y-33225445D02*
X110223068Y-33368302D01*
X110223068Y-33368302D02*
X109651640Y-33939731D01*
X109651640Y-33939731D02*
X110270687Y-33939731D01*
X90794493Y-35549675D02*
X90223065Y-35549675D01*
X90508779Y-35549675D02*
X90508779Y-34549675D01*
X90508779Y-34549675D02*
X90413541Y-34692532D01*
X90413541Y-34692532D02*
X90318303Y-34787770D01*
X90318303Y-34787770D02*
X90223065Y-34835389D01*
X91413541Y-34549675D02*
X91508779Y-34549675D01*
X91508779Y-34549675D02*
X91604017Y-34597294D01*
X91604017Y-34597294D02*
X91651636Y-34644913D01*
X91651636Y-34644913D02*
X91699255Y-34740151D01*
X91699255Y-34740151D02*
X91746874Y-34930627D01*
X91746874Y-34930627D02*
X91746874Y-35168722D01*
X91746874Y-35168722D02*
X91699255Y-35359198D01*
X91699255Y-35359198D02*
X91651636Y-35454436D01*
X91651636Y-35454436D02*
X91604017Y-35502056D01*
X91604017Y-35502056D02*
X91508779Y-35549675D01*
X91508779Y-35549675D02*
X91413541Y-35549675D01*
X91413541Y-35549675D02*
X91318303Y-35502056D01*
X91318303Y-35502056D02*
X91270684Y-35454436D01*
X91270684Y-35454436D02*
X91223065Y-35359198D01*
X91223065Y-35359198D02*
X91175446Y-35168722D01*
X91175446Y-35168722D02*
X91175446Y-34930627D01*
X91175446Y-34930627D02*
X91223065Y-34740151D01*
X91223065Y-34740151D02*
X91270684Y-34644913D01*
X91270684Y-34644913D02*
X91318303Y-34597294D01*
X91318303Y-34597294D02*
X91413541Y-34549675D01*
X92889731Y-34502056D02*
X92032589Y-35787770D01*
X93175446Y-34644913D02*
X93223065Y-34597294D01*
X93223065Y-34597294D02*
X93318303Y-34549675D01*
X93318303Y-34549675D02*
X93556398Y-34549675D01*
X93556398Y-34549675D02*
X93651636Y-34597294D01*
X93651636Y-34597294D02*
X93699255Y-34644913D01*
X93699255Y-34644913D02*
X93746874Y-34740151D01*
X93746874Y-34740151D02*
X93746874Y-34835389D01*
X93746874Y-34835389D02*
X93699255Y-34978246D01*
X93699255Y-34978246D02*
X93127827Y-35549675D01*
X93127827Y-35549675D02*
X93746874Y-35549675D01*
X94223065Y-35549675D02*
X94413541Y-35549675D01*
X94413541Y-35549675D02*
X94508779Y-35502056D01*
X94508779Y-35502056D02*
X94556398Y-35454436D01*
X94556398Y-35454436D02*
X94651636Y-35311579D01*
X94651636Y-35311579D02*
X94699255Y-35121103D01*
X94699255Y-35121103D02*
X94699255Y-34740151D01*
X94699255Y-34740151D02*
X94651636Y-34644913D01*
X94651636Y-34644913D02*
X94604017Y-34597294D01*
X94604017Y-34597294D02*
X94508779Y-34549675D01*
X94508779Y-34549675D02*
X94318303Y-34549675D01*
X94318303Y-34549675D02*
X94223065Y-34597294D01*
X94223065Y-34597294D02*
X94175446Y-34644913D01*
X94175446Y-34644913D02*
X94127827Y-34740151D01*
X94127827Y-34740151D02*
X94127827Y-34978246D01*
X94127827Y-34978246D02*
X94175446Y-35073484D01*
X94175446Y-35073484D02*
X94223065Y-35121103D01*
X94223065Y-35121103D02*
X94318303Y-35168722D01*
X94318303Y-35168722D02*
X94508779Y-35168722D01*
X94508779Y-35168722D02*
X94604017Y-35121103D01*
X94604017Y-35121103D02*
X94651636Y-35073484D01*
X94651636Y-35073484D02*
X94699255Y-34978246D01*
X95842112Y-34502056D02*
X94984970Y-35787770D01*
X96127827Y-34644913D02*
X96175446Y-34597294D01*
X96175446Y-34597294D02*
X96270684Y-34549675D01*
X96270684Y-34549675D02*
X96508779Y-34549675D01*
X96508779Y-34549675D02*
X96604017Y-34597294D01*
X96604017Y-34597294D02*
X96651636Y-34644913D01*
X96651636Y-34644913D02*
X96699255Y-34740151D01*
X96699255Y-34740151D02*
X96699255Y-34835389D01*
X96699255Y-34835389D02*
X96651636Y-34978246D01*
X96651636Y-34978246D02*
X96080208Y-35549675D01*
X96080208Y-35549675D02*
X96699255Y-35549675D01*
X97318303Y-34549675D02*
X97413541Y-34549675D01*
X97413541Y-34549675D02*
X97508779Y-34597294D01*
X97508779Y-34597294D02*
X97556398Y-34644913D01*
X97556398Y-34644913D02*
X97604017Y-34740151D01*
X97604017Y-34740151D02*
X97651636Y-34930627D01*
X97651636Y-34930627D02*
X97651636Y-35168722D01*
X97651636Y-35168722D02*
X97604017Y-35359198D01*
X97604017Y-35359198D02*
X97556398Y-35454436D01*
X97556398Y-35454436D02*
X97508779Y-35502056D01*
X97508779Y-35502056D02*
X97413541Y-35549675D01*
X97413541Y-35549675D02*
X97318303Y-35549675D01*
X97318303Y-35549675D02*
X97223065Y-35502056D01*
X97223065Y-35502056D02*
X97175446Y-35454436D01*
X97175446Y-35454436D02*
X97127827Y-35359198D01*
X97127827Y-35359198D02*
X97080208Y-35168722D01*
X97080208Y-35168722D02*
X97080208Y-34930627D01*
X97080208Y-34930627D02*
X97127827Y-34740151D01*
X97127827Y-34740151D02*
X97175446Y-34644913D01*
X97175446Y-34644913D02*
X97223065Y-34597294D01*
X97223065Y-34597294D02*
X97318303Y-34549675D01*
X98032589Y-34644913D02*
X98080208Y-34597294D01*
X98080208Y-34597294D02*
X98175446Y-34549675D01*
X98175446Y-34549675D02*
X98413541Y-34549675D01*
X98413541Y-34549675D02*
X98508779Y-34597294D01*
X98508779Y-34597294D02*
X98556398Y-34644913D01*
X98556398Y-34644913D02*
X98604017Y-34740151D01*
X98604017Y-34740151D02*
X98604017Y-34835389D01*
X98604017Y-34835389D02*
X98556398Y-34978246D01*
X98556398Y-34978246D02*
X97984970Y-35549675D01*
X97984970Y-35549675D02*
X98604017Y-35549675D01*
X99461160Y-34883008D02*
X99461160Y-35549675D01*
X99223065Y-34502056D02*
X98984970Y-35216341D01*
X98984970Y-35216341D02*
X99604017Y-35216341D01*
X90127827Y-36159619D02*
X90699255Y-36159619D01*
X90413541Y-37159619D02*
X90413541Y-36159619D01*
X91413541Y-37112000D02*
X91318303Y-37159619D01*
X91318303Y-37159619D02*
X91127827Y-37159619D01*
X91127827Y-37159619D02*
X91032589Y-37112000D01*
X91032589Y-37112000D02*
X90984970Y-37016761D01*
X90984970Y-37016761D02*
X90984970Y-36635809D01*
X90984970Y-36635809D02*
X91032589Y-36540571D01*
X91032589Y-36540571D02*
X91127827Y-36492952D01*
X91127827Y-36492952D02*
X91318303Y-36492952D01*
X91318303Y-36492952D02*
X91413541Y-36540571D01*
X91413541Y-36540571D02*
X91461160Y-36635809D01*
X91461160Y-36635809D02*
X91461160Y-36731047D01*
X91461160Y-36731047D02*
X90984970Y-36826285D01*
X92318303Y-37159619D02*
X92318303Y-36635809D01*
X92318303Y-36635809D02*
X92270684Y-36540571D01*
X92270684Y-36540571D02*
X92175446Y-36492952D01*
X92175446Y-36492952D02*
X91984970Y-36492952D01*
X91984970Y-36492952D02*
X91889732Y-36540571D01*
X92318303Y-37112000D02*
X92223065Y-37159619D01*
X92223065Y-37159619D02*
X91984970Y-37159619D01*
X91984970Y-37159619D02*
X91889732Y-37112000D01*
X91889732Y-37112000D02*
X91842113Y-37016761D01*
X91842113Y-37016761D02*
X91842113Y-36921523D01*
X91842113Y-36921523D02*
X91889732Y-36826285D01*
X91889732Y-36826285D02*
X91984970Y-36778666D01*
X91984970Y-36778666D02*
X92223065Y-36778666D01*
X92223065Y-36778666D02*
X92318303Y-36731047D01*
X92794494Y-37159619D02*
X92794494Y-36492952D01*
X92794494Y-36588190D02*
X92842113Y-36540571D01*
X92842113Y-36540571D02*
X92937351Y-36492952D01*
X92937351Y-36492952D02*
X93080208Y-36492952D01*
X93080208Y-36492952D02*
X93175446Y-36540571D01*
X93175446Y-36540571D02*
X93223065Y-36635809D01*
X93223065Y-36635809D02*
X93223065Y-37159619D01*
X93223065Y-36635809D02*
X93270684Y-36540571D01*
X93270684Y-36540571D02*
X93365922Y-36492952D01*
X93365922Y-36492952D02*
X93508779Y-36492952D01*
X93508779Y-36492952D02*
X93604018Y-36540571D01*
X93604018Y-36540571D02*
X93651637Y-36635809D01*
X93651637Y-36635809D02*
X93651637Y-37159619D01*
X95413541Y-37159619D02*
X94842113Y-37159619D01*
X95127827Y-37159619D02*
X95127827Y-36159619D01*
X95127827Y-36159619D02*
X95032589Y-36302476D01*
X95032589Y-36302476D02*
X94937351Y-36397714D01*
X94937351Y-36397714D02*
X94842113Y-36445333D01*
X96318303Y-36159619D02*
X95842113Y-36159619D01*
X95842113Y-36159619D02*
X95794494Y-36635809D01*
X95794494Y-36635809D02*
X95842113Y-36588190D01*
X95842113Y-36588190D02*
X95937351Y-36540571D01*
X95937351Y-36540571D02*
X96175446Y-36540571D01*
X96175446Y-36540571D02*
X96270684Y-36588190D01*
X96270684Y-36588190D02*
X96318303Y-36635809D01*
X96318303Y-36635809D02*
X96365922Y-36731047D01*
X96365922Y-36731047D02*
X96365922Y-36969142D01*
X96365922Y-36969142D02*
X96318303Y-37064380D01*
X96318303Y-37064380D02*
X96270684Y-37112000D01*
X96270684Y-37112000D02*
X96175446Y-37159619D01*
X96175446Y-37159619D02*
X95937351Y-37159619D01*
X95937351Y-37159619D02*
X95842113Y-37112000D01*
X95842113Y-37112000D02*
X95794494Y-37064380D01*
D11*
X127481105Y-33196419D02*
X127481105Y-32196419D01*
X127481105Y-32196419D02*
X127719200Y-32196419D01*
X127719200Y-32196419D02*
X127862057Y-32244038D01*
X127862057Y-32244038D02*
X127957295Y-32339276D01*
X127957295Y-32339276D02*
X128004914Y-32434514D01*
X128004914Y-32434514D02*
X128052533Y-32624990D01*
X128052533Y-32624990D02*
X128052533Y-32767847D01*
X128052533Y-32767847D02*
X128004914Y-32958323D01*
X128004914Y-32958323D02*
X127957295Y-33053561D01*
X127957295Y-33053561D02*
X127862057Y-33148800D01*
X127862057Y-33148800D02*
X127719200Y-33196419D01*
X127719200Y-33196419D02*
X127481105Y-33196419D01*
X128433486Y-32291657D02*
X128481105Y-32244038D01*
X128481105Y-32244038D02*
X128576343Y-32196419D01*
X128576343Y-32196419D02*
X128814438Y-32196419D01*
X128814438Y-32196419D02*
X128909676Y-32244038D01*
X128909676Y-32244038D02*
X128957295Y-32291657D01*
X128957295Y-32291657D02*
X129004914Y-32386895D01*
X129004914Y-32386895D02*
X129004914Y-32482133D01*
X129004914Y-32482133D02*
X128957295Y-32624990D01*
X128957295Y-32624990D02*
X128385867Y-33196419D01*
X128385867Y-33196419D02*
X129004914Y-33196419D01*
X127551457Y-50234838D02*
X127503838Y-50330076D01*
X127503838Y-50330076D02*
X127408600Y-50425314D01*
X127408600Y-50425314D02*
X127265742Y-50568171D01*
X127265742Y-50568171D02*
X127218123Y-50663409D01*
X127218123Y-50663409D02*
X127218123Y-50758647D01*
X127456219Y-50711028D02*
X127408600Y-50806266D01*
X127408600Y-50806266D02*
X127313361Y-50901504D01*
X127313361Y-50901504D02*
X127122885Y-50949123D01*
X127122885Y-50949123D02*
X126789552Y-50949123D01*
X126789552Y-50949123D02*
X126599076Y-50901504D01*
X126599076Y-50901504D02*
X126503838Y-50806266D01*
X126503838Y-50806266D02*
X126456219Y-50711028D01*
X126456219Y-50711028D02*
X126456219Y-50520552D01*
X126456219Y-50520552D02*
X126503838Y-50425314D01*
X126503838Y-50425314D02*
X126599076Y-50330076D01*
X126599076Y-50330076D02*
X126789552Y-50282457D01*
X126789552Y-50282457D02*
X127122885Y-50282457D01*
X127122885Y-50282457D02*
X127313361Y-50330076D01*
X127313361Y-50330076D02*
X127408600Y-50425314D01*
X127408600Y-50425314D02*
X127456219Y-50520552D01*
X127456219Y-50520552D02*
X127456219Y-50711028D01*
X127456219Y-49330076D02*
X127456219Y-49901504D01*
X127456219Y-49615790D02*
X126456219Y-49615790D01*
X126456219Y-49615790D02*
X126599076Y-49711028D01*
X126599076Y-49711028D02*
X126694314Y-49806266D01*
X126694314Y-49806266D02*
X126741933Y-49901504D01*
X123836133Y-38300819D02*
X123502800Y-37824628D01*
X123264705Y-38300819D02*
X123264705Y-37300819D01*
X123264705Y-37300819D02*
X123645657Y-37300819D01*
X123645657Y-37300819D02*
X123740895Y-37348438D01*
X123740895Y-37348438D02*
X123788514Y-37396057D01*
X123788514Y-37396057D02*
X123836133Y-37491295D01*
X123836133Y-37491295D02*
X123836133Y-37634152D01*
X123836133Y-37634152D02*
X123788514Y-37729390D01*
X123788514Y-37729390D02*
X123740895Y-37777009D01*
X123740895Y-37777009D02*
X123645657Y-37824628D01*
X123645657Y-37824628D02*
X123264705Y-37824628D01*
X124740895Y-37300819D02*
X124264705Y-37300819D01*
X124264705Y-37300819D02*
X124217086Y-37777009D01*
X124217086Y-37777009D02*
X124264705Y-37729390D01*
X124264705Y-37729390D02*
X124359943Y-37681771D01*
X124359943Y-37681771D02*
X124598038Y-37681771D01*
X124598038Y-37681771D02*
X124693276Y-37729390D01*
X124693276Y-37729390D02*
X124740895Y-37777009D01*
X124740895Y-37777009D02*
X124788514Y-37872247D01*
X124788514Y-37872247D02*
X124788514Y-38110342D01*
X124788514Y-38110342D02*
X124740895Y-38205580D01*
X124740895Y-38205580D02*
X124693276Y-38253200D01*
X124693276Y-38253200D02*
X124598038Y-38300819D01*
X124598038Y-38300819D02*
X124359943Y-38300819D01*
X124359943Y-38300819D02*
X124264705Y-38253200D01*
X124264705Y-38253200D02*
X124217086Y-38205580D01*
X50025009Y-66279447D02*
X50025009Y-66612780D01*
X50548819Y-66612780D02*
X49548819Y-66612780D01*
X49548819Y-66612780D02*
X49548819Y-66136590D01*
X50501200Y-65803256D02*
X50548819Y-65660399D01*
X50548819Y-65660399D02*
X50548819Y-65422304D01*
X50548819Y-65422304D02*
X50501200Y-65327066D01*
X50501200Y-65327066D02*
X50453580Y-65279447D01*
X50453580Y-65279447D02*
X50358342Y-65231828D01*
X50358342Y-65231828D02*
X50263104Y-65231828D01*
X50263104Y-65231828D02*
X50167866Y-65279447D01*
X50167866Y-65279447D02*
X50120247Y-65327066D01*
X50120247Y-65327066D02*
X50072628Y-65422304D01*
X50072628Y-65422304D02*
X50025009Y-65612780D01*
X50025009Y-65612780D02*
X49977390Y-65708018D01*
X49977390Y-65708018D02*
X49929771Y-65755637D01*
X49929771Y-65755637D02*
X49834533Y-65803256D01*
X49834533Y-65803256D02*
X49739295Y-65803256D01*
X49739295Y-65803256D02*
X49644057Y-65755637D01*
X49644057Y-65755637D02*
X49596438Y-65708018D01*
X49596438Y-65708018D02*
X49548819Y-65612780D01*
X49548819Y-65612780D02*
X49548819Y-65374685D01*
X49548819Y-65374685D02*
X49596438Y-65231828D01*
X50548819Y-64231828D02*
X50072628Y-64565161D01*
X50548819Y-64803256D02*
X49548819Y-64803256D01*
X49548819Y-64803256D02*
X49548819Y-64422304D01*
X49548819Y-64422304D02*
X49596438Y-64327066D01*
X49596438Y-64327066D02*
X49644057Y-64279447D01*
X49644057Y-64279447D02*
X49739295Y-64231828D01*
X49739295Y-64231828D02*
X49882152Y-64231828D01*
X49882152Y-64231828D02*
X49977390Y-64279447D01*
X49977390Y-64279447D02*
X50025009Y-64327066D01*
X50025009Y-64327066D02*
X50072628Y-64422304D01*
X50072628Y-64422304D02*
X50072628Y-64803256D01*
X50644057Y-64041352D02*
X50644057Y-63279447D01*
X49548819Y-63184208D02*
X50548819Y-62850875D01*
X50548819Y-62850875D02*
X49548819Y-62517542D01*
X50548819Y-61660399D02*
X50548819Y-62231827D01*
X50548819Y-61946113D02*
X49548819Y-61946113D01*
X49548819Y-61946113D02*
X49691676Y-62041351D01*
X49691676Y-62041351D02*
X49786914Y-62136589D01*
X49786914Y-62136589D02*
X49834533Y-62231827D01*
X109928819Y-45120894D02*
X108928819Y-45120894D01*
X108928819Y-45120894D02*
X108928819Y-44882799D01*
X108928819Y-44882799D02*
X108976438Y-44739942D01*
X108976438Y-44739942D02*
X109071676Y-44644704D01*
X109071676Y-44644704D02*
X109166914Y-44597085D01*
X109166914Y-44597085D02*
X109357390Y-44549466D01*
X109357390Y-44549466D02*
X109500247Y-44549466D01*
X109500247Y-44549466D02*
X109690723Y-44597085D01*
X109690723Y-44597085D02*
X109785961Y-44644704D01*
X109785961Y-44644704D02*
X109881200Y-44739942D01*
X109881200Y-44739942D02*
X109928819Y-44882799D01*
X109928819Y-44882799D02*
X109928819Y-45120894D01*
X109928819Y-43597085D02*
X109928819Y-44168513D01*
X109928819Y-43882799D02*
X108928819Y-43882799D01*
X108928819Y-43882799D02*
X109071676Y-43978037D01*
X109071676Y-43978037D02*
X109166914Y-44073275D01*
X109166914Y-44073275D02*
X109214533Y-44168513D01*
X94469361Y-51712057D02*
X94374123Y-51664438D01*
X94374123Y-51664438D02*
X94278885Y-51569200D01*
X94278885Y-51569200D02*
X94136028Y-51426342D01*
X94136028Y-51426342D02*
X94040790Y-51378723D01*
X94040790Y-51378723D02*
X93945552Y-51378723D01*
X93993171Y-51616819D02*
X93897933Y-51569200D01*
X93897933Y-51569200D02*
X93802695Y-51473961D01*
X93802695Y-51473961D02*
X93755076Y-51283485D01*
X93755076Y-51283485D02*
X93755076Y-50950152D01*
X93755076Y-50950152D02*
X93802695Y-50759676D01*
X93802695Y-50759676D02*
X93897933Y-50664438D01*
X93897933Y-50664438D02*
X93993171Y-50616819D01*
X93993171Y-50616819D02*
X94183647Y-50616819D01*
X94183647Y-50616819D02*
X94278885Y-50664438D01*
X94278885Y-50664438D02*
X94374123Y-50759676D01*
X94374123Y-50759676D02*
X94421742Y-50950152D01*
X94421742Y-50950152D02*
X94421742Y-51283485D01*
X94421742Y-51283485D02*
X94374123Y-51473961D01*
X94374123Y-51473961D02*
X94278885Y-51569200D01*
X94278885Y-51569200D02*
X94183647Y-51616819D01*
X94183647Y-51616819D02*
X93993171Y-51616819D01*
X94755076Y-50616819D02*
X95374123Y-50616819D01*
X95374123Y-50616819D02*
X95040790Y-50997771D01*
X95040790Y-50997771D02*
X95183647Y-50997771D01*
X95183647Y-50997771D02*
X95278885Y-51045390D01*
X95278885Y-51045390D02*
X95326504Y-51093009D01*
X95326504Y-51093009D02*
X95374123Y-51188247D01*
X95374123Y-51188247D02*
X95374123Y-51426342D01*
X95374123Y-51426342D02*
X95326504Y-51521580D01*
X95326504Y-51521580D02*
X95278885Y-51569200D01*
X95278885Y-51569200D02*
X95183647Y-51616819D01*
X95183647Y-51616819D02*
X94897933Y-51616819D01*
X94897933Y-51616819D02*
X94802695Y-51569200D01*
X94802695Y-51569200D02*
X94755076Y-51521580D01*
X121131219Y-38943066D02*
X120655028Y-39276399D01*
X121131219Y-39514494D02*
X120131219Y-39514494D01*
X120131219Y-39514494D02*
X120131219Y-39133542D01*
X120131219Y-39133542D02*
X120178838Y-39038304D01*
X120178838Y-39038304D02*
X120226457Y-38990685D01*
X120226457Y-38990685D02*
X120321695Y-38943066D01*
X120321695Y-38943066D02*
X120464552Y-38943066D01*
X120464552Y-38943066D02*
X120559790Y-38990685D01*
X120559790Y-38990685D02*
X120607409Y-39038304D01*
X120607409Y-39038304D02*
X120655028Y-39133542D01*
X120655028Y-39133542D02*
X120655028Y-39514494D01*
X120131219Y-38609732D02*
X120131219Y-37990685D01*
X120131219Y-37990685D02*
X120512171Y-38324018D01*
X120512171Y-38324018D02*
X120512171Y-38181161D01*
X120512171Y-38181161D02*
X120559790Y-38085923D01*
X120559790Y-38085923D02*
X120607409Y-38038304D01*
X120607409Y-38038304D02*
X120702647Y-37990685D01*
X120702647Y-37990685D02*
X120940742Y-37990685D01*
X120940742Y-37990685D02*
X121035980Y-38038304D01*
X121035980Y-38038304D02*
X121083600Y-38085923D01*
X121083600Y-38085923D02*
X121131219Y-38181161D01*
X121131219Y-38181161D02*
X121131219Y-38466875D01*
X121131219Y-38466875D02*
X121083600Y-38562113D01*
X121083600Y-38562113D02*
X121035980Y-38609732D01*
X59842780Y-41089966D02*
X59890400Y-41137585D01*
X59890400Y-41137585D02*
X59938019Y-41280442D01*
X59938019Y-41280442D02*
X59938019Y-41375680D01*
X59938019Y-41375680D02*
X59890400Y-41518537D01*
X59890400Y-41518537D02*
X59795161Y-41613775D01*
X59795161Y-41613775D02*
X59699923Y-41661394D01*
X59699923Y-41661394D02*
X59509447Y-41709013D01*
X59509447Y-41709013D02*
X59366590Y-41709013D01*
X59366590Y-41709013D02*
X59176114Y-41661394D01*
X59176114Y-41661394D02*
X59080876Y-41613775D01*
X59080876Y-41613775D02*
X58985638Y-41518537D01*
X58985638Y-41518537D02*
X58938019Y-41375680D01*
X58938019Y-41375680D02*
X58938019Y-41280442D01*
X58938019Y-41280442D02*
X58985638Y-41137585D01*
X58985638Y-41137585D02*
X59033257Y-41089966D01*
X58938019Y-40756632D02*
X58938019Y-40089966D01*
X58938019Y-40089966D02*
X59938019Y-40518537D01*
X111818380Y-66990166D02*
X111866000Y-67037785D01*
X111866000Y-67037785D02*
X111913619Y-67180642D01*
X111913619Y-67180642D02*
X111913619Y-67275880D01*
X111913619Y-67275880D02*
X111866000Y-67418737D01*
X111866000Y-67418737D02*
X111770761Y-67513975D01*
X111770761Y-67513975D02*
X111675523Y-67561594D01*
X111675523Y-67561594D02*
X111485047Y-67609213D01*
X111485047Y-67609213D02*
X111342190Y-67609213D01*
X111342190Y-67609213D02*
X111151714Y-67561594D01*
X111151714Y-67561594D02*
X111056476Y-67513975D01*
X111056476Y-67513975D02*
X110961238Y-67418737D01*
X110961238Y-67418737D02*
X110913619Y-67275880D01*
X110913619Y-67275880D02*
X110913619Y-67180642D01*
X110913619Y-67180642D02*
X110961238Y-67037785D01*
X110961238Y-67037785D02*
X111008857Y-66990166D01*
X111913619Y-66037785D02*
X111913619Y-66609213D01*
X111913619Y-66323499D02*
X110913619Y-66323499D01*
X110913619Y-66323499D02*
X111056476Y-66418737D01*
X111056476Y-66418737D02*
X111151714Y-66513975D01*
X111151714Y-66513975D02*
X111199333Y-66609213D01*
X118262780Y-50814266D02*
X118310400Y-50861885D01*
X118310400Y-50861885D02*
X118358019Y-51004742D01*
X118358019Y-51004742D02*
X118358019Y-51099980D01*
X118358019Y-51099980D02*
X118310400Y-51242837D01*
X118310400Y-51242837D02*
X118215161Y-51338075D01*
X118215161Y-51338075D02*
X118119923Y-51385694D01*
X118119923Y-51385694D02*
X117929447Y-51433313D01*
X117929447Y-51433313D02*
X117786590Y-51433313D01*
X117786590Y-51433313D02*
X117596114Y-51385694D01*
X117596114Y-51385694D02*
X117500876Y-51338075D01*
X117500876Y-51338075D02*
X117405638Y-51242837D01*
X117405638Y-51242837D02*
X117358019Y-51099980D01*
X117358019Y-51099980D02*
X117358019Y-51004742D01*
X117358019Y-51004742D02*
X117405638Y-50861885D01*
X117405638Y-50861885D02*
X117453257Y-50814266D01*
X117691352Y-49957123D02*
X118358019Y-49957123D01*
X117310400Y-50195218D02*
X118024685Y-50433313D01*
X118024685Y-50433313D02*
X118024685Y-49814266D01*
X89374742Y-47826819D02*
X89041409Y-47350628D01*
X88803314Y-47826819D02*
X88803314Y-46826819D01*
X88803314Y-46826819D02*
X89184266Y-46826819D01*
X89184266Y-46826819D02*
X89279504Y-46874438D01*
X89279504Y-46874438D02*
X89327123Y-46922057D01*
X89327123Y-46922057D02*
X89374742Y-47017295D01*
X89374742Y-47017295D02*
X89374742Y-47160152D01*
X89374742Y-47160152D02*
X89327123Y-47255390D01*
X89327123Y-47255390D02*
X89279504Y-47303009D01*
X89279504Y-47303009D02*
X89184266Y-47350628D01*
X89184266Y-47350628D02*
X88803314Y-47350628D01*
X90327123Y-47826819D02*
X89755695Y-47826819D01*
X90041409Y-47826819D02*
X90041409Y-46826819D01*
X90041409Y-46826819D02*
X89946171Y-46969676D01*
X89946171Y-46969676D02*
X89850933Y-47064914D01*
X89850933Y-47064914D02*
X89755695Y-47112533D01*
X90708076Y-46922057D02*
X90755695Y-46874438D01*
X90755695Y-46874438D02*
X90850933Y-46826819D01*
X90850933Y-46826819D02*
X91089028Y-46826819D01*
X91089028Y-46826819D02*
X91184266Y-46874438D01*
X91184266Y-46874438D02*
X91231885Y-46922057D01*
X91231885Y-46922057D02*
X91279504Y-47017295D01*
X91279504Y-47017295D02*
X91279504Y-47112533D01*
X91279504Y-47112533D02*
X91231885Y-47255390D01*
X91231885Y-47255390D02*
X90660457Y-47826819D01*
X90660457Y-47826819D02*
X91279504Y-47826819D01*
X50025009Y-39485580D02*
X50025009Y-39818913D01*
X50548819Y-39818913D02*
X49548819Y-39818913D01*
X49548819Y-39818913D02*
X49548819Y-39342723D01*
X50501200Y-39009389D02*
X50548819Y-38866532D01*
X50548819Y-38866532D02*
X50548819Y-38628437D01*
X50548819Y-38628437D02*
X50501200Y-38533199D01*
X50501200Y-38533199D02*
X50453580Y-38485580D01*
X50453580Y-38485580D02*
X50358342Y-38437961D01*
X50358342Y-38437961D02*
X50263104Y-38437961D01*
X50263104Y-38437961D02*
X50167866Y-38485580D01*
X50167866Y-38485580D02*
X50120247Y-38533199D01*
X50120247Y-38533199D02*
X50072628Y-38628437D01*
X50072628Y-38628437D02*
X50025009Y-38818913D01*
X50025009Y-38818913D02*
X49977390Y-38914151D01*
X49977390Y-38914151D02*
X49929771Y-38961770D01*
X49929771Y-38961770D02*
X49834533Y-39009389D01*
X49834533Y-39009389D02*
X49739295Y-39009389D01*
X49739295Y-39009389D02*
X49644057Y-38961770D01*
X49644057Y-38961770D02*
X49596438Y-38914151D01*
X49596438Y-38914151D02*
X49548819Y-38818913D01*
X49548819Y-38818913D02*
X49548819Y-38580818D01*
X49548819Y-38580818D02*
X49596438Y-38437961D01*
X50548819Y-37437961D02*
X50072628Y-37771294D01*
X50548819Y-38009389D02*
X49548819Y-38009389D01*
X49548819Y-38009389D02*
X49548819Y-37628437D01*
X49548819Y-37628437D02*
X49596438Y-37533199D01*
X49596438Y-37533199D02*
X49644057Y-37485580D01*
X49644057Y-37485580D02*
X49739295Y-37437961D01*
X49739295Y-37437961D02*
X49882152Y-37437961D01*
X49882152Y-37437961D02*
X49977390Y-37485580D01*
X49977390Y-37485580D02*
X50025009Y-37533199D01*
X50025009Y-37533199D02*
X50072628Y-37628437D01*
X50072628Y-37628437D02*
X50072628Y-38009389D01*
X50644057Y-37247485D02*
X50644057Y-36485580D01*
X50548819Y-36247484D02*
X49548819Y-36247484D01*
X49548819Y-35580818D02*
X49548819Y-35390342D01*
X49548819Y-35390342D02*
X49596438Y-35295104D01*
X49596438Y-35295104D02*
X49691676Y-35199866D01*
X49691676Y-35199866D02*
X49882152Y-35152247D01*
X49882152Y-35152247D02*
X50215485Y-35152247D01*
X50215485Y-35152247D02*
X50405961Y-35199866D01*
X50405961Y-35199866D02*
X50501200Y-35295104D01*
X50501200Y-35295104D02*
X50548819Y-35390342D01*
X50548819Y-35390342D02*
X50548819Y-35580818D01*
X50548819Y-35580818D02*
X50501200Y-35676056D01*
X50501200Y-35676056D02*
X50405961Y-35771294D01*
X50405961Y-35771294D02*
X50215485Y-35818913D01*
X50215485Y-35818913D02*
X49882152Y-35818913D01*
X49882152Y-35818913D02*
X49691676Y-35771294D01*
X49691676Y-35771294D02*
X49596438Y-35676056D01*
X49596438Y-35676056D02*
X49548819Y-35580818D01*
X50548819Y-34199866D02*
X50548819Y-34771294D01*
X50548819Y-34485580D02*
X49548819Y-34485580D01*
X49548819Y-34485580D02*
X49691676Y-34580818D01*
X49691676Y-34580818D02*
X49786914Y-34676056D01*
X49786914Y-34676056D02*
X49834533Y-34771294D01*
X134874095Y-51762819D02*
X134874095Y-50762819D01*
X134874095Y-51239009D02*
X135445523Y-51239009D01*
X135445523Y-51762819D02*
X135445523Y-50762819D01*
X135874095Y-50858057D02*
X135921714Y-50810438D01*
X135921714Y-50810438D02*
X136016952Y-50762819D01*
X136016952Y-50762819D02*
X136255047Y-50762819D01*
X136255047Y-50762819D02*
X136350285Y-50810438D01*
X136350285Y-50810438D02*
X136397904Y-50858057D01*
X136397904Y-50858057D02*
X136445523Y-50953295D01*
X136445523Y-50953295D02*
X136445523Y-51048533D01*
X136445523Y-51048533D02*
X136397904Y-51191390D01*
X136397904Y-51191390D02*
X135826476Y-51762819D01*
X135826476Y-51762819D02*
X136445523Y-51762819D01*
X53071733Y-38071219D02*
X52738400Y-37595028D01*
X52500305Y-38071219D02*
X52500305Y-37071219D01*
X52500305Y-37071219D02*
X52881257Y-37071219D01*
X52881257Y-37071219D02*
X52976495Y-37118838D01*
X52976495Y-37118838D02*
X53024114Y-37166457D01*
X53024114Y-37166457D02*
X53071733Y-37261695D01*
X53071733Y-37261695D02*
X53071733Y-37404552D01*
X53071733Y-37404552D02*
X53024114Y-37499790D01*
X53024114Y-37499790D02*
X52976495Y-37547409D01*
X52976495Y-37547409D02*
X52881257Y-37595028D01*
X52881257Y-37595028D02*
X52500305Y-37595028D01*
X53405067Y-37071219D02*
X54071733Y-37071219D01*
X54071733Y-37071219D02*
X53643162Y-38071219D01*
X115727799Y-47444709D02*
X115870656Y-47492328D01*
X115870656Y-47492328D02*
X115918275Y-47539947D01*
X115918275Y-47539947D02*
X115965894Y-47635185D01*
X115965894Y-47635185D02*
X115965894Y-47778042D01*
X115965894Y-47778042D02*
X115918275Y-47873280D01*
X115918275Y-47873280D02*
X115870656Y-47920900D01*
X115870656Y-47920900D02*
X115775418Y-47968519D01*
X115775418Y-47968519D02*
X115394466Y-47968519D01*
X115394466Y-47968519D02*
X115394466Y-46968519D01*
X115394466Y-46968519D02*
X115727799Y-46968519D01*
X115727799Y-46968519D02*
X115823037Y-47016138D01*
X115823037Y-47016138D02*
X115870656Y-47063757D01*
X115870656Y-47063757D02*
X115918275Y-47158995D01*
X115918275Y-47158995D02*
X115918275Y-47254233D01*
X115918275Y-47254233D02*
X115870656Y-47349471D01*
X115870656Y-47349471D02*
X115823037Y-47397090D01*
X115823037Y-47397090D02*
X115727799Y-47444709D01*
X115727799Y-47444709D02*
X115394466Y-47444709D01*
X116346847Y-47682804D02*
X116823037Y-47682804D01*
X116251609Y-47968519D02*
X116584942Y-46968519D01*
X116584942Y-46968519D02*
X116918275Y-47968519D01*
X117108752Y-46968519D02*
X117680180Y-46968519D01*
X117394466Y-47968519D02*
X117394466Y-46968519D01*
X117870657Y-46968519D02*
X118442085Y-46968519D01*
X118156371Y-47968519D02*
X118156371Y-46968519D01*
X119346847Y-47873280D02*
X119299228Y-47920900D01*
X119299228Y-47920900D02*
X119156371Y-47968519D01*
X119156371Y-47968519D02*
X119061133Y-47968519D01*
X119061133Y-47968519D02*
X118918276Y-47920900D01*
X118918276Y-47920900D02*
X118823038Y-47825661D01*
X118823038Y-47825661D02*
X118775419Y-47730423D01*
X118775419Y-47730423D02*
X118727800Y-47539947D01*
X118727800Y-47539947D02*
X118727800Y-47397090D01*
X118727800Y-47397090D02*
X118775419Y-47206614D01*
X118775419Y-47206614D02*
X118823038Y-47111376D01*
X118823038Y-47111376D02*
X118918276Y-47016138D01*
X118918276Y-47016138D02*
X119061133Y-46968519D01*
X119061133Y-46968519D02*
X119156371Y-46968519D01*
X119156371Y-46968519D02*
X119299228Y-47016138D01*
X119299228Y-47016138D02*
X119346847Y-47063757D01*
X119775419Y-47968519D02*
X119775419Y-46968519D01*
X119775419Y-47444709D02*
X120346847Y-47444709D01*
X120346847Y-47968519D02*
X120346847Y-46968519D01*
X120775419Y-47682804D02*
X121251609Y-47682804D01*
X120680181Y-47968519D02*
X121013514Y-46968519D01*
X121013514Y-46968519D02*
X121346847Y-47968519D01*
X122251609Y-47968519D02*
X121918276Y-47492328D01*
X121680181Y-47968519D02*
X121680181Y-46968519D01*
X121680181Y-46968519D02*
X122061133Y-46968519D01*
X122061133Y-46968519D02*
X122156371Y-47016138D01*
X122156371Y-47016138D02*
X122203990Y-47063757D01*
X122203990Y-47063757D02*
X122251609Y-47158995D01*
X122251609Y-47158995D02*
X122251609Y-47301852D01*
X122251609Y-47301852D02*
X122203990Y-47397090D01*
X122203990Y-47397090D02*
X122156371Y-47444709D01*
X122156371Y-47444709D02*
X122061133Y-47492328D01*
X122061133Y-47492328D02*
X121680181Y-47492328D01*
X123203990Y-47016138D02*
X123108752Y-46968519D01*
X123108752Y-46968519D02*
X122965895Y-46968519D01*
X122965895Y-46968519D02*
X122823038Y-47016138D01*
X122823038Y-47016138D02*
X122727800Y-47111376D01*
X122727800Y-47111376D02*
X122680181Y-47206614D01*
X122680181Y-47206614D02*
X122632562Y-47397090D01*
X122632562Y-47397090D02*
X122632562Y-47539947D01*
X122632562Y-47539947D02*
X122680181Y-47730423D01*
X122680181Y-47730423D02*
X122727800Y-47825661D01*
X122727800Y-47825661D02*
X122823038Y-47920900D01*
X122823038Y-47920900D02*
X122965895Y-47968519D01*
X122965895Y-47968519D02*
X123061133Y-47968519D01*
X123061133Y-47968519D02*
X123203990Y-47920900D01*
X123203990Y-47920900D02*
X123251609Y-47873280D01*
X123251609Y-47873280D02*
X123251609Y-47539947D01*
X123251609Y-47539947D02*
X123061133Y-47539947D01*
X123680181Y-47444709D02*
X124013514Y-47444709D01*
X124156371Y-47968519D02*
X123680181Y-47968519D01*
X123680181Y-47968519D02*
X123680181Y-46968519D01*
X123680181Y-46968519D02*
X124156371Y-46968519D01*
X125156371Y-47968519D02*
X124823038Y-47492328D01*
X124584943Y-47968519D02*
X124584943Y-46968519D01*
X124584943Y-46968519D02*
X124965895Y-46968519D01*
X124965895Y-46968519D02*
X125061133Y-47016138D01*
X125061133Y-47016138D02*
X125108752Y-47063757D01*
X125108752Y-47063757D02*
X125156371Y-47158995D01*
X125156371Y-47158995D02*
X125156371Y-47301852D01*
X125156371Y-47301852D02*
X125108752Y-47397090D01*
X125108752Y-47397090D02*
X125061133Y-47444709D01*
X125061133Y-47444709D02*
X124965895Y-47492328D01*
X124965895Y-47492328D02*
X124584943Y-47492328D01*
X126108752Y-47968519D02*
X125537324Y-47968519D01*
X125823038Y-47968519D02*
X125823038Y-46968519D01*
X125823038Y-46968519D02*
X125727800Y-47111376D01*
X125727800Y-47111376D02*
X125632562Y-47206614D01*
X125632562Y-47206614D02*
X125537324Y-47254233D01*
X102447619Y-61293447D02*
X102447619Y-60674400D01*
X102447619Y-60674400D02*
X102828571Y-61007733D01*
X102828571Y-61007733D02*
X102828571Y-60864876D01*
X102828571Y-60864876D02*
X102876190Y-60769638D01*
X102876190Y-60769638D02*
X102923809Y-60722019D01*
X102923809Y-60722019D02*
X103019047Y-60674400D01*
X103019047Y-60674400D02*
X103257142Y-60674400D01*
X103257142Y-60674400D02*
X103352380Y-60722019D01*
X103352380Y-60722019D02*
X103400000Y-60769638D01*
X103400000Y-60769638D02*
X103447619Y-60864876D01*
X103447619Y-60864876D02*
X103447619Y-61150590D01*
X103447619Y-61150590D02*
X103400000Y-61245828D01*
X103400000Y-61245828D02*
X103352380Y-61293447D01*
X102447619Y-60388685D02*
X103447619Y-60055352D01*
X103447619Y-60055352D02*
X102447619Y-59722019D01*
X102447619Y-59483923D02*
X102447619Y-58864876D01*
X102447619Y-58864876D02*
X102828571Y-59198209D01*
X102828571Y-59198209D02*
X102828571Y-59055352D01*
X102828571Y-59055352D02*
X102876190Y-58960114D01*
X102876190Y-58960114D02*
X102923809Y-58912495D01*
X102923809Y-58912495D02*
X103019047Y-58864876D01*
X103019047Y-58864876D02*
X103257142Y-58864876D01*
X103257142Y-58864876D02*
X103352380Y-58912495D01*
X103352380Y-58912495D02*
X103400000Y-58960114D01*
X103400000Y-58960114D02*
X103447619Y-59055352D01*
X103447619Y-59055352D02*
X103447619Y-59341066D01*
X103447619Y-59341066D02*
X103400000Y-59436304D01*
X103400000Y-59436304D02*
X103352380Y-59483923D01*
X103447619Y-57960114D02*
X103447619Y-58436304D01*
X103447619Y-58436304D02*
X102447619Y-58436304D01*
X103447619Y-57055352D02*
X102971428Y-57388685D01*
X103447619Y-57626780D02*
X102447619Y-57626780D01*
X102447619Y-57626780D02*
X102447619Y-57245828D01*
X102447619Y-57245828D02*
X102495238Y-57150590D01*
X102495238Y-57150590D02*
X102542857Y-57102971D01*
X102542857Y-57102971D02*
X102638095Y-57055352D01*
X102638095Y-57055352D02*
X102780952Y-57055352D01*
X102780952Y-57055352D02*
X102876190Y-57102971D01*
X102876190Y-57102971D02*
X102923809Y-57150590D01*
X102923809Y-57150590D02*
X102971428Y-57245828D01*
X102971428Y-57245828D02*
X102971428Y-57626780D01*
X103447619Y-56102971D02*
X103447619Y-56674399D01*
X103447619Y-56388685D02*
X102447619Y-56388685D01*
X102447619Y-56388685D02*
X102590476Y-56483923D01*
X102590476Y-56483923D02*
X102685714Y-56579161D01*
X102685714Y-56579161D02*
X102733333Y-56674399D01*
X55713333Y-35328019D02*
X55380000Y-34851828D01*
X55141905Y-35328019D02*
X55141905Y-34328019D01*
X55141905Y-34328019D02*
X55522857Y-34328019D01*
X55522857Y-34328019D02*
X55618095Y-34375638D01*
X55618095Y-34375638D02*
X55665714Y-34423257D01*
X55665714Y-34423257D02*
X55713333Y-34518495D01*
X55713333Y-34518495D02*
X55713333Y-34661352D01*
X55713333Y-34661352D02*
X55665714Y-34756590D01*
X55665714Y-34756590D02*
X55618095Y-34804209D01*
X55618095Y-34804209D02*
X55522857Y-34851828D01*
X55522857Y-34851828D02*
X55141905Y-34851828D01*
X56570476Y-34328019D02*
X56380000Y-34328019D01*
X56380000Y-34328019D02*
X56284762Y-34375638D01*
X56284762Y-34375638D02*
X56237143Y-34423257D01*
X56237143Y-34423257D02*
X56141905Y-34566114D01*
X56141905Y-34566114D02*
X56094286Y-34756590D01*
X56094286Y-34756590D02*
X56094286Y-35137542D01*
X56094286Y-35137542D02*
X56141905Y-35232780D01*
X56141905Y-35232780D02*
X56189524Y-35280400D01*
X56189524Y-35280400D02*
X56284762Y-35328019D01*
X56284762Y-35328019D02*
X56475238Y-35328019D01*
X56475238Y-35328019D02*
X56570476Y-35280400D01*
X56570476Y-35280400D02*
X56618095Y-35232780D01*
X56618095Y-35232780D02*
X56665714Y-35137542D01*
X56665714Y-35137542D02*
X56665714Y-34899447D01*
X56665714Y-34899447D02*
X56618095Y-34804209D01*
X56618095Y-34804209D02*
X56570476Y-34756590D01*
X56570476Y-34756590D02*
X56475238Y-34708971D01*
X56475238Y-34708971D02*
X56284762Y-34708971D01*
X56284762Y-34708971D02*
X56189524Y-34756590D01*
X56189524Y-34756590D02*
X56141905Y-34804209D01*
X56141905Y-34804209D02*
X56094286Y-34899447D01*
X123959580Y-66990166D02*
X124007200Y-67037785D01*
X124007200Y-67037785D02*
X124054819Y-67180642D01*
X124054819Y-67180642D02*
X124054819Y-67275880D01*
X124054819Y-67275880D02*
X124007200Y-67418737D01*
X124007200Y-67418737D02*
X123911961Y-67513975D01*
X123911961Y-67513975D02*
X123816723Y-67561594D01*
X123816723Y-67561594D02*
X123626247Y-67609213D01*
X123626247Y-67609213D02*
X123483390Y-67609213D01*
X123483390Y-67609213D02*
X123292914Y-67561594D01*
X123292914Y-67561594D02*
X123197676Y-67513975D01*
X123197676Y-67513975D02*
X123102438Y-67418737D01*
X123102438Y-67418737D02*
X123054819Y-67275880D01*
X123054819Y-67275880D02*
X123054819Y-67180642D01*
X123054819Y-67180642D02*
X123102438Y-67037785D01*
X123102438Y-67037785D02*
X123150057Y-66990166D01*
X123054819Y-66656832D02*
X123054819Y-66037785D01*
X123054819Y-66037785D02*
X123435771Y-66371118D01*
X123435771Y-66371118D02*
X123435771Y-66228261D01*
X123435771Y-66228261D02*
X123483390Y-66133023D01*
X123483390Y-66133023D02*
X123531009Y-66085404D01*
X123531009Y-66085404D02*
X123626247Y-66037785D01*
X123626247Y-66037785D02*
X123864342Y-66037785D01*
X123864342Y-66037785D02*
X123959580Y-66085404D01*
X123959580Y-66085404D02*
X124007200Y-66133023D01*
X124007200Y-66133023D02*
X124054819Y-66228261D01*
X124054819Y-66228261D02*
X124054819Y-66513975D01*
X124054819Y-66513975D02*
X124007200Y-66609213D01*
X124007200Y-66609213D02*
X123959580Y-66656832D01*
X115588819Y-60674400D02*
X115588819Y-61245828D01*
X115588819Y-60960114D02*
X114588819Y-60960114D01*
X114588819Y-60960114D02*
X114731676Y-61055352D01*
X114731676Y-61055352D02*
X114826914Y-61150590D01*
X114826914Y-61150590D02*
X114874533Y-61245828D01*
X114588819Y-60388685D02*
X115588819Y-60055352D01*
X115588819Y-60055352D02*
X114588819Y-59722019D01*
X115017390Y-59245828D02*
X114969771Y-59341066D01*
X114969771Y-59341066D02*
X114922152Y-59388685D01*
X114922152Y-59388685D02*
X114826914Y-59436304D01*
X114826914Y-59436304D02*
X114779295Y-59436304D01*
X114779295Y-59436304D02*
X114684057Y-59388685D01*
X114684057Y-59388685D02*
X114636438Y-59341066D01*
X114636438Y-59341066D02*
X114588819Y-59245828D01*
X114588819Y-59245828D02*
X114588819Y-59055352D01*
X114588819Y-59055352D02*
X114636438Y-58960114D01*
X114636438Y-58960114D02*
X114684057Y-58912495D01*
X114684057Y-58912495D02*
X114779295Y-58864876D01*
X114779295Y-58864876D02*
X114826914Y-58864876D01*
X114826914Y-58864876D02*
X114922152Y-58912495D01*
X114922152Y-58912495D02*
X114969771Y-58960114D01*
X114969771Y-58960114D02*
X115017390Y-59055352D01*
X115017390Y-59055352D02*
X115017390Y-59245828D01*
X115017390Y-59245828D02*
X115065009Y-59341066D01*
X115065009Y-59341066D02*
X115112628Y-59388685D01*
X115112628Y-59388685D02*
X115207866Y-59436304D01*
X115207866Y-59436304D02*
X115398342Y-59436304D01*
X115398342Y-59436304D02*
X115493580Y-59388685D01*
X115493580Y-59388685D02*
X115541200Y-59341066D01*
X115541200Y-59341066D02*
X115588819Y-59245828D01*
X115588819Y-59245828D02*
X115588819Y-59055352D01*
X115588819Y-59055352D02*
X115541200Y-58960114D01*
X115541200Y-58960114D02*
X115493580Y-58912495D01*
X115493580Y-58912495D02*
X115398342Y-58864876D01*
X115398342Y-58864876D02*
X115207866Y-58864876D01*
X115207866Y-58864876D02*
X115112628Y-58912495D01*
X115112628Y-58912495D02*
X115065009Y-58960114D01*
X115065009Y-58960114D02*
X115017390Y-59055352D01*
X115588819Y-57960114D02*
X115588819Y-58436304D01*
X115588819Y-58436304D02*
X114588819Y-58436304D01*
X115588819Y-57055352D02*
X115112628Y-57388685D01*
X115588819Y-57626780D02*
X114588819Y-57626780D01*
X114588819Y-57626780D02*
X114588819Y-57245828D01*
X114588819Y-57245828D02*
X114636438Y-57150590D01*
X114636438Y-57150590D02*
X114684057Y-57102971D01*
X114684057Y-57102971D02*
X114779295Y-57055352D01*
X114779295Y-57055352D02*
X114922152Y-57055352D01*
X114922152Y-57055352D02*
X115017390Y-57102971D01*
X115017390Y-57102971D02*
X115065009Y-57150590D01*
X115065009Y-57150590D02*
X115112628Y-57245828D01*
X115112628Y-57245828D02*
X115112628Y-57626780D01*
X115588819Y-56102971D02*
X115588819Y-56674399D01*
X115588819Y-56388685D02*
X114588819Y-56388685D01*
X114588819Y-56388685D02*
X114731676Y-56483923D01*
X114731676Y-56483923D02*
X114826914Y-56579161D01*
X114826914Y-56579161D02*
X114874533Y-56674399D01*
X66107619Y-49933904D02*
X66917142Y-49933904D01*
X66917142Y-49933904D02*
X67012380Y-49886285D01*
X67012380Y-49886285D02*
X67060000Y-49838666D01*
X67060000Y-49838666D02*
X67107619Y-49743428D01*
X67107619Y-49743428D02*
X67107619Y-49552952D01*
X67107619Y-49552952D02*
X67060000Y-49457714D01*
X67060000Y-49457714D02*
X67012380Y-49410095D01*
X67012380Y-49410095D02*
X66917142Y-49362476D01*
X66917142Y-49362476D02*
X66107619Y-49362476D01*
X66107619Y-48981523D02*
X66107619Y-48362476D01*
X66107619Y-48362476D02*
X66488571Y-48695809D01*
X66488571Y-48695809D02*
X66488571Y-48552952D01*
X66488571Y-48552952D02*
X66536190Y-48457714D01*
X66536190Y-48457714D02*
X66583809Y-48410095D01*
X66583809Y-48410095D02*
X66679047Y-48362476D01*
X66679047Y-48362476D02*
X66917142Y-48362476D01*
X66917142Y-48362476D02*
X67012380Y-48410095D01*
X67012380Y-48410095D02*
X67060000Y-48457714D01*
X67060000Y-48457714D02*
X67107619Y-48552952D01*
X67107619Y-48552952D02*
X67107619Y-48838666D01*
X67107619Y-48838666D02*
X67060000Y-48933904D01*
X67060000Y-48933904D02*
X67012380Y-48981523D01*
X133326609Y-68193942D02*
X133374228Y-68051085D01*
X133374228Y-68051085D02*
X133421847Y-68003466D01*
X133421847Y-68003466D02*
X133517085Y-67955847D01*
X133517085Y-67955847D02*
X133659942Y-67955847D01*
X133659942Y-67955847D02*
X133755180Y-68003466D01*
X133755180Y-68003466D02*
X133802800Y-68051085D01*
X133802800Y-68051085D02*
X133850419Y-68146323D01*
X133850419Y-68146323D02*
X133850419Y-68527275D01*
X133850419Y-68527275D02*
X132850419Y-68527275D01*
X132850419Y-68527275D02*
X132850419Y-68193942D01*
X132850419Y-68193942D02*
X132898038Y-68098704D01*
X132898038Y-68098704D02*
X132945657Y-68051085D01*
X132945657Y-68051085D02*
X133040895Y-68003466D01*
X133040895Y-68003466D02*
X133136133Y-68003466D01*
X133136133Y-68003466D02*
X133231371Y-68051085D01*
X133231371Y-68051085D02*
X133278990Y-68098704D01*
X133278990Y-68098704D02*
X133326609Y-68193942D01*
X133326609Y-68193942D02*
X133326609Y-68527275D01*
X133564704Y-67574894D02*
X133564704Y-67098704D01*
X133850419Y-67670132D02*
X132850419Y-67336799D01*
X132850419Y-67336799D02*
X133850419Y-67003466D01*
X132850419Y-66812989D02*
X132850419Y-66241561D01*
X133850419Y-66527275D02*
X132850419Y-66527275D01*
X132850419Y-66051084D02*
X132850419Y-65479656D01*
X133850419Y-65765370D02*
X132850419Y-65765370D01*
X133850419Y-65146322D02*
X132850419Y-65146322D01*
X132850419Y-64479656D02*
X132850419Y-64289180D01*
X132850419Y-64289180D02*
X132898038Y-64193942D01*
X132898038Y-64193942D02*
X132993276Y-64098704D01*
X132993276Y-64098704D02*
X133183752Y-64051085D01*
X133183752Y-64051085D02*
X133517085Y-64051085D01*
X133517085Y-64051085D02*
X133707561Y-64098704D01*
X133707561Y-64098704D02*
X133802800Y-64193942D01*
X133802800Y-64193942D02*
X133850419Y-64289180D01*
X133850419Y-64289180D02*
X133850419Y-64479656D01*
X133850419Y-64479656D02*
X133802800Y-64574894D01*
X133802800Y-64574894D02*
X133707561Y-64670132D01*
X133707561Y-64670132D02*
X133517085Y-64717751D01*
X133517085Y-64717751D02*
X133183752Y-64717751D01*
X133183752Y-64717751D02*
X132993276Y-64670132D01*
X132993276Y-64670132D02*
X132898038Y-64574894D01*
X132898038Y-64574894D02*
X132850419Y-64479656D01*
X133850419Y-63098704D02*
X133850419Y-63670132D01*
X133850419Y-63384418D02*
X132850419Y-63384418D01*
X132850419Y-63384418D02*
X132993276Y-63479656D01*
X132993276Y-63479656D02*
X133088514Y-63574894D01*
X133088514Y-63574894D02*
X133136133Y-63670132D01*
X98350342Y-49856819D02*
X98017009Y-49380628D01*
X97778914Y-49856819D02*
X97778914Y-48856819D01*
X97778914Y-48856819D02*
X98159866Y-48856819D01*
X98159866Y-48856819D02*
X98255104Y-48904438D01*
X98255104Y-48904438D02*
X98302723Y-48952057D01*
X98302723Y-48952057D02*
X98350342Y-49047295D01*
X98350342Y-49047295D02*
X98350342Y-49190152D01*
X98350342Y-49190152D02*
X98302723Y-49285390D01*
X98302723Y-49285390D02*
X98255104Y-49333009D01*
X98255104Y-49333009D02*
X98159866Y-49380628D01*
X98159866Y-49380628D02*
X97778914Y-49380628D01*
X99302723Y-49856819D02*
X98731295Y-49856819D01*
X99017009Y-49856819D02*
X99017009Y-48856819D01*
X99017009Y-48856819D02*
X98921771Y-48999676D01*
X98921771Y-48999676D02*
X98826533Y-49094914D01*
X98826533Y-49094914D02*
X98731295Y-49142533D01*
X99921771Y-48856819D02*
X100017009Y-48856819D01*
X100017009Y-48856819D02*
X100112247Y-48904438D01*
X100112247Y-48904438D02*
X100159866Y-48952057D01*
X100159866Y-48952057D02*
X100207485Y-49047295D01*
X100207485Y-49047295D02*
X100255104Y-49237771D01*
X100255104Y-49237771D02*
X100255104Y-49475866D01*
X100255104Y-49475866D02*
X100207485Y-49666342D01*
X100207485Y-49666342D02*
X100159866Y-49761580D01*
X100159866Y-49761580D02*
X100112247Y-49809200D01*
X100112247Y-49809200D02*
X100017009Y-49856819D01*
X100017009Y-49856819D02*
X99921771Y-49856819D01*
X99921771Y-49856819D02*
X99826533Y-49809200D01*
X99826533Y-49809200D02*
X99778914Y-49761580D01*
X99778914Y-49761580D02*
X99731295Y-49666342D01*
X99731295Y-49666342D02*
X99683676Y-49475866D01*
X99683676Y-49475866D02*
X99683676Y-49237771D01*
X99683676Y-49237771D02*
X99731295Y-49047295D01*
X99731295Y-49047295D02*
X99778914Y-48952057D01*
X99778914Y-48952057D02*
X99826533Y-48904438D01*
X99826533Y-48904438D02*
X99921771Y-48856819D01*
X118030419Y-40298666D02*
X117554228Y-40631999D01*
X118030419Y-40870094D02*
X117030419Y-40870094D01*
X117030419Y-40870094D02*
X117030419Y-40489142D01*
X117030419Y-40489142D02*
X117078038Y-40393904D01*
X117078038Y-40393904D02*
X117125657Y-40346285D01*
X117125657Y-40346285D02*
X117220895Y-40298666D01*
X117220895Y-40298666D02*
X117363752Y-40298666D01*
X117363752Y-40298666D02*
X117458990Y-40346285D01*
X117458990Y-40346285D02*
X117506609Y-40393904D01*
X117506609Y-40393904D02*
X117554228Y-40489142D01*
X117554228Y-40489142D02*
X117554228Y-40870094D01*
X118030419Y-39346285D02*
X118030419Y-39917713D01*
X118030419Y-39631999D02*
X117030419Y-39631999D01*
X117030419Y-39631999D02*
X117173276Y-39727237D01*
X117173276Y-39727237D02*
X117268514Y-39822475D01*
X117268514Y-39822475D02*
X117316133Y-39917713D01*
X74400115Y-57721219D02*
X74400115Y-56721219D01*
X74876305Y-57721219D02*
X74876305Y-56721219D01*
X74876305Y-56721219D02*
X75209638Y-57435504D01*
X75209638Y-57435504D02*
X75542971Y-56721219D01*
X75542971Y-56721219D02*
X75542971Y-57721219D01*
X76019162Y-56721219D02*
X76019162Y-57530742D01*
X76019162Y-57530742D02*
X76066781Y-57625980D01*
X76066781Y-57625980D02*
X76114400Y-57673600D01*
X76114400Y-57673600D02*
X76209638Y-57721219D01*
X76209638Y-57721219D02*
X76400114Y-57721219D01*
X76400114Y-57721219D02*
X76495352Y-57673600D01*
X76495352Y-57673600D02*
X76542971Y-57625980D01*
X76542971Y-57625980D02*
X76590590Y-57530742D01*
X76590590Y-57530742D02*
X76590590Y-56721219D01*
X76828686Y-57816457D02*
X77590590Y-57816457D01*
X77828686Y-57721219D02*
X77828686Y-56721219D01*
X78495352Y-56721219D02*
X78685828Y-56721219D01*
X78685828Y-56721219D02*
X78781066Y-56768838D01*
X78781066Y-56768838D02*
X78876304Y-56864076D01*
X78876304Y-56864076D02*
X78923923Y-57054552D01*
X78923923Y-57054552D02*
X78923923Y-57387885D01*
X78923923Y-57387885D02*
X78876304Y-57578361D01*
X78876304Y-57578361D02*
X78781066Y-57673600D01*
X78781066Y-57673600D02*
X78685828Y-57721219D01*
X78685828Y-57721219D02*
X78495352Y-57721219D01*
X78495352Y-57721219D02*
X78400114Y-57673600D01*
X78400114Y-57673600D02*
X78304876Y-57578361D01*
X78304876Y-57578361D02*
X78257257Y-57387885D01*
X78257257Y-57387885D02*
X78257257Y-57054552D01*
X78257257Y-57054552D02*
X78304876Y-56864076D01*
X78304876Y-56864076D02*
X78400114Y-56768838D01*
X78400114Y-56768838D02*
X78495352Y-56721219D01*
X79876304Y-57721219D02*
X79304876Y-57721219D01*
X79590590Y-57721219D02*
X79590590Y-56721219D01*
X79590590Y-56721219D02*
X79495352Y-56864076D01*
X79495352Y-56864076D02*
X79400114Y-56959314D01*
X79400114Y-56959314D02*
X79304876Y-57006933D01*
X62711219Y-45651657D02*
X62235028Y-45984990D01*
X62711219Y-46223085D02*
X61711219Y-46223085D01*
X61711219Y-46223085D02*
X61711219Y-45842133D01*
X61711219Y-45842133D02*
X61758838Y-45746895D01*
X61758838Y-45746895D02*
X61806457Y-45699276D01*
X61806457Y-45699276D02*
X61901695Y-45651657D01*
X61901695Y-45651657D02*
X62044552Y-45651657D01*
X62044552Y-45651657D02*
X62139790Y-45699276D01*
X62139790Y-45699276D02*
X62187409Y-45746895D01*
X62187409Y-45746895D02*
X62235028Y-45842133D01*
X62235028Y-45842133D02*
X62235028Y-46223085D01*
X62711219Y-44699276D02*
X62711219Y-45270704D01*
X62711219Y-44984990D02*
X61711219Y-44984990D01*
X61711219Y-44984990D02*
X61854076Y-45080228D01*
X61854076Y-45080228D02*
X61949314Y-45175466D01*
X61949314Y-45175466D02*
X61996933Y-45270704D01*
X62711219Y-43746895D02*
X62711219Y-44318323D01*
X62711219Y-44032609D02*
X61711219Y-44032609D01*
X61711219Y-44032609D02*
X61854076Y-44127847D01*
X61854076Y-44127847D02*
X61949314Y-44223085D01*
X61949314Y-44223085D02*
X61996933Y-44318323D01*
X129017733Y-48410019D02*
X128684400Y-47933828D01*
X128446305Y-48410019D02*
X128446305Y-47410019D01*
X128446305Y-47410019D02*
X128827257Y-47410019D01*
X128827257Y-47410019D02*
X128922495Y-47457638D01*
X128922495Y-47457638D02*
X128970114Y-47505257D01*
X128970114Y-47505257D02*
X129017733Y-47600495D01*
X129017733Y-47600495D02*
X129017733Y-47743352D01*
X129017733Y-47743352D02*
X128970114Y-47838590D01*
X128970114Y-47838590D02*
X128922495Y-47886209D01*
X128922495Y-47886209D02*
X128827257Y-47933828D01*
X128827257Y-47933828D02*
X128446305Y-47933828D01*
X129874876Y-47743352D02*
X129874876Y-48410019D01*
X129636781Y-47362400D02*
X129398686Y-48076685D01*
X129398686Y-48076685D02*
X130017733Y-48076685D01*
X136276019Y-42292133D02*
X136990304Y-42292133D01*
X136990304Y-42292133D02*
X137133161Y-42339752D01*
X137133161Y-42339752D02*
X137228400Y-42434990D01*
X137228400Y-42434990D02*
X137276019Y-42577847D01*
X137276019Y-42577847D02*
X137276019Y-42673085D01*
X137276019Y-41292133D02*
X137276019Y-41863561D01*
X137276019Y-41577847D02*
X136276019Y-41577847D01*
X136276019Y-41577847D02*
X136418876Y-41673085D01*
X136418876Y-41673085D02*
X136514114Y-41768323D01*
X136514114Y-41768323D02*
X136561733Y-41863561D01*
X53630533Y-41525619D02*
X53297200Y-41049428D01*
X53059105Y-41525619D02*
X53059105Y-40525619D01*
X53059105Y-40525619D02*
X53440057Y-40525619D01*
X53440057Y-40525619D02*
X53535295Y-40573238D01*
X53535295Y-40573238D02*
X53582914Y-40620857D01*
X53582914Y-40620857D02*
X53630533Y-40716095D01*
X53630533Y-40716095D02*
X53630533Y-40858952D01*
X53630533Y-40858952D02*
X53582914Y-40954190D01*
X53582914Y-40954190D02*
X53535295Y-41001809D01*
X53535295Y-41001809D02*
X53440057Y-41049428D01*
X53440057Y-41049428D02*
X53059105Y-41049428D01*
X54201962Y-40954190D02*
X54106724Y-40906571D01*
X54106724Y-40906571D02*
X54059105Y-40858952D01*
X54059105Y-40858952D02*
X54011486Y-40763714D01*
X54011486Y-40763714D02*
X54011486Y-40716095D01*
X54011486Y-40716095D02*
X54059105Y-40620857D01*
X54059105Y-40620857D02*
X54106724Y-40573238D01*
X54106724Y-40573238D02*
X54201962Y-40525619D01*
X54201962Y-40525619D02*
X54392438Y-40525619D01*
X54392438Y-40525619D02*
X54487676Y-40573238D01*
X54487676Y-40573238D02*
X54535295Y-40620857D01*
X54535295Y-40620857D02*
X54582914Y-40716095D01*
X54582914Y-40716095D02*
X54582914Y-40763714D01*
X54582914Y-40763714D02*
X54535295Y-40858952D01*
X54535295Y-40858952D02*
X54487676Y-40906571D01*
X54487676Y-40906571D02*
X54392438Y-40954190D01*
X54392438Y-40954190D02*
X54201962Y-40954190D01*
X54201962Y-40954190D02*
X54106724Y-41001809D01*
X54106724Y-41001809D02*
X54059105Y-41049428D01*
X54059105Y-41049428D02*
X54011486Y-41144666D01*
X54011486Y-41144666D02*
X54011486Y-41335142D01*
X54011486Y-41335142D02*
X54059105Y-41430380D01*
X54059105Y-41430380D02*
X54106724Y-41478000D01*
X54106724Y-41478000D02*
X54201962Y-41525619D01*
X54201962Y-41525619D02*
X54392438Y-41525619D01*
X54392438Y-41525619D02*
X54487676Y-41478000D01*
X54487676Y-41478000D02*
X54535295Y-41430380D01*
X54535295Y-41430380D02*
X54582914Y-41335142D01*
X54582914Y-41335142D02*
X54582914Y-41144666D01*
X54582914Y-41144666D02*
X54535295Y-41049428D01*
X54535295Y-41049428D02*
X54487676Y-41001809D01*
X54487676Y-41001809D02*
X54392438Y-40954190D01*
X54528933Y-45386419D02*
X54195600Y-44910228D01*
X53957505Y-45386419D02*
X53957505Y-44386419D01*
X53957505Y-44386419D02*
X54338457Y-44386419D01*
X54338457Y-44386419D02*
X54433695Y-44434038D01*
X54433695Y-44434038D02*
X54481314Y-44481657D01*
X54481314Y-44481657D02*
X54528933Y-44576895D01*
X54528933Y-44576895D02*
X54528933Y-44719752D01*
X54528933Y-44719752D02*
X54481314Y-44814990D01*
X54481314Y-44814990D02*
X54433695Y-44862609D01*
X54433695Y-44862609D02*
X54338457Y-44910228D01*
X54338457Y-44910228D02*
X53957505Y-44910228D01*
X55005124Y-45386419D02*
X55195600Y-45386419D01*
X55195600Y-45386419D02*
X55290838Y-45338800D01*
X55290838Y-45338800D02*
X55338457Y-45291180D01*
X55338457Y-45291180D02*
X55433695Y-45148323D01*
X55433695Y-45148323D02*
X55481314Y-44957847D01*
X55481314Y-44957847D02*
X55481314Y-44576895D01*
X55481314Y-44576895D02*
X55433695Y-44481657D01*
X55433695Y-44481657D02*
X55386076Y-44434038D01*
X55386076Y-44434038D02*
X55290838Y-44386419D01*
X55290838Y-44386419D02*
X55100362Y-44386419D01*
X55100362Y-44386419D02*
X55005124Y-44434038D01*
X55005124Y-44434038D02*
X54957505Y-44481657D01*
X54957505Y-44481657D02*
X54909886Y-44576895D01*
X54909886Y-44576895D02*
X54909886Y-44814990D01*
X54909886Y-44814990D02*
X54957505Y-44910228D01*
X54957505Y-44910228D02*
X55005124Y-44957847D01*
X55005124Y-44957847D02*
X55100362Y-45005466D01*
X55100362Y-45005466D02*
X55290838Y-45005466D01*
X55290838Y-45005466D02*
X55386076Y-44957847D01*
X55386076Y-44957847D02*
X55433695Y-44910228D01*
X55433695Y-44910228D02*
X55481314Y-44814990D01*
X113248233Y-54051580D02*
X113200614Y-54099200D01*
X113200614Y-54099200D02*
X113057757Y-54146819D01*
X113057757Y-54146819D02*
X112962519Y-54146819D01*
X112962519Y-54146819D02*
X112819662Y-54099200D01*
X112819662Y-54099200D02*
X112724424Y-54003961D01*
X112724424Y-54003961D02*
X112676805Y-53908723D01*
X112676805Y-53908723D02*
X112629186Y-53718247D01*
X112629186Y-53718247D02*
X112629186Y-53575390D01*
X112629186Y-53575390D02*
X112676805Y-53384914D01*
X112676805Y-53384914D02*
X112724424Y-53289676D01*
X112724424Y-53289676D02*
X112819662Y-53194438D01*
X112819662Y-53194438D02*
X112962519Y-53146819D01*
X112962519Y-53146819D02*
X113057757Y-53146819D01*
X113057757Y-53146819D02*
X113200614Y-53194438D01*
X113200614Y-53194438D02*
X113248233Y-53242057D01*
X113629186Y-53242057D02*
X113676805Y-53194438D01*
X113676805Y-53194438D02*
X113772043Y-53146819D01*
X113772043Y-53146819D02*
X114010138Y-53146819D01*
X114010138Y-53146819D02*
X114105376Y-53194438D01*
X114105376Y-53194438D02*
X114152995Y-53242057D01*
X114152995Y-53242057D02*
X114200614Y-53337295D01*
X114200614Y-53337295D02*
X114200614Y-53432533D01*
X114200614Y-53432533D02*
X114152995Y-53575390D01*
X114152995Y-53575390D02*
X113581567Y-54146819D01*
X113581567Y-54146819D02*
X114200614Y-54146819D01*
X101606361Y-53331257D02*
X101511123Y-53283638D01*
X101511123Y-53283638D02*
X101415885Y-53188400D01*
X101415885Y-53188400D02*
X101273028Y-53045542D01*
X101273028Y-53045542D02*
X101177790Y-52997923D01*
X101177790Y-52997923D02*
X101082552Y-52997923D01*
X101130171Y-53236019D02*
X101034933Y-53188400D01*
X101034933Y-53188400D02*
X100939695Y-53093161D01*
X100939695Y-53093161D02*
X100892076Y-52902685D01*
X100892076Y-52902685D02*
X100892076Y-52569352D01*
X100892076Y-52569352D02*
X100939695Y-52378876D01*
X100939695Y-52378876D02*
X101034933Y-52283638D01*
X101034933Y-52283638D02*
X101130171Y-52236019D01*
X101130171Y-52236019D02*
X101320647Y-52236019D01*
X101320647Y-52236019D02*
X101415885Y-52283638D01*
X101415885Y-52283638D02*
X101511123Y-52378876D01*
X101511123Y-52378876D02*
X101558742Y-52569352D01*
X101558742Y-52569352D02*
X101558742Y-52902685D01*
X101558742Y-52902685D02*
X101511123Y-53093161D01*
X101511123Y-53093161D02*
X101415885Y-53188400D01*
X101415885Y-53188400D02*
X101320647Y-53236019D01*
X101320647Y-53236019D02*
X101130171Y-53236019D01*
X101939695Y-52331257D02*
X101987314Y-52283638D01*
X101987314Y-52283638D02*
X102082552Y-52236019D01*
X102082552Y-52236019D02*
X102320647Y-52236019D01*
X102320647Y-52236019D02*
X102415885Y-52283638D01*
X102415885Y-52283638D02*
X102463504Y-52331257D01*
X102463504Y-52331257D02*
X102511123Y-52426495D01*
X102511123Y-52426495D02*
X102511123Y-52521733D01*
X102511123Y-52521733D02*
X102463504Y-52664590D01*
X102463504Y-52664590D02*
X101892076Y-53236019D01*
X101892076Y-53236019D02*
X102511123Y-53236019D01*
X116586380Y-34333566D02*
X116634000Y-34381185D01*
X116634000Y-34381185D02*
X116681619Y-34524042D01*
X116681619Y-34524042D02*
X116681619Y-34619280D01*
X116681619Y-34619280D02*
X116634000Y-34762137D01*
X116634000Y-34762137D02*
X116538761Y-34857375D01*
X116538761Y-34857375D02*
X116443523Y-34904994D01*
X116443523Y-34904994D02*
X116253047Y-34952613D01*
X116253047Y-34952613D02*
X116110190Y-34952613D01*
X116110190Y-34952613D02*
X115919714Y-34904994D01*
X115919714Y-34904994D02*
X115824476Y-34857375D01*
X115824476Y-34857375D02*
X115729238Y-34762137D01*
X115729238Y-34762137D02*
X115681619Y-34619280D01*
X115681619Y-34619280D02*
X115681619Y-34524042D01*
X115681619Y-34524042D02*
X115729238Y-34381185D01*
X115729238Y-34381185D02*
X115776857Y-34333566D01*
X115681619Y-33476423D02*
X115681619Y-33666899D01*
X115681619Y-33666899D02*
X115729238Y-33762137D01*
X115729238Y-33762137D02*
X115776857Y-33809756D01*
X115776857Y-33809756D02*
X115919714Y-33904994D01*
X115919714Y-33904994D02*
X116110190Y-33952613D01*
X116110190Y-33952613D02*
X116491142Y-33952613D01*
X116491142Y-33952613D02*
X116586380Y-33904994D01*
X116586380Y-33904994D02*
X116634000Y-33857375D01*
X116634000Y-33857375D02*
X116681619Y-33762137D01*
X116681619Y-33762137D02*
X116681619Y-33571661D01*
X116681619Y-33571661D02*
X116634000Y-33476423D01*
X116634000Y-33476423D02*
X116586380Y-33428804D01*
X116586380Y-33428804D02*
X116491142Y-33381185D01*
X116491142Y-33381185D02*
X116253047Y-33381185D01*
X116253047Y-33381185D02*
X116157809Y-33428804D01*
X116157809Y-33428804D02*
X116110190Y-33476423D01*
X116110190Y-33476423D02*
X116062571Y-33571661D01*
X116062571Y-33571661D02*
X116062571Y-33762137D01*
X116062571Y-33762137D02*
X116110190Y-33857375D01*
X116110190Y-33857375D02*
X116157809Y-33904994D01*
X116157809Y-33904994D02*
X116253047Y-33952613D01*
X52933695Y-47054819D02*
X52933695Y-46054819D01*
X52933695Y-46531009D02*
X53505123Y-46531009D01*
X53505123Y-47054819D02*
X53505123Y-46054819D01*
X54505123Y-47054819D02*
X53933695Y-47054819D01*
X54219409Y-47054819D02*
X54219409Y-46054819D01*
X54219409Y-46054819D02*
X54124171Y-46197676D01*
X54124171Y-46197676D02*
X54028933Y-46292914D01*
X54028933Y-46292914D02*
X53933695Y-46340533D01*
X129322533Y-41609180D02*
X129274914Y-41656800D01*
X129274914Y-41656800D02*
X129132057Y-41704419D01*
X129132057Y-41704419D02*
X129036819Y-41704419D01*
X129036819Y-41704419D02*
X128893962Y-41656800D01*
X128893962Y-41656800D02*
X128798724Y-41561561D01*
X128798724Y-41561561D02*
X128751105Y-41466323D01*
X128751105Y-41466323D02*
X128703486Y-41275847D01*
X128703486Y-41275847D02*
X128703486Y-41132990D01*
X128703486Y-41132990D02*
X128751105Y-40942514D01*
X128751105Y-40942514D02*
X128798724Y-40847276D01*
X128798724Y-40847276D02*
X128893962Y-40752038D01*
X128893962Y-40752038D02*
X129036819Y-40704419D01*
X129036819Y-40704419D02*
X129132057Y-40704419D01*
X129132057Y-40704419D02*
X129274914Y-40752038D01*
X129274914Y-40752038D02*
X129322533Y-40799657D01*
X130227295Y-40704419D02*
X129751105Y-40704419D01*
X129751105Y-40704419D02*
X129703486Y-41180609D01*
X129703486Y-41180609D02*
X129751105Y-41132990D01*
X129751105Y-41132990D02*
X129846343Y-41085371D01*
X129846343Y-41085371D02*
X130084438Y-41085371D01*
X130084438Y-41085371D02*
X130179676Y-41132990D01*
X130179676Y-41132990D02*
X130227295Y-41180609D01*
X130227295Y-41180609D02*
X130274914Y-41275847D01*
X130274914Y-41275847D02*
X130274914Y-41513942D01*
X130274914Y-41513942D02*
X130227295Y-41609180D01*
X130227295Y-41609180D02*
X130179676Y-41656800D01*
X130179676Y-41656800D02*
X130084438Y-41704419D01*
X130084438Y-41704419D02*
X129846343Y-41704419D01*
X129846343Y-41704419D02*
X129751105Y-41656800D01*
X129751105Y-41656800D02*
X129703486Y-41609180D01*
D12*
%TO.C,D2*%
X126359200Y-34193600D02*
X126359200Y-36113600D01*
X126359200Y-36113600D02*
X129219200Y-36113600D01*
X129219200Y-34193600D02*
X126359200Y-34193600D01*
%TO.C,Q1*%
X121631400Y-48809600D02*
X121631400Y-49832070D01*
X121631400Y-50447130D02*
X121631400Y-51469600D01*
X124231400Y-48809600D02*
X121631400Y-48809600D01*
X124231400Y-48809600D02*
X124231400Y-49379600D01*
X124231400Y-50899600D02*
X124231400Y-51469600D01*
X124231400Y-51469600D02*
X121631400Y-51469600D01*
X125626400Y-50139600D02*
X125626400Y-51469600D01*
X125626400Y-51469600D02*
X124866400Y-51469600D01*
%TO.C,R5*%
X127395464Y-38533400D02*
X126941336Y-38533400D01*
X127395464Y-40003400D02*
X126941336Y-40003400D01*
%TO.C,FSR_V1*%
X42984000Y-58970400D02*
X42984000Y-69350400D01*
X42984000Y-60350400D02*
X43984000Y-60350400D01*
X42984000Y-60600400D02*
X43984000Y-60600400D01*
X42984000Y-67720400D02*
X43984000Y-67720400D01*
X42984000Y-69350400D02*
X49004000Y-69350400D01*
X43984000Y-60350400D02*
X43984000Y-67970400D01*
X43984000Y-60350400D02*
X44514000Y-60600400D01*
X43984000Y-67970400D02*
X42984000Y-67970400D01*
X44514000Y-60600400D02*
X44514000Y-67720400D01*
X44514000Y-67720400D02*
X43984000Y-67970400D01*
X47974000Y-58680400D02*
X43974000Y-58680400D01*
X48404000Y-59550400D02*
X48404000Y-61150400D01*
X48404000Y-61150400D02*
X49004000Y-61150400D01*
X48404000Y-62090400D02*
X48404000Y-63690400D01*
X48404000Y-63690400D02*
X49004000Y-63690400D01*
X48404000Y-64630400D02*
X48404000Y-66230400D01*
X48404000Y-66230400D02*
X49004000Y-66230400D01*
X48404000Y-67170400D02*
X48404000Y-68770400D01*
X48404000Y-68770400D02*
X49004000Y-68770400D01*
X49004000Y-58970400D02*
X42984000Y-58970400D01*
X49004000Y-59550400D02*
X48404000Y-59550400D01*
X49004000Y-62090400D02*
X48404000Y-62090400D01*
X49004000Y-64630400D02*
X48404000Y-64630400D01*
X49004000Y-67170400D02*
X48404000Y-67170400D01*
X49004000Y-69350400D02*
X49004000Y-58970400D01*
%TO.C,D1*%
X113848000Y-43509800D02*
X113848000Y-46369800D01*
X113848000Y-46369800D02*
X115768000Y-46369800D01*
X115768000Y-46369800D02*
X115768000Y-43509800D01*
%TO.C,Q3*%
X93234600Y-48392000D02*
X93234600Y-45792000D01*
X93234600Y-49787000D02*
X93234600Y-49027000D01*
X93804600Y-48392000D02*
X93234600Y-48392000D01*
X94257070Y-45792000D02*
X93234600Y-45792000D01*
X94564600Y-49787000D02*
X93234600Y-49787000D01*
X95894600Y-45792000D02*
X94872130Y-45792000D01*
X95894600Y-48392000D02*
X95324600Y-48392000D01*
X95894600Y-48392000D02*
X95894600Y-45792000D01*
%TO.C,R3*%
X121591400Y-39003464D02*
X121591400Y-38549336D01*
X123061400Y-39003464D02*
X123061400Y-38549336D01*
%TO.C,C7*%
X60428200Y-41184552D02*
X60428200Y-40662048D01*
X61898200Y-41184552D02*
X61898200Y-40662048D01*
%TO.C,C1*%
X109043800Y-66562248D02*
X109043800Y-67084752D01*
X110513800Y-66562248D02*
X110513800Y-67084752D01*
%TO.C,C4*%
X118848200Y-50908852D02*
X118848200Y-50386348D01*
X120318200Y-50908852D02*
X120318200Y-50386348D01*
%TO.C,R12*%
X89790536Y-48287000D02*
X90244664Y-48287000D01*
X89790536Y-49757000D02*
X90244664Y-49757000D01*
%TO.C,FSR_IO1*%
X42984000Y-31843200D02*
X42984000Y-42223200D01*
X42984000Y-33223200D02*
X43984000Y-33223200D01*
X42984000Y-33473200D02*
X43984000Y-33473200D01*
X42984000Y-40593200D02*
X43984000Y-40593200D01*
X42984000Y-42223200D02*
X49004000Y-42223200D01*
X43984000Y-33223200D02*
X43984000Y-40843200D01*
X43984000Y-33223200D02*
X44514000Y-33473200D01*
X43984000Y-40843200D02*
X42984000Y-40843200D01*
X44514000Y-33473200D02*
X44514000Y-40593200D01*
X44514000Y-40593200D02*
X43984000Y-40843200D01*
X47974000Y-31553200D02*
X43974000Y-31553200D01*
X48404000Y-32423200D02*
X48404000Y-34023200D01*
X48404000Y-34023200D02*
X49004000Y-34023200D01*
X48404000Y-34963200D02*
X48404000Y-36563200D01*
X48404000Y-36563200D02*
X49004000Y-36563200D01*
X48404000Y-37503200D02*
X48404000Y-39103200D01*
X48404000Y-39103200D02*
X49004000Y-39103200D01*
X48404000Y-40043200D02*
X48404000Y-41643200D01*
X48404000Y-41643200D02*
X49004000Y-41643200D01*
X49004000Y-31843200D02*
X42984000Y-31843200D01*
X49004000Y-32423200D02*
X48404000Y-32423200D01*
X49004000Y-34963200D02*
X48404000Y-34963200D01*
X49004000Y-37503200D02*
X48404000Y-37503200D01*
X49004000Y-40043200D02*
X48404000Y-40043200D01*
X49004000Y-42223200D02*
X49004000Y-31843200D01*
%TO.C,R7*%
X53465464Y-35231400D02*
X53011336Y-35231400D01*
X53465464Y-36701400D02*
X53011336Y-36701400D01*
D11*
%TO.C,BATTCHARGER1*%
X122977800Y-41238700D02*
X118477800Y-41238700D01*
X122977800Y-46688700D02*
X118477800Y-46688700D01*
D12*
X124607800Y-46478700D02*
X124277800Y-46238700D01*
X124607800Y-45998700D01*
X124607800Y-46478700D01*
G36*
X124607800Y-46478700D02*
G01*
X124277800Y-46238700D01*
X124607800Y-45998700D01*
X124607800Y-46478700D01*
G37*
%TO.C,3V3LR1*%
X104082800Y-56764400D02*
X105342800Y-56764400D01*
X104082800Y-60524400D02*
X104082800Y-56764400D01*
X110902800Y-56764400D02*
X109642800Y-56764400D01*
X110902800Y-60524400D02*
X110902800Y-56764400D01*
X104182800Y-61804400D02*
X103852800Y-62044400D01*
X103852800Y-61564400D01*
X104182800Y-61804400D01*
G36*
X104182800Y-61804400D02*
G01*
X103852800Y-62044400D01*
X103852800Y-61564400D01*
X104182800Y-61804400D01*
G37*
%TO.C,R6*%
X56107064Y-32488200D02*
X55652936Y-32488200D01*
X56107064Y-33958200D02*
X55652936Y-33958200D01*
%TO.C,C3*%
X121185000Y-66562248D02*
X121185000Y-67084752D01*
X122655000Y-66562248D02*
X122655000Y-67084752D01*
%TO.C,1V8LR1*%
X116224000Y-56764400D02*
X117484000Y-56764400D01*
X116224000Y-60524400D02*
X116224000Y-56764400D01*
X123044000Y-56764400D02*
X121784000Y-56764400D01*
X123044000Y-60524400D02*
X123044000Y-56764400D01*
X116324000Y-61804400D02*
X115994000Y-62044400D01*
X115994000Y-61564400D01*
X116324000Y-61804400D01*
G36*
X116324000Y-61804400D02*
G01*
X115994000Y-62044400D01*
X115994000Y-61564400D01*
X116324000Y-61804400D01*
G37*
%TO.C,U3*%
X67952800Y-24872000D02*
X67952800Y-31072000D01*
X67952800Y-24872000D02*
X86352800Y-24872000D01*
X67952800Y-49722000D02*
X67952800Y-50722000D01*
X67952800Y-50722000D02*
X69452800Y-50722000D01*
X86352800Y-24872000D02*
X86352800Y-31072000D01*
X86352800Y-50722000D02*
X84852800Y-50722000D01*
X86352800Y-50722000D02*
X86352800Y-49722000D01*
X67952800Y-31747000D02*
X67452800Y-31747000D01*
X67952800Y-31247000D01*
X67952800Y-31747000D01*
G36*
X67952800Y-31747000D02*
G01*
X67452800Y-31747000D01*
X67952800Y-31247000D01*
X67952800Y-31747000D01*
G37*
%TO.C,BATTIO1*%
X134485600Y-61916800D02*
X134485600Y-69756800D01*
X134485600Y-64096800D02*
X135085600Y-64096800D01*
X134485600Y-66636800D02*
X135085600Y-66636800D01*
X134485600Y-69176800D02*
X135085600Y-69176800D01*
X134485600Y-69756800D02*
X140505600Y-69756800D01*
X135085600Y-62496800D02*
X134485600Y-62496800D01*
X135085600Y-64096800D02*
X135085600Y-62496800D01*
X135085600Y-65036800D02*
X134485600Y-65036800D01*
X135085600Y-66636800D02*
X135085600Y-65036800D01*
X135085600Y-67576800D02*
X134485600Y-67576800D01*
X135085600Y-69176800D02*
X135085600Y-67576800D01*
X135515600Y-70046800D02*
X139515600Y-70046800D01*
X138975600Y-63546800D02*
X139505600Y-63296800D01*
X138975600Y-68126800D02*
X138975600Y-63546800D01*
X139505600Y-63296800D02*
X140505600Y-63296800D01*
X139505600Y-68376800D02*
X138975600Y-68126800D01*
X139505600Y-68376800D02*
X139505600Y-63296800D01*
X140505600Y-61916800D02*
X134485600Y-61916800D01*
X140505600Y-63546800D02*
X139505600Y-63546800D01*
X140505600Y-68126800D02*
X139505600Y-68126800D01*
X140505600Y-68376800D02*
X139505600Y-68376800D01*
X140505600Y-69756800D02*
X140505600Y-61916800D01*
%TO.C,R10*%
X99220264Y-47017000D02*
X98766136Y-47017000D01*
X99220264Y-48487000D02*
X98766136Y-48487000D01*
%TO.C,R1*%
X115190600Y-39904936D02*
X115190600Y-40359064D01*
X116660600Y-39904936D02*
X116660600Y-40359064D01*
%TO.C,IMU_IO1*%
X70364400Y-59386400D02*
X70364400Y-63386400D01*
X70654400Y-58356400D02*
X70654400Y-64376400D01*
X70654400Y-64376400D02*
X83574400Y-64376400D01*
X71234400Y-58356400D02*
X71234400Y-58956400D01*
X71234400Y-58956400D02*
X72834400Y-58956400D01*
X72034400Y-63376400D02*
X72284400Y-62846400D01*
X72034400Y-63376400D02*
X82194400Y-63376400D01*
X72034400Y-64376400D02*
X72034400Y-63376400D01*
X72284400Y-62846400D02*
X81944400Y-62846400D01*
X72284400Y-64376400D02*
X72284400Y-63376400D01*
X72834400Y-58956400D02*
X72834400Y-58356400D01*
X73774400Y-58356400D02*
X73774400Y-58956400D01*
X73774400Y-58956400D02*
X75374400Y-58956400D01*
X75374400Y-58956400D02*
X75374400Y-58356400D01*
X76314400Y-58356400D02*
X76314400Y-58956400D01*
X76314400Y-58956400D02*
X77914400Y-58956400D01*
X77914400Y-58956400D02*
X77914400Y-58356400D01*
X78854400Y-58356400D02*
X78854400Y-58956400D01*
X78854400Y-58956400D02*
X80454400Y-58956400D01*
X80454400Y-58956400D02*
X80454400Y-58356400D01*
X81394400Y-58356400D02*
X81394400Y-58956400D01*
X81394400Y-58956400D02*
X82994400Y-58956400D01*
X81944400Y-62846400D02*
X82194400Y-63376400D01*
X81944400Y-64376400D02*
X81944400Y-63376400D01*
X82194400Y-63376400D02*
X82194400Y-64376400D01*
X82994400Y-58956400D02*
X82994400Y-58356400D01*
X83574400Y-58356400D02*
X70654400Y-58356400D01*
X83574400Y-64376400D02*
X83574400Y-58356400D01*
%TO.C,R11*%
X63171400Y-45235864D02*
X63171400Y-44781736D01*
X64641400Y-45235864D02*
X64641400Y-44781736D01*
%TO.C,R4*%
X128767064Y-42495800D02*
X128312936Y-42495800D01*
X128767064Y-43965800D02*
X128312936Y-43965800D01*
%TO.C,J1*%
X134921200Y-37258800D02*
X136921200Y-37258800D01*
X134921200Y-46658800D02*
X136921200Y-46658800D01*
X138821200Y-37258800D02*
X140721200Y-37258800D01*
X138821200Y-46658800D02*
X140721200Y-46658800D01*
X140721200Y-46658800D02*
X140721200Y-37258800D01*
%TO.C,R8*%
X54024264Y-38685800D02*
X53570136Y-38685800D01*
X54024264Y-40155800D02*
X53570136Y-40155800D01*
%TO.C,R2*%
X104319400Y-44816536D02*
X104319400Y-45270664D01*
X105789400Y-44816536D02*
X105789400Y-45270664D01*
%TO.C,R9*%
X54922664Y-42546600D02*
X54468536Y-42546600D01*
X54922664Y-44016600D02*
X54468536Y-44016600D01*
%TO.C,U2*%
X102429300Y-36884400D02*
X102429300Y-37359400D01*
X102429300Y-41104400D02*
X102429300Y-40629400D01*
X102904300Y-36884400D02*
X102429300Y-36884400D01*
X102904300Y-41104400D02*
X102429300Y-41104400D01*
X106174300Y-36884400D02*
X106649300Y-36884400D01*
X106174300Y-41104400D02*
X106349300Y-41104400D01*
X106649300Y-36884400D02*
X106649300Y-37359400D01*
X106649300Y-40629400D02*
X106649300Y-40864400D01*
X106889300Y-41434400D02*
X106409300Y-41434400D01*
X106649300Y-41104400D01*
X106889300Y-41434400D01*
G36*
X106889300Y-41434400D02*
G01*
X106409300Y-41434400D01*
X106649300Y-41104400D01*
X106889300Y-41434400D01*
G37*
%TO.C,C2*%
X113153648Y-54637000D02*
X113676152Y-54637000D01*
X113153648Y-56107000D02*
X113676152Y-56107000D01*
%TO.C,Q2*%
X101489200Y-50063400D02*
X101489200Y-47463400D01*
X101489200Y-51458400D02*
X101489200Y-50698400D01*
X102059200Y-50063400D02*
X101489200Y-50063400D01*
X102511670Y-47463400D02*
X101489200Y-47463400D01*
X102819200Y-51458400D02*
X101489200Y-51458400D01*
X104149200Y-47463400D02*
X103126730Y-47463400D01*
X104149200Y-50063400D02*
X103579200Y-50063400D01*
X104149200Y-50063400D02*
X104149200Y-47463400D01*
%TO.C,C6*%
X117171800Y-34428152D02*
X117171800Y-33905648D01*
X118641800Y-34428152D02*
X118641800Y-33905648D01*
%TO.C,C5*%
X128923148Y-45493000D02*
X129445652Y-45493000D01*
X128923148Y-46963000D02*
X129445652Y-46963000D01*
%TD*%
M02*
