M48
; DRILL file {KiCad 8.0.5} date 2024-10-21T21:49:30-0500
; FORMAT={-:-/ absolute / inch / decimal}
; #@! TF.CreationDate,2024-10-21T21:49:30-05:00
; #@! TF.GenerationSoftware,Kicad,Pcbnew,8.0.5
; #@! TF.FileFunction,Plated,1,2,PTH
FMAT,2
INCH
; #@! TA.AperFunction,Plated,PTH,ComponentDrill
T1C0.0079
; #@! TA.AperFunction,Plated,PTH,ViaDrill
T2C0.0118
; #@! TA.AperFunction,Plated,PTH,ComponentDrill
T3C0.0236
; #@! TA.AperFunction,Plated,PTH,ComponentDrill
T4C0.0276
; #@! TA.AperFunction,Plated,PTH,ComponentDrill
T5C0.0469
%
G90
G05
T1
X6.4248Y-2.2023
X6.4248Y-2.2574
X6.4523Y-2.1748
X6.4523Y-2.2299
X6.4523Y-2.285
X6.4799Y-2.2023
X6.4799Y-2.2574
X6.5074Y-2.1748
X6.5074Y-2.2299
X6.5074Y-2.285
X6.535Y-2.2023
X6.535Y-2.2574
T2
X5.1Y-3.15
X5.265Y-3.15
X5.505Y-2.46
X5.605Y-2.825
X5.605Y-2.825
X5.605Y-2.825
X5.605Y-2.825
X5.605Y-2.915
X5.725Y-2.575
X5.84Y-2.125
X6.015Y-1.98
X6.735Y-2.74
X6.735Y-2.81
X7.0Y-2.575
X7.0Y-2.575
X7.01Y-2.27
X7.1Y-2.275
X7.47Y-2.3
X7.535Y-2.245
X7.55Y-2.295
X7.64Y-2.31
X7.68Y-2.21
X7.79Y-2.2
X8.135Y-2.045
X8.135Y-2.145
X8.155Y-2.245
T4
X5.505Y-2.73
X5.555Y-2.575
X5.555Y-2.73
X5.605Y-2.575
X5.605Y-2.73
X5.655Y-2.575
X6.894Y-3.2952
X6.894Y-3.3452
X6.894Y-3.3952
T5
X4.765Y-1.99
X4.765Y-2.09
X4.765Y-2.19
X4.765Y-2.29
X4.77Y-2.54
X4.77Y-2.64
X4.77Y-2.74
X4.77Y-2.84
X7.065Y-3.675
X7.165Y-3.675
X7.265Y-3.675
X8.315Y-1.845
X8.315Y-1.945
X8.315Y-2.045
X8.315Y-2.145
X8.315Y-2.245
T3
G00X4.9022Y-3.3848
M15
G01X4.8786Y-3.3848
M16
G05
G00X4.9022Y-3.725
M15
G01X4.8786Y-3.725
M16
G05
G00X5.0767Y-3.3848
M15
G01X5.0333Y-3.3848
M16
G05
G00X5.0767Y-3.725
M15
G01X5.0333Y-3.725
M16
G05
M30
