%TF.GenerationSoftware,KiCad,Pcbnew,8.0.5*%
%TF.CreationDate,2024-10-22T09:55:14-05:00*%
%TF.ProjectId,golf_club_draft,676f6c66-5f63-46c7-9562-5f6472616674,rev?*%
%TF.SameCoordinates,Original*%
%TF.FileFunction,Copper,L1,Top*%
%TF.FilePolarity,Positive*%
%FSLAX46Y46*%
G04 Gerber Fmt 4.6, Leading zero omitted, Abs format (unit mm)*
G04 Created by KiCad (PCBNEW 8.0.5) date 2024-10-22 09:55:14*
%MOMM*%
%LPD*%
G01*
G04 APERTURE LIST*
G04 Aperture macros list*
%AMRoundRect*
0 Rectangle with rounded corners*
0 $1 Rounding radius*
0 $2 $3 $4 $5 $6 $7 $8 $9 X,Y pos of 4 corners*
0 Add a 4 corners polygon primitive as box body*
4,1,4,$2,$3,$4,$5,$6,$7,$8,$9,$2,$3,0*
0 Add four circle primitives for the rounded corners*
1,1,$1+$1,$2,$3*
1,1,$1+$1,$4,$5*
1,1,$1+$1,$6,$7*
1,1,$1+$1,$8,$9*
0 Add four rect primitives between the rounded corners*
20,1,$1+$1,$2,$3,$4,$5,0*
20,1,$1+$1,$4,$5,$6,$7,0*
20,1,$1+$1,$6,$7,$8,$9,0*
20,1,$1+$1,$8,$9,$2,$3,0*%
G04 Aperture macros list end*
%ADD10C,0.300000*%
%TA.AperFunction,NonConductor*%
%ADD11C,0.300000*%
%TD*%
%TA.AperFunction,NonConductor*%
%ADD12C,0.200000*%
%TD*%
%TA.AperFunction,SMDPad,CuDef*%
%ADD13RoundRect,0.250000X0.475000X-0.337500X0.475000X0.337500X-0.475000X0.337500X-0.475000X-0.337500X0*%
%TD*%
%TA.AperFunction,SMDPad,CuDef*%
%ADD14RoundRect,0.250000X0.325000X0.450000X-0.325000X0.450000X-0.325000X-0.450000X0.325000X-0.450000X0*%
%TD*%
%TA.AperFunction,ComponentPad*%
%ADD15R,1.000000X1.000000*%
%TD*%
%TA.AperFunction,ComponentPad*%
%ADD16O,1.000000X1.000000*%
%TD*%
%TA.AperFunction,SMDPad,CuDef*%
%ADD17RoundRect,0.250000X-0.350000X-0.450000X0.350000X-0.450000X0.350000X0.450000X-0.350000X0.450000X0*%
%TD*%
%TA.AperFunction,ComponentPad*%
%ADD18RoundRect,0.250000X0.845000X-0.620000X0.845000X0.620000X-0.845000X0.620000X-0.845000X-0.620000X0*%
%TD*%
%TA.AperFunction,ComponentPad*%
%ADD19O,2.190000X1.740000*%
%TD*%
%TA.AperFunction,SMDPad,CuDef*%
%ADD20RoundRect,0.250000X0.450000X-0.350000X0.450000X0.350000X-0.450000X0.350000X-0.450000X-0.350000X0*%
%TD*%
%TA.AperFunction,SMDPad,CuDef*%
%ADD21RoundRect,0.250000X-0.475000X0.337500X-0.475000X-0.337500X0.475000X-0.337500X0.475000X0.337500X0*%
%TD*%
%TA.AperFunction,SMDPad,CuDef*%
%ADD22RoundRect,0.250000X-0.337500X-0.475000X0.337500X-0.475000X0.337500X0.475000X-0.337500X0.475000X0*%
%TD*%
%TA.AperFunction,ComponentPad*%
%ADD23RoundRect,0.250000X-0.845000X0.620000X-0.845000X-0.620000X0.845000X-0.620000X0.845000X0.620000X0*%
%TD*%
%TA.AperFunction,SMDPad,CuDef*%
%ADD24RoundRect,0.250000X0.350000X0.450000X-0.350000X0.450000X-0.350000X-0.450000X0.350000X-0.450000X0*%
%TD*%
%TA.AperFunction,SMDPad,CuDef*%
%ADD25R,1.050000X0.450000*%
%TD*%
%TA.AperFunction,SMDPad,CuDef*%
%ADD26R,1.470000X0.895000*%
%TD*%
%TA.AperFunction,SMDPad,CuDef*%
%ADD27RoundRect,0.375000X0.375000X-0.625000X0.375000X0.625000X-0.375000X0.625000X-0.375000X-0.625000X0*%
%TD*%
%TA.AperFunction,SMDPad,CuDef*%
%ADD28RoundRect,0.500000X1.400000X-0.500000X1.400000X0.500000X-1.400000X0.500000X-1.400000X-0.500000X0*%
%TD*%
%TA.AperFunction,SMDPad,CuDef*%
%ADD29RoundRect,0.250000X-0.450000X0.350000X-0.450000X-0.350000X0.450000X-0.350000X0.450000X0.350000X0*%
%TD*%
%TA.AperFunction,SMDPad,CuDef*%
%ADD30R,1.500000X0.900000*%
%TD*%
%TA.AperFunction,SMDPad,CuDef*%
%ADD31R,0.900000X1.500000*%
%TD*%
%TA.AperFunction,HeatsinkPad*%
%ADD32C,0.600000*%
%TD*%
%TA.AperFunction,SMDPad,CuDef*%
%ADD33R,3.900000X3.900000*%
%TD*%
%TA.AperFunction,ComponentPad*%
%ADD34RoundRect,0.250000X0.620000X0.845000X-0.620000X0.845000X-0.620000X-0.845000X0.620000X-0.845000X0*%
%TD*%
%TA.AperFunction,ComponentPad*%
%ADD35O,1.740000X2.190000*%
%TD*%
%TA.AperFunction,SMDPad,CuDef*%
%ADD36RoundRect,0.062500X-0.350000X-0.062500X0.350000X-0.062500X0.350000X0.062500X-0.350000X0.062500X0*%
%TD*%
%TA.AperFunction,SMDPad,CuDef*%
%ADD37RoundRect,0.062500X-0.062500X-0.350000X0.062500X-0.350000X0.062500X0.350000X-0.062500X0.350000X0*%
%TD*%
%TA.AperFunction,HeatsinkPad*%
%ADD38R,2.600000X2.600000*%
%TD*%
%TA.AperFunction,SMDPad,CuDef*%
%ADD39RoundRect,0.050000X0.225000X0.050000X-0.225000X0.050000X-0.225000X-0.050000X0.225000X-0.050000X0*%
%TD*%
%TA.AperFunction,SMDPad,CuDef*%
%ADD40RoundRect,0.050000X-0.050000X0.225000X-0.050000X-0.225000X0.050000X-0.225000X0.050000X0.225000X0*%
%TD*%
%TA.AperFunction,SMDPad,CuDef*%
%ADD41R,1.450000X0.600000*%
%TD*%
%TA.AperFunction,SMDPad,CuDef*%
%ADD42R,1.450000X0.300000*%
%TD*%
%TA.AperFunction,ComponentPad*%
%ADD43O,2.100000X1.000000*%
%TD*%
%TA.AperFunction,ComponentPad*%
%ADD44O,1.600000X1.000000*%
%TD*%
%TA.AperFunction,ViaPad*%
%ADD45C,0.600000*%
%TD*%
%TA.AperFunction,Conductor*%
%ADD46C,0.254000*%
%TD*%
%TA.AperFunction,Conductor*%
%ADD47C,0.508000*%
%TD*%
%TA.AperFunction,Conductor*%
%ADD48C,0.762000*%
%TD*%
%TA.AperFunction,Conductor*%
%ADD49C,0.152400*%
%TD*%
%TA.AperFunction,Conductor*%
%ADD50C,0.200000*%
%TD*%
G04 APERTURE END LIST*
D10*
D11*
X160921572Y-35478328D02*
X161850144Y-35478328D01*
X161850144Y-35478328D02*
X161350144Y-36049757D01*
X161350144Y-36049757D02*
X161564429Y-36049757D01*
X161564429Y-36049757D02*
X161707287Y-36121185D01*
X161707287Y-36121185D02*
X161778715Y-36192614D01*
X161778715Y-36192614D02*
X161850144Y-36335471D01*
X161850144Y-36335471D02*
X161850144Y-36692614D01*
X161850144Y-36692614D02*
X161778715Y-36835471D01*
X161778715Y-36835471D02*
X161707287Y-36906900D01*
X161707287Y-36906900D02*
X161564429Y-36978328D01*
X161564429Y-36978328D02*
X161135858Y-36978328D01*
X161135858Y-36978328D02*
X160993001Y-36906900D01*
X160993001Y-36906900D02*
X160921572Y-36835471D01*
X162493000Y-36835471D02*
X162564429Y-36906900D01*
X162564429Y-36906900D02*
X162493000Y-36978328D01*
X162493000Y-36978328D02*
X162421572Y-36906900D01*
X162421572Y-36906900D02*
X162493000Y-36835471D01*
X162493000Y-36835471D02*
X162493000Y-36978328D01*
X163278715Y-36978328D02*
X163564429Y-36978328D01*
X163564429Y-36978328D02*
X163707286Y-36906900D01*
X163707286Y-36906900D02*
X163778715Y-36835471D01*
X163778715Y-36835471D02*
X163921572Y-36621185D01*
X163921572Y-36621185D02*
X163993001Y-36335471D01*
X163993001Y-36335471D02*
X163993001Y-35764042D01*
X163993001Y-35764042D02*
X163921572Y-35621185D01*
X163921572Y-35621185D02*
X163850144Y-35549757D01*
X163850144Y-35549757D02*
X163707286Y-35478328D01*
X163707286Y-35478328D02*
X163421572Y-35478328D01*
X163421572Y-35478328D02*
X163278715Y-35549757D01*
X163278715Y-35549757D02*
X163207286Y-35621185D01*
X163207286Y-35621185D02*
X163135858Y-35764042D01*
X163135858Y-35764042D02*
X163135858Y-36121185D01*
X163135858Y-36121185D02*
X163207286Y-36264042D01*
X163207286Y-36264042D02*
X163278715Y-36335471D01*
X163278715Y-36335471D02*
X163421572Y-36406900D01*
X163421572Y-36406900D02*
X163707286Y-36406900D01*
X163707286Y-36406900D02*
X163850144Y-36335471D01*
X163850144Y-36335471D02*
X163921572Y-36264042D01*
X163921572Y-36264042D02*
X163993001Y-36121185D01*
X164564429Y-35621185D02*
X164635857Y-35549757D01*
X164635857Y-35549757D02*
X164778715Y-35478328D01*
X164778715Y-35478328D02*
X165135857Y-35478328D01*
X165135857Y-35478328D02*
X165278715Y-35549757D01*
X165278715Y-35549757D02*
X165350143Y-35621185D01*
X165350143Y-35621185D02*
X165421572Y-35764042D01*
X165421572Y-35764042D02*
X165421572Y-35906900D01*
X165421572Y-35906900D02*
X165350143Y-36121185D01*
X165350143Y-36121185D02*
X164493000Y-36978328D01*
X164493000Y-36978328D02*
X165421572Y-36978328D01*
X166350143Y-35478328D02*
X166493000Y-35478328D01*
X166493000Y-35478328D02*
X166635857Y-35549757D01*
X166635857Y-35549757D02*
X166707286Y-35621185D01*
X166707286Y-35621185D02*
X166778714Y-35764042D01*
X166778714Y-35764042D02*
X166850143Y-36049757D01*
X166850143Y-36049757D02*
X166850143Y-36406900D01*
X166850143Y-36406900D02*
X166778714Y-36692614D01*
X166778714Y-36692614D02*
X166707286Y-36835471D01*
X166707286Y-36835471D02*
X166635857Y-36906900D01*
X166635857Y-36906900D02*
X166493000Y-36978328D01*
X166493000Y-36978328D02*
X166350143Y-36978328D01*
X166350143Y-36978328D02*
X166207286Y-36906900D01*
X166207286Y-36906900D02*
X166135857Y-36835471D01*
X166135857Y-36835471D02*
X166064428Y-36692614D01*
X166064428Y-36692614D02*
X165993000Y-36406900D01*
X165993000Y-36406900D02*
X165993000Y-36049757D01*
X165993000Y-36049757D02*
X166064428Y-35764042D01*
X166064428Y-35764042D02*
X166135857Y-35621185D01*
X166135857Y-35621185D02*
X166207286Y-35549757D01*
X166207286Y-35549757D02*
X166350143Y-35478328D01*
X167778714Y-35478328D02*
X167921571Y-35478328D01*
X167921571Y-35478328D02*
X168064428Y-35549757D01*
X168064428Y-35549757D02*
X168135857Y-35621185D01*
X168135857Y-35621185D02*
X168207285Y-35764042D01*
X168207285Y-35764042D02*
X168278714Y-36049757D01*
X168278714Y-36049757D02*
X168278714Y-36406900D01*
X168278714Y-36406900D02*
X168207285Y-36692614D01*
X168207285Y-36692614D02*
X168135857Y-36835471D01*
X168135857Y-36835471D02*
X168064428Y-36906900D01*
X168064428Y-36906900D02*
X167921571Y-36978328D01*
X167921571Y-36978328D02*
X167778714Y-36978328D01*
X167778714Y-36978328D02*
X167635857Y-36906900D01*
X167635857Y-36906900D02*
X167564428Y-36835471D01*
X167564428Y-36835471D02*
X167492999Y-36692614D01*
X167492999Y-36692614D02*
X167421571Y-36406900D01*
X167421571Y-36406900D02*
X167421571Y-36049757D01*
X167421571Y-36049757D02*
X167492999Y-35764042D01*
X167492999Y-35764042D02*
X167564428Y-35621185D01*
X167564428Y-35621185D02*
X167635857Y-35549757D01*
X167635857Y-35549757D02*
X167778714Y-35478328D01*
X170064427Y-36978328D02*
X170064427Y-35978328D01*
X170064427Y-35478328D02*
X169992999Y-35549757D01*
X169992999Y-35549757D02*
X170064427Y-35621185D01*
X170064427Y-35621185D02*
X170135856Y-35549757D01*
X170135856Y-35549757D02*
X170064427Y-35478328D01*
X170064427Y-35478328D02*
X170064427Y-35621185D01*
X170778713Y-35978328D02*
X170778713Y-36978328D01*
X170778713Y-36121185D02*
X170850142Y-36049757D01*
X170850142Y-36049757D02*
X170992999Y-35978328D01*
X170992999Y-35978328D02*
X171207285Y-35978328D01*
X171207285Y-35978328D02*
X171350142Y-36049757D01*
X171350142Y-36049757D02*
X171421571Y-36192614D01*
X171421571Y-36192614D02*
X171421571Y-36978328D01*
D12*
X216027000Y-38600000D02*
X216027000Y-38686420D01*
X116459000Y-38600000D02*
X116459000Y-38686420D01*
X216027000Y-38100000D02*
X116459000Y-38100000D01*
X216027000Y-38100000D02*
X116459000Y-38100000D01*
X216027000Y-38100000D02*
X214900496Y-38686421D01*
X216027000Y-38100000D02*
X214900496Y-37513579D01*
X116459000Y-38100000D02*
X117585504Y-37513579D01*
X116459000Y-38100000D02*
X117585504Y-38686421D01*
D10*
D11*
X113980185Y-74083998D02*
X113908757Y-74012570D01*
X113908757Y-74012570D02*
X113837328Y-73869713D01*
X113837328Y-73869713D02*
X113837328Y-73512570D01*
X113837328Y-73512570D02*
X113908757Y-73369713D01*
X113908757Y-73369713D02*
X113980185Y-73298284D01*
X113980185Y-73298284D02*
X114123042Y-73226855D01*
X114123042Y-73226855D02*
X114265900Y-73226855D01*
X114265900Y-73226855D02*
X114480185Y-73298284D01*
X114480185Y-73298284D02*
X115337328Y-74155427D01*
X115337328Y-74155427D02*
X115337328Y-73226855D01*
X115194471Y-72583999D02*
X115265900Y-72512570D01*
X115265900Y-72512570D02*
X115337328Y-72583999D01*
X115337328Y-72583999D02*
X115265900Y-72655427D01*
X115265900Y-72655427D02*
X115194471Y-72583999D01*
X115194471Y-72583999D02*
X115337328Y-72583999D01*
X114337328Y-71226856D02*
X115337328Y-71226856D01*
X113765900Y-71583998D02*
X114837328Y-71941141D01*
X114837328Y-71941141D02*
X114837328Y-71012570D01*
X113980185Y-70512570D02*
X113908757Y-70441142D01*
X113908757Y-70441142D02*
X113837328Y-70298285D01*
X113837328Y-70298285D02*
X113837328Y-69941142D01*
X113837328Y-69941142D02*
X113908757Y-69798285D01*
X113908757Y-69798285D02*
X113980185Y-69726856D01*
X113980185Y-69726856D02*
X114123042Y-69655427D01*
X114123042Y-69655427D02*
X114265900Y-69655427D01*
X114265900Y-69655427D02*
X114480185Y-69726856D01*
X114480185Y-69726856D02*
X115337328Y-70583999D01*
X115337328Y-70583999D02*
X115337328Y-69655427D01*
X113837328Y-68726856D02*
X113837328Y-68583999D01*
X113837328Y-68583999D02*
X113908757Y-68441142D01*
X113908757Y-68441142D02*
X113980185Y-68369714D01*
X113980185Y-68369714D02*
X114123042Y-68298285D01*
X114123042Y-68298285D02*
X114408757Y-68226856D01*
X114408757Y-68226856D02*
X114765900Y-68226856D01*
X114765900Y-68226856D02*
X115051614Y-68298285D01*
X115051614Y-68298285D02*
X115194471Y-68369714D01*
X115194471Y-68369714D02*
X115265900Y-68441142D01*
X115265900Y-68441142D02*
X115337328Y-68583999D01*
X115337328Y-68583999D02*
X115337328Y-68726856D01*
X115337328Y-68726856D02*
X115265900Y-68869714D01*
X115265900Y-68869714D02*
X115194471Y-68941142D01*
X115194471Y-68941142D02*
X115051614Y-69012571D01*
X115051614Y-69012571D02*
X114765900Y-69083999D01*
X114765900Y-69083999D02*
X114408757Y-69083999D01*
X114408757Y-69083999D02*
X114123042Y-69012571D01*
X114123042Y-69012571D02*
X113980185Y-68941142D01*
X113980185Y-68941142D02*
X113908757Y-68869714D01*
X113908757Y-68869714D02*
X113837328Y-68726856D01*
X113837328Y-67298285D02*
X113837328Y-67155428D01*
X113837328Y-67155428D02*
X113908757Y-67012571D01*
X113908757Y-67012571D02*
X113980185Y-66941143D01*
X113980185Y-66941143D02*
X114123042Y-66869714D01*
X114123042Y-66869714D02*
X114408757Y-66798285D01*
X114408757Y-66798285D02*
X114765900Y-66798285D01*
X114765900Y-66798285D02*
X115051614Y-66869714D01*
X115051614Y-66869714D02*
X115194471Y-66941143D01*
X115194471Y-66941143D02*
X115265900Y-67012571D01*
X115265900Y-67012571D02*
X115337328Y-67155428D01*
X115337328Y-67155428D02*
X115337328Y-67298285D01*
X115337328Y-67298285D02*
X115265900Y-67441143D01*
X115265900Y-67441143D02*
X115194471Y-67512571D01*
X115194471Y-67512571D02*
X115051614Y-67584000D01*
X115051614Y-67584000D02*
X114765900Y-67655428D01*
X114765900Y-67655428D02*
X114408757Y-67655428D01*
X114408757Y-67655428D02*
X114123042Y-67584000D01*
X114123042Y-67584000D02*
X113980185Y-67512571D01*
X113980185Y-67512571D02*
X113908757Y-67441143D01*
X113908757Y-67441143D02*
X113837328Y-67298285D01*
X115337328Y-65012572D02*
X114337328Y-65012572D01*
X113837328Y-65012572D02*
X113908757Y-65084000D01*
X113908757Y-65084000D02*
X113980185Y-65012572D01*
X113980185Y-65012572D02*
X113908757Y-64941143D01*
X113908757Y-64941143D02*
X113837328Y-65012572D01*
X113837328Y-65012572D02*
X113980185Y-65012572D01*
X114337328Y-64298286D02*
X115337328Y-64298286D01*
X114480185Y-64298286D02*
X114408757Y-64226857D01*
X114408757Y-64226857D02*
X114337328Y-64084000D01*
X114337328Y-64084000D02*
X114337328Y-63869714D01*
X114337328Y-63869714D02*
X114408757Y-63726857D01*
X114408757Y-63726857D02*
X114551614Y-63655429D01*
X114551614Y-63655429D02*
X115337328Y-63655429D01*
D12*
X116959000Y-38100000D02*
X117045420Y-38100000D01*
X116959000Y-99568000D02*
X117045420Y-99568000D01*
X116459000Y-38100000D02*
X116459000Y-99568000D01*
X116459000Y-38100000D02*
X116459000Y-99568000D01*
X116459000Y-38100000D02*
X117045421Y-39226504D01*
X116459000Y-38100000D02*
X115872579Y-39226504D01*
X116459000Y-99568000D02*
X115872579Y-98441496D01*
X116459000Y-99568000D02*
X117045421Y-98441496D01*
D13*
%TO.P,C10,1*%
%TO.N,/3V3*%
X191897000Y-49932500D03*
%TO.P,C10,2*%
%TO.N,GND*%
X191897000Y-47857500D03*
%TD*%
D14*
%TO.P,D2,1,K*%
%TO.N,/VIN*%
X139582000Y-87757000D03*
%TO.P,D2,2,A*%
%TO.N,Net-(D2-A)*%
X137532000Y-87757000D03*
%TD*%
D15*
%TO.P,Q1,1,C*%
%TO.N,/VBATT*%
X175108000Y-86238000D03*
D16*
%TO.P,Q1,2,B*%
%TO.N,Net-(BATTCHARGER1-DRIVE)*%
X175108000Y-84968000D03*
%TO.P,Q1,3,E*%
%TO.N,Net-(BATTCHARGER1-SENSE)*%
X175108000Y-83698000D03*
%TD*%
D17*
%TO.P,R5,1*%
%TO.N,Net-(J1-CC2)*%
X134255000Y-92837000D03*
%TO.P,R5,2*%
%TO.N,GND*%
X136255000Y-92837000D03*
%TD*%
D18*
%TO.P,FSR_V1,1,Pin_1*%
%TO.N,/3V3*%
X121031000Y-58166000D03*
D19*
%TO.P,FSR_V1,2,Pin_2*%
X121031000Y-55626000D03*
%TO.P,FSR_V1,3,Pin_3*%
X121031000Y-53086000D03*
%TO.P,FSR_V1,4,Pin_4*%
X121031000Y-50546000D03*
%TD*%
D14*
%TO.P,D1,1,K*%
%TO.N,Net-(BATTCHARGER1-~{CHRG})*%
X155076000Y-90932000D03*
%TO.P,D1,2,A*%
%TO.N,Net-(D1-A)*%
X153026000Y-90932000D03*
%TD*%
D15*
%TO.P,Q3,1,C*%
%TO.N,/GPIO0*%
X143637000Y-65405000D03*
D16*
%TO.P,Q3,2,B*%
%TO.N,/RTS*%
X142367000Y-65405000D03*
%TO.P,Q3,3,E*%
%TO.N,/DTR*%
X141097000Y-65405000D03*
%TD*%
D20*
%TO.P,R3,1*%
%TO.N,Net-(BATTCHARGER1-PROG)*%
X169037000Y-76565000D03*
%TO.P,R3,2*%
%TO.N,GND*%
X169037000Y-74565000D03*
%TD*%
D21*
%TO.P,C9,1*%
%TO.N,GND*%
X197612000Y-45296000D03*
%TO.P,C9,2*%
%TO.N,/1V8*%
X197612000Y-47371000D03*
%TD*%
D22*
%TO.P,C7,1*%
%TO.N,GND*%
X146663500Y-52451000D03*
%TO.P,C7,2*%
%TO.N,/RESET*%
X148738500Y-52451000D03*
%TD*%
D21*
%TO.P,C1,1*%
%TO.N,/VBATT*%
X194564000Y-89916000D03*
%TO.P,C1,2*%
%TO.N,GND*%
X194564000Y-91991000D03*
%TD*%
D22*
%TO.P,C4,1*%
%TO.N,/1V8*%
X207877500Y-75057000D03*
%TO.P,C4,2*%
%TO.N,GND*%
X209952500Y-75057000D03*
%TD*%
D23*
%TO.P,FSR_IO1,1,Pin_1*%
%TO.N,/FSR1*%
X121158000Y-64516000D03*
D19*
%TO.P,FSR_IO1,2,Pin_2*%
%TO.N,/FSR2*%
X121158000Y-67056000D03*
%TO.P,FSR_IO1,3,Pin_3*%
%TO.N,/FSR3*%
X121158000Y-69596000D03*
%TO.P,FSR_IO1,4,Pin_4*%
%TO.N,/FSR4*%
X121158000Y-72136000D03*
%TD*%
D24*
%TO.P,R7,1*%
%TO.N,GND*%
X128873000Y-66929000D03*
%TO.P,R7,2*%
%TO.N,/FSR2*%
X126873000Y-66929000D03*
%TD*%
D25*
%TO.P,BATTCHARGER1,1,DRIVE*%
%TO.N,Net-(BATTCHARGER1-DRIVE)*%
X167648000Y-86911500D03*
%TO.P,BATTCHARGER1,2,BAT*%
%TO.N,/VBATT*%
X167648000Y-86261500D03*
%TO.P,BATTCHARGER1,3,SENSE*%
%TO.N,Net-(BATTCHARGER1-SENSE)*%
X167648000Y-85611500D03*
%TO.P,BATTCHARGER1,4,TIMER*%
%TO.N,Net-(BATTCHARGER1-TIMER)*%
X167648000Y-84961500D03*
%TO.P,BATTCHARGER1,5,~{SHDN}*%
%TO.N,/VIN*%
X167648000Y-84311500D03*
%TO.P,BATTCHARGER1,6,PAUSE*%
%TO.N,GND*%
X167648000Y-83661500D03*
%TO.P,BATTCHARGER1,7,PROG*%
%TO.N,Net-(BATTCHARGER1-PROG)*%
X167648000Y-83011500D03*
%TO.P,BATTCHARGER1,8,ARCT*%
%TO.N,/VIN*%
X167648000Y-82361500D03*
%TO.P,BATTCHARGER1,9,SEL0*%
X162098000Y-82361500D03*
%TO.P,BATTCHARGER1,10,SEL1*%
X162098000Y-83011500D03*
%TO.P,BATTCHARGER1,11,NTC*%
%TO.N,GND*%
X162098000Y-83661500D03*
%TO.P,BATTCHARGER1,12,CHEM*%
X162098000Y-84311500D03*
%TO.P,BATTCHARGER1,13,~{ACP}*%
%TO.N,unconnected-(BATTCHARGER1-~{ACP}-Pad13)*%
X162098000Y-84961500D03*
%TO.P,BATTCHARGER1,14,V_{CC}*%
%TO.N,/VIN*%
X162098000Y-85611500D03*
%TO.P,BATTCHARGER1,15,~{CHRG}*%
%TO.N,Net-(BATTCHARGER1-~{CHRG})*%
X162098000Y-86261500D03*
%TO.P,BATTCHARGER1,16,GND*%
%TO.N,GND*%
X162098000Y-86911500D03*
D26*
%TO.P,BATTCHARGER1,17,GNDPAD*%
X165608000Y-85979000D03*
X165608000Y-85084000D03*
X165608000Y-84189000D03*
X165608000Y-83294000D03*
X164138000Y-85979000D03*
X164138000Y-85084000D03*
X164138000Y-84189000D03*
X164138000Y-83294000D03*
%TD*%
D27*
%TO.P,3V3LR1,1,GND*%
%TO.N,GND*%
X189978000Y-85802000D03*
%TO.P,3V3LR1,2,VO*%
%TO.N,/3V3*%
X192278000Y-85802000D03*
D28*
X192278000Y-79502000D03*
D27*
%TO.P,3V3LR1,3,VI*%
%TO.N,/VBATT*%
X194578000Y-85802000D03*
%TD*%
D29*
%TO.P,R6,1*%
%TO.N,GND*%
X127127000Y-62500000D03*
%TO.P,R6,2*%
%TO.N,/FSR1*%
X127127000Y-64500000D03*
%TD*%
D21*
%TO.P,C3,1*%
%TO.N,/VBATT*%
X207391000Y-90021500D03*
%TO.P,C3,2*%
%TO.N,GND*%
X207391000Y-92096500D03*
%TD*%
D27*
%TO.P,1V8LR1,1,GND*%
%TO.N,GND*%
X202805000Y-85802000D03*
%TO.P,1V8LR1,2,VO*%
%TO.N,/1V8*%
X205105000Y-85802000D03*
D28*
X205105000Y-79502000D03*
D27*
%TO.P,1V8LR1,3,VI*%
%TO.N,/VBATT*%
X207405000Y-85802000D03*
%TD*%
D30*
%TO.P,U3,1,GND*%
%TO.N,GND*%
X157339000Y-48919000D03*
%TO.P,U3,2,3V3*%
%TO.N,/3V3*%
X157339000Y-50189000D03*
%TO.P,U3,3,EN*%
%TO.N,/RESET*%
X157339000Y-51459000D03*
%TO.P,U3,4,IO4*%
%TO.N,/FSR1*%
X157339000Y-52729000D03*
%TO.P,U3,5,IO5*%
%TO.N,/FSR2*%
X157339000Y-53999000D03*
%TO.P,U3,6,IO6*%
%TO.N,/FSR3*%
X157339000Y-55269000D03*
%TO.P,U3,7,IO7*%
%TO.N,/FSR4*%
X157339000Y-56539000D03*
%TO.P,U3,8,IO15*%
%TO.N,unconnected-(U3-IO15-Pad8)*%
X157339000Y-57809000D03*
%TO.P,U3,9,IO16*%
%TO.N,unconnected-(U3-IO16-Pad9)*%
X157339000Y-59079000D03*
%TO.P,U3,10,IO17*%
%TO.N,unconnected-(U3-IO17-Pad10)*%
X157339000Y-60349000D03*
%TO.P,U3,11,IO18*%
%TO.N,unconnected-(U3-IO18-Pad11)*%
X157339000Y-61619000D03*
%TO.P,U3,12,IO8*%
%TO.N,unconnected-(U3-IO8-Pad12)*%
X157339000Y-62889000D03*
%TO.P,U3,13,IO19*%
%TO.N,unconnected-(U3-IO19-Pad13)*%
X157339000Y-64159000D03*
%TO.P,U3,14,IO20*%
%TO.N,unconnected-(U3-IO20-Pad14)*%
X157339000Y-65429000D03*
D31*
%TO.P,U3,15,IO3*%
%TO.N,unconnected-(U3-IO3-Pad15)*%
X159104000Y-66679000D03*
%TO.P,U3,16,IO46*%
%TO.N,unconnected-(U3-IO46-Pad16)*%
X160374000Y-66679000D03*
%TO.P,U3,17,IO9*%
%TO.N,unconnected-(U3-IO9-Pad17)*%
X161644000Y-66679000D03*
%TO.P,U3,18,IO10*%
%TO.N,unconnected-(U3-IO10-Pad18)*%
X162914000Y-66679000D03*
%TO.P,U3,19,IO11*%
%TO.N,/SDA*%
X164184000Y-66679000D03*
%TO.P,U3,20,IO12*%
%TO.N,/SCL*%
X165454000Y-66679000D03*
%TO.P,U3,21,IO13*%
%TO.N,unconnected-(U3-IO13-Pad21)*%
X166724000Y-66679000D03*
%TO.P,U3,22,IO14*%
%TO.N,unconnected-(U3-IO14-Pad22)*%
X167994000Y-66679000D03*
%TO.P,U3,23,IO21*%
%TO.N,unconnected-(U3-IO21-Pad23)*%
X169264000Y-66679000D03*
%TO.P,U3,24,IO47*%
%TO.N,unconnected-(U3-IO47-Pad24)*%
X170534000Y-66679000D03*
%TO.P,U3,25,IO48*%
%TO.N,unconnected-(U3-IO48-Pad25)*%
X171804000Y-66679000D03*
%TO.P,U3,26,IO45*%
%TO.N,unconnected-(U3-IO45-Pad26)*%
X173074000Y-66679000D03*
D30*
%TO.P,U3,27,IO0*%
%TO.N,/GPIO0*%
X174839000Y-65429000D03*
%TO.P,U3,28,IO35*%
%TO.N,unconnected-(U3-IO35-Pad28)*%
X174839000Y-64159000D03*
%TO.P,U3,29,IO36*%
%TO.N,unconnected-(U3-IO36-Pad29)*%
X174839000Y-62889000D03*
%TO.P,U3,30,IO37*%
%TO.N,unconnected-(U3-IO37-Pad30)*%
X174839000Y-61619000D03*
%TO.P,U3,31,IO38*%
%TO.N,unconnected-(U3-IO38-Pad31)*%
X174839000Y-60349000D03*
%TO.P,U3,32,IO39*%
%TO.N,unconnected-(U3-IO39-Pad32)*%
X174839000Y-59079000D03*
%TO.P,U3,33,IO40*%
%TO.N,unconnected-(U3-IO40-Pad33)*%
X174839000Y-57809000D03*
%TO.P,U3,34,IO41*%
%TO.N,unconnected-(U3-IO41-Pad34)*%
X174839000Y-56539000D03*
%TO.P,U3,35,IO42*%
%TO.N,unconnected-(U3-IO42-Pad35)*%
X174839000Y-55269000D03*
%TO.P,U3,36,RXD0*%
%TO.N,/RXD*%
X174839000Y-53999000D03*
%TO.P,U3,37,TXD0*%
%TO.N,/TXD*%
X174839000Y-52729000D03*
%TO.P,U3,38,IO2*%
%TO.N,unconnected-(U3-IO2-Pad38)*%
X174839000Y-51459000D03*
%TO.P,U3,39,IO1*%
%TO.N,unconnected-(U3-IO1-Pad39)*%
X174839000Y-50189000D03*
%TO.P,U3,40,GND*%
%TO.N,GND*%
X174839000Y-48919000D03*
D32*
%TO.P,U3,41,GND*%
X163189000Y-55939000D03*
X163189000Y-57339000D03*
X163889000Y-55239000D03*
X163889000Y-56639000D03*
X163889000Y-58039000D03*
X164589000Y-55939000D03*
D33*
X164589000Y-56639000D03*
D32*
X164589000Y-57339000D03*
X165289000Y-55239000D03*
X165289000Y-56639000D03*
X165289000Y-58039000D03*
X165989000Y-55939000D03*
X165989000Y-57339000D03*
%TD*%
D34*
%TO.P,BATTIO1,1,Pin_1*%
%TO.N,unconnected-(BATTIO1-Pin_1-Pad1)*%
X184531000Y-93345000D03*
D35*
%TO.P,BATTIO1,2,Pin_2*%
%TO.N,/VBATT*%
X181991000Y-93345000D03*
%TO.P,BATTIO1,3,Pin_3*%
%TO.N,GND*%
X179451000Y-93345000D03*
%TD*%
D17*
%TO.P,R1,1*%
%TO.N,/VIN*%
X145558000Y-90932000D03*
%TO.P,R1,2*%
%TO.N,Net-(D1-A)*%
X147558000Y-90932000D03*
%TD*%
D18*
%TO.P,IMU_IO1,1,Pin_1*%
%TO.N,/3V3*%
X211201000Y-57023000D03*
D19*
%TO.P,IMU_IO1,2,Pin_2*%
%TO.N,/SDA*%
X211201000Y-54483000D03*
%TO.P,IMU_IO1,3,Pin_3*%
%TO.N,/SCL*%
X211201000Y-51943000D03*
%TO.P,IMU_IO1,4,Pin_4*%
%TO.N,GND*%
X211201000Y-49403000D03*
%TO.P,IMU_IO1,5,Pin_5*%
%TO.N,/1V8*%
X211201000Y-46863000D03*
%TD*%
D17*
%TO.P,R4,1*%
%TO.N,Net-(J1-CC1)*%
X134255000Y-90551000D03*
%TO.P,R4,2*%
%TO.N,GND*%
X136255000Y-90551000D03*
%TD*%
D24*
%TO.P,R8,1*%
%TO.N,GND*%
X133715000Y-69596000D03*
%TO.P,R8,2*%
%TO.N,/FSR3*%
X131715000Y-69596000D03*
%TD*%
D20*
%TO.P,R9,1*%
%TO.N,GND*%
X135255000Y-74152000D03*
%TO.P,R9,2*%
%TO.N,/FSR4*%
X135255000Y-72152000D03*
%TD*%
D36*
%TO.P,U2,1,~{RI}*%
%TO.N,unconnected-(U2-~{RI}-Pad1)*%
X136079000Y-76748000D03*
%TO.P,U2,2,GND*%
%TO.N,GND*%
X136079000Y-77248000D03*
%TO.P,U2,3,D+*%
%TO.N,/D+*%
X136079000Y-77748000D03*
%TO.P,U2,4,D-*%
%TO.N,/D-*%
X136079000Y-78248000D03*
%TO.P,U2,5,VIO*%
%TO.N,Net-(U2-VDD)*%
X136079000Y-78748000D03*
%TO.P,U2,6,VDD*%
X136079000Y-79248000D03*
D37*
%TO.P,U2,7,REGIN*%
%TO.N,/VIN*%
X136766500Y-79935500D03*
%TO.P,U2,8,VBUS*%
X137266500Y-79935500D03*
%TO.P,U2,9,~{RST}*%
%TO.N,unconnected-(U2-~{RST}-Pad9)*%
X137766500Y-79935500D03*
%TO.P,U2,10,NC*%
%TO.N,unconnected-(U2-NC-Pad10)*%
X138266500Y-79935500D03*
%TO.P,U2,11,GPIO.3*%
%TO.N,unconnected-(U2-GPIO.3-Pad11)*%
X138766500Y-79935500D03*
%TO.P,U2,12,RS485/GPIO.2*%
%TO.N,unconnected-(U2-RS485{slash}GPIO.2-Pad12)*%
X139266500Y-79935500D03*
D36*
%TO.P,U2,13,RXT/GPIO.1*%
%TO.N,unconnected-(U2-RXT{slash}GPIO.1-Pad13)*%
X139954000Y-79248000D03*
%TO.P,U2,14,TXT/GPIO.0*%
%TO.N,unconnected-(U2-TXT{slash}GPIO.0-Pad14)*%
X139954000Y-78748000D03*
%TO.P,U2,15,~{SUSPEND}*%
%TO.N,unconnected-(U2-~{SUSPEND}-Pad15)*%
X139954000Y-78248000D03*
%TO.P,U2,16,VPP*%
%TO.N,unconnected-(U2-VPP-Pad16)*%
X139954000Y-77748000D03*
%TO.P,U2,17,SUSPEND*%
%TO.N,unconnected-(U2-SUSPEND-Pad17)*%
X139954000Y-77248000D03*
%TO.P,U2,18,~{CTS}*%
%TO.N,unconnected-(U2-~{CTS}-Pad18)*%
X139954000Y-76748000D03*
D37*
%TO.P,U2,19,~{RTS}*%
%TO.N,/RTS*%
X139266500Y-76060500D03*
%TO.P,U2,20,RXD*%
%TO.N,/RXD*%
X138766500Y-76060500D03*
%TO.P,U2,21,TXD*%
%TO.N,/TXD*%
X138266500Y-76060500D03*
%TO.P,U2,22,~{DSR}*%
%TO.N,unconnected-(U2-~{DSR}-Pad22)*%
X137766500Y-76060500D03*
%TO.P,U2,23,~{DTR}*%
%TO.N,/DTR*%
X137266500Y-76060500D03*
%TO.P,U2,24,~{DCD}*%
%TO.N,unconnected-(U2-~{DCD}-Pad24)*%
X136766500Y-76060500D03*
D38*
%TO.P,U2,25,GND*%
%TO.N,GND*%
X138016500Y-77998000D03*
%TD*%
D22*
%TO.P,C2,1*%
%TO.N,/3V3*%
X195812500Y-75057000D03*
%TO.P,C2,2*%
%TO.N,GND*%
X197887500Y-75057000D03*
%TD*%
D39*
%TO.P,U1,1,NC*%
%TO.N,unconnected-(U1-NC-Pad1)*%
X196302000Y-54189000D03*
%TO.P,U1,2,NC*%
%TO.N,unconnected-(U1-NC-Pad2)*%
X196302000Y-53789000D03*
%TO.P,U1,3,NC*%
%TO.N,unconnected-(U1-NC-Pad3)*%
X196302000Y-53389000D03*
%TO.P,U1,4,NC*%
%TO.N,unconnected-(U1-NC-Pad4)*%
X196302000Y-52989000D03*
%TO.P,U1,5,NC*%
%TO.N,unconnected-(U1-NC-Pad5)*%
X196302000Y-52589000D03*
%TO.P,U1,6,NC*%
%TO.N,unconnected-(U1-NC-Pad6)*%
X196302000Y-52189000D03*
D40*
%TO.P,U1,7,AUX_CL*%
%TO.N,unconnected-(U1-AUX_CL-Pad7)*%
X195802000Y-51689000D03*
%TO.P,U1,8,VDDIO*%
%TO.N,/1V8*%
X195402000Y-51689000D03*
%TO.P,U1,9,SDO/AD0*%
%TO.N,unconnected-(U1-SDO{slash}AD0-Pad9)*%
X195002000Y-51689000D03*
%TO.P,U1,10,REGOUT*%
%TO.N,Net-(U1-REGOUT)*%
X194602000Y-51689000D03*
%TO.P,U1,11,FSYNC*%
%TO.N,unconnected-(U1-FSYNC-Pad11)*%
X194202000Y-51689000D03*
%TO.P,U1,12,INT1*%
%TO.N,unconnected-(U1-INT1-Pad12)*%
X193802000Y-51689000D03*
D39*
%TO.P,U1,13,VDD*%
%TO.N,/3V3*%
X193302000Y-52189000D03*
%TO.P,U1,14,NC*%
%TO.N,unconnected-(U1-NC-Pad14)*%
X193302000Y-52589000D03*
%TO.P,U1,15,NC*%
%TO.N,unconnected-(U1-NC-Pad15)*%
X193302000Y-52989000D03*
%TO.P,U1,16,NC*%
%TO.N,unconnected-(U1-NC-Pad16)*%
X193302000Y-53389000D03*
%TO.P,U1,17,NC*%
%TO.N,unconnected-(U1-NC-Pad17)*%
X193302000Y-53789000D03*
%TO.P,U1,18,GND*%
%TO.N,GND*%
X193302000Y-54189000D03*
D40*
%TO.P,U1,19,RESV*%
%TO.N,unconnected-(U1-RESV-Pad19)*%
X193802000Y-54689000D03*
%TO.P,U1,20,GND*%
%TO.N,GND*%
X194202000Y-54689000D03*
%TO.P,U1,21,AUX_DA*%
%TO.N,unconnected-(U1-AUX_DA-Pad21)*%
X194602000Y-54689000D03*
%TO.P,U1,22,~{CS}*%
%TO.N,unconnected-(U1-~{CS}-Pad22)*%
X195002000Y-54689000D03*
%TO.P,U1,23,SCL/SCLK*%
%TO.N,/SCL*%
X195402000Y-54689000D03*
%TO.P,U1,24,SDA/SDI*%
%TO.N,/SDA*%
X195802000Y-54689000D03*
%TD*%
D15*
%TO.P,Q2,1,C*%
%TO.N,/RESET*%
X139827000Y-69342000D03*
D16*
%TO.P,Q2,2,B*%
%TO.N,/DTR*%
X141097000Y-69342000D03*
%TO.P,Q2,3,E*%
%TO.N,/RTS*%
X142367000Y-69342000D03*
%TD*%
D22*
%TO.P,C6,1*%
%TO.N,/VIN*%
X142091500Y-82169000D03*
%TO.P,C6,2*%
%TO.N,GND*%
X144166500Y-82169000D03*
%TD*%
D13*
%TO.P,C11,1*%
%TO.N,Net-(U1-REGOUT)*%
X194564000Y-47900500D03*
%TO.P,C11,2*%
%TO.N,GND*%
X194564000Y-45825500D03*
%TD*%
D22*
%TO.P,C5,1*%
%TO.N,Net-(BATTCHARGER1-TIMER)*%
X174095500Y-80391000D03*
%TO.P,C5,2*%
%TO.N,GND*%
X176170500Y-80391000D03*
%TD*%
D41*
%TO.P,J1,A1,GND*%
%TO.N,GND*%
X129312000Y-87045000D03*
%TO.P,J1,A4,VBUS*%
%TO.N,Net-(D2-A)*%
X129312000Y-87845000D03*
D42*
%TO.P,J1,A5,CC1*%
%TO.N,Net-(J1-CC1)*%
X129312000Y-89045000D03*
%TO.P,J1,A6,D+*%
%TO.N,/D+*%
X129312000Y-90045000D03*
%TO.P,J1,A7,D-*%
%TO.N,/D-*%
X129312000Y-90545000D03*
%TO.P,J1,A8,SBU1*%
%TO.N,unconnected-(J1-SBU1-PadA8)*%
X129312000Y-91545000D03*
D41*
%TO.P,J1,A9,VBUS*%
%TO.N,Net-(D2-A)*%
X129312000Y-92745000D03*
%TO.P,J1,A12,GND*%
%TO.N,GND*%
X129312000Y-93545000D03*
%TO.P,J1,B1,GND*%
X129312000Y-93545000D03*
%TO.P,J1,B4,VBUS*%
%TO.N,Net-(D2-A)*%
X129312000Y-92745000D03*
D42*
%TO.P,J1,B5,CC2*%
%TO.N,Net-(J1-CC2)*%
X129312000Y-92045000D03*
%TO.P,J1,B6,D+*%
%TO.N,unconnected-(J1-D+-PadB6)*%
X129312000Y-91045000D03*
%TO.P,J1,B7,D-*%
%TO.N,unconnected-(J1-D--PadB7)*%
X129312000Y-89545000D03*
%TO.P,J1,B8,SBU2*%
%TO.N,unconnected-(J1-SBU2-PadB8)*%
X129312000Y-88545000D03*
D41*
%TO.P,J1,B9,VBUS*%
%TO.N,Net-(D2-A)*%
X129312000Y-87845000D03*
%TO.P,J1,B12,GND*%
%TO.N,GND*%
X129312000Y-87045000D03*
D43*
%TO.P,J1,S1,SHIELD*%
%TO.N,unconnected-(J1-SHIELD-PadS1)*%
X128397000Y-85975000D03*
D44*
X124217000Y-85975000D03*
D43*
X128397000Y-94615000D03*
D44*
X124217000Y-94615000D03*
%TD*%
D45*
%TO.N,GND*%
X188087000Y-50927000D03*
X197231000Y-50927000D03*
X197231000Y-50927000D03*
X125603000Y-70866000D03*
X157988000Y-82296000D03*
X160837056Y-84547142D03*
%TO.N,Net-(BATTCHARGER1-DRIVE)*%
X171958000Y-85217000D03*
X170263500Y-86911500D03*
%TO.N,GND*%
X188087000Y-54229000D03*
X191897000Y-54229000D03*
%TO.N,/D+*%
X133350000Y-77724000D03*
%TO.N,/D-*%
X134493000Y-78486000D03*
%TO.N,/D+*%
X131064000Y-89789000D03*
%TO.N,/D-*%
X131826000Y-90551000D03*
%TO.N,GND*%
X129540000Y-84074000D03*
X124460000Y-84074000D03*
%TO.N,Net-(D2-A)*%
X132842000Y-88646000D03*
X131064000Y-92710000D03*
%TO.N,GND*%
X171513500Y-81089500D03*
X165227000Y-81407000D03*
X169291000Y-83312000D03*
%TO.N,Net-(BATTCHARGER1-PROG)*%
X169037000Y-81788000D03*
X169037000Y-77978000D03*
%TO.N,GND*%
X125603000Y-73660000D03*
X125603000Y-73660000D03*
X125603000Y-68326000D03*
X125603000Y-68326000D03*
%TO.N,/3V3*%
X207137000Y-57023000D03*
X191389000Y-57023000D03*
X189738000Y-58420000D03*
X152781000Y-50292000D03*
%TO.N,/RESET*%
X139827000Y-62484000D03*
X148336000Y-53975000D03*
%TO.N,/SCL*%
X191770000Y-58293000D03*
X195072000Y-56134000D03*
X206629000Y-51943000D03*
X171069000Y-69596000D03*
%TO.N,/SDA*%
X171069000Y-71374000D03*
X194056000Y-58674000D03*
X206629000Y-54483000D03*
X197866000Y-55880000D03*
%TO.N,/RTS*%
X142367000Y-71755000D03*
X142367000Y-71755000D03*
X142367000Y-74041000D03*
X142367000Y-71755000D03*
X142367000Y-71755000D03*
%TO.N,/GPIO0*%
X145415000Y-65405000D03*
X177800000Y-65405000D03*
X177800000Y-65405000D03*
%TO.N,/RXD*%
X178054000Y-57658000D03*
X180340000Y-57785000D03*
%TD*%
D46*
%TO.N,GND*%
X129359000Y-93545000D02*
X131445000Y-95631000D01*
X129312000Y-93545000D02*
X129359000Y-93545000D01*
X130302000Y-86055000D02*
X130302000Y-84455000D01*
X129312000Y-87045000D02*
X130302000Y-86055000D01*
X160738500Y-86911500D02*
X160274000Y-87376000D01*
X162098000Y-86911500D02*
X160738500Y-86911500D01*
D47*
%TO.N,/FSR2*%
X127070466Y-66929000D02*
X126873000Y-66929000D01*
X138119466Y-55880000D02*
X127070466Y-66929000D01*
X153931264Y-55880000D02*
X138119466Y-55880000D01*
X155812264Y-53999000D02*
X153931264Y-55880000D01*
X157339000Y-53999000D02*
X155812264Y-53999000D01*
X126746000Y-67056000D02*
X126873000Y-66929000D01*
X121158000Y-67056000D02*
X126746000Y-67056000D01*
D46*
%TO.N,Net-(U2-VDD)*%
X136079000Y-78748000D02*
X136079000Y-79248000D01*
%TO.N,unconnected-(J1-SHIELD-PadS1)*%
X124217000Y-94615000D02*
X128397000Y-94615000D01*
X124217000Y-85975000D02*
X124217000Y-94615000D01*
X128397000Y-85975000D02*
X124217000Y-85975000D01*
D48*
%TO.N,/1V8*%
X205105000Y-85802000D02*
X205105000Y-79502000D01*
%TO.N,/3V3*%
X192278000Y-85802000D02*
X192278000Y-79502000D01*
D46*
%TO.N,GND*%
X137266500Y-77248000D02*
X138016500Y-77998000D01*
X136079000Y-77248000D02*
X137266500Y-77248000D01*
X135287000Y-77248000D02*
X134620000Y-76581000D01*
X136079000Y-77248000D02*
X135287000Y-77248000D01*
X160925500Y-84311500D02*
X160845500Y-84391500D01*
X162098000Y-84311500D02*
X160925500Y-84311500D01*
X160845500Y-84391500D02*
X160782000Y-84455000D01*
X161575500Y-83661500D02*
X160845500Y-84391500D01*
X162098000Y-83661500D02*
X161575500Y-83661500D01*
%TO.N,Net-(BATTCHARGER1-DRIVE)*%
X172207000Y-84968000D02*
X175108000Y-84968000D01*
X171958000Y-85217000D02*
X172207000Y-84968000D01*
X167648000Y-86911500D02*
X170263500Y-86911500D01*
D49*
%TO.N,GND*%
X192913000Y-55245000D02*
X191897000Y-54229000D01*
X193983704Y-55245000D02*
X192913000Y-55245000D01*
X194202000Y-55026704D02*
X193983704Y-55245000D01*
X194202000Y-54689000D02*
X194202000Y-55026704D01*
X191937000Y-54189000D02*
X191897000Y-54229000D01*
X193302000Y-54189000D02*
X191937000Y-54189000D01*
D46*
%TO.N,/D-*%
X134731000Y-78248000D02*
X136079000Y-78248000D01*
X134493000Y-78486000D02*
X134731000Y-78248000D01*
%TO.N,/D+*%
X135128000Y-77724000D02*
X135152000Y-77748000D01*
X133350000Y-77724000D02*
X135128000Y-77724000D01*
X135152000Y-77748000D02*
X136079000Y-77748000D01*
D50*
%TO.N,Net-(J1-CC1)*%
X132593471Y-89246000D02*
X132950000Y-89246000D01*
X132501471Y-89154000D02*
X132593471Y-89246000D01*
X130538000Y-89154000D02*
X132501471Y-89154000D01*
X130429000Y-89045000D02*
X130538000Y-89154000D01*
X129312000Y-89045000D02*
X130429000Y-89045000D01*
X132950000Y-89246000D02*
X134255000Y-90551000D01*
D46*
%TO.N,/D+*%
X130808000Y-90045000D02*
X131064000Y-89789000D01*
X129312000Y-90045000D02*
X130808000Y-90045000D01*
%TO.N,/D-*%
X131826000Y-90678000D02*
X131699000Y-90551000D01*
X131826000Y-90551000D02*
X131826000Y-90678000D01*
X131699000Y-90551000D02*
X131826000Y-90551000D01*
X131693000Y-90545000D02*
X131699000Y-90551000D01*
X129312000Y-90545000D02*
X131693000Y-90545000D01*
%TO.N,Net-(D2-A)*%
X133604000Y-87884000D02*
X133604000Y-87845000D01*
X132842000Y-88646000D02*
X133604000Y-87884000D01*
D47*
X133604000Y-87845000D02*
X137444000Y-87845000D01*
X129312000Y-87845000D02*
X133604000Y-87845000D01*
D46*
%TO.N,Net-(J1-CC2)*%
X133463000Y-92045000D02*
X129312000Y-92045000D01*
X134255000Y-92837000D02*
X133463000Y-92045000D01*
%TO.N,Net-(D2-A)*%
X131029000Y-92745000D02*
X131064000Y-92710000D01*
X129312000Y-92745000D02*
X131029000Y-92745000D01*
%TO.N,GND*%
X168941500Y-83661500D02*
X169291000Y-83312000D01*
X167648000Y-83661500D02*
X168941500Y-83661500D01*
%TO.N,/VIN*%
X170180000Y-80391000D02*
X169672000Y-79883000D01*
X169672000Y-79883000D02*
X166624000Y-79883000D01*
X169420396Y-84311500D02*
X170180000Y-83551896D01*
X170180000Y-83551896D02*
X170180000Y-80391000D01*
X167648000Y-84311500D02*
X169420396Y-84311500D01*
%TO.N,Net-(BATTCHARGER1-PROG)*%
X169037000Y-82401500D02*
X169037000Y-81788000D01*
X168427000Y-83011500D02*
X169037000Y-82401500D01*
X167648000Y-83011500D02*
X168427000Y-83011500D01*
X169037000Y-76565000D02*
X169037000Y-77978000D01*
D48*
%TO.N,/VBATT*%
X179329000Y-86238000D02*
X175108000Y-86238000D01*
X207391000Y-90021500D02*
X207391000Y-85816000D01*
D46*
X167648000Y-86261500D02*
X175084500Y-86261500D01*
D48*
X181991000Y-88900000D02*
X179329000Y-86238000D01*
X185293000Y-89916000D02*
X194564000Y-89916000D01*
D46*
X175084500Y-86261500D02*
X175108000Y-86238000D01*
D48*
X194564000Y-89916000D02*
X194564000Y-85816000D01*
X195177500Y-90021500D02*
X207391000Y-90021500D01*
X194564000Y-89916000D02*
X195072000Y-89916000D01*
X181991000Y-93345000D02*
X181991000Y-93218000D01*
X181991000Y-93218000D02*
X185293000Y-89916000D01*
X207391000Y-85816000D02*
X207405000Y-85802000D01*
X181991000Y-93345000D02*
X181991000Y-88900000D01*
X194564000Y-85816000D02*
X194578000Y-85802000D01*
X195072000Y-89916000D02*
X195177500Y-90021500D01*
%TO.N,/1V8*%
X199390000Y-50927000D02*
X197612000Y-49149000D01*
D47*
X197612000Y-47371000D02*
X197612000Y-49149000D01*
D49*
X195402000Y-51689000D02*
X195402000Y-51351296D01*
D48*
X205105000Y-77829500D02*
X207877500Y-75057000D01*
X205105000Y-56642000D02*
X199390000Y-50927000D01*
D49*
X195402000Y-51351296D02*
X197604296Y-49149000D01*
D48*
X203454000Y-46863000D02*
X211201000Y-46863000D01*
D49*
X197604296Y-49149000D02*
X197612000Y-49149000D01*
D48*
X199390000Y-50927000D02*
X203454000Y-46863000D01*
X205105000Y-79502000D02*
X205105000Y-77829500D01*
X205105000Y-77829500D02*
X205105000Y-56642000D01*
%TO.N,/3V3*%
X192278000Y-79502000D02*
X192278000Y-78591500D01*
X128778000Y-50546000D02*
X127000000Y-50546000D01*
X192278000Y-78591500D02*
X195812500Y-75057000D01*
X127000000Y-50546000D02*
X124460000Y-53086000D01*
X195812500Y-75057000D02*
X195812500Y-74824500D01*
X128778000Y-50546000D02*
X123698000Y-55626000D01*
X152400000Y-50292000D02*
X152146000Y-50546000D01*
X152781000Y-50292000D02*
X157236000Y-50292000D01*
X189738000Y-52197000D02*
X189738000Y-49911000D01*
X152781000Y-50292000D02*
X152400000Y-50292000D01*
X211201000Y-57023000D02*
X207137000Y-57023000D01*
X195812500Y-74824500D02*
X189738000Y-68750000D01*
X127000000Y-50546000D02*
X121031000Y-50546000D01*
X157236000Y-50292000D02*
X157339000Y-50189000D01*
X189738000Y-58420000D02*
X189738000Y-57023000D01*
D49*
X193302000Y-52189000D02*
X189746000Y-52189000D01*
D48*
X123698000Y-55626000D02*
X121031000Y-55626000D01*
X124460000Y-53086000D02*
X121031000Y-53086000D01*
X191389000Y-57023000D02*
X189738000Y-57023000D01*
X131064000Y-50546000D02*
X128778000Y-50546000D01*
D49*
X189746000Y-52189000D02*
X189738000Y-52197000D01*
D47*
X191897000Y-49932500D02*
X191897000Y-52189000D01*
D48*
X189738000Y-57023000D02*
X189738000Y-52197000D01*
X123444000Y-58166000D02*
X121031000Y-58166000D01*
X189738000Y-68750000D02*
X189738000Y-58420000D01*
X131064000Y-50546000D02*
X123444000Y-58166000D01*
X152146000Y-50546000D02*
X131064000Y-50546000D01*
D46*
%TO.N,/VIN*%
X162098000Y-85611500D02*
X159893000Y-85611500D01*
X167648000Y-80907000D02*
X166624000Y-79883000D01*
X139034932Y-82169000D02*
X137266500Y-80400568D01*
X157353000Y-85611500D02*
X144528500Y-85611500D01*
X157988000Y-85611500D02*
X157353000Y-85611500D01*
X139034932Y-82169000D02*
X138986466Y-82120534D01*
X137970466Y-82120534D02*
X137922000Y-82169000D01*
X142383000Y-87757000D02*
X145558000Y-90932000D01*
X157988000Y-85611500D02*
X161238000Y-82361500D01*
X161319000Y-83011500D02*
X162098000Y-83011500D01*
X137266500Y-80400568D02*
X137266500Y-79935500D01*
X159893000Y-85611500D02*
X157988000Y-85611500D01*
X166624000Y-79883000D02*
X163081500Y-79883000D01*
X138986466Y-82120534D02*
X137970466Y-82120534D01*
X159893000Y-84437500D02*
X161319000Y-83011500D01*
X161238000Y-82361500D02*
X162098000Y-82361500D01*
X144528500Y-85611500D02*
X142091500Y-83174500D01*
X139582000Y-87757000D02*
X142383000Y-87757000D01*
X163081500Y-79883000D02*
X157353000Y-85611500D01*
X136766500Y-81013500D02*
X136766500Y-79935500D01*
X142091500Y-82169000D02*
X139034932Y-82169000D01*
X144528500Y-85611500D02*
X142383000Y-87757000D01*
X137922000Y-82169000D02*
X136766500Y-81013500D01*
X167648000Y-82361500D02*
X167648000Y-80907000D01*
X159893000Y-85611500D02*
X159893000Y-84437500D01*
X142091500Y-83174500D02*
X142091500Y-82169000D01*
%TO.N,Net-(BATTCHARGER1-TIMER)*%
X169412448Y-84961500D02*
X173982948Y-80391000D01*
X167648000Y-84961500D02*
X169412448Y-84961500D01*
X173982948Y-80391000D02*
X174095500Y-80391000D01*
%TO.N,Net-(BATTCHARGER1-SENSE)*%
X169404500Y-85611500D02*
X171323000Y-83693000D01*
X171328000Y-83698000D02*
X175108000Y-83698000D01*
X167648000Y-85611500D02*
X169404500Y-85611500D01*
X171323000Y-83693000D02*
X171328000Y-83698000D01*
%TO.N,/RESET*%
X157236000Y-51562000D02*
X157339000Y-51459000D01*
X148336000Y-53086000D02*
X149860000Y-51562000D01*
X149860000Y-51562000D02*
X157236000Y-51562000D01*
X139827000Y-69342000D02*
X139827000Y-62484000D01*
X148336000Y-53975000D02*
X148336000Y-53086000D01*
D49*
%TO.N,Net-(U1-REGOUT)*%
X194602000Y-47938500D02*
X194564000Y-47900500D01*
X194602000Y-51689000D02*
X194602000Y-47938500D01*
D46*
%TO.N,Net-(D1-A)*%
X147558000Y-90932000D02*
X153026000Y-90932000D01*
D47*
%TO.N,Net-(D2-A)*%
X137444000Y-87845000D02*
X137532000Y-87757000D01*
D46*
X137493000Y-87845000D02*
X137532000Y-87884000D01*
D47*
%TO.N,/FSR1*%
X156081000Y-52729000D02*
X157339000Y-52729000D01*
X121158000Y-64516000D02*
X127111000Y-64516000D01*
X153946000Y-54864000D02*
X156081000Y-52729000D01*
X136906000Y-54864000D02*
X153946000Y-54864000D01*
X130040000Y-61730000D02*
X136906000Y-54864000D01*
X129897000Y-61730000D02*
X130040000Y-61730000D01*
X127111000Y-64516000D02*
X127127000Y-64500000D01*
X127127000Y-64500000D02*
X129897000Y-61730000D01*
%TO.N,/FSR4*%
X135255000Y-65989682D02*
X142189682Y-59055000D01*
X121158000Y-72136000D02*
X135239000Y-72136000D01*
X135239000Y-72136000D02*
X135255000Y-72152000D01*
X156313000Y-56539000D02*
X157339000Y-56539000D01*
X142189682Y-59055000D02*
X153797000Y-59055000D01*
X153797000Y-59055000D02*
X156313000Y-56539000D01*
X135255000Y-72152000D02*
X135255000Y-65989682D01*
%TO.N,/FSR3*%
X131699000Y-68880000D02*
X131699000Y-65151000D01*
X154861000Y-56896000D02*
X156488000Y-55269000D01*
X121158000Y-69596000D02*
X131715000Y-69596000D01*
X139954000Y-56896000D02*
X154861000Y-56896000D01*
X156488000Y-55269000D02*
X157339000Y-55269000D01*
X131699000Y-65151000D02*
X139954000Y-56896000D01*
X131715000Y-69596000D02*
X131715000Y-68896000D01*
X131715000Y-68896000D02*
X131699000Y-68880000D01*
D46*
%TO.N,/SCL*%
X192913000Y-58293000D02*
X195072000Y-56134000D01*
X165454000Y-66679000D02*
X165454000Y-67683000D01*
X167367000Y-69596000D02*
X171069000Y-69596000D01*
X165454000Y-67683000D02*
X167367000Y-69596000D01*
D49*
X195402000Y-55804000D02*
X195072000Y-56134000D01*
D46*
X191770000Y-58293000D02*
X192913000Y-58293000D01*
D49*
X195402000Y-54689000D02*
X195402000Y-55804000D01*
D46*
X211201000Y-51943000D02*
X206629000Y-51943000D01*
%TO.N,/SDA*%
X167132000Y-71374000D02*
X171069000Y-71374000D01*
D49*
X195802000Y-54689000D02*
X195802000Y-55880000D01*
D46*
X164184000Y-68680000D02*
X166878000Y-71374000D01*
X164184000Y-66679000D02*
X164184000Y-68680000D01*
D49*
X195802000Y-55880000D02*
X197866000Y-55880000D01*
D46*
X166878000Y-71374000D02*
X167132000Y-71374000D01*
D49*
X195802000Y-55880000D02*
X195802000Y-56928000D01*
D46*
X211201000Y-54483000D02*
X206629000Y-54483000D01*
D49*
X195802000Y-56928000D02*
X194056000Y-58674000D01*
D50*
%TO.N,/D-*%
X135493000Y-78248000D02*
X136079000Y-78248000D01*
%TO.N,/DTR*%
X137266500Y-76060500D02*
X137266500Y-73502500D01*
X141097000Y-69672000D02*
X141097000Y-69342000D01*
X141097000Y-69342000D02*
X141097000Y-65405000D01*
X137266500Y-73502500D02*
X141097000Y-69672000D01*
%TO.N,/RTS*%
X142367000Y-71755000D02*
X142367000Y-69342000D01*
X141286000Y-74041000D02*
X142367000Y-74041000D01*
X142367000Y-69342000D02*
X142367000Y-65405000D01*
X139266500Y-76060500D02*
X141286000Y-74041000D01*
%TO.N,/GPIO0*%
X177800000Y-65405000D02*
X177419000Y-65405000D01*
X177395000Y-65429000D02*
X174839000Y-65429000D01*
X177419000Y-65405000D02*
X177395000Y-65429000D01*
X143637000Y-65405000D02*
X145415000Y-65405000D01*
%TO.N,/RXD*%
X178054000Y-57658000D02*
X178054000Y-56264000D01*
X175789000Y-53999000D02*
X174839000Y-53999000D01*
X138766500Y-73450500D02*
X139319000Y-72898000D01*
X138766500Y-76060500D02*
X138766500Y-73450500D01*
X178054000Y-56264000D02*
X175789000Y-53999000D01*
X181483000Y-58928000D02*
X180340000Y-57785000D01*
X181483000Y-72898000D02*
X181483000Y-58928000D01*
X139319000Y-72898000D02*
X181483000Y-72898000D01*
%TO.N,/TXD*%
X179070000Y-72390000D02*
X179070000Y-56010000D01*
X139084000Y-72498000D02*
X178962000Y-72498000D01*
X179070000Y-56010000D02*
X175789000Y-52729000D01*
X138266500Y-73315500D02*
X139084000Y-72498000D01*
X138266500Y-76060500D02*
X138266500Y-73315500D01*
X178962000Y-72498000D02*
X179070000Y-72390000D01*
X175789000Y-52729000D02*
X174839000Y-52729000D01*
D46*
%TO.N,Net-(BATTCHARGER1-~{CHRG})*%
X159746500Y-86261500D02*
X162098000Y-86261500D01*
X155076000Y-90932000D02*
X159746500Y-86261500D01*
%TD*%
%TA.AperFunction,Conductor*%
%TO.N,GND*%
G36*
X197435955Y-50235430D02*
G01*
X197480299Y-50263929D01*
X198055690Y-50839319D01*
X198700953Y-51484582D01*
X198700974Y-51484605D01*
X204187181Y-56970810D01*
X204220666Y-57032133D01*
X204223500Y-57058491D01*
X204223500Y-77877500D01*
X204203815Y-77944539D01*
X204151011Y-77990294D01*
X204099500Y-78001500D01*
X203646971Y-78001500D01*
X203646965Y-78001500D01*
X203646964Y-78001501D01*
X203635316Y-78002536D01*
X203527584Y-78012113D01*
X203331954Y-78068089D01*
X203241772Y-78115196D01*
X203151593Y-78162302D01*
X203151591Y-78162303D01*
X203151590Y-78162304D01*
X202993890Y-78290890D01*
X202865304Y-78448590D01*
X202865302Y-78448593D01*
X202856105Y-78466200D01*
X202771089Y-78628954D01*
X202715114Y-78824583D01*
X202715113Y-78824586D01*
X202704500Y-78943966D01*
X202704500Y-80060028D01*
X202704501Y-80060034D01*
X202715113Y-80179415D01*
X202771089Y-80375045D01*
X202771090Y-80375048D01*
X202771091Y-80375049D01*
X202865302Y-80555407D01*
X202899977Y-80597933D01*
X202993890Y-80713109D01*
X203072593Y-80777282D01*
X203151593Y-80841698D01*
X203331951Y-80935909D01*
X203527582Y-80991886D01*
X203646963Y-81002500D01*
X204099500Y-81002499D01*
X204166539Y-81022183D01*
X204212294Y-81074987D01*
X204223500Y-81126499D01*
X204223500Y-84401436D01*
X204203815Y-84468475D01*
X204177188Y-84498083D01*
X204107278Y-84554278D01*
X204051326Y-84623885D01*
X203993982Y-84663803D01*
X203924160Y-84666383D01*
X203864027Y-84630804D01*
X203858031Y-84623884D01*
X203802364Y-84554630D01*
X203654025Y-84435392D01*
X203654022Y-84435390D01*
X203483523Y-84350831D01*
X203298824Y-84304897D01*
X203256097Y-84302000D01*
X203055000Y-84302000D01*
X203055000Y-87302000D01*
X203256097Y-87302000D01*
X203298824Y-87299102D01*
X203483523Y-87253168D01*
X203654022Y-87168609D01*
X203654025Y-87168607D01*
X203802366Y-87049367D01*
X203802367Y-87049366D01*
X203858033Y-86980115D01*
X203915376Y-86940196D01*
X203985198Y-86937616D01*
X204045331Y-86973194D01*
X204051305Y-86980089D01*
X204107278Y-87049722D01*
X204107280Y-87049724D01*
X204255704Y-87169030D01*
X204255707Y-87169032D01*
X204426302Y-87253639D01*
X204426303Y-87253639D01*
X204426307Y-87253641D01*
X204611111Y-87299600D01*
X204653877Y-87302500D01*
X205556122Y-87302499D01*
X205598889Y-87299600D01*
X205783693Y-87253641D01*
X205954296Y-87169030D01*
X206102722Y-87049722D01*
X206158353Y-86980514D01*
X206215696Y-86940595D01*
X206285518Y-86938015D01*
X206345651Y-86973594D01*
X206351647Y-86980514D01*
X206407275Y-87049719D01*
X206407278Y-87049722D01*
X206463187Y-87094663D01*
X206503106Y-87152004D01*
X206509500Y-87191309D01*
X206509500Y-88983742D01*
X206489815Y-89050781D01*
X206450605Y-89089275D01*
X206447351Y-89091282D01*
X206447343Y-89091288D01*
X206434951Y-89103681D01*
X206373628Y-89137166D01*
X206347270Y-89140000D01*
X195713230Y-89140000D01*
X195646191Y-89120315D01*
X195625549Y-89103681D01*
X195507656Y-88985788D01*
X195507648Y-88985782D01*
X195504395Y-88983775D01*
X195502634Y-88981817D01*
X195501989Y-88981307D01*
X195502076Y-88981196D01*
X195457674Y-88931824D01*
X195445500Y-88878242D01*
X195445500Y-87213816D01*
X195465185Y-87146777D01*
X195491807Y-87117174D01*
X195575722Y-87049722D01*
X195695030Y-86901296D01*
X195779641Y-86730693D01*
X195825600Y-86545889D01*
X195828500Y-86503123D01*
X195828500Y-86503096D01*
X201555000Y-86503096D01*
X201557897Y-86545824D01*
X201603831Y-86730523D01*
X201688390Y-86901022D01*
X201688392Y-86901025D01*
X201807632Y-87049366D01*
X201807633Y-87049367D01*
X201955974Y-87168607D01*
X201955977Y-87168609D01*
X202126476Y-87253168D01*
X202311175Y-87299102D01*
X202353903Y-87302000D01*
X202555000Y-87302000D01*
X202555000Y-86052000D01*
X201555000Y-86052000D01*
X201555000Y-86503096D01*
X195828500Y-86503096D01*
X195828499Y-85100903D01*
X201555000Y-85100903D01*
X201555000Y-85552000D01*
X202555000Y-85552000D01*
X202555000Y-84302000D01*
X202353903Y-84302000D01*
X202311175Y-84304897D01*
X202126476Y-84350831D01*
X201955977Y-84435390D01*
X201955974Y-84435392D01*
X201807633Y-84554632D01*
X201807632Y-84554633D01*
X201688392Y-84702974D01*
X201688390Y-84702977D01*
X201603831Y-84873476D01*
X201557897Y-85058175D01*
X201555000Y-85100903D01*
X195828499Y-85100903D01*
X195828499Y-85100878D01*
X195825600Y-85058111D01*
X195779641Y-84873307D01*
X195717882Y-84748780D01*
X195695032Y-84702707D01*
X195695030Y-84702704D01*
X195575722Y-84554278D01*
X195575721Y-84554277D01*
X195427295Y-84434969D01*
X195427292Y-84434967D01*
X195256697Y-84350360D01*
X195071892Y-84304400D01*
X195050506Y-84302950D01*
X195029123Y-84301500D01*
X195029120Y-84301500D01*
X194126877Y-84301500D01*
X194126874Y-84301501D01*
X194084113Y-84304399D01*
X194084112Y-84304399D01*
X193899303Y-84350360D01*
X193728707Y-84434967D01*
X193728704Y-84434969D01*
X193580278Y-84554277D01*
X193580277Y-84554278D01*
X193524647Y-84623486D01*
X193467304Y-84663405D01*
X193397482Y-84665985D01*
X193337349Y-84630406D01*
X193331353Y-84623486D01*
X193321781Y-84611578D01*
X193275722Y-84554278D01*
X193205811Y-84498082D01*
X193165894Y-84440739D01*
X193159500Y-84401436D01*
X193159500Y-81126499D01*
X193179185Y-81059460D01*
X193231989Y-81013705D01*
X193283500Y-81002499D01*
X193736028Y-81002499D01*
X193736036Y-81002499D01*
X193855418Y-80991886D01*
X194051049Y-80935909D01*
X194231407Y-80841698D01*
X194389109Y-80713109D01*
X194517698Y-80555407D01*
X194611909Y-80375049D01*
X194667886Y-80179418D01*
X194678500Y-80060037D01*
X194678499Y-78943964D01*
X194667886Y-78824582D01*
X194611909Y-78628951D01*
X194517698Y-78448593D01*
X194440417Y-78353815D01*
X194389109Y-78290890D01*
X194231407Y-78162302D01*
X194221743Y-78157254D01*
X194198744Y-78145240D01*
X194148439Y-78096756D01*
X194132331Y-78028768D01*
X194155537Y-77962865D01*
X194168470Y-77947658D01*
X195797311Y-76318818D01*
X195858634Y-76285333D01*
X195884992Y-76282499D01*
X196200002Y-76282499D01*
X196200008Y-76282499D01*
X196302797Y-76271999D01*
X196469334Y-76216814D01*
X196618656Y-76124712D01*
X196742712Y-76000656D01*
X196744752Y-75997347D01*
X196746745Y-75995555D01*
X196747193Y-75994989D01*
X196747289Y-75995065D01*
X196796694Y-75950623D01*
X196865656Y-75939395D01*
X196929740Y-75967234D01*
X196955829Y-75997339D01*
X196957681Y-76000341D01*
X196957683Y-76000344D01*
X197081654Y-76124315D01*
X197230875Y-76216356D01*
X197230880Y-76216358D01*
X197397302Y-76271505D01*
X197397309Y-76271506D01*
X197500019Y-76281999D01*
X197637499Y-76281999D01*
X198137500Y-76281999D01*
X198274972Y-76281999D01*
X198274986Y-76281998D01*
X198377697Y-76271505D01*
X198544119Y-76216358D01*
X198544124Y-76216356D01*
X198693345Y-76124315D01*
X198817315Y-76000345D01*
X198909356Y-75851124D01*
X198909358Y-75851119D01*
X198964505Y-75684697D01*
X198964506Y-75684690D01*
X198974999Y-75581986D01*
X198975000Y-75581973D01*
X198975000Y-75307000D01*
X198137500Y-75307000D01*
X198137500Y-76281999D01*
X197637499Y-76281999D01*
X197637500Y-76281998D01*
X197637500Y-74807000D01*
X198137500Y-74807000D01*
X198974999Y-74807000D01*
X198974999Y-74532028D01*
X198974998Y-74532013D01*
X198964505Y-74429302D01*
X198909358Y-74262880D01*
X198909356Y-74262875D01*
X198817315Y-74113654D01*
X198693345Y-73989684D01*
X198544124Y-73897643D01*
X198544119Y-73897641D01*
X198377697Y-73842494D01*
X198377690Y-73842493D01*
X198274986Y-73832000D01*
X198137500Y-73832000D01*
X198137500Y-74807000D01*
X197637500Y-74807000D01*
X197637500Y-73832000D01*
X197500027Y-73832000D01*
X197500012Y-73832001D01*
X197397302Y-73842494D01*
X197230880Y-73897641D01*
X197230875Y-73897643D01*
X197081654Y-73989684D01*
X196957683Y-74113655D01*
X196957679Y-74113660D01*
X196955826Y-74116665D01*
X196954018Y-74118290D01*
X196953202Y-74119323D01*
X196953025Y-74119183D01*
X196903874Y-74163385D01*
X196834911Y-74174601D01*
X196770831Y-74146752D01*
X196744753Y-74116653D01*
X196744737Y-74116628D01*
X196742712Y-74113344D01*
X196618656Y-73989288D01*
X196525888Y-73932069D01*
X196469336Y-73897187D01*
X196469331Y-73897185D01*
X196465378Y-73895875D01*
X196302797Y-73842001D01*
X196302795Y-73842000D01*
X196200016Y-73831500D01*
X196200009Y-73831500D01*
X196117491Y-73831500D01*
X196050452Y-73811815D01*
X196029810Y-73795181D01*
X190655819Y-68421189D01*
X190622334Y-68359866D01*
X190619500Y-68333508D01*
X190619500Y-58028500D01*
X190639185Y-57961461D01*
X190691989Y-57915706D01*
X190743500Y-57904500D01*
X190883088Y-57904500D01*
X190950127Y-57924185D01*
X190995882Y-57976989D01*
X191005826Y-58046147D01*
X191000129Y-58069455D01*
X190984633Y-58113737D01*
X190984630Y-58113750D01*
X190964435Y-58292996D01*
X190964435Y-58293003D01*
X190984630Y-58472249D01*
X190984631Y-58472254D01*
X191044211Y-58642523D01*
X191087856Y-58711983D01*
X191140184Y-58795262D01*
X191267738Y-58922816D01*
X191313482Y-58951559D01*
X191412259Y-59013625D01*
X191420478Y-59018789D01*
X191537335Y-59059679D01*
X191590745Y-59078368D01*
X191590750Y-59078369D01*
X191769996Y-59098565D01*
X191770000Y-59098565D01*
X191770004Y-59098565D01*
X191949249Y-59078369D01*
X191949252Y-59078368D01*
X191949255Y-59078368D01*
X192119522Y-59018789D01*
X192245700Y-58939505D01*
X192311672Y-58920500D01*
X192974804Y-58920500D01*
X192974805Y-58920499D01*
X193096035Y-58896386D01*
X193140534Y-58877952D01*
X193210001Y-58870483D01*
X193272481Y-58901756D01*
X193305030Y-58951559D01*
X193330210Y-59023521D01*
X193377364Y-59098565D01*
X193426184Y-59176262D01*
X193553738Y-59303816D01*
X193706478Y-59399789D01*
X193876745Y-59459368D01*
X193876750Y-59459369D01*
X194055996Y-59479565D01*
X194056000Y-59479565D01*
X194056004Y-59479565D01*
X194235249Y-59459369D01*
X194235252Y-59459368D01*
X194235255Y-59459368D01*
X194405522Y-59399789D01*
X194558262Y-59303816D01*
X194685816Y-59176262D01*
X194781789Y-59023522D01*
X194841368Y-58853255D01*
X194841656Y-58850706D01*
X194855435Y-58728400D01*
X194882501Y-58663986D01*
X194890964Y-58654611D01*
X196263475Y-57282102D01*
X196339399Y-57150598D01*
X196378700Y-57003924D01*
X196378700Y-56852076D01*
X196378700Y-56580700D01*
X196398385Y-56513661D01*
X196451189Y-56467906D01*
X196502700Y-56456700D01*
X197259260Y-56456700D01*
X197326299Y-56476385D01*
X197346941Y-56493019D01*
X197363738Y-56509816D01*
X197378071Y-56518822D01*
X197515952Y-56605459D01*
X197516478Y-56605789D01*
X197640388Y-56649147D01*
X197686745Y-56665368D01*
X197686750Y-56665369D01*
X197865996Y-56685565D01*
X197866000Y-56685565D01*
X197866004Y-56685565D01*
X198045249Y-56665369D01*
X198045252Y-56665368D01*
X198045255Y-56665368D01*
X198215522Y-56605789D01*
X198368262Y-56509816D01*
X198495816Y-56382262D01*
X198591789Y-56229522D01*
X198651368Y-56059255D01*
X198653410Y-56041135D01*
X198671565Y-55880003D01*
X198671565Y-55879996D01*
X198651369Y-55700750D01*
X198651368Y-55700745D01*
X198591789Y-55530478D01*
X198583825Y-55517804D01*
X198543657Y-55453877D01*
X198495816Y-55377738D01*
X198368262Y-55250184D01*
X198337430Y-55230811D01*
X198215523Y-55154211D01*
X198045254Y-55094631D01*
X198045249Y-55094630D01*
X197866004Y-55074435D01*
X197865996Y-55074435D01*
X197686750Y-55094630D01*
X197686745Y-55094631D01*
X197516476Y-55154211D01*
X197363737Y-55250184D01*
X197346941Y-55266981D01*
X197285618Y-55300466D01*
X197259260Y-55303300D01*
X196502700Y-55303300D01*
X196435661Y-55283615D01*
X196389906Y-55230811D01*
X196378700Y-55179300D01*
X196378700Y-55102544D01*
X196387345Y-55057055D01*
X196391877Y-55045564D01*
X196402500Y-54957102D01*
X196402500Y-54913500D01*
X196422185Y-54846461D01*
X196474989Y-54800706D01*
X196526500Y-54789500D01*
X196570097Y-54789500D01*
X196570102Y-54789500D01*
X196658564Y-54778877D01*
X196799342Y-54723361D01*
X196919922Y-54631922D01*
X197011361Y-54511342D01*
X197066877Y-54370564D01*
X197077500Y-54282102D01*
X197077500Y-54095898D01*
X197066877Y-54007436D01*
X197066876Y-54007434D01*
X197066438Y-54003785D01*
X197066438Y-53974215D01*
X197066876Y-53970565D01*
X197066877Y-53970564D01*
X197077500Y-53882102D01*
X197077500Y-53695898D01*
X197066877Y-53607436D01*
X197066876Y-53607434D01*
X197066438Y-53603785D01*
X197066438Y-53574215D01*
X197066876Y-53570565D01*
X197066877Y-53570564D01*
X197077500Y-53482102D01*
X197077500Y-53295898D01*
X197066877Y-53207436D01*
X197066876Y-53207434D01*
X197066438Y-53203785D01*
X197066438Y-53174215D01*
X197066876Y-53170565D01*
X197066877Y-53170564D01*
X197077500Y-53082102D01*
X197077500Y-52895898D01*
X197066877Y-52807436D01*
X197066876Y-52807434D01*
X197066438Y-52803785D01*
X197066438Y-52774215D01*
X197066876Y-52770565D01*
X197066877Y-52770564D01*
X197077500Y-52682102D01*
X197077500Y-52495898D01*
X197066877Y-52407436D01*
X197066876Y-52407434D01*
X197066438Y-52403785D01*
X197066438Y-52374215D01*
X197066876Y-52370565D01*
X197066877Y-52370564D01*
X197077500Y-52282102D01*
X197077500Y-52095898D01*
X197066877Y-52007436D01*
X197011361Y-51866658D01*
X197011360Y-51866657D01*
X197011360Y-51866656D01*
X196919922Y-51746077D01*
X196799343Y-51654639D01*
X196658561Y-51599122D01*
X196611539Y-51593476D01*
X196570102Y-51588500D01*
X196570097Y-51588500D01*
X196526500Y-51588500D01*
X196459461Y-51568815D01*
X196413706Y-51516011D01*
X196402500Y-51464500D01*
X196402500Y-51420903D01*
X196402500Y-51420898D01*
X196391877Y-51332436D01*
X196377752Y-51296617D01*
X196371470Y-51227031D01*
X196403807Y-51165094D01*
X196405371Y-51163500D01*
X197304942Y-50263929D01*
X197366263Y-50230446D01*
X197435955Y-50235430D01*
G37*
%TD.AperFunction*%
%TA.AperFunction,Conductor*%
G36*
X160992334Y-84328098D02*
G01*
X161048267Y-84369970D01*
X161072684Y-84435434D01*
X161073000Y-84444280D01*
X161073000Y-84584332D01*
X161076931Y-84620899D01*
X161076931Y-84647405D01*
X161072500Y-84688622D01*
X161072500Y-84688627D01*
X161072500Y-84834000D01*
X161072501Y-84859999D01*
X161052817Y-84927039D01*
X161000013Y-84972794D01*
X160948501Y-84984000D01*
X160644500Y-84984000D01*
X160577461Y-84964315D01*
X160531706Y-84911511D01*
X160520500Y-84860000D01*
X160520500Y-84748780D01*
X160540185Y-84681741D01*
X160556815Y-84661103D01*
X160861320Y-84356598D01*
X160922642Y-84323114D01*
X160992334Y-84328098D01*
G37*
%TD.AperFunction*%
%TA.AperFunction,Conductor*%
G36*
X162266039Y-83756684D02*
G01*
X162311794Y-83809488D01*
X162323000Y-83860999D01*
X162323000Y-84112000D01*
X162303315Y-84179039D01*
X162250511Y-84224794D01*
X162199000Y-84236000D01*
X161997000Y-84236000D01*
X161929961Y-84216315D01*
X161884206Y-84163511D01*
X161873000Y-84112000D01*
X161873000Y-83860999D01*
X161892685Y-83793960D01*
X161945489Y-83748205D01*
X161996997Y-83736999D01*
X162199001Y-83736999D01*
X162266039Y-83756684D01*
G37*
%TD.AperFunction*%
%TA.AperFunction,Conductor*%
G36*
X169471834Y-82956599D02*
G01*
X169527767Y-82998471D01*
X169552184Y-83063935D01*
X169552500Y-83072781D01*
X169552500Y-83240615D01*
X169532815Y-83307654D01*
X169516181Y-83328296D01*
X169196796Y-83647681D01*
X169135473Y-83681166D01*
X169109115Y-83684000D01*
X168941282Y-83684000D01*
X168874243Y-83664315D01*
X168828488Y-83611511D01*
X168818544Y-83542353D01*
X168847569Y-83478797D01*
X168853600Y-83472319D01*
X168854407Y-83471512D01*
X168914411Y-83411508D01*
X169340819Y-82985100D01*
X169402142Y-82951615D01*
X169471834Y-82956599D01*
G37*
%TD.AperFunction*%
%TA.AperFunction,Conductor*%
G36*
X138549014Y-76957501D02*
G01*
X138549174Y-76956905D01*
X138557024Y-76959008D01*
X138557026Y-76959008D01*
X138557028Y-76959009D01*
X138667099Y-76973500D01*
X138865900Y-76973499D01*
X138907330Y-76968045D01*
X138976366Y-76978811D01*
X139028621Y-77025191D01*
X139047506Y-77092460D01*
X139046454Y-77107169D01*
X139041000Y-77148597D01*
X139041000Y-77347403D01*
X139055489Y-77457468D01*
X139057594Y-77465322D01*
X139054314Y-77466200D01*
X139060081Y-77520073D01*
X139057017Y-77530522D01*
X139057595Y-77530677D01*
X139055490Y-77538529D01*
X139041000Y-77648598D01*
X139041000Y-77847403D01*
X139055489Y-77957468D01*
X139057594Y-77965322D01*
X139054314Y-77966200D01*
X139060081Y-78020073D01*
X139057017Y-78030522D01*
X139057595Y-78030677D01*
X139055490Y-78038529D01*
X139041000Y-78148598D01*
X139041000Y-78347403D01*
X139055489Y-78457468D01*
X139057594Y-78465322D01*
X139054314Y-78466200D01*
X139060081Y-78520073D01*
X139057017Y-78530522D01*
X139057595Y-78530677D01*
X139055490Y-78538529D01*
X139041000Y-78648598D01*
X139041000Y-78847396D01*
X139046455Y-78888833D01*
X139035687Y-78957868D01*
X138989306Y-79010123D01*
X138922036Y-79029006D01*
X138907330Y-79027954D01*
X138865901Y-79022500D01*
X138667096Y-79022500D01*
X138557031Y-79036989D01*
X138549178Y-79039094D01*
X138548302Y-79035824D01*
X138494353Y-79041567D01*
X138483977Y-79038518D01*
X138483823Y-79039095D01*
X138475970Y-79036990D01*
X138365901Y-79022500D01*
X138167096Y-79022500D01*
X138057031Y-79036989D01*
X138049178Y-79039094D01*
X138048302Y-79035824D01*
X137994353Y-79041567D01*
X137983977Y-79038518D01*
X137983823Y-79039095D01*
X137975970Y-79036990D01*
X137865901Y-79022500D01*
X137667096Y-79022500D01*
X137557031Y-79036989D01*
X137549178Y-79039094D01*
X137548302Y-79035824D01*
X137494353Y-79041567D01*
X137483977Y-79038518D01*
X137483823Y-79039095D01*
X137475970Y-79036990D01*
X137365901Y-79022500D01*
X137167103Y-79022500D01*
X137125666Y-79027955D01*
X137056631Y-79017187D01*
X137004376Y-78970805D01*
X136985493Y-78903536D01*
X136986545Y-78888833D01*
X136992000Y-78847401D01*
X136991999Y-78648600D01*
X136977509Y-78538528D01*
X136977508Y-78538525D01*
X136975405Y-78530674D01*
X136978707Y-78529789D01*
X136972892Y-78476075D01*
X136976001Y-78465485D01*
X136975405Y-78465326D01*
X136977508Y-78457475D01*
X136977508Y-78457474D01*
X136977509Y-78457472D01*
X136992000Y-78347401D01*
X136991999Y-78148600D01*
X136977509Y-78038528D01*
X136977508Y-78038525D01*
X136975405Y-78030674D01*
X136978707Y-78029789D01*
X136972892Y-77976075D01*
X136976001Y-77965485D01*
X136975405Y-77965326D01*
X136977508Y-77957475D01*
X136977508Y-77957474D01*
X136977509Y-77957472D01*
X136992000Y-77847401D01*
X136991999Y-77648600D01*
X136991999Y-77648598D01*
X136991999Y-77648596D01*
X136977511Y-77538536D01*
X136975406Y-77530682D01*
X136978507Y-77529850D01*
X136972628Y-77475382D01*
X136975647Y-77465389D01*
X136974918Y-77465194D01*
X136977021Y-77457342D01*
X136988126Y-77373000D01*
X136960006Y-77373000D01*
X136892967Y-77353315D01*
X136861615Y-77324466D01*
X136860848Y-77323466D01*
X136835667Y-77258292D01*
X136849719Y-77189850D01*
X136860848Y-77172534D01*
X136861615Y-77171534D01*
X136918034Y-77130319D01*
X136960006Y-77123000D01*
X136988126Y-77123000D01*
X136986033Y-77107103D01*
X136996798Y-77038068D01*
X137043178Y-76985812D01*
X137110447Y-76966926D01*
X137125151Y-76967977D01*
X137167099Y-76973500D01*
X137365900Y-76973499D01*
X137365901Y-76973499D01*
X137382587Y-76971302D01*
X137475972Y-76959009D01*
X137475975Y-76959007D01*
X137483826Y-76956905D01*
X137484710Y-76960207D01*
X137538425Y-76954392D01*
X137549014Y-76957501D01*
X137549174Y-76956905D01*
X137557024Y-76959008D01*
X137557026Y-76959008D01*
X137557028Y-76959009D01*
X137667099Y-76973500D01*
X137865900Y-76973499D01*
X137865901Y-76973499D01*
X137882587Y-76971302D01*
X137975972Y-76959009D01*
X137975975Y-76959007D01*
X137983826Y-76956905D01*
X137984710Y-76960207D01*
X138038425Y-76954392D01*
X138049014Y-76957501D01*
X138049174Y-76956905D01*
X138057024Y-76959008D01*
X138057026Y-76959008D01*
X138057028Y-76959009D01*
X138167099Y-76973500D01*
X138365900Y-76973499D01*
X138365901Y-76973499D01*
X138382587Y-76971302D01*
X138475972Y-76959009D01*
X138475975Y-76959007D01*
X138483826Y-76956905D01*
X138484710Y-76960207D01*
X138538425Y-76954392D01*
X138549014Y-76957501D01*
G37*
%TD.AperFunction*%
%TA.AperFunction,Conductor*%
G36*
X153902152Y-57670185D02*
G01*
X153947907Y-57722989D01*
X153957851Y-57792147D01*
X153928826Y-57855703D01*
X153922794Y-57862181D01*
X153520794Y-58264181D01*
X153459471Y-58297666D01*
X153433113Y-58300500D01*
X142115365Y-58300500D01*
X141969609Y-58329493D01*
X141969601Y-58329495D01*
X141832290Y-58386371D01*
X141708717Y-58468939D01*
X141708716Y-58468940D01*
X141666869Y-58510788D01*
X141603623Y-58574034D01*
X141603621Y-58574036D01*
X134668943Y-65508712D01*
X134668942Y-65508713D01*
X134586370Y-65632292D01*
X134586370Y-65632293D01*
X134564331Y-65685500D01*
X134564331Y-65685501D01*
X134535741Y-65754523D01*
X134529496Y-65769597D01*
X134529493Y-65769607D01*
X134500499Y-65915367D01*
X134500499Y-66070107D01*
X134500500Y-66070128D01*
X134500500Y-68328486D01*
X134480815Y-68395525D01*
X134428011Y-68441280D01*
X134358853Y-68451224D01*
X134337496Y-68446192D01*
X134217697Y-68406494D01*
X134217690Y-68406493D01*
X134114986Y-68396000D01*
X133965000Y-68396000D01*
X133965000Y-70795999D01*
X134114972Y-70795999D01*
X134114986Y-70795998D01*
X134217697Y-70785505D01*
X134337496Y-70745808D01*
X134407324Y-70743406D01*
X134467366Y-70779138D01*
X134498559Y-70841658D01*
X134500500Y-70863514D01*
X134500500Y-71038828D01*
X134480815Y-71105867D01*
X134441597Y-71144366D01*
X134336347Y-71209285D01*
X134336343Y-71209288D01*
X134212287Y-71333344D01*
X134211441Y-71334415D01*
X134210673Y-71334958D01*
X134207181Y-71338451D01*
X134206583Y-71337853D01*
X134154418Y-71374789D01*
X134114178Y-71381500D01*
X122592036Y-71381500D01*
X122524997Y-71361815D01*
X122491718Y-71330385D01*
X122433239Y-71249896D01*
X122428359Y-71243179D01*
X122275821Y-71090641D01*
X122104704Y-70966317D01*
X122062040Y-70910988D01*
X122056061Y-70841374D01*
X122088667Y-70779580D01*
X122104702Y-70765684D01*
X122275821Y-70641359D01*
X122428359Y-70488821D01*
X122491718Y-70401615D01*
X122547048Y-70358949D01*
X122592036Y-70350500D01*
X130601829Y-70350500D01*
X130668868Y-70370185D01*
X130707367Y-70409402D01*
X130772288Y-70514656D01*
X130896344Y-70638712D01*
X131045666Y-70730814D01*
X131212203Y-70785999D01*
X131314991Y-70796500D01*
X132115008Y-70796499D01*
X132115016Y-70796498D01*
X132115019Y-70796498D01*
X132171302Y-70790748D01*
X132217797Y-70785999D01*
X132384334Y-70730814D01*
X132533656Y-70638712D01*
X132627675Y-70544692D01*
X132688994Y-70511210D01*
X132758686Y-70516194D01*
X132803034Y-70544695D01*
X132896654Y-70638315D01*
X133045875Y-70730356D01*
X133045880Y-70730358D01*
X133212302Y-70785505D01*
X133212309Y-70785506D01*
X133315019Y-70795999D01*
X133464999Y-70795999D01*
X133465000Y-70795998D01*
X133465000Y-68396000D01*
X133315027Y-68396000D01*
X133315012Y-68396001D01*
X133212302Y-68406494D01*
X133045880Y-68461641D01*
X133045875Y-68461643D01*
X132896657Y-68553682D01*
X132803034Y-68647305D01*
X132741710Y-68680789D01*
X132672019Y-68675805D01*
X132627672Y-68647304D01*
X132533655Y-68553287D01*
X132512402Y-68540178D01*
X132465678Y-68488229D01*
X132453500Y-68434640D01*
X132453500Y-65514887D01*
X132473185Y-65447848D01*
X132489819Y-65427206D01*
X140230206Y-57686819D01*
X140291529Y-57653334D01*
X140317887Y-57650500D01*
X153835113Y-57650500D01*
X153902152Y-57670185D01*
G37*
%TD.AperFunction*%
%TA.AperFunction,Conductor*%
G36*
X138916152Y-56654185D02*
G01*
X138961907Y-56706989D01*
X138971851Y-56776147D01*
X138942826Y-56839703D01*
X138936794Y-56846181D01*
X131112943Y-64670030D01*
X131112942Y-64670031D01*
X131030370Y-64793611D01*
X131025862Y-64804496D01*
X131025860Y-64804500D01*
X130985170Y-64902737D01*
X130976163Y-64924481D01*
X130973495Y-64930921D01*
X130973494Y-64930925D01*
X130973494Y-64930926D01*
X130944499Y-65076686D01*
X130944499Y-65231425D01*
X130944500Y-65231446D01*
X130944500Y-68455178D01*
X130924815Y-68522217D01*
X130901359Y-68548089D01*
X130901451Y-68548181D01*
X130899588Y-68550043D01*
X130897415Y-68552441D01*
X130896344Y-68553287D01*
X130772289Y-68677342D01*
X130707368Y-68782597D01*
X130655420Y-68829321D01*
X130601829Y-68841500D01*
X122592036Y-68841500D01*
X122524997Y-68821815D01*
X122491718Y-68790385D01*
X122428361Y-68703182D01*
X122428356Y-68703176D01*
X122275823Y-68550643D01*
X122275821Y-68550641D01*
X122104704Y-68426317D01*
X122062040Y-68370988D01*
X122056061Y-68301374D01*
X122088667Y-68239580D01*
X122104702Y-68225684D01*
X122275821Y-68101359D01*
X122428359Y-67948821D01*
X122491718Y-67861615D01*
X122547048Y-67818949D01*
X122592036Y-67810500D01*
X125841770Y-67810500D01*
X125908809Y-67830185D01*
X125929451Y-67846819D01*
X125930288Y-67847656D01*
X126054344Y-67971712D01*
X126203666Y-68063814D01*
X126370203Y-68118999D01*
X126472991Y-68129500D01*
X127273008Y-68129499D01*
X127273016Y-68129498D01*
X127273019Y-68129498D01*
X127329302Y-68123748D01*
X127375797Y-68118999D01*
X127542334Y-68063814D01*
X127691656Y-67971712D01*
X127785675Y-67877692D01*
X127846994Y-67844210D01*
X127916686Y-67849194D01*
X127961034Y-67877695D01*
X128054654Y-67971315D01*
X128203875Y-68063356D01*
X128203880Y-68063358D01*
X128370302Y-68118505D01*
X128370309Y-68118506D01*
X128473019Y-68128999D01*
X128622999Y-68128999D01*
X129123000Y-68128999D01*
X129272972Y-68128999D01*
X129272986Y-68128998D01*
X129375697Y-68118505D01*
X129542119Y-68063358D01*
X129542124Y-68063356D01*
X129691345Y-67971315D01*
X129815315Y-67847345D01*
X129907356Y-67698124D01*
X129907358Y-67698119D01*
X129962505Y-67531697D01*
X129962506Y-67531690D01*
X129972999Y-67428986D01*
X129973000Y-67428973D01*
X129973000Y-67179000D01*
X129123000Y-67179000D01*
X129123000Y-68128999D01*
X128622999Y-68128999D01*
X128623000Y-68128998D01*
X128623000Y-66803000D01*
X128642685Y-66735961D01*
X128695489Y-66690206D01*
X128747000Y-66679000D01*
X129972999Y-66679000D01*
X129972999Y-66429028D01*
X129972998Y-66429013D01*
X129962505Y-66326302D01*
X129907358Y-66159880D01*
X129907356Y-66159875D01*
X129815315Y-66010654D01*
X129691345Y-65886684D01*
X129542124Y-65794643D01*
X129542115Y-65794639D01*
X129529943Y-65790606D01*
X129472499Y-65750833D01*
X129445677Y-65686316D01*
X129457993Y-65617541D01*
X129481262Y-65585227D01*
X138395671Y-56670819D01*
X138456994Y-56637334D01*
X138483352Y-56634500D01*
X138849113Y-56634500D01*
X138916152Y-56654185D01*
G37*
%TD.AperFunction*%
%TA.AperFunction,Conductor*%
G36*
X191431452Y-52785385D02*
G01*
X191433303Y-52786598D01*
X191539608Y-52857628D01*
X191539609Y-52857628D01*
X191539610Y-52857629D01*
X191676920Y-52914505D01*
X191822683Y-52943499D01*
X191822687Y-52943500D01*
X191822688Y-52943500D01*
X191971313Y-52943500D01*
X191971314Y-52943499D01*
X192117080Y-52914505D01*
X192254390Y-52857629D01*
X192333612Y-52804695D01*
X192400286Y-52783818D01*
X192467666Y-52802302D01*
X192514357Y-52854281D01*
X192526500Y-52907798D01*
X192526500Y-53082102D01*
X192531841Y-53126580D01*
X192537561Y-53174217D01*
X192537561Y-53203783D01*
X192532598Y-53245119D01*
X192526500Y-53295898D01*
X192526500Y-53482102D01*
X192528785Y-53501127D01*
X192537561Y-53574217D01*
X192537561Y-53603783D01*
X192534956Y-53625478D01*
X192526500Y-53695898D01*
X192526500Y-53882102D01*
X192534245Y-53946599D01*
X192537814Y-53976321D01*
X192537814Y-54005887D01*
X192527000Y-54095945D01*
X192527000Y-54282053D01*
X192537613Y-54370443D01*
X192593079Y-54511095D01*
X192684435Y-54631564D01*
X192804904Y-54722920D01*
X192945556Y-54778386D01*
X193033946Y-54789000D01*
X193077500Y-54789000D01*
X193144539Y-54808685D01*
X193190294Y-54861489D01*
X193201500Y-54913000D01*
X193201500Y-54957102D01*
X193204882Y-54985262D01*
X193212122Y-55045561D01*
X193267639Y-55186343D01*
X193359077Y-55306922D01*
X193479656Y-55398360D01*
X193479657Y-55398360D01*
X193479658Y-55398361D01*
X193620436Y-55453877D01*
X193708898Y-55464500D01*
X193708903Y-55464500D01*
X193895101Y-55464500D01*
X193895102Y-55464500D01*
X193983564Y-55453877D01*
X193983567Y-55453875D01*
X193989318Y-55453185D01*
X194018890Y-55453185D01*
X194108941Y-55464000D01*
X194295055Y-55464000D01*
X194310123Y-55462190D01*
X194379031Y-55473738D01*
X194430758Y-55520708D01*
X194448878Y-55588187D01*
X194429906Y-55651277D01*
X194346210Y-55784477D01*
X194286632Y-55954745D01*
X194281686Y-55998637D01*
X194254618Y-56063051D01*
X194246147Y-56072432D01*
X192689400Y-57629181D01*
X192628077Y-57662666D01*
X192601719Y-57665500D01*
X192311671Y-57665500D01*
X192245700Y-57646494D01*
X192203567Y-57620020D01*
X192157278Y-57567687D01*
X192146630Y-57498634D01*
X192166439Y-57446136D01*
X192170175Y-57440547D01*
X192236624Y-57280124D01*
X192261367Y-57155734D01*
X192270500Y-57109822D01*
X192270500Y-56936177D01*
X192236625Y-56765881D01*
X192236624Y-56765880D01*
X192236624Y-56765876D01*
X192218503Y-56722127D01*
X192170178Y-56605459D01*
X192170171Y-56605446D01*
X192073706Y-56461077D01*
X192073703Y-56461073D01*
X191950925Y-56338295D01*
X191950922Y-56338293D01*
X191806553Y-56241828D01*
X191806540Y-56241821D01*
X191646128Y-56175377D01*
X191646118Y-56175374D01*
X191475822Y-56141500D01*
X191475820Y-56141500D01*
X190743500Y-56141500D01*
X190676461Y-56121815D01*
X190630706Y-56069011D01*
X190619500Y-56017500D01*
X190619500Y-52889700D01*
X190639185Y-52822661D01*
X190691989Y-52776906D01*
X190743500Y-52765700D01*
X191364413Y-52765700D01*
X191431452Y-52785385D01*
G37*
%TD.AperFunction*%
%TA.AperFunction,Conductor*%
G36*
X142032039Y-40906185D02*
G01*
X142077794Y-40958989D01*
X142089000Y-41010500D01*
X142089000Y-47429000D01*
X190089000Y-47429000D01*
X190089000Y-45438013D01*
X193339000Y-45438013D01*
X193339000Y-45575500D01*
X194314000Y-45575500D01*
X194814000Y-45575500D01*
X195788999Y-45575500D01*
X195788999Y-45438028D01*
X195788998Y-45438013D01*
X195778505Y-45335302D01*
X195723358Y-45168880D01*
X195723356Y-45168875D01*
X195631315Y-45019654D01*
X195520174Y-44908513D01*
X196387000Y-44908513D01*
X196387000Y-45046000D01*
X197362000Y-45046000D01*
X197862000Y-45046000D01*
X198836999Y-45046000D01*
X198836999Y-44908528D01*
X198836998Y-44908513D01*
X198826505Y-44805802D01*
X198771358Y-44639380D01*
X198771356Y-44639375D01*
X198679315Y-44490154D01*
X198555345Y-44366184D01*
X198406124Y-44274143D01*
X198406119Y-44274141D01*
X198239697Y-44218994D01*
X198239690Y-44218993D01*
X198136986Y-44208500D01*
X197862000Y-44208500D01*
X197862000Y-45046000D01*
X197362000Y-45046000D01*
X197362000Y-44208500D01*
X197087029Y-44208500D01*
X197087012Y-44208501D01*
X196984302Y-44218994D01*
X196817880Y-44274141D01*
X196817875Y-44274143D01*
X196668654Y-44366184D01*
X196544684Y-44490154D01*
X196452643Y-44639375D01*
X196452641Y-44639380D01*
X196397494Y-44805802D01*
X196397493Y-44805809D01*
X196387000Y-44908513D01*
X195520174Y-44908513D01*
X195507345Y-44895684D01*
X195358124Y-44803643D01*
X195358119Y-44803641D01*
X195191697Y-44748494D01*
X195191690Y-44748493D01*
X195088986Y-44738000D01*
X194814000Y-44738000D01*
X194814000Y-45575500D01*
X194314000Y-45575500D01*
X194314000Y-44738000D01*
X194039029Y-44738000D01*
X194039012Y-44738001D01*
X193936302Y-44748494D01*
X193769880Y-44803641D01*
X193769875Y-44803643D01*
X193620654Y-44895684D01*
X193496684Y-45019654D01*
X193404643Y-45168875D01*
X193404641Y-45168880D01*
X193349494Y-45335302D01*
X193349493Y-45335309D01*
X193339000Y-45438013D01*
X190089000Y-45438013D01*
X190089000Y-41010500D01*
X190108685Y-40943461D01*
X190161489Y-40897706D01*
X190213000Y-40886500D01*
X194471032Y-40886500D01*
X194471834Y-40886503D01*
X214260304Y-41014500D01*
X214327213Y-41034617D01*
X214372625Y-41087716D01*
X214383500Y-41138497D01*
X214383500Y-96784500D01*
X214363815Y-96851539D01*
X214311011Y-96897294D01*
X214259500Y-96908500D01*
X117718500Y-96908500D01*
X117651461Y-96888815D01*
X117605706Y-96836011D01*
X117594500Y-96784500D01*
X117594500Y-74551986D01*
X134055001Y-74551986D01*
X134065494Y-74654697D01*
X134120641Y-74821119D01*
X134120643Y-74821124D01*
X134212684Y-74970345D01*
X134336654Y-75094315D01*
X134485875Y-75186356D01*
X134485880Y-75186358D01*
X134652302Y-75241505D01*
X134652309Y-75241506D01*
X134755019Y-75251999D01*
X135004999Y-75251999D01*
X135005000Y-75251998D01*
X135005000Y-74402000D01*
X134055001Y-74402000D01*
X134055001Y-74551986D01*
X117594500Y-74551986D01*
X117594500Y-62100013D01*
X125927000Y-62100013D01*
X125927000Y-62250000D01*
X126877000Y-62250000D01*
X126877000Y-61400000D01*
X126627029Y-61400000D01*
X126627012Y-61400001D01*
X126524302Y-61410494D01*
X126357880Y-61465641D01*
X126357875Y-61465643D01*
X126208654Y-61557684D01*
X126084684Y-61681654D01*
X125992643Y-61830875D01*
X125992641Y-61830880D01*
X125937494Y-61997302D01*
X125937493Y-61997309D01*
X125927000Y-62100013D01*
X117594500Y-62100013D01*
X117594500Y-50438133D01*
X119435500Y-50438133D01*
X119435500Y-50653866D01*
X119469245Y-50866922D01*
X119469246Y-50866926D01*
X119535908Y-51072089D01*
X119633843Y-51264299D01*
X119760641Y-51438821D01*
X119913179Y-51591359D01*
X120003066Y-51656666D01*
X120084294Y-51715682D01*
X120126959Y-51771012D01*
X120132938Y-51840626D01*
X120100332Y-51902421D01*
X120084294Y-51916318D01*
X120070950Y-51926013D01*
X119913179Y-52040641D01*
X119913177Y-52040643D01*
X119913176Y-52040643D01*
X119760643Y-52193176D01*
X119760643Y-52193177D01*
X119760641Y-52193179D01*
X119709243Y-52263922D01*
X119633843Y-52367700D01*
X119535909Y-52559908D01*
X119469245Y-52765077D01*
X119435500Y-52978133D01*
X119435500Y-53193866D01*
X119469245Y-53406922D01*
X119469246Y-53406926D01*
X119535908Y-53612089D01*
X119633843Y-53804299D01*
X119760641Y-53978821D01*
X119913179Y-54131359D01*
X119992515Y-54189000D01*
X120084294Y-54255682D01*
X120126959Y-54311012D01*
X120132938Y-54380626D01*
X120100332Y-54442421D01*
X120084294Y-54456318D01*
X119913179Y-54580641D01*
X119913177Y-54580643D01*
X119913176Y-54580643D01*
X119760643Y-54733176D01*
X119760643Y-54733177D01*
X119760641Y-54733179D01*
X119720085Y-54789000D01*
X119633843Y-54907700D01*
X119535909Y-55099908D01*
X119535908Y-55099910D01*
X119535908Y-55099911D01*
X119532467Y-55110500D01*
X119469245Y-55305077D01*
X119435500Y-55518133D01*
X119435500Y-55733866D01*
X119469245Y-55946922D01*
X119469246Y-55946926D01*
X119535908Y-56152089D01*
X119633843Y-56344299D01*
X119756219Y-56512735D01*
X119760642Y-56518822D01*
X119902624Y-56660804D01*
X119936109Y-56722127D01*
X119931125Y-56791819D01*
X119889253Y-56847752D01*
X119867360Y-56860861D01*
X119866677Y-56861179D01*
X119717342Y-56953289D01*
X119593289Y-57077342D01*
X119501187Y-57226663D01*
X119501185Y-57226668D01*
X119446001Y-57393203D01*
X119435500Y-57495983D01*
X119435500Y-58836001D01*
X119435501Y-58836018D01*
X119446000Y-58938796D01*
X119446001Y-58938799D01*
X119486057Y-59059679D01*
X119501186Y-59105334D01*
X119593288Y-59254656D01*
X119717344Y-59378712D01*
X119866666Y-59470814D01*
X120033203Y-59525999D01*
X120135991Y-59536500D01*
X121926008Y-59536499D01*
X122028797Y-59525999D01*
X122195334Y-59470814D01*
X122344656Y-59378712D01*
X122468712Y-59254656D01*
X122560154Y-59106403D01*
X122612102Y-59059679D01*
X122665693Y-59047500D01*
X123530823Y-59047500D01*
X123675163Y-59018788D01*
X123701124Y-59013624D01*
X123781335Y-58980399D01*
X123861543Y-58947177D01*
X123861544Y-58947176D01*
X123861547Y-58947175D01*
X124005924Y-58850706D01*
X129880642Y-52975986D01*
X145576001Y-52975986D01*
X145586494Y-53078697D01*
X145641641Y-53245119D01*
X145641643Y-53245124D01*
X145733684Y-53394345D01*
X145857654Y-53518315D01*
X146006875Y-53610356D01*
X146006880Y-53610358D01*
X146173302Y-53665505D01*
X146173309Y-53665506D01*
X146276019Y-53675999D01*
X146413499Y-53675999D01*
X146413500Y-53675998D01*
X146413500Y-52701000D01*
X145576001Y-52701000D01*
X145576001Y-52975986D01*
X129880642Y-52975986D01*
X131392810Y-51463818D01*
X131454133Y-51430334D01*
X131480491Y-51427500D01*
X145560949Y-51427500D01*
X145627988Y-51447185D01*
X145673743Y-51499989D01*
X145683687Y-51569147D01*
X145666488Y-51616597D01*
X145641643Y-51656875D01*
X145641641Y-51656880D01*
X145586494Y-51823302D01*
X145586493Y-51823309D01*
X145576000Y-51926013D01*
X145576000Y-52201000D01*
X146789500Y-52201000D01*
X146856539Y-52220685D01*
X146902294Y-52273489D01*
X146913500Y-52325000D01*
X146913500Y-53675999D01*
X147050972Y-53675999D01*
X147050986Y-53675998D01*
X147153697Y-53665505D01*
X147320119Y-53610358D01*
X147320126Y-53610355D01*
X147399160Y-53561606D01*
X147466553Y-53543165D01*
X147533216Y-53564087D01*
X147577986Y-53617729D01*
X147586648Y-53687059D01*
X147581300Y-53708098D01*
X147550632Y-53795742D01*
X147550630Y-53795750D01*
X147530435Y-53974996D01*
X147530435Y-53981963D01*
X147528238Y-53981963D01*
X147518007Y-54040424D01*
X147470665Y-54091809D01*
X147406834Y-54109500D01*
X136831683Y-54109500D01*
X136685927Y-54138493D01*
X136685919Y-54138495D01*
X136548608Y-54195371D01*
X136425035Y-54277939D01*
X136425034Y-54277940D01*
X136391963Y-54311012D01*
X136319941Y-54383034D01*
X136319939Y-54383036D01*
X129729830Y-60973143D01*
X129682322Y-61001623D01*
X129682547Y-61002164D01*
X129678902Y-61003673D01*
X129678163Y-61004117D01*
X129676924Y-61004492D01*
X129620045Y-61028052D01*
X129620045Y-61028053D01*
X129539611Y-61061370D01*
X129539609Y-61061371D01*
X129416033Y-61143941D01*
X129363487Y-61196487D01*
X129310941Y-61249034D01*
X129310939Y-61249036D01*
X128519926Y-62040047D01*
X128458603Y-62073532D01*
X128388911Y-62068548D01*
X128332978Y-62026676D01*
X128314539Y-61991370D01*
X128261358Y-61830880D01*
X128261356Y-61830875D01*
X128169315Y-61681654D01*
X128045345Y-61557684D01*
X127896124Y-61465643D01*
X127896119Y-61465641D01*
X127729697Y-61410494D01*
X127729690Y-61410493D01*
X127626986Y-61400000D01*
X127377000Y-61400000D01*
X127377000Y-62626000D01*
X127357315Y-62693039D01*
X127304511Y-62738794D01*
X127253000Y-62750000D01*
X125927001Y-62750000D01*
X125927001Y-62899986D01*
X125937494Y-63002697D01*
X125992641Y-63169119D01*
X125992643Y-63169124D01*
X126084684Y-63318345D01*
X126178304Y-63411965D01*
X126211789Y-63473288D01*
X126206805Y-63542980D01*
X126178305Y-63587327D01*
X126084286Y-63681346D01*
X126071179Y-63702597D01*
X126019231Y-63749322D01*
X125965641Y-63761500D01*
X122838603Y-63761500D01*
X122771564Y-63741815D01*
X122725809Y-63689011D01*
X122720897Y-63676504D01*
X122715802Y-63661128D01*
X122687814Y-63576666D01*
X122595712Y-63427344D01*
X122471656Y-63303288D01*
X122322334Y-63211186D01*
X122155797Y-63156001D01*
X122155795Y-63156000D01*
X122053010Y-63145500D01*
X120262998Y-63145500D01*
X120262981Y-63145501D01*
X120160203Y-63156000D01*
X120160200Y-63156001D01*
X119993668Y-63211185D01*
X119993663Y-63211187D01*
X119844342Y-63303289D01*
X119720289Y-63427342D01*
X119628187Y-63576663D01*
X119628186Y-63576666D01*
X119573001Y-63743203D01*
X119573001Y-63743204D01*
X119573000Y-63743204D01*
X119562500Y-63845983D01*
X119562500Y-65186001D01*
X119562501Y-65186018D01*
X119573000Y-65288796D01*
X119573001Y-65288799D01*
X119621417Y-65434908D01*
X119628186Y-65455334D01*
X119720288Y-65604656D01*
X119844344Y-65728712D01*
X119993666Y-65820814D01*
X119993668Y-65820814D01*
X119993669Y-65820815D01*
X119994348Y-65821132D01*
X119994735Y-65821473D01*
X119999813Y-65824605D01*
X119999277Y-65825472D01*
X120046787Y-65867304D01*
X120065939Y-65934498D01*
X120045723Y-66001379D01*
X120029625Y-66021195D01*
X119887640Y-66163180D01*
X119760843Y-66337700D01*
X119662909Y-66529908D01*
X119596245Y-66735077D01*
X119562500Y-66948133D01*
X119562500Y-67163866D01*
X119596245Y-67376922D01*
X119596246Y-67376926D01*
X119662908Y-67582089D01*
X119760843Y-67774299D01*
X119887641Y-67948821D01*
X120040179Y-68101359D01*
X120161454Y-68189471D01*
X120211294Y-68225682D01*
X120253959Y-68281012D01*
X120259938Y-68350626D01*
X120227332Y-68412421D01*
X120211294Y-68426318D01*
X120040179Y-68550641D01*
X120040177Y-68550643D01*
X120040176Y-68550643D01*
X119887643Y-68703176D01*
X119887643Y-68703177D01*
X119887641Y-68703179D01*
X119887639Y-68703182D01*
X119760843Y-68877700D01*
X119662909Y-69069908D01*
X119596245Y-69275077D01*
X119562500Y-69488133D01*
X119562500Y-69703866D01*
X119596245Y-69916922D01*
X119596246Y-69916926D01*
X119657766Y-70106265D01*
X119662909Y-70122091D01*
X119714579Y-70223500D01*
X119760843Y-70314299D01*
X119887641Y-70488821D01*
X120040179Y-70641359D01*
X120134904Y-70710181D01*
X120211294Y-70765682D01*
X120253959Y-70821012D01*
X120259938Y-70890626D01*
X120227332Y-70952421D01*
X120211294Y-70966318D01*
X120040179Y-71090641D01*
X120040177Y-71090643D01*
X120040176Y-71090643D01*
X119887643Y-71243176D01*
X119887643Y-71243177D01*
X119887641Y-71243179D01*
X119882761Y-71249896D01*
X119760843Y-71417700D01*
X119662909Y-71609908D01*
X119596245Y-71815077D01*
X119562500Y-72028133D01*
X119562500Y-72243866D01*
X119596245Y-72456922D01*
X119596246Y-72456926D01*
X119662908Y-72662089D01*
X119760843Y-72854299D01*
X119887641Y-73028821D01*
X120040179Y-73181359D01*
X120214701Y-73308157D01*
X120406911Y-73406092D01*
X120612074Y-73472754D01*
X120691973Y-73485408D01*
X120825134Y-73506500D01*
X120825139Y-73506500D01*
X121490866Y-73506500D01*
X121609230Y-73487752D01*
X121703926Y-73472754D01*
X121909089Y-73406092D01*
X122101299Y-73308157D01*
X122275821Y-73181359D01*
X122428359Y-73028821D01*
X122491718Y-72941615D01*
X122547048Y-72898949D01*
X122592036Y-72890500D01*
X134093641Y-72890500D01*
X134160680Y-72910185D01*
X134199179Y-72949403D01*
X134212287Y-72970654D01*
X134212289Y-72970657D01*
X134306304Y-73064672D01*
X134339789Y-73125995D01*
X134334805Y-73195687D01*
X134306305Y-73240034D01*
X134212682Y-73333657D01*
X134120643Y-73482875D01*
X134120641Y-73482880D01*
X134065494Y-73649302D01*
X134065493Y-73649309D01*
X134055000Y-73752013D01*
X134055000Y-73902000D01*
X135381000Y-73902000D01*
X135448039Y-73921685D01*
X135493794Y-73974489D01*
X135505000Y-74026000D01*
X135505000Y-75251999D01*
X135754972Y-75251999D01*
X135754986Y-75251998D01*
X135857697Y-75241505D01*
X136024119Y-75186358D01*
X136024124Y-75186356D01*
X136173345Y-75094315D01*
X136297315Y-74970345D01*
X136389356Y-74821124D01*
X136389358Y-74821119D01*
X136424294Y-74715690D01*
X136464066Y-74658245D01*
X136528582Y-74631422D01*
X136597358Y-74643737D01*
X136648558Y-74691280D01*
X136666000Y-74754694D01*
X136666000Y-75038899D01*
X136646315Y-75105938D01*
X136593511Y-75151693D01*
X136558196Y-75161837D01*
X136557031Y-75161990D01*
X136557027Y-75161991D01*
X136420074Y-75218719D01*
X136420071Y-75218720D01*
X136420071Y-75218721D01*
X136302464Y-75308964D01*
X136245390Y-75383345D01*
X136212219Y-75426574D01*
X136155491Y-75563527D01*
X136155490Y-75563529D01*
X136141001Y-75673589D01*
X136141000Y-75673605D01*
X136141000Y-75998500D01*
X136121315Y-76065539D01*
X136068511Y-76111294D01*
X136017000Y-76122500D01*
X135692096Y-76122500D01*
X135582036Y-76136988D01*
X135582027Y-76136991D01*
X135445074Y-76193719D01*
X135445071Y-76193720D01*
X135445071Y-76193721D01*
X135414976Y-76216814D01*
X135327464Y-76283964D01*
X135237219Y-76401574D01*
X135180491Y-76538527D01*
X135180490Y-76538529D01*
X135166000Y-76648598D01*
X135166000Y-76847403D01*
X135180338Y-76956317D01*
X135169572Y-77025352D01*
X135123191Y-77077607D01*
X135057399Y-77096500D01*
X133891672Y-77096500D01*
X133825700Y-77077494D01*
X133699523Y-76998211D01*
X133529254Y-76938631D01*
X133529249Y-76938630D01*
X133350004Y-76918435D01*
X133349996Y-76918435D01*
X133170750Y-76938630D01*
X133170745Y-76938631D01*
X133000476Y-76998211D01*
X132847737Y-77094184D01*
X132720184Y-77221737D01*
X132624211Y-77374476D01*
X132564631Y-77544745D01*
X132564630Y-77544750D01*
X132544435Y-77723996D01*
X132544435Y-77724003D01*
X132564630Y-77903249D01*
X132564631Y-77903254D01*
X132624211Y-78073523D01*
X132676820Y-78157249D01*
X132720184Y-78226262D01*
X132847738Y-78353816D01*
X132938080Y-78410582D01*
X132998574Y-78448593D01*
X133000478Y-78449789D01*
X133087565Y-78480262D01*
X133170745Y-78509368D01*
X133170750Y-78509369D01*
X133349996Y-78529565D01*
X133350000Y-78529565D01*
X133350004Y-78529565D01*
X133529248Y-78509369D01*
X133529248Y-78509368D01*
X133529255Y-78509368D01*
X133537200Y-78506587D01*
X133606976Y-78503024D01*
X133667604Y-78537750D01*
X133699834Y-78599743D01*
X133701376Y-78609743D01*
X133707630Y-78665250D01*
X133707631Y-78665254D01*
X133767211Y-78835523D01*
X133835349Y-78943963D01*
X133863184Y-78988262D01*
X133990738Y-79115816D01*
X134069810Y-79165500D01*
X134143474Y-79211787D01*
X134143478Y-79211789D01*
X134203793Y-79232894D01*
X134313745Y-79271368D01*
X134313750Y-79271369D01*
X134492996Y-79291565D01*
X134493000Y-79291565D01*
X134493004Y-79291565D01*
X134672249Y-79271369D01*
X134672252Y-79271368D01*
X134672255Y-79271368D01*
X134842522Y-79211789D01*
X134842524Y-79211787D01*
X134842526Y-79211787D01*
X134976028Y-79127902D01*
X135043264Y-79108901D01*
X135110099Y-79129268D01*
X135155314Y-79182536D01*
X135166000Y-79232894D01*
X135166000Y-79347402D01*
X135180488Y-79457463D01*
X135180491Y-79457472D01*
X135201669Y-79508601D01*
X135237221Y-79594429D01*
X135327464Y-79712036D01*
X135445071Y-79802279D01*
X135582028Y-79859009D01*
X135692099Y-79873500D01*
X135994925Y-79873499D01*
X136011116Y-79875094D01*
X136011135Y-79874903D01*
X136023263Y-79876098D01*
X136023087Y-79877874D01*
X136082039Y-79895185D01*
X136127794Y-79947989D01*
X136139000Y-79999500D01*
X136139000Y-81075307D01*
X136163112Y-81196527D01*
X136163114Y-81196535D01*
X136184729Y-81248718D01*
X136210416Y-81310731D01*
X136210418Y-81310735D01*
X136226402Y-81334657D01*
X136226403Y-81334657D01*
X136279090Y-81413510D01*
X136279091Y-81413511D01*
X137434589Y-82569008D01*
X137499953Y-82634372D01*
X137521992Y-82656411D01*
X137521993Y-82656412D01*
X137624766Y-82725082D01*
X137624767Y-82725082D01*
X137624768Y-82725083D01*
X137738965Y-82772386D01*
X137860192Y-82796499D01*
X137860196Y-82796500D01*
X137860197Y-82796500D01*
X137983804Y-82796500D01*
X137983805Y-82796499D01*
X138105035Y-82772386D01*
X138141038Y-82757472D01*
X138188490Y-82748034D01*
X138768443Y-82748034D01*
X138815894Y-82757472D01*
X138851898Y-82772386D01*
X138973124Y-82796499D01*
X138973128Y-82796500D01*
X138973129Y-82796500D01*
X140924362Y-82796500D01*
X140991401Y-82816185D01*
X141037156Y-82868989D01*
X141042068Y-82881496D01*
X141069185Y-82963331D01*
X141069187Y-82963336D01*
X141104069Y-83019888D01*
X141161288Y-83112656D01*
X141285344Y-83236712D01*
X141434666Y-83328814D01*
X141434670Y-83328815D01*
X141441209Y-83331864D01*
X141439963Y-83334534D01*
X141486422Y-83366699D01*
X141504534Y-83397178D01*
X141510469Y-83411505D01*
X141510471Y-83411510D01*
X141535413Y-83471726D01*
X141535415Y-83471730D01*
X141535417Y-83471733D01*
X141540160Y-83478831D01*
X141582604Y-83542353D01*
X141604090Y-83574510D01*
X143553399Y-85523819D01*
X143586884Y-85585142D01*
X143581900Y-85654834D01*
X143553399Y-85699181D01*
X142159400Y-87093181D01*
X142098077Y-87126666D01*
X142071719Y-87129500D01*
X140728354Y-87129500D01*
X140661315Y-87109815D01*
X140615560Y-87057011D01*
X140610648Y-87044504D01*
X140610468Y-87043960D01*
X140591814Y-86987666D01*
X140499712Y-86838344D01*
X140375656Y-86714288D01*
X140226334Y-86622186D01*
X140059797Y-86567001D01*
X140059795Y-86567000D01*
X139957010Y-86556500D01*
X139206998Y-86556500D01*
X139206980Y-86556501D01*
X139104203Y-86567000D01*
X139104200Y-86567001D01*
X138937668Y-86622185D01*
X138937663Y-86622187D01*
X138788342Y-86714289D01*
X138664285Y-86838346D01*
X138662537Y-86841182D01*
X138660829Y-86842717D01*
X138659807Y-86844011D01*
X138659585Y-86843836D01*
X138610589Y-86887905D01*
X138541626Y-86899126D01*
X138477544Y-86871282D01*
X138451463Y-86841182D01*
X138449714Y-86838346D01*
X138325657Y-86714289D01*
X138325656Y-86714288D01*
X138176334Y-86622186D01*
X138009797Y-86567001D01*
X138009795Y-86567000D01*
X137907010Y-86556500D01*
X137156998Y-86556500D01*
X137156980Y-86556501D01*
X137054203Y-86567000D01*
X137054200Y-86567001D01*
X136887668Y-86622185D01*
X136887663Y-86622187D01*
X136738342Y-86714289D01*
X136614289Y-86838342D01*
X136522187Y-86987663D01*
X136522183Y-86987672D01*
X136516274Y-87005506D01*
X136476501Y-87062950D01*
X136411984Y-87089772D01*
X136398569Y-87090500D01*
X130273004Y-87090500D01*
X130229671Y-87082682D01*
X130144482Y-87050908D01*
X130144483Y-87050908D01*
X130084883Y-87044501D01*
X130084881Y-87044500D01*
X130084873Y-87044500D01*
X130084865Y-87044500D01*
X129556005Y-87044500D01*
X129488966Y-87024815D01*
X129443211Y-86972011D01*
X129433267Y-86902853D01*
X129462292Y-86839297D01*
X129487131Y-86817387D01*
X129489384Y-86815881D01*
X129556066Y-86795019D01*
X129558251Y-86795000D01*
X130537000Y-86795000D01*
X130537000Y-86697172D01*
X130536999Y-86697155D01*
X130530598Y-86637627D01*
X130530596Y-86637620D01*
X130480354Y-86502913D01*
X130480350Y-86502906D01*
X130394190Y-86387812D01*
X130394187Y-86387809D01*
X130279093Y-86301649D01*
X130279086Y-86301645D01*
X130144379Y-86251403D01*
X130144372Y-86251401D01*
X130084844Y-86245000D01*
X130064489Y-86245000D01*
X129997450Y-86225315D01*
X129951695Y-86172511D01*
X129941751Y-86103353D01*
X129942872Y-86096807D01*
X129947500Y-86073542D01*
X129947500Y-85876456D01*
X129909052Y-85683170D01*
X129909051Y-85683169D01*
X129909051Y-85683165D01*
X129897316Y-85654834D01*
X129833635Y-85501092D01*
X129833628Y-85501079D01*
X129724139Y-85337218D01*
X129724136Y-85337214D01*
X129584785Y-85197863D01*
X129584781Y-85197860D01*
X129420920Y-85088371D01*
X129420907Y-85088364D01*
X129238839Y-85012950D01*
X129238829Y-85012947D01*
X129045543Y-84974500D01*
X129045541Y-84974500D01*
X127748459Y-84974500D01*
X127748457Y-84974500D01*
X127555170Y-85012947D01*
X127555160Y-85012950D01*
X127373092Y-85088364D01*
X127373079Y-85088371D01*
X127209219Y-85197859D01*
X127172707Y-85234372D01*
X127095896Y-85311182D01*
X127034576Y-85344666D01*
X127008217Y-85347500D01*
X125355783Y-85347500D01*
X125288744Y-85327815D01*
X125268106Y-85311185D01*
X125154782Y-85197861D01*
X125154781Y-85197860D01*
X125154780Y-85197859D01*
X124990920Y-85088371D01*
X124990907Y-85088364D01*
X124808839Y-85012950D01*
X124808829Y-85012947D01*
X124615543Y-84974500D01*
X124615541Y-84974500D01*
X123818459Y-84974500D01*
X123818457Y-84974500D01*
X123625170Y-85012947D01*
X123625160Y-85012950D01*
X123443092Y-85088364D01*
X123443079Y-85088371D01*
X123279218Y-85197860D01*
X123279214Y-85197863D01*
X123139863Y-85337214D01*
X123139860Y-85337218D01*
X123030371Y-85501079D01*
X123030364Y-85501092D01*
X122954950Y-85683160D01*
X122954947Y-85683170D01*
X122916500Y-85876456D01*
X122916500Y-85876459D01*
X122916500Y-86073541D01*
X122916500Y-86073543D01*
X122916499Y-86073543D01*
X122954947Y-86266829D01*
X122954950Y-86266839D01*
X123030364Y-86448907D01*
X123030371Y-86448920D01*
X123139860Y-86612781D01*
X123139863Y-86612785D01*
X123279217Y-86752139D01*
X123443080Y-86861628D01*
X123443086Y-86861632D01*
X123506515Y-86887905D01*
X123512952Y-86890571D01*
X123567356Y-86934411D01*
X123589421Y-87000705D01*
X123589500Y-87005132D01*
X123589500Y-93584866D01*
X123569815Y-93651905D01*
X123517011Y-93697660D01*
X123512954Y-93699427D01*
X123443086Y-93728368D01*
X123443079Y-93728371D01*
X123279218Y-93837860D01*
X123279214Y-93837863D01*
X123139863Y-93977214D01*
X123139860Y-93977218D01*
X123030371Y-94141079D01*
X123030364Y-94141092D01*
X122954950Y-94323160D01*
X122954947Y-94323170D01*
X122916500Y-94516456D01*
X122916500Y-94516457D01*
X122916500Y-94516459D01*
X122916500Y-94713541D01*
X122916500Y-94713543D01*
X122916499Y-94713543D01*
X122954947Y-94906829D01*
X122954950Y-94906839D01*
X123030364Y-95088907D01*
X123030371Y-95088920D01*
X123139860Y-95252781D01*
X123139863Y-95252785D01*
X123279214Y-95392136D01*
X123279218Y-95392139D01*
X123443079Y-95501628D01*
X123443092Y-95501635D01*
X123625160Y-95577049D01*
X123625165Y-95577051D01*
X123625169Y-95577051D01*
X123625170Y-95577052D01*
X123818456Y-95615500D01*
X123818459Y-95615500D01*
X124615543Y-95615500D01*
X124745582Y-95589632D01*
X124808835Y-95577051D01*
X124990914Y-95501632D01*
X125154782Y-95392139D01*
X125268103Y-95278817D01*
X125329424Y-95245334D01*
X125355783Y-95242500D01*
X127008217Y-95242500D01*
X127075256Y-95262185D01*
X127095893Y-95278814D01*
X127209215Y-95392136D01*
X127209219Y-95392140D01*
X127373079Y-95501628D01*
X127373092Y-95501635D01*
X127555160Y-95577049D01*
X127555165Y-95577051D01*
X127555169Y-95577051D01*
X127555170Y-95577052D01*
X127748456Y-95615500D01*
X127748459Y-95615500D01*
X129045543Y-95615500D01*
X129175582Y-95589632D01*
X129238835Y-95577051D01*
X129420914Y-95501632D01*
X129584782Y-95392139D01*
X129724139Y-95252782D01*
X129833632Y-95088914D01*
X129909051Y-94906835D01*
X129941808Y-94742156D01*
X129947500Y-94713543D01*
X129947500Y-94516457D01*
X129942872Y-94493193D01*
X129949099Y-94423601D01*
X129991961Y-94368423D01*
X130057850Y-94345178D01*
X130064489Y-94345000D01*
X130084828Y-94345000D01*
X130084844Y-94344999D01*
X130144372Y-94338598D01*
X130144379Y-94338596D01*
X130279086Y-94288354D01*
X130279093Y-94288350D01*
X130394187Y-94202190D01*
X130394190Y-94202187D01*
X130480350Y-94087093D01*
X130480354Y-94087086D01*
X130530596Y-93952379D01*
X130530598Y-93952372D01*
X130536999Y-93892844D01*
X130537000Y-93892827D01*
X130537000Y-93795000D01*
X129558251Y-93795000D01*
X129491212Y-93775315D01*
X129489373Y-93774111D01*
X129487124Y-93772608D01*
X129442314Y-93719003D01*
X129433598Y-93649679D01*
X129463745Y-93586648D01*
X129523184Y-93549921D01*
X129556001Y-93545499D01*
X130084872Y-93545499D01*
X130144483Y-93539091D01*
X130279331Y-93488796D01*
X130394546Y-93402546D01*
X130394546Y-93402545D01*
X130401643Y-93397233D01*
X130467107Y-93372816D01*
X130475954Y-93372500D01*
X130578030Y-93372500D01*
X130644002Y-93391506D01*
X130714477Y-93435789D01*
X130714481Y-93435790D01*
X130884737Y-93495366D01*
X130884743Y-93495367D01*
X130884745Y-93495368D01*
X130884746Y-93495368D01*
X130884750Y-93495369D01*
X131063996Y-93515565D01*
X131064000Y-93515565D01*
X131064004Y-93515565D01*
X131243249Y-93495369D01*
X131243252Y-93495368D01*
X131243255Y-93495368D01*
X131413522Y-93435789D01*
X131566262Y-93339816D01*
X131693816Y-93212262D01*
X131789789Y-93059522D01*
X131849368Y-92889255D01*
X131849369Y-92889250D01*
X131861384Y-92782616D01*
X131888451Y-92718202D01*
X131946045Y-92678647D01*
X131984604Y-92672500D01*
X133030500Y-92672500D01*
X133097539Y-92692185D01*
X133143294Y-92744989D01*
X133154500Y-92796500D01*
X133154500Y-93337001D01*
X133154501Y-93337019D01*
X133165000Y-93439796D01*
X133165001Y-93439799D01*
X133220185Y-93606331D01*
X133220187Y-93606336D01*
X133225223Y-93614500D01*
X133312288Y-93755656D01*
X133436344Y-93879712D01*
X133585666Y-93971814D01*
X133752203Y-94026999D01*
X133854991Y-94037500D01*
X134655008Y-94037499D01*
X134655016Y-94037498D01*
X134655019Y-94037498D01*
X134711302Y-94031748D01*
X134757797Y-94026999D01*
X134924334Y-93971814D01*
X135073656Y-93879712D01*
X135167675Y-93785692D01*
X135228994Y-93752210D01*
X135298686Y-93757194D01*
X135343034Y-93785695D01*
X135436654Y-93879315D01*
X135585875Y-93971356D01*
X135585880Y-93971358D01*
X135752302Y-94026505D01*
X135752309Y-94026506D01*
X135855019Y-94036999D01*
X136004999Y-94036999D01*
X136505000Y-94036999D01*
X136654972Y-94036999D01*
X136654986Y-94036998D01*
X136757697Y-94026505D01*
X136924119Y-93971358D01*
X136924124Y-93971356D01*
X137073345Y-93879315D01*
X137197315Y-93755345D01*
X137289356Y-93606124D01*
X137289358Y-93606119D01*
X137344505Y-93439697D01*
X137344506Y-93439690D01*
X137354999Y-93336986D01*
X137355000Y-93336973D01*
X137355000Y-93087000D01*
X136505000Y-93087000D01*
X136505000Y-94036999D01*
X136004999Y-94036999D01*
X136005000Y-94036998D01*
X136005000Y-92587000D01*
X136505000Y-92587000D01*
X137354999Y-92587000D01*
X137354999Y-92337028D01*
X137354998Y-92337013D01*
X137344505Y-92234302D01*
X137289358Y-92067880D01*
X137289356Y-92067875D01*
X137197315Y-91918654D01*
X137073347Y-91794686D01*
X137069024Y-91791268D01*
X137028646Y-91734247D01*
X137025506Y-91664448D01*
X137060600Y-91604032D01*
X137069024Y-91596732D01*
X137073347Y-91593313D01*
X137197315Y-91469345D01*
X137289356Y-91320124D01*
X137289358Y-91320119D01*
X137344505Y-91153697D01*
X137344506Y-91153690D01*
X137354999Y-91050986D01*
X137355000Y-91050973D01*
X137355000Y-90801000D01*
X136505000Y-90801000D01*
X136505000Y-92587000D01*
X136005000Y-92587000D01*
X136005000Y-90301000D01*
X136505000Y-90301000D01*
X137354999Y-90301000D01*
X137354999Y-90051028D01*
X137354998Y-90051013D01*
X137344505Y-89948302D01*
X137289358Y-89781880D01*
X137289356Y-89781875D01*
X137197315Y-89632654D01*
X137073345Y-89508684D01*
X136924124Y-89416643D01*
X136924119Y-89416641D01*
X136757697Y-89361494D01*
X136757690Y-89361493D01*
X136654986Y-89351000D01*
X136505000Y-89351000D01*
X136505000Y-90301000D01*
X136005000Y-90301000D01*
X136005000Y-89351000D01*
X135855027Y-89351000D01*
X135855012Y-89351001D01*
X135752302Y-89361494D01*
X135585880Y-89416641D01*
X135585875Y-89416643D01*
X135436657Y-89508682D01*
X135343034Y-89602305D01*
X135281710Y-89635789D01*
X135212019Y-89630805D01*
X135167672Y-89602304D01*
X135073657Y-89508289D01*
X135073656Y-89508288D01*
X134924334Y-89416186D01*
X134757797Y-89361001D01*
X134757795Y-89361000D01*
X134655016Y-89350500D01*
X134655009Y-89350500D01*
X133955098Y-89350500D01*
X133888059Y-89330815D01*
X133867417Y-89314181D01*
X133617949Y-89064713D01*
X133584464Y-89003390D01*
X133588588Y-88936079D01*
X133619715Y-88847127D01*
X133627367Y-88825259D01*
X133627367Y-88825257D01*
X133627368Y-88825255D01*
X133632313Y-88781363D01*
X133659378Y-88716951D01*
X133667853Y-88707565D01*
X133739602Y-88635818D01*
X133800926Y-88602333D01*
X133827282Y-88599500D01*
X136498108Y-88599500D01*
X136565147Y-88619185D01*
X136603645Y-88658401D01*
X136614288Y-88675656D01*
X136738344Y-88799712D01*
X136887666Y-88891814D01*
X137054203Y-88946999D01*
X137156991Y-88957500D01*
X137907008Y-88957499D01*
X137907016Y-88957498D01*
X137907019Y-88957498D01*
X137963302Y-88951748D01*
X138009797Y-88946999D01*
X138176334Y-88891814D01*
X138325656Y-88799712D01*
X138449712Y-88675656D01*
X138451461Y-88672819D01*
X138453169Y-88671283D01*
X138454193Y-88669989D01*
X138454414Y-88670163D01*
X138503406Y-88626096D01*
X138572368Y-88614872D01*
X138636451Y-88642713D01*
X138662537Y-88672817D01*
X138664288Y-88675656D01*
X138788344Y-88799712D01*
X138937666Y-88891814D01*
X139104203Y-88946999D01*
X139206991Y-88957500D01*
X139957008Y-88957499D01*
X139957016Y-88957498D01*
X139957019Y-88957498D01*
X140013302Y-88951748D01*
X140059797Y-88946999D01*
X140226334Y-88891814D01*
X140375656Y-88799712D01*
X140499712Y-88675656D01*
X140591814Y-88526334D01*
X140610648Y-88469495D01*
X140650421Y-88412051D01*
X140714937Y-88385228D01*
X140728354Y-88384500D01*
X142071719Y-88384500D01*
X142138758Y-88404185D01*
X142159400Y-88420819D01*
X144421181Y-90682600D01*
X144454666Y-90743923D01*
X144457500Y-90770281D01*
X144457500Y-91432001D01*
X144457501Y-91432019D01*
X144468000Y-91534796D01*
X144468001Y-91534799D01*
X144523185Y-91701331D01*
X144523187Y-91701336D01*
X144540753Y-91729815D01*
X144615288Y-91850656D01*
X144739344Y-91974712D01*
X144888666Y-92066814D01*
X145055203Y-92121999D01*
X145157991Y-92132500D01*
X145958008Y-92132499D01*
X145958016Y-92132498D01*
X145958019Y-92132498D01*
X146014302Y-92126748D01*
X146060797Y-92121999D01*
X146227334Y-92066814D01*
X146376656Y-91974712D01*
X146470319Y-91881049D01*
X146531642Y-91847564D01*
X146601334Y-91852548D01*
X146645681Y-91881049D01*
X146739344Y-91974712D01*
X146888666Y-92066814D01*
X147055203Y-92121999D01*
X147157991Y-92132500D01*
X147958008Y-92132499D01*
X147958016Y-92132498D01*
X147958019Y-92132498D01*
X148014302Y-92126748D01*
X148060797Y-92121999D01*
X148227334Y-92066814D01*
X148376656Y-91974712D01*
X148500712Y-91850656D01*
X148592814Y-91701334D01*
X148611648Y-91644495D01*
X148651421Y-91587051D01*
X148715937Y-91560228D01*
X148729354Y-91559500D01*
X151879646Y-91559500D01*
X151946685Y-91579185D01*
X151992440Y-91631989D01*
X151997352Y-91644496D01*
X152016185Y-91701331D01*
X152016187Y-91701336D01*
X152033753Y-91729815D01*
X152108288Y-91850656D01*
X152232344Y-91974712D01*
X152381666Y-92066814D01*
X152548203Y-92121999D01*
X152650991Y-92132500D01*
X153401008Y-92132499D01*
X153401016Y-92132498D01*
X153401019Y-92132498D01*
X153457302Y-92126748D01*
X153503797Y-92121999D01*
X153670334Y-92066814D01*
X153819656Y-91974712D01*
X153943712Y-91850656D01*
X153945461Y-91847819D01*
X153947169Y-91846283D01*
X153948193Y-91844989D01*
X153948414Y-91845163D01*
X153997406Y-91801096D01*
X154066368Y-91789872D01*
X154130451Y-91817713D01*
X154156537Y-91847817D01*
X154158288Y-91850656D01*
X154282344Y-91974712D01*
X154431666Y-92066814D01*
X154598203Y-92121999D01*
X154700991Y-92132500D01*
X155451008Y-92132499D01*
X155451016Y-92132498D01*
X155451019Y-92132498D01*
X155507302Y-92126748D01*
X155553797Y-92121999D01*
X155720334Y-92066814D01*
X155869656Y-91974712D01*
X155993712Y-91850656D01*
X156085814Y-91701334D01*
X156140999Y-91534797D01*
X156151500Y-91432009D01*
X156151499Y-90795279D01*
X156171183Y-90728241D01*
X156187813Y-90707604D01*
X159970100Y-86925319D01*
X160031423Y-86891834D01*
X160057781Y-86889000D01*
X160949000Y-86889000D01*
X161016039Y-86908685D01*
X161061794Y-86961489D01*
X161073000Y-87013000D01*
X161073000Y-87184344D01*
X161079401Y-87243872D01*
X161079403Y-87243879D01*
X161129645Y-87378586D01*
X161129649Y-87378593D01*
X161215809Y-87493687D01*
X161215812Y-87493690D01*
X161330906Y-87579850D01*
X161330913Y-87579854D01*
X161465620Y-87630096D01*
X161465627Y-87630098D01*
X161525155Y-87636499D01*
X161525172Y-87636500D01*
X161873000Y-87636500D01*
X161873000Y-87110999D01*
X161892685Y-87043960D01*
X161945489Y-86998205D01*
X161996997Y-86986999D01*
X162199001Y-86986999D01*
X162266039Y-87006684D01*
X162311794Y-87059488D01*
X162323000Y-87110999D01*
X162323000Y-87636500D01*
X162670828Y-87636500D01*
X162670844Y-87636499D01*
X162730372Y-87630098D01*
X162730379Y-87630096D01*
X162865086Y-87579854D01*
X162865093Y-87579850D01*
X162980187Y-87493690D01*
X162980190Y-87493687D01*
X163066350Y-87378593D01*
X163066354Y-87378586D01*
X163116596Y-87243879D01*
X163116598Y-87243872D01*
X163122999Y-87184344D01*
X163123000Y-87184327D01*
X163123000Y-87034306D01*
X163142685Y-86967267D01*
X163195489Y-86921512D01*
X163264647Y-86911568D01*
X163290340Y-86918126D01*
X163295627Y-86920098D01*
X163355155Y-86926499D01*
X163355172Y-86926500D01*
X163888000Y-86926500D01*
X164388000Y-86926500D01*
X165358000Y-86926500D01*
X165358000Y-86229000D01*
X164388000Y-86229000D01*
X164388000Y-86926500D01*
X163888000Y-86926500D01*
X163888000Y-85729000D01*
X164388000Y-85729000D01*
X165358000Y-85729000D01*
X165358000Y-85334000D01*
X164388000Y-85334000D01*
X164388000Y-85729000D01*
X163888000Y-85729000D01*
X163888000Y-84834000D01*
X164388000Y-84834000D01*
X165358000Y-84834000D01*
X165358000Y-84439000D01*
X164388000Y-84439000D01*
X164388000Y-84834000D01*
X163888000Y-84834000D01*
X163888000Y-84439000D01*
X163148676Y-84439000D01*
X163125509Y-84451649D01*
X163055818Y-84446662D01*
X162999888Y-84404792D01*
X162999589Y-84404393D01*
X162980546Y-84378954D01*
X162942979Y-84350831D01*
X162858915Y-84287900D01*
X162817045Y-84231966D01*
X162812061Y-84162274D01*
X162845547Y-84100952D01*
X162860000Y-84086499D01*
X162860000Y-84063000D01*
X162879685Y-83995961D01*
X162932489Y-83950206D01*
X162984000Y-83939000D01*
X163888000Y-83939000D01*
X164388000Y-83939000D01*
X165358000Y-83939000D01*
X165358000Y-83544000D01*
X164388000Y-83544000D01*
X164388000Y-83939000D01*
X163888000Y-83939000D01*
X163888000Y-83044000D01*
X164388000Y-83044000D01*
X165358000Y-83044000D01*
X165358000Y-82346500D01*
X164388000Y-82346500D01*
X164388000Y-83044000D01*
X163888000Y-83044000D01*
X163888000Y-82346500D01*
X163355155Y-82346500D01*
X163295627Y-82352901D01*
X163295617Y-82352903D01*
X163290831Y-82354689D01*
X163221140Y-82359673D01*
X163159817Y-82326187D01*
X163126333Y-82264864D01*
X163123499Y-82238507D01*
X163123499Y-82088629D01*
X163123498Y-82088623D01*
X163123497Y-82088616D01*
X163117091Y-82029017D01*
X163076057Y-81919000D01*
X163066797Y-81894171D01*
X163066793Y-81894164D01*
X162980547Y-81778955D01*
X162980544Y-81778952D01*
X162865335Y-81692706D01*
X162865328Y-81692702D01*
X162730482Y-81642408D01*
X162730483Y-81642408D01*
X162670883Y-81636001D01*
X162670881Y-81636000D01*
X162670873Y-81636000D01*
X162670865Y-81636000D01*
X162515280Y-81636000D01*
X162448241Y-81616315D01*
X162402486Y-81563511D01*
X162392542Y-81494353D01*
X162421567Y-81430797D01*
X162427599Y-81424319D01*
X162783655Y-81068264D01*
X163305100Y-80546819D01*
X163366423Y-80513334D01*
X163392781Y-80510500D01*
X166312719Y-80510500D01*
X166379758Y-80530185D01*
X166400400Y-80546819D01*
X166984181Y-81130600D01*
X167017666Y-81191923D01*
X167020500Y-81218281D01*
X167020500Y-81554455D01*
X167000815Y-81621494D01*
X166948011Y-81667249D01*
X166939833Y-81670637D01*
X166880671Y-81692702D01*
X166880664Y-81692706D01*
X166765455Y-81778952D01*
X166765452Y-81778955D01*
X166679206Y-81894164D01*
X166679202Y-81894171D01*
X166628908Y-82029017D01*
X166622501Y-82088616D01*
X166622501Y-82088623D01*
X166622500Y-82088635D01*
X166622500Y-82238506D01*
X166602815Y-82305545D01*
X166550011Y-82351300D01*
X166480853Y-82361244D01*
X166455173Y-82354690D01*
X166450384Y-82352904D01*
X166450372Y-82352901D01*
X166390844Y-82346500D01*
X165858000Y-82346500D01*
X165858000Y-86926500D01*
X166390828Y-86926500D01*
X166390844Y-86926499D01*
X166450372Y-86920098D01*
X166450380Y-86920096D01*
X166455165Y-86918312D01*
X166524856Y-86913326D01*
X166586180Y-86946810D01*
X166619666Y-87008133D01*
X166622500Y-87034492D01*
X166622500Y-87184369D01*
X166622501Y-87184376D01*
X166628908Y-87243983D01*
X166679202Y-87378828D01*
X166679206Y-87378835D01*
X166765452Y-87494044D01*
X166765455Y-87494047D01*
X166880664Y-87580293D01*
X166880671Y-87580297D01*
X167015517Y-87630591D01*
X167015516Y-87630591D01*
X167022444Y-87631335D01*
X167075127Y-87637000D01*
X168220872Y-87636999D01*
X168280483Y-87630591D01*
X168415331Y-87580296D01*
X168437454Y-87563734D01*
X168502917Y-87539316D01*
X168511766Y-87539000D01*
X169721828Y-87539000D01*
X169787800Y-87558006D01*
X169913514Y-87636998D01*
X169913978Y-87637289D01*
X170084245Y-87696868D01*
X170084250Y-87696869D01*
X170263496Y-87717065D01*
X170263500Y-87717065D01*
X170263504Y-87717065D01*
X170442749Y-87696869D01*
X170442752Y-87696868D01*
X170442755Y-87696868D01*
X170613022Y-87637289D01*
X170765762Y-87541316D01*
X170893316Y-87413762D01*
X170989289Y-87261022D01*
X171048868Y-87090755D01*
X171052391Y-87059488D01*
X171059194Y-86999116D01*
X171086261Y-86934702D01*
X171143856Y-86895147D01*
X171182414Y-86889000D01*
X174044044Y-86889000D01*
X174111083Y-86908685D01*
X174156838Y-86961489D01*
X174160226Y-86969666D01*
X174164203Y-86980330D01*
X174164206Y-86980335D01*
X174250452Y-87095544D01*
X174250455Y-87095547D01*
X174365664Y-87181793D01*
X174365671Y-87181797D01*
X174500517Y-87232091D01*
X174500516Y-87232091D01*
X174507444Y-87232835D01*
X174560127Y-87238500D01*
X175655872Y-87238499D01*
X175715483Y-87232091D01*
X175850331Y-87181796D01*
X175900509Y-87144233D01*
X175965974Y-87119816D01*
X175974820Y-87119500D01*
X178912508Y-87119500D01*
X178979547Y-87139185D01*
X179000189Y-87155819D01*
X181073181Y-89228810D01*
X181106666Y-89290133D01*
X181109500Y-89316491D01*
X181109500Y-92011958D01*
X181089815Y-92078997D01*
X181073181Y-92099639D01*
X180945643Y-92227176D01*
X180945642Y-92227177D01*
X180821008Y-92398720D01*
X180765677Y-92441385D01*
X180696064Y-92447364D01*
X180634269Y-92414758D01*
X180620372Y-92398720D01*
X180495974Y-92227503D01*
X180495974Y-92227502D01*
X180343497Y-92075025D01*
X180169036Y-91948271D01*
X179976899Y-91850372D01*
X179771805Y-91783733D01*
X179701000Y-91772518D01*
X179701000Y-92802290D01*
X179680661Y-92790548D01*
X179529333Y-92750000D01*
X179372667Y-92750000D01*
X179221339Y-92790548D01*
X179201000Y-92802290D01*
X179201000Y-91772518D01*
X179200999Y-91772518D01*
X179130194Y-91783733D01*
X178925100Y-91850372D01*
X178732963Y-91948271D01*
X178558503Y-92075025D01*
X178558502Y-92075025D01*
X178406025Y-92227502D01*
X178406025Y-92227503D01*
X178279271Y-92401963D01*
X178181372Y-92594098D01*
X178114734Y-92799190D01*
X178081000Y-93012179D01*
X178081000Y-93095000D01*
X178908291Y-93095000D01*
X178896548Y-93115339D01*
X178856000Y-93266667D01*
X178856000Y-93423333D01*
X178896548Y-93574661D01*
X178908291Y-93595000D01*
X178081000Y-93595000D01*
X178081000Y-93677820D01*
X178114734Y-93890809D01*
X178181372Y-94095901D01*
X178279271Y-94288036D01*
X178406025Y-94462496D01*
X178406025Y-94462497D01*
X178558502Y-94614974D01*
X178732963Y-94741728D01*
X178925098Y-94839627D01*
X179130190Y-94906266D01*
X179201000Y-94917481D01*
X179201000Y-93887709D01*
X179221339Y-93899452D01*
X179372667Y-93940000D01*
X179529333Y-93940000D01*
X179680661Y-93899452D01*
X179701000Y-93887709D01*
X179701000Y-94917480D01*
X179771809Y-94906266D01*
X179976901Y-94839627D01*
X180169036Y-94741728D01*
X180343496Y-94614974D01*
X180343497Y-94614974D01*
X180495974Y-94462497D01*
X180495979Y-94462491D01*
X180620372Y-94291280D01*
X180675702Y-94248614D01*
X180745315Y-94242635D01*
X180807110Y-94275241D01*
X180821008Y-94291279D01*
X180945641Y-94462821D01*
X181098179Y-94615359D01*
X181272701Y-94742157D01*
X181464911Y-94840092D01*
X181670074Y-94906754D01*
X181737796Y-94917480D01*
X181883134Y-94940500D01*
X181883139Y-94940500D01*
X182098866Y-94940500D01*
X182217230Y-94921752D01*
X182311926Y-94906754D01*
X182517089Y-94840092D01*
X182709299Y-94742157D01*
X182883821Y-94615359D01*
X183025807Y-94473372D01*
X183087126Y-94439890D01*
X183156818Y-94444874D01*
X183212752Y-94486745D01*
X183225864Y-94508645D01*
X183226181Y-94509326D01*
X183226186Y-94509334D01*
X183318288Y-94658656D01*
X183442344Y-94782712D01*
X183591666Y-94874814D01*
X183758203Y-94929999D01*
X183860991Y-94940500D01*
X185201008Y-94940499D01*
X185303797Y-94929999D01*
X185470334Y-94874814D01*
X185619656Y-94782712D01*
X185743712Y-94658656D01*
X185835814Y-94509334D01*
X185890999Y-94342797D01*
X185901500Y-94240009D01*
X185901499Y-92449992D01*
X185894195Y-92378486D01*
X193339001Y-92378486D01*
X193349494Y-92481197D01*
X193404641Y-92647619D01*
X193404643Y-92647624D01*
X193496684Y-92796845D01*
X193620654Y-92920815D01*
X193769875Y-93012856D01*
X193769880Y-93012858D01*
X193936302Y-93068005D01*
X193936309Y-93068006D01*
X194039019Y-93078499D01*
X194313999Y-93078499D01*
X194814000Y-93078499D01*
X195088972Y-93078499D01*
X195088986Y-93078498D01*
X195191697Y-93068005D01*
X195358119Y-93012858D01*
X195358124Y-93012856D01*
X195507345Y-92920815D01*
X195631315Y-92796845D01*
X195723356Y-92647624D01*
X195723358Y-92647619D01*
X195777581Y-92483986D01*
X206166001Y-92483986D01*
X206176494Y-92586697D01*
X206231641Y-92753119D01*
X206231643Y-92753124D01*
X206323684Y-92902345D01*
X206447654Y-93026315D01*
X206596875Y-93118356D01*
X206596880Y-93118358D01*
X206763302Y-93173505D01*
X206763309Y-93173506D01*
X206866019Y-93183999D01*
X207140999Y-93183999D01*
X207641000Y-93183999D01*
X207915972Y-93183999D01*
X207915986Y-93183998D01*
X208018697Y-93173505D01*
X208185119Y-93118358D01*
X208185124Y-93118356D01*
X208334345Y-93026315D01*
X208458315Y-92902345D01*
X208550356Y-92753124D01*
X208550358Y-92753119D01*
X208605505Y-92586697D01*
X208605506Y-92586690D01*
X208615999Y-92483986D01*
X208616000Y-92483973D01*
X208616000Y-92346500D01*
X207641000Y-92346500D01*
X207641000Y-93183999D01*
X207140999Y-93183999D01*
X207141000Y-93183998D01*
X207141000Y-92346500D01*
X206166001Y-92346500D01*
X206166001Y-92483986D01*
X195777581Y-92483986D01*
X195778505Y-92481197D01*
X195778506Y-92481190D01*
X195788999Y-92378486D01*
X195789000Y-92378473D01*
X195789000Y-92241000D01*
X194814000Y-92241000D01*
X194814000Y-93078499D01*
X194313999Y-93078499D01*
X194314000Y-93078498D01*
X194314000Y-92241000D01*
X193339001Y-92241000D01*
X193339001Y-92378486D01*
X185894195Y-92378486D01*
X185890999Y-92347203D01*
X185835814Y-92180666D01*
X185743712Y-92031344D01*
X185619656Y-91907288D01*
X185470334Y-91815186D01*
X185303797Y-91760001D01*
X185303795Y-91760000D01*
X185201016Y-91749500D01*
X185201009Y-91749500D01*
X185005491Y-91749500D01*
X184938452Y-91729815D01*
X184892697Y-91677011D01*
X184882753Y-91607853D01*
X184911778Y-91544297D01*
X184917810Y-91537819D01*
X185201135Y-91254495D01*
X185621811Y-90833819D01*
X185683134Y-90800334D01*
X185709492Y-90797500D01*
X193520270Y-90797500D01*
X193587309Y-90817185D01*
X193607951Y-90833819D01*
X193620344Y-90846212D01*
X193623628Y-90848237D01*
X193623653Y-90848253D01*
X193625445Y-90850246D01*
X193626011Y-90850693D01*
X193625934Y-90850789D01*
X193670379Y-90900199D01*
X193681603Y-90969161D01*
X193653761Y-91033244D01*
X193623665Y-91059326D01*
X193620660Y-91061179D01*
X193620655Y-91061183D01*
X193496684Y-91185154D01*
X193404643Y-91334375D01*
X193404641Y-91334380D01*
X193349494Y-91500802D01*
X193349493Y-91500809D01*
X193339000Y-91603513D01*
X193339000Y-91741000D01*
X195788999Y-91741000D01*
X195788999Y-91603528D01*
X195788998Y-91603513D01*
X195778505Y-91500802D01*
X195723358Y-91334380D01*
X195723356Y-91334375D01*
X195631315Y-91185154D01*
X195560842Y-91114681D01*
X195527357Y-91053358D01*
X195532341Y-90983666D01*
X195574213Y-90927733D01*
X195639677Y-90903316D01*
X195648523Y-90903000D01*
X206347270Y-90903000D01*
X206414309Y-90922685D01*
X206434951Y-90939319D01*
X206447344Y-90951712D01*
X206450628Y-90953737D01*
X206450653Y-90953753D01*
X206452445Y-90955746D01*
X206453011Y-90956193D01*
X206452934Y-90956289D01*
X206497379Y-91005699D01*
X206508603Y-91074661D01*
X206480761Y-91138744D01*
X206450665Y-91164826D01*
X206447660Y-91166679D01*
X206447655Y-91166683D01*
X206323684Y-91290654D01*
X206231643Y-91439875D01*
X206231641Y-91439880D01*
X206176494Y-91606302D01*
X206176493Y-91606309D01*
X206166000Y-91709013D01*
X206166000Y-91846500D01*
X208615999Y-91846500D01*
X208615999Y-91709028D01*
X208615998Y-91709013D01*
X208605505Y-91606302D01*
X208550358Y-91439880D01*
X208550356Y-91439875D01*
X208458315Y-91290654D01*
X208334344Y-91166683D01*
X208334341Y-91166681D01*
X208331339Y-91164829D01*
X208329713Y-91163021D01*
X208328677Y-91162202D01*
X208328817Y-91162024D01*
X208284617Y-91112880D01*
X208273397Y-91043917D01*
X208301243Y-90979836D01*
X208331344Y-90953754D01*
X208334656Y-90951712D01*
X208458712Y-90827656D01*
X208550814Y-90678334D01*
X208605999Y-90511797D01*
X208616500Y-90409009D01*
X208616499Y-89633992D01*
X208616362Y-89632654D01*
X208605999Y-89531203D01*
X208605998Y-89531200D01*
X208598406Y-89508288D01*
X208550814Y-89364666D01*
X208458712Y-89215344D01*
X208334656Y-89091288D01*
X208334648Y-89091282D01*
X208331395Y-89089275D01*
X208329634Y-89087317D01*
X208328989Y-89086807D01*
X208329076Y-89086696D01*
X208284674Y-89037324D01*
X208272500Y-88983742D01*
X208272500Y-87213816D01*
X208292185Y-87146777D01*
X208318807Y-87117174D01*
X208402722Y-87049722D01*
X208522030Y-86901296D01*
X208606641Y-86730693D01*
X208652600Y-86545889D01*
X208655500Y-86503123D01*
X208655499Y-85100878D01*
X208652600Y-85058111D01*
X208606641Y-84873307D01*
X208544882Y-84748780D01*
X208522032Y-84702707D01*
X208522030Y-84702704D01*
X208402722Y-84554278D01*
X208402721Y-84554277D01*
X208254295Y-84434969D01*
X208254292Y-84434967D01*
X208083697Y-84350360D01*
X207898892Y-84304400D01*
X207877506Y-84302950D01*
X207856123Y-84301500D01*
X207856120Y-84301500D01*
X206953877Y-84301500D01*
X206953874Y-84301501D01*
X206911113Y-84304399D01*
X206911112Y-84304399D01*
X206726303Y-84350360D01*
X206555707Y-84434967D01*
X206555704Y-84434969D01*
X206407278Y-84554277D01*
X206407277Y-84554278D01*
X206351647Y-84623486D01*
X206294304Y-84663405D01*
X206224482Y-84665985D01*
X206164349Y-84630406D01*
X206158353Y-84623486D01*
X206148781Y-84611578D01*
X206102722Y-84554278D01*
X206032811Y-84498082D01*
X205992894Y-84440739D01*
X205986500Y-84401436D01*
X205986500Y-81126499D01*
X206006185Y-81059460D01*
X206058989Y-81013705D01*
X206110500Y-81002499D01*
X206563028Y-81002499D01*
X206563036Y-81002499D01*
X206682418Y-80991886D01*
X206878049Y-80935909D01*
X207058407Y-80841698D01*
X207216109Y-80713109D01*
X207344698Y-80555407D01*
X207438909Y-80375049D01*
X207494886Y-80179418D01*
X207505500Y-80060037D01*
X207505499Y-78943964D01*
X207494886Y-78824582D01*
X207438909Y-78628951D01*
X207344698Y-78448593D01*
X207267417Y-78353815D01*
X207216109Y-78290890D01*
X207058409Y-78162304D01*
X207058410Y-78162304D01*
X207058407Y-78162302D01*
X206878049Y-78068091D01*
X206878048Y-78068090D01*
X206878045Y-78068089D01*
X206760829Y-78034550D01*
X206682418Y-78012114D01*
X206682415Y-78012113D01*
X206682413Y-78012113D01*
X206609631Y-78005642D01*
X206563037Y-78001500D01*
X206563033Y-78001500D01*
X206478991Y-78001500D01*
X206411952Y-77981815D01*
X206366197Y-77929011D01*
X206356253Y-77859853D01*
X206385278Y-77796297D01*
X206391310Y-77789819D01*
X207862311Y-76318818D01*
X207923634Y-76285333D01*
X207949992Y-76282499D01*
X208265002Y-76282499D01*
X208265008Y-76282499D01*
X208367797Y-76271999D01*
X208534334Y-76216814D01*
X208683656Y-76124712D01*
X208807712Y-76000656D01*
X208809752Y-75997347D01*
X208811745Y-75995555D01*
X208812193Y-75994989D01*
X208812289Y-75995065D01*
X208861694Y-75950623D01*
X208930656Y-75939395D01*
X208994740Y-75967234D01*
X209020829Y-75997339D01*
X209022681Y-76000341D01*
X209022683Y-76000344D01*
X209146654Y-76124315D01*
X209295875Y-76216356D01*
X209295880Y-76216358D01*
X209462302Y-76271505D01*
X209462309Y-76271506D01*
X209565019Y-76281999D01*
X209702499Y-76281999D01*
X210202500Y-76281999D01*
X210339972Y-76281999D01*
X210339986Y-76281998D01*
X210442697Y-76271505D01*
X210609119Y-76216358D01*
X210609124Y-76216356D01*
X210758345Y-76124315D01*
X210882315Y-76000345D01*
X210974356Y-75851124D01*
X210974358Y-75851119D01*
X211029505Y-75684697D01*
X211029506Y-75684690D01*
X211039999Y-75581986D01*
X211040000Y-75581973D01*
X211040000Y-75307000D01*
X210202500Y-75307000D01*
X210202500Y-76281999D01*
X209702499Y-76281999D01*
X209702500Y-76281998D01*
X209702500Y-74807000D01*
X210202500Y-74807000D01*
X211039999Y-74807000D01*
X211039999Y-74532028D01*
X211039998Y-74532013D01*
X211029505Y-74429302D01*
X210974358Y-74262880D01*
X210974356Y-74262875D01*
X210882315Y-74113654D01*
X210758345Y-73989684D01*
X210609124Y-73897643D01*
X210609119Y-73897641D01*
X210442697Y-73842494D01*
X210442690Y-73842493D01*
X210339986Y-73832000D01*
X210202500Y-73832000D01*
X210202500Y-74807000D01*
X209702500Y-74807000D01*
X209702500Y-73832000D01*
X209565027Y-73832000D01*
X209565012Y-73832001D01*
X209462302Y-73842494D01*
X209295880Y-73897641D01*
X209295875Y-73897643D01*
X209146654Y-73989684D01*
X209022683Y-74113655D01*
X209022679Y-74113660D01*
X209020826Y-74116665D01*
X209019018Y-74118290D01*
X209018202Y-74119323D01*
X209018025Y-74119183D01*
X208968874Y-74163385D01*
X208899911Y-74174601D01*
X208835831Y-74146752D01*
X208809753Y-74116653D01*
X208809737Y-74116628D01*
X208807712Y-74113344D01*
X208683656Y-73989288D01*
X208590888Y-73932069D01*
X208534336Y-73897187D01*
X208534331Y-73897185D01*
X208530378Y-73895875D01*
X208367797Y-73842001D01*
X208367795Y-73842000D01*
X208265010Y-73831500D01*
X207489998Y-73831500D01*
X207489980Y-73831501D01*
X207387203Y-73842000D01*
X207387200Y-73842001D01*
X207220668Y-73897185D01*
X207220663Y-73897187D01*
X207071342Y-73989289D01*
X206947289Y-74113342D01*
X206855187Y-74262663D01*
X206855185Y-74262668D01*
X206855115Y-74262880D01*
X206800001Y-74429203D01*
X206800001Y-74429204D01*
X206800000Y-74429204D01*
X206789500Y-74531983D01*
X206789500Y-74847007D01*
X206769815Y-74914046D01*
X206753181Y-74934688D01*
X206198181Y-75489688D01*
X206136858Y-75523173D01*
X206067166Y-75518189D01*
X206011233Y-75476317D01*
X205986816Y-75410853D01*
X205986500Y-75402007D01*
X205986500Y-56555179D01*
X205986499Y-56555178D01*
X205979268Y-56518821D01*
X205952625Y-56384877D01*
X205896841Y-56250203D01*
X205893371Y-56241825D01*
X205886178Y-56224459D01*
X205886171Y-56224446D01*
X205789707Y-56080078D01*
X205733405Y-56023776D01*
X205666923Y-55957294D01*
X200724310Y-51014681D01*
X200690825Y-50953358D01*
X200695809Y-50883666D01*
X200724310Y-50839319D01*
X202238963Y-49324667D01*
X203782811Y-47780819D01*
X203844134Y-47747334D01*
X203870492Y-47744500D01*
X209867958Y-47744500D01*
X209934997Y-47764185D01*
X209955639Y-47780819D01*
X210083179Y-47908359D01*
X210247618Y-48027831D01*
X210254720Y-48032991D01*
X210297385Y-48088321D01*
X210303364Y-48157935D01*
X210270758Y-48219730D01*
X210254720Y-48233627D01*
X210083503Y-48358024D01*
X209931025Y-48510502D01*
X209931025Y-48510503D01*
X209804271Y-48684963D01*
X209706372Y-48877098D01*
X209639733Y-49082190D01*
X209628519Y-49153000D01*
X210658291Y-49153000D01*
X210646548Y-49173339D01*
X210606000Y-49324667D01*
X210606000Y-49481333D01*
X210646548Y-49632661D01*
X210658291Y-49653000D01*
X209628519Y-49653000D01*
X209639733Y-49723809D01*
X209706372Y-49928901D01*
X209804271Y-50121036D01*
X209931025Y-50295496D01*
X209931025Y-50295497D01*
X210083502Y-50447974D01*
X210254720Y-50572372D01*
X210297385Y-50627702D01*
X210303364Y-50697316D01*
X210270758Y-50759110D01*
X210254720Y-50773008D01*
X210083177Y-50897642D01*
X209930643Y-51050176D01*
X209930643Y-51050177D01*
X209930641Y-51050179D01*
X209914721Y-51072091D01*
X209803843Y-51224700D01*
X209792076Y-51247795D01*
X209744101Y-51298591D01*
X209681591Y-51315500D01*
X207170672Y-51315500D01*
X207104700Y-51296494D01*
X206978523Y-51217211D01*
X206808254Y-51157631D01*
X206808249Y-51157630D01*
X206629004Y-51137435D01*
X206628996Y-51137435D01*
X206449750Y-51157630D01*
X206449745Y-51157631D01*
X206279476Y-51217211D01*
X206126737Y-51313184D01*
X205999184Y-51440737D01*
X205903211Y-51593476D01*
X205843631Y-51763745D01*
X205843630Y-51763750D01*
X205823435Y-51942996D01*
X205823435Y-51943003D01*
X205843630Y-52122249D01*
X205843631Y-52122254D01*
X205903211Y-52292523D01*
X205971486Y-52401181D01*
X205999184Y-52445262D01*
X206126738Y-52572816D01*
X206153300Y-52589506D01*
X206267557Y-52661299D01*
X206279478Y-52668789D01*
X206371532Y-52701000D01*
X206449745Y-52728368D01*
X206449750Y-52728369D01*
X206628996Y-52748565D01*
X206629000Y-52748565D01*
X206629004Y-52748565D01*
X206808249Y-52728369D01*
X206808252Y-52728368D01*
X206808255Y-52728368D01*
X206978522Y-52668789D01*
X207104700Y-52589505D01*
X207170672Y-52570500D01*
X209681591Y-52570500D01*
X209748630Y-52590185D01*
X209792076Y-52638205D01*
X209803843Y-52661299D01*
X209930641Y-52835821D01*
X210083179Y-52988359D01*
X210204454Y-53076471D01*
X210254294Y-53112682D01*
X210296959Y-53168012D01*
X210302938Y-53237626D01*
X210270332Y-53299421D01*
X210254294Y-53313318D01*
X210220815Y-53337642D01*
X210083179Y-53437641D01*
X210083177Y-53437643D01*
X210083176Y-53437643D01*
X209930643Y-53590176D01*
X209930643Y-53590177D01*
X209930641Y-53590179D01*
X209914721Y-53612091D01*
X209803843Y-53764700D01*
X209792076Y-53787795D01*
X209744101Y-53838591D01*
X209681591Y-53855500D01*
X207170672Y-53855500D01*
X207104700Y-53836494D01*
X206978523Y-53757211D01*
X206808254Y-53697631D01*
X206808249Y-53697630D01*
X206629004Y-53677435D01*
X206628996Y-53677435D01*
X206449750Y-53697630D01*
X206449745Y-53697631D01*
X206279476Y-53757211D01*
X206126737Y-53853184D01*
X205999184Y-53980737D01*
X205903211Y-54133476D01*
X205843631Y-54303745D01*
X205843630Y-54303750D01*
X205823435Y-54482996D01*
X205823435Y-54483003D01*
X205843630Y-54662249D01*
X205843631Y-54662254D01*
X205903211Y-54832523D01*
X205954093Y-54913500D01*
X205999184Y-54985262D01*
X206126738Y-55112816D01*
X206211590Y-55166132D01*
X206267557Y-55201299D01*
X206279478Y-55208789D01*
X206397778Y-55250184D01*
X206449745Y-55268368D01*
X206449750Y-55268369D01*
X206628996Y-55288565D01*
X206629000Y-55288565D01*
X206629004Y-55288565D01*
X206808249Y-55268369D01*
X206808252Y-55268368D01*
X206808255Y-55268368D01*
X206978522Y-55208789D01*
X207104700Y-55129505D01*
X207170672Y-55110500D01*
X209681591Y-55110500D01*
X209748630Y-55130185D01*
X209792076Y-55178205D01*
X209803843Y-55201299D01*
X209930641Y-55375821D01*
X209930643Y-55375823D01*
X210072624Y-55517804D01*
X210106109Y-55579127D01*
X210101125Y-55648819D01*
X210059253Y-55704752D01*
X210037360Y-55717861D01*
X210036677Y-55718179D01*
X209887342Y-55810289D01*
X209763287Y-55934344D01*
X209671846Y-56082596D01*
X209619898Y-56129321D01*
X209566307Y-56141500D01*
X207050178Y-56141500D01*
X206879881Y-56175374D01*
X206879871Y-56175377D01*
X206719459Y-56241821D01*
X206719446Y-56241828D01*
X206575077Y-56338293D01*
X206575075Y-56338295D01*
X206452296Y-56461073D01*
X206452293Y-56461077D01*
X206355828Y-56605446D01*
X206355821Y-56605459D01*
X206289377Y-56765871D01*
X206289374Y-56765881D01*
X206255500Y-56936177D01*
X206255500Y-56936180D01*
X206255500Y-57109820D01*
X206255500Y-57109822D01*
X206255499Y-57109822D01*
X206289374Y-57280118D01*
X206289377Y-57280128D01*
X206355821Y-57440540D01*
X206355828Y-57440553D01*
X206452293Y-57584922D01*
X206452296Y-57584926D01*
X206575073Y-57707703D01*
X206575077Y-57707706D01*
X206719446Y-57804171D01*
X206719459Y-57804178D01*
X206879871Y-57870622D01*
X206879876Y-57870624D01*
X206879880Y-57870624D01*
X206879881Y-57870625D01*
X207050177Y-57904500D01*
X207050180Y-57904500D01*
X209566307Y-57904500D01*
X209633346Y-57924185D01*
X209671846Y-57963404D01*
X209741016Y-58075548D01*
X209763288Y-58111656D01*
X209887344Y-58235712D01*
X210036666Y-58327814D01*
X210203203Y-58382999D01*
X210305991Y-58393500D01*
X212096008Y-58393499D01*
X212198797Y-58382999D01*
X212365334Y-58327814D01*
X212514656Y-58235712D01*
X212638712Y-58111656D01*
X212730814Y-57962334D01*
X212785999Y-57795797D01*
X212796500Y-57693009D01*
X212796499Y-56352992D01*
X212794997Y-56338293D01*
X212785999Y-56250202D01*
X212785998Y-56250200D01*
X212761204Y-56175377D01*
X212730814Y-56083666D01*
X212638712Y-55934344D01*
X212514656Y-55810288D01*
X212365334Y-55718186D01*
X212365326Y-55718181D01*
X212364645Y-55717864D01*
X212364256Y-55717521D01*
X212359187Y-55714395D01*
X212359721Y-55713528D01*
X212312208Y-55671688D01*
X212293060Y-55604494D01*
X212313280Y-55537614D01*
X212329366Y-55517813D01*
X212471359Y-55375821D01*
X212598157Y-55201299D01*
X212696092Y-55009089D01*
X212762754Y-54803926D01*
X212782805Y-54677331D01*
X212796500Y-54590866D01*
X212796500Y-54375133D01*
X212768032Y-54195401D01*
X212762754Y-54162074D01*
X212696092Y-53956911D01*
X212598157Y-53764701D01*
X212471359Y-53590179D01*
X212318821Y-53437641D01*
X212147704Y-53313317D01*
X212105040Y-53257988D01*
X212099061Y-53188374D01*
X212131667Y-53126580D01*
X212147702Y-53112684D01*
X212318821Y-52988359D01*
X212471359Y-52835821D01*
X212598157Y-52661299D01*
X212696092Y-52469089D01*
X212762754Y-52263926D01*
X212782804Y-52137334D01*
X212796500Y-52050866D01*
X212796500Y-51835133D01*
X212774002Y-51693095D01*
X212762754Y-51622074D01*
X212696092Y-51416911D01*
X212598157Y-51224701D01*
X212471359Y-51050179D01*
X212318821Y-50897641D01*
X212147279Y-50773008D01*
X212104614Y-50717678D01*
X212098635Y-50648064D01*
X212131241Y-50586269D01*
X212147280Y-50572372D01*
X212318491Y-50447979D01*
X212318497Y-50447974D01*
X212470974Y-50295497D01*
X212470974Y-50295496D01*
X212597728Y-50121036D01*
X212695627Y-49928901D01*
X212762266Y-49723809D01*
X212773481Y-49653000D01*
X211743709Y-49653000D01*
X211755452Y-49632661D01*
X211796000Y-49481333D01*
X211796000Y-49324667D01*
X211755452Y-49173339D01*
X211743709Y-49153000D01*
X212773481Y-49153000D01*
X212762266Y-49082190D01*
X212695627Y-48877098D01*
X212597728Y-48684963D01*
X212470974Y-48510503D01*
X212470974Y-48510502D01*
X212318497Y-48358025D01*
X212147279Y-48233627D01*
X212104614Y-48178297D01*
X212098635Y-48108683D01*
X212131241Y-48046888D01*
X212147280Y-48032991D01*
X212154382Y-48027831D01*
X212318821Y-47908359D01*
X212471359Y-47755821D01*
X212598157Y-47581299D01*
X212696092Y-47389089D01*
X212762754Y-47183926D01*
X212794499Y-46983498D01*
X212796500Y-46970866D01*
X212796500Y-46755133D01*
X212762754Y-46542077D01*
X212762754Y-46542074D01*
X212696092Y-46336911D01*
X212598157Y-46144701D01*
X212471359Y-45970179D01*
X212318821Y-45817641D01*
X212144299Y-45690843D01*
X211952089Y-45592908D01*
X211746926Y-45526246D01*
X211746924Y-45526245D01*
X211746922Y-45526245D01*
X211533866Y-45492500D01*
X211533861Y-45492500D01*
X210868139Y-45492500D01*
X210868134Y-45492500D01*
X210655077Y-45526245D01*
X210449908Y-45592909D01*
X210257700Y-45690843D01*
X210158129Y-45763186D01*
X210083179Y-45817641D01*
X210083177Y-45817643D01*
X210083176Y-45817643D01*
X209955639Y-45945181D01*
X209894316Y-45978666D01*
X209867958Y-45981500D01*
X203367174Y-45981500D01*
X203196883Y-46015373D01*
X203196875Y-46015375D01*
X203083440Y-46062362D01*
X203036453Y-46081824D01*
X202993179Y-46110738D01*
X202964265Y-46130059D01*
X202942352Y-46144701D01*
X202892073Y-46178295D01*
X199477680Y-49592688D01*
X199416357Y-49626173D01*
X199346665Y-49621189D01*
X199302318Y-49592688D01*
X198402819Y-48693189D01*
X198369334Y-48631866D01*
X198366500Y-48605508D01*
X198366500Y-48487090D01*
X198386185Y-48420051D01*
X198425402Y-48381552D01*
X198555656Y-48301212D01*
X198679712Y-48177156D01*
X198771814Y-48027834D01*
X198826999Y-47861297D01*
X198837500Y-47758509D01*
X198837499Y-46983492D01*
X198835692Y-46965807D01*
X198826999Y-46880703D01*
X198826998Y-46880700D01*
X198826129Y-46878079D01*
X198771814Y-46714166D01*
X198679712Y-46564844D01*
X198555656Y-46440788D01*
X198552342Y-46438743D01*
X198550546Y-46436748D01*
X198549989Y-46436307D01*
X198550064Y-46436211D01*
X198505618Y-46386797D01*
X198494397Y-46317834D01*
X198522240Y-46253752D01*
X198552348Y-46227665D01*
X198555342Y-46225818D01*
X198679315Y-46101845D01*
X198771356Y-45952624D01*
X198771358Y-45952619D01*
X198826505Y-45786197D01*
X198826506Y-45786190D01*
X198836999Y-45683486D01*
X198837000Y-45683473D01*
X198837000Y-45546000D01*
X196387001Y-45546000D01*
X196387001Y-45683486D01*
X196397494Y-45786197D01*
X196452641Y-45952619D01*
X196452643Y-45952624D01*
X196544684Y-46101845D01*
X196668655Y-46225816D01*
X196668659Y-46225819D01*
X196671656Y-46227668D01*
X196673279Y-46229472D01*
X196674323Y-46230298D01*
X196674181Y-46230476D01*
X196718381Y-46279616D01*
X196729602Y-46348579D01*
X196701759Y-46412661D01*
X196671661Y-46438741D01*
X196668349Y-46440783D01*
X196668343Y-46440788D01*
X196544289Y-46564842D01*
X196452187Y-46714163D01*
X196452185Y-46714168D01*
X196437339Y-46758972D01*
X196397001Y-46880703D01*
X196397001Y-46880704D01*
X196397000Y-46880704D01*
X196386500Y-46983483D01*
X196386500Y-47758501D01*
X196386501Y-47758519D01*
X196397000Y-47861296D01*
X196397001Y-47861299D01*
X196452185Y-48027831D01*
X196452187Y-48027836D01*
X196466190Y-48050539D01*
X196544288Y-48177156D01*
X196668344Y-48301212D01*
X196798597Y-48381552D01*
X196845321Y-48433498D01*
X196857500Y-48487090D01*
X196857500Y-48653915D01*
X196837815Y-48720954D01*
X196836605Y-48722802D01*
X196830828Y-48731448D01*
X196830823Y-48731456D01*
X196764376Y-48891875D01*
X196764374Y-48891881D01*
X196730500Y-49062176D01*
X196730500Y-49155857D01*
X196710815Y-49222896D01*
X196694181Y-49243538D01*
X195390381Y-50547338D01*
X195329058Y-50580823D01*
X195259366Y-50575839D01*
X195203433Y-50533967D01*
X195179016Y-50468503D01*
X195178700Y-50459657D01*
X195178700Y-49071879D01*
X195198385Y-49004840D01*
X195251189Y-48959085D01*
X195263686Y-48954177D01*
X195358334Y-48922814D01*
X195507656Y-48830712D01*
X195631712Y-48706656D01*
X195723814Y-48557334D01*
X195778999Y-48390797D01*
X195789500Y-48288009D01*
X195789499Y-47512992D01*
X195778999Y-47410203D01*
X195723814Y-47243666D01*
X195631712Y-47094344D01*
X195507656Y-46970288D01*
X195504342Y-46968243D01*
X195502546Y-46966248D01*
X195501989Y-46965807D01*
X195502064Y-46965711D01*
X195457618Y-46916297D01*
X195446397Y-46847334D01*
X195474240Y-46783252D01*
X195504348Y-46757165D01*
X195507342Y-46755318D01*
X195631315Y-46631345D01*
X195723356Y-46482124D01*
X195723358Y-46482119D01*
X195778505Y-46315697D01*
X195778506Y-46315690D01*
X195788999Y-46212986D01*
X195789000Y-46212973D01*
X195789000Y-46075500D01*
X193339001Y-46075500D01*
X193339001Y-46212986D01*
X193349494Y-46315697D01*
X193404641Y-46482119D01*
X193404643Y-46482124D01*
X193496684Y-46631345D01*
X193620655Y-46755316D01*
X193620659Y-46755319D01*
X193623656Y-46757168D01*
X193625279Y-46758972D01*
X193626323Y-46759798D01*
X193626181Y-46759976D01*
X193670381Y-46809116D01*
X193681602Y-46878079D01*
X193653759Y-46942161D01*
X193623661Y-46968241D01*
X193620349Y-46970283D01*
X193620343Y-46970288D01*
X193496289Y-47094342D01*
X193404187Y-47243663D01*
X193404185Y-47243668D01*
X193353017Y-47398083D01*
X193313244Y-47455528D01*
X193248728Y-47482351D01*
X193179952Y-47470036D01*
X193128753Y-47422493D01*
X193111953Y-47371679D01*
X193111506Y-47367303D01*
X193056358Y-47200880D01*
X193056356Y-47200875D01*
X192964315Y-47051654D01*
X192840345Y-46927684D01*
X192691124Y-46835643D01*
X192691119Y-46835641D01*
X192524697Y-46780494D01*
X192524690Y-46780493D01*
X192421986Y-46770000D01*
X192147000Y-46770000D01*
X192147000Y-47983500D01*
X192127315Y-48050539D01*
X192074511Y-48096294D01*
X192023000Y-48107500D01*
X190672001Y-48107500D01*
X190672001Y-48244986D01*
X190682494Y-48347697D01*
X190737641Y-48514119D01*
X190737643Y-48514124D01*
X190829684Y-48663345D01*
X190953655Y-48787316D01*
X190953659Y-48787319D01*
X190956656Y-48789168D01*
X190958279Y-48790972D01*
X190959323Y-48791798D01*
X190959181Y-48791976D01*
X191003381Y-48841116D01*
X191014602Y-48910079D01*
X190986759Y-48974161D01*
X190956661Y-49000241D01*
X190953349Y-49002283D01*
X190953343Y-49002288D01*
X190829289Y-49126342D01*
X190737187Y-49275663D01*
X190737185Y-49275668D01*
X190696491Y-49398475D01*
X190656718Y-49455920D01*
X190592202Y-49482743D01*
X190523426Y-49470428D01*
X190475683Y-49428362D01*
X190422706Y-49349077D01*
X190422703Y-49349073D01*
X190299926Y-49226296D01*
X190299922Y-49226293D01*
X190155553Y-49129828D01*
X190155540Y-49129821D01*
X189995128Y-49063377D01*
X189995118Y-49063374D01*
X189824822Y-49029500D01*
X189824820Y-49029500D01*
X189651180Y-49029500D01*
X189651178Y-49029500D01*
X189480881Y-49063374D01*
X189480871Y-49063377D01*
X189320459Y-49129821D01*
X189320446Y-49129828D01*
X189176077Y-49226293D01*
X189176073Y-49226296D01*
X189053296Y-49349073D01*
X189053293Y-49349077D01*
X188956828Y-49493446D01*
X188956821Y-49493459D01*
X188890377Y-49653871D01*
X188890374Y-49653881D01*
X188856500Y-49824177D01*
X188856500Y-49824180D01*
X188856500Y-52110180D01*
X188856500Y-56936180D01*
X188856500Y-58333180D01*
X188856500Y-68663179D01*
X188856500Y-68836821D01*
X188856500Y-68836823D01*
X188856499Y-68836823D01*
X188890374Y-69007118D01*
X188890377Y-69007128D01*
X188956822Y-69167543D01*
X189053295Y-69311926D01*
X189053296Y-69311927D01*
X194594438Y-74853068D01*
X194627923Y-74914391D01*
X194622939Y-74984083D01*
X194594438Y-75028430D01*
X191657687Y-77965181D01*
X191596364Y-77998666D01*
X191570006Y-78001500D01*
X190819971Y-78001500D01*
X190819965Y-78001500D01*
X190819964Y-78001501D01*
X190808316Y-78002536D01*
X190700584Y-78012113D01*
X190504954Y-78068089D01*
X190414772Y-78115196D01*
X190324593Y-78162302D01*
X190324591Y-78162303D01*
X190324590Y-78162304D01*
X190166890Y-78290890D01*
X190038304Y-78448590D01*
X190038302Y-78448593D01*
X190029105Y-78466200D01*
X189944089Y-78628954D01*
X189888114Y-78824583D01*
X189888113Y-78824586D01*
X189877500Y-78943966D01*
X189877500Y-80060028D01*
X189877501Y-80060034D01*
X189888113Y-80179415D01*
X189944089Y-80375045D01*
X189944090Y-80375048D01*
X189944091Y-80375049D01*
X190038302Y-80555407D01*
X190072977Y-80597933D01*
X190166890Y-80713109D01*
X190245593Y-80777282D01*
X190324593Y-80841698D01*
X190504951Y-80935909D01*
X190700582Y-80991886D01*
X190819963Y-81002500D01*
X191272500Y-81002499D01*
X191339539Y-81022183D01*
X191385294Y-81074987D01*
X191396500Y-81126499D01*
X191396500Y-84401436D01*
X191376815Y-84468475D01*
X191350188Y-84498083D01*
X191280278Y-84554278D01*
X191224326Y-84623885D01*
X191166982Y-84663803D01*
X191097160Y-84666383D01*
X191037027Y-84630804D01*
X191031031Y-84623884D01*
X190975364Y-84554630D01*
X190827025Y-84435392D01*
X190827022Y-84435390D01*
X190656523Y-84350831D01*
X190471824Y-84304897D01*
X190429097Y-84302000D01*
X190228000Y-84302000D01*
X190228000Y-87302000D01*
X190429097Y-87302000D01*
X190471824Y-87299102D01*
X190656523Y-87253168D01*
X190827022Y-87168609D01*
X190827025Y-87168607D01*
X190975366Y-87049367D01*
X190975367Y-87049366D01*
X191031033Y-86980115D01*
X191088376Y-86940196D01*
X191158198Y-86937616D01*
X191218331Y-86973194D01*
X191224305Y-86980089D01*
X191280278Y-87049722D01*
X191280280Y-87049724D01*
X191428704Y-87169030D01*
X191428707Y-87169032D01*
X191599302Y-87253639D01*
X191599303Y-87253639D01*
X191599307Y-87253641D01*
X191784111Y-87299600D01*
X191826877Y-87302500D01*
X192729122Y-87302499D01*
X192771889Y-87299600D01*
X192956693Y-87253641D01*
X193127296Y-87169030D01*
X193275722Y-87049722D01*
X193331353Y-86980514D01*
X193388696Y-86940595D01*
X193458518Y-86938015D01*
X193518651Y-86973594D01*
X193524647Y-86980514D01*
X193580275Y-87049719D01*
X193580278Y-87049722D01*
X193636187Y-87094663D01*
X193676106Y-87152004D01*
X193682500Y-87191309D01*
X193682500Y-88878242D01*
X193662815Y-88945281D01*
X193623605Y-88983775D01*
X193620351Y-88985782D01*
X193620343Y-88985788D01*
X193607951Y-88998181D01*
X193546628Y-89031666D01*
X193520270Y-89034500D01*
X185206177Y-89034500D01*
X185035881Y-89068374D01*
X185035871Y-89068377D01*
X184875456Y-89134822D01*
X184731073Y-89231295D01*
X184731072Y-89231296D01*
X183084181Y-90878188D01*
X183022858Y-90911673D01*
X182953166Y-90906689D01*
X182897233Y-90864817D01*
X182872816Y-90799353D01*
X182872500Y-90790507D01*
X182872500Y-88813177D01*
X182857595Y-88738247D01*
X182851539Y-88707803D01*
X182851539Y-88707800D01*
X182838626Y-88642884D01*
X182838625Y-88642877D01*
X182785088Y-88513629D01*
X182772175Y-88482453D01*
X182763517Y-88469496D01*
X182675707Y-88338078D01*
X182620886Y-88283257D01*
X182552923Y-88215294D01*
X181895635Y-87558006D01*
X180840726Y-86503096D01*
X188728000Y-86503096D01*
X188730897Y-86545824D01*
X188776831Y-86730523D01*
X188861390Y-86901022D01*
X188861392Y-86901025D01*
X188980632Y-87049366D01*
X188980633Y-87049367D01*
X189128974Y-87168607D01*
X189128977Y-87168609D01*
X189299476Y-87253168D01*
X189484175Y-87299102D01*
X189526903Y-87302000D01*
X189728000Y-87302000D01*
X189728000Y-86052000D01*
X188728000Y-86052000D01*
X188728000Y-86503096D01*
X180840726Y-86503096D01*
X179890927Y-85553296D01*
X179890926Y-85553295D01*
X179746543Y-85456822D01*
X179586128Y-85390377D01*
X179586118Y-85390374D01*
X179415823Y-85356500D01*
X179415821Y-85356500D01*
X179415820Y-85356500D01*
X176202865Y-85356500D01*
X176135826Y-85336815D01*
X176090071Y-85284011D01*
X176080127Y-85214853D01*
X176084204Y-85196506D01*
X176087895Y-85184333D01*
X176094024Y-85164132D01*
X176100251Y-85100903D01*
X188728000Y-85100903D01*
X188728000Y-85552000D01*
X189728000Y-85552000D01*
X189728000Y-84302000D01*
X189526903Y-84302000D01*
X189484175Y-84304897D01*
X189299476Y-84350831D01*
X189128977Y-84435390D01*
X189128974Y-84435392D01*
X188980633Y-84554632D01*
X188980632Y-84554633D01*
X188861392Y-84702974D01*
X188861390Y-84702977D01*
X188776831Y-84873476D01*
X188730897Y-85058175D01*
X188728000Y-85100903D01*
X176100251Y-85100903D01*
X176113341Y-84968000D01*
X176094024Y-84771868D01*
X176036814Y-84583273D01*
X175943910Y-84409462D01*
X175943907Y-84409458D01*
X175940523Y-84404393D01*
X175942164Y-84403296D01*
X175918405Y-84347361D01*
X175930194Y-84278493D01*
X175940888Y-84261851D01*
X175940523Y-84261607D01*
X175943904Y-84256544D01*
X175943910Y-84256538D01*
X176036814Y-84082727D01*
X176094024Y-83894132D01*
X176113341Y-83698000D01*
X176094024Y-83501868D01*
X176036814Y-83313273D01*
X176036811Y-83313269D01*
X176036811Y-83313266D01*
X175943913Y-83139467D01*
X175943909Y-83139460D01*
X175818883Y-82987116D01*
X175666539Y-82862090D01*
X175666532Y-82862086D01*
X175492733Y-82769188D01*
X175492727Y-82769186D01*
X175347340Y-82725083D01*
X175304129Y-82711975D01*
X175108000Y-82692659D01*
X174911870Y-82711975D01*
X174723266Y-82769188D01*
X174549467Y-82862086D01*
X174549460Y-82862090D01*
X174397116Y-82987116D01*
X174365891Y-83025165D01*
X174308145Y-83064499D01*
X174270038Y-83070500D01*
X172490229Y-83070500D01*
X172423190Y-83050815D01*
X172377435Y-82998011D01*
X172367491Y-82928853D01*
X172396516Y-82865297D01*
X172402548Y-82858819D01*
X172692359Y-82569008D01*
X173609053Y-81652312D01*
X173670374Y-81618829D01*
X173704803Y-81616897D01*
X173704832Y-81616339D01*
X173707968Y-81616497D01*
X173707991Y-81616500D01*
X174483008Y-81616499D01*
X174483016Y-81616498D01*
X174483019Y-81616498D01*
X174540286Y-81610648D01*
X174585797Y-81605999D01*
X174752334Y-81550814D01*
X174901656Y-81458712D01*
X175025712Y-81334656D01*
X175027752Y-81331347D01*
X175029745Y-81329555D01*
X175030193Y-81328989D01*
X175030289Y-81329065D01*
X175079694Y-81284623D01*
X175148656Y-81273395D01*
X175212740Y-81301234D01*
X175238829Y-81331339D01*
X175240681Y-81334341D01*
X175240683Y-81334344D01*
X175364654Y-81458315D01*
X175513875Y-81550356D01*
X175513880Y-81550358D01*
X175680302Y-81605505D01*
X175680309Y-81605506D01*
X175783019Y-81615999D01*
X175920499Y-81615999D01*
X176420500Y-81615999D01*
X176557972Y-81615999D01*
X176557986Y-81615998D01*
X176660697Y-81605505D01*
X176827119Y-81550358D01*
X176827124Y-81550356D01*
X176976345Y-81458315D01*
X177100315Y-81334345D01*
X177192356Y-81185124D01*
X177192358Y-81185119D01*
X177247505Y-81018697D01*
X177247506Y-81018690D01*
X177257999Y-80915986D01*
X177258000Y-80915973D01*
X177258000Y-80641000D01*
X176420500Y-80641000D01*
X176420500Y-81615999D01*
X175920499Y-81615999D01*
X175920500Y-81615998D01*
X175920500Y-80141000D01*
X176420500Y-80141000D01*
X177257999Y-80141000D01*
X177257999Y-79866028D01*
X177257998Y-79866013D01*
X177247505Y-79763302D01*
X177192358Y-79596880D01*
X177192356Y-79596875D01*
X177100315Y-79447654D01*
X176976345Y-79323684D01*
X176827124Y-79231643D01*
X176827119Y-79231641D01*
X176660697Y-79176494D01*
X176660690Y-79176493D01*
X176557986Y-79166000D01*
X176420500Y-79166000D01*
X176420500Y-80141000D01*
X175920500Y-80141000D01*
X175920500Y-79166000D01*
X175783027Y-79166000D01*
X175783012Y-79166001D01*
X175680302Y-79176494D01*
X175513880Y-79231641D01*
X175513875Y-79231643D01*
X175364654Y-79323684D01*
X175240683Y-79447655D01*
X175240679Y-79447660D01*
X175238826Y-79450665D01*
X175237018Y-79452290D01*
X175236202Y-79453323D01*
X175236025Y-79453183D01*
X175186874Y-79497385D01*
X175117911Y-79508601D01*
X175053831Y-79480752D01*
X175027753Y-79450653D01*
X175027737Y-79450628D01*
X175025712Y-79447344D01*
X174901656Y-79323288D01*
X174752334Y-79231186D01*
X174585797Y-79176001D01*
X174585795Y-79176000D01*
X174483010Y-79165500D01*
X173707998Y-79165500D01*
X173707980Y-79165501D01*
X173605203Y-79176000D01*
X173605200Y-79176001D01*
X173438668Y-79231185D01*
X173438663Y-79231187D01*
X173289342Y-79323289D01*
X173165289Y-79447342D01*
X173073187Y-79596663D01*
X173073185Y-79596668D01*
X173073115Y-79596880D01*
X173018001Y-79763203D01*
X173018001Y-79763204D01*
X173018000Y-79763204D01*
X173007500Y-79865983D01*
X173007500Y-80427666D01*
X172987815Y-80494705D01*
X172971181Y-80515347D01*
X171019181Y-82467347D01*
X170957858Y-82500832D01*
X170888166Y-82495848D01*
X170832233Y-82453976D01*
X170807816Y-82388512D01*
X170807500Y-82379666D01*
X170807500Y-80329196D01*
X170798345Y-80283176D01*
X170798345Y-80283173D01*
X170783387Y-80207972D01*
X170783384Y-80207963D01*
X170736086Y-80093772D01*
X170736079Y-80093760D01*
X170667410Y-79990991D01*
X170667407Y-79990987D01*
X170072010Y-79395590D01*
X170038949Y-79373500D01*
X170038948Y-79373499D01*
X169969230Y-79326915D01*
X169923564Y-79308000D01*
X169855035Y-79279614D01*
X169855027Y-79279612D01*
X169733807Y-79255500D01*
X169733803Y-79255500D01*
X166685803Y-79255500D01*
X163143303Y-79255500D01*
X163019696Y-79255500D01*
X163019694Y-79255500D01*
X162898470Y-79279613D01*
X162898460Y-79279616D01*
X162784273Y-79326913D01*
X162784260Y-79326920D01*
X162681492Y-79395588D01*
X162681488Y-79395591D01*
X157129400Y-84947681D01*
X157068077Y-84981166D01*
X157041719Y-84984000D01*
X144839782Y-84984000D01*
X144772743Y-84964315D01*
X144752101Y-84947681D01*
X144020735Y-84216315D01*
X143275930Y-83471511D01*
X143242446Y-83410189D01*
X143247430Y-83340497D01*
X143289302Y-83284564D01*
X143354766Y-83260147D01*
X143423039Y-83274999D01*
X143428709Y-83278292D01*
X143509875Y-83328356D01*
X143509880Y-83328358D01*
X143676302Y-83383505D01*
X143676309Y-83383506D01*
X143779019Y-83393999D01*
X143916499Y-83393999D01*
X144416500Y-83393999D01*
X144553972Y-83393999D01*
X144553986Y-83393998D01*
X144656697Y-83383505D01*
X144823119Y-83328358D01*
X144823124Y-83328356D01*
X144972345Y-83236315D01*
X145096315Y-83112345D01*
X145188356Y-82963124D01*
X145188358Y-82963119D01*
X145243505Y-82796697D01*
X145243506Y-82796690D01*
X145253999Y-82693986D01*
X145254000Y-82693973D01*
X145254000Y-82419000D01*
X144416500Y-82419000D01*
X144416500Y-83393999D01*
X143916499Y-83393999D01*
X143916500Y-83393998D01*
X143916500Y-81919000D01*
X144416500Y-81919000D01*
X145253999Y-81919000D01*
X145253999Y-81644028D01*
X145253998Y-81644013D01*
X145243505Y-81541302D01*
X145188358Y-81374880D01*
X145188356Y-81374875D01*
X145096315Y-81225654D01*
X144972345Y-81101684D01*
X144823124Y-81009643D01*
X144823119Y-81009641D01*
X144656697Y-80954494D01*
X144656690Y-80954493D01*
X144553986Y-80944000D01*
X144416500Y-80944000D01*
X144416500Y-81919000D01*
X143916500Y-81919000D01*
X143916500Y-80944000D01*
X143779027Y-80944000D01*
X143779012Y-80944001D01*
X143676302Y-80954494D01*
X143509880Y-81009641D01*
X143509875Y-81009643D01*
X143360654Y-81101684D01*
X143236683Y-81225655D01*
X143236679Y-81225660D01*
X143234826Y-81228665D01*
X143233018Y-81230290D01*
X143232202Y-81231323D01*
X143232025Y-81231183D01*
X143182874Y-81275385D01*
X143113911Y-81286601D01*
X143049831Y-81258752D01*
X143023753Y-81228653D01*
X143023737Y-81228628D01*
X143021712Y-81225344D01*
X142897656Y-81101288D01*
X142755661Y-81013705D01*
X142748336Y-81009187D01*
X142748331Y-81009185D01*
X142728151Y-81002498D01*
X142581797Y-80954001D01*
X142581795Y-80954000D01*
X142479010Y-80943500D01*
X141703998Y-80943500D01*
X141703980Y-80943501D01*
X141601203Y-80954000D01*
X141601200Y-80954001D01*
X141434668Y-81009185D01*
X141434663Y-81009187D01*
X141285342Y-81101289D01*
X141161289Y-81225342D01*
X141069187Y-81374663D01*
X141069185Y-81374668D01*
X141042068Y-81456504D01*
X141002295Y-81513949D01*
X140937780Y-81540772D01*
X140924362Y-81541500D01*
X139346213Y-81541500D01*
X139279174Y-81521815D01*
X139258532Y-81505181D01*
X138810368Y-81057017D01*
X138776883Y-80995694D01*
X138781867Y-80926002D01*
X138823739Y-80870069D01*
X138881863Y-80846397D01*
X138975972Y-80834009D01*
X138975974Y-80834008D01*
X138975975Y-80834008D01*
X138983826Y-80831905D01*
X138984710Y-80835207D01*
X139038425Y-80829392D01*
X139049014Y-80832501D01*
X139049174Y-80831905D01*
X139057024Y-80834008D01*
X139057026Y-80834008D01*
X139057028Y-80834009D01*
X139167099Y-80848500D01*
X139365900Y-80848499D01*
X139365903Y-80848499D01*
X139475963Y-80834011D01*
X139475967Y-80834009D01*
X139475972Y-80834009D01*
X139612929Y-80777279D01*
X139730536Y-80687036D01*
X139820779Y-80569429D01*
X139877509Y-80432472D01*
X139892000Y-80322401D01*
X139891999Y-79997498D01*
X139911683Y-79930460D01*
X139964487Y-79884705D01*
X140015999Y-79873499D01*
X140340903Y-79873499D01*
X140450963Y-79859011D01*
X140450967Y-79859009D01*
X140450972Y-79859009D01*
X140587929Y-79802279D01*
X140705536Y-79712036D01*
X140795779Y-79594429D01*
X140852509Y-79457472D01*
X140867000Y-79347401D01*
X140866999Y-79148600D01*
X140852509Y-79038528D01*
X140852508Y-79038525D01*
X140850405Y-79030674D01*
X140853707Y-79029789D01*
X140847892Y-78976075D01*
X140851001Y-78965485D01*
X140850405Y-78965326D01*
X140852508Y-78957475D01*
X140852508Y-78957474D01*
X140852509Y-78957472D01*
X140867000Y-78847401D01*
X140866999Y-78648600D01*
X140852509Y-78538528D01*
X140852508Y-78538525D01*
X140850405Y-78530674D01*
X140853707Y-78529789D01*
X140847892Y-78476075D01*
X140851001Y-78465485D01*
X140850405Y-78465326D01*
X140852508Y-78457475D01*
X140852508Y-78457474D01*
X140852509Y-78457472D01*
X140867000Y-78347401D01*
X140866999Y-78148600D01*
X140852509Y-78038528D01*
X140852508Y-78038525D01*
X140850405Y-78030674D01*
X140853707Y-78029789D01*
X140847892Y-77976075D01*
X140851001Y-77965485D01*
X140850405Y-77965326D01*
X140852508Y-77957475D01*
X140852508Y-77957474D01*
X140852509Y-77957472D01*
X140867000Y-77847401D01*
X140866999Y-77648600D01*
X140866998Y-77648596D01*
X140853327Y-77544745D01*
X140852509Y-77538528D01*
X140852508Y-77538525D01*
X140850405Y-77530674D01*
X140853707Y-77529789D01*
X140847892Y-77476075D01*
X140851001Y-77465485D01*
X140850405Y-77465326D01*
X140852508Y-77457475D01*
X140852508Y-77457474D01*
X140852509Y-77457472D01*
X140867000Y-77347401D01*
X140866999Y-77148600D01*
X140864592Y-77130319D01*
X140859868Y-77094429D01*
X140852509Y-77038528D01*
X140852508Y-77038525D01*
X140850405Y-77030674D01*
X140853707Y-77029789D01*
X140847892Y-76976075D01*
X140851001Y-76965485D01*
X140850405Y-76965326D01*
X140852508Y-76957475D01*
X140852508Y-76957474D01*
X140852509Y-76957472D01*
X140867000Y-76847401D01*
X140866999Y-76648600D01*
X140866999Y-76648598D01*
X140866999Y-76648596D01*
X140852511Y-76538536D01*
X140852509Y-76538529D01*
X140852509Y-76538528D01*
X140795779Y-76401571D01*
X140705536Y-76283964D01*
X140587929Y-76193721D01*
X140587925Y-76193719D01*
X140518550Y-76164983D01*
X167836500Y-76164983D01*
X167836500Y-76965001D01*
X167836501Y-76965019D01*
X167847000Y-77067796D01*
X167847001Y-77067799D01*
X167881376Y-77171534D01*
X167902186Y-77234334D01*
X167994288Y-77383656D01*
X168118344Y-77507712D01*
X168226846Y-77574636D01*
X168273570Y-77626582D01*
X168284793Y-77695545D01*
X168278791Y-77721129D01*
X168251631Y-77798745D01*
X168251630Y-77798750D01*
X168231435Y-77977996D01*
X168231435Y-77978003D01*
X168251630Y-78157249D01*
X168251631Y-78157254D01*
X168311211Y-78327523D01*
X168392864Y-78457472D01*
X168407184Y-78480262D01*
X168534738Y-78607816D01*
X168687478Y-78703789D01*
X168857745Y-78763368D01*
X168857750Y-78763369D01*
X169036996Y-78783565D01*
X169037000Y-78783565D01*
X169037004Y-78783565D01*
X169216249Y-78763369D01*
X169216252Y-78763368D01*
X169216255Y-78763368D01*
X169386522Y-78703789D01*
X169539262Y-78607816D01*
X169666816Y-78480262D01*
X169762789Y-78327522D01*
X169822368Y-78157255D01*
X169823343Y-78148600D01*
X169842565Y-77978003D01*
X169842565Y-77977996D01*
X169822369Y-77798750D01*
X169822368Y-77798745D01*
X169795209Y-77721129D01*
X169791648Y-77651350D01*
X169826377Y-77590722D01*
X169847151Y-77574637D01*
X169955656Y-77507712D01*
X170079712Y-77383656D01*
X170171814Y-77234334D01*
X170226999Y-77067797D01*
X170237500Y-76965009D01*
X170237499Y-76164992D01*
X170234638Y-76136988D01*
X170226999Y-76062203D01*
X170226998Y-76062200D01*
X170171814Y-75895666D01*
X170079712Y-75746344D01*
X169985695Y-75652327D01*
X169952210Y-75591004D01*
X169957194Y-75521312D01*
X169985695Y-75476964D01*
X170079317Y-75383342D01*
X170171356Y-75234124D01*
X170171358Y-75234119D01*
X170226505Y-75067697D01*
X170226506Y-75067690D01*
X170236999Y-74964986D01*
X170237000Y-74964973D01*
X170237000Y-74815000D01*
X167837001Y-74815000D01*
X167837001Y-74964986D01*
X167847494Y-75067697D01*
X167902641Y-75234119D01*
X167902643Y-75234124D01*
X167994684Y-75383345D01*
X168088304Y-75476965D01*
X168121789Y-75538288D01*
X168116805Y-75607980D01*
X168088305Y-75652327D01*
X167994287Y-75746345D01*
X167902187Y-75895663D01*
X167902185Y-75895668D01*
X167883975Y-75950623D01*
X167847001Y-76062203D01*
X167847001Y-76062204D01*
X167847000Y-76062204D01*
X167836500Y-76164983D01*
X140518550Y-76164983D01*
X140450972Y-76136991D01*
X140450970Y-76136990D01*
X140336877Y-76121970D01*
X140337127Y-76120064D01*
X140278793Y-76098646D01*
X140236636Y-76042927D01*
X140231296Y-75973262D01*
X140264466Y-75911768D01*
X141498416Y-74677819D01*
X141559739Y-74644334D01*
X141586097Y-74641500D01*
X141784588Y-74641500D01*
X141851627Y-74661185D01*
X141861903Y-74668555D01*
X141864736Y-74670814D01*
X141864738Y-74670816D01*
X142017478Y-74766789D01*
X142143617Y-74810927D01*
X142187745Y-74826368D01*
X142187750Y-74826369D01*
X142366996Y-74846565D01*
X142367000Y-74846565D01*
X142367004Y-74846565D01*
X142546249Y-74826369D01*
X142546252Y-74826368D01*
X142546255Y-74826368D01*
X142716522Y-74766789D01*
X142869262Y-74670816D01*
X142996816Y-74543262D01*
X143092789Y-74390522D01*
X143152368Y-74220255D01*
X143158591Y-74165028D01*
X143172565Y-74041003D01*
X143172565Y-74040996D01*
X143152369Y-73861750D01*
X143152368Y-73861745D01*
X143113971Y-73752013D01*
X143092789Y-73691478D01*
X143090903Y-73688476D01*
X143090276Y-73686258D01*
X143089769Y-73685205D01*
X143089953Y-73685116D01*
X143071900Y-73621240D01*
X143092265Y-73554404D01*
X143145531Y-73509188D01*
X143195894Y-73498500D01*
X167943477Y-73498500D01*
X168010516Y-73518185D01*
X168056271Y-73570989D01*
X168066215Y-73640147D01*
X168037190Y-73703703D01*
X168031158Y-73710181D01*
X167994684Y-73746654D01*
X167902643Y-73895875D01*
X167902641Y-73895880D01*
X167847494Y-74062302D01*
X167847493Y-74062309D01*
X167837000Y-74165013D01*
X167837000Y-74315000D01*
X170236999Y-74315000D01*
X170236999Y-74165028D01*
X170236998Y-74165013D01*
X170226505Y-74062302D01*
X170171358Y-73895880D01*
X170171356Y-73895875D01*
X170079315Y-73746654D01*
X170042842Y-73710181D01*
X170009357Y-73648858D01*
X170014341Y-73579166D01*
X170056213Y-73523233D01*
X170121677Y-73498816D01*
X170130523Y-73498500D01*
X181562055Y-73498500D01*
X181562057Y-73498500D01*
X181714784Y-73457577D01*
X181851716Y-73378520D01*
X181963520Y-73266716D01*
X182042577Y-73129784D01*
X182083500Y-72977057D01*
X182083500Y-58848943D01*
X182046802Y-58711983D01*
X182046802Y-58711982D01*
X182042577Y-58696215D01*
X181985597Y-58597523D01*
X181985596Y-58597522D01*
X181963520Y-58559284D01*
X181851716Y-58447480D01*
X181851715Y-58447479D01*
X181847385Y-58443149D01*
X181847374Y-58443139D01*
X181170700Y-57766465D01*
X181137215Y-57705142D01*
X181135163Y-57692686D01*
X181125368Y-57605745D01*
X181065789Y-57435478D01*
X180969816Y-57282738D01*
X180842262Y-57155184D01*
X180819528Y-57140899D01*
X180689523Y-57059211D01*
X180519254Y-56999631D01*
X180519249Y-56999630D01*
X180340004Y-56979435D01*
X180339996Y-56979435D01*
X180160750Y-56999630D01*
X180160745Y-56999631D01*
X179990476Y-57059211D01*
X179860472Y-57140899D01*
X179793235Y-57159899D01*
X179726400Y-57139531D01*
X179681186Y-57086263D01*
X179670500Y-57035905D01*
X179670500Y-56099060D01*
X179670501Y-56099047D01*
X179670501Y-55930944D01*
X179661048Y-55895665D01*
X179629577Y-55778216D01*
X179623028Y-55766872D01*
X179550524Y-55641290D01*
X179550518Y-55641282D01*
X177915123Y-54005887D01*
X176276589Y-52367354D01*
X176276588Y-52367352D01*
X176157717Y-52248481D01*
X176157712Y-52248477D01*
X176137798Y-52236980D01*
X176089582Y-52186413D01*
X176083616Y-52172925D01*
X176070341Y-52137332D01*
X176065357Y-52067640D01*
X176070340Y-52050669D01*
X176083091Y-52016483D01*
X176089500Y-51956873D01*
X176089499Y-50961128D01*
X176083091Y-50901517D01*
X176070340Y-50867332D01*
X176065357Y-50797642D01*
X176070340Y-50780669D01*
X176083091Y-50746483D01*
X176089500Y-50686873D01*
X176089499Y-49691128D01*
X176083091Y-49631517D01*
X176070073Y-49596616D01*
X176065090Y-49526926D01*
X176070075Y-49509949D01*
X176082597Y-49476375D01*
X176082598Y-49476372D01*
X176088999Y-49416844D01*
X176089000Y-49416827D01*
X176089000Y-49169000D01*
X173589000Y-49169000D01*
X173589000Y-49416844D01*
X173595401Y-49476372D01*
X173595403Y-49476379D01*
X173607925Y-49509952D01*
X173612909Y-49579643D01*
X173607925Y-49596617D01*
X173594909Y-49631514D01*
X173594908Y-49631516D01*
X173588501Y-49691116D01*
X173588501Y-49691123D01*
X173588500Y-49691135D01*
X173588500Y-50686870D01*
X173588501Y-50686876D01*
X173594908Y-50746481D01*
X173607659Y-50780669D01*
X173612642Y-50850361D01*
X173607659Y-50867331D01*
X173594908Y-50901518D01*
X173588501Y-50961116D01*
X173588501Y-50961123D01*
X173588500Y-50961135D01*
X173588500Y-51956870D01*
X173588501Y-51956876D01*
X173594908Y-52016481D01*
X173607659Y-52050669D01*
X173612642Y-52120361D01*
X173607659Y-52137331D01*
X173594908Y-52171518D01*
X173588501Y-52231116D01*
X173588501Y-52231123D01*
X173588500Y-52231135D01*
X173588500Y-53226870D01*
X173588501Y-53226876D01*
X173594908Y-53286481D01*
X173607659Y-53320669D01*
X173612642Y-53390361D01*
X173607659Y-53407331D01*
X173594908Y-53441518D01*
X173591801Y-53470422D01*
X173588501Y-53501123D01*
X173588500Y-53501135D01*
X173588500Y-54496870D01*
X173588501Y-54496876D01*
X173594908Y-54556481D01*
X173607659Y-54590669D01*
X173612642Y-54660361D01*
X173607659Y-54677331D01*
X173594908Y-54711518D01*
X173588501Y-54771116D01*
X173588501Y-54771123D01*
X173588500Y-54771135D01*
X173588500Y-55766870D01*
X173588501Y-55766876D01*
X173594908Y-55826481D01*
X173607659Y-55860669D01*
X173612642Y-55930361D01*
X173607659Y-55947331D01*
X173594908Y-55981518D01*
X173588501Y-56041116D01*
X173588501Y-56041123D01*
X173588500Y-56041135D01*
X173588500Y-57036870D01*
X173588501Y-57036871D01*
X173594908Y-57096481D01*
X173607659Y-57130669D01*
X173612642Y-57200361D01*
X173607659Y-57217331D01*
X173594908Y-57251518D01*
X173590162Y-57295665D01*
X173588501Y-57311123D01*
X173588500Y-57311135D01*
X173588500Y-58306870D01*
X173588501Y-58306876D01*
X173594908Y-58366481D01*
X173607659Y-58400669D01*
X173612642Y-58470361D01*
X173607659Y-58487331D01*
X173594908Y-58521518D01*
X173589262Y-58574036D01*
X173588501Y-58581123D01*
X173588500Y-58581135D01*
X173588500Y-59576870D01*
X173588501Y-59576876D01*
X173594908Y-59636481D01*
X173607659Y-59670669D01*
X173612642Y-59740361D01*
X173607659Y-59757331D01*
X173594908Y-59791518D01*
X173588501Y-59851116D01*
X173588501Y-59851123D01*
X173588500Y-59851135D01*
X173588500Y-60846870D01*
X173588501Y-60846876D01*
X173594908Y-60906481D01*
X173607659Y-60940669D01*
X173612642Y-61010361D01*
X173607659Y-61027331D01*
X173594908Y-61061518D01*
X173588501Y-61121116D01*
X173588501Y-61121123D01*
X173588500Y-61121135D01*
X173588500Y-62116870D01*
X173588501Y-62116876D01*
X173594908Y-62176481D01*
X173607659Y-62210669D01*
X173612642Y-62280361D01*
X173607659Y-62297331D01*
X173594908Y-62331518D01*
X173588501Y-62391116D01*
X173588501Y-62391123D01*
X173588500Y-62391135D01*
X173588500Y-63386870D01*
X173588501Y-63386876D01*
X173594908Y-63446481D01*
X173607659Y-63480669D01*
X173612642Y-63550361D01*
X173607659Y-63567331D01*
X173594908Y-63601518D01*
X173588501Y-63661116D01*
X173588501Y-63661123D01*
X173588500Y-63661135D01*
X173588500Y-64656870D01*
X173588501Y-64656876D01*
X173594908Y-64716481D01*
X173607659Y-64750669D01*
X173612642Y-64820361D01*
X173607659Y-64837331D01*
X173594908Y-64871518D01*
X173588501Y-64931116D01*
X173588501Y-64931123D01*
X173588500Y-64931135D01*
X173588500Y-65304500D01*
X173568815Y-65371539D01*
X173516011Y-65417294D01*
X173464500Y-65428500D01*
X172576129Y-65428500D01*
X172576123Y-65428501D01*
X172516518Y-65434908D01*
X172482331Y-65447659D01*
X172412639Y-65452642D01*
X172395669Y-65447659D01*
X172361480Y-65434908D01*
X172361482Y-65434908D01*
X172301883Y-65428501D01*
X172301881Y-65428500D01*
X172301873Y-65428500D01*
X172301864Y-65428500D01*
X171306129Y-65428500D01*
X171306123Y-65428501D01*
X171246518Y-65434908D01*
X171212331Y-65447659D01*
X171142639Y-65452642D01*
X171125669Y-65447659D01*
X171091480Y-65434908D01*
X171091482Y-65434908D01*
X171031883Y-65428501D01*
X171031881Y-65428500D01*
X171031873Y-65428500D01*
X171031864Y-65428500D01*
X170036129Y-65428500D01*
X170036123Y-65428501D01*
X169976518Y-65434908D01*
X169942331Y-65447659D01*
X169872639Y-65452642D01*
X169855669Y-65447659D01*
X169821480Y-65434908D01*
X169821482Y-65434908D01*
X169761883Y-65428501D01*
X169761881Y-65428500D01*
X169761873Y-65428500D01*
X169761864Y-65428500D01*
X168766129Y-65428500D01*
X168766123Y-65428501D01*
X168706518Y-65434908D01*
X168672331Y-65447659D01*
X168602639Y-65452642D01*
X168585669Y-65447659D01*
X168551480Y-65434908D01*
X168551482Y-65434908D01*
X168491883Y-65428501D01*
X168491881Y-65428500D01*
X168491873Y-65428500D01*
X168491864Y-65428500D01*
X167496129Y-65428500D01*
X167496123Y-65428501D01*
X167436518Y-65434908D01*
X167402331Y-65447659D01*
X167332639Y-65452642D01*
X167315669Y-65447659D01*
X167281480Y-65434908D01*
X167281482Y-65434908D01*
X167221883Y-65428501D01*
X167221881Y-65428500D01*
X167221873Y-65428500D01*
X167221864Y-65428500D01*
X166226129Y-65428500D01*
X166226123Y-65428501D01*
X166166518Y-65434908D01*
X166132331Y-65447659D01*
X166062639Y-65452642D01*
X166045669Y-65447659D01*
X166011480Y-65434908D01*
X166011482Y-65434908D01*
X165951883Y-65428501D01*
X165951881Y-65428500D01*
X165951873Y-65428500D01*
X165951864Y-65428500D01*
X164956129Y-65428500D01*
X164956123Y-65428501D01*
X164896518Y-65434908D01*
X164862331Y-65447659D01*
X164792639Y-65452642D01*
X164775669Y-65447659D01*
X164741480Y-65434908D01*
X164741482Y-65434908D01*
X164681883Y-65428501D01*
X164681881Y-65428500D01*
X164681873Y-65428500D01*
X164681864Y-65428500D01*
X163686129Y-65428500D01*
X163686123Y-65428501D01*
X163626518Y-65434908D01*
X163592331Y-65447659D01*
X163522639Y-65452642D01*
X163505669Y-65447659D01*
X163471480Y-65434908D01*
X163471482Y-65434908D01*
X163411883Y-65428501D01*
X163411881Y-65428500D01*
X163411873Y-65428500D01*
X163411864Y-65428500D01*
X162416129Y-65428500D01*
X162416123Y-65428501D01*
X162356518Y-65434908D01*
X162322331Y-65447659D01*
X162252639Y-65452642D01*
X162235669Y-65447659D01*
X162201480Y-65434908D01*
X162201482Y-65434908D01*
X162141883Y-65428501D01*
X162141881Y-65428500D01*
X162141873Y-65428500D01*
X162141864Y-65428500D01*
X161146129Y-65428500D01*
X161146123Y-65428501D01*
X161086518Y-65434908D01*
X161052331Y-65447659D01*
X160982639Y-65452642D01*
X160965669Y-65447659D01*
X160931480Y-65434908D01*
X160931482Y-65434908D01*
X160871883Y-65428501D01*
X160871881Y-65428500D01*
X160871873Y-65428500D01*
X160871864Y-65428500D01*
X159876129Y-65428500D01*
X159876123Y-65428501D01*
X159816518Y-65434908D01*
X159782331Y-65447659D01*
X159712639Y-65452642D01*
X159695669Y-65447659D01*
X159661480Y-65434908D01*
X159661482Y-65434908D01*
X159601883Y-65428501D01*
X159601881Y-65428500D01*
X159601873Y-65428500D01*
X159601865Y-65428500D01*
X158713499Y-65428500D01*
X158646460Y-65408815D01*
X158600705Y-65356011D01*
X158589499Y-65304500D01*
X158589499Y-64931129D01*
X158589498Y-64931123D01*
X158589497Y-64931116D01*
X158583091Y-64871517D01*
X158570340Y-64837332D01*
X158565357Y-64767642D01*
X158570340Y-64750669D01*
X158583091Y-64716483D01*
X158589500Y-64656873D01*
X158589499Y-63661128D01*
X158583091Y-63601517D01*
X158570340Y-63567332D01*
X158565357Y-63497642D01*
X158570340Y-63480669D01*
X158583091Y-63446483D01*
X158589500Y-63386873D01*
X158589499Y-62391128D01*
X158583091Y-62331517D01*
X158570340Y-62297332D01*
X158565357Y-62227642D01*
X158570340Y-62210669D01*
X158583091Y-62176483D01*
X158589500Y-62116873D01*
X158589499Y-61121128D01*
X158583091Y-61061517D01*
X158570340Y-61027332D01*
X158565357Y-60957642D01*
X158570340Y-60940669D01*
X158583091Y-60906483D01*
X158589500Y-60846873D01*
X158589499Y-59851128D01*
X158583091Y-59791517D01*
X158570340Y-59757332D01*
X158565357Y-59687642D01*
X158570340Y-59670669D01*
X158583091Y-59636483D01*
X158589500Y-59576873D01*
X158589499Y-58636844D01*
X162139000Y-58636844D01*
X162145401Y-58696372D01*
X162145403Y-58696379D01*
X162195645Y-58831086D01*
X162195649Y-58831093D01*
X162281809Y-58946187D01*
X162281812Y-58946190D01*
X162396906Y-59032350D01*
X162396913Y-59032354D01*
X162531620Y-59082596D01*
X162531627Y-59082598D01*
X162591155Y-59088999D01*
X162591172Y-59089000D01*
X164339000Y-59089000D01*
X164339000Y-57942554D01*
X164839000Y-57942554D01*
X164839000Y-59089000D01*
X166586828Y-59089000D01*
X166586844Y-59088999D01*
X166646372Y-59082598D01*
X166646379Y-59082596D01*
X166781086Y-59032354D01*
X166781093Y-59032350D01*
X166896187Y-58946190D01*
X166896190Y-58946187D01*
X166982350Y-58831093D01*
X166982354Y-58831086D01*
X167032596Y-58696379D01*
X167032598Y-58696372D01*
X167038999Y-58636844D01*
X167039000Y-58636827D01*
X167039000Y-56889000D01*
X165892553Y-56889000D01*
X166003280Y-56999726D01*
X166003282Y-56999730D01*
X166254871Y-57251318D01*
X166288356Y-57312641D01*
X166283372Y-57382332D01*
X166254871Y-57426680D01*
X166025560Y-57655990D01*
X166025548Y-57656006D01*
X165606006Y-58075548D01*
X165605999Y-58075551D01*
X165376680Y-58304871D01*
X165315357Y-58338356D01*
X165245665Y-58333372D01*
X165201318Y-58304871D01*
X164949740Y-58053292D01*
X164949725Y-58053280D01*
X164915554Y-58019109D01*
X165189000Y-58019109D01*
X165189000Y-58058891D01*
X165204224Y-58095645D01*
X165232355Y-58123776D01*
X165269109Y-58139000D01*
X165308891Y-58139000D01*
X165345645Y-58123776D01*
X165373776Y-58095645D01*
X165389000Y-58058891D01*
X165389000Y-58019109D01*
X165373776Y-57982355D01*
X165345645Y-57954224D01*
X165308891Y-57939000D01*
X165269109Y-57939000D01*
X165232355Y-57954224D01*
X165204224Y-57982355D01*
X165189000Y-58019109D01*
X164915554Y-58019109D01*
X164839000Y-57942554D01*
X164339000Y-57942554D01*
X164339000Y-57942553D01*
X164206007Y-58075548D01*
X164205998Y-58075552D01*
X163976680Y-58304871D01*
X163915357Y-58338356D01*
X163845665Y-58333372D01*
X163801318Y-58304871D01*
X163549736Y-58053288D01*
X163549726Y-58053280D01*
X163515555Y-58019109D01*
X163789000Y-58019109D01*
X163789000Y-58058891D01*
X163804224Y-58095645D01*
X163832355Y-58123776D01*
X163869109Y-58139000D01*
X163908891Y-58139000D01*
X163945645Y-58123776D01*
X163973776Y-58095645D01*
X163989000Y-58058891D01*
X163989000Y-58019109D01*
X163973776Y-57982355D01*
X163945645Y-57954224D01*
X163908891Y-57939000D01*
X163869109Y-57939000D01*
X163832355Y-57954224D01*
X163804224Y-57982355D01*
X163789000Y-58019109D01*
X163515555Y-58019109D01*
X163133573Y-57637127D01*
X163133571Y-57637124D01*
X162923127Y-57426680D01*
X162889642Y-57365357D01*
X162892949Y-57319109D01*
X163089000Y-57319109D01*
X163089000Y-57358891D01*
X163104224Y-57395645D01*
X163132355Y-57423776D01*
X163169109Y-57439000D01*
X163208891Y-57439000D01*
X163245645Y-57423776D01*
X163273776Y-57395645D01*
X163289000Y-57358891D01*
X163289000Y-57339000D01*
X163542553Y-57339000D01*
X163596757Y-57393203D01*
X163889000Y-57685446D01*
X164235446Y-57339000D01*
X164215555Y-57319109D01*
X164489000Y-57319109D01*
X164489000Y-57358891D01*
X164504224Y-57395645D01*
X164532355Y-57423776D01*
X164569109Y-57439000D01*
X164608891Y-57439000D01*
X164645645Y-57423776D01*
X164673776Y-57395645D01*
X164689000Y-57358891D01*
X164689000Y-57339000D01*
X164942553Y-57339000D01*
X164996757Y-57393203D01*
X165289000Y-57685446D01*
X165635446Y-57339000D01*
X165615555Y-57319109D01*
X165889000Y-57319109D01*
X165889000Y-57358891D01*
X165904224Y-57395645D01*
X165932355Y-57423776D01*
X165969109Y-57439000D01*
X166008891Y-57439000D01*
X166045645Y-57423776D01*
X166073776Y-57395645D01*
X166089000Y-57358891D01*
X166089000Y-57319109D01*
X166073776Y-57282355D01*
X166045645Y-57254224D01*
X166008891Y-57239000D01*
X165969109Y-57239000D01*
X165932355Y-57254224D01*
X165904224Y-57282355D01*
X165889000Y-57319109D01*
X165615555Y-57319109D01*
X165333317Y-57036871D01*
X165289000Y-56992553D01*
X165244683Y-57036871D01*
X165244682Y-57036872D01*
X164942553Y-57339000D01*
X164689000Y-57339000D01*
X164689000Y-57319109D01*
X164673776Y-57282355D01*
X164645645Y-57254224D01*
X164608891Y-57239000D01*
X164569109Y-57239000D01*
X164532355Y-57254224D01*
X164504224Y-57282355D01*
X164489000Y-57319109D01*
X164215555Y-57319109D01*
X163933317Y-57036871D01*
X163889000Y-56992553D01*
X163844683Y-57036871D01*
X163844682Y-57036872D01*
X163542553Y-57339000D01*
X163289000Y-57339000D01*
X163289000Y-57319109D01*
X163273776Y-57282355D01*
X163245645Y-57254224D01*
X163208891Y-57239000D01*
X163169109Y-57239000D01*
X163132355Y-57254224D01*
X163104224Y-57282355D01*
X163089000Y-57319109D01*
X162892949Y-57319109D01*
X162894626Y-57295665D01*
X162923127Y-57251318D01*
X163116132Y-57058314D01*
X163285446Y-56889000D01*
X162139000Y-56889000D01*
X162139000Y-58636844D01*
X158589499Y-58636844D01*
X158589499Y-58581128D01*
X158583091Y-58521517D01*
X158570340Y-58487332D01*
X158565357Y-58417642D01*
X158570340Y-58400669D01*
X158583091Y-58366483D01*
X158589500Y-58306873D01*
X158589499Y-57311128D01*
X158583091Y-57251517D01*
X158570340Y-57217332D01*
X158565357Y-57147642D01*
X158570340Y-57130669D01*
X158583091Y-57096483D01*
X158589500Y-57036873D01*
X158589500Y-56619109D01*
X163789000Y-56619109D01*
X163789000Y-56658891D01*
X163804224Y-56695645D01*
X163832355Y-56723776D01*
X163869109Y-56739000D01*
X163908891Y-56739000D01*
X163945645Y-56723776D01*
X163973776Y-56695645D01*
X163989000Y-56658891D01*
X163989000Y-56619109D01*
X165189000Y-56619109D01*
X165189000Y-56658891D01*
X165204224Y-56695645D01*
X165232355Y-56723776D01*
X165269109Y-56739000D01*
X165308891Y-56739000D01*
X165345645Y-56723776D01*
X165373776Y-56695645D01*
X165389000Y-56658891D01*
X165389000Y-56619109D01*
X165373776Y-56582355D01*
X165345645Y-56554224D01*
X165308891Y-56539000D01*
X165269109Y-56539000D01*
X165232355Y-56554224D01*
X165204224Y-56582355D01*
X165189000Y-56619109D01*
X163989000Y-56619109D01*
X163973776Y-56582355D01*
X163945645Y-56554224D01*
X163908891Y-56539000D01*
X163869109Y-56539000D01*
X163832355Y-56554224D01*
X163804224Y-56582355D01*
X163789000Y-56619109D01*
X158589500Y-56619109D01*
X158589499Y-56041128D01*
X158583091Y-55981517D01*
X158570340Y-55947332D01*
X158565357Y-55877642D01*
X158570340Y-55860669D01*
X158583091Y-55826483D01*
X158589500Y-55766873D01*
X158589499Y-54771128D01*
X158583091Y-54711517D01*
X158570340Y-54677332D01*
X158567753Y-54641155D01*
X162139000Y-54641155D01*
X162139000Y-56389000D01*
X163285445Y-56389000D01*
X163234740Y-56338295D01*
X163234740Y-56338294D01*
X163133573Y-56237127D01*
X163133571Y-56237124D01*
X162923127Y-56026680D01*
X162889642Y-55965357D01*
X162892949Y-55919109D01*
X163089000Y-55919109D01*
X163089000Y-55958891D01*
X163104224Y-55995645D01*
X163132355Y-56023776D01*
X163169109Y-56039000D01*
X163208891Y-56039000D01*
X163245645Y-56023776D01*
X163273776Y-55995645D01*
X163289000Y-55958891D01*
X163289000Y-55938999D01*
X163542553Y-55938999D01*
X163585071Y-55981516D01*
X163585072Y-55981518D01*
X163889000Y-56285446D01*
X164235446Y-55939000D01*
X164215555Y-55919109D01*
X164489000Y-55919109D01*
X164489000Y-55958891D01*
X164504224Y-55995645D01*
X164532355Y-56023776D01*
X164569109Y-56039000D01*
X164608891Y-56039000D01*
X164645645Y-56023776D01*
X164673776Y-55995645D01*
X164689000Y-55958891D01*
X164689000Y-55938999D01*
X164942553Y-55938999D01*
X164985071Y-55981516D01*
X164985072Y-55981518D01*
X165289000Y-56285446D01*
X165635446Y-55939000D01*
X165615555Y-55919109D01*
X165889000Y-55919109D01*
X165889000Y-55958891D01*
X165904224Y-55995645D01*
X165932355Y-56023776D01*
X165969109Y-56039000D01*
X166008891Y-56039000D01*
X166045645Y-56023776D01*
X166073776Y-55995645D01*
X166089000Y-55958891D01*
X166089000Y-55919109D01*
X166073776Y-55882355D01*
X166045645Y-55854224D01*
X166008891Y-55839000D01*
X165969109Y-55839000D01*
X165932355Y-55854224D01*
X165904224Y-55882355D01*
X165889000Y-55919109D01*
X165615555Y-55919109D01*
X165328183Y-55631737D01*
X165289000Y-55592553D01*
X165249817Y-55631737D01*
X165249816Y-55631738D01*
X164942553Y-55938999D01*
X164689000Y-55938999D01*
X164689000Y-55919109D01*
X164673776Y-55882355D01*
X164645645Y-55854224D01*
X164608891Y-55839000D01*
X164569109Y-55839000D01*
X164532355Y-55854224D01*
X164504224Y-55882355D01*
X164489000Y-55919109D01*
X164215555Y-55919109D01*
X163928183Y-55631737D01*
X163889000Y-55592553D01*
X163849817Y-55631737D01*
X163849816Y-55631738D01*
X163542553Y-55938999D01*
X163289000Y-55938999D01*
X163289000Y-55919109D01*
X163273776Y-55882355D01*
X163245645Y-55854224D01*
X163208891Y-55839000D01*
X163169109Y-55839000D01*
X163132355Y-55854224D01*
X163104224Y-55882355D01*
X163089000Y-55919109D01*
X162892949Y-55919109D01*
X162894626Y-55895665D01*
X162923127Y-55851318D01*
X163116132Y-55658314D01*
X163555337Y-55219109D01*
X163789000Y-55219109D01*
X163789000Y-55258891D01*
X163804224Y-55295645D01*
X163832355Y-55323776D01*
X163869109Y-55339000D01*
X163908891Y-55339000D01*
X163945645Y-55323776D01*
X163973776Y-55295645D01*
X163989000Y-55258891D01*
X163989000Y-55219109D01*
X163973776Y-55182355D01*
X163945645Y-55154224D01*
X163908891Y-55139000D01*
X163869109Y-55139000D01*
X163832355Y-55154224D01*
X163804224Y-55182355D01*
X163789000Y-55219109D01*
X163555337Y-55219109D01*
X163608314Y-55166132D01*
X163801318Y-54973127D01*
X163862641Y-54939642D01*
X163932332Y-54944626D01*
X163976680Y-54973127D01*
X164187121Y-55183568D01*
X164187127Y-55183573D01*
X164292119Y-55288565D01*
X164292120Y-55288565D01*
X164339000Y-55335445D01*
X164339000Y-55335444D01*
X164839000Y-55335444D01*
X164885880Y-55288565D01*
X164885881Y-55288565D01*
X164955337Y-55219109D01*
X165189000Y-55219109D01*
X165189000Y-55258891D01*
X165204224Y-55295645D01*
X165232355Y-55323776D01*
X165269109Y-55339000D01*
X165308891Y-55339000D01*
X165345645Y-55323776D01*
X165373776Y-55295645D01*
X165389000Y-55258891D01*
X165389000Y-55219109D01*
X165373776Y-55182355D01*
X165345645Y-55154224D01*
X165308891Y-55139000D01*
X165269109Y-55139000D01*
X165232355Y-55154224D01*
X165204224Y-55182355D01*
X165189000Y-55219109D01*
X164955337Y-55219109D01*
X165008314Y-55166132D01*
X165201318Y-54973127D01*
X165262641Y-54939642D01*
X165332332Y-54944626D01*
X165376680Y-54973127D01*
X165587121Y-55183568D01*
X165587127Y-55183573D01*
X166003280Y-55599726D01*
X166003282Y-55599730D01*
X166254871Y-55851318D01*
X166288356Y-55912641D01*
X166283372Y-55982332D01*
X166254871Y-56026680D01*
X166025560Y-56255990D01*
X166025548Y-56256006D01*
X165943260Y-56338294D01*
X165943260Y-56338295D01*
X165892555Y-56389000D01*
X167039000Y-56389000D01*
X167039000Y-54641172D01*
X167038999Y-54641155D01*
X167032598Y-54581627D01*
X167032596Y-54581620D01*
X166982354Y-54446913D01*
X166982350Y-54446906D01*
X166896190Y-54331812D01*
X166896187Y-54331809D01*
X166781093Y-54245649D01*
X166781086Y-54245645D01*
X166646379Y-54195403D01*
X166646372Y-54195401D01*
X166586844Y-54189000D01*
X164839000Y-54189000D01*
X164839000Y-55335444D01*
X164339000Y-55335444D01*
X164339000Y-54189000D01*
X162591155Y-54189000D01*
X162531627Y-54195401D01*
X162531620Y-54195403D01*
X162396913Y-54245645D01*
X162396906Y-54245649D01*
X162281812Y-54331809D01*
X162281809Y-54331812D01*
X162195649Y-54446906D01*
X162195645Y-54446913D01*
X162145403Y-54581620D01*
X162145401Y-54581627D01*
X162139000Y-54641155D01*
X158567753Y-54641155D01*
X158565357Y-54607642D01*
X158570340Y-54590669D01*
X158583091Y-54556483D01*
X158589500Y-54496873D01*
X158589499Y-53501128D01*
X158583091Y-53441517D01*
X158570340Y-53407332D01*
X158565357Y-53337642D01*
X158570340Y-53320669D01*
X158583091Y-53286483D01*
X158589500Y-53226873D01*
X158589499Y-52231128D01*
X158583091Y-52171517D01*
X158570340Y-52137332D01*
X158565357Y-52067642D01*
X158570340Y-52050669D01*
X158583091Y-52016483D01*
X158589500Y-51956873D01*
X158589499Y-50961128D01*
X158583091Y-50901517D01*
X158570340Y-50867332D01*
X158565357Y-50797642D01*
X158570340Y-50780669D01*
X158583091Y-50746483D01*
X158589500Y-50686873D01*
X158589499Y-49691128D01*
X158583091Y-49631517D01*
X158570073Y-49596616D01*
X158565090Y-49526926D01*
X158570075Y-49509949D01*
X158582597Y-49476375D01*
X158582598Y-49476372D01*
X158588999Y-49416844D01*
X158589000Y-49416827D01*
X158589000Y-49169000D01*
X156089000Y-49169000D01*
X156089000Y-49286500D01*
X156069315Y-49353539D01*
X156016511Y-49399294D01*
X155965000Y-49410500D01*
X152313177Y-49410500D01*
X152153815Y-49442200D01*
X152153800Y-49442203D01*
X152147220Y-49443511D01*
X152142874Y-49444376D01*
X152142871Y-49444377D01*
X151982457Y-49510822D01*
X151982455Y-49510823D01*
X151931319Y-49544992D01*
X151931318Y-49544992D01*
X151838080Y-49607291D01*
X151838072Y-49607297D01*
X151817189Y-49628181D01*
X151755866Y-49661666D01*
X151729508Y-49664500D01*
X122364042Y-49664500D01*
X122297003Y-49644815D01*
X122276361Y-49628181D01*
X122148823Y-49500643D01*
X122148821Y-49500641D01*
X121974299Y-49373843D01*
X121782089Y-49275908D01*
X121576926Y-49209246D01*
X121576924Y-49209245D01*
X121576922Y-49209245D01*
X121363866Y-49175500D01*
X121363861Y-49175500D01*
X120698139Y-49175500D01*
X120698134Y-49175500D01*
X120485077Y-49209245D01*
X120279908Y-49275909D01*
X120087700Y-49373843D01*
X120028515Y-49416844D01*
X119913179Y-49500641D01*
X119913177Y-49500643D01*
X119913176Y-49500643D01*
X119760643Y-49653176D01*
X119760643Y-49653177D01*
X119760641Y-49653179D01*
X119709325Y-49723809D01*
X119633843Y-49827700D01*
X119535909Y-50019908D01*
X119469245Y-50225077D01*
X119435500Y-50438133D01*
X117594500Y-50438133D01*
X117594500Y-48421155D01*
X156089000Y-48421155D01*
X156089000Y-48669000D01*
X157089000Y-48669000D01*
X157589000Y-48669000D01*
X158589000Y-48669000D01*
X158589000Y-48421172D01*
X158588999Y-48421155D01*
X173589000Y-48421155D01*
X173589000Y-48669000D01*
X174589000Y-48669000D01*
X175089000Y-48669000D01*
X176089000Y-48669000D01*
X176089000Y-48421172D01*
X176088999Y-48421155D01*
X176082598Y-48361627D01*
X176082596Y-48361620D01*
X176032354Y-48226913D01*
X176032350Y-48226906D01*
X175946190Y-48111812D01*
X175946187Y-48111809D01*
X175831093Y-48025649D01*
X175831086Y-48025645D01*
X175696379Y-47975403D01*
X175696372Y-47975401D01*
X175636844Y-47969000D01*
X175089000Y-47969000D01*
X175089000Y-48669000D01*
X174589000Y-48669000D01*
X174589000Y-47969000D01*
X174041155Y-47969000D01*
X173981627Y-47975401D01*
X173981620Y-47975403D01*
X173846913Y-48025645D01*
X173846906Y-48025649D01*
X173731812Y-48111809D01*
X173731809Y-48111812D01*
X173645649Y-48226906D01*
X173645645Y-48226913D01*
X173595403Y-48361620D01*
X173595401Y-48361627D01*
X173589000Y-48421155D01*
X158588999Y-48421155D01*
X158582598Y-48361627D01*
X158582596Y-48361620D01*
X158532354Y-48226913D01*
X158532350Y-48226906D01*
X158446190Y-48111812D01*
X158446187Y-48111809D01*
X158331093Y-48025649D01*
X158331086Y-48025645D01*
X158196379Y-47975403D01*
X158196372Y-47975401D01*
X158136844Y-47969000D01*
X157589000Y-47969000D01*
X157589000Y-48669000D01*
X157089000Y-48669000D01*
X157089000Y-47969000D01*
X156541155Y-47969000D01*
X156481627Y-47975401D01*
X156481620Y-47975403D01*
X156346913Y-48025645D01*
X156346906Y-48025649D01*
X156231812Y-48111809D01*
X156231809Y-48111812D01*
X156145649Y-48226906D01*
X156145645Y-48226913D01*
X156095403Y-48361620D01*
X156095401Y-48361627D01*
X156089000Y-48421155D01*
X117594500Y-48421155D01*
X117594500Y-47470013D01*
X190672000Y-47470013D01*
X190672000Y-47607500D01*
X191647000Y-47607500D01*
X191647000Y-46770000D01*
X191372029Y-46770000D01*
X191372012Y-46770001D01*
X191269302Y-46780494D01*
X191102880Y-46835641D01*
X191102875Y-46835643D01*
X190953654Y-46927684D01*
X190829684Y-47051654D01*
X190737643Y-47200875D01*
X190737641Y-47200880D01*
X190682494Y-47367302D01*
X190682493Y-47367309D01*
X190672000Y-47470013D01*
X117594500Y-47470013D01*
X117594500Y-41010500D01*
X117614185Y-40943461D01*
X117666989Y-40897706D01*
X117718500Y-40886500D01*
X141965000Y-40886500D01*
X142032039Y-40906185D01*
G37*
%TD.AperFunction*%
%TD*%
M02*
