%TF.GenerationSoftware,KiCad,Pcbnew,8.0.5*%
%TF.CreationDate,2024-10-22T09:55:14-05:00*%
%TF.ProjectId,golf_club_draft,676f6c66-5f63-46c7-9562-5f6472616674,rev?*%
%TF.SameCoordinates,Original*%
%TF.FileFunction,Soldermask,Top*%
%TF.FilePolarity,Negative*%
%FSLAX46Y46*%
G04 Gerber Fmt 4.6, Leading zero omitted, Abs format (unit mm)*
G04 Created by KiCad (PCBNEW 8.0.5) date 2024-10-22 09:55:14*
%MOMM*%
%LPD*%
G01*
G04 APERTURE LIST*
G04 Aperture macros list*
%AMRoundRect*
0 Rectangle with rounded corners*
0 $1 Rounding radius*
0 $2 $3 $4 $5 $6 $7 $8 $9 X,Y pos of 4 corners*
0 Add a 4 corners polygon primitive as box body*
4,1,4,$2,$3,$4,$5,$6,$7,$8,$9,$2,$3,0*
0 Add four circle primitives for the rounded corners*
1,1,$1+$1,$2,$3*
1,1,$1+$1,$4,$5*
1,1,$1+$1,$6,$7*
1,1,$1+$1,$8,$9*
0 Add four rect primitives between the rounded corners*
20,1,$1+$1,$2,$3,$4,$5,0*
20,1,$1+$1,$4,$5,$6,$7,0*
20,1,$1+$1,$6,$7,$8,$9,0*
20,1,$1+$1,$8,$9,$2,$3,0*%
G04 Aperture macros list end*
%ADD10RoundRect,0.250000X0.475000X-0.337500X0.475000X0.337500X-0.475000X0.337500X-0.475000X-0.337500X0*%
%ADD11RoundRect,0.250000X0.325000X0.450000X-0.325000X0.450000X-0.325000X-0.450000X0.325000X-0.450000X0*%
%ADD12R,1.000000X1.000000*%
%ADD13O,1.000000X1.000000*%
%ADD14RoundRect,0.250000X-0.350000X-0.450000X0.350000X-0.450000X0.350000X0.450000X-0.350000X0.450000X0*%
%ADD15RoundRect,0.250000X0.845000X-0.620000X0.845000X0.620000X-0.845000X0.620000X-0.845000X-0.620000X0*%
%ADD16O,2.190000X1.740000*%
%ADD17RoundRect,0.250000X0.450000X-0.350000X0.450000X0.350000X-0.450000X0.350000X-0.450000X-0.350000X0*%
%ADD18RoundRect,0.250000X-0.475000X0.337500X-0.475000X-0.337500X0.475000X-0.337500X0.475000X0.337500X0*%
%ADD19RoundRect,0.250000X-0.337500X-0.475000X0.337500X-0.475000X0.337500X0.475000X-0.337500X0.475000X0*%
%ADD20RoundRect,0.250000X-0.845000X0.620000X-0.845000X-0.620000X0.845000X-0.620000X0.845000X0.620000X0*%
%ADD21RoundRect,0.250000X0.350000X0.450000X-0.350000X0.450000X-0.350000X-0.450000X0.350000X-0.450000X0*%
%ADD22R,1.050000X0.450000*%
%ADD23R,1.470000X0.895000*%
%ADD24RoundRect,0.375000X0.375000X-0.625000X0.375000X0.625000X-0.375000X0.625000X-0.375000X-0.625000X0*%
%ADD25RoundRect,0.500000X1.400000X-0.500000X1.400000X0.500000X-1.400000X0.500000X-1.400000X-0.500000X0*%
%ADD26RoundRect,0.250000X-0.450000X0.350000X-0.450000X-0.350000X0.450000X-0.350000X0.450000X0.350000X0*%
%ADD27R,1.500000X0.900000*%
%ADD28R,0.900000X1.500000*%
%ADD29C,0.600000*%
%ADD30R,3.900000X3.900000*%
%ADD31RoundRect,0.250000X0.620000X0.845000X-0.620000X0.845000X-0.620000X-0.845000X0.620000X-0.845000X0*%
%ADD32O,1.740000X2.190000*%
%ADD33RoundRect,0.062500X-0.350000X-0.062500X0.350000X-0.062500X0.350000X0.062500X-0.350000X0.062500X0*%
%ADD34RoundRect,0.062500X-0.062500X-0.350000X0.062500X-0.350000X0.062500X0.350000X-0.062500X0.350000X0*%
%ADD35R,2.600000X2.600000*%
%ADD36RoundRect,0.050000X0.225000X0.050000X-0.225000X0.050000X-0.225000X-0.050000X0.225000X-0.050000X0*%
%ADD37RoundRect,0.050000X-0.050000X0.225000X-0.050000X-0.225000X0.050000X-0.225000X0.050000X0.225000X0*%
%ADD38C,0.650000*%
%ADD39R,1.450000X0.600000*%
%ADD40R,1.450000X0.300000*%
%ADD41O,2.100000X1.000000*%
%ADD42O,1.600000X1.000000*%
G04 APERTURE END LIST*
D10*
%TO.C,C10*%
X191897000Y-49932500D03*
X191897000Y-47857500D03*
%TD*%
D11*
%TO.C,D2*%
X139582000Y-87757000D03*
X137532000Y-87757000D03*
%TD*%
D12*
%TO.C,Q1*%
X175108000Y-86238000D03*
D13*
X175108000Y-84968000D03*
X175108000Y-83698000D03*
%TD*%
D14*
%TO.C,R5*%
X134255000Y-92837000D03*
X136255000Y-92837000D03*
%TD*%
D15*
%TO.C,FSR_V1*%
X121031000Y-58166000D03*
D16*
X121031000Y-55626000D03*
X121031000Y-53086000D03*
X121031000Y-50546000D03*
%TD*%
D11*
%TO.C,D1*%
X155076000Y-90932000D03*
X153026000Y-90932000D03*
%TD*%
D12*
%TO.C,Q3*%
X143637000Y-65405000D03*
D13*
X142367000Y-65405000D03*
X141097000Y-65405000D03*
%TD*%
D17*
%TO.C,R3*%
X169037000Y-76565000D03*
X169037000Y-74565000D03*
%TD*%
D18*
%TO.C,C9*%
X197612000Y-45296000D03*
X197612000Y-47371000D03*
%TD*%
D19*
%TO.C,C7*%
X146663500Y-52451000D03*
X148738500Y-52451000D03*
%TD*%
D18*
%TO.C,C1*%
X194564000Y-89916000D03*
X194564000Y-91991000D03*
%TD*%
D19*
%TO.C,C4*%
X207877500Y-75057000D03*
X209952500Y-75057000D03*
%TD*%
D20*
%TO.C,FSR_IO1*%
X121158000Y-64516000D03*
D16*
X121158000Y-67056000D03*
X121158000Y-69596000D03*
X121158000Y-72136000D03*
%TD*%
D21*
%TO.C,R7*%
X128873000Y-66929000D03*
X126873000Y-66929000D03*
%TD*%
D22*
%TO.C,BATTCHARGER1*%
X167648000Y-86911500D03*
X167648000Y-86261500D03*
X167648000Y-85611500D03*
X167648000Y-84961500D03*
X167648000Y-84311500D03*
X167648000Y-83661500D03*
X167648000Y-83011500D03*
X167648000Y-82361500D03*
X162098000Y-82361500D03*
X162098000Y-83011500D03*
X162098000Y-83661500D03*
X162098000Y-84311500D03*
X162098000Y-84961500D03*
X162098000Y-85611500D03*
X162098000Y-86261500D03*
X162098000Y-86911500D03*
D23*
X165608000Y-85979000D03*
X165608000Y-85084000D03*
X165608000Y-84189000D03*
X165608000Y-83294000D03*
X164138000Y-85979000D03*
X164138000Y-85084000D03*
X164138000Y-84189000D03*
X164138000Y-83294000D03*
%TD*%
D24*
%TO.C,3V3LR1*%
X189978000Y-85802000D03*
X192278000Y-85802000D03*
D25*
X192278000Y-79502000D03*
D24*
X194578000Y-85802000D03*
%TD*%
D26*
%TO.C,R6*%
X127127000Y-62500000D03*
X127127000Y-64500000D03*
%TD*%
D18*
%TO.C,C3*%
X207391000Y-90021500D03*
X207391000Y-92096500D03*
%TD*%
D24*
%TO.C,1V8LR1*%
X202805000Y-85802000D03*
X205105000Y-85802000D03*
D25*
X205105000Y-79502000D03*
D24*
X207405000Y-85802000D03*
%TD*%
D27*
%TO.C,U3*%
X157339000Y-48919000D03*
X157339000Y-50189000D03*
X157339000Y-51459000D03*
X157339000Y-52729000D03*
X157339000Y-53999000D03*
X157339000Y-55269000D03*
X157339000Y-56539000D03*
X157339000Y-57809000D03*
X157339000Y-59079000D03*
X157339000Y-60349000D03*
X157339000Y-61619000D03*
X157339000Y-62889000D03*
X157339000Y-64159000D03*
X157339000Y-65429000D03*
D28*
X159104000Y-66679000D03*
X160374000Y-66679000D03*
X161644000Y-66679000D03*
X162914000Y-66679000D03*
X164184000Y-66679000D03*
X165454000Y-66679000D03*
X166724000Y-66679000D03*
X167994000Y-66679000D03*
X169264000Y-66679000D03*
X170534000Y-66679000D03*
X171804000Y-66679000D03*
X173074000Y-66679000D03*
D27*
X174839000Y-65429000D03*
X174839000Y-64159000D03*
X174839000Y-62889000D03*
X174839000Y-61619000D03*
X174839000Y-60349000D03*
X174839000Y-59079000D03*
X174839000Y-57809000D03*
X174839000Y-56539000D03*
X174839000Y-55269000D03*
X174839000Y-53999000D03*
X174839000Y-52729000D03*
X174839000Y-51459000D03*
X174839000Y-50189000D03*
X174839000Y-48919000D03*
D29*
X163189000Y-55939000D03*
X163189000Y-57339000D03*
X163889000Y-55239000D03*
X163889000Y-56639000D03*
X163889000Y-58039000D03*
X164589000Y-55939000D03*
D30*
X164589000Y-56639000D03*
D29*
X164589000Y-57339000D03*
X165289000Y-55239000D03*
X165289000Y-56639000D03*
X165289000Y-58039000D03*
X165989000Y-55939000D03*
X165989000Y-57339000D03*
%TD*%
D31*
%TO.C,BATTIO1*%
X184531000Y-93345000D03*
D32*
X181991000Y-93345000D03*
X179451000Y-93345000D03*
%TD*%
D14*
%TO.C,R1*%
X145558000Y-90932000D03*
X147558000Y-90932000D03*
%TD*%
D15*
%TO.C,IMU_IO1*%
X211201000Y-57023000D03*
D16*
X211201000Y-54483000D03*
X211201000Y-51943000D03*
X211201000Y-49403000D03*
X211201000Y-46863000D03*
%TD*%
D14*
%TO.C,R4*%
X134255000Y-90551000D03*
X136255000Y-90551000D03*
%TD*%
D21*
%TO.C,R8*%
X133715000Y-69596000D03*
X131715000Y-69596000D03*
%TD*%
D17*
%TO.C,R9*%
X135255000Y-74152000D03*
X135255000Y-72152000D03*
%TD*%
D33*
%TO.C,U2*%
X136079000Y-76748000D03*
X136079000Y-77248000D03*
X136079000Y-77748000D03*
X136079000Y-78248000D03*
X136079000Y-78748000D03*
X136079000Y-79248000D03*
D34*
X136766500Y-79935500D03*
X137266500Y-79935500D03*
X137766500Y-79935500D03*
X138266500Y-79935500D03*
X138766500Y-79935500D03*
X139266500Y-79935500D03*
D33*
X139954000Y-79248000D03*
X139954000Y-78748000D03*
X139954000Y-78248000D03*
X139954000Y-77748000D03*
X139954000Y-77248000D03*
X139954000Y-76748000D03*
D34*
X139266500Y-76060500D03*
X138766500Y-76060500D03*
X138266500Y-76060500D03*
X137766500Y-76060500D03*
X137266500Y-76060500D03*
X136766500Y-76060500D03*
D35*
X138016500Y-77998000D03*
%TD*%
D19*
%TO.C,C2*%
X195812500Y-75057000D03*
X197887500Y-75057000D03*
%TD*%
D36*
%TO.C,U1*%
X196302000Y-54189000D03*
X196302000Y-53789000D03*
X196302000Y-53389000D03*
X196302000Y-52989000D03*
X196302000Y-52589000D03*
X196302000Y-52189000D03*
D37*
X195802000Y-51689000D03*
X195402000Y-51689000D03*
X195002000Y-51689000D03*
X194602000Y-51689000D03*
X194202000Y-51689000D03*
X193802000Y-51689000D03*
D36*
X193302000Y-52189000D03*
X193302000Y-52589000D03*
X193302000Y-52989000D03*
X193302000Y-53389000D03*
X193302000Y-53789000D03*
X193302000Y-54189000D03*
D37*
X193802000Y-54689000D03*
X194202000Y-54689000D03*
X194602000Y-54689000D03*
X195002000Y-54689000D03*
X195402000Y-54689000D03*
X195802000Y-54689000D03*
%TD*%
D12*
%TO.C,Q2*%
X139827000Y-69342000D03*
D13*
X141097000Y-69342000D03*
X142367000Y-69342000D03*
%TD*%
D19*
%TO.C,C6*%
X142091500Y-82169000D03*
X144166500Y-82169000D03*
%TD*%
D10*
%TO.C,C11*%
X194564000Y-47900500D03*
X194564000Y-45825500D03*
%TD*%
D19*
%TO.C,C5*%
X174095500Y-80391000D03*
X176170500Y-80391000D03*
%TD*%
D38*
%TO.C,J1*%
X127867000Y-87405000D03*
X127867000Y-93185000D03*
D39*
X129312000Y-87045000D03*
X129312000Y-87845000D03*
D40*
X129312000Y-89045000D03*
X129312000Y-90045000D03*
X129312000Y-90545000D03*
X129312000Y-91545000D03*
D39*
X129312000Y-92745000D03*
X129312000Y-93545000D03*
X129312000Y-93545000D03*
X129312000Y-92745000D03*
D40*
X129312000Y-92045000D03*
X129312000Y-91045000D03*
X129312000Y-89545000D03*
X129312000Y-88545000D03*
D39*
X129312000Y-87845000D03*
X129312000Y-87045000D03*
D41*
X128397000Y-85975000D03*
D42*
X124217000Y-85975000D03*
D41*
X128397000Y-94615000D03*
D42*
X124217000Y-94615000D03*
%TD*%
M02*
