%TF.GenerationSoftware,KiCad,Pcbnew,8.0.5*%
%TF.CreationDate,2024-10-29T11:33:28-05:00*%
%TF.ProjectId,golf_club_draft,676f6c66-5f63-46c7-9562-5f6472616674,rev?*%
%TF.SameCoordinates,Original*%
%TF.FileFunction,Copper,L2,Bot*%
%TF.FilePolarity,Positive*%
%FSLAX46Y46*%
G04 Gerber Fmt 4.6, Leading zero omitted, Abs format (unit mm)*
G04 Created by KiCad (PCBNEW 8.0.5) date 2024-10-29 11:33:28*
%MOMM*%
%LPD*%
G01*
G04 APERTURE LIST*
G04 Aperture macros list*
%AMRoundRect*
0 Rectangle with rounded corners*
0 $1 Rounding radius*
0 $2 $3 $4 $5 $6 $7 $8 $9 X,Y pos of 4 corners*
0 Add a 4 corners polygon primitive as box body*
4,1,4,$2,$3,$4,$5,$6,$7,$8,$9,$2,$3,0*
0 Add four circle primitives for the rounded corners*
1,1,$1+$1,$2,$3*
1,1,$1+$1,$4,$5*
1,1,$1+$1,$6,$7*
1,1,$1+$1,$8,$9*
0 Add four rect primitives between the rounded corners*
20,1,$1+$1,$2,$3,$4,$5,0*
20,1,$1+$1,$4,$5,$6,$7,0*
20,1,$1+$1,$6,$7,$8,$9,0*
20,1,$1+$1,$8,$9,$2,$3,0*%
G04 Aperture macros list end*
%TA.AperFunction,ComponentPad*%
%ADD10R,1.000000X1.000000*%
%TD*%
%TA.AperFunction,ComponentPad*%
%ADD11O,1.000000X1.000000*%
%TD*%
%TA.AperFunction,ComponentPad*%
%ADD12RoundRect,0.250000X-0.845000X0.620000X-0.845000X-0.620000X0.845000X-0.620000X0.845000X0.620000X0*%
%TD*%
%TA.AperFunction,ComponentPad*%
%ADD13O,2.190000X1.740000*%
%TD*%
%TA.AperFunction,HeatsinkPad*%
%ADD14C,0.600000*%
%TD*%
%TA.AperFunction,ComponentPad*%
%ADD15RoundRect,0.250000X0.845000X-0.620000X0.845000X0.620000X-0.845000X0.620000X-0.845000X-0.620000X0*%
%TD*%
%TA.AperFunction,ComponentPad*%
%ADD16RoundRect,0.250000X-0.620000X-0.845000X0.620000X-0.845000X0.620000X0.845000X-0.620000X0.845000X0*%
%TD*%
%TA.AperFunction,ComponentPad*%
%ADD17O,1.740000X2.190000*%
%TD*%
%TA.AperFunction,ComponentPad*%
%ADD18O,2.100000X1.000000*%
%TD*%
%TA.AperFunction,ComponentPad*%
%ADD19O,1.600000X1.000000*%
%TD*%
%TA.AperFunction,ViaPad*%
%ADD20C,0.600000*%
%TD*%
%TA.AperFunction,Conductor*%
%ADD21C,0.762000*%
%TD*%
%TA.AperFunction,Conductor*%
%ADD22C,0.508000*%
%TD*%
%TA.AperFunction,Conductor*%
%ADD23C,0.254000*%
%TD*%
G04 APERTURE END LIST*
D10*
%TO.P,Q1,1,C*%
%TO.N,/VBATT*%
X124866400Y-50139600D03*
D11*
%TO.P,Q1,2,B*%
%TO.N,Net-(BATTCHARGER1-DRIVE)*%
X123596400Y-50139600D03*
%TO.P,Q1,3,E*%
%TO.N,Net-(BATTCHARGER1-SENSE)*%
X122326400Y-50139600D03*
%TD*%
D12*
%TO.P,FSR_V1,1,Pin_1*%
%TO.N,/3V3*%
X45974000Y-60350400D03*
D13*
%TO.P,FSR_V1,2,Pin_2*%
X45974000Y-62890400D03*
%TO.P,FSR_V1,3,Pin_3*%
X45974000Y-65430400D03*
%TO.P,FSR_V1,4,Pin_4*%
X45974000Y-67970400D03*
%TD*%
D10*
%TO.P,Q3,1,C*%
%TO.N,Net-(Q3-C)*%
X94564600Y-49027000D03*
D11*
%TO.P,Q3,2,B*%
%TO.N,Net-(Q3-B)*%
X94564600Y-47757000D03*
%TO.P,Q3,3,E*%
%TO.N,/DTR*%
X94564600Y-46487000D03*
%TD*%
D12*
%TO.P,FSR_IO1,1,Pin_1*%
%TO.N,/FSR1*%
X45974000Y-33223200D03*
D13*
%TO.P,FSR_IO1,2,Pin_2*%
%TO.N,/FSR2*%
X45974000Y-35763200D03*
%TO.P,FSR_IO1,3,Pin_3*%
%TO.N,/FSR3*%
X45974000Y-38303200D03*
%TO.P,FSR_IO1,4,Pin_4*%
%TO.N,/FSR4*%
X45974000Y-40843200D03*
%TD*%
D14*
%TO.P,U3,41,GND*%
%TO.N,GND*%
X74252800Y-39532000D03*
X74252800Y-40932000D03*
X74952800Y-38832000D03*
X74952800Y-40232000D03*
X74952800Y-41632000D03*
X75652800Y-39532000D03*
X75652800Y-40932000D03*
X76352800Y-38832000D03*
X76352800Y-40232000D03*
X76352800Y-41632000D03*
X77052800Y-39532000D03*
X77052800Y-40932000D03*
%TD*%
D15*
%TO.P,BATTIO1,1,Pin_1*%
%TO.N,unconnected-(BATTIO1-Pin_1-Pad1)*%
X137515600Y-68376800D03*
D13*
%TO.P,BATTIO1,2,Pin_2*%
%TO.N,/VBATT*%
X137515600Y-65836800D03*
%TO.P,BATTIO1,3,Pin_3*%
%TO.N,GND*%
X137515600Y-63296800D03*
%TD*%
D16*
%TO.P,IMU_IO1,1,Pin_1*%
%TO.N,/3V3*%
X72034400Y-61386400D03*
D17*
%TO.P,IMU_IO1,2,Pin_2*%
%TO.N,/SDA*%
X74574400Y-61386400D03*
%TO.P,IMU_IO1,3,Pin_3*%
%TO.N,/SCL*%
X77114400Y-61386400D03*
%TO.P,IMU_IO1,4,Pin_4*%
%TO.N,GND*%
X79654400Y-61386400D03*
%TO.P,IMU_IO1,5,Pin_5*%
%TO.N,/1V8*%
X82194400Y-61386400D03*
%TD*%
D18*
%TO.P,J1,S1,SHIELD*%
%TO.N,GND*%
X133691200Y-46278800D03*
D19*
X137871200Y-46278800D03*
D18*
X133691200Y-37638800D03*
D19*
X137871200Y-37638800D03*
%TD*%
D10*
%TO.P,Q2,1,C*%
%TO.N,Net-(Q2-C)*%
X102819200Y-50698400D03*
D11*
%TO.P,Q2,2,B*%
%TO.N,Net-(Q2-B)*%
X102819200Y-49428400D03*
%TO.P,Q2,3,E*%
%TO.N,/RTS*%
X102819200Y-48158400D03*
%TD*%
D20*
%TO.N,GND*%
X102920800Y-66344800D03*
X113284000Y-68173600D03*
X113340978Y-51233503D03*
X113385600Y-58978800D03*
X116941600Y-36779200D03*
X122783600Y-36220400D03*
X78790800Y-55321200D03*
X57302400Y-39166800D03*
X116789200Y-42976800D03*
X73202800Y-55219600D03*
X59436000Y-32308800D03*
X88341200Y-58877200D03*
X124714000Y-38404800D03*
X51257200Y-45212000D03*
X124714000Y-34239200D03*
X130911600Y-37439600D03*
X125476000Y-42976800D03*
X113639600Y-41757600D03*
X55930800Y-35915600D03*
%TO.N,Net-(BATTCHARGER1-SENSE)*%
X126034800Y-46380400D03*
X122377200Y-47548800D03*
%TO.N,/FSR2*%
X58115200Y-37592000D03*
X65684400Y-37592000D03*
%TO.N,/FSR1*%
X65684400Y-36322000D03*
X58166000Y-36322000D03*
%TO.N,/FSR4*%
X57962800Y-42011600D03*
X65532000Y-42011600D03*
%TO.N,/FSR3*%
X65532000Y-40690800D03*
X57962800Y-40690800D03*
%TO.N,/D-*%
X109016800Y-38811200D03*
X125882400Y-40843200D03*
%TO.N,/D+*%
X108402221Y-39323349D03*
X125222000Y-41656000D03*
%TO.N,/DTR*%
X103581200Y-45161200D03*
X96824800Y-46482000D03*
%TO.N,/RXD*%
X88392000Y-37592000D03*
X103479600Y-42265600D03*
%TO.N,/TXD*%
X104546400Y-42214800D03*
X88442800Y-36322000D03*
%TO.N,Net-(Q2-C)*%
X63906400Y-48564800D03*
X99594556Y-50647600D03*
%TD*%
D21*
%TO.N,GND*%
X113340978Y-58934178D02*
X113385600Y-58978800D01*
X113340978Y-51233503D02*
X113340978Y-58934178D01*
X113284000Y-59080400D02*
X113385600Y-58978800D01*
X113284000Y-68173600D02*
X113284000Y-59080400D01*
X106019600Y-66344800D02*
X113385600Y-58978800D01*
X102920800Y-66344800D02*
X106019600Y-66344800D01*
D22*
X122783600Y-36169600D02*
X124714000Y-34239200D01*
X122783600Y-36220400D02*
X122783600Y-36169600D01*
X124714000Y-34239200D02*
X124714000Y-38404800D01*
X122224800Y-36779200D02*
X122783600Y-36220400D01*
X116941600Y-36779200D02*
X122224800Y-36779200D01*
D21*
X78689200Y-55219600D02*
X78790800Y-55321200D01*
D22*
X59436000Y-32308800D02*
X57302400Y-34442400D01*
X55930800Y-35915600D02*
X55930800Y-35814000D01*
D23*
X115570000Y-41757600D02*
X116789200Y-42976800D01*
D22*
X51257200Y-45212000D02*
X57302400Y-39166800D01*
D23*
X125476000Y-42976800D02*
X125476000Y-42875200D01*
D21*
X78790800Y-55321200D02*
X82346800Y-58877200D01*
D22*
X55930800Y-35814000D02*
X57302400Y-34442400D01*
D21*
X73202800Y-55219600D02*
X78689200Y-55219600D01*
D22*
X57302400Y-34442400D02*
X57302400Y-39166800D01*
D23*
X125476000Y-42875200D02*
X130911600Y-37439600D01*
X113639600Y-41757600D02*
X115570000Y-41757600D01*
D21*
X82346800Y-58877200D02*
X88341200Y-58877200D01*
D23*
%TO.N,Net-(BATTCHARGER1-SENSE)*%
X126034800Y-46380400D02*
X124866400Y-47548800D01*
X124866400Y-47548800D02*
X122377200Y-47548800D01*
D22*
%TO.N,/FSR2*%
X58115200Y-37592000D02*
X65684400Y-37592000D01*
%TO.N,/FSR1*%
X58166000Y-36322000D02*
X65684400Y-36322000D01*
%TO.N,/FSR4*%
X57962800Y-42011600D02*
X65532000Y-42011600D01*
%TO.N,/FSR3*%
X57962800Y-40690800D02*
X65532000Y-40690800D01*
D23*
%TO.N,/D-*%
X109601000Y-39395400D02*
X124434600Y-39395400D01*
X109016800Y-38811200D02*
X109601000Y-39395400D01*
X124434600Y-39395400D02*
X125882400Y-40843200D01*
%TO.N,/D+*%
X123799600Y-40233600D02*
X125222000Y-41656000D01*
X109312472Y-40233600D02*
X123799600Y-40233600D01*
X108402221Y-39323349D02*
X109312472Y-40233600D01*
%TO.N,/DTR*%
X103581200Y-45161200D02*
X102260400Y-46482000D01*
X102260400Y-46482000D02*
X96824800Y-46482000D01*
%TO.N,/RXD*%
X93065600Y-42265600D02*
X88392000Y-37592000D01*
X103479600Y-42265600D02*
X93065600Y-42265600D01*
%TO.N,/TXD*%
X98653600Y-36322000D02*
X88442800Y-36322000D01*
X104546400Y-42214800D02*
X98653600Y-36322000D01*
%TO.N,Net-(Q2-C)*%
X65989200Y-50647600D02*
X63906400Y-48564800D01*
X99594556Y-50647600D02*
X65989200Y-50647600D01*
%TD*%
%TA.AperFunction,Conductor*%
%TO.N,GND*%
G36*
X140666539Y-31515685D02*
G01*
X140712294Y-31568489D01*
X140723500Y-31620000D01*
X140723500Y-69631900D01*
X140703815Y-69698939D01*
X140651011Y-69744694D01*
X140599500Y-69755900D01*
X138962230Y-69755900D01*
X138895191Y-69736215D01*
X138849436Y-69683411D01*
X138839492Y-69614253D01*
X138868517Y-69550697D01*
X138874549Y-69544219D01*
X138953312Y-69465456D01*
X139045414Y-69316134D01*
X139100599Y-69149597D01*
X139111100Y-69046809D01*
X139111099Y-67706792D01*
X139100599Y-67604003D01*
X139045414Y-67437466D01*
X138953312Y-67288144D01*
X138829256Y-67164088D01*
X138679934Y-67071986D01*
X138679926Y-67071981D01*
X138679245Y-67071664D01*
X138678856Y-67071321D01*
X138673787Y-67068195D01*
X138674321Y-67067328D01*
X138626808Y-67025488D01*
X138607660Y-66958294D01*
X138627880Y-66891414D01*
X138643966Y-66871613D01*
X138785959Y-66729621D01*
X138912757Y-66555099D01*
X139010692Y-66362889D01*
X139077354Y-66157726D01*
X139092352Y-66063030D01*
X139111100Y-65944666D01*
X139111100Y-65728933D01*
X139088602Y-65586895D01*
X139077354Y-65515874D01*
X139010692Y-65310711D01*
X138912757Y-65118501D01*
X138785959Y-64943979D01*
X138633421Y-64791441D01*
X138461879Y-64666808D01*
X138419214Y-64611478D01*
X138413235Y-64541864D01*
X138445841Y-64480069D01*
X138461880Y-64466172D01*
X138633091Y-64341779D01*
X138633097Y-64341774D01*
X138785574Y-64189297D01*
X138785574Y-64189296D01*
X138912328Y-64014836D01*
X139010227Y-63822701D01*
X139076866Y-63617609D01*
X139088081Y-63546800D01*
X138058309Y-63546800D01*
X138070052Y-63526461D01*
X138110600Y-63375133D01*
X138110600Y-63218467D01*
X138070052Y-63067139D01*
X138058309Y-63046800D01*
X139088081Y-63046800D01*
X139076866Y-62975990D01*
X139010227Y-62770898D01*
X138912328Y-62578763D01*
X138785574Y-62404303D01*
X138785574Y-62404302D01*
X138633097Y-62251825D01*
X138458636Y-62125071D01*
X138266501Y-62027172D01*
X138061409Y-61960534D01*
X137848420Y-61926800D01*
X137765600Y-61926800D01*
X137765600Y-62754090D01*
X137745261Y-62742348D01*
X137593933Y-62701800D01*
X137437267Y-62701800D01*
X137285939Y-62742348D01*
X137265600Y-62754090D01*
X137265600Y-61926800D01*
X137182780Y-61926800D01*
X136969790Y-61960534D01*
X136764698Y-62027172D01*
X136572563Y-62125071D01*
X136398103Y-62251825D01*
X136398102Y-62251825D01*
X136245625Y-62404302D01*
X136245625Y-62404303D01*
X136118871Y-62578763D01*
X136020972Y-62770898D01*
X135954333Y-62975990D01*
X135943119Y-63046800D01*
X136972891Y-63046800D01*
X136961148Y-63067139D01*
X136920600Y-63218467D01*
X136920600Y-63375133D01*
X136961148Y-63526461D01*
X136972891Y-63546800D01*
X135943119Y-63546800D01*
X135954333Y-63617609D01*
X136020972Y-63822701D01*
X136118871Y-64014836D01*
X136245625Y-64189296D01*
X136245625Y-64189297D01*
X136398102Y-64341774D01*
X136569320Y-64466172D01*
X136611985Y-64521502D01*
X136617964Y-64591116D01*
X136585358Y-64652910D01*
X136569320Y-64666808D01*
X136397777Y-64791442D01*
X136245243Y-64943976D01*
X136245243Y-64943977D01*
X136245241Y-64943979D01*
X136190786Y-65018929D01*
X136118443Y-65118500D01*
X136020509Y-65310708D01*
X135953845Y-65515877D01*
X135920100Y-65728933D01*
X135920100Y-65944666D01*
X135952416Y-66148699D01*
X135953846Y-66157726D01*
X136020508Y-66362889D01*
X136118443Y-66555099D01*
X136245241Y-66729621D01*
X136245243Y-66729623D01*
X136387224Y-66871604D01*
X136420709Y-66932927D01*
X136415725Y-67002619D01*
X136373853Y-67058552D01*
X136351960Y-67071661D01*
X136351277Y-67071979D01*
X136201942Y-67164089D01*
X136077889Y-67288142D01*
X135985787Y-67437463D01*
X135985785Y-67437468D01*
X135957949Y-67521470D01*
X135930601Y-67604003D01*
X135930601Y-67604004D01*
X135930600Y-67604004D01*
X135920100Y-67706783D01*
X135920100Y-69046801D01*
X135920101Y-69046818D01*
X135930600Y-69149596D01*
X135930601Y-69149599D01*
X135985785Y-69316131D01*
X135985787Y-69316136D01*
X136077889Y-69465457D01*
X136156651Y-69544219D01*
X136190136Y-69605542D01*
X136185152Y-69675234D01*
X136143280Y-69731167D01*
X136077816Y-69755584D01*
X136068970Y-69755900D01*
X42839300Y-69755900D01*
X42772261Y-69736215D01*
X42726506Y-69683411D01*
X42715300Y-69631900D01*
X42715300Y-59680383D01*
X44378500Y-59680383D01*
X44378500Y-61020401D01*
X44378501Y-61020418D01*
X44389000Y-61123196D01*
X44389001Y-61123199D01*
X44444185Y-61289731D01*
X44444186Y-61289734D01*
X44536288Y-61439056D01*
X44660344Y-61563112D01*
X44809666Y-61655214D01*
X44809668Y-61655214D01*
X44809669Y-61655215D01*
X44810348Y-61655532D01*
X44810735Y-61655873D01*
X44815813Y-61659005D01*
X44815277Y-61659872D01*
X44862787Y-61701704D01*
X44881939Y-61768898D01*
X44861723Y-61835779D01*
X44845625Y-61855595D01*
X44703640Y-61997580D01*
X44576843Y-62172100D01*
X44478909Y-62364308D01*
X44412245Y-62569477D01*
X44378500Y-62782533D01*
X44378500Y-62998266D01*
X44412245Y-63211322D01*
X44412246Y-63211326D01*
X44478908Y-63416489D01*
X44576843Y-63608699D01*
X44703641Y-63783221D01*
X44856179Y-63935759D01*
X44965019Y-64014836D01*
X45027294Y-64060082D01*
X45069959Y-64115412D01*
X45075938Y-64185026D01*
X45043332Y-64246821D01*
X45027294Y-64260718D01*
X44856179Y-64385041D01*
X44856177Y-64385043D01*
X44856176Y-64385043D01*
X44703643Y-64537576D01*
X44703643Y-64537577D01*
X44703641Y-64537579D01*
X44664744Y-64591116D01*
X44576843Y-64712100D01*
X44478909Y-64904308D01*
X44412245Y-65109477D01*
X44378500Y-65322533D01*
X44378500Y-65538266D01*
X44408699Y-65728933D01*
X44412246Y-65751326D01*
X44478908Y-65956489D01*
X44576843Y-66148699D01*
X44703641Y-66323221D01*
X44856179Y-66475759D01*
X44965381Y-66555099D01*
X45027294Y-66600082D01*
X45069959Y-66655412D01*
X45075938Y-66725026D01*
X45043332Y-66786821D01*
X45027294Y-66800718D01*
X44856179Y-66925041D01*
X44856177Y-66925043D01*
X44856176Y-66925043D01*
X44703643Y-67077576D01*
X44703643Y-67077577D01*
X44703641Y-67077579D01*
X44649186Y-67152529D01*
X44576843Y-67252100D01*
X44478909Y-67444308D01*
X44412245Y-67649477D01*
X44378500Y-67862533D01*
X44378500Y-68078266D01*
X44412245Y-68291322D01*
X44412246Y-68291326D01*
X44478908Y-68496489D01*
X44576843Y-68688699D01*
X44703641Y-68863221D01*
X44856179Y-69015759D01*
X45030701Y-69142557D01*
X45222911Y-69240492D01*
X45428074Y-69307154D01*
X45507973Y-69319808D01*
X45641134Y-69340900D01*
X45641139Y-69340900D01*
X46306866Y-69340900D01*
X46425230Y-69322152D01*
X46519926Y-69307154D01*
X46725089Y-69240492D01*
X46917299Y-69142557D01*
X47091821Y-69015759D01*
X47244359Y-68863221D01*
X47371157Y-68688699D01*
X47469092Y-68496489D01*
X47535754Y-68291326D01*
X47550752Y-68196630D01*
X47569500Y-68078266D01*
X47569500Y-67862533D01*
X47535754Y-67649477D01*
X47535754Y-67649474D01*
X47469092Y-67444311D01*
X47371157Y-67252101D01*
X47244359Y-67077579D01*
X47091821Y-66925041D01*
X46920704Y-66800717D01*
X46878040Y-66745388D01*
X46872061Y-66675774D01*
X46904667Y-66613980D01*
X46920702Y-66600084D01*
X47091821Y-66475759D01*
X47244359Y-66323221D01*
X47371157Y-66148699D01*
X47469092Y-65956489D01*
X47535754Y-65751326D01*
X47550752Y-65656630D01*
X47569500Y-65538266D01*
X47569500Y-65322533D01*
X47547002Y-65180495D01*
X47535754Y-65109474D01*
X47469092Y-64904311D01*
X47371157Y-64712101D01*
X47244359Y-64537579D01*
X47091821Y-64385041D01*
X46920704Y-64260717D01*
X46878040Y-64205388D01*
X46872061Y-64135774D01*
X46904667Y-64073980D01*
X46920702Y-64060084D01*
X47091821Y-63935759D01*
X47244359Y-63783221D01*
X47371157Y-63608699D01*
X47469092Y-63416489D01*
X47535754Y-63211326D01*
X47558591Y-63067139D01*
X47569500Y-62998266D01*
X47569500Y-62782533D01*
X47535754Y-62569477D01*
X47535754Y-62569474D01*
X47469092Y-62364311D01*
X47371157Y-62172101D01*
X47244359Y-61997579D01*
X47102375Y-61855595D01*
X47068890Y-61794272D01*
X47073874Y-61724580D01*
X47115746Y-61668647D01*
X47137657Y-61655529D01*
X47138322Y-61655217D01*
X47138334Y-61655214D01*
X47287656Y-61563112D01*
X47411712Y-61439056D01*
X47503814Y-61289734D01*
X47558999Y-61123197D01*
X47569500Y-61020409D01*
X47569500Y-60491383D01*
X70663900Y-60491383D01*
X70663900Y-62281401D01*
X70663901Y-62281418D01*
X70674400Y-62384196D01*
X70674401Y-62384199D01*
X70711984Y-62497616D01*
X70729586Y-62550734D01*
X70821688Y-62700056D01*
X70945744Y-62824112D01*
X71095066Y-62916214D01*
X71261603Y-62971399D01*
X71364391Y-62981900D01*
X72704408Y-62981899D01*
X72807197Y-62971399D01*
X72973734Y-62916214D01*
X73123056Y-62824112D01*
X73247112Y-62700056D01*
X73339214Y-62550734D01*
X73339217Y-62550722D01*
X73339529Y-62550057D01*
X73339869Y-62549669D01*
X73343005Y-62544587D01*
X73343873Y-62545122D01*
X73385699Y-62497616D01*
X73452891Y-62478460D01*
X73519773Y-62498672D01*
X73539595Y-62514775D01*
X73681579Y-62656759D01*
X73856101Y-62783557D01*
X74048311Y-62881492D01*
X74253474Y-62948154D01*
X74321196Y-62958880D01*
X74466534Y-62981900D01*
X74466539Y-62981900D01*
X74682266Y-62981900D01*
X74800630Y-62963152D01*
X74895326Y-62948154D01*
X75100489Y-62881492D01*
X75292699Y-62783557D01*
X75467221Y-62656759D01*
X75619759Y-62504221D01*
X75744082Y-62333104D01*
X75799412Y-62290440D01*
X75869026Y-62284461D01*
X75930820Y-62317067D01*
X75944715Y-62333102D01*
X76069041Y-62504221D01*
X76221579Y-62656759D01*
X76396101Y-62783557D01*
X76588311Y-62881492D01*
X76793474Y-62948154D01*
X76861196Y-62958880D01*
X77006534Y-62981900D01*
X77006539Y-62981900D01*
X77222266Y-62981900D01*
X77340630Y-62963152D01*
X77435326Y-62948154D01*
X77640489Y-62881492D01*
X77832699Y-62783557D01*
X78007221Y-62656759D01*
X78159759Y-62504221D01*
X78284391Y-62332679D01*
X78339721Y-62290014D01*
X78409334Y-62284035D01*
X78471129Y-62316641D01*
X78485027Y-62332679D01*
X78609425Y-62503896D01*
X78609425Y-62503897D01*
X78761902Y-62656374D01*
X78936363Y-62783128D01*
X79128498Y-62881027D01*
X79333590Y-62947666D01*
X79404400Y-62958881D01*
X79404400Y-61929109D01*
X79424739Y-61940852D01*
X79576067Y-61981400D01*
X79732733Y-61981400D01*
X79884061Y-61940852D01*
X79904400Y-61929109D01*
X79904400Y-62958880D01*
X79975209Y-62947666D01*
X80180301Y-62881027D01*
X80372436Y-62783128D01*
X80546896Y-62656374D01*
X80546897Y-62656374D01*
X80699374Y-62503897D01*
X80699379Y-62503891D01*
X80823772Y-62332680D01*
X80879102Y-62290014D01*
X80948715Y-62284035D01*
X81010510Y-62316641D01*
X81024408Y-62332679D01*
X81149041Y-62504221D01*
X81301579Y-62656759D01*
X81476101Y-62783557D01*
X81668311Y-62881492D01*
X81873474Y-62948154D01*
X81941196Y-62958880D01*
X82086534Y-62981900D01*
X82086539Y-62981900D01*
X82302266Y-62981900D01*
X82420630Y-62963152D01*
X82515326Y-62948154D01*
X82720489Y-62881492D01*
X82912699Y-62783557D01*
X83087221Y-62656759D01*
X83239759Y-62504221D01*
X83366557Y-62329699D01*
X83464492Y-62137489D01*
X83531154Y-61932326D01*
X83546445Y-61835779D01*
X83564900Y-61719266D01*
X83564900Y-61053533D01*
X83531154Y-60840477D01*
X83531154Y-60840474D01*
X83464492Y-60635311D01*
X83366557Y-60443101D01*
X83239759Y-60268579D01*
X83087221Y-60116041D01*
X82912699Y-59989243D01*
X82720489Y-59891308D01*
X82515326Y-59824646D01*
X82515324Y-59824645D01*
X82515322Y-59824645D01*
X82302266Y-59790900D01*
X82302261Y-59790900D01*
X82086539Y-59790900D01*
X82086534Y-59790900D01*
X81873477Y-59824645D01*
X81668308Y-59891309D01*
X81476100Y-59989243D01*
X81376529Y-60061586D01*
X81301579Y-60116041D01*
X81301577Y-60116043D01*
X81301576Y-60116043D01*
X81149042Y-60268577D01*
X81024408Y-60440120D01*
X80969077Y-60482785D01*
X80899464Y-60488764D01*
X80837669Y-60456158D01*
X80823772Y-60440120D01*
X80699374Y-60268903D01*
X80699374Y-60268902D01*
X80546897Y-60116425D01*
X80372436Y-59989671D01*
X80180299Y-59891772D01*
X79975205Y-59825133D01*
X79904400Y-59813918D01*
X79904400Y-60843690D01*
X79884061Y-60831948D01*
X79732733Y-60791400D01*
X79576067Y-60791400D01*
X79424739Y-60831948D01*
X79404400Y-60843690D01*
X79404400Y-59813918D01*
X79404399Y-59813918D01*
X79333594Y-59825133D01*
X79128500Y-59891772D01*
X78936363Y-59989671D01*
X78761903Y-60116425D01*
X78761902Y-60116425D01*
X78609424Y-60268903D01*
X78485027Y-60440120D01*
X78429696Y-60482785D01*
X78360083Y-60488764D01*
X78298288Y-60456158D01*
X78284391Y-60440120D01*
X78159759Y-60268579D01*
X78007221Y-60116041D01*
X77832699Y-59989243D01*
X77640489Y-59891308D01*
X77435326Y-59824646D01*
X77435324Y-59824645D01*
X77435322Y-59824645D01*
X77222266Y-59790900D01*
X77222261Y-59790900D01*
X77006539Y-59790900D01*
X77006534Y-59790900D01*
X76793477Y-59824645D01*
X76588308Y-59891309D01*
X76396100Y-59989243D01*
X76296529Y-60061586D01*
X76221579Y-60116041D01*
X76221577Y-60116043D01*
X76221576Y-60116043D01*
X76069043Y-60268576D01*
X76069043Y-60268577D01*
X76069041Y-60268579D01*
X75992129Y-60374438D01*
X75944718Y-60439694D01*
X75889388Y-60482359D01*
X75819774Y-60488338D01*
X75757979Y-60455732D01*
X75744082Y-60439694D01*
X75721835Y-60409074D01*
X75619759Y-60268579D01*
X75467221Y-60116041D01*
X75292699Y-59989243D01*
X75100489Y-59891308D01*
X74895326Y-59824646D01*
X74895324Y-59824645D01*
X74895322Y-59824645D01*
X74682266Y-59790900D01*
X74682261Y-59790900D01*
X74466539Y-59790900D01*
X74466534Y-59790900D01*
X74253477Y-59824645D01*
X74048308Y-59891309D01*
X73856100Y-59989243D01*
X73681580Y-60116040D01*
X73539595Y-60258025D01*
X73478272Y-60291509D01*
X73408580Y-60286525D01*
X73352647Y-60244653D01*
X73339532Y-60222748D01*
X73339215Y-60222069D01*
X73339214Y-60222068D01*
X73339214Y-60222066D01*
X73247112Y-60072744D01*
X73123056Y-59948688D01*
X72973734Y-59856586D01*
X72807197Y-59801401D01*
X72807195Y-59801400D01*
X72704410Y-59790900D01*
X71364398Y-59790900D01*
X71364381Y-59790901D01*
X71261603Y-59801400D01*
X71261600Y-59801401D01*
X71095068Y-59856585D01*
X71095063Y-59856587D01*
X70945742Y-59948689D01*
X70821689Y-60072742D01*
X70729587Y-60222063D01*
X70729586Y-60222066D01*
X70674401Y-60388603D01*
X70674401Y-60388604D01*
X70674400Y-60388604D01*
X70663900Y-60491383D01*
X47569500Y-60491383D01*
X47569499Y-59680392D01*
X47558999Y-59577603D01*
X47503814Y-59411066D01*
X47411712Y-59261744D01*
X47287656Y-59137688D01*
X47138334Y-59045586D01*
X46971797Y-58990401D01*
X46971795Y-58990400D01*
X46869010Y-58979900D01*
X45078998Y-58979900D01*
X45078981Y-58979901D01*
X44976203Y-58990400D01*
X44976200Y-58990401D01*
X44809668Y-59045585D01*
X44809663Y-59045587D01*
X44660342Y-59137689D01*
X44536289Y-59261742D01*
X44444187Y-59411063D01*
X44444186Y-59411066D01*
X44389001Y-59577603D01*
X44389001Y-59577604D01*
X44389000Y-59577604D01*
X44378500Y-59680383D01*
X42715300Y-59680383D01*
X42715300Y-50678711D01*
X51845100Y-50678711D01*
X51845100Y-50921288D01*
X51875191Y-51149862D01*
X51876762Y-51161789D01*
X51891700Y-51217537D01*
X51939547Y-51396104D01*
X52032373Y-51620205D01*
X52032376Y-51620212D01*
X52153664Y-51830289D01*
X52153666Y-51830292D01*
X52153667Y-51830293D01*
X52301333Y-52022736D01*
X52301339Y-52022743D01*
X52472856Y-52194260D01*
X52472862Y-52194265D01*
X52665311Y-52341936D01*
X52875388Y-52463224D01*
X53099500Y-52556054D01*
X53333811Y-52618838D01*
X53514186Y-52642584D01*
X53574311Y-52650500D01*
X53574312Y-52650500D01*
X53816889Y-52650500D01*
X53864988Y-52644167D01*
X54057389Y-52618838D01*
X54291700Y-52556054D01*
X54515812Y-52463224D01*
X54725889Y-52341936D01*
X54918338Y-52194265D01*
X55089865Y-52022738D01*
X55237536Y-51830289D01*
X55358824Y-51620212D01*
X55451654Y-51396100D01*
X55514438Y-51161789D01*
X55546100Y-50921288D01*
X55546100Y-50678712D01*
X55542004Y-50647603D01*
X55525775Y-50524327D01*
X55514438Y-50438211D01*
X55451654Y-50203900D01*
X55358824Y-49979788D01*
X55237536Y-49769711D01*
X55133771Y-49634482D01*
X55089866Y-49577263D01*
X55089860Y-49577256D01*
X54918343Y-49405739D01*
X54918336Y-49405733D01*
X54725893Y-49258067D01*
X54725892Y-49258066D01*
X54725889Y-49258064D01*
X54554261Y-49158974D01*
X54515814Y-49136777D01*
X54515805Y-49136773D01*
X54291704Y-49043947D01*
X54057385Y-48981161D01*
X53816889Y-48949500D01*
X53816888Y-48949500D01*
X53574312Y-48949500D01*
X53574311Y-48949500D01*
X53333814Y-48981161D01*
X53099495Y-49043947D01*
X52875394Y-49136773D01*
X52875385Y-49136777D01*
X52665306Y-49258067D01*
X52472863Y-49405733D01*
X52472856Y-49405739D01*
X52301339Y-49577256D01*
X52301333Y-49577263D01*
X52153667Y-49769706D01*
X52032377Y-49979785D01*
X52032373Y-49979794D01*
X51939547Y-50203895D01*
X51876761Y-50438214D01*
X51845100Y-50678711D01*
X42715300Y-50678711D01*
X42715300Y-48564796D01*
X63100835Y-48564796D01*
X63100835Y-48564803D01*
X63121030Y-48744049D01*
X63121031Y-48744054D01*
X63180611Y-48914323D01*
X63222609Y-48981162D01*
X63276584Y-49067062D01*
X63404138Y-49194616D01*
X63429874Y-49210787D01*
X63543294Y-49282054D01*
X63556878Y-49290589D01*
X63727145Y-49350168D01*
X63771035Y-49355113D01*
X63835448Y-49382178D01*
X63844833Y-49390652D01*
X65501789Y-51047608D01*
X65579805Y-51125624D01*
X65589194Y-51135013D01*
X65589196Y-51135014D01*
X65604053Y-51144941D01*
X65691967Y-51203683D01*
X65725415Y-51217537D01*
X65806165Y-51250986D01*
X65927392Y-51275099D01*
X65927396Y-51275100D01*
X65927397Y-51275100D01*
X99052884Y-51275100D01*
X99118855Y-51294105D01*
X99245034Y-51373389D01*
X99309950Y-51396104D01*
X99415301Y-51432968D01*
X99415306Y-51432969D01*
X99594552Y-51453165D01*
X99594556Y-51453165D01*
X99594560Y-51453165D01*
X99773805Y-51432969D01*
X99773808Y-51432968D01*
X99773811Y-51432968D01*
X99944078Y-51373389D01*
X100096818Y-51277416D01*
X100224372Y-51149862D01*
X100320345Y-50997122D01*
X100379924Y-50826855D01*
X100388912Y-50747083D01*
X100400121Y-50647603D01*
X100400121Y-50647596D01*
X100379925Y-50468350D01*
X100379924Y-50468345D01*
X100369380Y-50438211D01*
X100320345Y-50298078D01*
X100224372Y-50145338D01*
X100096818Y-50017784D01*
X100070256Y-50001094D01*
X99944079Y-49921811D01*
X99773810Y-49862231D01*
X99773805Y-49862230D01*
X99594560Y-49842035D01*
X99594552Y-49842035D01*
X99415306Y-49862230D01*
X99415301Y-49862231D01*
X99245032Y-49921811D01*
X99118856Y-50001094D01*
X99052884Y-50020100D01*
X95568393Y-50020100D01*
X95501354Y-50000415D01*
X95455599Y-49947611D01*
X95445655Y-49878453D01*
X95469126Y-49821789D01*
X95475610Y-49813127D01*
X95508396Y-49769331D01*
X95558691Y-49634483D01*
X95565100Y-49574873D01*
X95565099Y-48479128D01*
X95558691Y-48419517D01*
X95546020Y-48385545D01*
X95508397Y-48284672D01*
X95508396Y-48284669D01*
X95502367Y-48276615D01*
X95477951Y-48211154D01*
X95491495Y-48147525D01*
X95491083Y-48147355D01*
X95492006Y-48145124D01*
X95492277Y-48143853D01*
X95493414Y-48141727D01*
X95550624Y-47953132D01*
X95569941Y-47757000D01*
X95550624Y-47560868D01*
X95493414Y-47372273D01*
X95400510Y-47198462D01*
X95400507Y-47198458D01*
X95397123Y-47193393D01*
X95398764Y-47192296D01*
X95375005Y-47136361D01*
X95386794Y-47067493D01*
X95397488Y-47050851D01*
X95397123Y-47050607D01*
X95400504Y-47045544D01*
X95400510Y-47045538D01*
X95493414Y-46871727D01*
X95550624Y-46683132D01*
X95569941Y-46487000D01*
X95569448Y-46481996D01*
X96019235Y-46481996D01*
X96019235Y-46482003D01*
X96039430Y-46661249D01*
X96039431Y-46661254D01*
X96099011Y-46831523D01*
X96153967Y-46918984D01*
X96194984Y-46984262D01*
X96322538Y-47111816D01*
X96338746Y-47122000D01*
X96472831Y-47206252D01*
X96475278Y-47207789D01*
X96568395Y-47240372D01*
X96645545Y-47267368D01*
X96645550Y-47267369D01*
X96824796Y-47287565D01*
X96824800Y-47287565D01*
X96824804Y-47287565D01*
X97004049Y-47267369D01*
X97004052Y-47267368D01*
X97004055Y-47267368D01*
X97174322Y-47207789D01*
X97300500Y-47128505D01*
X97366472Y-47109500D01*
X102173634Y-47109500D01*
X102240673Y-47129185D01*
X102286428Y-47181989D01*
X102296372Y-47251147D01*
X102267347Y-47314703D01*
X102252299Y-47329353D01*
X102108316Y-47447516D01*
X101983290Y-47599860D01*
X101983286Y-47599867D01*
X101890388Y-47773666D01*
X101833175Y-47962270D01*
X101813859Y-48158400D01*
X101833175Y-48354529D01*
X101833176Y-48354532D01*
X101870970Y-48479123D01*
X101890388Y-48543133D01*
X101983286Y-48716932D01*
X101986673Y-48722001D01*
X101985036Y-48723094D01*
X102008796Y-48779063D01*
X101996995Y-48847929D01*
X101986309Y-48864556D01*
X101986673Y-48864799D01*
X101983286Y-48869867D01*
X101890388Y-49043666D01*
X101833175Y-49232270D01*
X101813859Y-49428400D01*
X101833175Y-49624529D01*
X101833176Y-49624532D01*
X101877214Y-49769706D01*
X101890387Y-49813129D01*
X101891521Y-49815250D01*
X101891780Y-49816494D01*
X101892718Y-49818759D01*
X101892288Y-49818936D01*
X101905764Y-49883653D01*
X101881433Y-49948014D01*
X101875405Y-49956066D01*
X101875402Y-49956071D01*
X101825108Y-50090917D01*
X101819258Y-50145337D01*
X101818701Y-50150523D01*
X101818700Y-50150535D01*
X101818700Y-51246270D01*
X101818701Y-51246276D01*
X101825108Y-51305883D01*
X101875402Y-51440728D01*
X101875406Y-51440735D01*
X101961652Y-51555944D01*
X101961655Y-51555947D01*
X102076864Y-51642193D01*
X102076871Y-51642197D01*
X102211717Y-51692491D01*
X102211716Y-51692491D01*
X102218644Y-51693235D01*
X102271327Y-51698900D01*
X103367072Y-51698899D01*
X103426683Y-51692491D01*
X103561531Y-51642196D01*
X103676746Y-51555946D01*
X103762996Y-51440731D01*
X103813291Y-51305883D01*
X103819700Y-51246273D01*
X103819699Y-50150528D01*
X103818524Y-50139600D01*
X121321059Y-50139600D01*
X121340375Y-50335729D01*
X121340376Y-50335732D01*
X121380605Y-50468350D01*
X121397588Y-50524333D01*
X121490486Y-50698132D01*
X121490490Y-50698139D01*
X121615516Y-50850483D01*
X121767860Y-50975509D01*
X121767867Y-50975513D01*
X121941666Y-51068411D01*
X121941669Y-51068411D01*
X121941673Y-51068414D01*
X122130268Y-51125624D01*
X122326400Y-51144941D01*
X122522532Y-51125624D01*
X122711127Y-51068414D01*
X122884938Y-50975510D01*
X122884944Y-50975504D01*
X122890007Y-50972123D01*
X122891103Y-50973764D01*
X122947039Y-50950005D01*
X123015907Y-50961794D01*
X123032548Y-50972488D01*
X123032793Y-50972123D01*
X123037858Y-50975507D01*
X123037862Y-50975510D01*
X123172748Y-51047608D01*
X123209547Y-51067278D01*
X123211673Y-51068414D01*
X123400268Y-51125624D01*
X123596400Y-51144941D01*
X123792532Y-51125624D01*
X123981127Y-51068414D01*
X123983253Y-51067277D01*
X123984495Y-51067018D01*
X123986755Y-51066083D01*
X123986932Y-51066511D01*
X124051654Y-51053035D01*
X124116015Y-51077367D01*
X124124069Y-51083396D01*
X124124072Y-51083397D01*
X124258917Y-51133691D01*
X124258916Y-51133691D01*
X124265844Y-51134435D01*
X124318527Y-51140100D01*
X125414272Y-51140099D01*
X125473883Y-51133691D01*
X125608731Y-51083396D01*
X125723946Y-50997146D01*
X125810196Y-50881931D01*
X125860491Y-50747083D01*
X125866900Y-50687473D01*
X125866900Y-50678711D01*
X128045100Y-50678711D01*
X128045100Y-50921288D01*
X128075191Y-51149862D01*
X128076762Y-51161789D01*
X128091700Y-51217537D01*
X128139547Y-51396104D01*
X128232373Y-51620205D01*
X128232376Y-51620212D01*
X128353664Y-51830289D01*
X128353666Y-51830292D01*
X128353667Y-51830293D01*
X128501333Y-52022736D01*
X128501339Y-52022743D01*
X128672856Y-52194260D01*
X128672862Y-52194265D01*
X128865311Y-52341936D01*
X129075388Y-52463224D01*
X129299500Y-52556054D01*
X129533811Y-52618838D01*
X129714186Y-52642584D01*
X129774311Y-52650500D01*
X129774312Y-52650500D01*
X130016889Y-52650500D01*
X130064988Y-52644167D01*
X130257389Y-52618838D01*
X130491700Y-52556054D01*
X130715812Y-52463224D01*
X130925889Y-52341936D01*
X131118338Y-52194265D01*
X131289865Y-52022738D01*
X131437536Y-51830289D01*
X131558824Y-51620212D01*
X131651654Y-51396100D01*
X131714438Y-51161789D01*
X131746100Y-50921288D01*
X131746100Y-50678712D01*
X131742004Y-50647603D01*
X131725775Y-50524327D01*
X131714438Y-50438211D01*
X131651654Y-50203900D01*
X131558824Y-49979788D01*
X131437536Y-49769711D01*
X131333771Y-49634482D01*
X131289866Y-49577263D01*
X131289860Y-49577256D01*
X131118343Y-49405739D01*
X131118336Y-49405733D01*
X130925893Y-49258067D01*
X130925892Y-49258066D01*
X130925889Y-49258064D01*
X130754261Y-49158974D01*
X130715814Y-49136777D01*
X130715805Y-49136773D01*
X130491704Y-49043947D01*
X130257385Y-48981161D01*
X130016889Y-48949500D01*
X130016888Y-48949500D01*
X129774312Y-48949500D01*
X129774311Y-48949500D01*
X129533814Y-48981161D01*
X129299495Y-49043947D01*
X129075394Y-49136773D01*
X129075385Y-49136777D01*
X128865306Y-49258067D01*
X128672863Y-49405733D01*
X128672856Y-49405739D01*
X128501339Y-49577256D01*
X128501333Y-49577263D01*
X128353667Y-49769706D01*
X128232377Y-49979785D01*
X128232373Y-49979794D01*
X128139547Y-50203895D01*
X128076761Y-50438214D01*
X128045100Y-50678711D01*
X125866900Y-50678711D01*
X125866899Y-49591728D01*
X125860491Y-49532117D01*
X125821925Y-49428717D01*
X125810197Y-49397271D01*
X125810193Y-49397264D01*
X125723947Y-49282055D01*
X125723944Y-49282052D01*
X125608735Y-49195806D01*
X125608728Y-49195802D01*
X125473882Y-49145508D01*
X125473883Y-49145508D01*
X125414283Y-49139101D01*
X125414281Y-49139100D01*
X125414273Y-49139100D01*
X125414264Y-49139100D01*
X124318529Y-49139100D01*
X124318523Y-49139101D01*
X124258916Y-49145508D01*
X124124071Y-49195802D01*
X124124066Y-49195805D01*
X124116014Y-49201833D01*
X124050549Y-49226248D01*
X123986930Y-49212704D01*
X123986759Y-49213118D01*
X123984523Y-49212192D01*
X123983250Y-49211921D01*
X123981129Y-49210787D01*
X123981128Y-49210786D01*
X123981127Y-49210786D01*
X123792532Y-49153576D01*
X123792529Y-49153575D01*
X123596400Y-49134259D01*
X123400270Y-49153575D01*
X123211666Y-49210788D01*
X123037867Y-49303686D01*
X123032799Y-49307073D01*
X123031705Y-49305436D01*
X122975737Y-49329196D01*
X122906871Y-49317395D01*
X122890243Y-49306709D01*
X122890001Y-49307073D01*
X122884932Y-49303686D01*
X122711133Y-49210788D01*
X122711127Y-49210786D01*
X122522532Y-49153576D01*
X122522529Y-49153575D01*
X122326400Y-49134259D01*
X122130270Y-49153575D01*
X121941666Y-49210788D01*
X121767867Y-49303686D01*
X121767860Y-49303690D01*
X121615516Y-49428716D01*
X121490490Y-49581060D01*
X121490486Y-49581067D01*
X121397588Y-49754866D01*
X121340375Y-49943470D01*
X121321059Y-50139600D01*
X103818524Y-50139600D01*
X103813291Y-50090917D01*
X103762996Y-49956069D01*
X103756967Y-49948015D01*
X103732551Y-49882554D01*
X103746095Y-49818925D01*
X103745683Y-49818755D01*
X103746606Y-49816524D01*
X103746877Y-49815253D01*
X103748014Y-49813127D01*
X103805224Y-49624532D01*
X103824541Y-49428400D01*
X103805224Y-49232268D01*
X103748014Y-49043673D01*
X103655110Y-48869862D01*
X103655107Y-48869858D01*
X103651723Y-48864793D01*
X103653364Y-48863696D01*
X103629605Y-48807761D01*
X103641394Y-48738893D01*
X103652088Y-48722251D01*
X103651723Y-48722007D01*
X103655104Y-48716944D01*
X103655110Y-48716938D01*
X103748014Y-48543127D01*
X103805224Y-48354532D01*
X103824541Y-48158400D01*
X103805224Y-47962268D01*
X103748014Y-47773673D01*
X103748011Y-47773669D01*
X103748011Y-47773666D01*
X103655113Y-47599867D01*
X103655109Y-47599860D01*
X103613202Y-47548796D01*
X121571635Y-47548796D01*
X121571635Y-47548803D01*
X121591830Y-47728049D01*
X121591831Y-47728054D01*
X121651411Y-47898323D01*
X121685850Y-47953132D01*
X121747384Y-48051062D01*
X121874938Y-48178616D01*
X122027678Y-48274589D01*
X122056491Y-48284671D01*
X122197945Y-48334168D01*
X122197950Y-48334169D01*
X122377196Y-48354365D01*
X122377200Y-48354365D01*
X122377204Y-48354365D01*
X122556449Y-48334169D01*
X122556452Y-48334168D01*
X122556455Y-48334168D01*
X122726722Y-48274589D01*
X122852900Y-48195305D01*
X122918872Y-48176300D01*
X124928204Y-48176300D01*
X124928205Y-48176299D01*
X125049435Y-48152186D01*
X125130184Y-48118737D01*
X125163633Y-48104883D01*
X125266408Y-48036211D01*
X125353811Y-47948808D01*
X126096367Y-47206250D01*
X126157688Y-47172767D01*
X126170145Y-47170715D01*
X126214055Y-47165768D01*
X126384322Y-47106189D01*
X126537062Y-47010216D01*
X126664616Y-46882662D01*
X126760589Y-46729922D01*
X126820168Y-46559655D01*
X126820169Y-46559649D01*
X126840365Y-46380403D01*
X126840365Y-46380396D01*
X126820169Y-46201150D01*
X126820168Y-46201145D01*
X126785569Y-46102266D01*
X126760589Y-46030878D01*
X126759283Y-46028800D01*
X132171338Y-46028800D01*
X132974212Y-46028800D01*
X132956995Y-46038740D01*
X132901140Y-46094595D01*
X132861644Y-46163004D01*
X132841200Y-46239304D01*
X132841200Y-46318296D01*
X132861644Y-46394596D01*
X132901140Y-46463005D01*
X132956995Y-46518860D01*
X132974212Y-46528800D01*
X132171338Y-46528800D01*
X132179630Y-46570490D01*
X132179630Y-46570492D01*
X132255007Y-46752471D01*
X132255014Y-46752484D01*
X132364448Y-46916262D01*
X132364451Y-46916266D01*
X132503733Y-47055548D01*
X132503737Y-47055551D01*
X132667515Y-47164985D01*
X132667528Y-47164992D01*
X132849506Y-47240369D01*
X132849518Y-47240372D01*
X133042704Y-47278799D01*
X133042708Y-47278800D01*
X133441200Y-47278800D01*
X133441200Y-46578800D01*
X133941200Y-46578800D01*
X133941200Y-47278800D01*
X134339692Y-47278800D01*
X134339695Y-47278799D01*
X134532881Y-47240372D01*
X134532893Y-47240369D01*
X134714871Y-47164992D01*
X134714884Y-47164985D01*
X134878662Y-47055551D01*
X134878666Y-47055548D01*
X135017948Y-46916266D01*
X135017951Y-46916262D01*
X135127385Y-46752484D01*
X135127392Y-46752471D01*
X135202769Y-46570492D01*
X135202769Y-46570490D01*
X135211062Y-46528800D01*
X134408188Y-46528800D01*
X134425405Y-46518860D01*
X134481260Y-46463005D01*
X134520756Y-46394596D01*
X134541200Y-46318296D01*
X134541200Y-46239304D01*
X134520756Y-46163004D01*
X134481260Y-46094595D01*
X134425405Y-46038740D01*
X134408188Y-46028800D01*
X135211062Y-46028800D01*
X136601338Y-46028800D01*
X137404212Y-46028800D01*
X137386995Y-46038740D01*
X137331140Y-46094595D01*
X137291644Y-46163004D01*
X137271200Y-46239304D01*
X137271200Y-46318296D01*
X137291644Y-46394596D01*
X137331140Y-46463005D01*
X137386995Y-46518860D01*
X137404212Y-46528800D01*
X136601338Y-46528800D01*
X136609630Y-46570490D01*
X136609630Y-46570492D01*
X136685007Y-46752471D01*
X136685014Y-46752484D01*
X136794448Y-46916262D01*
X136794451Y-46916266D01*
X136933733Y-47055548D01*
X136933737Y-47055551D01*
X137097515Y-47164985D01*
X137097528Y-47164992D01*
X137279506Y-47240369D01*
X137279518Y-47240372D01*
X137472704Y-47278799D01*
X137472708Y-47278800D01*
X137621200Y-47278800D01*
X137621200Y-46578800D01*
X138121200Y-46578800D01*
X138121200Y-47278800D01*
X138269692Y-47278800D01*
X138269695Y-47278799D01*
X138462881Y-47240372D01*
X138462893Y-47240369D01*
X138644871Y-47164992D01*
X138644884Y-47164985D01*
X138808662Y-47055551D01*
X138808666Y-47055548D01*
X138947948Y-46916266D01*
X138947951Y-46916262D01*
X139057385Y-46752484D01*
X139057392Y-46752471D01*
X139132769Y-46570492D01*
X139132769Y-46570490D01*
X139141062Y-46528800D01*
X138338188Y-46528800D01*
X138355405Y-46518860D01*
X138411260Y-46463005D01*
X138450756Y-46394596D01*
X138471200Y-46318296D01*
X138471200Y-46239304D01*
X138450756Y-46163004D01*
X138411260Y-46094595D01*
X138355405Y-46038740D01*
X138338188Y-46028800D01*
X139141062Y-46028800D01*
X139132769Y-45987109D01*
X139132769Y-45987107D01*
X139057392Y-45805128D01*
X139057385Y-45805115D01*
X138947951Y-45641337D01*
X138947948Y-45641333D01*
X138808666Y-45502051D01*
X138808662Y-45502048D01*
X138644884Y-45392614D01*
X138644871Y-45392607D01*
X138462893Y-45317230D01*
X138462881Y-45317227D01*
X138269695Y-45278800D01*
X138121200Y-45278800D01*
X138121200Y-45978800D01*
X137621200Y-45978800D01*
X137621200Y-45278800D01*
X137472704Y-45278800D01*
X137279518Y-45317227D01*
X137279506Y-45317230D01*
X137097528Y-45392607D01*
X137097515Y-45392614D01*
X136933737Y-45502048D01*
X136933733Y-45502051D01*
X136794451Y-45641333D01*
X136794448Y-45641337D01*
X136685014Y-45805115D01*
X136685007Y-45805128D01*
X136609630Y-45987107D01*
X136609630Y-45987109D01*
X136601338Y-46028800D01*
X135211062Y-46028800D01*
X135202769Y-45987109D01*
X135202769Y-45987107D01*
X135127392Y-45805128D01*
X135127385Y-45805115D01*
X135017951Y-45641337D01*
X135017948Y-45641333D01*
X134878666Y-45502051D01*
X134878662Y-45502048D01*
X134709813Y-45389226D01*
X134710768Y-45387796D01*
X134666768Y-45344577D01*
X134651305Y-45276440D01*
X134675134Y-45210760D01*
X134676902Y-45208713D01*
X134676768Y-45208611D01*
X134681707Y-45202172D01*
X134681715Y-45202165D01*
X134757481Y-45070935D01*
X134796700Y-44924566D01*
X134796700Y-44773034D01*
X134757481Y-44626665D01*
X134681715Y-44495435D01*
X134574565Y-44388285D01*
X134508950Y-44350402D01*
X134443336Y-44312519D01*
X134370150Y-44292909D01*
X134296966Y-44273300D01*
X134145434Y-44273300D01*
X133999063Y-44312519D01*
X133867835Y-44388285D01*
X133867832Y-44388287D01*
X133760687Y-44495432D01*
X133760685Y-44495435D01*
X133684919Y-44626663D01*
X133645700Y-44773034D01*
X133645700Y-44924566D01*
X133672835Y-45025837D01*
X133684920Y-45070937D01*
X133684920Y-45070938D01*
X133697542Y-45092800D01*
X133714015Y-45160701D01*
X133691162Y-45226727D01*
X133636241Y-45269918D01*
X133590155Y-45278800D01*
X133042704Y-45278800D01*
X132849518Y-45317227D01*
X132849506Y-45317230D01*
X132667528Y-45392607D01*
X132667515Y-45392614D01*
X132503737Y-45502048D01*
X132503733Y-45502051D01*
X132364451Y-45641333D01*
X132364448Y-45641337D01*
X132255014Y-45805115D01*
X132255007Y-45805128D01*
X132179630Y-45987107D01*
X132179630Y-45987109D01*
X132171338Y-46028800D01*
X126759283Y-46028800D01*
X126670177Y-45886989D01*
X126664616Y-45878138D01*
X126537062Y-45750584D01*
X126384323Y-45654611D01*
X126214054Y-45595031D01*
X126214049Y-45595030D01*
X126034804Y-45574835D01*
X126034796Y-45574835D01*
X125855550Y-45595030D01*
X125855545Y-45595031D01*
X125685276Y-45654611D01*
X125532537Y-45750584D01*
X125404984Y-45878137D01*
X125309010Y-46030878D01*
X125249432Y-46201145D01*
X125244486Y-46245037D01*
X125217418Y-46309451D01*
X125208947Y-46318832D01*
X124642800Y-46884981D01*
X124581477Y-46918466D01*
X124555119Y-46921300D01*
X122918872Y-46921300D01*
X122852900Y-46902294D01*
X122726723Y-46823011D01*
X122556454Y-46763431D01*
X122556449Y-46763430D01*
X122377204Y-46743235D01*
X122377196Y-46743235D01*
X122197950Y-46763430D01*
X122197945Y-46763431D01*
X122027676Y-46823011D01*
X121874937Y-46918984D01*
X121747384Y-47046537D01*
X121651411Y-47199276D01*
X121591831Y-47369545D01*
X121591830Y-47369550D01*
X121571635Y-47548796D01*
X103613202Y-47548796D01*
X103530083Y-47447516D01*
X103377739Y-47322490D01*
X103377732Y-47322486D01*
X103203933Y-47229588D01*
X103203927Y-47229586D01*
X103029023Y-47176529D01*
X103015329Y-47172375D01*
X102819200Y-47153059D01*
X102819197Y-47153059D01*
X102784234Y-47156502D01*
X102715588Y-47143482D01*
X102664879Y-47095416D01*
X102648206Y-47027565D01*
X102670862Y-46961471D01*
X102684401Y-46945418D01*
X102747811Y-46882008D01*
X102968570Y-46661249D01*
X103642767Y-45987050D01*
X103704088Y-45953567D01*
X103716545Y-45951515D01*
X103760455Y-45946568D01*
X103930722Y-45886989D01*
X104083462Y-45791016D01*
X104211016Y-45663462D01*
X104306989Y-45510722D01*
X104366568Y-45340455D01*
X104381423Y-45208611D01*
X104386765Y-45161203D01*
X104386765Y-45161196D01*
X104366569Y-44981950D01*
X104366568Y-44981945D01*
X104346490Y-44924565D01*
X104306989Y-44811678D01*
X104211016Y-44658938D01*
X104083462Y-44531384D01*
X104026245Y-44495432D01*
X103930723Y-44435411D01*
X103760454Y-44375831D01*
X103760449Y-44375830D01*
X103581204Y-44355635D01*
X103581196Y-44355635D01*
X103401950Y-44375830D01*
X103401945Y-44375831D01*
X103231676Y-44435411D01*
X103078937Y-44531384D01*
X102951384Y-44658937D01*
X102855410Y-44811678D01*
X102795832Y-44981945D01*
X102790886Y-45025837D01*
X102763818Y-45090251D01*
X102755347Y-45099632D01*
X102036800Y-45818181D01*
X101975477Y-45851666D01*
X101949119Y-45854500D01*
X97366472Y-45854500D01*
X97300500Y-45835494D01*
X97174323Y-45756211D01*
X97004054Y-45696631D01*
X97004049Y-45696630D01*
X96824804Y-45676435D01*
X96824796Y-45676435D01*
X96645550Y-45696630D01*
X96645545Y-45696631D01*
X96475276Y-45756211D01*
X96322537Y-45852184D01*
X96194984Y-45979737D01*
X96099011Y-46132476D01*
X96039431Y-46302745D01*
X96039430Y-46302750D01*
X96019235Y-46481996D01*
X95569448Y-46481996D01*
X95550624Y-46290868D01*
X95493414Y-46102273D01*
X95493411Y-46102269D01*
X95493411Y-46102266D01*
X95400513Y-45928467D01*
X95400509Y-45928460D01*
X95275483Y-45776116D01*
X95123139Y-45651090D01*
X95123132Y-45651086D01*
X94949333Y-45558188D01*
X94949327Y-45558186D01*
X94823597Y-45520046D01*
X94760729Y-45500975D01*
X94564600Y-45481659D01*
X94368470Y-45500975D01*
X94179866Y-45558188D01*
X94006067Y-45651086D01*
X94006060Y-45651090D01*
X93853716Y-45776116D01*
X93728690Y-45928460D01*
X93728686Y-45928467D01*
X93635788Y-46102266D01*
X93578575Y-46290870D01*
X93559259Y-46487000D01*
X93578575Y-46683129D01*
X93635788Y-46871733D01*
X93728686Y-47045532D01*
X93732073Y-47050601D01*
X93730436Y-47051694D01*
X93754196Y-47107663D01*
X93742395Y-47176529D01*
X93731709Y-47193156D01*
X93732073Y-47193399D01*
X93728686Y-47198467D01*
X93635788Y-47372266D01*
X93578575Y-47560870D01*
X93559259Y-47757000D01*
X93578575Y-47953129D01*
X93578576Y-47953132D01*
X93624609Y-48104883D01*
X93635787Y-48141729D01*
X93636921Y-48143850D01*
X93637180Y-48145094D01*
X93638118Y-48147359D01*
X93637688Y-48147536D01*
X93651164Y-48212253D01*
X93626833Y-48276614D01*
X93620805Y-48284666D01*
X93620802Y-48284671D01*
X93570508Y-48419517D01*
X93568101Y-48441910D01*
X93564101Y-48479123D01*
X93564100Y-48479135D01*
X93564100Y-49574870D01*
X93564101Y-49574876D01*
X93570508Y-49634483D01*
X93620802Y-49769328D01*
X93620804Y-49769331D01*
X93660074Y-49821789D01*
X93684491Y-49887253D01*
X93669639Y-49955526D01*
X93620234Y-50004932D01*
X93560807Y-50020100D01*
X66300481Y-50020100D01*
X66233442Y-50000415D01*
X66212800Y-49983781D01*
X64732252Y-48503233D01*
X64698767Y-48441910D01*
X64696714Y-48429448D01*
X64691768Y-48385545D01*
X64632189Y-48215278D01*
X64630288Y-48212253D01*
X64562823Y-48104883D01*
X64536216Y-48062538D01*
X64408662Y-47934984D01*
X64255923Y-47839011D01*
X64085654Y-47779431D01*
X64085649Y-47779430D01*
X63906404Y-47759235D01*
X63906396Y-47759235D01*
X63727150Y-47779430D01*
X63727145Y-47779431D01*
X63556876Y-47839011D01*
X63404137Y-47934984D01*
X63276584Y-48062537D01*
X63180611Y-48215276D01*
X63121031Y-48385545D01*
X63121030Y-48385550D01*
X63100835Y-48564796D01*
X42715300Y-48564796D01*
X42715300Y-32553183D01*
X44378500Y-32553183D01*
X44378500Y-33893201D01*
X44378501Y-33893218D01*
X44389000Y-33995996D01*
X44389001Y-33995999D01*
X44444185Y-34162531D01*
X44444186Y-34162534D01*
X44536288Y-34311856D01*
X44660344Y-34435912D01*
X44809666Y-34528014D01*
X44809668Y-34528014D01*
X44809669Y-34528015D01*
X44810348Y-34528332D01*
X44810735Y-34528673D01*
X44815813Y-34531805D01*
X44815277Y-34532672D01*
X44862787Y-34574504D01*
X44881939Y-34641698D01*
X44861723Y-34708579D01*
X44845625Y-34728395D01*
X44703640Y-34870380D01*
X44576843Y-35044900D01*
X44478909Y-35237108D01*
X44412245Y-35442277D01*
X44378500Y-35655333D01*
X44378500Y-35871066D01*
X44412245Y-36084122D01*
X44412246Y-36084126D01*
X44478908Y-36289289D01*
X44576843Y-36481499D01*
X44703641Y-36656021D01*
X44856179Y-36808559D01*
X44939808Y-36869319D01*
X45027294Y-36932882D01*
X45069959Y-36988212D01*
X45075938Y-37057826D01*
X45043332Y-37119621D01*
X45027294Y-37133518D01*
X44983805Y-37165115D01*
X44856179Y-37257841D01*
X44856177Y-37257843D01*
X44856176Y-37257843D01*
X44703643Y-37410376D01*
X44703643Y-37410377D01*
X44703641Y-37410379D01*
X44660970Y-37469110D01*
X44576843Y-37584900D01*
X44478909Y-37777108D01*
X44412245Y-37982277D01*
X44378500Y-38195333D01*
X44378500Y-38411066D01*
X44409737Y-38608285D01*
X44412246Y-38624126D01*
X44478908Y-38829289D01*
X44576843Y-39021499D01*
X44703641Y-39196021D01*
X44856179Y-39348559D01*
X44971025Y-39432000D01*
X45027294Y-39472882D01*
X45069959Y-39528212D01*
X45075938Y-39597826D01*
X45043332Y-39659621D01*
X45027294Y-39673518D01*
X44856179Y-39797841D01*
X44856177Y-39797843D01*
X44856176Y-39797843D01*
X44703643Y-39950376D01*
X44703643Y-39950377D01*
X44703641Y-39950379D01*
X44649186Y-40025329D01*
X44576843Y-40124900D01*
X44478909Y-40317108D01*
X44412245Y-40522277D01*
X44378500Y-40735333D01*
X44378500Y-40951066D01*
X44403854Y-41111141D01*
X44412246Y-41164126D01*
X44473030Y-41351200D01*
X44478909Y-41369291D01*
X44508017Y-41426419D01*
X44576843Y-41561499D01*
X44703641Y-41736021D01*
X44856179Y-41888559D01*
X45030701Y-42015357D01*
X45222911Y-42113292D01*
X45428074Y-42179954D01*
X45496901Y-42190855D01*
X45641134Y-42213700D01*
X45641139Y-42213700D01*
X46306866Y-42213700D01*
X46425230Y-42194952D01*
X46519926Y-42179954D01*
X46725089Y-42113292D01*
X46917299Y-42015357D01*
X47091821Y-41888559D01*
X47244359Y-41736021D01*
X47371157Y-41561499D01*
X47469092Y-41369289D01*
X47535754Y-41164126D01*
X47550752Y-41069430D01*
X47569500Y-40951066D01*
X47569500Y-40735333D01*
X47562446Y-40690796D01*
X57157235Y-40690796D01*
X57157235Y-40690803D01*
X57177430Y-40870049D01*
X57177431Y-40870054D01*
X57237011Y-41040323D01*
X57332984Y-41193062D01*
X57403441Y-41263519D01*
X57436926Y-41324842D01*
X57431942Y-41394534D01*
X57403441Y-41438881D01*
X57332984Y-41509337D01*
X57237011Y-41662076D01*
X57177431Y-41832345D01*
X57177430Y-41832350D01*
X57157235Y-42011596D01*
X57157235Y-42011603D01*
X57177430Y-42190849D01*
X57177431Y-42190854D01*
X57237011Y-42361123D01*
X57332984Y-42513862D01*
X57460538Y-42641416D01*
X57613278Y-42737389D01*
X57715217Y-42773059D01*
X57783545Y-42796968D01*
X57783550Y-42796969D01*
X57962796Y-42817165D01*
X57962800Y-42817165D01*
X57962804Y-42817165D01*
X58142049Y-42796969D01*
X58142051Y-42796968D01*
X58142055Y-42796968D01*
X58142058Y-42796966D01*
X58142062Y-42796966D01*
X58210385Y-42773059D01*
X58251340Y-42766100D01*
X65243460Y-42766100D01*
X65284415Y-42773059D01*
X65352737Y-42796966D01*
X65352743Y-42796967D01*
X65352745Y-42796968D01*
X65352746Y-42796968D01*
X65352750Y-42796969D01*
X65531996Y-42817165D01*
X65532000Y-42817165D01*
X65532004Y-42817165D01*
X65711249Y-42796969D01*
X65711252Y-42796968D01*
X65711255Y-42796968D01*
X65881522Y-42737389D01*
X66034262Y-42641416D01*
X66161816Y-42513862D01*
X66257789Y-42361122D01*
X66262150Y-42348660D01*
X74589692Y-42348660D01*
X74589692Y-42348661D01*
X74603492Y-42357333D01*
X74603491Y-42357333D01*
X74773661Y-42416878D01*
X74952797Y-42437062D01*
X74952803Y-42437062D01*
X75131938Y-42416878D01*
X75131941Y-42416877D01*
X75302105Y-42357334D01*
X75302106Y-42357334D01*
X75315906Y-42348661D01*
X75315906Y-42348660D01*
X75989692Y-42348660D01*
X75989692Y-42348661D01*
X76003492Y-42357333D01*
X76003491Y-42357333D01*
X76173661Y-42416878D01*
X76352797Y-42437062D01*
X76352803Y-42437062D01*
X76531938Y-42416878D01*
X76531941Y-42416877D01*
X76702105Y-42357334D01*
X76702106Y-42357334D01*
X76715906Y-42348661D01*
X76715906Y-42348660D01*
X76352801Y-41985553D01*
X76352800Y-41985553D01*
X75989692Y-42348660D01*
X75315906Y-42348660D01*
X74952801Y-41985553D01*
X74952800Y-41985553D01*
X74589692Y-42348660D01*
X66262150Y-42348660D01*
X66317368Y-42190855D01*
X66317369Y-42190849D01*
X66337565Y-42011603D01*
X66337565Y-42011596D01*
X66317369Y-41832350D01*
X66317368Y-41832345D01*
X66309670Y-41810346D01*
X66257789Y-41662078D01*
X66249358Y-41648660D01*
X73889692Y-41648660D01*
X73889692Y-41648661D01*
X73903492Y-41657333D01*
X73903491Y-41657333D01*
X74073662Y-41716878D01*
X74074444Y-41717057D01*
X74074897Y-41717310D01*
X74080231Y-41719177D01*
X74079904Y-41720111D01*
X74135423Y-41751166D01*
X74164752Y-41804874D01*
X74165622Y-41804570D01*
X74167470Y-41809852D01*
X74167740Y-41810346D01*
X74167921Y-41811142D01*
X74227463Y-41981300D01*
X74227463Y-41981301D01*
X74236138Y-41995107D01*
X74599246Y-41632000D01*
X74579355Y-41612109D01*
X74852800Y-41612109D01*
X74852800Y-41651891D01*
X74868024Y-41688645D01*
X74896155Y-41716776D01*
X74932909Y-41732000D01*
X74972691Y-41732000D01*
X75009445Y-41716776D01*
X75037576Y-41688645D01*
X75052800Y-41651891D01*
X75052800Y-41632000D01*
X75306353Y-41632000D01*
X75652800Y-41978446D01*
X75652801Y-41978446D01*
X75999246Y-41632000D01*
X75979355Y-41612109D01*
X76252800Y-41612109D01*
X76252800Y-41651891D01*
X76268024Y-41688645D01*
X76296155Y-41716776D01*
X76332909Y-41732000D01*
X76372691Y-41732000D01*
X76409445Y-41716776D01*
X76437576Y-41688645D01*
X76452800Y-41651891D01*
X76452800Y-41631999D01*
X76706353Y-41631999D01*
X76706353Y-41632000D01*
X77069460Y-41995106D01*
X77069461Y-41995106D01*
X77078134Y-41981306D01*
X77078134Y-41981305D01*
X77137676Y-41811144D01*
X77137856Y-41810358D01*
X77138111Y-41809901D01*
X77139977Y-41804570D01*
X77140910Y-41804896D01*
X77171964Y-41749379D01*
X77225675Y-41720049D01*
X77225370Y-41719177D01*
X77230670Y-41717322D01*
X77231158Y-41717056D01*
X77231944Y-41716876D01*
X77402105Y-41657334D01*
X77402106Y-41657334D01*
X77415906Y-41648661D01*
X77415906Y-41648660D01*
X77052800Y-41285553D01*
X77017740Y-41320614D01*
X77017738Y-41320616D01*
X76706353Y-41631999D01*
X76452800Y-41631999D01*
X76452800Y-41612109D01*
X76437576Y-41575355D01*
X76409445Y-41547224D01*
X76372691Y-41532000D01*
X76332909Y-41532000D01*
X76296155Y-41547224D01*
X76268024Y-41575355D01*
X76252800Y-41612109D01*
X75979355Y-41612109D01*
X75687860Y-41320614D01*
X75652800Y-41285553D01*
X75617740Y-41320614D01*
X75617738Y-41320616D01*
X75306353Y-41632000D01*
X75052800Y-41632000D01*
X75052800Y-41612109D01*
X75037576Y-41575355D01*
X75009445Y-41547224D01*
X74972691Y-41532000D01*
X74932909Y-41532000D01*
X74896155Y-41547224D01*
X74868024Y-41575355D01*
X74852800Y-41612109D01*
X74579355Y-41612109D01*
X74252799Y-41285553D01*
X74252798Y-41285553D01*
X73889692Y-41648660D01*
X66249358Y-41648660D01*
X66241267Y-41635784D01*
X66161815Y-41509337D01*
X66091359Y-41438881D01*
X66057874Y-41377558D01*
X66062858Y-41307866D01*
X66091359Y-41263519D01*
X66161816Y-41193062D01*
X66257789Y-41040322D01*
X66295694Y-40931997D01*
X73447738Y-40931997D01*
X73447738Y-40932002D01*
X73467921Y-41111138D01*
X73527465Y-41281304D01*
X73536138Y-41295107D01*
X73899246Y-40932000D01*
X73899246Y-40931999D01*
X73879356Y-40912109D01*
X74152800Y-40912109D01*
X74152800Y-40951891D01*
X74168024Y-40988645D01*
X74196155Y-41016776D01*
X74232909Y-41032000D01*
X74272691Y-41032000D01*
X74309445Y-41016776D01*
X74337576Y-40988645D01*
X74352800Y-40951891D01*
X74352800Y-40931999D01*
X74606353Y-40931999D01*
X74952800Y-41278446D01*
X75299246Y-40932000D01*
X75279355Y-40912109D01*
X75552800Y-40912109D01*
X75552800Y-40951891D01*
X75568024Y-40988645D01*
X75596155Y-41016776D01*
X75632909Y-41032000D01*
X75672691Y-41032000D01*
X75709445Y-41016776D01*
X75737576Y-40988645D01*
X75752800Y-40951891D01*
X75752800Y-40931999D01*
X76006353Y-40931999D01*
X76352800Y-41278446D01*
X76699246Y-40932000D01*
X76679355Y-40912109D01*
X76952800Y-40912109D01*
X76952800Y-40951891D01*
X76968024Y-40988645D01*
X76996155Y-41016776D01*
X77032909Y-41032000D01*
X77072691Y-41032000D01*
X77109445Y-41016776D01*
X77137576Y-40988645D01*
X77152800Y-40951891D01*
X77152800Y-40932000D01*
X77406353Y-40932000D01*
X77769460Y-41295106D01*
X77769461Y-41295106D01*
X77778134Y-41281306D01*
X77778134Y-41281305D01*
X77837677Y-41111141D01*
X77837678Y-41111138D01*
X77857862Y-40932002D01*
X77857862Y-40931997D01*
X77837678Y-40752861D01*
X77778133Y-40582692D01*
X77769461Y-40568892D01*
X77769460Y-40568892D01*
X77406353Y-40932000D01*
X77152800Y-40932000D01*
X77152800Y-40912109D01*
X77137576Y-40875355D01*
X77109445Y-40847224D01*
X77072691Y-40832000D01*
X77032909Y-40832000D01*
X76996155Y-40847224D01*
X76968024Y-40875355D01*
X76952800Y-40912109D01*
X76679355Y-40912109D01*
X76418560Y-40651314D01*
X76352800Y-40585553D01*
X76287040Y-40651314D01*
X76287039Y-40651314D01*
X76006353Y-40931999D01*
X75752800Y-40931999D01*
X75752800Y-40912109D01*
X75737576Y-40875355D01*
X75709445Y-40847224D01*
X75672691Y-40832000D01*
X75632909Y-40832000D01*
X75596155Y-40847224D01*
X75568024Y-40875355D01*
X75552800Y-40912109D01*
X75279355Y-40912109D01*
X75018560Y-40651314D01*
X74952800Y-40585553D01*
X74887040Y-40651314D01*
X74887039Y-40651314D01*
X74606353Y-40931999D01*
X74352800Y-40931999D01*
X74352800Y-40912109D01*
X74337576Y-40875355D01*
X74309445Y-40847224D01*
X74272691Y-40832000D01*
X74232909Y-40832000D01*
X74196155Y-40847224D01*
X74168024Y-40875355D01*
X74152800Y-40912109D01*
X73879356Y-40912109D01*
X73536138Y-40568891D01*
X73536137Y-40568891D01*
X73527467Y-40582691D01*
X73527462Y-40582701D01*
X73467922Y-40752858D01*
X73467921Y-40752861D01*
X73447738Y-40931997D01*
X66295694Y-40931997D01*
X66317368Y-40870055D01*
X66318377Y-40861100D01*
X66337565Y-40690803D01*
X66337565Y-40690796D01*
X66317369Y-40511550D01*
X66317368Y-40511545D01*
X66257788Y-40341276D01*
X66201623Y-40251891D01*
X66189124Y-40231999D01*
X73906353Y-40231999D01*
X73906353Y-40232001D01*
X74252798Y-40578446D01*
X74252799Y-40578446D01*
X74528669Y-40302577D01*
X74599246Y-40232000D01*
X74579355Y-40212109D01*
X74852800Y-40212109D01*
X74852800Y-40251891D01*
X74868024Y-40288645D01*
X74896155Y-40316776D01*
X74932909Y-40332000D01*
X74972691Y-40332000D01*
X75009445Y-40316776D01*
X75037576Y-40288645D01*
X75052800Y-40251891D01*
X75052800Y-40231999D01*
X75306353Y-40231999D01*
X75652800Y-40578446D01*
X75999246Y-40232000D01*
X75979355Y-40212109D01*
X76252800Y-40212109D01*
X76252800Y-40251891D01*
X76268024Y-40288645D01*
X76296155Y-40316776D01*
X76332909Y-40332000D01*
X76372691Y-40332000D01*
X76409445Y-40316776D01*
X76437576Y-40288645D01*
X76452800Y-40251891D01*
X76452800Y-40231999D01*
X76706353Y-40231999D01*
X77052800Y-40578446D01*
X77399246Y-40232000D01*
X77399246Y-40231999D01*
X77052800Y-39885553D01*
X77002055Y-39936299D01*
X77002054Y-39936300D01*
X76706353Y-40231999D01*
X76452800Y-40231999D01*
X76452800Y-40212109D01*
X76437576Y-40175355D01*
X76409445Y-40147224D01*
X76372691Y-40132000D01*
X76332909Y-40132000D01*
X76296155Y-40147224D01*
X76268024Y-40175355D01*
X76252800Y-40212109D01*
X75979355Y-40212109D01*
X75703545Y-39936299D01*
X75652800Y-39885553D01*
X75602055Y-39936299D01*
X75602054Y-39936300D01*
X75306353Y-40231999D01*
X75052800Y-40231999D01*
X75052800Y-40212109D01*
X75037576Y-40175355D01*
X75009445Y-40147224D01*
X74972691Y-40132000D01*
X74932909Y-40132000D01*
X74896155Y-40147224D01*
X74868024Y-40175355D01*
X74852800Y-40212109D01*
X74579355Y-40212109D01*
X74252799Y-39885553D01*
X74252798Y-39885553D01*
X73906353Y-40231999D01*
X66189124Y-40231999D01*
X66161816Y-40188538D01*
X66034262Y-40060984D01*
X65964813Y-40017346D01*
X65881523Y-39965011D01*
X65711254Y-39905431D01*
X65711249Y-39905430D01*
X65532004Y-39885235D01*
X65531996Y-39885235D01*
X65352750Y-39905430D01*
X65352737Y-39905433D01*
X65284415Y-39929341D01*
X65243460Y-39936300D01*
X58251340Y-39936300D01*
X58210385Y-39929341D01*
X58142062Y-39905433D01*
X58142049Y-39905430D01*
X57962804Y-39885235D01*
X57962796Y-39885235D01*
X57783550Y-39905430D01*
X57783545Y-39905431D01*
X57613276Y-39965011D01*
X57460537Y-40060984D01*
X57332984Y-40188537D01*
X57237011Y-40341276D01*
X57177431Y-40511545D01*
X57177430Y-40511550D01*
X57157235Y-40690796D01*
X47562446Y-40690796D01*
X47544651Y-40578446D01*
X47535754Y-40522274D01*
X47469092Y-40317111D01*
X47371157Y-40124901D01*
X47244359Y-39950379D01*
X47091821Y-39797841D01*
X46920704Y-39673517D01*
X46878040Y-39618188D01*
X46872061Y-39548574D01*
X46880808Y-39531997D01*
X73447738Y-39531997D01*
X73447738Y-39532002D01*
X73467921Y-39711138D01*
X73527465Y-39881304D01*
X73536138Y-39895107D01*
X73899246Y-39532000D01*
X73899246Y-39531999D01*
X73879356Y-39512109D01*
X74152800Y-39512109D01*
X74152800Y-39551891D01*
X74168024Y-39588645D01*
X74196155Y-39616776D01*
X74232909Y-39632000D01*
X74272691Y-39632000D01*
X74309445Y-39616776D01*
X74337576Y-39588645D01*
X74352800Y-39551891D01*
X74352800Y-39531999D01*
X74606353Y-39531999D01*
X74647554Y-39573199D01*
X74647555Y-39573201D01*
X74952800Y-39878446D01*
X75299246Y-39532000D01*
X75279355Y-39512109D01*
X75552800Y-39512109D01*
X75552800Y-39551891D01*
X75568024Y-39588645D01*
X75596155Y-39616776D01*
X75632909Y-39632000D01*
X75672691Y-39632000D01*
X75709445Y-39616776D01*
X75737576Y-39588645D01*
X75752800Y-39551891D01*
X75752800Y-39531999D01*
X76006353Y-39531999D01*
X76047554Y-39573199D01*
X76047555Y-39573201D01*
X76352800Y-39878446D01*
X76699246Y-39532000D01*
X76679355Y-39512109D01*
X76952800Y-39512109D01*
X76952800Y-39551891D01*
X76968024Y-39588645D01*
X76996155Y-39616776D01*
X77032909Y-39632000D01*
X77072691Y-39632000D01*
X77109445Y-39616776D01*
X77137576Y-39588645D01*
X77152800Y-39551891D01*
X77152800Y-39532000D01*
X77406352Y-39532000D01*
X77769460Y-39895106D01*
X77769461Y-39895106D01*
X77778134Y-39881306D01*
X77778134Y-39881305D01*
X77837677Y-39711141D01*
X77837678Y-39711138D01*
X77857862Y-39532002D01*
X77857862Y-39531997D01*
X77837678Y-39352861D01*
X77778133Y-39182692D01*
X77769461Y-39168892D01*
X77769460Y-39168892D01*
X77406352Y-39532000D01*
X77152800Y-39532000D01*
X77152800Y-39512109D01*
X77137576Y-39475355D01*
X77109445Y-39447224D01*
X77072691Y-39432000D01*
X77032909Y-39432000D01*
X76996155Y-39447224D01*
X76968024Y-39475355D01*
X76952800Y-39512109D01*
X76679355Y-39512109D01*
X76418560Y-39251314D01*
X76352800Y-39185553D01*
X76287040Y-39251314D01*
X76287039Y-39251314D01*
X76006353Y-39531999D01*
X75752800Y-39531999D01*
X75752800Y-39512109D01*
X75737576Y-39475355D01*
X75709445Y-39447224D01*
X75672691Y-39432000D01*
X75632909Y-39432000D01*
X75596155Y-39447224D01*
X75568024Y-39475355D01*
X75552800Y-39512109D01*
X75279355Y-39512109D01*
X75018560Y-39251314D01*
X74952800Y-39185553D01*
X74887040Y-39251314D01*
X74887039Y-39251314D01*
X74606353Y-39531999D01*
X74352800Y-39531999D01*
X74352800Y-39512109D01*
X74337576Y-39475355D01*
X74309445Y-39447224D01*
X74272691Y-39432000D01*
X74232909Y-39432000D01*
X74196155Y-39447224D01*
X74168024Y-39475355D01*
X74152800Y-39512109D01*
X73879356Y-39512109D01*
X73536138Y-39168891D01*
X73536137Y-39168891D01*
X73527467Y-39182691D01*
X73527462Y-39182701D01*
X73467922Y-39352858D01*
X73467921Y-39352861D01*
X73447738Y-39531997D01*
X46880808Y-39531997D01*
X46904667Y-39486780D01*
X46920702Y-39472884D01*
X47091821Y-39348559D01*
X47244359Y-39196021D01*
X47371157Y-39021499D01*
X47469092Y-38829289D01*
X47473625Y-38815337D01*
X73889691Y-38815337D01*
X73889691Y-38815338D01*
X74252798Y-39178446D01*
X74542428Y-38888818D01*
X74599246Y-38831999D01*
X74599246Y-38831998D01*
X74579357Y-38812109D01*
X74852800Y-38812109D01*
X74852800Y-38851891D01*
X74868024Y-38888645D01*
X74896155Y-38916776D01*
X74932909Y-38932000D01*
X74972691Y-38932000D01*
X75009445Y-38916776D01*
X75037576Y-38888645D01*
X75052800Y-38851891D01*
X75052800Y-38831998D01*
X75306353Y-38831998D01*
X75306353Y-38831999D01*
X75652800Y-39178446D01*
X75942428Y-38888819D01*
X75999246Y-38831999D01*
X75999246Y-38831998D01*
X75979357Y-38812109D01*
X76252800Y-38812109D01*
X76252800Y-38851891D01*
X76268024Y-38888645D01*
X76296155Y-38916776D01*
X76332909Y-38932000D01*
X76372691Y-38932000D01*
X76409445Y-38916776D01*
X76437576Y-38888645D01*
X76452800Y-38851891D01*
X76452800Y-38831998D01*
X76706353Y-38831998D01*
X76706353Y-38831999D01*
X77052800Y-39178446D01*
X77052801Y-39178446D01*
X77415907Y-38815338D01*
X77402101Y-38806663D01*
X77231942Y-38747121D01*
X77231146Y-38746940D01*
X77230683Y-38746681D01*
X77225370Y-38744822D01*
X77225695Y-38743890D01*
X77170170Y-38712827D01*
X77140849Y-38659125D01*
X77139977Y-38659431D01*
X77138121Y-38654128D01*
X77137857Y-38653644D01*
X77137678Y-38652862D01*
X77078133Y-38482692D01*
X77069461Y-38468892D01*
X77069460Y-38468892D01*
X76706353Y-38831998D01*
X76452800Y-38831998D01*
X76452800Y-38812109D01*
X76437576Y-38775355D01*
X76409445Y-38747224D01*
X76372691Y-38732000D01*
X76332909Y-38732000D01*
X76296155Y-38747224D01*
X76268024Y-38775355D01*
X76252800Y-38812109D01*
X75979357Y-38812109D01*
X75652801Y-38485553D01*
X75652800Y-38485553D01*
X75306353Y-38831998D01*
X75052800Y-38831998D01*
X75052800Y-38812109D01*
X75037576Y-38775355D01*
X75009445Y-38747224D01*
X74972691Y-38732000D01*
X74932909Y-38732000D01*
X74896155Y-38747224D01*
X74868024Y-38775355D01*
X74852800Y-38812109D01*
X74579357Y-38812109D01*
X74236138Y-38468891D01*
X74236137Y-38468891D01*
X74227467Y-38482691D01*
X74227462Y-38482701D01*
X74167919Y-38652866D01*
X74167739Y-38653656D01*
X74167482Y-38654113D01*
X74165623Y-38659429D01*
X74164691Y-38659103D01*
X74133624Y-38714631D01*
X74079924Y-38743952D01*
X74080229Y-38744823D01*
X74074945Y-38746671D01*
X74074456Y-38746939D01*
X74073666Y-38747119D01*
X73903501Y-38806662D01*
X73903491Y-38806667D01*
X73889691Y-38815337D01*
X47473625Y-38815337D01*
X47535754Y-38624126D01*
X47557702Y-38485553D01*
X47569500Y-38411066D01*
X47569500Y-38195333D01*
X47542653Y-38025831D01*
X47535754Y-37982274D01*
X47469092Y-37777111D01*
X47374772Y-37591996D01*
X57309635Y-37591996D01*
X57309635Y-37592003D01*
X57329830Y-37771249D01*
X57329831Y-37771254D01*
X57389411Y-37941523D01*
X57443081Y-38026938D01*
X57485384Y-38094262D01*
X57612938Y-38221816D01*
X57699588Y-38276262D01*
X57751591Y-38308938D01*
X57765678Y-38317789D01*
X57867617Y-38353459D01*
X57935945Y-38377368D01*
X57935950Y-38377369D01*
X58115196Y-38397565D01*
X58115200Y-38397565D01*
X58115204Y-38397565D01*
X58294449Y-38377369D01*
X58294451Y-38377368D01*
X58294455Y-38377368D01*
X58294458Y-38377366D01*
X58294462Y-38377366D01*
X58362785Y-38353459D01*
X58403740Y-38346500D01*
X65395860Y-38346500D01*
X65436815Y-38353459D01*
X65505137Y-38377366D01*
X65505143Y-38377367D01*
X65505145Y-38377368D01*
X65505146Y-38377368D01*
X65505150Y-38377369D01*
X65684396Y-38397565D01*
X65684400Y-38397565D01*
X65684404Y-38397565D01*
X65863649Y-38377369D01*
X65863652Y-38377368D01*
X65863655Y-38377368D01*
X66033922Y-38317789D01*
X66186662Y-38221816D01*
X66293141Y-38115337D01*
X74589691Y-38115337D01*
X74589691Y-38115338D01*
X74952800Y-38478446D01*
X74952801Y-38478446D01*
X75315907Y-38115338D01*
X75315905Y-38115337D01*
X75989691Y-38115337D01*
X75989691Y-38115338D01*
X76352800Y-38478446D01*
X76352801Y-38478446D01*
X76715907Y-38115338D01*
X76702104Y-38106665D01*
X76531938Y-38047121D01*
X76352803Y-38026938D01*
X76352797Y-38026938D01*
X76173661Y-38047121D01*
X76173658Y-38047122D01*
X76003501Y-38106662D01*
X76003491Y-38106667D01*
X75989691Y-38115337D01*
X75315905Y-38115337D01*
X75302104Y-38106665D01*
X75131938Y-38047121D01*
X74952803Y-38026938D01*
X74952797Y-38026938D01*
X74773661Y-38047121D01*
X74773658Y-38047122D01*
X74603501Y-38106662D01*
X74603491Y-38106667D01*
X74589691Y-38115337D01*
X66293141Y-38115337D01*
X66314216Y-38094262D01*
X66410189Y-37941522D01*
X66469768Y-37771255D01*
X66489965Y-37592000D01*
X66489965Y-37591996D01*
X87586435Y-37591996D01*
X87586435Y-37592003D01*
X87606630Y-37771249D01*
X87606631Y-37771254D01*
X87666211Y-37941523D01*
X87719881Y-38026938D01*
X87762184Y-38094262D01*
X87889738Y-38221816D01*
X87976388Y-38276262D01*
X88028391Y-38308938D01*
X88042478Y-38317789D01*
X88212745Y-38377368D01*
X88256635Y-38382313D01*
X88321048Y-38409378D01*
X88330433Y-38417852D01*
X92578189Y-42665608D01*
X92629643Y-42717062D01*
X92665594Y-42753013D01*
X92665596Y-42753014D01*
X92768356Y-42821676D01*
X92768358Y-42821677D01*
X92768367Y-42821683D01*
X92793372Y-42832040D01*
X92815671Y-42841277D01*
X92857854Y-42858749D01*
X92882566Y-42868986D01*
X92997779Y-42891903D01*
X93003792Y-42893099D01*
X93003796Y-42893100D01*
X93003797Y-42893100D01*
X102937928Y-42893100D01*
X103003899Y-42912105D01*
X103130078Y-42991389D01*
X103212887Y-43020365D01*
X103300345Y-43050968D01*
X103300350Y-43050969D01*
X103479596Y-43071165D01*
X103479600Y-43071165D01*
X103479604Y-43071165D01*
X103658849Y-43050969D01*
X103658852Y-43050968D01*
X103658855Y-43050968D01*
X103829122Y-42991389D01*
X103981862Y-42895416D01*
X103981864Y-42895413D01*
X103987450Y-42891904D01*
X104054687Y-42872903D01*
X104119394Y-42891902D01*
X104196878Y-42940589D01*
X104342053Y-42991388D01*
X104367145Y-43000168D01*
X104367150Y-43000169D01*
X104546396Y-43020365D01*
X104546400Y-43020365D01*
X104546404Y-43020365D01*
X104725649Y-43000169D01*
X104725652Y-43000168D01*
X104725655Y-43000168D01*
X104895922Y-42940589D01*
X105048662Y-42844616D01*
X105176216Y-42717062D01*
X105272189Y-42564322D01*
X105331768Y-42394055D01*
X105335479Y-42361122D01*
X105351965Y-42214803D01*
X105351965Y-42214796D01*
X105331769Y-42035550D01*
X105331768Y-42035545D01*
X105272188Y-41865276D01*
X105225744Y-41791361D01*
X105176216Y-41712538D01*
X105048662Y-41584984D01*
X105011286Y-41561499D01*
X104895921Y-41489010D01*
X104725649Y-41429430D01*
X104681761Y-41424485D01*
X104617347Y-41397417D01*
X104607965Y-41388946D01*
X102542364Y-39323345D01*
X107596656Y-39323345D01*
X107596656Y-39323352D01*
X107616851Y-39502598D01*
X107616852Y-39502603D01*
X107676432Y-39672872D01*
X107754956Y-39797841D01*
X107772405Y-39825611D01*
X107899959Y-39953165D01*
X108052699Y-40049138D01*
X108222966Y-40108717D01*
X108266856Y-40113662D01*
X108331269Y-40140727D01*
X108340654Y-40149201D01*
X108912460Y-40721008D01*
X108912464Y-40721011D01*
X109015232Y-40789679D01*
X109015245Y-40789686D01*
X109117402Y-40832000D01*
X109129437Y-40836985D01*
X109129441Y-40836985D01*
X109129442Y-40836986D01*
X109250666Y-40861100D01*
X109250669Y-40861100D01*
X109374275Y-40861100D01*
X123488319Y-40861100D01*
X123555358Y-40880785D01*
X123576000Y-40897419D01*
X124396146Y-41717565D01*
X124429631Y-41778888D01*
X124431685Y-41791361D01*
X124436630Y-41835249D01*
X124496210Y-42005521D01*
X124515079Y-42035550D01*
X124592184Y-42158262D01*
X124719738Y-42285816D01*
X124810080Y-42342582D01*
X124839586Y-42361122D01*
X124872478Y-42381789D01*
X124972754Y-42416877D01*
X125042745Y-42441368D01*
X125042750Y-42441369D01*
X125221996Y-42461565D01*
X125222000Y-42461565D01*
X125222004Y-42461565D01*
X125401249Y-42441369D01*
X125401252Y-42441368D01*
X125401255Y-42441368D01*
X125571522Y-42381789D01*
X125724262Y-42285816D01*
X125851816Y-42158262D01*
X125947789Y-42005522D01*
X126007368Y-41835255D01*
X126007696Y-41832350D01*
X126020660Y-41717285D01*
X126047726Y-41652871D01*
X126102924Y-41614127D01*
X126231922Y-41568989D01*
X126384662Y-41473016D01*
X126512216Y-41345462D01*
X126608189Y-41192722D01*
X126667768Y-41022455D01*
X126668408Y-41016776D01*
X126687965Y-40843203D01*
X126687965Y-40843196D01*
X126667769Y-40663950D01*
X126667768Y-40663945D01*
X126639336Y-40582691D01*
X126608189Y-40493678D01*
X126512216Y-40340938D01*
X126384662Y-40213384D01*
X126324139Y-40175355D01*
X126231921Y-40117410D01*
X126061649Y-40057830D01*
X126017761Y-40052885D01*
X125953347Y-40025817D01*
X125943965Y-40017346D01*
X124834611Y-38907991D01*
X124834610Y-38907990D01*
X124805919Y-38888820D01*
X124805918Y-38888819D01*
X124731838Y-38839320D01*
X124731826Y-38839313D01*
X124687823Y-38821087D01*
X124617635Y-38792014D01*
X124617627Y-38792012D01*
X124496407Y-38767900D01*
X124496403Y-38767900D01*
X109928300Y-38767900D01*
X109861261Y-38748215D01*
X109815506Y-38695411D01*
X109805080Y-38657784D01*
X109802169Y-38631949D01*
X109802168Y-38631945D01*
X109770421Y-38541218D01*
X109742589Y-38461678D01*
X109713605Y-38415551D01*
X109652177Y-38317789D01*
X109646616Y-38308938D01*
X109519062Y-38181384D01*
X109366323Y-38085411D01*
X109196054Y-38025831D01*
X109196049Y-38025830D01*
X109016804Y-38005635D01*
X109016796Y-38005635D01*
X108837550Y-38025830D01*
X108837545Y-38025831D01*
X108667276Y-38085411D01*
X108514537Y-38181384D01*
X108386984Y-38308937D01*
X108291012Y-38461675D01*
X108291010Y-38461679D01*
X108289800Y-38465138D01*
X108288416Y-38467067D01*
X108287993Y-38467946D01*
X108287838Y-38467871D01*
X108249074Y-38521912D01*
X108213715Y-38541218D01*
X108052699Y-38597559D01*
X107899958Y-38693533D01*
X107772405Y-38821086D01*
X107676432Y-38973825D01*
X107616852Y-39144094D01*
X107616851Y-39144099D01*
X107596656Y-39323345D01*
X102542364Y-39323345D01*
X100607820Y-37388800D01*
X132171338Y-37388800D01*
X132974212Y-37388800D01*
X132956995Y-37398740D01*
X132901140Y-37454595D01*
X132861644Y-37523004D01*
X132841200Y-37599304D01*
X132841200Y-37678296D01*
X132861644Y-37754596D01*
X132901140Y-37823005D01*
X132956995Y-37878860D01*
X132974212Y-37888800D01*
X132171338Y-37888800D01*
X132179630Y-37930490D01*
X132179630Y-37930492D01*
X132255007Y-38112471D01*
X132255014Y-38112484D01*
X132364448Y-38276262D01*
X132364451Y-38276266D01*
X132503733Y-38415548D01*
X132503737Y-38415551D01*
X132667515Y-38524985D01*
X132667528Y-38524992D01*
X132849506Y-38600369D01*
X132849518Y-38600372D01*
X133042704Y-38638799D01*
X133042708Y-38638800D01*
X133590155Y-38638800D01*
X133657194Y-38658485D01*
X133702949Y-38711289D01*
X133712893Y-38780447D01*
X133697542Y-38824800D01*
X133684920Y-38846661D01*
X133684920Y-38846662D01*
X133684920Y-38846663D01*
X133684919Y-38846665D01*
X133645700Y-38993034D01*
X133645700Y-39144566D01*
X133659488Y-39196023D01*
X133684919Y-39290936D01*
X133703631Y-39323345D01*
X133760685Y-39422165D01*
X133867835Y-39529315D01*
X133999065Y-39605081D01*
X134145434Y-39644300D01*
X134145436Y-39644300D01*
X134296964Y-39644300D01*
X134296966Y-39644300D01*
X134443335Y-39605081D01*
X134574565Y-39529315D01*
X134681715Y-39422165D01*
X134757481Y-39290935D01*
X134796700Y-39144566D01*
X134796700Y-38993034D01*
X134757481Y-38846665D01*
X134681715Y-38715435D01*
X134681710Y-38715430D01*
X134676768Y-38708989D01*
X134679586Y-38706826D01*
X134653897Y-38659779D01*
X134658881Y-38590087D01*
X134700753Y-38534154D01*
X134709820Y-38528385D01*
X134709813Y-38528374D01*
X134878662Y-38415551D01*
X134878666Y-38415548D01*
X135017948Y-38276266D01*
X135017951Y-38276262D01*
X135127385Y-38112484D01*
X135127392Y-38112471D01*
X135202769Y-37930492D01*
X135202769Y-37930490D01*
X135211062Y-37888800D01*
X134408188Y-37888800D01*
X134425405Y-37878860D01*
X134481260Y-37823005D01*
X134520756Y-37754596D01*
X134541200Y-37678296D01*
X134541200Y-37599304D01*
X134520756Y-37523004D01*
X134481260Y-37454595D01*
X134425405Y-37398740D01*
X134408188Y-37388800D01*
X135211062Y-37388800D01*
X136601338Y-37388800D01*
X137404212Y-37388800D01*
X137386995Y-37398740D01*
X137331140Y-37454595D01*
X137291644Y-37523004D01*
X137271200Y-37599304D01*
X137271200Y-37678296D01*
X137291644Y-37754596D01*
X137331140Y-37823005D01*
X137386995Y-37878860D01*
X137404212Y-37888800D01*
X136601338Y-37888800D01*
X136609630Y-37930490D01*
X136609630Y-37930492D01*
X136685007Y-38112471D01*
X136685014Y-38112484D01*
X136794448Y-38276262D01*
X136794451Y-38276266D01*
X136933733Y-38415548D01*
X136933737Y-38415551D01*
X137097515Y-38524985D01*
X137097528Y-38524992D01*
X137279506Y-38600369D01*
X137279518Y-38600372D01*
X137472704Y-38638799D01*
X137472708Y-38638800D01*
X137621200Y-38638800D01*
X137621200Y-37938800D01*
X138121200Y-37938800D01*
X138121200Y-38638800D01*
X138269692Y-38638800D01*
X138269695Y-38638799D01*
X138462881Y-38600372D01*
X138462893Y-38600369D01*
X138644871Y-38524992D01*
X138644884Y-38524985D01*
X138808662Y-38415551D01*
X138808666Y-38415548D01*
X138947948Y-38276266D01*
X138947951Y-38276262D01*
X139057385Y-38112484D01*
X139057392Y-38112471D01*
X139132769Y-37930492D01*
X139132769Y-37930490D01*
X139141062Y-37888800D01*
X138338188Y-37888800D01*
X138355405Y-37878860D01*
X138411260Y-37823005D01*
X138450756Y-37754596D01*
X138471200Y-37678296D01*
X138471200Y-37599304D01*
X138450756Y-37523004D01*
X138411260Y-37454595D01*
X138355405Y-37398740D01*
X138338188Y-37388800D01*
X139141062Y-37388800D01*
X139132769Y-37347109D01*
X139132769Y-37347107D01*
X139057392Y-37165128D01*
X139057385Y-37165115D01*
X138947951Y-37001337D01*
X138947948Y-37001333D01*
X138808666Y-36862051D01*
X138808662Y-36862048D01*
X138644884Y-36752614D01*
X138644871Y-36752607D01*
X138462893Y-36677230D01*
X138462881Y-36677227D01*
X138269695Y-36638800D01*
X138121200Y-36638800D01*
X138121200Y-37338800D01*
X137621200Y-37338800D01*
X137621200Y-36638800D01*
X137472704Y-36638800D01*
X137279518Y-36677227D01*
X137279506Y-36677230D01*
X137097528Y-36752607D01*
X137097515Y-36752614D01*
X136933737Y-36862048D01*
X136933733Y-36862051D01*
X136794451Y-37001333D01*
X136794448Y-37001337D01*
X136685014Y-37165115D01*
X136685007Y-37165128D01*
X136609630Y-37347107D01*
X136609630Y-37347109D01*
X136601338Y-37388800D01*
X135211062Y-37388800D01*
X135202769Y-37347109D01*
X135202769Y-37347107D01*
X135127392Y-37165128D01*
X135127385Y-37165115D01*
X135017951Y-37001337D01*
X135017948Y-37001333D01*
X134878666Y-36862051D01*
X134878662Y-36862048D01*
X134714884Y-36752614D01*
X134714871Y-36752607D01*
X134532893Y-36677230D01*
X134532881Y-36677227D01*
X134339695Y-36638800D01*
X133941200Y-36638800D01*
X133941200Y-37338800D01*
X133441200Y-37338800D01*
X133441200Y-36638800D01*
X133042704Y-36638800D01*
X132849518Y-36677227D01*
X132849506Y-36677230D01*
X132667528Y-36752607D01*
X132667515Y-36752614D01*
X132503737Y-36862048D01*
X132503733Y-36862051D01*
X132364451Y-37001333D01*
X132364448Y-37001337D01*
X132255014Y-37165115D01*
X132255007Y-37165128D01*
X132179630Y-37347107D01*
X132179630Y-37347109D01*
X132171338Y-37388800D01*
X100607820Y-37388800D01*
X99053611Y-35834591D01*
X99053610Y-35834590D01*
X99031383Y-35819739D01*
X99031382Y-35819738D01*
X98950839Y-35765920D01*
X98950826Y-35765913D01*
X98917385Y-35752062D01*
X98836635Y-35718614D01*
X98836627Y-35718612D01*
X98715407Y-35694500D01*
X98715403Y-35694500D01*
X88984472Y-35694500D01*
X88918500Y-35675494D01*
X88792323Y-35596211D01*
X88622054Y-35536631D01*
X88622049Y-35536630D01*
X88442804Y-35516435D01*
X88442796Y-35516435D01*
X88263550Y-35536630D01*
X88263545Y-35536631D01*
X88093276Y-35596211D01*
X87940537Y-35692184D01*
X87812984Y-35819737D01*
X87717011Y-35972476D01*
X87657431Y-36142745D01*
X87657430Y-36142750D01*
X87637235Y-36321996D01*
X87637235Y-36322003D01*
X87657430Y-36501249D01*
X87657431Y-36501254D01*
X87717011Y-36671523D01*
X87812984Y-36824262D01*
X87832640Y-36843918D01*
X87866125Y-36905241D01*
X87861141Y-36974933D01*
X87832641Y-37019279D01*
X87762185Y-37089736D01*
X87762184Y-37089737D01*
X87666211Y-37242476D01*
X87606631Y-37412745D01*
X87606630Y-37412750D01*
X87586435Y-37591996D01*
X66489965Y-37591996D01*
X66489165Y-37584901D01*
X66469769Y-37412750D01*
X66469768Y-37412745D01*
X66446800Y-37347107D01*
X66410189Y-37242478D01*
X66314216Y-37089738D01*
X66269159Y-37044681D01*
X66235674Y-36983358D01*
X66240658Y-36913666D01*
X66269159Y-36869319D01*
X66276430Y-36862048D01*
X66314216Y-36824262D01*
X66410189Y-36671522D01*
X66469768Y-36501255D01*
X66489965Y-36322000D01*
X66486279Y-36289289D01*
X66469769Y-36142750D01*
X66469768Y-36142745D01*
X66410188Y-35972476D01*
X66370982Y-35910080D01*
X66314216Y-35819738D01*
X66186662Y-35692184D01*
X66128014Y-35655333D01*
X66033923Y-35596211D01*
X65863654Y-35536631D01*
X65863649Y-35536630D01*
X65684404Y-35516435D01*
X65684396Y-35516435D01*
X65505150Y-35536630D01*
X65505137Y-35536633D01*
X65436815Y-35560541D01*
X65395860Y-35567500D01*
X58454540Y-35567500D01*
X58413585Y-35560541D01*
X58345262Y-35536633D01*
X58345249Y-35536630D01*
X58166004Y-35516435D01*
X58165996Y-35516435D01*
X57986750Y-35536630D01*
X57986745Y-35536631D01*
X57816476Y-35596211D01*
X57663737Y-35692184D01*
X57536184Y-35819737D01*
X57440211Y-35972476D01*
X57380631Y-36142745D01*
X57380630Y-36142750D01*
X57360435Y-36321996D01*
X57360435Y-36322003D01*
X57380630Y-36501249D01*
X57380631Y-36501254D01*
X57440211Y-36671523D01*
X57536184Y-36824262D01*
X57555840Y-36843918D01*
X57589325Y-36905241D01*
X57584341Y-36974933D01*
X57555841Y-37019279D01*
X57485385Y-37089736D01*
X57485384Y-37089737D01*
X57389411Y-37242476D01*
X57329831Y-37412745D01*
X57329830Y-37412750D01*
X57309635Y-37591996D01*
X47374772Y-37591996D01*
X47371157Y-37584901D01*
X47244359Y-37410379D01*
X47091821Y-37257841D01*
X46920704Y-37133517D01*
X46878040Y-37078188D01*
X46872061Y-37008574D01*
X46904667Y-36946780D01*
X46920702Y-36932884D01*
X47091821Y-36808559D01*
X47244359Y-36656021D01*
X47371157Y-36481499D01*
X47469092Y-36289289D01*
X47535754Y-36084126D01*
X47553438Y-35972476D01*
X47569500Y-35871066D01*
X47569500Y-35655333D01*
X47535754Y-35442277D01*
X47535754Y-35442274D01*
X47469092Y-35237111D01*
X47371157Y-35044901D01*
X47244359Y-34870379D01*
X47102375Y-34728395D01*
X47068890Y-34667072D01*
X47073874Y-34597380D01*
X47115746Y-34541447D01*
X47137657Y-34528329D01*
X47138322Y-34528017D01*
X47138334Y-34528014D01*
X47287656Y-34435912D01*
X47411712Y-34311856D01*
X47503814Y-34162534D01*
X47558999Y-33995997D01*
X47569500Y-33893209D01*
X47569499Y-32553192D01*
X47558999Y-32450403D01*
X47503814Y-32283866D01*
X47411712Y-32134544D01*
X47287656Y-32010488D01*
X47138334Y-31918386D01*
X46971797Y-31863201D01*
X46971795Y-31863200D01*
X46869010Y-31852700D01*
X45078998Y-31852700D01*
X45078981Y-31852701D01*
X44976203Y-31863200D01*
X44976200Y-31863201D01*
X44809668Y-31918385D01*
X44809663Y-31918387D01*
X44660342Y-32010489D01*
X44536289Y-32134542D01*
X44444187Y-32283863D01*
X44444186Y-32283866D01*
X44389001Y-32450403D01*
X44389001Y-32450404D01*
X44389000Y-32450404D01*
X44378500Y-32553183D01*
X42715300Y-32553183D01*
X42715300Y-31620000D01*
X42734985Y-31552961D01*
X42787789Y-31507206D01*
X42839300Y-31496000D01*
X140599500Y-31496000D01*
X140666539Y-31515685D01*
G37*
%TD.AperFunction*%
%TD*%
M02*
