%TF.GenerationSoftware,KiCad,Pcbnew,8.0.5*%
%TF.CreationDate,2024-10-29T11:33:28-05:00*%
%TF.ProjectId,golf_club_draft,676f6c66-5f63-46c7-9562-5f6472616674,rev?*%
%TF.SameCoordinates,Original*%
%TF.FileFunction,Paste,Top*%
%TF.FilePolarity,Positive*%
%FSLAX46Y46*%
G04 Gerber Fmt 4.6, Leading zero omitted, Abs format (unit mm)*
G04 Created by KiCad (PCBNEW 8.0.5) date 2024-10-29 11:33:28*
%MOMM*%
%LPD*%
G01*
G04 APERTURE LIST*
G04 Aperture macros list*
%AMRoundRect*
0 Rectangle with rounded corners*
0 $1 Rounding radius*
0 $2 $3 $4 $5 $6 $7 $8 $9 X,Y pos of 4 corners*
0 Add a 4 corners polygon primitive as box body*
4,1,4,$2,$3,$4,$5,$6,$7,$8,$9,$2,$3,0*
0 Add four circle primitives for the rounded corners*
1,1,$1+$1,$2,$3*
1,1,$1+$1,$4,$5*
1,1,$1+$1,$6,$7*
1,1,$1+$1,$8,$9*
0 Add four rect primitives between the rounded corners*
20,1,$1+$1,$2,$3,$4,$5,0*
20,1,$1+$1,$4,$5,$6,$7,0*
20,1,$1+$1,$6,$7,$8,$9,0*
20,1,$1+$1,$8,$9,$2,$3,0*%
G04 Aperture macros list end*
%ADD10RoundRect,0.250000X-0.325000X-0.450000X0.325000X-0.450000X0.325000X0.450000X-0.325000X0.450000X0*%
%ADD11RoundRect,0.250000X0.350000X0.450000X-0.350000X0.450000X-0.350000X-0.450000X0.350000X-0.450000X0*%
%ADD12RoundRect,0.250000X0.450000X-0.325000X0.450000X0.325000X-0.450000X0.325000X-0.450000X-0.325000X0*%
%ADD13RoundRect,0.250000X0.450000X-0.350000X0.450000X0.350000X-0.450000X0.350000X-0.450000X-0.350000X0*%
%ADD14RoundRect,0.250000X0.475000X-0.337500X0.475000X0.337500X-0.475000X0.337500X-0.475000X-0.337500X0*%
%ADD15RoundRect,0.250000X-0.475000X0.337500X-0.475000X-0.337500X0.475000X-0.337500X0.475000X0.337500X0*%
%ADD16RoundRect,0.250000X-0.350000X-0.450000X0.350000X-0.450000X0.350000X0.450000X-0.350000X0.450000X0*%
%ADD17R,1.050000X0.450000*%
%ADD18R,0.882000X0.537000*%
%ADD19RoundRect,0.375000X0.375000X-0.625000X0.375000X0.625000X-0.375000X0.625000X-0.375000X-0.625000X0*%
%ADD20RoundRect,0.500000X1.400000X-0.500000X1.400000X0.500000X-1.400000X0.500000X-1.400000X-0.500000X0*%
%ADD21R,0.900000X0.900000*%
%ADD22R,1.500000X0.900000*%
%ADD23R,0.900000X1.500000*%
%ADD24RoundRect,0.250000X-0.450000X0.350000X-0.450000X-0.350000X0.450000X-0.350000X0.450000X0.350000X0*%
%ADD25R,1.450000X0.600000*%
%ADD26R,1.450000X0.300000*%
%ADD27RoundRect,0.250000X0.275000X0.275000X-0.275000X0.275000X-0.275000X-0.275000X0.275000X-0.275000X0*%
%ADD28RoundRect,0.062500X0.350000X0.062500X-0.350000X0.062500X-0.350000X-0.062500X0.350000X-0.062500X0*%
%ADD29RoundRect,0.062500X0.062500X0.350000X-0.062500X0.350000X-0.062500X-0.350000X0.062500X-0.350000X0*%
%ADD30RoundRect,0.250000X-0.337500X-0.475000X0.337500X-0.475000X0.337500X0.475000X-0.337500X0.475000X0*%
G04 APERTURE END LIST*
D10*
%TO.C,D2*%
X127194200Y-35153600D03*
X129244200Y-35153600D03*
%TD*%
D11*
%TO.C,R5*%
X128168400Y-39268400D03*
X126168400Y-39268400D03*
%TD*%
D12*
%TO.C,D1*%
X114808000Y-45534800D03*
X114808000Y-43484800D03*
%TD*%
D13*
%TO.C,R3*%
X122326400Y-39776400D03*
X122326400Y-37776400D03*
%TD*%
D14*
%TO.C,C7*%
X61163200Y-41960800D03*
X61163200Y-39885800D03*
%TD*%
D15*
%TO.C,C1*%
X109778800Y-65786000D03*
X109778800Y-67861000D03*
%TD*%
D14*
%TO.C,C4*%
X119583200Y-51685100D03*
X119583200Y-49610100D03*
%TD*%
D16*
%TO.C,R12*%
X89017600Y-49022000D03*
X91017600Y-49022000D03*
%TD*%
D11*
%TO.C,R7*%
X54238400Y-35966400D03*
X52238400Y-35966400D03*
%TD*%
D17*
%TO.C,BATTCHARGER1*%
X123502800Y-46238700D03*
X123502800Y-45588700D03*
X123502800Y-44938700D03*
X123502800Y-44288700D03*
X123502800Y-43638700D03*
X123502800Y-42988700D03*
X123502800Y-42338700D03*
X123502800Y-41688700D03*
X117952800Y-41688700D03*
X117952800Y-42338700D03*
X117952800Y-42988700D03*
X117952800Y-43638700D03*
X117952800Y-44288700D03*
X117952800Y-44938700D03*
X117952800Y-45588700D03*
X117952800Y-46238700D03*
D18*
X121462800Y-45306200D03*
X121462800Y-44411200D03*
X121462800Y-43516200D03*
X121462800Y-42621200D03*
X119992800Y-45306200D03*
X119992800Y-44411200D03*
X119992800Y-43516200D03*
X119992800Y-42621200D03*
%TD*%
D19*
%TO.C,3V3LR1*%
X105192800Y-61824400D03*
X107492800Y-61824400D03*
D20*
X107492800Y-55524400D03*
D19*
X109792800Y-61824400D03*
%TD*%
D11*
%TO.C,R6*%
X56880000Y-33223200D03*
X54880000Y-33223200D03*
%TD*%
D15*
%TO.C,C3*%
X121920000Y-65786000D03*
X121920000Y-67861000D03*
%TD*%
D19*
%TO.C,1V8LR1*%
X117334000Y-61824400D03*
X119634000Y-61824400D03*
D20*
X119634000Y-55524400D03*
D19*
X121934000Y-61824400D03*
%TD*%
D21*
%TO.C,U3*%
X74252800Y-38832000D03*
X74252800Y-40232000D03*
X74252800Y-41632000D03*
X75652800Y-38832000D03*
X75652800Y-40232000D03*
X75652800Y-41632000D03*
X77052800Y-38832000D03*
X77052800Y-40232000D03*
X77052800Y-41632000D03*
D22*
X68402800Y-32512000D03*
X68402800Y-33782000D03*
X68402800Y-35052000D03*
X68402800Y-36322000D03*
X68402800Y-37592000D03*
X68402800Y-38862000D03*
X68402800Y-40132000D03*
X68402800Y-41402000D03*
X68402800Y-42672000D03*
X68402800Y-43942000D03*
X68402800Y-45212000D03*
X68402800Y-46482000D03*
X68402800Y-47752000D03*
X68402800Y-49022000D03*
D23*
X70167800Y-50272000D03*
X71437800Y-50272000D03*
X72707800Y-50272000D03*
X73977800Y-50272000D03*
X75247800Y-50272000D03*
X76517800Y-50272000D03*
X77787800Y-50272000D03*
X79057800Y-50272000D03*
X80327800Y-50272000D03*
X81597800Y-50272000D03*
X82867800Y-50272000D03*
X84137800Y-50272000D03*
D22*
X85902800Y-49022000D03*
X85902800Y-47752000D03*
X85902800Y-46482000D03*
X85902800Y-45212000D03*
X85902800Y-43942000D03*
X85902800Y-42672000D03*
X85902800Y-41402000D03*
X85902800Y-40132000D03*
X85902800Y-38862000D03*
X85902800Y-37592000D03*
X85902800Y-36322000D03*
X85902800Y-35052000D03*
X85902800Y-33782000D03*
X85902800Y-32512000D03*
%TD*%
D11*
%TO.C,R10*%
X99993200Y-47752000D03*
X97993200Y-47752000D03*
%TD*%
D24*
%TO.C,R1*%
X115925600Y-39132000D03*
X115925600Y-41132000D03*
%TD*%
D13*
%TO.C,R11*%
X63906400Y-46008800D03*
X63906400Y-44008800D03*
%TD*%
D11*
%TO.C,R4*%
X129540000Y-43230800D03*
X127540000Y-43230800D03*
%TD*%
D25*
%TO.C,J1*%
X132776200Y-45208800D03*
X132776200Y-44408800D03*
D26*
X132776200Y-43208800D03*
X132776200Y-42208800D03*
X132776200Y-41708800D03*
X132776200Y-40708800D03*
D25*
X132776200Y-39508800D03*
X132776200Y-38708800D03*
X132776200Y-38708800D03*
X132776200Y-39508800D03*
D26*
X132776200Y-40208800D03*
X132776200Y-41208800D03*
X132776200Y-42708800D03*
X132776200Y-43708800D03*
D25*
X132776200Y-44408800D03*
X132776200Y-45208800D03*
%TD*%
D11*
%TO.C,R8*%
X54797200Y-39420800D03*
X52797200Y-39420800D03*
%TD*%
D24*
%TO.C,R2*%
X105054400Y-44043600D03*
X105054400Y-46043600D03*
%TD*%
D11*
%TO.C,R9*%
X55695600Y-43281600D03*
X53695600Y-43281600D03*
%TD*%
D27*
%TO.C,U2*%
X105189300Y-39644400D03*
X105189300Y-38344400D03*
X103889300Y-39644400D03*
X103889300Y-38344400D03*
D28*
X106476800Y-40244400D03*
X106476800Y-39744400D03*
X106476800Y-39244400D03*
X106476800Y-38744400D03*
X106476800Y-38244400D03*
X106476800Y-37744400D03*
D29*
X105789300Y-37056900D03*
X105289300Y-37056900D03*
X104789300Y-37056900D03*
X104289300Y-37056900D03*
X103789300Y-37056900D03*
X103289300Y-37056900D03*
D28*
X102601800Y-37744400D03*
X102601800Y-38244400D03*
X102601800Y-38744400D03*
X102601800Y-39244400D03*
X102601800Y-39744400D03*
X102601800Y-40244400D03*
D29*
X103289300Y-40931900D03*
X103789300Y-40931900D03*
X104289300Y-40931900D03*
X104789300Y-40931900D03*
X105289300Y-40931900D03*
X105789300Y-40931900D03*
%TD*%
D30*
%TO.C,C2*%
X112377400Y-55372000D03*
X114452400Y-55372000D03*
%TD*%
D14*
%TO.C,C6*%
X117906800Y-35204400D03*
X117906800Y-33129400D03*
%TD*%
D30*
%TO.C,C5*%
X128146900Y-46228000D03*
X130221900Y-46228000D03*
%TD*%
M02*
