%TF.GenerationSoftware,KiCad,Pcbnew,8.0.5*%
%TF.CreationDate,2024-10-29T11:33:28-05:00*%
%TF.ProjectId,golf_club_draft,676f6c66-5f63-46c7-9562-5f6472616674,rev?*%
%TF.SameCoordinates,Original*%
%TF.FileFunction,Copper,L1,Top*%
%TF.FilePolarity,Positive*%
%FSLAX46Y46*%
G04 Gerber Fmt 4.6, Leading zero omitted, Abs format (unit mm)*
G04 Created by KiCad (PCBNEW 8.0.5) date 2024-10-29 11:33:28*
%MOMM*%
%LPD*%
G01*
G04 APERTURE LIST*
G04 Aperture macros list*
%AMRoundRect*
0 Rectangle with rounded corners*
0 $1 Rounding radius*
0 $2 $3 $4 $5 $6 $7 $8 $9 X,Y pos of 4 corners*
0 Add a 4 corners polygon primitive as box body*
4,1,4,$2,$3,$4,$5,$6,$7,$8,$9,$2,$3,0*
0 Add four circle primitives for the rounded corners*
1,1,$1+$1,$2,$3*
1,1,$1+$1,$4,$5*
1,1,$1+$1,$6,$7*
1,1,$1+$1,$8,$9*
0 Add four rect primitives between the rounded corners*
20,1,$1+$1,$2,$3,$4,$5,0*
20,1,$1+$1,$4,$5,$6,$7,0*
20,1,$1+$1,$6,$7,$8,$9,0*
20,1,$1+$1,$8,$9,$2,$3,0*%
G04 Aperture macros list end*
%TA.AperFunction,SMDPad,CuDef*%
%ADD10RoundRect,0.250000X-0.325000X-0.450000X0.325000X-0.450000X0.325000X0.450000X-0.325000X0.450000X0*%
%TD*%
%TA.AperFunction,ComponentPad*%
%ADD11R,1.000000X1.000000*%
%TD*%
%TA.AperFunction,ComponentPad*%
%ADD12O,1.000000X1.000000*%
%TD*%
%TA.AperFunction,SMDPad,CuDef*%
%ADD13RoundRect,0.250000X0.350000X0.450000X-0.350000X0.450000X-0.350000X-0.450000X0.350000X-0.450000X0*%
%TD*%
%TA.AperFunction,ComponentPad*%
%ADD14RoundRect,0.250000X-0.845000X0.620000X-0.845000X-0.620000X0.845000X-0.620000X0.845000X0.620000X0*%
%TD*%
%TA.AperFunction,ComponentPad*%
%ADD15O,2.190000X1.740000*%
%TD*%
%TA.AperFunction,SMDPad,CuDef*%
%ADD16RoundRect,0.250000X0.450000X-0.325000X0.450000X0.325000X-0.450000X0.325000X-0.450000X-0.325000X0*%
%TD*%
%TA.AperFunction,SMDPad,CuDef*%
%ADD17RoundRect,0.250000X0.450000X-0.350000X0.450000X0.350000X-0.450000X0.350000X-0.450000X-0.350000X0*%
%TD*%
%TA.AperFunction,SMDPad,CuDef*%
%ADD18RoundRect,0.250000X0.475000X-0.337500X0.475000X0.337500X-0.475000X0.337500X-0.475000X-0.337500X0*%
%TD*%
%TA.AperFunction,SMDPad,CuDef*%
%ADD19RoundRect,0.250000X-0.475000X0.337500X-0.475000X-0.337500X0.475000X-0.337500X0.475000X0.337500X0*%
%TD*%
%TA.AperFunction,SMDPad,CuDef*%
%ADD20RoundRect,0.250000X-0.350000X-0.450000X0.350000X-0.450000X0.350000X0.450000X-0.350000X0.450000X0*%
%TD*%
%TA.AperFunction,SMDPad,CuDef*%
%ADD21R,1.050000X0.450000*%
%TD*%
%TA.AperFunction,SMDPad,CuDef*%
%ADD22R,1.470000X0.895000*%
%TD*%
%TA.AperFunction,SMDPad,CuDef*%
%ADD23RoundRect,0.375000X0.375000X-0.625000X0.375000X0.625000X-0.375000X0.625000X-0.375000X-0.625000X0*%
%TD*%
%TA.AperFunction,SMDPad,CuDef*%
%ADD24RoundRect,0.500000X1.400000X-0.500000X1.400000X0.500000X-1.400000X0.500000X-1.400000X-0.500000X0*%
%TD*%
%TA.AperFunction,SMDPad,CuDef*%
%ADD25R,1.500000X0.900000*%
%TD*%
%TA.AperFunction,SMDPad,CuDef*%
%ADD26R,0.900000X1.500000*%
%TD*%
%TA.AperFunction,HeatsinkPad*%
%ADD27C,0.600000*%
%TD*%
%TA.AperFunction,SMDPad,CuDef*%
%ADD28R,3.900000X3.900000*%
%TD*%
%TA.AperFunction,ComponentPad*%
%ADD29RoundRect,0.250000X0.845000X-0.620000X0.845000X0.620000X-0.845000X0.620000X-0.845000X-0.620000X0*%
%TD*%
%TA.AperFunction,SMDPad,CuDef*%
%ADD30RoundRect,0.250000X-0.450000X0.350000X-0.450000X-0.350000X0.450000X-0.350000X0.450000X0.350000X0*%
%TD*%
%TA.AperFunction,ComponentPad*%
%ADD31RoundRect,0.250000X-0.620000X-0.845000X0.620000X-0.845000X0.620000X0.845000X-0.620000X0.845000X0*%
%TD*%
%TA.AperFunction,ComponentPad*%
%ADD32O,1.740000X2.190000*%
%TD*%
%TA.AperFunction,SMDPad,CuDef*%
%ADD33R,1.450000X0.600000*%
%TD*%
%TA.AperFunction,SMDPad,CuDef*%
%ADD34R,1.450000X0.300000*%
%TD*%
%TA.AperFunction,ComponentPad*%
%ADD35O,2.100000X1.000000*%
%TD*%
%TA.AperFunction,ComponentPad*%
%ADD36O,1.600000X1.000000*%
%TD*%
%TA.AperFunction,SMDPad,CuDef*%
%ADD37RoundRect,0.062500X0.350000X0.062500X-0.350000X0.062500X-0.350000X-0.062500X0.350000X-0.062500X0*%
%TD*%
%TA.AperFunction,SMDPad,CuDef*%
%ADD38RoundRect,0.062500X0.062500X0.350000X-0.062500X0.350000X-0.062500X-0.350000X0.062500X-0.350000X0*%
%TD*%
%TA.AperFunction,HeatsinkPad*%
%ADD39R,2.600000X2.600000*%
%TD*%
%TA.AperFunction,SMDPad,CuDef*%
%ADD40RoundRect,0.250000X-0.337500X-0.475000X0.337500X-0.475000X0.337500X0.475000X-0.337500X0.475000X0*%
%TD*%
%TA.AperFunction,ViaPad*%
%ADD41C,0.600000*%
%TD*%
%TA.AperFunction,Conductor*%
%ADD42C,0.254000*%
%TD*%
%TA.AperFunction,Conductor*%
%ADD43C,0.508000*%
%TD*%
%TA.AperFunction,Conductor*%
%ADD44C,0.762000*%
%TD*%
G04 APERTURE END LIST*
D10*
%TO.P,D2,1,K*%
%TO.N,/VIN*%
X127194200Y-35153600D03*
%TO.P,D2,2,A*%
%TO.N,Net-(D2-A)*%
X129244200Y-35153600D03*
%TD*%
D11*
%TO.P,Q1,1,C*%
%TO.N,/VBATT*%
X124866400Y-50139600D03*
D12*
%TO.P,Q1,2,B*%
%TO.N,Net-(BATTCHARGER1-DRIVE)*%
X123596400Y-50139600D03*
%TO.P,Q1,3,E*%
%TO.N,Net-(BATTCHARGER1-SENSE)*%
X122326400Y-50139600D03*
%TD*%
D13*
%TO.P,R5,1*%
%TO.N,Net-(J1-CC2)*%
X128168400Y-39268400D03*
%TO.P,R5,2*%
%TO.N,GND*%
X126168400Y-39268400D03*
%TD*%
D14*
%TO.P,FSR_V1,1,Pin_1*%
%TO.N,/3V3*%
X45974000Y-60350400D03*
D15*
%TO.P,FSR_V1,2,Pin_2*%
X45974000Y-62890400D03*
%TO.P,FSR_V1,3,Pin_3*%
X45974000Y-65430400D03*
%TO.P,FSR_V1,4,Pin_4*%
X45974000Y-67970400D03*
%TD*%
D16*
%TO.P,D1,1,K*%
%TO.N,Net-(BATTCHARGER1-~{CHRG})*%
X114808000Y-45534800D03*
%TO.P,D1,2,A*%
%TO.N,Net-(D1-A)*%
X114808000Y-43484800D03*
%TD*%
D11*
%TO.P,Q3,1,C*%
%TO.N,Net-(Q3-C)*%
X94564600Y-49027000D03*
D12*
%TO.P,Q3,2,B*%
%TO.N,Net-(Q3-B)*%
X94564600Y-47757000D03*
%TO.P,Q3,3,E*%
%TO.N,/DTR*%
X94564600Y-46487000D03*
%TD*%
D17*
%TO.P,R3,1*%
%TO.N,Net-(BATTCHARGER1-PROG)*%
X122326400Y-39776400D03*
%TO.P,R3,2*%
%TO.N,GND*%
X122326400Y-37776400D03*
%TD*%
D18*
%TO.P,C7,1*%
%TO.N,GND*%
X61163200Y-41960800D03*
%TO.P,C7,2*%
%TO.N,/RESET*%
X61163200Y-39885800D03*
%TD*%
D19*
%TO.P,C1,1*%
%TO.N,/VBATT*%
X109778800Y-65786000D03*
%TO.P,C1,2*%
%TO.N,GND*%
X109778800Y-67861000D03*
%TD*%
D18*
%TO.P,C4,1*%
%TO.N,/1V8*%
X119583200Y-51685100D03*
%TO.P,C4,2*%
%TO.N,GND*%
X119583200Y-49610100D03*
%TD*%
D20*
%TO.P,R12,1*%
%TO.N,/GPIO0*%
X89017600Y-49022000D03*
%TO.P,R12,2*%
%TO.N,Net-(Q3-C)*%
X91017600Y-49022000D03*
%TD*%
D14*
%TO.P,FSR_IO1,1,Pin_1*%
%TO.N,/FSR1*%
X45974000Y-33223200D03*
D15*
%TO.P,FSR_IO1,2,Pin_2*%
%TO.N,/FSR2*%
X45974000Y-35763200D03*
%TO.P,FSR_IO1,3,Pin_3*%
%TO.N,/FSR3*%
X45974000Y-38303200D03*
%TO.P,FSR_IO1,4,Pin_4*%
%TO.N,/FSR4*%
X45974000Y-40843200D03*
%TD*%
D13*
%TO.P,R7,1*%
%TO.N,GND*%
X54238400Y-35966400D03*
%TO.P,R7,2*%
%TO.N,/FSR2*%
X52238400Y-35966400D03*
%TD*%
D21*
%TO.P,BATTCHARGER1,1,DRIVE*%
%TO.N,Net-(BATTCHARGER1-DRIVE)*%
X123502800Y-46238700D03*
%TO.P,BATTCHARGER1,2,BAT*%
%TO.N,/VBATT*%
X123502800Y-45588700D03*
%TO.P,BATTCHARGER1,3,SENSE*%
%TO.N,Net-(BATTCHARGER1-SENSE)*%
X123502800Y-44938700D03*
%TO.P,BATTCHARGER1,4,TIMER*%
%TO.N,Net-(BATTCHARGER1-TIMER)*%
X123502800Y-44288700D03*
%TO.P,BATTCHARGER1,5,~{SHDN}*%
%TO.N,/VIN*%
X123502800Y-43638700D03*
%TO.P,BATTCHARGER1,6,PAUSE*%
%TO.N,GND*%
X123502800Y-42988700D03*
%TO.P,BATTCHARGER1,7,PROG*%
%TO.N,Net-(BATTCHARGER1-PROG)*%
X123502800Y-42338700D03*
%TO.P,BATTCHARGER1,8,ARCT*%
%TO.N,/VIN*%
X123502800Y-41688700D03*
%TO.P,BATTCHARGER1,9,SEL0*%
X117952800Y-41688700D03*
%TO.P,BATTCHARGER1,10,SEL1*%
X117952800Y-42338700D03*
%TO.P,BATTCHARGER1,11,NTC*%
%TO.N,GND*%
X117952800Y-42988700D03*
%TO.P,BATTCHARGER1,12,CHEM*%
X117952800Y-43638700D03*
%TO.P,BATTCHARGER1,13,~{ACP}*%
%TO.N,unconnected-(BATTCHARGER1-~{ACP}-Pad13)*%
X117952800Y-44288700D03*
%TO.P,BATTCHARGER1,14,V_{CC}*%
%TO.N,/VIN*%
X117952800Y-44938700D03*
%TO.P,BATTCHARGER1,15,~{CHRG}*%
%TO.N,Net-(BATTCHARGER1-~{CHRG})*%
X117952800Y-45588700D03*
%TO.P,BATTCHARGER1,16,GND*%
%TO.N,GND*%
X117952800Y-46238700D03*
D22*
%TO.P,BATTCHARGER1,17,GNDPAD*%
X121462800Y-45306200D03*
X121462800Y-44411200D03*
X121462800Y-43516200D03*
X121462800Y-42621200D03*
X119992800Y-45306200D03*
X119992800Y-44411200D03*
X119992800Y-43516200D03*
X119992800Y-42621200D03*
%TD*%
D23*
%TO.P,3V3LR1,1,GND*%
%TO.N,GND*%
X105192800Y-61824400D03*
%TO.P,3V3LR1,2,VO*%
%TO.N,/3V3*%
X107492800Y-61824400D03*
D24*
X107492800Y-55524400D03*
D23*
%TO.P,3V3LR1,3,VI*%
%TO.N,/VBATT*%
X109792800Y-61824400D03*
%TD*%
D13*
%TO.P,R6,1*%
%TO.N,GND*%
X56880000Y-33223200D03*
%TO.P,R6,2*%
%TO.N,/FSR1*%
X54880000Y-33223200D03*
%TD*%
D19*
%TO.P,C3,1*%
%TO.N,/VBATT*%
X121920000Y-65786000D03*
%TO.P,C3,2*%
%TO.N,GND*%
X121920000Y-67861000D03*
%TD*%
D23*
%TO.P,1V8LR1,1,GND*%
%TO.N,GND*%
X117334000Y-61824400D03*
%TO.P,1V8LR1,2,VO*%
%TO.N,/1V8*%
X119634000Y-61824400D03*
D24*
X119634000Y-55524400D03*
D23*
%TO.P,1V8LR1,3,VI*%
%TO.N,/VBATT*%
X121934000Y-61824400D03*
%TD*%
D25*
%TO.P,U3,1,GND*%
%TO.N,GND*%
X68402800Y-32512000D03*
%TO.P,U3,2,3V3*%
%TO.N,/3V3*%
X68402800Y-33782000D03*
%TO.P,U3,3,EN*%
%TO.N,/RESET*%
X68402800Y-35052000D03*
%TO.P,U3,4,IO4*%
%TO.N,/FSR1*%
X68402800Y-36322000D03*
%TO.P,U3,5,IO5*%
%TO.N,/FSR2*%
X68402800Y-37592000D03*
%TO.P,U3,6,IO6*%
%TO.N,/FSR3*%
X68402800Y-38862000D03*
%TO.P,U3,7,IO7*%
%TO.N,/FSR4*%
X68402800Y-40132000D03*
%TO.P,U3,8,IO15*%
%TO.N,unconnected-(U3-IO15-Pad8)*%
X68402800Y-41402000D03*
%TO.P,U3,9,IO16*%
%TO.N,unconnected-(U3-IO16-Pad9)*%
X68402800Y-42672000D03*
%TO.P,U3,10,IO17*%
%TO.N,unconnected-(U3-IO17-Pad10)*%
X68402800Y-43942000D03*
%TO.P,U3,11,IO18*%
%TO.N,unconnected-(U3-IO18-Pad11)*%
X68402800Y-45212000D03*
%TO.P,U3,12,IO8*%
%TO.N,unconnected-(U3-IO8-Pad12)*%
X68402800Y-46482000D03*
%TO.P,U3,13,IO19*%
%TO.N,unconnected-(U3-IO19-Pad13)*%
X68402800Y-47752000D03*
%TO.P,U3,14,IO20*%
%TO.N,unconnected-(U3-IO20-Pad14)*%
X68402800Y-49022000D03*
D26*
%TO.P,U3,15,IO3*%
%TO.N,unconnected-(U3-IO3-Pad15)*%
X70167800Y-50272000D03*
%TO.P,U3,16,IO46*%
%TO.N,unconnected-(U3-IO46-Pad16)*%
X71437800Y-50272000D03*
%TO.P,U3,17,IO9*%
%TO.N,unconnected-(U3-IO9-Pad17)*%
X72707800Y-50272000D03*
%TO.P,U3,18,IO10*%
%TO.N,unconnected-(U3-IO10-Pad18)*%
X73977800Y-50272000D03*
%TO.P,U3,19,IO11*%
%TO.N,/SDA*%
X75247800Y-50272000D03*
%TO.P,U3,20,IO12*%
%TO.N,/SCL*%
X76517800Y-50272000D03*
%TO.P,U3,21,IO13*%
%TO.N,unconnected-(U3-IO13-Pad21)*%
X77787800Y-50272000D03*
%TO.P,U3,22,IO14*%
%TO.N,unconnected-(U3-IO14-Pad22)*%
X79057800Y-50272000D03*
%TO.P,U3,23,IO21*%
%TO.N,unconnected-(U3-IO21-Pad23)*%
X80327800Y-50272000D03*
%TO.P,U3,24,IO47*%
%TO.N,unconnected-(U3-IO47-Pad24)*%
X81597800Y-50272000D03*
%TO.P,U3,25,IO48*%
%TO.N,unconnected-(U3-IO48-Pad25)*%
X82867800Y-50272000D03*
%TO.P,U3,26,IO45*%
%TO.N,unconnected-(U3-IO45-Pad26)*%
X84137800Y-50272000D03*
D25*
%TO.P,U3,27,IO0*%
%TO.N,/GPIO0*%
X85902800Y-49022000D03*
%TO.P,U3,28,IO35*%
%TO.N,unconnected-(U3-IO35-Pad28)*%
X85902800Y-47752000D03*
%TO.P,U3,29,IO36*%
%TO.N,unconnected-(U3-IO36-Pad29)*%
X85902800Y-46482000D03*
%TO.P,U3,30,IO37*%
%TO.N,unconnected-(U3-IO37-Pad30)*%
X85902800Y-45212000D03*
%TO.P,U3,31,IO38*%
%TO.N,unconnected-(U3-IO38-Pad31)*%
X85902800Y-43942000D03*
%TO.P,U3,32,IO39*%
%TO.N,unconnected-(U3-IO39-Pad32)*%
X85902800Y-42672000D03*
%TO.P,U3,33,IO40*%
%TO.N,unconnected-(U3-IO40-Pad33)*%
X85902800Y-41402000D03*
%TO.P,U3,34,IO41*%
%TO.N,unconnected-(U3-IO41-Pad34)*%
X85902800Y-40132000D03*
%TO.P,U3,35,IO42*%
%TO.N,unconnected-(U3-IO42-Pad35)*%
X85902800Y-38862000D03*
%TO.P,U3,36,RXD0*%
%TO.N,/RXD*%
X85902800Y-37592000D03*
%TO.P,U3,37,TXD0*%
%TO.N,/TXD*%
X85902800Y-36322000D03*
%TO.P,U3,38,IO2*%
%TO.N,unconnected-(U3-IO2-Pad38)*%
X85902800Y-35052000D03*
%TO.P,U3,39,IO1*%
%TO.N,unconnected-(U3-IO1-Pad39)*%
X85902800Y-33782000D03*
%TO.P,U3,40,GND*%
%TO.N,GND*%
X85902800Y-32512000D03*
D27*
%TO.P,U3,41,GND*%
X74252800Y-39532000D03*
X74252800Y-40932000D03*
X74952800Y-38832000D03*
X74952800Y-40232000D03*
X74952800Y-41632000D03*
X75652800Y-39532000D03*
D28*
X75652800Y-40232000D03*
D27*
X75652800Y-40932000D03*
X76352800Y-38832000D03*
X76352800Y-40232000D03*
X76352800Y-41632000D03*
X77052800Y-39532000D03*
X77052800Y-40932000D03*
%TD*%
D29*
%TO.P,BATTIO1,1,Pin_1*%
%TO.N,unconnected-(BATTIO1-Pin_1-Pad1)*%
X137515600Y-68376800D03*
D15*
%TO.P,BATTIO1,2,Pin_2*%
%TO.N,/VBATT*%
X137515600Y-65836800D03*
%TO.P,BATTIO1,3,Pin_3*%
%TO.N,GND*%
X137515600Y-63296800D03*
%TD*%
D13*
%TO.P,R10,1*%
%TO.N,/RTS*%
X99993200Y-47752000D03*
%TO.P,R10,2*%
%TO.N,Net-(Q3-B)*%
X97993200Y-47752000D03*
%TD*%
D30*
%TO.P,R1,1*%
%TO.N,/VIN*%
X115925600Y-39132000D03*
%TO.P,R1,2*%
%TO.N,Net-(D1-A)*%
X115925600Y-41132000D03*
%TD*%
D31*
%TO.P,IMU_IO1,1,Pin_1*%
%TO.N,/3V3*%
X72034400Y-61386400D03*
D32*
%TO.P,IMU_IO1,2,Pin_2*%
%TO.N,/SDA*%
X74574400Y-61386400D03*
%TO.P,IMU_IO1,3,Pin_3*%
%TO.N,/SCL*%
X77114400Y-61386400D03*
%TO.P,IMU_IO1,4,Pin_4*%
%TO.N,GND*%
X79654400Y-61386400D03*
%TO.P,IMU_IO1,5,Pin_5*%
%TO.N,/1V8*%
X82194400Y-61386400D03*
%TD*%
D17*
%TO.P,R11,1*%
%TO.N,Net-(Q2-C)*%
X63906400Y-46008800D03*
%TO.P,R11,2*%
%TO.N,/RESET*%
X63906400Y-44008800D03*
%TD*%
D13*
%TO.P,R4,1*%
%TO.N,Net-(J1-CC1)*%
X129540000Y-43230800D03*
%TO.P,R4,2*%
%TO.N,GND*%
X127540000Y-43230800D03*
%TD*%
D33*
%TO.P,J1,A1,GND*%
%TO.N,GND*%
X132776200Y-45208800D03*
%TO.P,J1,A4,VBUS*%
%TO.N,Net-(D2-A)*%
X132776200Y-44408800D03*
D34*
%TO.P,J1,A5,CC1*%
%TO.N,Net-(J1-CC1)*%
X132776200Y-43208800D03*
%TO.P,J1,A6,D+*%
%TO.N,/D+*%
X132776200Y-42208800D03*
%TO.P,J1,A7,D-*%
%TO.N,/D-*%
X132776200Y-41708800D03*
%TO.P,J1,A8,SBU1*%
%TO.N,unconnected-(J1-SBU1-PadA8)*%
X132776200Y-40708800D03*
D33*
%TO.P,J1,A9,VBUS*%
%TO.N,Net-(D2-A)*%
X132776200Y-39508800D03*
%TO.P,J1,A12,GND*%
%TO.N,GND*%
X132776200Y-38708800D03*
%TO.P,J1,B1,GND*%
X132776200Y-38708800D03*
%TO.P,J1,B4,VBUS*%
%TO.N,Net-(D2-A)*%
X132776200Y-39508800D03*
D34*
%TO.P,J1,B5,CC2*%
%TO.N,Net-(J1-CC2)*%
X132776200Y-40208800D03*
%TO.P,J1,B6,D+*%
%TO.N,unconnected-(J1-D+-PadB6)*%
X132776200Y-41208800D03*
%TO.P,J1,B7,D-*%
%TO.N,unconnected-(J1-D--PadB7)*%
X132776200Y-42708800D03*
%TO.P,J1,B8,SBU2*%
%TO.N,unconnected-(J1-SBU2-PadB8)*%
X132776200Y-43708800D03*
D33*
%TO.P,J1,B9,VBUS*%
%TO.N,Net-(D2-A)*%
X132776200Y-44408800D03*
%TO.P,J1,B12,GND*%
%TO.N,GND*%
X132776200Y-45208800D03*
D35*
%TO.P,J1,S1,SHIELD*%
X133691200Y-46278800D03*
D36*
X137871200Y-46278800D03*
D35*
X133691200Y-37638800D03*
D36*
X137871200Y-37638800D03*
%TD*%
D13*
%TO.P,R8,1*%
%TO.N,GND*%
X54797200Y-39420800D03*
%TO.P,R8,2*%
%TO.N,/FSR3*%
X52797200Y-39420800D03*
%TD*%
D30*
%TO.P,R2,1*%
%TO.N,/DTR*%
X105054400Y-44043600D03*
%TO.P,R2,2*%
%TO.N,Net-(Q2-B)*%
X105054400Y-46043600D03*
%TD*%
D13*
%TO.P,R9,1*%
%TO.N,GND*%
X55695600Y-43281600D03*
%TO.P,R9,2*%
%TO.N,/FSR4*%
X53695600Y-43281600D03*
%TD*%
D37*
%TO.P,U2,1,~{RI}*%
%TO.N,unconnected-(U2-~{RI}-Pad1)*%
X106476800Y-40244400D03*
%TO.P,U2,2,GND*%
%TO.N,GND*%
X106476800Y-39744400D03*
%TO.P,U2,3,D+*%
%TO.N,/D+*%
X106476800Y-39244400D03*
%TO.P,U2,4,D-*%
%TO.N,/D-*%
X106476800Y-38744400D03*
%TO.P,U2,5,VIO*%
%TO.N,Net-(U2-VDD)*%
X106476800Y-38244400D03*
%TO.P,U2,6,VDD*%
X106476800Y-37744400D03*
D38*
%TO.P,U2,7,REGIN*%
%TO.N,/VIN*%
X105789300Y-37056900D03*
%TO.P,U2,8,VBUS*%
X105289300Y-37056900D03*
%TO.P,U2,9,~{RST}*%
%TO.N,unconnected-(U2-~{RST}-Pad9)*%
X104789300Y-37056900D03*
%TO.P,U2,10,NC*%
%TO.N,unconnected-(U2-NC-Pad10)*%
X104289300Y-37056900D03*
%TO.P,U2,11,GPIO.3*%
%TO.N,unconnected-(U2-GPIO.3-Pad11)*%
X103789300Y-37056900D03*
%TO.P,U2,12,RS485/GPIO.2*%
%TO.N,unconnected-(U2-RS485{slash}GPIO.2-Pad12)*%
X103289300Y-37056900D03*
D37*
%TO.P,U2,13,RXT/GPIO.1*%
%TO.N,unconnected-(U2-RXT{slash}GPIO.1-Pad13)*%
X102601800Y-37744400D03*
%TO.P,U2,14,TXT/GPIO.0*%
%TO.N,unconnected-(U2-TXT{slash}GPIO.0-Pad14)*%
X102601800Y-38244400D03*
%TO.P,U2,15,~{SUSPEND}*%
%TO.N,unconnected-(U2-~{SUSPEND}-Pad15)*%
X102601800Y-38744400D03*
%TO.P,U2,16,VPP*%
%TO.N,unconnected-(U2-VPP-Pad16)*%
X102601800Y-39244400D03*
%TO.P,U2,17,SUSPEND*%
%TO.N,unconnected-(U2-SUSPEND-Pad17)*%
X102601800Y-39744400D03*
%TO.P,U2,18,~{CTS}*%
%TO.N,unconnected-(U2-~{CTS}-Pad18)*%
X102601800Y-40244400D03*
D38*
%TO.P,U2,19,~{RTS}*%
%TO.N,/RTS*%
X103289300Y-40931900D03*
%TO.P,U2,20,RXD*%
%TO.N,/RXD*%
X103789300Y-40931900D03*
%TO.P,U2,21,TXD*%
%TO.N,/TXD*%
X104289300Y-40931900D03*
%TO.P,U2,22,~{DSR}*%
%TO.N,unconnected-(U2-~{DSR}-Pad22)*%
X104789300Y-40931900D03*
%TO.P,U2,23,~{DTR}*%
%TO.N,/DTR*%
X105289300Y-40931900D03*
%TO.P,U2,24,~{DCD}*%
%TO.N,unconnected-(U2-~{DCD}-Pad24)*%
X105789300Y-40931900D03*
D39*
%TO.P,U2,25,GND*%
%TO.N,GND*%
X104539300Y-38994400D03*
%TD*%
D40*
%TO.P,C2,1*%
%TO.N,/3V3*%
X112377400Y-55372000D03*
%TO.P,C2,2*%
%TO.N,GND*%
X114452400Y-55372000D03*
%TD*%
D11*
%TO.P,Q2,1,C*%
%TO.N,Net-(Q2-C)*%
X102819200Y-50698400D03*
D12*
%TO.P,Q2,2,B*%
%TO.N,Net-(Q2-B)*%
X102819200Y-49428400D03*
%TO.P,Q2,3,E*%
%TO.N,/RTS*%
X102819200Y-48158400D03*
%TD*%
D18*
%TO.P,C6,1*%
%TO.N,/VIN*%
X117906800Y-35204400D03*
%TO.P,C6,2*%
%TO.N,GND*%
X117906800Y-33129400D03*
%TD*%
D40*
%TO.P,C5,1*%
%TO.N,Net-(BATTCHARGER1-TIMER)*%
X128146900Y-46228000D03*
%TO.P,C5,2*%
%TO.N,GND*%
X130221900Y-46228000D03*
%TD*%
D41*
%TO.N,GND*%
X102920800Y-66344800D03*
X113284000Y-68173600D03*
X113340978Y-51233503D03*
X113385600Y-58978800D03*
X116941600Y-36779200D03*
X122783600Y-36220400D03*
X78790800Y-55321200D03*
X57302400Y-39166800D03*
X116789200Y-42976800D03*
X73202800Y-55219600D03*
X59436000Y-32308800D03*
X88341200Y-58877200D03*
X124714000Y-38404800D03*
X51257200Y-45212000D03*
X124714000Y-34239200D03*
X130911600Y-37439600D03*
X125476000Y-42976800D03*
X113639600Y-41757600D03*
X55930800Y-35915600D03*
%TO.N,Net-(BATTCHARGER1-SENSE)*%
X126034800Y-46380400D03*
X122377200Y-47548800D03*
%TO.N,/FSR2*%
X58115200Y-37592000D03*
X65684400Y-37592000D03*
%TO.N,/FSR1*%
X65684400Y-36322000D03*
X58166000Y-36322000D03*
%TO.N,/FSR4*%
X57962800Y-42011600D03*
X65532000Y-42011600D03*
%TO.N,/FSR3*%
X65532000Y-40690800D03*
X57962800Y-40690800D03*
%TO.N,/D-*%
X109016800Y-38811200D03*
X125882400Y-40843200D03*
%TO.N,/D+*%
X108402221Y-39323349D03*
X125222000Y-41656000D03*
%TO.N,/DTR*%
X103581200Y-45161200D03*
X96824800Y-46482000D03*
%TO.N,/RXD*%
X88392000Y-37592000D03*
X103479600Y-42265600D03*
%TO.N,/TXD*%
X104546400Y-42214800D03*
X88442800Y-36322000D03*
%TO.N,Net-(Q2-C)*%
X63906400Y-48564800D03*
X99594556Y-50647600D03*
%TD*%
D42*
%TO.N,/VIN*%
X127194200Y-35153600D02*
X127078488Y-35153600D01*
X127078488Y-35153600D02*
X123502800Y-38729288D01*
X123502800Y-38729288D02*
X123502800Y-41688700D01*
X127143400Y-35204400D02*
X127194200Y-35153600D01*
X120722300Y-35204400D02*
X127143400Y-35204400D01*
D43*
%TO.N,Net-(D2-A)*%
X129295000Y-38109000D02*
X129295000Y-35661600D01*
X130694800Y-39508800D02*
X129295000Y-38109000D01*
X132776200Y-39508800D02*
X130694800Y-39508800D01*
D42*
%TO.N,/VIN*%
X117952800Y-39040700D02*
X121767600Y-35225900D01*
X121767600Y-35225900D02*
X121767600Y-35204400D01*
X107641800Y-35204400D02*
X105789300Y-37056900D01*
X120722300Y-35204400D02*
X107641800Y-35204400D01*
X117043200Y-37998400D02*
X117928300Y-37998400D01*
X115925600Y-39116000D02*
X117043200Y-37998400D01*
X117928300Y-37998400D02*
X120722300Y-35204400D01*
X115925600Y-39132000D02*
X115925600Y-39116000D01*
%TO.N,GND*%
X116880100Y-46238700D02*
X116179600Y-46939200D01*
X117952800Y-46238700D02*
X116880100Y-46238700D01*
%TO.N,/VBATT*%
X124281800Y-45588700D02*
X123502800Y-45588700D01*
D44*
X121970800Y-65836800D02*
X121920000Y-65786000D01*
X121920000Y-65786000D02*
X109778800Y-65786000D01*
D42*
X124866400Y-50139600D02*
X124866400Y-65836800D01*
D44*
X124866400Y-65836800D02*
X121970800Y-65836800D01*
X137515600Y-65836800D02*
X124866400Y-65836800D01*
X109778800Y-65786000D02*
X109778800Y-61838400D01*
D42*
X124866400Y-50139600D02*
X124866400Y-46173300D01*
X124866400Y-46173300D02*
X124281800Y-45588700D01*
D44*
X121920000Y-65786000D02*
X121920000Y-61838400D01*
X109778800Y-61838400D02*
X109792800Y-61824400D01*
X121920000Y-61838400D02*
X121934000Y-61824400D01*
D43*
%TO.N,GND*%
X132776200Y-45363800D02*
X133691200Y-46278800D01*
D42*
X105289300Y-39744400D02*
X106476800Y-39744400D01*
D43*
X116789200Y-42976800D02*
X116830100Y-43017700D01*
D42*
X123502800Y-42988700D02*
X121990300Y-42988700D01*
X104539300Y-38994400D02*
X105289300Y-39744400D01*
D43*
X132776200Y-45208800D02*
X132776200Y-45363800D01*
D42*
X116993900Y-43638700D02*
X116992400Y-43637200D01*
D43*
X116830100Y-43017700D02*
X117952800Y-43017700D01*
D42*
X123502800Y-42988700D02*
X124752900Y-42988700D01*
X117952800Y-43638700D02*
X116993900Y-43638700D01*
X106952800Y-39744400D02*
X108254800Y-41046400D01*
X106476800Y-39744400D02*
X106952800Y-39744400D01*
X121990300Y-42988700D02*
X121462800Y-43516200D01*
D44*
%TO.N,/1V8*%
X119634000Y-61824400D02*
X119634000Y-55524400D01*
X119634000Y-51735900D02*
X119583200Y-51685100D01*
X119634000Y-55524400D02*
X117297200Y-53187600D01*
X90393200Y-53187600D02*
X82194400Y-61386400D01*
X117297200Y-53187600D02*
X90393200Y-53187600D01*
X119634000Y-55524400D02*
X119634000Y-51735900D01*
%TO.N,/3V3*%
X72034400Y-61386400D02*
X72034400Y-66040000D01*
X61061600Y-33782000D02*
X59436000Y-35407600D01*
X51257200Y-62890400D02*
X56337200Y-67970400D01*
X45974000Y-62890400D02*
X51257200Y-62890400D01*
X107492800Y-61824400D02*
X107492800Y-55524400D01*
X60807600Y-67970400D02*
X56337200Y-67970400D01*
X72034400Y-66040000D02*
X73964800Y-67970400D01*
X73964800Y-67970400D02*
X67513200Y-67970400D01*
X53187600Y-60350400D02*
X60807600Y-67970400D01*
X104241600Y-55524400D02*
X91795600Y-67970400D01*
X56337200Y-67970400D02*
X52171600Y-67970400D01*
X107492800Y-61824400D02*
X107492800Y-62824400D01*
X45974000Y-65430400D02*
X49631600Y-65430400D01*
X67513200Y-67970400D02*
X60807600Y-67970400D01*
X112225000Y-55524400D02*
X112377400Y-55372000D01*
X68402800Y-33782000D02*
X61061600Y-33782000D01*
X107492800Y-55524400D02*
X104241600Y-55524400D01*
X91795600Y-67970400D02*
X73964800Y-67970400D01*
X45974000Y-60350400D02*
X53187600Y-60350400D01*
X49631600Y-65430400D02*
X52171600Y-67970400D01*
X59436000Y-59893200D02*
X67513200Y-67970400D01*
X107492800Y-55524400D02*
X112225000Y-55524400D01*
X52171600Y-67970400D02*
X45974000Y-67970400D01*
X59436000Y-35407600D02*
X59436000Y-59893200D01*
D42*
%TO.N,/VIN*%
X122524800Y-43837700D02*
X122524800Y-46080700D01*
X118538700Y-42338700D02*
X117952800Y-42338700D01*
X118804800Y-45954700D02*
X118804800Y-44399200D01*
X123502800Y-43638700D02*
X122723800Y-43638700D01*
X119281300Y-46431200D02*
X118804800Y-45954700D01*
X105789300Y-37056900D02*
X105289300Y-37056900D01*
X118804800Y-44865700D02*
X118804800Y-44399200D01*
X122174300Y-46431200D02*
X119281300Y-46431200D01*
X122524800Y-46080700D02*
X122174300Y-46431200D01*
X118804800Y-42604800D02*
X118538700Y-42338700D01*
X118731800Y-44938700D02*
X118804800Y-44865700D01*
X117952800Y-41688700D02*
X117952800Y-42338700D01*
X122723800Y-43638700D02*
X122524800Y-43837700D01*
X117952800Y-41688700D02*
X117952800Y-39040700D01*
X117952800Y-44938700D02*
X118731800Y-44938700D01*
X118804800Y-44399200D02*
X118804800Y-42604800D01*
%TO.N,Net-(BATTCHARGER1-~{CHRG})*%
X117932100Y-45609400D02*
X117952800Y-45588700D01*
X117952800Y-45588700D02*
X114861900Y-45588700D01*
%TO.N,Net-(BATTCHARGER1-TIMER)*%
X123502800Y-44288700D02*
X126207600Y-44288700D01*
X126207600Y-44288700D02*
X128146900Y-46228000D01*
%TO.N,Net-(BATTCHARGER1-PROG)*%
X122326400Y-41808400D02*
X122326400Y-39776400D01*
X122856700Y-42338700D02*
X122326400Y-41808400D01*
X123502800Y-42338700D02*
X122856700Y-42338700D01*
%TO.N,Net-(BATTCHARGER1-DRIVE)*%
X123596400Y-46332300D02*
X123502800Y-46238700D01*
X123596400Y-50139600D02*
X123596400Y-46332300D01*
%TO.N,Net-(BATTCHARGER1-SENSE)*%
X122377200Y-47548800D02*
X122326400Y-47548800D01*
X126034800Y-46380400D02*
X124593100Y-44938700D01*
X124593100Y-44938700D02*
X123502800Y-44938700D01*
X122326400Y-50139600D02*
X122377200Y-47548800D01*
%TO.N,/RESET*%
X63906400Y-36220400D02*
X65074800Y-35052000D01*
X64160400Y-35052000D02*
X61163200Y-38049200D01*
X65074800Y-35052000D02*
X68402800Y-35052000D01*
X63906400Y-44008800D02*
X63906400Y-36220400D01*
X61163200Y-38049200D02*
X61163200Y-39885800D01*
X65074800Y-35052000D02*
X64160400Y-35052000D01*
%TO.N,Net-(D1-A)*%
X115925600Y-42367200D02*
X114808000Y-43484800D01*
X115925600Y-41132000D02*
X115925600Y-42367200D01*
%TO.N,Net-(D2-A)*%
X134923200Y-43090800D02*
X134923200Y-41010600D01*
X133605200Y-44408800D02*
X134923200Y-43090800D01*
X133421400Y-39508800D02*
X132776200Y-39508800D01*
X132776200Y-44408800D02*
X133605200Y-44408800D01*
X134923200Y-41010600D02*
X133421400Y-39508800D01*
D43*
%TO.N,/FSR2*%
X52035200Y-35763200D02*
X52238400Y-35966400D01*
X53406800Y-37134800D02*
X52238400Y-35966400D01*
X65684400Y-37592000D02*
X68402800Y-37592000D01*
X57658000Y-37134800D02*
X53406800Y-37134800D01*
X58115200Y-37592000D02*
X57658000Y-37134800D01*
X45974000Y-35763200D02*
X52035200Y-35763200D01*
%TO.N,/FSR1*%
X65684400Y-36322000D02*
X68402800Y-36322000D01*
X54880000Y-33223200D02*
X55067200Y-33223200D01*
X45974000Y-33223200D02*
X54880000Y-33223200D01*
X55067200Y-33223200D02*
X58166000Y-36322000D01*
%TO.N,/FSR4*%
X65532000Y-42011600D02*
X67411600Y-40132000D01*
X53695600Y-43281600D02*
X54965600Y-42011600D01*
X51257200Y-40843200D02*
X53695600Y-43281600D01*
X54965600Y-42011600D02*
X57962800Y-42011600D01*
X67411600Y-40132000D02*
X68402800Y-40132000D01*
X45974000Y-40843200D02*
X51257200Y-40843200D01*
%TO.N,/FSR3*%
X65532000Y-40690800D02*
X67360800Y-38862000D01*
X45974000Y-38303200D02*
X51679600Y-38303200D01*
X57556400Y-41097200D02*
X57962800Y-40690800D01*
X67360800Y-38862000D02*
X68402800Y-38862000D01*
X51679600Y-38303200D02*
X52797200Y-39420800D01*
X54473600Y-41097200D02*
X57556400Y-41097200D01*
X52797200Y-39420800D02*
X54473600Y-41097200D01*
X57962800Y-40690800D02*
X58013600Y-40690800D01*
D42*
%TO.N,/SCL*%
X77114400Y-61386400D02*
X76517800Y-60789800D01*
X76517800Y-60789800D02*
X76517800Y-50272000D01*
%TO.N,/SDA*%
X74574400Y-61386400D02*
X75247800Y-60713000D01*
X75247800Y-60713000D02*
X75247800Y-50272000D01*
%TO.N,/D-*%
X108901949Y-38696349D02*
X106524851Y-38696349D01*
X106524851Y-38696349D02*
X106476800Y-38744400D01*
X130881600Y-40843200D02*
X125882400Y-40843200D01*
X132776200Y-41708800D02*
X131747200Y-41708800D01*
X131747200Y-41708800D02*
X130881600Y-40843200D01*
X109016800Y-38811200D02*
X108901949Y-38696349D01*
%TO.N,Net-(J1-CC1)*%
X129562000Y-43208800D02*
X129540000Y-43230800D01*
X132776200Y-43208800D02*
X129562000Y-43208800D01*
%TO.N,/D+*%
X132776200Y-42208800D02*
X132776200Y-42199800D01*
X108402221Y-39323349D02*
X108323272Y-39244400D01*
X108323272Y-39244400D02*
X106476800Y-39244400D01*
X132762200Y-42185800D02*
X131390600Y-42185800D01*
X132776200Y-42199800D02*
X132762200Y-42185800D01*
X131390600Y-42185800D02*
X130860800Y-41656000D01*
X130860800Y-41656000D02*
X125222000Y-41656000D01*
%TO.N,Net-(J1-CC2)*%
X132776200Y-40208800D02*
X129108800Y-40208800D01*
X129108800Y-40208800D02*
X128168400Y-39268400D01*
%TO.N,/DTR*%
X105254500Y-43487900D02*
X105289300Y-43487900D01*
X105289300Y-43487900D02*
X105289300Y-40931900D01*
X103581200Y-45161200D02*
X105254500Y-43487900D01*
X96819800Y-46487000D02*
X96824800Y-46482000D01*
X94564600Y-46487000D02*
X96819800Y-46487000D01*
%TO.N,/RTS*%
X99993200Y-44228000D02*
X99993200Y-47752000D01*
X103289300Y-40931900D02*
X102819200Y-41402000D01*
X102819200Y-41402000D02*
X102819200Y-48158400D01*
X103289300Y-40931900D02*
X99993200Y-44228000D01*
%TO.N,/GPIO0*%
X85902800Y-49022000D02*
X89017600Y-49022000D01*
%TO.N,Net-(U2-VDD)*%
X106476800Y-37744400D02*
X106476800Y-38244400D01*
%TO.N,/RXD*%
X103789300Y-41955900D02*
X103789300Y-40931900D01*
X103479600Y-42265600D02*
X103789300Y-41955900D01*
X85902800Y-37592000D02*
X88392000Y-37592000D01*
%TO.N,/TXD*%
X85902800Y-36322000D02*
X88442800Y-36322000D01*
X104289300Y-40931900D02*
X104289300Y-41957700D01*
X104289300Y-41957700D02*
X104546400Y-42214800D01*
%TO.N,Net-(Q2-B)*%
X105054400Y-47193200D02*
X102819200Y-49428400D01*
X105054400Y-46043600D02*
X105054400Y-47193200D01*
%TO.N,Net-(Q2-C)*%
X102819200Y-50698400D02*
X99618800Y-50698400D01*
X63906400Y-46008800D02*
X63906400Y-48564800D01*
%TO.N,Net-(Q3-B)*%
X94564600Y-47757000D02*
X97988200Y-47757000D01*
X97988200Y-47757000D02*
X97993200Y-47752000D01*
%TO.N,Net-(Q3-C)*%
X91022600Y-49027000D02*
X91017600Y-49022000D01*
X94564600Y-49027000D02*
X91022600Y-49027000D01*
%TD*%
%TA.AperFunction,Conductor*%
%TO.N,GND*%
G36*
X67272099Y-31515685D02*
G01*
X67317854Y-31568489D01*
X67327798Y-31637647D01*
X67300509Y-31697400D01*
X67300925Y-31697712D01*
X67299494Y-31699622D01*
X67298773Y-31701203D01*
X67296419Y-31703730D01*
X67209449Y-31819906D01*
X67209445Y-31819913D01*
X67159203Y-31954620D01*
X67159201Y-31954627D01*
X67152800Y-32014155D01*
X67152800Y-32262000D01*
X69652800Y-32262000D01*
X69652800Y-32014172D01*
X69652799Y-32014155D01*
X69646398Y-31954627D01*
X69646396Y-31954620D01*
X69596154Y-31819913D01*
X69596150Y-31819906D01*
X69504675Y-31697712D01*
X69506620Y-31696255D01*
X69479374Y-31646358D01*
X69484358Y-31576666D01*
X69526230Y-31520733D01*
X69591694Y-31496316D01*
X69600540Y-31496000D01*
X84705060Y-31496000D01*
X84772099Y-31515685D01*
X84817854Y-31568489D01*
X84827798Y-31637647D01*
X84800509Y-31697400D01*
X84800925Y-31697712D01*
X84799494Y-31699622D01*
X84798773Y-31701203D01*
X84796419Y-31703730D01*
X84709449Y-31819906D01*
X84709445Y-31819913D01*
X84659203Y-31954620D01*
X84659201Y-31954627D01*
X84652800Y-32014155D01*
X84652800Y-32262000D01*
X87152800Y-32262000D01*
X87152800Y-32014172D01*
X87152799Y-32014155D01*
X87146398Y-31954627D01*
X87146396Y-31954620D01*
X87096154Y-31819913D01*
X87096150Y-31819906D01*
X87004675Y-31697712D01*
X87006620Y-31696255D01*
X86979374Y-31646358D01*
X86984358Y-31576666D01*
X87026230Y-31520733D01*
X87091694Y-31496316D01*
X87100540Y-31496000D01*
X140599500Y-31496000D01*
X140666539Y-31515685D01*
X140712294Y-31568489D01*
X140723500Y-31620000D01*
X140723500Y-69631900D01*
X140703815Y-69698939D01*
X140651011Y-69744694D01*
X140599500Y-69755900D01*
X138962230Y-69755900D01*
X138895191Y-69736215D01*
X138849436Y-69683411D01*
X138839492Y-69614253D01*
X138868517Y-69550697D01*
X138874549Y-69544219D01*
X138953312Y-69465456D01*
X139045414Y-69316134D01*
X139100599Y-69149597D01*
X139111100Y-69046809D01*
X139111099Y-67706792D01*
X139100599Y-67604003D01*
X139045414Y-67437466D01*
X138953312Y-67288144D01*
X138829256Y-67164088D01*
X138679934Y-67071986D01*
X138679926Y-67071981D01*
X138679245Y-67071664D01*
X138678856Y-67071321D01*
X138673787Y-67068195D01*
X138674321Y-67067328D01*
X138626808Y-67025488D01*
X138607660Y-66958294D01*
X138627880Y-66891414D01*
X138643966Y-66871613D01*
X138785959Y-66729621D01*
X138912757Y-66555099D01*
X139010692Y-66362889D01*
X139077354Y-66157726D01*
X139092352Y-66063030D01*
X139111100Y-65944666D01*
X139111100Y-65728933D01*
X139088602Y-65586895D01*
X139077354Y-65515874D01*
X139010692Y-65310711D01*
X138912757Y-65118501D01*
X138785959Y-64943979D01*
X138633421Y-64791441D01*
X138461879Y-64666808D01*
X138419214Y-64611478D01*
X138413235Y-64541864D01*
X138445841Y-64480069D01*
X138461880Y-64466172D01*
X138633091Y-64341779D01*
X138633097Y-64341774D01*
X138785574Y-64189297D01*
X138785574Y-64189296D01*
X138912328Y-64014836D01*
X139010227Y-63822701D01*
X139076866Y-63617609D01*
X139088081Y-63546800D01*
X138058309Y-63546800D01*
X138070052Y-63526461D01*
X138110600Y-63375133D01*
X138110600Y-63218467D01*
X138070052Y-63067139D01*
X138058309Y-63046800D01*
X139088081Y-63046800D01*
X139076866Y-62975990D01*
X139010227Y-62770898D01*
X138912328Y-62578763D01*
X138785574Y-62404303D01*
X138785574Y-62404302D01*
X138633097Y-62251825D01*
X138458636Y-62125071D01*
X138266501Y-62027172D01*
X138061409Y-61960534D01*
X137848420Y-61926800D01*
X137765600Y-61926800D01*
X137765600Y-62754090D01*
X137745261Y-62742348D01*
X137593933Y-62701800D01*
X137437267Y-62701800D01*
X137285939Y-62742348D01*
X137265600Y-62754090D01*
X137265600Y-61926800D01*
X137182780Y-61926800D01*
X136969790Y-61960534D01*
X136764698Y-62027172D01*
X136572563Y-62125071D01*
X136398103Y-62251825D01*
X136398102Y-62251825D01*
X136245625Y-62404302D01*
X136245625Y-62404303D01*
X136118871Y-62578763D01*
X136020972Y-62770898D01*
X135954333Y-62975990D01*
X135943119Y-63046800D01*
X136972891Y-63046800D01*
X136961148Y-63067139D01*
X136920600Y-63218467D01*
X136920600Y-63375133D01*
X136961148Y-63526461D01*
X136972891Y-63546800D01*
X135943119Y-63546800D01*
X135954333Y-63617609D01*
X136020972Y-63822701D01*
X136118871Y-64014836D01*
X136245625Y-64189296D01*
X136245625Y-64189297D01*
X136398102Y-64341774D01*
X136569320Y-64466172D01*
X136611985Y-64521502D01*
X136617964Y-64591116D01*
X136585358Y-64652910D01*
X136569320Y-64666808D01*
X136397777Y-64791442D01*
X136397776Y-64791443D01*
X136270239Y-64918981D01*
X136208916Y-64952466D01*
X136182558Y-64955300D01*
X125617900Y-64955300D01*
X125550861Y-64935615D01*
X125505106Y-64882811D01*
X125493900Y-64831300D01*
X125493900Y-51212320D01*
X125513585Y-51145281D01*
X125566389Y-51099526D01*
X125574555Y-51096142D01*
X125608731Y-51083396D01*
X125723946Y-50997146D01*
X125810196Y-50881931D01*
X125860491Y-50747083D01*
X125866900Y-50687473D01*
X125866900Y-50678711D01*
X128045100Y-50678711D01*
X128045100Y-50921288D01*
X128076761Y-51161785D01*
X128139547Y-51396104D01*
X128214873Y-51577957D01*
X128232376Y-51620212D01*
X128353664Y-51830289D01*
X128353666Y-51830292D01*
X128353667Y-51830293D01*
X128501333Y-52022736D01*
X128501339Y-52022743D01*
X128672856Y-52194260D01*
X128672862Y-52194265D01*
X128865311Y-52341936D01*
X129075388Y-52463224D01*
X129299500Y-52556054D01*
X129533811Y-52618838D01*
X129714186Y-52642584D01*
X129774311Y-52650500D01*
X129774312Y-52650500D01*
X130016889Y-52650500D01*
X130064988Y-52644167D01*
X130257389Y-52618838D01*
X130491700Y-52556054D01*
X130715812Y-52463224D01*
X130925889Y-52341936D01*
X131118338Y-52194265D01*
X131289865Y-52022738D01*
X131437536Y-51830289D01*
X131558824Y-51620212D01*
X131651654Y-51396100D01*
X131714438Y-51161789D01*
X131746100Y-50921288D01*
X131746100Y-50678712D01*
X131742004Y-50647603D01*
X131728441Y-50544576D01*
X131714438Y-50438211D01*
X131651654Y-50203900D01*
X131558824Y-49979788D01*
X131437536Y-49769711D01*
X131370272Y-49682051D01*
X131289866Y-49577263D01*
X131289860Y-49577256D01*
X131118343Y-49405739D01*
X131118336Y-49405733D01*
X130925893Y-49258067D01*
X130925892Y-49258066D01*
X130925889Y-49258064D01*
X130715812Y-49136776D01*
X130715805Y-49136773D01*
X130491704Y-49043947D01*
X130257385Y-48981161D01*
X130016889Y-48949500D01*
X130016888Y-48949500D01*
X129774312Y-48949500D01*
X129774311Y-48949500D01*
X129533814Y-48981161D01*
X129299495Y-49043947D01*
X129075394Y-49136773D01*
X129075385Y-49136777D01*
X128865306Y-49258067D01*
X128672863Y-49405733D01*
X128672856Y-49405739D01*
X128501339Y-49577256D01*
X128501333Y-49577263D01*
X128353667Y-49769706D01*
X128232377Y-49979785D01*
X128232373Y-49979794D01*
X128139547Y-50203895D01*
X128076761Y-50438214D01*
X128045100Y-50678711D01*
X125866900Y-50678711D01*
X125866899Y-49591728D01*
X125860491Y-49532117D01*
X125855925Y-49519876D01*
X125810197Y-49397271D01*
X125810193Y-49397264D01*
X125723947Y-49282055D01*
X125723944Y-49282052D01*
X125608734Y-49195805D01*
X125574564Y-49183060D01*
X125518631Y-49141187D01*
X125494216Y-49075722D01*
X125493900Y-49066879D01*
X125493900Y-47210299D01*
X125513585Y-47143260D01*
X125566389Y-47097505D01*
X125635547Y-47087561D01*
X125678861Y-47103467D01*
X125679005Y-47103169D01*
X125682077Y-47104648D01*
X125683881Y-47105311D01*
X125685278Y-47106189D01*
X125855545Y-47165768D01*
X125855550Y-47165769D01*
X126034796Y-47185965D01*
X126034800Y-47185965D01*
X126034804Y-47185965D01*
X126214049Y-47165769D01*
X126214052Y-47165768D01*
X126214055Y-47165768D01*
X126384322Y-47106189D01*
X126537062Y-47010216D01*
X126664616Y-46882662D01*
X126760589Y-46729922D01*
X126817859Y-46566253D01*
X126858580Y-46509479D01*
X126923532Y-46483731D01*
X126992094Y-46497187D01*
X127042497Y-46545574D01*
X127058900Y-46607208D01*
X127058900Y-46753000D01*
X127058901Y-46753019D01*
X127069400Y-46855796D01*
X127069401Y-46855799D01*
X127124585Y-47022331D01*
X127124587Y-47022336D01*
X127138898Y-47045538D01*
X127216688Y-47171656D01*
X127340744Y-47295712D01*
X127490066Y-47387814D01*
X127656603Y-47442999D01*
X127759391Y-47453500D01*
X128534408Y-47453499D01*
X128534416Y-47453498D01*
X128534419Y-47453498D01*
X128592968Y-47447517D01*
X128637197Y-47442999D01*
X128803734Y-47387814D01*
X128953056Y-47295712D01*
X129077112Y-47171656D01*
X129079152Y-47168347D01*
X129081145Y-47166555D01*
X129081593Y-47165989D01*
X129081689Y-47166065D01*
X129131094Y-47121623D01*
X129200056Y-47110395D01*
X129264140Y-47138234D01*
X129290229Y-47168339D01*
X129292081Y-47171341D01*
X129292083Y-47171344D01*
X129416054Y-47295315D01*
X129565275Y-47387356D01*
X129565280Y-47387358D01*
X129731702Y-47442505D01*
X129731709Y-47442506D01*
X129834419Y-47452999D01*
X129971899Y-47452999D01*
X130471900Y-47452999D01*
X130609372Y-47452999D01*
X130609386Y-47452998D01*
X130712097Y-47442505D01*
X130878519Y-47387358D01*
X130878524Y-47387356D01*
X131027745Y-47295315D01*
X131151715Y-47171345D01*
X131243756Y-47022124D01*
X131243758Y-47022119D01*
X131298905Y-46855697D01*
X131298906Y-46855690D01*
X131309399Y-46752986D01*
X131309400Y-46752973D01*
X131309400Y-46478000D01*
X130471900Y-46478000D01*
X130471900Y-47452999D01*
X129971899Y-47452999D01*
X129971900Y-47452998D01*
X129971900Y-45978000D01*
X130471900Y-45978000D01*
X131309399Y-45978000D01*
X131309399Y-45703028D01*
X131309398Y-45703013D01*
X131298905Y-45600302D01*
X131243758Y-45433880D01*
X131243756Y-45433875D01*
X131151715Y-45284654D01*
X131027745Y-45160684D01*
X130878524Y-45068643D01*
X130878519Y-45068641D01*
X130712097Y-45013494D01*
X130712090Y-45013493D01*
X130609386Y-45003000D01*
X130471900Y-45003000D01*
X130471900Y-45978000D01*
X129971900Y-45978000D01*
X129971900Y-45003000D01*
X129834427Y-45003000D01*
X129834412Y-45003001D01*
X129731702Y-45013494D01*
X129565280Y-45068641D01*
X129565275Y-45068643D01*
X129416054Y-45160684D01*
X129292083Y-45284655D01*
X129292079Y-45284660D01*
X129290226Y-45287665D01*
X129288418Y-45289290D01*
X129287602Y-45290323D01*
X129287425Y-45290183D01*
X129238274Y-45334385D01*
X129169311Y-45345601D01*
X129105231Y-45317752D01*
X129079153Y-45287653D01*
X129079137Y-45287628D01*
X129077112Y-45284344D01*
X128953056Y-45160288D01*
X128849608Y-45096481D01*
X128803736Y-45068187D01*
X128803731Y-45068185D01*
X128769986Y-45057003D01*
X128637197Y-45013001D01*
X128637195Y-45013000D01*
X128534416Y-45002500D01*
X128534409Y-45002500D01*
X127860181Y-45002500D01*
X127793142Y-44982815D01*
X127772500Y-44966181D01*
X127326319Y-44520000D01*
X127292834Y-44458677D01*
X127290000Y-44432319D01*
X127290000Y-43480800D01*
X126440000Y-43480800D01*
X126440000Y-43544040D01*
X126420315Y-43611079D01*
X126367510Y-43656834D01*
X126298352Y-43666777D01*
X126291810Y-43665657D01*
X126269403Y-43661200D01*
X126269402Y-43661200D01*
X124652300Y-43661200D01*
X124585261Y-43641515D01*
X124539506Y-43588711D01*
X124528300Y-43537201D01*
X124528299Y-43365830D01*
X124528299Y-43365828D01*
X124523867Y-43324598D01*
X124523868Y-43298093D01*
X124527799Y-43261533D01*
X124527800Y-43261519D01*
X124527800Y-43213700D01*
X124512188Y-43198088D01*
X124498316Y-43194015D01*
X124466089Y-43164012D01*
X124436795Y-43124881D01*
X124390478Y-43063009D01*
X124366061Y-42997548D01*
X124380912Y-42929275D01*
X124390473Y-42914396D01*
X124442711Y-42844616D01*
X124466089Y-42813388D01*
X124513905Y-42777594D01*
X124527800Y-42763700D01*
X124527800Y-42715882D01*
X124527799Y-42715864D01*
X124523868Y-42679302D01*
X124523868Y-42652793D01*
X124528300Y-42611573D01*
X124528299Y-42389886D01*
X124547983Y-42322849D01*
X124600787Y-42277094D01*
X124669945Y-42267150D01*
X124718271Y-42284894D01*
X124719737Y-42285815D01*
X124719738Y-42285816D01*
X124778676Y-42322849D01*
X124855625Y-42371200D01*
X124872478Y-42381789D01*
X124981110Y-42419801D01*
X125042745Y-42441368D01*
X125042750Y-42441369D01*
X125221996Y-42461565D01*
X125222000Y-42461565D01*
X125222004Y-42461565D01*
X125401249Y-42441369D01*
X125401252Y-42441368D01*
X125401255Y-42441368D01*
X125571522Y-42381789D01*
X125697700Y-42302505D01*
X125763672Y-42283500D01*
X126394087Y-42283500D01*
X126461126Y-42303185D01*
X126506881Y-42355989D01*
X126516825Y-42425147D01*
X126506470Y-42459902D01*
X126505643Y-42461673D01*
X126450494Y-42628102D01*
X126450493Y-42628109D01*
X126440000Y-42730813D01*
X126440000Y-42980800D01*
X127666000Y-42980800D01*
X127733039Y-43000485D01*
X127778794Y-43053289D01*
X127790000Y-43104800D01*
X127790000Y-44430799D01*
X127939972Y-44430799D01*
X127939986Y-44430798D01*
X128042697Y-44420305D01*
X128209119Y-44365158D01*
X128209124Y-44365156D01*
X128358342Y-44273117D01*
X128451964Y-44179495D01*
X128513287Y-44146010D01*
X128582979Y-44150994D01*
X128627327Y-44179495D01*
X128721344Y-44273512D01*
X128870666Y-44365614D01*
X129037203Y-44420799D01*
X129139991Y-44431300D01*
X129940008Y-44431299D01*
X129940016Y-44431298D01*
X129940019Y-44431298D01*
X129996302Y-44425548D01*
X130042797Y-44420799D01*
X130209334Y-44365614D01*
X130358656Y-44273512D01*
X130482712Y-44149456D01*
X130574814Y-44000134D01*
X130600938Y-43921295D01*
X130640711Y-43863851D01*
X130705227Y-43837028D01*
X130718644Y-43836300D01*
X131431751Y-43836300D01*
X131498790Y-43855985D01*
X131544545Y-43908789D01*
X131555041Y-43947049D01*
X131557567Y-43970552D01*
X131557567Y-43997057D01*
X131557109Y-44001316D01*
X131557109Y-44001317D01*
X131550700Y-44060927D01*
X131550700Y-44060932D01*
X131550700Y-44060933D01*
X131550700Y-44756669D01*
X131550701Y-44756680D01*
X131555131Y-44797893D01*
X131555131Y-44824396D01*
X131551200Y-44860965D01*
X131551200Y-44958800D01*
X131551251Y-44958851D01*
X131618115Y-44978485D01*
X131650340Y-45008486D01*
X131693654Y-45066346D01*
X131733909Y-45096481D01*
X131808864Y-45152593D01*
X131808871Y-45152597D01*
X131943717Y-45202891D01*
X131943716Y-45202891D01*
X131950644Y-45203635D01*
X132003327Y-45209300D01*
X132902201Y-45209299D01*
X132969239Y-45228983D01*
X133014994Y-45281787D01*
X133026200Y-45333299D01*
X133026200Y-45334800D01*
X133006515Y-45401839D01*
X132953711Y-45447594D01*
X132902200Y-45458800D01*
X131551200Y-45458800D01*
X131551200Y-45556644D01*
X131557601Y-45616172D01*
X131557603Y-45616179D01*
X131607845Y-45750886D01*
X131607849Y-45750893D01*
X131694009Y-45865987D01*
X131694012Y-45865990D01*
X131809106Y-45952150D01*
X131809113Y-45952154D01*
X131943820Y-46002396D01*
X131943827Y-46002398D01*
X132003355Y-46008799D01*
X132003372Y-46008800D01*
X132096276Y-46008800D01*
X132163315Y-46028485D01*
X132163669Y-46028800D01*
X132974212Y-46028800D01*
X132956995Y-46038740D01*
X132901140Y-46094595D01*
X132861644Y-46163004D01*
X132841200Y-46239304D01*
X132841200Y-46318296D01*
X132861644Y-46394596D01*
X132901140Y-46463005D01*
X132956995Y-46518860D01*
X132974212Y-46528800D01*
X132171338Y-46528800D01*
X132179630Y-46570490D01*
X132179630Y-46570492D01*
X132255007Y-46752471D01*
X132255014Y-46752484D01*
X132364448Y-46916262D01*
X132364451Y-46916266D01*
X132503733Y-47055548D01*
X132503737Y-47055551D01*
X132667515Y-47164985D01*
X132667528Y-47164992D01*
X132849506Y-47240369D01*
X132849518Y-47240372D01*
X133042704Y-47278799D01*
X133042708Y-47278800D01*
X133441200Y-47278800D01*
X133441200Y-46578800D01*
X133941200Y-46578800D01*
X133941200Y-47278800D01*
X134339692Y-47278800D01*
X134339695Y-47278799D01*
X134532881Y-47240372D01*
X134532893Y-47240369D01*
X134714871Y-47164992D01*
X134714884Y-47164985D01*
X134878662Y-47055551D01*
X134878666Y-47055548D01*
X135017948Y-46916266D01*
X135017951Y-46916262D01*
X135127385Y-46752484D01*
X135127392Y-46752471D01*
X135202769Y-46570492D01*
X135202769Y-46570490D01*
X135211062Y-46528800D01*
X134408188Y-46528800D01*
X134425405Y-46518860D01*
X134481260Y-46463005D01*
X134520756Y-46394596D01*
X134541200Y-46318296D01*
X134541200Y-46239304D01*
X134520756Y-46163004D01*
X134481260Y-46094595D01*
X134425405Y-46038740D01*
X134408188Y-46028800D01*
X135211062Y-46028800D01*
X136601338Y-46028800D01*
X137404212Y-46028800D01*
X137386995Y-46038740D01*
X137331140Y-46094595D01*
X137291644Y-46163004D01*
X137271200Y-46239304D01*
X137271200Y-46318296D01*
X137291644Y-46394596D01*
X137331140Y-46463005D01*
X137386995Y-46518860D01*
X137404212Y-46528800D01*
X136601338Y-46528800D01*
X136609630Y-46570490D01*
X136609630Y-46570492D01*
X136685007Y-46752471D01*
X136685014Y-46752484D01*
X136794448Y-46916262D01*
X136794451Y-46916266D01*
X136933733Y-47055548D01*
X136933737Y-47055551D01*
X137097515Y-47164985D01*
X137097528Y-47164992D01*
X137279506Y-47240369D01*
X137279518Y-47240372D01*
X137472704Y-47278799D01*
X137472708Y-47278800D01*
X137621200Y-47278800D01*
X137621200Y-46578800D01*
X138121200Y-46578800D01*
X138121200Y-47278800D01*
X138269692Y-47278800D01*
X138269695Y-47278799D01*
X138462881Y-47240372D01*
X138462893Y-47240369D01*
X138644871Y-47164992D01*
X138644884Y-47164985D01*
X138808662Y-47055551D01*
X138808666Y-47055548D01*
X138947948Y-46916266D01*
X138947951Y-46916262D01*
X139057385Y-46752484D01*
X139057392Y-46752471D01*
X139132769Y-46570492D01*
X139132769Y-46570490D01*
X139141062Y-46528800D01*
X138338188Y-46528800D01*
X138355405Y-46518860D01*
X138411260Y-46463005D01*
X138450756Y-46394596D01*
X138471200Y-46318296D01*
X138471200Y-46239304D01*
X138450756Y-46163004D01*
X138411260Y-46094595D01*
X138355405Y-46038740D01*
X138338188Y-46028800D01*
X139141062Y-46028800D01*
X139132769Y-45987109D01*
X139132769Y-45987107D01*
X139057392Y-45805128D01*
X139057385Y-45805115D01*
X138947951Y-45641337D01*
X138947948Y-45641333D01*
X138808666Y-45502051D01*
X138808662Y-45502048D01*
X138644884Y-45392614D01*
X138644871Y-45392607D01*
X138462893Y-45317230D01*
X138462881Y-45317227D01*
X138269695Y-45278800D01*
X138121200Y-45278800D01*
X138121200Y-45978800D01*
X137621200Y-45978800D01*
X137621200Y-45278800D01*
X137472704Y-45278800D01*
X137279518Y-45317227D01*
X137279506Y-45317230D01*
X137097528Y-45392607D01*
X137097515Y-45392614D01*
X136933737Y-45502048D01*
X136933733Y-45502051D01*
X136794451Y-45641333D01*
X136794448Y-45641337D01*
X136685014Y-45805115D01*
X136685007Y-45805128D01*
X136609630Y-45987107D01*
X136609630Y-45987109D01*
X136601338Y-46028800D01*
X135211062Y-46028800D01*
X135202769Y-45987109D01*
X135202769Y-45987107D01*
X135127392Y-45805128D01*
X135127385Y-45805115D01*
X135017951Y-45641337D01*
X135017948Y-45641333D01*
X134878666Y-45502051D01*
X134878662Y-45502048D01*
X134709813Y-45389226D01*
X134710768Y-45387796D01*
X134666768Y-45344577D01*
X134651305Y-45276440D01*
X134675134Y-45210760D01*
X134676902Y-45208713D01*
X134676768Y-45208611D01*
X134681707Y-45202172D01*
X134681715Y-45202165D01*
X134757481Y-45070935D01*
X134796700Y-44924566D01*
X134796700Y-44773034D01*
X134757481Y-44626665D01*
X134681715Y-44495435D01*
X134657385Y-44471105D01*
X134631529Y-44445248D01*
X134598045Y-44383925D01*
X134603030Y-44314233D01*
X134631528Y-44269890D01*
X135410610Y-43490809D01*
X135441802Y-43444128D01*
X135479283Y-43388033D01*
X135526585Y-43273835D01*
X135536310Y-43224944D01*
X135547265Y-43169872D01*
X135550700Y-43152605D01*
X135550700Y-40948797D01*
X135547823Y-40934334D01*
X135544477Y-40917512D01*
X135543402Y-40912109D01*
X135535152Y-40870632D01*
X135526586Y-40827565D01*
X135488384Y-40735339D01*
X135479283Y-40713367D01*
X135475988Y-40708436D01*
X135410614Y-40610596D01*
X135410613Y-40610594D01*
X135385572Y-40585553D01*
X135323208Y-40523189D01*
X134533363Y-39733344D01*
X134499878Y-39672021D01*
X134504862Y-39602329D01*
X134546734Y-39546396D01*
X134559044Y-39538276D01*
X134561273Y-39536989D01*
X134574565Y-39529315D01*
X134681715Y-39422165D01*
X134757481Y-39290935D01*
X134796700Y-39144566D01*
X134796700Y-38993034D01*
X134757481Y-38846665D01*
X134755827Y-38843801D01*
X134735331Y-38808301D01*
X134681715Y-38715435D01*
X134681710Y-38715430D01*
X134676768Y-38708989D01*
X134679586Y-38706826D01*
X134653897Y-38659779D01*
X134658881Y-38590087D01*
X134700753Y-38534154D01*
X134709820Y-38528385D01*
X134709813Y-38528374D01*
X134878662Y-38415551D01*
X134878666Y-38415548D01*
X135017948Y-38276266D01*
X135017951Y-38276262D01*
X135127385Y-38112484D01*
X135127392Y-38112471D01*
X135202769Y-37930492D01*
X135202769Y-37930490D01*
X135211062Y-37888800D01*
X134408188Y-37888800D01*
X134425405Y-37878860D01*
X134481260Y-37823005D01*
X134520756Y-37754596D01*
X134541200Y-37678296D01*
X134541200Y-37599304D01*
X134520756Y-37523004D01*
X134481260Y-37454595D01*
X134425405Y-37398740D01*
X134408188Y-37388800D01*
X135211062Y-37388800D01*
X136601338Y-37388800D01*
X137404212Y-37388800D01*
X137386995Y-37398740D01*
X137331140Y-37454595D01*
X137291644Y-37523004D01*
X137271200Y-37599304D01*
X137271200Y-37678296D01*
X137291644Y-37754596D01*
X137331140Y-37823005D01*
X137386995Y-37878860D01*
X137404212Y-37888800D01*
X136601338Y-37888800D01*
X136609630Y-37930490D01*
X136609630Y-37930492D01*
X136685007Y-38112471D01*
X136685014Y-38112484D01*
X136794448Y-38276262D01*
X136794451Y-38276266D01*
X136933733Y-38415548D01*
X136933737Y-38415551D01*
X137097515Y-38524985D01*
X137097528Y-38524992D01*
X137279506Y-38600369D01*
X137279518Y-38600372D01*
X137472704Y-38638799D01*
X137472708Y-38638800D01*
X137621200Y-38638800D01*
X137621200Y-37938800D01*
X138121200Y-37938800D01*
X138121200Y-38638800D01*
X138269692Y-38638800D01*
X138269695Y-38638799D01*
X138462881Y-38600372D01*
X138462893Y-38600369D01*
X138644871Y-38524992D01*
X138644884Y-38524985D01*
X138808662Y-38415551D01*
X138808666Y-38415548D01*
X138947948Y-38276266D01*
X138947951Y-38276262D01*
X139057385Y-38112484D01*
X139057392Y-38112471D01*
X139132769Y-37930492D01*
X139132769Y-37930490D01*
X139141062Y-37888800D01*
X138338188Y-37888800D01*
X138355405Y-37878860D01*
X138411260Y-37823005D01*
X138450756Y-37754596D01*
X138471200Y-37678296D01*
X138471200Y-37599304D01*
X138450756Y-37523004D01*
X138411260Y-37454595D01*
X138355405Y-37398740D01*
X138338188Y-37388800D01*
X139141062Y-37388800D01*
X139132769Y-37347109D01*
X139132769Y-37347107D01*
X139057392Y-37165128D01*
X139057385Y-37165115D01*
X138947951Y-37001337D01*
X138947948Y-37001333D01*
X138808666Y-36862051D01*
X138808662Y-36862048D01*
X138644884Y-36752614D01*
X138644871Y-36752607D01*
X138462893Y-36677230D01*
X138462881Y-36677227D01*
X138269695Y-36638800D01*
X138121200Y-36638800D01*
X138121200Y-37338800D01*
X137621200Y-37338800D01*
X137621200Y-36638800D01*
X137472704Y-36638800D01*
X137279518Y-36677227D01*
X137279506Y-36677230D01*
X137097528Y-36752607D01*
X137097515Y-36752614D01*
X136933737Y-36862048D01*
X136933733Y-36862051D01*
X136794451Y-37001333D01*
X136794448Y-37001337D01*
X136685014Y-37165115D01*
X136685007Y-37165128D01*
X136609630Y-37347107D01*
X136609630Y-37347109D01*
X136601338Y-37388800D01*
X135211062Y-37388800D01*
X135202769Y-37347109D01*
X135202769Y-37347107D01*
X135127392Y-37165128D01*
X135127385Y-37165115D01*
X135017951Y-37001337D01*
X135017948Y-37001333D01*
X134878666Y-36862051D01*
X134878662Y-36862048D01*
X134714884Y-36752614D01*
X134714871Y-36752607D01*
X134532893Y-36677230D01*
X134532881Y-36677227D01*
X134339695Y-36638800D01*
X133941200Y-36638800D01*
X133941200Y-37338800D01*
X133441200Y-37338800D01*
X133441200Y-36638800D01*
X133042704Y-36638800D01*
X132849518Y-36677227D01*
X132849506Y-36677230D01*
X132667528Y-36752607D01*
X132667515Y-36752614D01*
X132503737Y-36862048D01*
X132503733Y-36862051D01*
X132364451Y-37001333D01*
X132364448Y-37001337D01*
X132255014Y-37165115D01*
X132255007Y-37165128D01*
X132179630Y-37347107D01*
X132179630Y-37347109D01*
X132171338Y-37388800D01*
X132974212Y-37388800D01*
X132956995Y-37398740D01*
X132901140Y-37454595D01*
X132861644Y-37523004D01*
X132841200Y-37599304D01*
X132841200Y-37678296D01*
X132861644Y-37754596D01*
X132901140Y-37823005D01*
X132956995Y-37878860D01*
X133025404Y-37918356D01*
X133026200Y-37918569D01*
X133026200Y-38584300D01*
X133006515Y-38651339D01*
X132953711Y-38697094D01*
X132902200Y-38708300D01*
X132003329Y-38708300D01*
X132003323Y-38708301D01*
X131943716Y-38714708D01*
X131858529Y-38746482D01*
X131815196Y-38754300D01*
X131058686Y-38754300D01*
X130991647Y-38734615D01*
X130971005Y-38717981D01*
X130613979Y-38360955D01*
X131551200Y-38360955D01*
X131551200Y-38458800D01*
X132526200Y-38458800D01*
X132526200Y-37888800D01*
X132154935Y-37888800D01*
X132134382Y-37902800D01*
X132096276Y-37908800D01*
X132003355Y-37908800D01*
X131943827Y-37915201D01*
X131943820Y-37915203D01*
X131809113Y-37965445D01*
X131809106Y-37965449D01*
X131694012Y-38051609D01*
X131694009Y-38051612D01*
X131607849Y-38166706D01*
X131607845Y-38166713D01*
X131557603Y-38301420D01*
X131557601Y-38301427D01*
X131551200Y-38360955D01*
X130613979Y-38360955D01*
X130085819Y-37832794D01*
X130052334Y-37771471D01*
X130049500Y-37745113D01*
X130049500Y-36236030D01*
X130069185Y-36168991D01*
X130085819Y-36148349D01*
X130099558Y-36134610D01*
X130161912Y-36072256D01*
X130254014Y-35922934D01*
X130309199Y-35756397D01*
X130319700Y-35653609D01*
X130319699Y-34653592D01*
X130316524Y-34622514D01*
X130309199Y-34550803D01*
X130309198Y-34550800D01*
X130290548Y-34494518D01*
X130254014Y-34384266D01*
X130161912Y-34234944D01*
X130037856Y-34110888D01*
X129888534Y-34018786D01*
X129721997Y-33963601D01*
X129721995Y-33963600D01*
X129619210Y-33953100D01*
X128869198Y-33953100D01*
X128869180Y-33953101D01*
X128766403Y-33963600D01*
X128766400Y-33963601D01*
X128599868Y-34018785D01*
X128599863Y-34018787D01*
X128450542Y-34110889D01*
X128326485Y-34234946D01*
X128324737Y-34237782D01*
X128323029Y-34239317D01*
X128322007Y-34240611D01*
X128321785Y-34240436D01*
X128272789Y-34284505D01*
X128203826Y-34295726D01*
X128139744Y-34267882D01*
X128113663Y-34237782D01*
X128111914Y-34234946D01*
X127987857Y-34110889D01*
X127987856Y-34110888D01*
X127838534Y-34018786D01*
X127671997Y-33963601D01*
X127671995Y-33963600D01*
X127569210Y-33953100D01*
X126819198Y-33953100D01*
X126819180Y-33953101D01*
X126716403Y-33963600D01*
X126716400Y-33963601D01*
X126549868Y-34018785D01*
X126549863Y-34018787D01*
X126400542Y-34110889D01*
X126276489Y-34234942D01*
X126184387Y-34384263D01*
X126184385Y-34384268D01*
X126173539Y-34417000D01*
X126148717Y-34491906D01*
X126108947Y-34549349D01*
X126044431Y-34576172D01*
X126031013Y-34576900D01*
X119153914Y-34576900D01*
X119086875Y-34557215D01*
X119048375Y-34517996D01*
X119032281Y-34491904D01*
X118974512Y-34398244D01*
X118850456Y-34274188D01*
X118847142Y-34272143D01*
X118845346Y-34270148D01*
X118844789Y-34269707D01*
X118844864Y-34269611D01*
X118800418Y-34220197D01*
X118789197Y-34151234D01*
X118817040Y-34087152D01*
X118847148Y-34061065D01*
X118850142Y-34059218D01*
X118974115Y-33935245D01*
X119066156Y-33786024D01*
X119066158Y-33786019D01*
X119121305Y-33619597D01*
X119121306Y-33619590D01*
X119131799Y-33516886D01*
X119131800Y-33516873D01*
X119131800Y-33379400D01*
X116681801Y-33379400D01*
X116681801Y-33516886D01*
X116692294Y-33619597D01*
X116747441Y-33786019D01*
X116747443Y-33786024D01*
X116839484Y-33935245D01*
X116963455Y-34059216D01*
X116963459Y-34059219D01*
X116966456Y-34061068D01*
X116968079Y-34062872D01*
X116969123Y-34063698D01*
X116968981Y-34063876D01*
X117013181Y-34113016D01*
X117024402Y-34181979D01*
X116996559Y-34246061D01*
X116966461Y-34272141D01*
X116963149Y-34274183D01*
X116963143Y-34274188D01*
X116839087Y-34398244D01*
X116765225Y-34517996D01*
X116713277Y-34564721D01*
X116659686Y-34576900D01*
X107579992Y-34576900D01*
X107458773Y-34601012D01*
X107458765Y-34601014D01*
X107406861Y-34622514D01*
X107406860Y-34622514D01*
X107344571Y-34648314D01*
X107344564Y-34648318D01*
X107303441Y-34675796D01*
X107303441Y-34675797D01*
X107241789Y-34716990D01*
X105851198Y-36107581D01*
X105789875Y-36141066D01*
X105763519Y-36143900D01*
X105689897Y-36143900D01*
X105579831Y-36158389D01*
X105571978Y-36160494D01*
X105571102Y-36157224D01*
X105517153Y-36162967D01*
X105506777Y-36159918D01*
X105506623Y-36160495D01*
X105498770Y-36158390D01*
X105388701Y-36143900D01*
X105189896Y-36143900D01*
X105079831Y-36158389D01*
X105071978Y-36160494D01*
X105071102Y-36157224D01*
X105017153Y-36162967D01*
X105006777Y-36159918D01*
X105006623Y-36160495D01*
X104998770Y-36158390D01*
X104888701Y-36143900D01*
X104689896Y-36143900D01*
X104579831Y-36158389D01*
X104571978Y-36160494D01*
X104571102Y-36157224D01*
X104517153Y-36162967D01*
X104506777Y-36159918D01*
X104506623Y-36160495D01*
X104498770Y-36158390D01*
X104388701Y-36143900D01*
X104189896Y-36143900D01*
X104079831Y-36158389D01*
X104071978Y-36160494D01*
X104071102Y-36157224D01*
X104017153Y-36162967D01*
X104006777Y-36159918D01*
X104006623Y-36160495D01*
X103998770Y-36158390D01*
X103888701Y-36143900D01*
X103689896Y-36143900D01*
X103579831Y-36158389D01*
X103571978Y-36160494D01*
X103571102Y-36157224D01*
X103517153Y-36162967D01*
X103506777Y-36159918D01*
X103506623Y-36160495D01*
X103498770Y-36158390D01*
X103388701Y-36143900D01*
X103189896Y-36143900D01*
X103079836Y-36158388D01*
X103079827Y-36158391D01*
X102942874Y-36215119D01*
X102942871Y-36215120D01*
X102942871Y-36215121D01*
X102825264Y-36305364D01*
X102736989Y-36420407D01*
X102735019Y-36422974D01*
X102678291Y-36559927D01*
X102678290Y-36559929D01*
X102663801Y-36669989D01*
X102663800Y-36670005D01*
X102663800Y-36994900D01*
X102644115Y-37061939D01*
X102591311Y-37107694D01*
X102539800Y-37118900D01*
X102214896Y-37118900D01*
X102104836Y-37133388D01*
X102104827Y-37133391D01*
X101967874Y-37190119D01*
X101967871Y-37190120D01*
X101967871Y-37190121D01*
X101850264Y-37280364D01*
X101762289Y-37395016D01*
X101760019Y-37397974D01*
X101703291Y-37534927D01*
X101703290Y-37534929D01*
X101688800Y-37644998D01*
X101688800Y-37843803D01*
X101703289Y-37953868D01*
X101705394Y-37961722D01*
X101702114Y-37962600D01*
X101707881Y-38016473D01*
X101704817Y-38026922D01*
X101705395Y-38027077D01*
X101703290Y-38034929D01*
X101688800Y-38144998D01*
X101688800Y-38343803D01*
X101703289Y-38453868D01*
X101705394Y-38461722D01*
X101702114Y-38462600D01*
X101707881Y-38516473D01*
X101704817Y-38526922D01*
X101705395Y-38527077D01*
X101703290Y-38534929D01*
X101688800Y-38644998D01*
X101688800Y-38843803D01*
X101703289Y-38953868D01*
X101705394Y-38961722D01*
X101702114Y-38962600D01*
X101707881Y-39016473D01*
X101704817Y-39026922D01*
X101705395Y-39027077D01*
X101703290Y-39034929D01*
X101688800Y-39144998D01*
X101688800Y-39343803D01*
X101703289Y-39453868D01*
X101705394Y-39461722D01*
X101702114Y-39462600D01*
X101707881Y-39516473D01*
X101704817Y-39526922D01*
X101705395Y-39527077D01*
X101703290Y-39534929D01*
X101688800Y-39644998D01*
X101688800Y-39843803D01*
X101703289Y-39953868D01*
X101705394Y-39961722D01*
X101702114Y-39962600D01*
X101707881Y-40016473D01*
X101704817Y-40026922D01*
X101705395Y-40027077D01*
X101703290Y-40034929D01*
X101688800Y-40144998D01*
X101688800Y-40343803D01*
X101703288Y-40453863D01*
X101703291Y-40453872D01*
X101757835Y-40585553D01*
X101760021Y-40590829D01*
X101850264Y-40708436D01*
X101967871Y-40798679D01*
X102104828Y-40855409D01*
X102185618Y-40866045D01*
X102249515Y-40894311D01*
X102287986Y-40952636D01*
X102288817Y-41022500D01*
X102257114Y-41076665D01*
X100258376Y-43075405D01*
X99593192Y-43740589D01*
X99567581Y-43766200D01*
X99505786Y-43827994D01*
X99505785Y-43827996D01*
X99437120Y-43930761D01*
X99437116Y-43930768D01*
X99429057Y-43950226D01*
X99429056Y-43950228D01*
X99389814Y-44044964D01*
X99389812Y-44044970D01*
X99373071Y-44129131D01*
X99373072Y-44129132D01*
X99365700Y-44166196D01*
X99365700Y-46522175D01*
X99346015Y-46589214D01*
X99306797Y-46627714D01*
X99174542Y-46709289D01*
X99080881Y-46802951D01*
X99019558Y-46836436D01*
X98949866Y-46831452D01*
X98905519Y-46802951D01*
X98811857Y-46709289D01*
X98811856Y-46709288D01*
X98662534Y-46617186D01*
X98495997Y-46562001D01*
X98495995Y-46562000D01*
X98393216Y-46551500D01*
X98393209Y-46551500D01*
X97749009Y-46551500D01*
X97681970Y-46531815D01*
X97636215Y-46479011D01*
X97625789Y-46441383D01*
X97610169Y-46302750D01*
X97610168Y-46302745D01*
X97584146Y-46228379D01*
X97550589Y-46132478D01*
X97454616Y-45979738D01*
X97327062Y-45852184D01*
X97318812Y-45847000D01*
X97174323Y-45756211D01*
X97004054Y-45696631D01*
X97004049Y-45696630D01*
X96824804Y-45676435D01*
X96824796Y-45676435D01*
X96645550Y-45696630D01*
X96645545Y-45696631D01*
X96475277Y-45756211D01*
X96399754Y-45803666D01*
X96342224Y-45839815D01*
X96341143Y-45840494D01*
X96275171Y-45859500D01*
X95402562Y-45859500D01*
X95335523Y-45839815D01*
X95306709Y-45814165D01*
X95275483Y-45776116D01*
X95123139Y-45651090D01*
X95123132Y-45651086D01*
X94949333Y-45558188D01*
X94949327Y-45558186D01*
X94760732Y-45500976D01*
X94760729Y-45500975D01*
X94564600Y-45481659D01*
X94368470Y-45500975D01*
X94179866Y-45558188D01*
X94006067Y-45651086D01*
X94006060Y-45651090D01*
X93853716Y-45776116D01*
X93728690Y-45928460D01*
X93728686Y-45928467D01*
X93635788Y-46102266D01*
X93578575Y-46290870D01*
X93559259Y-46487000D01*
X93578575Y-46683129D01*
X93578576Y-46683132D01*
X93630953Y-46855796D01*
X93635788Y-46871733D01*
X93728686Y-47045532D01*
X93732073Y-47050601D01*
X93730436Y-47051694D01*
X93754196Y-47107663D01*
X93742395Y-47176529D01*
X93731709Y-47193156D01*
X93732073Y-47193399D01*
X93728686Y-47198467D01*
X93635788Y-47372266D01*
X93578575Y-47560870D01*
X93559259Y-47757000D01*
X93578575Y-47953129D01*
X93635787Y-48141729D01*
X93636921Y-48143850D01*
X93637180Y-48145094D01*
X93638118Y-48147359D01*
X93637688Y-48147536D01*
X93651164Y-48212253D01*
X93626833Y-48276614D01*
X93620805Y-48284666D01*
X93620803Y-48284669D01*
X93608061Y-48318834D01*
X93566189Y-48374767D01*
X93500725Y-48399184D01*
X93491879Y-48399500D01*
X92190611Y-48399500D01*
X92123572Y-48379815D01*
X92077817Y-48327011D01*
X92072905Y-48314505D01*
X92071241Y-48309483D01*
X92052414Y-48252666D01*
X91960312Y-48103344D01*
X91836256Y-47979288D01*
X91704990Y-47898323D01*
X91686936Y-47887187D01*
X91686931Y-47887185D01*
X91685462Y-47886698D01*
X91520397Y-47832001D01*
X91520395Y-47832000D01*
X91417610Y-47821500D01*
X90617598Y-47821500D01*
X90617580Y-47821501D01*
X90514803Y-47832000D01*
X90514800Y-47832001D01*
X90348268Y-47887185D01*
X90348263Y-47887187D01*
X90198942Y-47979289D01*
X90105281Y-48072951D01*
X90043958Y-48106436D01*
X89974266Y-48101452D01*
X89929919Y-48072951D01*
X89836257Y-47979289D01*
X89836256Y-47979288D01*
X89704990Y-47898323D01*
X89686936Y-47887187D01*
X89686931Y-47887185D01*
X89685462Y-47886698D01*
X89520397Y-47832001D01*
X89520395Y-47832000D01*
X89417610Y-47821500D01*
X88617598Y-47821500D01*
X88617580Y-47821501D01*
X88514803Y-47832000D01*
X88514800Y-47832001D01*
X88348268Y-47887185D01*
X88348263Y-47887187D01*
X88198942Y-47979289D01*
X88074889Y-48103342D01*
X87982787Y-48252663D01*
X87982786Y-48252666D01*
X87963960Y-48309481D01*
X87963952Y-48309504D01*
X87924179Y-48366949D01*
X87859663Y-48393772D01*
X87846246Y-48394500D01*
X87275797Y-48394500D01*
X87208758Y-48374815D01*
X87163003Y-48322011D01*
X87152507Y-48257250D01*
X87152999Y-48252668D01*
X87153300Y-48249873D01*
X87153299Y-47254128D01*
X87146891Y-47194517D01*
X87134140Y-47160332D01*
X87129157Y-47090642D01*
X87134140Y-47073669D01*
X87146891Y-47039483D01*
X87153300Y-46979873D01*
X87153299Y-45984128D01*
X87146891Y-45924517D01*
X87134140Y-45890332D01*
X87129157Y-45820642D01*
X87134140Y-45803669D01*
X87146891Y-45769483D01*
X87153300Y-45709873D01*
X87153299Y-44714128D01*
X87146891Y-44654517D01*
X87134140Y-44620332D01*
X87129157Y-44550642D01*
X87134140Y-44533669D01*
X87146891Y-44499483D01*
X87153300Y-44439873D01*
X87153299Y-43444128D01*
X87146891Y-43384517D01*
X87134140Y-43350332D01*
X87129157Y-43280642D01*
X87134140Y-43263669D01*
X87146891Y-43229483D01*
X87153300Y-43169873D01*
X87153299Y-42174128D01*
X87146891Y-42114517D01*
X87134140Y-42080332D01*
X87129157Y-42010642D01*
X87134140Y-41993669D01*
X87146891Y-41959483D01*
X87153300Y-41899873D01*
X87153299Y-40904128D01*
X87146891Y-40844517D01*
X87134140Y-40810332D01*
X87129157Y-40740642D01*
X87134140Y-40723669D01*
X87146891Y-40689483D01*
X87153300Y-40629873D01*
X87153299Y-39634128D01*
X87146891Y-39574517D01*
X87134140Y-39540332D01*
X87129157Y-39470642D01*
X87134140Y-39453669D01*
X87146891Y-39419483D01*
X87153300Y-39359873D01*
X87153299Y-38364128D01*
X87153298Y-38364126D01*
X87153298Y-38364114D01*
X87152507Y-38356757D01*
X87164911Y-38287998D01*
X87212520Y-38236859D01*
X87275796Y-38219500D01*
X87850328Y-38219500D01*
X87916300Y-38238506D01*
X88035403Y-38313344D01*
X88042478Y-38317789D01*
X88174907Y-38364128D01*
X88212745Y-38377368D01*
X88212750Y-38377369D01*
X88391996Y-38397565D01*
X88392000Y-38397565D01*
X88392004Y-38397565D01*
X88571249Y-38377369D01*
X88571252Y-38377368D01*
X88571255Y-38377368D01*
X88741522Y-38317789D01*
X88894262Y-38221816D01*
X89021816Y-38094262D01*
X89117789Y-37941522D01*
X89177368Y-37771255D01*
X89178908Y-37757593D01*
X89197565Y-37592000D01*
X89197565Y-37591996D01*
X89177369Y-37412750D01*
X89177368Y-37412745D01*
X89154400Y-37347107D01*
X89117789Y-37242478D01*
X89021816Y-37089738D01*
X89002159Y-37070081D01*
X88968674Y-37008758D01*
X88973658Y-36939066D01*
X89002159Y-36894719D01*
X89034830Y-36862048D01*
X89072616Y-36824262D01*
X89168589Y-36671522D01*
X89228168Y-36501255D01*
X89230527Y-36480319D01*
X89248365Y-36322003D01*
X89248365Y-36321996D01*
X89228169Y-36142750D01*
X89228168Y-36142745D01*
X89213334Y-36100353D01*
X89168589Y-35972478D01*
X89072616Y-35819738D01*
X88945062Y-35692184D01*
X88918500Y-35675494D01*
X88792323Y-35596211D01*
X88622054Y-35536631D01*
X88622049Y-35536630D01*
X88442804Y-35516435D01*
X88442796Y-35516435D01*
X88263550Y-35536630D01*
X88263545Y-35536631D01*
X88093276Y-35596211D01*
X87967100Y-35675494D01*
X87901128Y-35694500D01*
X87275797Y-35694500D01*
X87208758Y-35674815D01*
X87163003Y-35622011D01*
X87152507Y-35557250D01*
X87152664Y-35555779D01*
X87153300Y-35549873D01*
X87153299Y-34554128D01*
X87146891Y-34494517D01*
X87134140Y-34460332D01*
X87129157Y-34390642D01*
X87134140Y-34373669D01*
X87146891Y-34339483D01*
X87153300Y-34279873D01*
X87153299Y-33284128D01*
X87146891Y-33224517D01*
X87133873Y-33189616D01*
X87128890Y-33119926D01*
X87133875Y-33102949D01*
X87146397Y-33069375D01*
X87146398Y-33069372D01*
X87152799Y-33009844D01*
X87152800Y-33009827D01*
X87152800Y-32762000D01*
X84652800Y-32762000D01*
X84652800Y-33009844D01*
X84659201Y-33069372D01*
X84659203Y-33069379D01*
X84671725Y-33102952D01*
X84676709Y-33172643D01*
X84671725Y-33189617D01*
X84658709Y-33224514D01*
X84658708Y-33224516D01*
X84652301Y-33284116D01*
X84652301Y-33284123D01*
X84652300Y-33284135D01*
X84652300Y-34279870D01*
X84652301Y-34279876D01*
X84658708Y-34339481D01*
X84671459Y-34373669D01*
X84676442Y-34443361D01*
X84671459Y-34460331D01*
X84658708Y-34494518D01*
X84652657Y-34550803D01*
X84652301Y-34554123D01*
X84652300Y-34554135D01*
X84652300Y-35549870D01*
X84652301Y-35549876D01*
X84658708Y-35609481D01*
X84671459Y-35643669D01*
X84676442Y-35713361D01*
X84671459Y-35730331D01*
X84658708Y-35764518D01*
X84652772Y-35819737D01*
X84652301Y-35824123D01*
X84652300Y-35824135D01*
X84652300Y-36819870D01*
X84652301Y-36819876D01*
X84658708Y-36879481D01*
X84671459Y-36913669D01*
X84676442Y-36983361D01*
X84671459Y-37000331D01*
X84658708Y-37034518D01*
X84652772Y-37089737D01*
X84652301Y-37094123D01*
X84652300Y-37094135D01*
X84652300Y-38089870D01*
X84652301Y-38089876D01*
X84658708Y-38149481D01*
X84671459Y-38183669D01*
X84676442Y-38253361D01*
X84671459Y-38270331D01*
X84658708Y-38304518D01*
X84653846Y-38349744D01*
X84652301Y-38364123D01*
X84652300Y-38364135D01*
X84652300Y-39359870D01*
X84652301Y-39359876D01*
X84658708Y-39419481D01*
X84671459Y-39453669D01*
X84676442Y-39523361D01*
X84671459Y-39540331D01*
X84658708Y-39574518D01*
X84652301Y-39634116D01*
X84652301Y-39634123D01*
X84652300Y-39634135D01*
X84652300Y-40629870D01*
X84652301Y-40629876D01*
X84658708Y-40689481D01*
X84671459Y-40723669D01*
X84676442Y-40793361D01*
X84671459Y-40810331D01*
X84658708Y-40844518D01*
X84653962Y-40888665D01*
X84652301Y-40904123D01*
X84652300Y-40904135D01*
X84652300Y-41899870D01*
X84652301Y-41899876D01*
X84658708Y-41959481D01*
X84671459Y-41993669D01*
X84676442Y-42063361D01*
X84671459Y-42080331D01*
X84658708Y-42114518D01*
X84653086Y-42166814D01*
X84652301Y-42174123D01*
X84652300Y-42174135D01*
X84652300Y-43169870D01*
X84652301Y-43169876D01*
X84658708Y-43229481D01*
X84671459Y-43263669D01*
X84676442Y-43333361D01*
X84671459Y-43350331D01*
X84658708Y-43384518D01*
X84652301Y-43444116D01*
X84652300Y-43444127D01*
X84652300Y-44439870D01*
X84652301Y-44439876D01*
X84658708Y-44499481D01*
X84671459Y-44533669D01*
X84676442Y-44603361D01*
X84671459Y-44620331D01*
X84658708Y-44654518D01*
X84652428Y-44712934D01*
X84652301Y-44714123D01*
X84652300Y-44714135D01*
X84652300Y-45709870D01*
X84652301Y-45709876D01*
X84658708Y-45769481D01*
X84671459Y-45803669D01*
X84676442Y-45873361D01*
X84671459Y-45890331D01*
X84658708Y-45924518D01*
X84652772Y-45979737D01*
X84652301Y-45984123D01*
X84652300Y-45984135D01*
X84652300Y-46979870D01*
X84652301Y-46979876D01*
X84658708Y-47039481D01*
X84671459Y-47073669D01*
X84676442Y-47143361D01*
X84671459Y-47160331D01*
X84658708Y-47194518D01*
X84652529Y-47251998D01*
X84652301Y-47254123D01*
X84652300Y-47254135D01*
X84652300Y-48249870D01*
X84652301Y-48249876D01*
X84658708Y-48309481D01*
X84671459Y-48343669D01*
X84676442Y-48413361D01*
X84671459Y-48430331D01*
X84658708Y-48464518D01*
X84652600Y-48521334D01*
X84652301Y-48524123D01*
X84652300Y-48524135D01*
X84652300Y-48897500D01*
X84632615Y-48964539D01*
X84579811Y-49010294D01*
X84528300Y-49021500D01*
X83639929Y-49021500D01*
X83639923Y-49021501D01*
X83580318Y-49027908D01*
X83546131Y-49040659D01*
X83476439Y-49045642D01*
X83459469Y-49040659D01*
X83425280Y-49027908D01*
X83425282Y-49027908D01*
X83365683Y-49021501D01*
X83365681Y-49021500D01*
X83365673Y-49021500D01*
X83365664Y-49021500D01*
X82369929Y-49021500D01*
X82369923Y-49021501D01*
X82310318Y-49027908D01*
X82276131Y-49040659D01*
X82206439Y-49045642D01*
X82189469Y-49040659D01*
X82155280Y-49027908D01*
X82155282Y-49027908D01*
X82095683Y-49021501D01*
X82095681Y-49021500D01*
X82095673Y-49021500D01*
X82095664Y-49021500D01*
X81099929Y-49021500D01*
X81099923Y-49021501D01*
X81040318Y-49027908D01*
X81006131Y-49040659D01*
X80936439Y-49045642D01*
X80919469Y-49040659D01*
X80885280Y-49027908D01*
X80885282Y-49027908D01*
X80825683Y-49021501D01*
X80825681Y-49021500D01*
X80825673Y-49021500D01*
X80825664Y-49021500D01*
X79829929Y-49021500D01*
X79829923Y-49021501D01*
X79770318Y-49027908D01*
X79736131Y-49040659D01*
X79666439Y-49045642D01*
X79649469Y-49040659D01*
X79615280Y-49027908D01*
X79615282Y-49027908D01*
X79555683Y-49021501D01*
X79555681Y-49021500D01*
X79555673Y-49021500D01*
X79555664Y-49021500D01*
X78559929Y-49021500D01*
X78559923Y-49021501D01*
X78500318Y-49027908D01*
X78466131Y-49040659D01*
X78396439Y-49045642D01*
X78379469Y-49040659D01*
X78345280Y-49027908D01*
X78345282Y-49027908D01*
X78285683Y-49021501D01*
X78285681Y-49021500D01*
X78285673Y-49021500D01*
X78285664Y-49021500D01*
X77289929Y-49021500D01*
X77289923Y-49021501D01*
X77230318Y-49027908D01*
X77196131Y-49040659D01*
X77126439Y-49045642D01*
X77109469Y-49040659D01*
X77075280Y-49027908D01*
X77075282Y-49027908D01*
X77015683Y-49021501D01*
X77015681Y-49021500D01*
X77015673Y-49021500D01*
X77015664Y-49021500D01*
X76019929Y-49021500D01*
X76019923Y-49021501D01*
X75960318Y-49027908D01*
X75926131Y-49040659D01*
X75856439Y-49045642D01*
X75839469Y-49040659D01*
X75805280Y-49027908D01*
X75805282Y-49027908D01*
X75745683Y-49021501D01*
X75745681Y-49021500D01*
X75745673Y-49021500D01*
X75745664Y-49021500D01*
X74749929Y-49021500D01*
X74749923Y-49021501D01*
X74690318Y-49027908D01*
X74656131Y-49040659D01*
X74586439Y-49045642D01*
X74569469Y-49040659D01*
X74535280Y-49027908D01*
X74535282Y-49027908D01*
X74475683Y-49021501D01*
X74475681Y-49021500D01*
X74475673Y-49021500D01*
X74475664Y-49021500D01*
X73479929Y-49021500D01*
X73479923Y-49021501D01*
X73420318Y-49027908D01*
X73386131Y-49040659D01*
X73316439Y-49045642D01*
X73299469Y-49040659D01*
X73265280Y-49027908D01*
X73265282Y-49027908D01*
X73205683Y-49021501D01*
X73205681Y-49021500D01*
X73205673Y-49021500D01*
X73205664Y-49021500D01*
X72209929Y-49021500D01*
X72209923Y-49021501D01*
X72150318Y-49027908D01*
X72116131Y-49040659D01*
X72046439Y-49045642D01*
X72029469Y-49040659D01*
X71995280Y-49027908D01*
X71995282Y-49027908D01*
X71935683Y-49021501D01*
X71935681Y-49021500D01*
X71935673Y-49021500D01*
X71935664Y-49021500D01*
X70939929Y-49021500D01*
X70939923Y-49021501D01*
X70880318Y-49027908D01*
X70846131Y-49040659D01*
X70776439Y-49045642D01*
X70759469Y-49040659D01*
X70725280Y-49027908D01*
X70725282Y-49027908D01*
X70665683Y-49021501D01*
X70665681Y-49021500D01*
X70665673Y-49021500D01*
X70665665Y-49021500D01*
X69777299Y-49021500D01*
X69710260Y-49001815D01*
X69664505Y-48949011D01*
X69653299Y-48897500D01*
X69653299Y-48524129D01*
X69653298Y-48524123D01*
X69653297Y-48524116D01*
X69646891Y-48464517D01*
X69634140Y-48430332D01*
X69629157Y-48360642D01*
X69634140Y-48343669D01*
X69646891Y-48309483D01*
X69653300Y-48249873D01*
X69653299Y-47254128D01*
X69646891Y-47194517D01*
X69634140Y-47160332D01*
X69629157Y-47090642D01*
X69634140Y-47073669D01*
X69646891Y-47039483D01*
X69653300Y-46979873D01*
X69653299Y-45984128D01*
X69646891Y-45924517D01*
X69634140Y-45890332D01*
X69629157Y-45820642D01*
X69634140Y-45803669D01*
X69646891Y-45769483D01*
X69653300Y-45709873D01*
X69653299Y-44714128D01*
X69646891Y-44654517D01*
X69634140Y-44620332D01*
X69629157Y-44550642D01*
X69634140Y-44533669D01*
X69646891Y-44499483D01*
X69653300Y-44439873D01*
X69653299Y-43444128D01*
X69646891Y-43384517D01*
X69634140Y-43350332D01*
X69629157Y-43280642D01*
X69634140Y-43263669D01*
X69646891Y-43229483D01*
X69653300Y-43169873D01*
X69653299Y-42229844D01*
X73202800Y-42229844D01*
X73209201Y-42289372D01*
X73209203Y-42289379D01*
X73259445Y-42424086D01*
X73259449Y-42424093D01*
X73345609Y-42539187D01*
X73345612Y-42539190D01*
X73460706Y-42625350D01*
X73460713Y-42625354D01*
X73595420Y-42675596D01*
X73595427Y-42675598D01*
X73654955Y-42681999D01*
X73654972Y-42682000D01*
X75402800Y-42682000D01*
X75402800Y-41535554D01*
X75902800Y-41535554D01*
X75902800Y-42682000D01*
X77650628Y-42682000D01*
X77650644Y-42681999D01*
X77710172Y-42675598D01*
X77710179Y-42675596D01*
X77844886Y-42625354D01*
X77844893Y-42625350D01*
X77959987Y-42539190D01*
X77959990Y-42539187D01*
X78046150Y-42424093D01*
X78046154Y-42424086D01*
X78096396Y-42289379D01*
X78096398Y-42289372D01*
X78102799Y-42229844D01*
X78102800Y-42229827D01*
X78102800Y-40482000D01*
X76956353Y-40482000D01*
X77067080Y-40592726D01*
X77067082Y-40592730D01*
X77318671Y-40844318D01*
X77352156Y-40905641D01*
X77347172Y-40975332D01*
X77318671Y-41019680D01*
X77089360Y-41248990D01*
X77089348Y-41249006D01*
X76669806Y-41668548D01*
X76669799Y-41668551D01*
X76440480Y-41897871D01*
X76379157Y-41931356D01*
X76309465Y-41926372D01*
X76265118Y-41897871D01*
X76013540Y-41646292D01*
X76013525Y-41646280D01*
X75979354Y-41612109D01*
X76252800Y-41612109D01*
X76252800Y-41651891D01*
X76268024Y-41688645D01*
X76296155Y-41716776D01*
X76332909Y-41732000D01*
X76372691Y-41732000D01*
X76409445Y-41716776D01*
X76437576Y-41688645D01*
X76452800Y-41651891D01*
X76452800Y-41612109D01*
X76437576Y-41575355D01*
X76409445Y-41547224D01*
X76372691Y-41532000D01*
X76332909Y-41532000D01*
X76296155Y-41547224D01*
X76268024Y-41575355D01*
X76252800Y-41612109D01*
X75979354Y-41612109D01*
X75902800Y-41535554D01*
X75402800Y-41535554D01*
X75402800Y-41535553D01*
X75269807Y-41668548D01*
X75269798Y-41668552D01*
X75040480Y-41897871D01*
X74979157Y-41931356D01*
X74909465Y-41926372D01*
X74865118Y-41897871D01*
X74613536Y-41646288D01*
X74613526Y-41646280D01*
X74579355Y-41612109D01*
X74852800Y-41612109D01*
X74852800Y-41651891D01*
X74868024Y-41688645D01*
X74896155Y-41716776D01*
X74932909Y-41732000D01*
X74972691Y-41732000D01*
X75009445Y-41716776D01*
X75037576Y-41688645D01*
X75052800Y-41651891D01*
X75052800Y-41612109D01*
X75037576Y-41575355D01*
X75009445Y-41547224D01*
X74972691Y-41532000D01*
X74932909Y-41532000D01*
X74896155Y-41547224D01*
X74868024Y-41575355D01*
X74852800Y-41612109D01*
X74579355Y-41612109D01*
X74197373Y-41230127D01*
X74197371Y-41230124D01*
X73986927Y-41019680D01*
X73953442Y-40958357D01*
X73956749Y-40912109D01*
X74152800Y-40912109D01*
X74152800Y-40951891D01*
X74168024Y-40988645D01*
X74196155Y-41016776D01*
X74232909Y-41032000D01*
X74272691Y-41032000D01*
X74309445Y-41016776D01*
X74337576Y-40988645D01*
X74352800Y-40951891D01*
X74352800Y-40932000D01*
X74606353Y-40932000D01*
X74643426Y-40969072D01*
X74952800Y-41278446D01*
X75299246Y-40932000D01*
X75279355Y-40912109D01*
X75552800Y-40912109D01*
X75552800Y-40951891D01*
X75568024Y-40988645D01*
X75596155Y-41016776D01*
X75632909Y-41032000D01*
X75672691Y-41032000D01*
X75709445Y-41016776D01*
X75737576Y-40988645D01*
X75752800Y-40951891D01*
X75752800Y-40932000D01*
X76006353Y-40932000D01*
X76043426Y-40969072D01*
X76352800Y-41278446D01*
X76699246Y-40932000D01*
X76679355Y-40912109D01*
X76952800Y-40912109D01*
X76952800Y-40951891D01*
X76968024Y-40988645D01*
X76996155Y-41016776D01*
X77032909Y-41032000D01*
X77072691Y-41032000D01*
X77109445Y-41016776D01*
X77137576Y-40988645D01*
X77152800Y-40951891D01*
X77152800Y-40912109D01*
X77137576Y-40875355D01*
X77109445Y-40847224D01*
X77072691Y-40832000D01*
X77032909Y-40832000D01*
X76996155Y-40847224D01*
X76968024Y-40875355D01*
X76952800Y-40912109D01*
X76679355Y-40912109D01*
X76388043Y-40620797D01*
X76352800Y-40585553D01*
X76317557Y-40620797D01*
X76317555Y-40620799D01*
X76006353Y-40932000D01*
X75752800Y-40932000D01*
X75752800Y-40912109D01*
X75737576Y-40875355D01*
X75709445Y-40847224D01*
X75672691Y-40832000D01*
X75632909Y-40832000D01*
X75596155Y-40847224D01*
X75568024Y-40875355D01*
X75552800Y-40912109D01*
X75279355Y-40912109D01*
X74988043Y-40620797D01*
X74952800Y-40585553D01*
X74917557Y-40620797D01*
X74917555Y-40620799D01*
X74606353Y-40932000D01*
X74352800Y-40932000D01*
X74352800Y-40912109D01*
X74337576Y-40875355D01*
X74309445Y-40847224D01*
X74272691Y-40832000D01*
X74232909Y-40832000D01*
X74196155Y-40847224D01*
X74168024Y-40875355D01*
X74152800Y-40912109D01*
X73956749Y-40912109D01*
X73958426Y-40888665D01*
X73986927Y-40844318D01*
X74179932Y-40651314D01*
X74349246Y-40482000D01*
X73202800Y-40482000D01*
X73202800Y-42229844D01*
X69653299Y-42229844D01*
X69653299Y-42174128D01*
X69646891Y-42114517D01*
X69634140Y-42080332D01*
X69629157Y-42010642D01*
X69634140Y-41993669D01*
X69646891Y-41959483D01*
X69653300Y-41899873D01*
X69653299Y-40904128D01*
X69646891Y-40844517D01*
X69634140Y-40810332D01*
X69629157Y-40740642D01*
X69634140Y-40723669D01*
X69646891Y-40689483D01*
X69653300Y-40629873D01*
X69653300Y-40212109D01*
X74852800Y-40212109D01*
X74852800Y-40251891D01*
X74868024Y-40288645D01*
X74896155Y-40316776D01*
X74932909Y-40332000D01*
X74972691Y-40332000D01*
X75009445Y-40316776D01*
X75037576Y-40288645D01*
X75052800Y-40251891D01*
X75052800Y-40212109D01*
X76252800Y-40212109D01*
X76252800Y-40251891D01*
X76268024Y-40288645D01*
X76296155Y-40316776D01*
X76332909Y-40332000D01*
X76372691Y-40332000D01*
X76409445Y-40316776D01*
X76437576Y-40288645D01*
X76452800Y-40251891D01*
X76452800Y-40212109D01*
X76437576Y-40175355D01*
X76409445Y-40147224D01*
X76372691Y-40132000D01*
X76332909Y-40132000D01*
X76296155Y-40147224D01*
X76268024Y-40175355D01*
X76252800Y-40212109D01*
X75052800Y-40212109D01*
X75037576Y-40175355D01*
X75009445Y-40147224D01*
X74972691Y-40132000D01*
X74932909Y-40132000D01*
X74896155Y-40147224D01*
X74868024Y-40175355D01*
X74852800Y-40212109D01*
X69653300Y-40212109D01*
X69653299Y-39634128D01*
X69646891Y-39574517D01*
X69634140Y-39540332D01*
X69629157Y-39470642D01*
X69634140Y-39453669D01*
X69646891Y-39419483D01*
X69653300Y-39359873D01*
X69653299Y-38364128D01*
X69646891Y-38304517D01*
X69634140Y-38270332D01*
X69631553Y-38234155D01*
X73202800Y-38234155D01*
X73202800Y-39982000D01*
X74349245Y-39982000D01*
X74288024Y-39920779D01*
X74288024Y-39920778D01*
X74197373Y-39830127D01*
X74197371Y-39830124D01*
X73986927Y-39619680D01*
X73953442Y-39558357D01*
X73956749Y-39512109D01*
X74152800Y-39512109D01*
X74152800Y-39551891D01*
X74168024Y-39588645D01*
X74196155Y-39616776D01*
X74232909Y-39632000D01*
X74272691Y-39632000D01*
X74309445Y-39616776D01*
X74337576Y-39588645D01*
X74352800Y-39551891D01*
X74352800Y-39531999D01*
X74606353Y-39531999D01*
X74647554Y-39573199D01*
X74647555Y-39573201D01*
X74952800Y-39878446D01*
X75299246Y-39532000D01*
X75279355Y-39512109D01*
X75552800Y-39512109D01*
X75552800Y-39551891D01*
X75568024Y-39588645D01*
X75596155Y-39616776D01*
X75632909Y-39632000D01*
X75672691Y-39632000D01*
X75709445Y-39616776D01*
X75737576Y-39588645D01*
X75752800Y-39551891D01*
X75752800Y-39531999D01*
X76006353Y-39531999D01*
X76047554Y-39573199D01*
X76047555Y-39573201D01*
X76352800Y-39878446D01*
X76699246Y-39532000D01*
X76679355Y-39512109D01*
X76952800Y-39512109D01*
X76952800Y-39551891D01*
X76968024Y-39588645D01*
X76996155Y-39616776D01*
X77032909Y-39632000D01*
X77072691Y-39632000D01*
X77109445Y-39616776D01*
X77137576Y-39588645D01*
X77152800Y-39551891D01*
X77152800Y-39512109D01*
X77137576Y-39475355D01*
X77109445Y-39447224D01*
X77072691Y-39432000D01*
X77032909Y-39432000D01*
X76996155Y-39447224D01*
X76968024Y-39475355D01*
X76952800Y-39512109D01*
X76679355Y-39512109D01*
X76396211Y-39228965D01*
X76352800Y-39185553D01*
X76309389Y-39228965D01*
X76309388Y-39228966D01*
X76006353Y-39531999D01*
X75752800Y-39531999D01*
X75752800Y-39512109D01*
X75737576Y-39475355D01*
X75709445Y-39447224D01*
X75672691Y-39432000D01*
X75632909Y-39432000D01*
X75596155Y-39447224D01*
X75568024Y-39475355D01*
X75552800Y-39512109D01*
X75279355Y-39512109D01*
X74996211Y-39228965D01*
X74952800Y-39185553D01*
X74909389Y-39228965D01*
X74909388Y-39228966D01*
X74606353Y-39531999D01*
X74352800Y-39531999D01*
X74352800Y-39512109D01*
X74337576Y-39475355D01*
X74309445Y-39447224D01*
X74272691Y-39432000D01*
X74232909Y-39432000D01*
X74196155Y-39447224D01*
X74168024Y-39475355D01*
X74152800Y-39512109D01*
X73956749Y-39512109D01*
X73958426Y-39488665D01*
X73986927Y-39444318D01*
X74179932Y-39251314D01*
X74619137Y-38812109D01*
X74852800Y-38812109D01*
X74852800Y-38851891D01*
X74868024Y-38888645D01*
X74896155Y-38916776D01*
X74932909Y-38932000D01*
X74972691Y-38932000D01*
X75009445Y-38916776D01*
X75037576Y-38888645D01*
X75052800Y-38851891D01*
X75052800Y-38812109D01*
X75037576Y-38775355D01*
X75009445Y-38747224D01*
X74972691Y-38732000D01*
X74932909Y-38732000D01*
X74896155Y-38747224D01*
X74868024Y-38775355D01*
X74852800Y-38812109D01*
X74619137Y-38812109D01*
X74672114Y-38759132D01*
X74865118Y-38566127D01*
X74926441Y-38532642D01*
X74996132Y-38537626D01*
X75040480Y-38566127D01*
X75250921Y-38776568D01*
X75250927Y-38776573D01*
X75340260Y-38865906D01*
X75340261Y-38865906D01*
X75402800Y-38928445D01*
X75402800Y-38928444D01*
X75902800Y-38928444D01*
X75965339Y-38865906D01*
X75965340Y-38865906D01*
X76019137Y-38812109D01*
X76252800Y-38812109D01*
X76252800Y-38851891D01*
X76268024Y-38888645D01*
X76296155Y-38916776D01*
X76332909Y-38932000D01*
X76372691Y-38932000D01*
X76409445Y-38916776D01*
X76437576Y-38888645D01*
X76452800Y-38851891D01*
X76452800Y-38812109D01*
X76437576Y-38775355D01*
X76409445Y-38747224D01*
X76372691Y-38732000D01*
X76332909Y-38732000D01*
X76296155Y-38747224D01*
X76268024Y-38775355D01*
X76252800Y-38812109D01*
X76019137Y-38812109D01*
X76072114Y-38759132D01*
X76265118Y-38566127D01*
X76326441Y-38532642D01*
X76396132Y-38537626D01*
X76440480Y-38566127D01*
X76650921Y-38776568D01*
X76650927Y-38776573D01*
X77067080Y-39192726D01*
X77067082Y-39192730D01*
X77318671Y-39444318D01*
X77352156Y-39505641D01*
X77347172Y-39575332D01*
X77318671Y-39619680D01*
X77089360Y-39848990D01*
X77089348Y-39849006D01*
X77017576Y-39920778D01*
X77017576Y-39920779D01*
X76956354Y-39982000D01*
X78102800Y-39982000D01*
X78102800Y-38234172D01*
X78102799Y-38234155D01*
X78096398Y-38174627D01*
X78096396Y-38174620D01*
X78046154Y-38039913D01*
X78046150Y-38039906D01*
X77959990Y-37924812D01*
X77959987Y-37924809D01*
X77844893Y-37838649D01*
X77844886Y-37838645D01*
X77710179Y-37788403D01*
X77710172Y-37788401D01*
X77650644Y-37782000D01*
X75902800Y-37782000D01*
X75902800Y-38928444D01*
X75402800Y-38928444D01*
X75402800Y-37782000D01*
X73654955Y-37782000D01*
X73595427Y-37788401D01*
X73595420Y-37788403D01*
X73460713Y-37838645D01*
X73460706Y-37838649D01*
X73345612Y-37924809D01*
X73345609Y-37924812D01*
X73259449Y-38039906D01*
X73259445Y-38039913D01*
X73209203Y-38174620D01*
X73209201Y-38174627D01*
X73202800Y-38234155D01*
X69631553Y-38234155D01*
X69629157Y-38200642D01*
X69634140Y-38183669D01*
X69646891Y-38149483D01*
X69653300Y-38089873D01*
X69653299Y-37094128D01*
X69646891Y-37034517D01*
X69634140Y-37000332D01*
X69629157Y-36930642D01*
X69634140Y-36913669D01*
X69646891Y-36879483D01*
X69653300Y-36819873D01*
X69653299Y-35824128D01*
X69646891Y-35764517D01*
X69634140Y-35730332D01*
X69629157Y-35660642D01*
X69634140Y-35643669D01*
X69646891Y-35609483D01*
X69653300Y-35549873D01*
X69653299Y-34554128D01*
X69646891Y-34494517D01*
X69634140Y-34460332D01*
X69629157Y-34390642D01*
X69634140Y-34373669D01*
X69646891Y-34339483D01*
X69653300Y-34279873D01*
X69653299Y-33284128D01*
X69646891Y-33224517D01*
X69633873Y-33189616D01*
X69628890Y-33119926D01*
X69633875Y-33102949D01*
X69646397Y-33069375D01*
X69646398Y-33069372D01*
X69652799Y-33009844D01*
X69652800Y-33009827D01*
X69652800Y-32762000D01*
X67152800Y-32762000D01*
X67152800Y-32776500D01*
X67133115Y-32843539D01*
X67080311Y-32889294D01*
X67028800Y-32900500D01*
X60974775Y-32900500D01*
X60804483Y-32934373D01*
X60804475Y-32934375D01*
X60691040Y-32981362D01*
X60644055Y-33000823D01*
X60511089Y-33089669D01*
X60511085Y-33089672D01*
X60499677Y-33097293D01*
X58751296Y-34845672D01*
X58751295Y-34845673D01*
X58654822Y-34990056D01*
X58588377Y-35150471D01*
X58588374Y-35150483D01*
X58561080Y-35287701D01*
X58561080Y-35287704D01*
X58554500Y-35320779D01*
X58554500Y-35344113D01*
X58534815Y-35411152D01*
X58482011Y-35456907D01*
X58412853Y-35466851D01*
X58349297Y-35437826D01*
X58342819Y-35431794D01*
X57480559Y-34569534D01*
X57447074Y-34508211D01*
X57452058Y-34438519D01*
X57493930Y-34382586D01*
X57529236Y-34364147D01*
X57549119Y-34357558D01*
X57549124Y-34357556D01*
X57698345Y-34265515D01*
X57822315Y-34141545D01*
X57914356Y-33992324D01*
X57914358Y-33992319D01*
X57969505Y-33825897D01*
X57969506Y-33825890D01*
X57979999Y-33723186D01*
X57980000Y-33723173D01*
X57980000Y-33473200D01*
X56754000Y-33473200D01*
X56686961Y-33453515D01*
X56641206Y-33400711D01*
X56630000Y-33349200D01*
X56630000Y-32973200D01*
X57130000Y-32973200D01*
X57979999Y-32973200D01*
X57979999Y-32741913D01*
X116681800Y-32741913D01*
X116681800Y-32879400D01*
X117656800Y-32879400D01*
X118156800Y-32879400D01*
X119131799Y-32879400D01*
X119131799Y-32741928D01*
X119131798Y-32741913D01*
X119121305Y-32639202D01*
X119066158Y-32472780D01*
X119066156Y-32472775D01*
X118974115Y-32323554D01*
X118850145Y-32199584D01*
X118700924Y-32107543D01*
X118700919Y-32107541D01*
X118534497Y-32052394D01*
X118534490Y-32052393D01*
X118431786Y-32041900D01*
X118156800Y-32041900D01*
X118156800Y-32879400D01*
X117656800Y-32879400D01*
X117656800Y-32041900D01*
X117381829Y-32041900D01*
X117381812Y-32041901D01*
X117279102Y-32052394D01*
X117112680Y-32107541D01*
X117112675Y-32107543D01*
X116963454Y-32199584D01*
X116839484Y-32323554D01*
X116747443Y-32472775D01*
X116747441Y-32472780D01*
X116692294Y-32639202D01*
X116692293Y-32639209D01*
X116681800Y-32741913D01*
X57979999Y-32741913D01*
X57979999Y-32723228D01*
X57979998Y-32723213D01*
X57969505Y-32620502D01*
X57914358Y-32454080D01*
X57914356Y-32454075D01*
X57822315Y-32304854D01*
X57698345Y-32180884D01*
X57549124Y-32088843D01*
X57549119Y-32088841D01*
X57382697Y-32033694D01*
X57382690Y-32033693D01*
X57279986Y-32023200D01*
X57130000Y-32023200D01*
X57130000Y-32973200D01*
X56630000Y-32973200D01*
X56630000Y-32023200D01*
X56480027Y-32023200D01*
X56480012Y-32023201D01*
X56377302Y-32033694D01*
X56210880Y-32088841D01*
X56210875Y-32088843D01*
X56061657Y-32180882D01*
X55968034Y-32274505D01*
X55906710Y-32307989D01*
X55837019Y-32303005D01*
X55792672Y-32274504D01*
X55698657Y-32180489D01*
X55698656Y-32180488D01*
X55580393Y-32107543D01*
X55549336Y-32088387D01*
X55549331Y-32088385D01*
X55547862Y-32087898D01*
X55382797Y-32033201D01*
X55382795Y-32033200D01*
X55280010Y-32022700D01*
X54479998Y-32022700D01*
X54479980Y-32022701D01*
X54377203Y-32033200D01*
X54377200Y-32033201D01*
X54210668Y-32088385D01*
X54210663Y-32088387D01*
X54061342Y-32180489D01*
X53937289Y-32304542D01*
X53872368Y-32409797D01*
X53820420Y-32456521D01*
X53766829Y-32468700D01*
X47654603Y-32468700D01*
X47587564Y-32449015D01*
X47541809Y-32396211D01*
X47536897Y-32383704D01*
X47516965Y-32323554D01*
X47503814Y-32283866D01*
X47411712Y-32134544D01*
X47287656Y-32010488D01*
X47138334Y-31918386D01*
X46971797Y-31863201D01*
X46971795Y-31863200D01*
X46869010Y-31852700D01*
X45078998Y-31852700D01*
X45078981Y-31852701D01*
X44976203Y-31863200D01*
X44976200Y-31863201D01*
X44809668Y-31918385D01*
X44809663Y-31918387D01*
X44660342Y-32010489D01*
X44536289Y-32134542D01*
X44444187Y-32283863D01*
X44444185Y-32283868D01*
X44416349Y-32367870D01*
X44389001Y-32450403D01*
X44389001Y-32450404D01*
X44389000Y-32450404D01*
X44378500Y-32553183D01*
X44378500Y-33893201D01*
X44378501Y-33893218D01*
X44389000Y-33995996D01*
X44389001Y-33995999D01*
X44444185Y-34162531D01*
X44444186Y-34162534D01*
X44536288Y-34311856D01*
X44660344Y-34435912D01*
X44809666Y-34528014D01*
X44809668Y-34528014D01*
X44809669Y-34528015D01*
X44810348Y-34528332D01*
X44810735Y-34528673D01*
X44815813Y-34531805D01*
X44815277Y-34532672D01*
X44862787Y-34574504D01*
X44881939Y-34641698D01*
X44861723Y-34708579D01*
X44845625Y-34728395D01*
X44703640Y-34870380D01*
X44576843Y-35044900D01*
X44478909Y-35237108D01*
X44412245Y-35442277D01*
X44378500Y-35655333D01*
X44378500Y-35871066D01*
X44402516Y-36022696D01*
X44412246Y-36084126D01*
X44478908Y-36289289D01*
X44576843Y-36481499D01*
X44703641Y-36656021D01*
X44856179Y-36808559D01*
X44953797Y-36879483D01*
X45027294Y-36932882D01*
X45069959Y-36988212D01*
X45075938Y-37057826D01*
X45043332Y-37119621D01*
X45027294Y-37133518D01*
X44981348Y-37166900D01*
X44856179Y-37257841D01*
X44856177Y-37257843D01*
X44856176Y-37257843D01*
X44703643Y-37410376D01*
X44703643Y-37410377D01*
X44703641Y-37410379D01*
X44671516Y-37454595D01*
X44576843Y-37584900D01*
X44478909Y-37777108D01*
X44412245Y-37982277D01*
X44378500Y-38195333D01*
X44378500Y-38411066D01*
X44409737Y-38608285D01*
X44412246Y-38624126D01*
X44478908Y-38829289D01*
X44576843Y-39021499D01*
X44703641Y-39196021D01*
X44856179Y-39348559D01*
X44971025Y-39432000D01*
X45027294Y-39472882D01*
X45069959Y-39528212D01*
X45075938Y-39597826D01*
X45043332Y-39659621D01*
X45027294Y-39673518D01*
X44981252Y-39706970D01*
X44856179Y-39797841D01*
X44856177Y-39797843D01*
X44856176Y-39797843D01*
X44703643Y-39950376D01*
X44703643Y-39950377D01*
X44703641Y-39950379D01*
X44663510Y-40005614D01*
X44576843Y-40124900D01*
X44478909Y-40317108D01*
X44412245Y-40522277D01*
X44378500Y-40735333D01*
X44378500Y-40951066D01*
X44410793Y-41154954D01*
X44412246Y-41164126D01*
X44478908Y-41369289D01*
X44576843Y-41561499D01*
X44703641Y-41736021D01*
X44856179Y-41888559D01*
X45030701Y-42015357D01*
X45222911Y-42113292D01*
X45428074Y-42179954D01*
X45495032Y-42190559D01*
X45641134Y-42213700D01*
X45641139Y-42213700D01*
X46306866Y-42213700D01*
X46425230Y-42194952D01*
X46519926Y-42179954D01*
X46725089Y-42113292D01*
X46917299Y-42015357D01*
X47091821Y-41888559D01*
X47244359Y-41736021D01*
X47307718Y-41648815D01*
X47363048Y-41606149D01*
X47408036Y-41597700D01*
X50893313Y-41597700D01*
X50960352Y-41617385D01*
X50980994Y-41634019D01*
X52558781Y-43211805D01*
X52592266Y-43273128D01*
X52595100Y-43299486D01*
X52595100Y-43781601D01*
X52595101Y-43781619D01*
X52605600Y-43884396D01*
X52605601Y-43884399D01*
X52649151Y-44015822D01*
X52660786Y-44050934D01*
X52752888Y-44200256D01*
X52876944Y-44324312D01*
X53026266Y-44416414D01*
X53192803Y-44471599D01*
X53295591Y-44482100D01*
X54095608Y-44482099D01*
X54095616Y-44482098D01*
X54095619Y-44482098D01*
X54192102Y-44472242D01*
X54198397Y-44471599D01*
X54364934Y-44416414D01*
X54514256Y-44324312D01*
X54608275Y-44230292D01*
X54669594Y-44196810D01*
X54739286Y-44201794D01*
X54783634Y-44230295D01*
X54877254Y-44323915D01*
X55026475Y-44415956D01*
X55026480Y-44415958D01*
X55192902Y-44471105D01*
X55192909Y-44471106D01*
X55295619Y-44481599D01*
X55445599Y-44481599D01*
X55945600Y-44481599D01*
X56095572Y-44481599D01*
X56095586Y-44481598D01*
X56198297Y-44471105D01*
X56364719Y-44415958D01*
X56364724Y-44415956D01*
X56513945Y-44323915D01*
X56637915Y-44199945D01*
X56729956Y-44050724D01*
X56729958Y-44050719D01*
X56785105Y-43884297D01*
X56785106Y-43884290D01*
X56795599Y-43781586D01*
X56795600Y-43781573D01*
X56795600Y-43531600D01*
X55945600Y-43531600D01*
X55945600Y-44481599D01*
X55445599Y-44481599D01*
X55445600Y-44481598D01*
X55445600Y-43155600D01*
X55465285Y-43088561D01*
X55518089Y-43042806D01*
X55569600Y-43031600D01*
X56795599Y-43031600D01*
X56795599Y-42890100D01*
X56815284Y-42823061D01*
X56868088Y-42777306D01*
X56919599Y-42766100D01*
X57674260Y-42766100D01*
X57715215Y-42773059D01*
X57783537Y-42796966D01*
X57783543Y-42796967D01*
X57783545Y-42796968D01*
X57783546Y-42796968D01*
X57783550Y-42796969D01*
X57962796Y-42817165D01*
X57962800Y-42817165D01*
X57962804Y-42817165D01*
X58142049Y-42796969D01*
X58142052Y-42796968D01*
X58142055Y-42796968D01*
X58312322Y-42737389D01*
X58364528Y-42704585D01*
X58431763Y-42685585D01*
X58498599Y-42705952D01*
X58543813Y-42759219D01*
X58554500Y-42809579D01*
X58554500Y-59806379D01*
X58554500Y-59980021D01*
X58554500Y-59980023D01*
X58554499Y-59980023D01*
X58588374Y-60150318D01*
X58588377Y-60150328D01*
X58654822Y-60310743D01*
X58751295Y-60455126D01*
X58751296Y-60455127D01*
X65173390Y-66877219D01*
X65206875Y-66938542D01*
X65201891Y-67008234D01*
X65160019Y-67064167D01*
X65094555Y-67088584D01*
X65085709Y-67088900D01*
X61224091Y-67088900D01*
X61157052Y-67069215D01*
X61136410Y-67052581D01*
X53749527Y-59665696D01*
X53749526Y-59665695D01*
X53605143Y-59569222D01*
X53444728Y-59502777D01*
X53444718Y-59502774D01*
X53274423Y-59468900D01*
X53274421Y-59468900D01*
X53274420Y-59468900D01*
X47608693Y-59468900D01*
X47541654Y-59449215D01*
X47503154Y-59409996D01*
X47411712Y-59261744D01*
X47287657Y-59137689D01*
X47287656Y-59137688D01*
X47138334Y-59045586D01*
X46971797Y-58990401D01*
X46971795Y-58990400D01*
X46869010Y-58979900D01*
X45078998Y-58979900D01*
X45078981Y-58979901D01*
X44976203Y-58990400D01*
X44976200Y-58990401D01*
X44809668Y-59045585D01*
X44809663Y-59045587D01*
X44660342Y-59137689D01*
X44536289Y-59261742D01*
X44444187Y-59411063D01*
X44444185Y-59411068D01*
X44425022Y-59468900D01*
X44389001Y-59577603D01*
X44389001Y-59577604D01*
X44389000Y-59577604D01*
X44378500Y-59680383D01*
X44378500Y-61020401D01*
X44378501Y-61020418D01*
X44389000Y-61123196D01*
X44389001Y-61123199D01*
X44435171Y-61262530D01*
X44444186Y-61289734D01*
X44536288Y-61439056D01*
X44660344Y-61563112D01*
X44809666Y-61655214D01*
X44809668Y-61655214D01*
X44809669Y-61655215D01*
X44810348Y-61655532D01*
X44810735Y-61655873D01*
X44815813Y-61659005D01*
X44815277Y-61659872D01*
X44862787Y-61701704D01*
X44881939Y-61768898D01*
X44861723Y-61835779D01*
X44845625Y-61855595D01*
X44703640Y-61997580D01*
X44576843Y-62172100D01*
X44478909Y-62364308D01*
X44412245Y-62569477D01*
X44378500Y-62782533D01*
X44378500Y-62998266D01*
X44412245Y-63211322D01*
X44412246Y-63211326D01*
X44478908Y-63416489D01*
X44576843Y-63608699D01*
X44703641Y-63783221D01*
X44856179Y-63935759D01*
X44965019Y-64014836D01*
X45027294Y-64060082D01*
X45069959Y-64115412D01*
X45075938Y-64185026D01*
X45043332Y-64246821D01*
X45027294Y-64260718D01*
X44856179Y-64385041D01*
X44856177Y-64385043D01*
X44856176Y-64385043D01*
X44703643Y-64537576D01*
X44703643Y-64537577D01*
X44703641Y-64537579D01*
X44670803Y-64582777D01*
X44576843Y-64712100D01*
X44478909Y-64904308D01*
X44412245Y-65109477D01*
X44378500Y-65322533D01*
X44378500Y-65538266D01*
X44405889Y-65711189D01*
X44412246Y-65751326D01*
X44478908Y-65956489D01*
X44576843Y-66148699D01*
X44703641Y-66323221D01*
X44856179Y-66475759D01*
X44965381Y-66555099D01*
X45027294Y-66600082D01*
X45069959Y-66655412D01*
X45075938Y-66725026D01*
X45043332Y-66786821D01*
X45027294Y-66800718D01*
X44974382Y-66839161D01*
X44856179Y-66925041D01*
X44856177Y-66925043D01*
X44856176Y-66925043D01*
X44703643Y-67077576D01*
X44703643Y-67077577D01*
X44703641Y-67077579D01*
X44695416Y-67088900D01*
X44576843Y-67252100D01*
X44478909Y-67444308D01*
X44412245Y-67649477D01*
X44378500Y-67862533D01*
X44378500Y-68078266D01*
X44412245Y-68291322D01*
X44412246Y-68291326D01*
X44478908Y-68496489D01*
X44576843Y-68688699D01*
X44703641Y-68863221D01*
X44856179Y-69015759D01*
X45030701Y-69142557D01*
X45222911Y-69240492D01*
X45428074Y-69307154D01*
X45507973Y-69319808D01*
X45641134Y-69340900D01*
X45641139Y-69340900D01*
X46306866Y-69340900D01*
X46425230Y-69322152D01*
X46519926Y-69307154D01*
X46725089Y-69240492D01*
X46917299Y-69142557D01*
X47091821Y-69015759D01*
X47219361Y-68888219D01*
X47280684Y-68854734D01*
X47307042Y-68851900D01*
X91882423Y-68851900D01*
X91996993Y-68829109D01*
X92052724Y-68818024D01*
X92132935Y-68784799D01*
X92213143Y-68751577D01*
X92213144Y-68751576D01*
X92213147Y-68751575D01*
X92357524Y-68655106D01*
X92764144Y-68248486D01*
X108553801Y-68248486D01*
X108564294Y-68351197D01*
X108619441Y-68517619D01*
X108619443Y-68517624D01*
X108711484Y-68666845D01*
X108835454Y-68790815D01*
X108984675Y-68882856D01*
X108984680Y-68882858D01*
X109151102Y-68938005D01*
X109151109Y-68938006D01*
X109253819Y-68948499D01*
X109528799Y-68948499D01*
X110028800Y-68948499D01*
X110303772Y-68948499D01*
X110303786Y-68948498D01*
X110406497Y-68938005D01*
X110572919Y-68882858D01*
X110572924Y-68882856D01*
X110722145Y-68790815D01*
X110846115Y-68666845D01*
X110938156Y-68517624D01*
X110938158Y-68517619D01*
X110993305Y-68351197D01*
X110993306Y-68351190D01*
X111003799Y-68248486D01*
X120695001Y-68248486D01*
X120705494Y-68351197D01*
X120760641Y-68517619D01*
X120760643Y-68517624D01*
X120852684Y-68666845D01*
X120976654Y-68790815D01*
X121125875Y-68882856D01*
X121125880Y-68882858D01*
X121292302Y-68938005D01*
X121292309Y-68938006D01*
X121395019Y-68948499D01*
X121669999Y-68948499D01*
X122170000Y-68948499D01*
X122444972Y-68948499D01*
X122444986Y-68948498D01*
X122547697Y-68938005D01*
X122714119Y-68882858D01*
X122714124Y-68882856D01*
X122863345Y-68790815D01*
X122987315Y-68666845D01*
X123079356Y-68517624D01*
X123079358Y-68517619D01*
X123134505Y-68351197D01*
X123134506Y-68351190D01*
X123144999Y-68248486D01*
X123145000Y-68248473D01*
X123145000Y-68111000D01*
X122170000Y-68111000D01*
X122170000Y-68948499D01*
X121669999Y-68948499D01*
X121670000Y-68948498D01*
X121670000Y-68111000D01*
X120695001Y-68111000D01*
X120695001Y-68248486D01*
X111003799Y-68248486D01*
X111003800Y-68248473D01*
X111003800Y-68111000D01*
X110028800Y-68111000D01*
X110028800Y-68948499D01*
X109528799Y-68948499D01*
X109528800Y-68948498D01*
X109528800Y-68111000D01*
X108553801Y-68111000D01*
X108553801Y-68248486D01*
X92764144Y-68248486D01*
X98487134Y-62525496D01*
X103942800Y-62525496D01*
X103945697Y-62568224D01*
X103991631Y-62752923D01*
X104076190Y-62923422D01*
X104076192Y-62923425D01*
X104195432Y-63071766D01*
X104195433Y-63071767D01*
X104343774Y-63191007D01*
X104343777Y-63191009D01*
X104514276Y-63275568D01*
X104698975Y-63321502D01*
X104741703Y-63324400D01*
X104942800Y-63324400D01*
X104942800Y-62074400D01*
X103942800Y-62074400D01*
X103942800Y-62525496D01*
X98487134Y-62525496D01*
X99889327Y-61123303D01*
X103942800Y-61123303D01*
X103942800Y-61574400D01*
X104942800Y-61574400D01*
X104942800Y-60324400D01*
X104741703Y-60324400D01*
X104698975Y-60327297D01*
X104514276Y-60373231D01*
X104343777Y-60457790D01*
X104343774Y-60457792D01*
X104195433Y-60577032D01*
X104195432Y-60577033D01*
X104076192Y-60725374D01*
X104076190Y-60725377D01*
X103991631Y-60895876D01*
X103945697Y-61080575D01*
X103942800Y-61123303D01*
X99889327Y-61123303D01*
X104570411Y-56442219D01*
X104631734Y-56408734D01*
X104658092Y-56405900D01*
X105088179Y-56405900D01*
X105155218Y-56425585D01*
X105198088Y-56472488D01*
X105253102Y-56577807D01*
X105381690Y-56735509D01*
X105475603Y-56812084D01*
X105539393Y-56864098D01*
X105719751Y-56958309D01*
X105915382Y-57014286D01*
X106034763Y-57024900D01*
X106487300Y-57024899D01*
X106554339Y-57044583D01*
X106600094Y-57097387D01*
X106611300Y-57148899D01*
X106611300Y-60423836D01*
X106591615Y-60490875D01*
X106564988Y-60520483D01*
X106495078Y-60576678D01*
X106439126Y-60646285D01*
X106381782Y-60686203D01*
X106311960Y-60688783D01*
X106251827Y-60653204D01*
X106245831Y-60646284D01*
X106190164Y-60577030D01*
X106041825Y-60457792D01*
X106041822Y-60457790D01*
X105871323Y-60373231D01*
X105686624Y-60327297D01*
X105643897Y-60324400D01*
X105442800Y-60324400D01*
X105442800Y-63324400D01*
X105643897Y-63324400D01*
X105686624Y-63321502D01*
X105871323Y-63275568D01*
X106041822Y-63191009D01*
X106041825Y-63191007D01*
X106190166Y-63071767D01*
X106190167Y-63071766D01*
X106245833Y-63002515D01*
X106303176Y-62962596D01*
X106372998Y-62960016D01*
X106433131Y-62995594D01*
X106439105Y-63002489D01*
X106495078Y-63072122D01*
X106550985Y-63117061D01*
X106643503Y-63191430D01*
X106665270Y-63202225D01*
X106713278Y-63244422D01*
X106808093Y-63386322D01*
X106808096Y-63386326D01*
X106930873Y-63509103D01*
X106930877Y-63509106D01*
X107075246Y-63605571D01*
X107075259Y-63605578D01*
X107211809Y-63662138D01*
X107235676Y-63672024D01*
X107235680Y-63672024D01*
X107235681Y-63672025D01*
X107405977Y-63705900D01*
X107405980Y-63705900D01*
X107579622Y-63705900D01*
X107694194Y-63683109D01*
X107749924Y-63672024D01*
X107910347Y-63605575D01*
X108054723Y-63509106D01*
X108177506Y-63386323D01*
X108272322Y-63244419D01*
X108320328Y-63202225D01*
X108342096Y-63191430D01*
X108490522Y-63072122D01*
X108546153Y-63002914D01*
X108603496Y-62962995D01*
X108673318Y-62960415D01*
X108733451Y-62995994D01*
X108739447Y-63002914D01*
X108795075Y-63072119D01*
X108795078Y-63072122D01*
X108850987Y-63117063D01*
X108890906Y-63174404D01*
X108897300Y-63213709D01*
X108897300Y-64748242D01*
X108877615Y-64815281D01*
X108838405Y-64853775D01*
X108835151Y-64855782D01*
X108835143Y-64855788D01*
X108711089Y-64979842D01*
X108618987Y-65129163D01*
X108618986Y-65129166D01*
X108563801Y-65295703D01*
X108563801Y-65295704D01*
X108563800Y-65295704D01*
X108553300Y-65398483D01*
X108553300Y-66173501D01*
X108553301Y-66173519D01*
X108563800Y-66276296D01*
X108563801Y-66276299D01*
X108618985Y-66442831D01*
X108618987Y-66442836D01*
X108628061Y-66457547D01*
X108711088Y-66592156D01*
X108835144Y-66716212D01*
X108838428Y-66718237D01*
X108838453Y-66718253D01*
X108840245Y-66720246D01*
X108840811Y-66720693D01*
X108840734Y-66720789D01*
X108885179Y-66770199D01*
X108896403Y-66839161D01*
X108868561Y-66903244D01*
X108838465Y-66929326D01*
X108835460Y-66931179D01*
X108835455Y-66931183D01*
X108711484Y-67055154D01*
X108619443Y-67204375D01*
X108619441Y-67204380D01*
X108564294Y-67370802D01*
X108564293Y-67370809D01*
X108553800Y-67473513D01*
X108553800Y-67611000D01*
X111003799Y-67611000D01*
X111003799Y-67473528D01*
X111003798Y-67473513D01*
X110993305Y-67370802D01*
X110938158Y-67204380D01*
X110938156Y-67204375D01*
X110846115Y-67055154D01*
X110722144Y-66931183D01*
X110722141Y-66931181D01*
X110719139Y-66929329D01*
X110717513Y-66927521D01*
X110716477Y-66926702D01*
X110716617Y-66926524D01*
X110672417Y-66877380D01*
X110661197Y-66808417D01*
X110689043Y-66744336D01*
X110719144Y-66718254D01*
X110722456Y-66716212D01*
X110734849Y-66703819D01*
X110796172Y-66670334D01*
X110822530Y-66667500D01*
X120876270Y-66667500D01*
X120943309Y-66687185D01*
X120963951Y-66703819D01*
X120976344Y-66716212D01*
X120979628Y-66718237D01*
X120979653Y-66718253D01*
X120981445Y-66720246D01*
X120982011Y-66720693D01*
X120981934Y-66720789D01*
X121026379Y-66770199D01*
X121037603Y-66839161D01*
X121009761Y-66903244D01*
X120979665Y-66929326D01*
X120976660Y-66931179D01*
X120976655Y-66931183D01*
X120852684Y-67055154D01*
X120760643Y-67204375D01*
X120760641Y-67204380D01*
X120705494Y-67370802D01*
X120705493Y-67370809D01*
X120695000Y-67473513D01*
X120695000Y-67611000D01*
X123144999Y-67611000D01*
X123144999Y-67473528D01*
X123144998Y-67473513D01*
X123134505Y-67370802D01*
X123079358Y-67204380D01*
X123079356Y-67204375D01*
X122987315Y-67055154D01*
X122862142Y-66929981D01*
X122828657Y-66868658D01*
X122833641Y-66798966D01*
X122875513Y-66743033D01*
X122940977Y-66718616D01*
X122949823Y-66718300D01*
X124779580Y-66718300D01*
X136182558Y-66718300D01*
X136249597Y-66737985D01*
X136270239Y-66754619D01*
X136387224Y-66871604D01*
X136420709Y-66932927D01*
X136415725Y-67002619D01*
X136373853Y-67058552D01*
X136351960Y-67071661D01*
X136351277Y-67071979D01*
X136201942Y-67164089D01*
X136077889Y-67288142D01*
X135985787Y-67437463D01*
X135985785Y-67437468D01*
X135973841Y-67473513D01*
X135930601Y-67604003D01*
X135930601Y-67604004D01*
X135930600Y-67604004D01*
X135920100Y-67706783D01*
X135920100Y-69046801D01*
X135920101Y-69046818D01*
X135930600Y-69149596D01*
X135930601Y-69149599D01*
X135985785Y-69316131D01*
X135985787Y-69316136D01*
X136077889Y-69465457D01*
X136156651Y-69544219D01*
X136190136Y-69605542D01*
X136185152Y-69675234D01*
X136143280Y-69731167D01*
X136077816Y-69755584D01*
X136068970Y-69755900D01*
X42839300Y-69755900D01*
X42772261Y-69736215D01*
X42726506Y-69683411D01*
X42715300Y-69631900D01*
X42715300Y-50678711D01*
X51845100Y-50678711D01*
X51845100Y-50921288D01*
X51876761Y-51161785D01*
X51939547Y-51396104D01*
X52014873Y-51577957D01*
X52032376Y-51620212D01*
X52153664Y-51830289D01*
X52153666Y-51830292D01*
X52153667Y-51830293D01*
X52301333Y-52022736D01*
X52301339Y-52022743D01*
X52472856Y-52194260D01*
X52472862Y-52194265D01*
X52665311Y-52341936D01*
X52875388Y-52463224D01*
X53099500Y-52556054D01*
X53333811Y-52618838D01*
X53514186Y-52642584D01*
X53574311Y-52650500D01*
X53574312Y-52650500D01*
X53816889Y-52650500D01*
X53864988Y-52644167D01*
X54057389Y-52618838D01*
X54291700Y-52556054D01*
X54515812Y-52463224D01*
X54725889Y-52341936D01*
X54918338Y-52194265D01*
X55089865Y-52022738D01*
X55237536Y-51830289D01*
X55358824Y-51620212D01*
X55451654Y-51396100D01*
X55514438Y-51161789D01*
X55546100Y-50921288D01*
X55546100Y-50678712D01*
X55542004Y-50647603D01*
X55528441Y-50544576D01*
X55514438Y-50438211D01*
X55451654Y-50203900D01*
X55358824Y-49979788D01*
X55237536Y-49769711D01*
X55170272Y-49682051D01*
X55089866Y-49577263D01*
X55089860Y-49577256D01*
X54918343Y-49405739D01*
X54918336Y-49405733D01*
X54725893Y-49258067D01*
X54725892Y-49258066D01*
X54725889Y-49258064D01*
X54515812Y-49136776D01*
X54515805Y-49136773D01*
X54291704Y-49043947D01*
X54057385Y-48981161D01*
X53816889Y-48949500D01*
X53816888Y-48949500D01*
X53574312Y-48949500D01*
X53574311Y-48949500D01*
X53333814Y-48981161D01*
X53099495Y-49043947D01*
X52875394Y-49136773D01*
X52875385Y-49136777D01*
X52665306Y-49258067D01*
X52472863Y-49405733D01*
X52472856Y-49405739D01*
X52301339Y-49577256D01*
X52301333Y-49577263D01*
X52153667Y-49769706D01*
X52032377Y-49979785D01*
X52032373Y-49979794D01*
X51939547Y-50203895D01*
X51876761Y-50438214D01*
X51845100Y-50678711D01*
X42715300Y-50678711D01*
X42715300Y-31620000D01*
X42734985Y-31552961D01*
X42787789Y-31507206D01*
X42839300Y-31496000D01*
X67205060Y-31496000D01*
X67272099Y-31515685D01*
G37*
%TD.AperFunction*%
%TA.AperFunction,Conductor*%
G36*
X63198234Y-37004099D02*
G01*
X63254167Y-37045971D01*
X63278584Y-37111435D01*
X63278900Y-37120281D01*
X63278900Y-42837445D01*
X63259215Y-42904484D01*
X63206411Y-42950239D01*
X63193905Y-42955150D01*
X63137070Y-42973983D01*
X63137069Y-42973984D01*
X62987742Y-43066089D01*
X62863689Y-43190142D01*
X62771587Y-43339463D01*
X62771585Y-43339468D01*
X62756657Y-43384518D01*
X62716401Y-43506003D01*
X62716401Y-43506004D01*
X62716400Y-43506004D01*
X62705900Y-43608783D01*
X62705900Y-44408801D01*
X62705901Y-44408819D01*
X62716400Y-44511596D01*
X62716401Y-44511599D01*
X62771585Y-44678131D01*
X62771587Y-44678136D01*
X62793787Y-44714128D01*
X62856796Y-44816283D01*
X62863689Y-44827457D01*
X62957351Y-44921119D01*
X62990836Y-44982442D01*
X62985852Y-45052134D01*
X62957351Y-45096481D01*
X62863689Y-45190142D01*
X62771587Y-45339463D01*
X62771586Y-45339466D01*
X62716401Y-45506003D01*
X62716401Y-45506004D01*
X62716400Y-45506004D01*
X62705900Y-45608783D01*
X62705900Y-46408801D01*
X62705901Y-46408819D01*
X62716400Y-46511596D01*
X62716401Y-46511599D01*
X62749108Y-46610300D01*
X62771586Y-46678134D01*
X62863688Y-46827456D01*
X62987744Y-46951512D01*
X63137066Y-47043614D01*
X63193905Y-47062448D01*
X63251348Y-47102218D01*
X63278172Y-47166734D01*
X63278900Y-47180153D01*
X63278900Y-48023128D01*
X63259894Y-48089100D01*
X63180611Y-48215276D01*
X63121031Y-48385545D01*
X63121030Y-48385550D01*
X63100835Y-48564796D01*
X63100835Y-48564803D01*
X63121030Y-48744049D01*
X63121031Y-48744054D01*
X63180611Y-48914323D01*
X63276469Y-49066879D01*
X63276584Y-49067062D01*
X63404138Y-49194616D01*
X63448695Y-49222613D01*
X63556710Y-49290484D01*
X63556878Y-49290589D01*
X63643931Y-49321050D01*
X63727145Y-49350168D01*
X63727150Y-49350169D01*
X63906396Y-49370365D01*
X63906400Y-49370365D01*
X63906404Y-49370365D01*
X64085649Y-49350169D01*
X64085652Y-49350168D01*
X64085655Y-49350168D01*
X64255922Y-49290589D01*
X64408662Y-49194616D01*
X64536216Y-49067062D01*
X64632189Y-48914322D01*
X64691768Y-48744055D01*
X64694253Y-48722001D01*
X64711965Y-48564803D01*
X64711965Y-48564796D01*
X64691769Y-48385550D01*
X64691768Y-48385545D01*
X64653651Y-48276614D01*
X64632189Y-48215278D01*
X64630288Y-48212253D01*
X64552906Y-48089100D01*
X64533900Y-48023128D01*
X64533900Y-47180153D01*
X64553585Y-47113114D01*
X64606389Y-47067359D01*
X64618882Y-47062452D01*
X64675734Y-47043614D01*
X64825056Y-46951512D01*
X64949112Y-46827456D01*
X65041214Y-46678134D01*
X65096399Y-46511597D01*
X65106900Y-46408809D01*
X65106899Y-45608792D01*
X65105493Y-45595032D01*
X65096399Y-45506003D01*
X65096398Y-45506000D01*
X65094158Y-45499239D01*
X65041214Y-45339466D01*
X64949112Y-45190144D01*
X64855449Y-45096481D01*
X64821964Y-45035158D01*
X64826948Y-44965466D01*
X64855449Y-44921119D01*
X64886105Y-44890463D01*
X64949112Y-44827456D01*
X65041214Y-44678134D01*
X65096399Y-44511597D01*
X65106900Y-44408809D01*
X65106899Y-43608792D01*
X65102896Y-43569609D01*
X65096399Y-43506003D01*
X65096398Y-43506000D01*
X65091365Y-43490811D01*
X65041214Y-43339466D01*
X64949112Y-43190144D01*
X64825056Y-43066088D01*
X64675734Y-42973986D01*
X64675732Y-42973985D01*
X64675730Y-42973984D01*
X64675729Y-42973983D01*
X64618895Y-42955150D01*
X64561450Y-42915377D01*
X64534628Y-42850861D01*
X64533900Y-42837445D01*
X64533900Y-42312715D01*
X64553585Y-42245676D01*
X64606389Y-42199921D01*
X64675547Y-42189977D01*
X64739103Y-42219002D01*
X64774942Y-42271761D01*
X64806210Y-42361121D01*
X64877757Y-42474987D01*
X64902184Y-42513862D01*
X65029738Y-42641416D01*
X65182478Y-42737389D01*
X65302284Y-42779311D01*
X65352745Y-42796968D01*
X65352750Y-42796969D01*
X65531996Y-42817165D01*
X65532000Y-42817165D01*
X65532004Y-42817165D01*
X65711249Y-42796969D01*
X65711252Y-42796968D01*
X65711255Y-42796968D01*
X65881522Y-42737389D01*
X66034262Y-42641416D01*
X66161816Y-42513862D01*
X66257789Y-42361122D01*
X66257789Y-42361120D01*
X66261494Y-42355225D01*
X66262299Y-42355731D01*
X66280382Y-42330241D01*
X66940621Y-41670001D01*
X67001942Y-41636518D01*
X67071633Y-41641502D01*
X67127567Y-41683373D01*
X67151984Y-41748838D01*
X67152300Y-41757683D01*
X67152300Y-41899869D01*
X67152301Y-41899876D01*
X67158708Y-41959481D01*
X67171459Y-41993669D01*
X67176442Y-42063361D01*
X67171459Y-42080331D01*
X67158708Y-42114518D01*
X67153086Y-42166814D01*
X67152301Y-42174123D01*
X67152300Y-42174135D01*
X67152300Y-43169870D01*
X67152301Y-43169876D01*
X67158708Y-43229481D01*
X67171459Y-43263669D01*
X67176442Y-43333361D01*
X67171459Y-43350331D01*
X67158708Y-43384518D01*
X67152301Y-43444116D01*
X67152300Y-43444127D01*
X67152300Y-44439870D01*
X67152301Y-44439876D01*
X67158708Y-44499481D01*
X67171459Y-44533669D01*
X67176442Y-44603361D01*
X67171459Y-44620331D01*
X67158708Y-44654518D01*
X67152428Y-44712934D01*
X67152301Y-44714123D01*
X67152300Y-44714135D01*
X67152300Y-45709870D01*
X67152301Y-45709876D01*
X67158708Y-45769481D01*
X67171459Y-45803669D01*
X67176442Y-45873361D01*
X67171459Y-45890331D01*
X67158708Y-45924518D01*
X67152772Y-45979737D01*
X67152301Y-45984123D01*
X67152300Y-45984135D01*
X67152300Y-46979870D01*
X67152301Y-46979876D01*
X67158708Y-47039481D01*
X67171459Y-47073669D01*
X67176442Y-47143361D01*
X67171459Y-47160331D01*
X67158708Y-47194518D01*
X67152529Y-47251998D01*
X67152301Y-47254123D01*
X67152300Y-47254135D01*
X67152300Y-48249870D01*
X67152301Y-48249876D01*
X67158708Y-48309481D01*
X67171459Y-48343669D01*
X67176442Y-48413361D01*
X67171459Y-48430331D01*
X67158708Y-48464518D01*
X67152600Y-48521334D01*
X67152301Y-48524123D01*
X67152300Y-48524135D01*
X67152300Y-49519870D01*
X67152301Y-49519876D01*
X67158708Y-49579483D01*
X67209002Y-49714328D01*
X67209006Y-49714335D01*
X67295252Y-49829544D01*
X67295255Y-49829547D01*
X67410464Y-49915793D01*
X67410471Y-49915797D01*
X67545317Y-49966091D01*
X67545316Y-49966091D01*
X67552244Y-49966835D01*
X67604927Y-49972500D01*
X69093300Y-49972499D01*
X69160339Y-49992184D01*
X69206094Y-50044987D01*
X69217300Y-50096499D01*
X69217300Y-51069870D01*
X69217301Y-51069876D01*
X69223708Y-51129483D01*
X69274002Y-51264328D01*
X69274006Y-51264335D01*
X69360252Y-51379544D01*
X69360255Y-51379547D01*
X69475464Y-51465793D01*
X69475471Y-51465797D01*
X69610317Y-51516091D01*
X69610316Y-51516091D01*
X69617244Y-51516835D01*
X69669927Y-51522500D01*
X70665672Y-51522499D01*
X70725283Y-51516091D01*
X70759467Y-51503340D01*
X70829158Y-51498357D01*
X70846127Y-51503338D01*
X70880317Y-51516091D01*
X70939927Y-51522500D01*
X71935672Y-51522499D01*
X71995283Y-51516091D01*
X72029467Y-51503340D01*
X72099158Y-51498357D01*
X72116127Y-51503338D01*
X72150317Y-51516091D01*
X72209927Y-51522500D01*
X73205672Y-51522499D01*
X73265283Y-51516091D01*
X73299467Y-51503340D01*
X73369158Y-51498357D01*
X73386127Y-51503338D01*
X73420317Y-51516091D01*
X73479927Y-51522500D01*
X74475672Y-51522499D01*
X74475675Y-51522498D01*
X74475685Y-51522498D01*
X74483043Y-51521707D01*
X74551802Y-51534111D01*
X74602941Y-51581720D01*
X74620300Y-51644996D01*
X74620300Y-59666900D01*
X74600615Y-59733939D01*
X74547811Y-59779694D01*
X74496300Y-59790900D01*
X74466534Y-59790900D01*
X74253477Y-59824645D01*
X74048308Y-59891309D01*
X73856100Y-59989243D01*
X73681580Y-60116040D01*
X73539595Y-60258025D01*
X73478272Y-60291509D01*
X73408580Y-60286525D01*
X73352647Y-60244653D01*
X73339532Y-60222748D01*
X73339215Y-60222069D01*
X73339214Y-60222068D01*
X73339214Y-60222066D01*
X73247112Y-60072744D01*
X73123056Y-59948688D01*
X72973734Y-59856586D01*
X72807197Y-59801401D01*
X72807195Y-59801400D01*
X72704410Y-59790900D01*
X71364398Y-59790900D01*
X71364381Y-59790901D01*
X71261603Y-59801400D01*
X71261600Y-59801401D01*
X71095068Y-59856585D01*
X71095063Y-59856587D01*
X70945742Y-59948689D01*
X70821689Y-60072742D01*
X70729587Y-60222063D01*
X70729586Y-60222066D01*
X70674401Y-60388603D01*
X70674401Y-60388604D01*
X70674400Y-60388604D01*
X70663900Y-60491383D01*
X70663900Y-62281401D01*
X70663901Y-62281418D01*
X70674400Y-62384196D01*
X70674401Y-62384199D01*
X70721232Y-62525523D01*
X70729586Y-62550734D01*
X70794982Y-62656759D01*
X70821689Y-62700057D01*
X70945744Y-62824112D01*
X71093996Y-62915554D01*
X71140721Y-62967502D01*
X71152900Y-63021093D01*
X71152900Y-65953179D01*
X71152900Y-66126821D01*
X71152900Y-66126823D01*
X71152899Y-66126823D01*
X71186774Y-66297118D01*
X71186777Y-66297128D01*
X71253222Y-66457543D01*
X71349695Y-66601926D01*
X71349696Y-66601927D01*
X71624989Y-66877219D01*
X71658474Y-66938542D01*
X71653490Y-67008233D01*
X71611619Y-67064167D01*
X71546154Y-67088584D01*
X71537308Y-67088900D01*
X67929691Y-67088900D01*
X67862652Y-67069215D01*
X67842010Y-67052581D01*
X60353819Y-59564389D01*
X60320334Y-59503066D01*
X60317500Y-59476708D01*
X60317500Y-43137286D01*
X60337185Y-43070247D01*
X60389989Y-43024492D01*
X60459147Y-43014548D01*
X60480505Y-43019580D01*
X60535505Y-43037805D01*
X60535509Y-43037806D01*
X60638219Y-43048299D01*
X60913199Y-43048299D01*
X61413200Y-43048299D01*
X61688172Y-43048299D01*
X61688186Y-43048298D01*
X61790897Y-43037805D01*
X61957319Y-42982658D01*
X61957324Y-42982656D01*
X62106545Y-42890615D01*
X62230515Y-42766645D01*
X62322556Y-42617424D01*
X62322558Y-42617419D01*
X62377705Y-42450997D01*
X62377706Y-42450990D01*
X62388199Y-42348286D01*
X62388200Y-42348273D01*
X62388200Y-42210800D01*
X61413200Y-42210800D01*
X61413200Y-43048299D01*
X60913199Y-43048299D01*
X60913200Y-43048298D01*
X60913200Y-41834800D01*
X60932885Y-41767761D01*
X60985689Y-41722006D01*
X61037200Y-41710800D01*
X62388199Y-41710800D01*
X62388199Y-41573328D01*
X62388198Y-41573313D01*
X62377705Y-41470602D01*
X62322558Y-41304180D01*
X62322556Y-41304175D01*
X62230515Y-41154954D01*
X62106544Y-41030983D01*
X62106541Y-41030981D01*
X62103539Y-41029129D01*
X62101913Y-41027321D01*
X62100877Y-41026502D01*
X62101017Y-41026324D01*
X62056817Y-40977180D01*
X62045597Y-40908217D01*
X62073443Y-40844136D01*
X62103544Y-40818054D01*
X62106856Y-40816012D01*
X62230912Y-40691956D01*
X62323014Y-40542634D01*
X62378199Y-40376097D01*
X62388700Y-40273309D01*
X62388699Y-39498292D01*
X62388301Y-39494400D01*
X62378199Y-39395503D01*
X62378198Y-39395500D01*
X62323014Y-39228966D01*
X62230912Y-39079644D01*
X62106856Y-38955588D01*
X62008899Y-38895168D01*
X61957536Y-38863487D01*
X61957535Y-38863486D01*
X61957534Y-38863486D01*
X61898126Y-38843800D01*
X61875695Y-38836367D01*
X61818250Y-38796593D01*
X61791428Y-38732077D01*
X61790700Y-38718661D01*
X61790700Y-38360481D01*
X61810385Y-38293442D01*
X61827019Y-38272800D01*
X63067219Y-37032600D01*
X63128542Y-36999115D01*
X63198234Y-37004099D01*
G37*
%TD.AperFunction*%
%TA.AperFunction,Conductor*%
G36*
X105399912Y-54088785D02*
G01*
X105445667Y-54141589D01*
X105455611Y-54210747D01*
X105426586Y-54274303D01*
X105411233Y-54289202D01*
X105381692Y-54313288D01*
X105253102Y-54470992D01*
X105198088Y-54576312D01*
X105149601Y-54626619D01*
X105088179Y-54642900D01*
X104154777Y-54642900D01*
X103984481Y-54676774D01*
X103984471Y-54676777D01*
X103824056Y-54743222D01*
X103679673Y-54839695D01*
X103679672Y-54839696D01*
X91466789Y-67052581D01*
X91405466Y-67086066D01*
X91379108Y-67088900D01*
X74381292Y-67088900D01*
X74314253Y-67069215D01*
X74293611Y-67052581D01*
X72952219Y-65711189D01*
X72918734Y-65649866D01*
X72915900Y-65623508D01*
X72915900Y-63021093D01*
X72935585Y-62954054D01*
X72974804Y-62915554D01*
X73123056Y-62824112D01*
X73247112Y-62700056D01*
X73339214Y-62550734D01*
X73339217Y-62550722D01*
X73339529Y-62550057D01*
X73339869Y-62549669D01*
X73343005Y-62544587D01*
X73343873Y-62545122D01*
X73385699Y-62497616D01*
X73452891Y-62478460D01*
X73519773Y-62498672D01*
X73539595Y-62514775D01*
X73681579Y-62656759D01*
X73856101Y-62783557D01*
X74048311Y-62881492D01*
X74253474Y-62948154D01*
X74321196Y-62958880D01*
X74466534Y-62981900D01*
X74466539Y-62981900D01*
X74682266Y-62981900D01*
X74804142Y-62962596D01*
X74895326Y-62948154D01*
X75100489Y-62881492D01*
X75292699Y-62783557D01*
X75467221Y-62656759D01*
X75619759Y-62504221D01*
X75744082Y-62333104D01*
X75799412Y-62290440D01*
X75869026Y-62284461D01*
X75930820Y-62317067D01*
X75944715Y-62333102D01*
X76069041Y-62504221D01*
X76221579Y-62656759D01*
X76396101Y-62783557D01*
X76588311Y-62881492D01*
X76793474Y-62948154D01*
X76861196Y-62958880D01*
X77006534Y-62981900D01*
X77006539Y-62981900D01*
X77222266Y-62981900D01*
X77344142Y-62962596D01*
X77435326Y-62948154D01*
X77640489Y-62881492D01*
X77832699Y-62783557D01*
X78007221Y-62656759D01*
X78159759Y-62504221D01*
X78284391Y-62332679D01*
X78339721Y-62290014D01*
X78409334Y-62284035D01*
X78471129Y-62316641D01*
X78485027Y-62332679D01*
X78609425Y-62503896D01*
X78609425Y-62503897D01*
X78761902Y-62656374D01*
X78936363Y-62783128D01*
X79128498Y-62881027D01*
X79333590Y-62947666D01*
X79404400Y-62958881D01*
X79404400Y-61929109D01*
X79424739Y-61940852D01*
X79576067Y-61981400D01*
X79732733Y-61981400D01*
X79884061Y-61940852D01*
X79904400Y-61929109D01*
X79904400Y-62958880D01*
X79975209Y-62947666D01*
X80180301Y-62881027D01*
X80372436Y-62783128D01*
X80546896Y-62656374D01*
X80546897Y-62656374D01*
X80699374Y-62503897D01*
X80699379Y-62503891D01*
X80823772Y-62332680D01*
X80879102Y-62290014D01*
X80948715Y-62284035D01*
X81010510Y-62316641D01*
X81024408Y-62332679D01*
X81149041Y-62504221D01*
X81301579Y-62656759D01*
X81476101Y-62783557D01*
X81668311Y-62881492D01*
X81873474Y-62948154D01*
X81941196Y-62958880D01*
X82086534Y-62981900D01*
X82086539Y-62981900D01*
X82302266Y-62981900D01*
X82424142Y-62962596D01*
X82515326Y-62948154D01*
X82720489Y-62881492D01*
X82912699Y-62783557D01*
X83087221Y-62656759D01*
X83239759Y-62504221D01*
X83366557Y-62329699D01*
X83464492Y-62137489D01*
X83531154Y-61932326D01*
X83546445Y-61835779D01*
X83564900Y-61719266D01*
X83564900Y-61313892D01*
X83584585Y-61246853D01*
X83601219Y-61226211D01*
X90722011Y-54105419D01*
X90783334Y-54071934D01*
X90809692Y-54069100D01*
X105332873Y-54069100D01*
X105399912Y-54088785D01*
G37*
%TD.AperFunction*%
%TA.AperFunction,Conductor*%
G36*
X116726725Y-35851585D02*
G01*
X116765224Y-35890803D01*
X116839088Y-36010556D01*
X116963144Y-36134612D01*
X117112466Y-36226714D01*
X117279003Y-36281899D01*
X117381791Y-36292400D01*
X118431808Y-36292399D01*
X118434192Y-36292155D01*
X118435981Y-36291973D01*
X118504674Y-36304739D01*
X118555561Y-36352618D01*
X118572484Y-36420407D01*
X118550071Y-36486584D01*
X118536269Y-36503011D01*
X117704700Y-37334581D01*
X117643377Y-37368066D01*
X117617019Y-37370900D01*
X116981395Y-37370900D01*
X116860170Y-37395013D01*
X116860160Y-37395016D01*
X116745973Y-37442313D01*
X116745960Y-37442320D01*
X116643192Y-37510988D01*
X116643188Y-37510991D01*
X116158998Y-37995181D01*
X116097675Y-38028666D01*
X116071317Y-38031500D01*
X115425598Y-38031500D01*
X115425580Y-38031501D01*
X115322803Y-38042000D01*
X115322800Y-38042001D01*
X115156268Y-38097185D01*
X115156263Y-38097187D01*
X115006942Y-38189289D01*
X114882889Y-38313342D01*
X114790787Y-38462663D01*
X114790785Y-38462668D01*
X114769494Y-38526922D01*
X114735601Y-38629203D01*
X114735601Y-38629204D01*
X114735600Y-38629204D01*
X114725100Y-38731983D01*
X114725100Y-39532001D01*
X114725101Y-39532019D01*
X114735600Y-39634796D01*
X114735601Y-39634799D01*
X114790785Y-39801331D01*
X114790787Y-39801336D01*
X114816978Y-39843798D01*
X114882717Y-39950379D01*
X114882889Y-39950657D01*
X114976551Y-40044319D01*
X115010036Y-40105642D01*
X115005052Y-40175334D01*
X114976551Y-40219681D01*
X114882889Y-40313342D01*
X114790787Y-40462663D01*
X114790785Y-40462668D01*
X114778512Y-40499706D01*
X114735601Y-40629203D01*
X114735601Y-40629204D01*
X114735600Y-40629204D01*
X114725100Y-40731983D01*
X114725100Y-41532001D01*
X114725101Y-41532019D01*
X114735600Y-41634796D01*
X114735601Y-41634799D01*
X114790785Y-41801331D01*
X114790786Y-41801334D01*
X114882888Y-41950656D01*
X115006944Y-42074712D01*
X115071480Y-42114518D01*
X115073692Y-42115882D01*
X115120417Y-42167830D01*
X115131640Y-42236792D01*
X115103797Y-42300874D01*
X115096277Y-42309102D01*
X115032398Y-42372981D01*
X114971075Y-42406466D01*
X114944717Y-42409300D01*
X114307998Y-42409300D01*
X114307980Y-42409301D01*
X114205203Y-42419800D01*
X114205200Y-42419801D01*
X114038668Y-42474985D01*
X114038663Y-42474987D01*
X113889342Y-42567089D01*
X113765289Y-42691142D01*
X113673187Y-42840463D01*
X113673185Y-42840468D01*
X113669741Y-42850861D01*
X113618001Y-43007003D01*
X113618001Y-43007004D01*
X113618000Y-43007004D01*
X113607500Y-43109783D01*
X113607500Y-43859801D01*
X113607501Y-43859819D01*
X113618000Y-43962596D01*
X113618001Y-43962599D01*
X113650584Y-44060927D01*
X113673186Y-44129134D01*
X113762238Y-44273510D01*
X113765289Y-44278457D01*
X113889346Y-44402514D01*
X113892182Y-44404263D01*
X113893717Y-44405970D01*
X113895011Y-44406993D01*
X113894836Y-44407214D01*
X113938905Y-44456211D01*
X113950126Y-44525174D01*
X113922282Y-44589256D01*
X113892182Y-44615337D01*
X113889346Y-44617085D01*
X113765289Y-44741142D01*
X113673187Y-44890463D01*
X113673185Y-44890468D01*
X113652957Y-44951512D01*
X113618001Y-45057003D01*
X113618001Y-45057004D01*
X113618000Y-45057004D01*
X113607500Y-45159783D01*
X113607500Y-45909801D01*
X113607501Y-45909819D01*
X113618000Y-46012596D01*
X113618001Y-46012599D01*
X113657725Y-46132476D01*
X113673186Y-46179134D01*
X113765288Y-46328456D01*
X113889344Y-46452512D01*
X114038666Y-46544614D01*
X114205203Y-46599799D01*
X114307991Y-46610300D01*
X115308008Y-46610299D01*
X115308016Y-46610298D01*
X115308019Y-46610298D01*
X115376299Y-46603323D01*
X115410797Y-46599799D01*
X115577334Y-46544614D01*
X115726656Y-46452512D01*
X115850712Y-46328456D01*
X115883620Y-46275102D01*
X115935568Y-46228379D01*
X115989159Y-46216200D01*
X116803800Y-46216200D01*
X116870839Y-46235885D01*
X116916594Y-46288689D01*
X116927800Y-46340200D01*
X116927800Y-46511544D01*
X116934201Y-46571072D01*
X116934203Y-46571079D01*
X116984445Y-46705786D01*
X116984449Y-46705793D01*
X117070609Y-46820887D01*
X117070612Y-46820890D01*
X117185706Y-46907050D01*
X117185713Y-46907054D01*
X117320420Y-46957296D01*
X117320427Y-46957298D01*
X117379955Y-46963699D01*
X117379972Y-46963700D01*
X117727800Y-46963700D01*
X117727800Y-46438199D01*
X117747485Y-46371160D01*
X117800289Y-46325405D01*
X117851797Y-46314199D01*
X118053800Y-46314199D01*
X118120839Y-46333884D01*
X118166594Y-46386688D01*
X118177800Y-46438199D01*
X118177800Y-46963700D01*
X118525628Y-46963700D01*
X118525644Y-46963699D01*
X118585172Y-46957298D01*
X118585176Y-46957297D01*
X118719888Y-46907052D01*
X118727672Y-46902802D01*
X118728338Y-46904023D01*
X118785020Y-46882876D01*
X118853294Y-46897721D01*
X118876374Y-46914999D01*
X118876582Y-46914746D01*
X118881292Y-46918611D01*
X118984060Y-46987279D01*
X118984062Y-46987280D01*
X118984067Y-46987283D01*
X119011512Y-46998651D01*
X119098266Y-47034586D01*
X119203651Y-47055548D01*
X119219492Y-47058699D01*
X119219496Y-47058700D01*
X119219497Y-47058700D01*
X121525839Y-47058700D01*
X121592878Y-47078385D01*
X121638633Y-47131189D01*
X121648577Y-47200347D01*
X121642881Y-47223655D01*
X121591831Y-47369545D01*
X121591830Y-47369550D01*
X121571635Y-47548796D01*
X121571635Y-47548803D01*
X121591830Y-47728049D01*
X121591831Y-47728054D01*
X121651411Y-47898323D01*
X121720253Y-48007884D01*
X121739253Y-48075121D01*
X121739235Y-48076287D01*
X121715427Y-49290484D01*
X121694432Y-49357125D01*
X121670118Y-49383904D01*
X121615517Y-49428715D01*
X121490490Y-49581060D01*
X121490486Y-49581067D01*
X121397588Y-49754866D01*
X121340375Y-49943470D01*
X121321059Y-50139600D01*
X121340375Y-50335729D01*
X121340376Y-50335732D01*
X121380605Y-50468350D01*
X121397588Y-50524333D01*
X121490486Y-50698132D01*
X121490490Y-50698139D01*
X121615516Y-50850483D01*
X121767860Y-50975509D01*
X121767867Y-50975513D01*
X121941666Y-51068411D01*
X121941669Y-51068411D01*
X121941673Y-51068414D01*
X122130268Y-51125624D01*
X122326400Y-51144941D01*
X122522532Y-51125624D01*
X122711127Y-51068414D01*
X122884938Y-50975510D01*
X122884944Y-50975504D01*
X122890007Y-50972123D01*
X122891103Y-50973764D01*
X122947039Y-50950005D01*
X123015907Y-50961794D01*
X123032548Y-50972488D01*
X123032793Y-50972123D01*
X123037858Y-50975507D01*
X123037862Y-50975510D01*
X123182899Y-51053034D01*
X123208114Y-51066512D01*
X123211673Y-51068414D01*
X123400268Y-51125624D01*
X123596400Y-51144941D01*
X123792532Y-51125624D01*
X123981127Y-51068414D01*
X123983248Y-51067280D01*
X123984488Y-51067021D01*
X123986755Y-51066083D01*
X123986932Y-51066512D01*
X124051646Y-51053034D01*
X124116018Y-51077369D01*
X124124069Y-51083396D01*
X124158232Y-51096138D01*
X124214166Y-51138008D01*
X124238584Y-51203471D01*
X124238900Y-51212320D01*
X124238900Y-64831300D01*
X124219215Y-64898339D01*
X124166411Y-64944094D01*
X124114900Y-64955300D01*
X123014530Y-64955300D01*
X122947491Y-64935615D01*
X122926849Y-64918981D01*
X122863656Y-64855788D01*
X122863648Y-64855782D01*
X122860395Y-64853775D01*
X122858634Y-64851817D01*
X122857989Y-64851307D01*
X122858076Y-64851196D01*
X122813674Y-64801824D01*
X122801500Y-64748242D01*
X122801500Y-63236216D01*
X122821185Y-63169177D01*
X122847807Y-63139574D01*
X122931722Y-63072122D01*
X123051030Y-62923696D01*
X123135641Y-62753093D01*
X123181600Y-62568289D01*
X123184500Y-62525523D01*
X123184499Y-61123278D01*
X123181600Y-61080511D01*
X123135641Y-60895707D01*
X123083910Y-60791400D01*
X123051032Y-60725107D01*
X123051030Y-60725104D01*
X122931722Y-60576678D01*
X122931721Y-60576677D01*
X122783295Y-60457369D01*
X122783292Y-60457367D01*
X122612697Y-60372760D01*
X122427892Y-60326800D01*
X122406506Y-60325350D01*
X122385123Y-60323900D01*
X122385120Y-60323900D01*
X121482877Y-60323900D01*
X121482874Y-60323901D01*
X121440113Y-60326799D01*
X121440112Y-60326799D01*
X121255303Y-60372760D01*
X121084707Y-60457367D01*
X121084704Y-60457369D01*
X120936278Y-60576677D01*
X120936277Y-60576678D01*
X120880647Y-60645886D01*
X120823304Y-60685805D01*
X120753482Y-60688385D01*
X120693349Y-60652806D01*
X120687353Y-60645886D01*
X120632007Y-60577033D01*
X120631722Y-60576678D01*
X120561811Y-60520482D01*
X120521894Y-60463139D01*
X120515500Y-60423836D01*
X120515500Y-57148899D01*
X120535185Y-57081860D01*
X120587989Y-57036105D01*
X120639500Y-57024899D01*
X121092028Y-57024899D01*
X121092036Y-57024899D01*
X121211418Y-57014286D01*
X121407049Y-56958309D01*
X121587407Y-56864098D01*
X121745109Y-56735509D01*
X121873698Y-56577807D01*
X121967909Y-56397449D01*
X122023886Y-56201818D01*
X122034500Y-56082437D01*
X122034499Y-54966364D01*
X122023886Y-54846982D01*
X121967909Y-54651351D01*
X121873698Y-54470993D01*
X121821684Y-54407203D01*
X121745109Y-54313290D01*
X121587409Y-54184704D01*
X121587410Y-54184704D01*
X121587407Y-54184702D01*
X121407049Y-54090491D01*
X121407048Y-54090490D01*
X121407045Y-54090489D01*
X121289829Y-54056950D01*
X121211418Y-54034514D01*
X121211415Y-54034513D01*
X121211413Y-54034513D01*
X121138631Y-54028042D01*
X121092037Y-54023900D01*
X121092033Y-54023900D01*
X120639500Y-54023900D01*
X120572461Y-54004215D01*
X120526706Y-53951411D01*
X120515500Y-53899900D01*
X120515500Y-52678030D01*
X120535185Y-52610991D01*
X120551819Y-52590349D01*
X120586116Y-52556052D01*
X120650912Y-52491256D01*
X120743014Y-52341934D01*
X120798199Y-52175397D01*
X120808700Y-52072609D01*
X120808699Y-51297592D01*
X120805301Y-51264331D01*
X120798199Y-51194803D01*
X120798198Y-51194800D01*
X120776554Y-51129483D01*
X120743014Y-51028266D01*
X120650912Y-50878944D01*
X120526856Y-50754888D01*
X120523542Y-50752843D01*
X120521746Y-50750848D01*
X120521189Y-50750407D01*
X120521264Y-50750311D01*
X120476818Y-50700897D01*
X120465597Y-50631934D01*
X120493440Y-50567852D01*
X120523548Y-50541765D01*
X120526542Y-50539918D01*
X120650515Y-50415945D01*
X120742556Y-50266724D01*
X120742558Y-50266719D01*
X120797705Y-50100297D01*
X120797706Y-50100290D01*
X120808199Y-49997586D01*
X120808200Y-49997573D01*
X120808200Y-49860100D01*
X118358201Y-49860100D01*
X118358201Y-49997586D01*
X118368694Y-50100297D01*
X118423841Y-50266719D01*
X118423843Y-50266724D01*
X118515884Y-50415945D01*
X118639855Y-50539916D01*
X118639859Y-50539919D01*
X118642856Y-50541768D01*
X118644479Y-50543572D01*
X118645523Y-50544398D01*
X118645381Y-50544576D01*
X118689581Y-50593716D01*
X118700802Y-50662679D01*
X118672959Y-50726761D01*
X118642861Y-50752841D01*
X118639549Y-50754883D01*
X118639543Y-50754888D01*
X118515489Y-50878942D01*
X118423387Y-51028263D01*
X118423385Y-51028268D01*
X118410082Y-51068414D01*
X118368201Y-51194803D01*
X118368201Y-51194804D01*
X118368200Y-51194804D01*
X118357700Y-51297583D01*
X118357700Y-52072601D01*
X118357701Y-52072619D01*
X118368200Y-52175396D01*
X118368201Y-52175399D01*
X118423385Y-52341931D01*
X118423387Y-52341936D01*
X118515489Y-52491257D01*
X118639545Y-52615313D01*
X118650899Y-52622316D01*
X118693596Y-52648651D01*
X118740321Y-52700597D01*
X118752500Y-52754189D01*
X118752500Y-53096907D01*
X118732815Y-53163946D01*
X118680011Y-53209701D01*
X118610853Y-53219645D01*
X118547297Y-53190620D01*
X118540819Y-53184588D01*
X117859126Y-52502895D01*
X117714743Y-52406422D01*
X117554328Y-52339977D01*
X117554318Y-52339974D01*
X117384023Y-52306100D01*
X117384021Y-52306100D01*
X117384020Y-52306100D01*
X90480021Y-52306100D01*
X90306379Y-52306100D01*
X90306377Y-52306100D01*
X90136081Y-52339974D01*
X90136071Y-52339977D01*
X89975656Y-52406422D01*
X89831273Y-52502895D01*
X82554992Y-59779176D01*
X82493669Y-59812661D01*
X82447913Y-59813968D01*
X82302266Y-59790900D01*
X82302261Y-59790900D01*
X82086539Y-59790900D01*
X82086534Y-59790900D01*
X81873477Y-59824645D01*
X81668308Y-59891309D01*
X81476100Y-59989243D01*
X81376529Y-60061586D01*
X81301579Y-60116041D01*
X81301577Y-60116043D01*
X81301576Y-60116043D01*
X81149042Y-60268577D01*
X81024408Y-60440120D01*
X80969077Y-60482785D01*
X80899464Y-60488764D01*
X80837669Y-60456158D01*
X80823772Y-60440120D01*
X80699374Y-60268903D01*
X80699374Y-60268902D01*
X80546897Y-60116425D01*
X80372436Y-59989671D01*
X80180299Y-59891772D01*
X79975205Y-59825133D01*
X79904400Y-59813918D01*
X79904400Y-60843690D01*
X79884061Y-60831948D01*
X79732733Y-60791400D01*
X79576067Y-60791400D01*
X79424739Y-60831948D01*
X79404400Y-60843690D01*
X79404400Y-59813918D01*
X79404399Y-59813918D01*
X79333594Y-59825133D01*
X79128500Y-59891772D01*
X78936363Y-59989671D01*
X78761903Y-60116425D01*
X78761902Y-60116425D01*
X78609424Y-60268903D01*
X78485027Y-60440120D01*
X78429696Y-60482785D01*
X78360083Y-60488764D01*
X78298288Y-60456158D01*
X78284391Y-60440120D01*
X78272560Y-60423836D01*
X78159759Y-60268579D01*
X78007221Y-60116041D01*
X77832699Y-59989243D01*
X77640489Y-59891308D01*
X77435326Y-59824646D01*
X77435324Y-59824645D01*
X77435322Y-59824645D01*
X77249902Y-59795277D01*
X77186767Y-59765348D01*
X77149836Y-59706036D01*
X77145300Y-59672804D01*
X77145300Y-51644996D01*
X77164985Y-51577957D01*
X77217789Y-51532202D01*
X77282557Y-51521707D01*
X77289927Y-51522500D01*
X78285672Y-51522499D01*
X78345283Y-51516091D01*
X78379467Y-51503340D01*
X78449158Y-51498357D01*
X78466127Y-51503338D01*
X78500317Y-51516091D01*
X78559927Y-51522500D01*
X79555672Y-51522499D01*
X79615283Y-51516091D01*
X79649467Y-51503340D01*
X79719158Y-51498357D01*
X79736127Y-51503338D01*
X79770317Y-51516091D01*
X79829927Y-51522500D01*
X80825672Y-51522499D01*
X80885283Y-51516091D01*
X80919467Y-51503340D01*
X80989158Y-51498357D01*
X81006127Y-51503338D01*
X81040317Y-51516091D01*
X81099927Y-51522500D01*
X82095672Y-51522499D01*
X82155283Y-51516091D01*
X82189467Y-51503340D01*
X82259158Y-51498357D01*
X82276127Y-51503338D01*
X82310317Y-51516091D01*
X82369927Y-51522500D01*
X83365672Y-51522499D01*
X83425283Y-51516091D01*
X83459467Y-51503340D01*
X83529158Y-51498357D01*
X83546127Y-51503338D01*
X83580317Y-51516091D01*
X83639927Y-51522500D01*
X84635672Y-51522499D01*
X84695283Y-51516091D01*
X84830131Y-51465796D01*
X84945346Y-51379546D01*
X85031596Y-51264331D01*
X85081891Y-51129483D01*
X85088300Y-51069873D01*
X85088299Y-50096498D01*
X85107983Y-50029460D01*
X85160787Y-49983705D01*
X85212294Y-49972499D01*
X86700672Y-49972499D01*
X86760283Y-49966091D01*
X86895131Y-49915796D01*
X87010346Y-49829546D01*
X87096596Y-49714331D01*
X87096598Y-49714323D01*
X87096735Y-49714076D01*
X87096945Y-49713865D01*
X87101912Y-49707231D01*
X87102865Y-49707944D01*
X87146139Y-49664669D01*
X87205569Y-49649500D01*
X87846246Y-49649500D01*
X87913285Y-49669185D01*
X87959040Y-49721989D01*
X87963950Y-49734492D01*
X87982786Y-49791334D01*
X88074888Y-49940656D01*
X88198944Y-50064712D01*
X88348266Y-50156814D01*
X88514803Y-50211999D01*
X88617591Y-50222500D01*
X89417608Y-50222499D01*
X89417616Y-50222498D01*
X89417619Y-50222498D01*
X89473902Y-50216748D01*
X89520397Y-50211999D01*
X89686934Y-50156814D01*
X89836256Y-50064712D01*
X89929919Y-49971049D01*
X89991242Y-49937564D01*
X90060934Y-49942548D01*
X90105281Y-49971049D01*
X90198944Y-50064712D01*
X90348266Y-50156814D01*
X90514803Y-50211999D01*
X90617591Y-50222500D01*
X91417608Y-50222499D01*
X91417616Y-50222498D01*
X91417619Y-50222498D01*
X91473902Y-50216748D01*
X91520397Y-50211999D01*
X91686934Y-50156814D01*
X91836256Y-50064712D01*
X91960312Y-49940656D01*
X92052414Y-49791334D01*
X92069591Y-49739495D01*
X92109364Y-49682051D01*
X92173879Y-49655228D01*
X92187297Y-49654500D01*
X93491879Y-49654500D01*
X93558918Y-49674185D01*
X93604673Y-49726989D01*
X93608061Y-49735166D01*
X93620803Y-49769330D01*
X93620806Y-49769335D01*
X93707052Y-49884544D01*
X93707055Y-49884547D01*
X93822264Y-49970793D01*
X93822271Y-49970797D01*
X93957117Y-50021091D01*
X93957116Y-50021091D01*
X93964044Y-50021835D01*
X94016727Y-50027500D01*
X95112472Y-50027499D01*
X95172083Y-50021091D01*
X95306931Y-49970796D01*
X95422146Y-49884546D01*
X95508396Y-49769331D01*
X95558691Y-49634483D01*
X95565100Y-49574873D01*
X95565099Y-48508499D01*
X95584783Y-48441461D01*
X95637587Y-48395706D01*
X95689099Y-48384500D01*
X96823503Y-48384500D01*
X96890542Y-48404185D01*
X96936297Y-48456989D01*
X96941207Y-48469491D01*
X96954133Y-48508500D01*
X96958385Y-48521331D01*
X96958387Y-48521336D01*
X96971828Y-48543127D01*
X97050488Y-48670656D01*
X97174544Y-48794712D01*
X97323866Y-48886814D01*
X97490403Y-48941999D01*
X97593191Y-48952500D01*
X98393208Y-48952499D01*
X98393216Y-48952498D01*
X98393219Y-48952498D01*
X98449502Y-48946748D01*
X98495997Y-48941999D01*
X98662534Y-48886814D01*
X98811856Y-48794712D01*
X98905519Y-48701049D01*
X98966842Y-48667564D01*
X99036534Y-48672548D01*
X99080881Y-48701049D01*
X99174544Y-48794712D01*
X99323866Y-48886814D01*
X99490403Y-48941999D01*
X99593191Y-48952500D01*
X100393208Y-48952499D01*
X100393216Y-48952498D01*
X100393219Y-48952498D01*
X100449502Y-48946748D01*
X100495997Y-48941999D01*
X100662534Y-48886814D01*
X100811856Y-48794712D01*
X100935912Y-48670656D01*
X101028014Y-48521334D01*
X101083199Y-48354797D01*
X101093700Y-48252009D01*
X101093699Y-47251992D01*
X101090804Y-47223655D01*
X101083199Y-47149203D01*
X101083198Y-47149200D01*
X101072109Y-47115735D01*
X101028014Y-46982666D01*
X100935912Y-46833344D01*
X100811856Y-46709288D01*
X100679603Y-46627714D01*
X100632879Y-46575766D01*
X100620700Y-46522175D01*
X100620700Y-44539281D01*
X100640385Y-44472242D01*
X100657019Y-44451600D01*
X101980019Y-43128600D01*
X102041342Y-43095115D01*
X102111034Y-43100099D01*
X102166967Y-43141971D01*
X102191384Y-43207435D01*
X102191700Y-43216281D01*
X102191700Y-47320437D01*
X102172015Y-47387476D01*
X102146368Y-47416288D01*
X102108313Y-47447520D01*
X101983290Y-47599860D01*
X101983286Y-47599867D01*
X101890388Y-47773666D01*
X101833175Y-47962270D01*
X101813859Y-48158400D01*
X101833175Y-48354529D01*
X101833176Y-48354532D01*
X101884622Y-48524127D01*
X101890388Y-48543133D01*
X101983286Y-48716932D01*
X101986673Y-48722001D01*
X101985036Y-48723094D01*
X102008796Y-48779063D01*
X101996995Y-48847929D01*
X101986309Y-48864556D01*
X101986673Y-48864799D01*
X101983286Y-48869867D01*
X101890388Y-49043666D01*
X101833175Y-49232270D01*
X101813859Y-49428400D01*
X101833175Y-49624529D01*
X101833176Y-49624532D01*
X101883774Y-49791331D01*
X101890387Y-49813129D01*
X101891521Y-49815250D01*
X101891780Y-49816494D01*
X101892718Y-49818759D01*
X101892288Y-49818936D01*
X101905764Y-49883653D01*
X101881433Y-49948014D01*
X101875405Y-49956066D01*
X101875403Y-49956069D01*
X101862661Y-49990234D01*
X101820789Y-50046167D01*
X101755325Y-50070584D01*
X101746479Y-50070900D01*
X100201296Y-50070900D01*
X100134257Y-50051215D01*
X100113615Y-50034581D01*
X100096818Y-50017784D01*
X99944079Y-49921811D01*
X99773810Y-49862231D01*
X99773805Y-49862230D01*
X99594560Y-49842035D01*
X99594552Y-49842035D01*
X99415306Y-49862230D01*
X99415301Y-49862231D01*
X99245032Y-49921811D01*
X99092293Y-50017784D01*
X98964740Y-50145337D01*
X98868767Y-50298076D01*
X98809187Y-50468345D01*
X98809186Y-50468350D01*
X98788991Y-50647596D01*
X98788991Y-50647603D01*
X98809186Y-50826849D01*
X98809187Y-50826854D01*
X98868767Y-50997123D01*
X98930982Y-51096137D01*
X98964740Y-51149862D01*
X99092294Y-51277416D01*
X99245034Y-51373389D01*
X99415301Y-51432968D01*
X99415306Y-51432969D01*
X99594552Y-51453165D01*
X99594556Y-51453165D01*
X99594560Y-51453165D01*
X99773805Y-51432969D01*
X99773808Y-51432968D01*
X99773811Y-51432968D01*
X99944078Y-51373389D01*
X99989407Y-51344907D01*
X100055380Y-51325900D01*
X101746479Y-51325900D01*
X101813518Y-51345585D01*
X101859273Y-51398389D01*
X101862661Y-51406566D01*
X101875403Y-51440730D01*
X101875406Y-51440735D01*
X101961652Y-51555944D01*
X101961655Y-51555947D01*
X102076864Y-51642193D01*
X102076871Y-51642197D01*
X102211717Y-51692491D01*
X102211716Y-51692491D01*
X102218644Y-51693235D01*
X102271327Y-51698900D01*
X103367072Y-51698899D01*
X103426683Y-51692491D01*
X103561531Y-51642196D01*
X103676746Y-51555946D01*
X103762996Y-51440731D01*
X103813291Y-51305883D01*
X103819700Y-51246273D01*
X103819699Y-50150528D01*
X103813291Y-50090917D01*
X103805707Y-50070584D01*
X103762997Y-49956072D01*
X103762996Y-49956069D01*
X103756967Y-49948015D01*
X103732551Y-49882554D01*
X103746095Y-49818925D01*
X103745683Y-49818755D01*
X103746606Y-49816524D01*
X103746877Y-49815253D01*
X103748014Y-49813127D01*
X103805224Y-49624532D01*
X103824541Y-49428400D01*
X103819716Y-49379413D01*
X103832735Y-49310769D01*
X103855435Y-49279582D01*
X103912404Y-49222613D01*
X118358200Y-49222613D01*
X118358200Y-49360100D01*
X119333200Y-49360100D01*
X119833200Y-49360100D01*
X120808199Y-49360100D01*
X120808199Y-49222628D01*
X120808198Y-49222613D01*
X120797705Y-49119902D01*
X120742558Y-48953480D01*
X120742556Y-48953475D01*
X120650515Y-48804254D01*
X120526545Y-48680284D01*
X120377324Y-48588243D01*
X120377319Y-48588241D01*
X120210897Y-48533094D01*
X120210890Y-48533093D01*
X120108186Y-48522600D01*
X119833200Y-48522600D01*
X119833200Y-49360100D01*
X119333200Y-49360100D01*
X119333200Y-48522600D01*
X119058229Y-48522600D01*
X119058212Y-48522601D01*
X118955502Y-48533094D01*
X118789080Y-48588241D01*
X118789075Y-48588243D01*
X118639854Y-48680284D01*
X118515884Y-48804254D01*
X118423843Y-48953475D01*
X118423841Y-48953480D01*
X118368694Y-49119902D01*
X118368693Y-49119909D01*
X118358200Y-49222613D01*
X103912404Y-49222613D01*
X105541811Y-47593208D01*
X105541901Y-47593073D01*
X105554671Y-47573963D01*
X105610476Y-47490443D01*
X105610483Y-47490433D01*
X105657785Y-47376235D01*
X105668884Y-47320437D01*
X105681900Y-47255005D01*
X105681900Y-47214953D01*
X105701585Y-47147914D01*
X105754389Y-47102159D01*
X105766882Y-47097252D01*
X105823734Y-47078414D01*
X105973056Y-46986312D01*
X106097112Y-46862256D01*
X106189214Y-46712934D01*
X106244399Y-46546397D01*
X106254900Y-46443609D01*
X106254899Y-45643592D01*
X106244399Y-45540803D01*
X106189214Y-45374266D01*
X106097112Y-45224944D01*
X106003449Y-45131281D01*
X105969964Y-45069958D01*
X105974948Y-45000266D01*
X106003449Y-44955919D01*
X106043168Y-44916200D01*
X106097112Y-44862256D01*
X106189214Y-44712934D01*
X106244399Y-44546397D01*
X106254900Y-44443609D01*
X106254899Y-43643592D01*
X106244399Y-43540803D01*
X106189214Y-43374266D01*
X106097112Y-43224944D01*
X105973056Y-43100888D01*
X105967389Y-43096407D01*
X105968705Y-43094742D01*
X105928977Y-43050569D01*
X105916800Y-42996982D01*
X105916800Y-41947216D01*
X105936485Y-41880177D01*
X105989289Y-41834422D01*
X105993348Y-41832655D01*
X105998769Y-41830409D01*
X105998772Y-41830409D01*
X106135724Y-41773681D01*
X106135725Y-41773681D01*
X106135725Y-41773680D01*
X106135729Y-41773679D01*
X106253336Y-41683436D01*
X106343579Y-41565829D01*
X106400309Y-41428872D01*
X106414800Y-41318801D01*
X106414799Y-40993898D01*
X106434483Y-40926860D01*
X106487287Y-40881105D01*
X106538799Y-40869899D01*
X106863703Y-40869899D01*
X106973763Y-40855411D01*
X106973767Y-40855409D01*
X106973772Y-40855409D01*
X107110729Y-40798679D01*
X107228336Y-40708436D01*
X107318579Y-40590829D01*
X107375309Y-40453872D01*
X107389800Y-40343801D01*
X107389799Y-40145000D01*
X107389799Y-40144998D01*
X107389799Y-40144996D01*
X107375311Y-40034939D01*
X107375309Y-40034934D01*
X107375309Y-40034928D01*
X107375305Y-40034918D01*
X107373452Y-40028002D01*
X107375110Y-39958152D01*
X107414269Y-39900287D01*
X107478495Y-39872778D01*
X107493225Y-39871900D01*
X107767332Y-39871900D01*
X107834371Y-39891585D01*
X107855013Y-39908219D01*
X107899959Y-39953165D01*
X107983431Y-40005614D01*
X108045029Y-40044319D01*
X108052699Y-40049138D01*
X108150417Y-40083331D01*
X108222966Y-40108717D01*
X108222971Y-40108718D01*
X108402217Y-40128914D01*
X108402221Y-40128914D01*
X108402225Y-40128914D01*
X108581470Y-40108718D01*
X108581473Y-40108717D01*
X108581476Y-40108717D01*
X108751743Y-40049138D01*
X108904483Y-39953165D01*
X109032037Y-39825611D01*
X109128010Y-39672871D01*
X109129215Y-39669426D01*
X109130598Y-39667497D01*
X109131033Y-39666595D01*
X109131190Y-39666671D01*
X109169931Y-39612648D01*
X109205303Y-39593331D01*
X109366322Y-39536989D01*
X109519062Y-39441016D01*
X109646616Y-39313462D01*
X109742589Y-39160722D01*
X109802168Y-38990455D01*
X109802309Y-38989207D01*
X109822365Y-38811203D01*
X109822365Y-38811196D01*
X109802169Y-38631950D01*
X109802168Y-38631945D01*
X109769164Y-38537626D01*
X109742589Y-38461678D01*
X109742248Y-38461136D01*
X109689612Y-38377366D01*
X109646616Y-38308938D01*
X109519062Y-38181384D01*
X109468289Y-38149481D01*
X109366323Y-38085411D01*
X109196054Y-38025831D01*
X109196049Y-38025830D01*
X109016804Y-38005635D01*
X109016796Y-38005635D01*
X108837550Y-38025830D01*
X108837537Y-38025833D01*
X108734495Y-38061890D01*
X108693540Y-38068849D01*
X107501567Y-38068849D01*
X107434528Y-38049164D01*
X107388773Y-37996360D01*
X107378628Y-37928664D01*
X107385184Y-37878860D01*
X107389800Y-37843801D01*
X107389799Y-37645000D01*
X107389799Y-37644998D01*
X107389799Y-37644996D01*
X107375311Y-37534936D01*
X107375309Y-37534929D01*
X107375309Y-37534928D01*
X107318579Y-37397971D01*
X107228336Y-37280364D01*
X107110729Y-37190121D01*
X107110725Y-37190119D01*
X107048675Y-37164417D01*
X106973772Y-37133391D01*
X106952035Y-37130529D01*
X106892978Y-37122754D01*
X106829082Y-37094487D01*
X106790611Y-37036162D01*
X106789780Y-36966298D01*
X106821481Y-36912136D01*
X107865400Y-35868219D01*
X107926723Y-35834734D01*
X107953081Y-35831900D01*
X116659686Y-35831900D01*
X116726725Y-35851585D01*
G37*
%TD.AperFunction*%
%TA.AperFunction,Conductor*%
G36*
X116947747Y-54088785D02*
G01*
X116968389Y-54105419D01*
X117309212Y-54446242D01*
X117342697Y-54507565D01*
X117337713Y-54577257D01*
X117331441Y-54591332D01*
X117300089Y-54651353D01*
X117273494Y-54744302D01*
X117246200Y-54839694D01*
X117244114Y-54846983D01*
X117244113Y-54846986D01*
X117233500Y-54966366D01*
X117233500Y-56082428D01*
X117233501Y-56082434D01*
X117244113Y-56201815D01*
X117300089Y-56397445D01*
X117300090Y-56397448D01*
X117300091Y-56397449D01*
X117394302Y-56577807D01*
X117401797Y-56586999D01*
X117522890Y-56735509D01*
X117616803Y-56812084D01*
X117680593Y-56864098D01*
X117860951Y-56958309D01*
X118056582Y-57014286D01*
X118175963Y-57024900D01*
X118628500Y-57024899D01*
X118695539Y-57044583D01*
X118741294Y-57097387D01*
X118752500Y-57148899D01*
X118752500Y-60423836D01*
X118732815Y-60490875D01*
X118706188Y-60520483D01*
X118636278Y-60576678D01*
X118580326Y-60646285D01*
X118522982Y-60686203D01*
X118453160Y-60688783D01*
X118393027Y-60653204D01*
X118387031Y-60646284D01*
X118331364Y-60577030D01*
X118183025Y-60457792D01*
X118183022Y-60457790D01*
X118012523Y-60373231D01*
X117827824Y-60327297D01*
X117785097Y-60324400D01*
X117584000Y-60324400D01*
X117584000Y-63324400D01*
X117785097Y-63324400D01*
X117827824Y-63321502D01*
X118012523Y-63275568D01*
X118183022Y-63191009D01*
X118183025Y-63191007D01*
X118331366Y-63071767D01*
X118331367Y-63071766D01*
X118387033Y-63002515D01*
X118444376Y-62962596D01*
X118514198Y-62960016D01*
X118574331Y-62995594D01*
X118580305Y-63002489D01*
X118636278Y-63072122D01*
X118636280Y-63072124D01*
X118784704Y-63191430D01*
X118784707Y-63191432D01*
X118955302Y-63276039D01*
X118955303Y-63276039D01*
X118955307Y-63276041D01*
X119140111Y-63322000D01*
X119182877Y-63324900D01*
X120085122Y-63324899D01*
X120127889Y-63322000D01*
X120312693Y-63276041D01*
X120483296Y-63191430D01*
X120631722Y-63072122D01*
X120687353Y-63002914D01*
X120744696Y-62962995D01*
X120814518Y-62960415D01*
X120874651Y-62995994D01*
X120880647Y-63002914D01*
X120936275Y-63072119D01*
X120936278Y-63072122D01*
X120992187Y-63117063D01*
X121032106Y-63174404D01*
X121038500Y-63213709D01*
X121038500Y-64748242D01*
X121018815Y-64815281D01*
X120979605Y-64853775D01*
X120976351Y-64855782D01*
X120976343Y-64855788D01*
X120963951Y-64868181D01*
X120902628Y-64901666D01*
X120876270Y-64904500D01*
X110822530Y-64904500D01*
X110755491Y-64884815D01*
X110734849Y-64868181D01*
X110722456Y-64855788D01*
X110722448Y-64855782D01*
X110719195Y-64853775D01*
X110717434Y-64851817D01*
X110716789Y-64851307D01*
X110716876Y-64851196D01*
X110672474Y-64801824D01*
X110660300Y-64748242D01*
X110660300Y-63236216D01*
X110679985Y-63169177D01*
X110706607Y-63139574D01*
X110790522Y-63072122D01*
X110909830Y-62923696D01*
X110994441Y-62753093D01*
X111040400Y-62568289D01*
X111043300Y-62525523D01*
X111043300Y-62525496D01*
X116084000Y-62525496D01*
X116086897Y-62568224D01*
X116132831Y-62752923D01*
X116217390Y-62923422D01*
X116217392Y-62923425D01*
X116336632Y-63071766D01*
X116336633Y-63071767D01*
X116484974Y-63191007D01*
X116484977Y-63191009D01*
X116655476Y-63275568D01*
X116840175Y-63321502D01*
X116882903Y-63324400D01*
X117084000Y-63324400D01*
X117084000Y-62074400D01*
X116084000Y-62074400D01*
X116084000Y-62525496D01*
X111043300Y-62525496D01*
X111043299Y-61123303D01*
X116084000Y-61123303D01*
X116084000Y-61574400D01*
X117084000Y-61574400D01*
X117084000Y-60324400D01*
X116882903Y-60324400D01*
X116840175Y-60327297D01*
X116655476Y-60373231D01*
X116484977Y-60457790D01*
X116484974Y-60457792D01*
X116336633Y-60577032D01*
X116336632Y-60577033D01*
X116217392Y-60725374D01*
X116217390Y-60725377D01*
X116132831Y-60895876D01*
X116086897Y-61080575D01*
X116084000Y-61123303D01*
X111043299Y-61123303D01*
X111043299Y-61123278D01*
X111040400Y-61080511D01*
X110994441Y-60895707D01*
X110942710Y-60791400D01*
X110909832Y-60725107D01*
X110909830Y-60725104D01*
X110790522Y-60576678D01*
X110790521Y-60576677D01*
X110642095Y-60457369D01*
X110642092Y-60457367D01*
X110471497Y-60372760D01*
X110286692Y-60326800D01*
X110265306Y-60325350D01*
X110243923Y-60323900D01*
X110243920Y-60323900D01*
X109341677Y-60323900D01*
X109341674Y-60323901D01*
X109298913Y-60326799D01*
X109298912Y-60326799D01*
X109114103Y-60372760D01*
X108943507Y-60457367D01*
X108943504Y-60457369D01*
X108795078Y-60576677D01*
X108795077Y-60576678D01*
X108739447Y-60645886D01*
X108682104Y-60685805D01*
X108612282Y-60688385D01*
X108552149Y-60652806D01*
X108546153Y-60645886D01*
X108490807Y-60577033D01*
X108490522Y-60576678D01*
X108420611Y-60520482D01*
X108380694Y-60463139D01*
X108374300Y-60423836D01*
X108374300Y-57148899D01*
X108393985Y-57081860D01*
X108446789Y-57036105D01*
X108498300Y-57024899D01*
X108950828Y-57024899D01*
X108950836Y-57024899D01*
X109070218Y-57014286D01*
X109265849Y-56958309D01*
X109446207Y-56864098D01*
X109603909Y-56735509D01*
X109732498Y-56577807D01*
X109787512Y-56472487D01*
X109835999Y-56422181D01*
X109897421Y-56405900D01*
X111486070Y-56405900D01*
X111553109Y-56425585D01*
X111565387Y-56435479D01*
X111565581Y-56435234D01*
X111571241Y-56439709D01*
X111571244Y-56439712D01*
X111720566Y-56531814D01*
X111887103Y-56586999D01*
X111989891Y-56597500D01*
X112764908Y-56597499D01*
X112764916Y-56597498D01*
X112764919Y-56597498D01*
X112821202Y-56591748D01*
X112867697Y-56586999D01*
X113034234Y-56531814D01*
X113183556Y-56439712D01*
X113307612Y-56315656D01*
X113309652Y-56312347D01*
X113311645Y-56310555D01*
X113312093Y-56309989D01*
X113312189Y-56310065D01*
X113361594Y-56265623D01*
X113430556Y-56254395D01*
X113494640Y-56282234D01*
X113520729Y-56312339D01*
X113522581Y-56315341D01*
X113522583Y-56315344D01*
X113646554Y-56439315D01*
X113795775Y-56531356D01*
X113795780Y-56531358D01*
X113962202Y-56586505D01*
X113962209Y-56586506D01*
X114064919Y-56596999D01*
X114202399Y-56596999D01*
X114702400Y-56596999D01*
X114839872Y-56596999D01*
X114839886Y-56596998D01*
X114942597Y-56586505D01*
X115109019Y-56531358D01*
X115109024Y-56531356D01*
X115258245Y-56439315D01*
X115382215Y-56315345D01*
X115474256Y-56166124D01*
X115474258Y-56166119D01*
X115529405Y-55999697D01*
X115529406Y-55999690D01*
X115539899Y-55896986D01*
X115539900Y-55896973D01*
X115539900Y-55622000D01*
X114702400Y-55622000D01*
X114702400Y-56596999D01*
X114202399Y-56596999D01*
X114202400Y-56596998D01*
X114202400Y-55246000D01*
X114222085Y-55178961D01*
X114274889Y-55133206D01*
X114326400Y-55122000D01*
X115539899Y-55122000D01*
X115539899Y-54847028D01*
X115539898Y-54847013D01*
X115529405Y-54744302D01*
X115474258Y-54577880D01*
X115474256Y-54577875D01*
X115382215Y-54428654D01*
X115258243Y-54304682D01*
X115248445Y-54298639D01*
X115201720Y-54246692D01*
X115190497Y-54177729D01*
X115218340Y-54113647D01*
X115276409Y-54074790D01*
X115313541Y-54069100D01*
X116880708Y-54069100D01*
X116947747Y-54088785D01*
G37*
%TD.AperFunction*%
%TA.AperFunction,Conductor*%
G36*
X125280446Y-35851585D02*
G01*
X125326201Y-35904389D01*
X125336145Y-35973547D01*
X125307120Y-36037103D01*
X125301088Y-36043581D01*
X123738080Y-37606588D01*
X123676757Y-37640073D01*
X123607065Y-37635089D01*
X123551132Y-37593217D01*
X123526715Y-37527753D01*
X123526399Y-37518907D01*
X123526399Y-37376428D01*
X123526398Y-37376413D01*
X123515905Y-37273702D01*
X123460758Y-37107280D01*
X123460756Y-37107275D01*
X123368715Y-36958054D01*
X123244745Y-36834084D01*
X123095524Y-36742043D01*
X123095519Y-36742041D01*
X122929097Y-36686894D01*
X122929090Y-36686893D01*
X122826386Y-36676400D01*
X122576400Y-36676400D01*
X122576400Y-37902400D01*
X122556715Y-37969439D01*
X122503911Y-38015194D01*
X122452400Y-38026400D01*
X121126401Y-38026400D01*
X121126401Y-38176386D01*
X121136894Y-38279097D01*
X121192041Y-38445519D01*
X121192043Y-38445524D01*
X121284084Y-38594745D01*
X121377704Y-38688365D01*
X121411189Y-38749688D01*
X121406205Y-38819380D01*
X121377705Y-38863727D01*
X121283687Y-38957745D01*
X121191587Y-39107063D01*
X121191585Y-39107068D01*
X121179016Y-39144999D01*
X121136401Y-39273603D01*
X121136401Y-39273604D01*
X121136400Y-39273604D01*
X121125900Y-39376383D01*
X121125900Y-40176401D01*
X121125901Y-40176419D01*
X121136400Y-40279196D01*
X121136401Y-40279199D01*
X121191585Y-40445731D01*
X121191587Y-40445736D01*
X121202028Y-40462663D01*
X121283688Y-40595056D01*
X121407744Y-40719112D01*
X121557066Y-40811214D01*
X121613905Y-40830048D01*
X121671348Y-40869818D01*
X121698172Y-40934334D01*
X121698900Y-40947753D01*
X121698900Y-41870204D01*
X121702551Y-41888559D01*
X121710072Y-41926372D01*
X121710417Y-41928103D01*
X121712800Y-41952295D01*
X121712800Y-45432200D01*
X121693115Y-45499239D01*
X121640311Y-45544994D01*
X121588800Y-45556200D01*
X119866800Y-45556200D01*
X119799761Y-45536515D01*
X119754006Y-45483711D01*
X119742800Y-45432200D01*
X119742800Y-45056200D01*
X120242800Y-45056200D01*
X121212800Y-45056200D01*
X121212800Y-44661200D01*
X120242800Y-44661200D01*
X120242800Y-45056200D01*
X119742800Y-45056200D01*
X119742800Y-44161200D01*
X120242800Y-44161200D01*
X121212800Y-44161200D01*
X121212800Y-43766200D01*
X120242800Y-43766200D01*
X120242800Y-44161200D01*
X119742800Y-44161200D01*
X119742800Y-43766200D01*
X119556300Y-43766200D01*
X119489261Y-43746515D01*
X119443506Y-43693711D01*
X119432300Y-43642200D01*
X119432300Y-43390200D01*
X119451985Y-43323161D01*
X119504789Y-43277406D01*
X119556300Y-43266200D01*
X119742800Y-43266200D01*
X120242800Y-43266200D01*
X121212800Y-43266200D01*
X121212800Y-42871200D01*
X120242800Y-42871200D01*
X120242800Y-43266200D01*
X119742800Y-43266200D01*
X119742800Y-42371200D01*
X120242800Y-42371200D01*
X121212800Y-42371200D01*
X121212800Y-41673700D01*
X120242800Y-41673700D01*
X120242800Y-42371200D01*
X119742800Y-42371200D01*
X119742800Y-41673700D01*
X119209955Y-41673700D01*
X119150427Y-41680101D01*
X119150417Y-41680103D01*
X119145631Y-41681889D01*
X119075940Y-41686873D01*
X119014617Y-41653387D01*
X118981133Y-41592064D01*
X118978299Y-41565707D01*
X118978299Y-41415829D01*
X118978298Y-41415823D01*
X118977314Y-41406673D01*
X118971891Y-41356217D01*
X118952482Y-41304180D01*
X118921597Y-41221371D01*
X118921593Y-41221364D01*
X118835347Y-41106155D01*
X118835344Y-41106152D01*
X118720135Y-41019906D01*
X118720128Y-41019902D01*
X118660967Y-40997837D01*
X118605033Y-40955966D01*
X118580616Y-40890502D01*
X118580300Y-40881655D01*
X118580300Y-39351981D01*
X118599985Y-39284942D01*
X118616619Y-39264300D01*
X120504506Y-37376413D01*
X121126400Y-37376413D01*
X121126400Y-37526400D01*
X122076400Y-37526400D01*
X122076400Y-36676400D01*
X121826429Y-36676400D01*
X121826412Y-36676401D01*
X121723702Y-36686894D01*
X121557280Y-36742041D01*
X121557275Y-36742043D01*
X121408054Y-36834084D01*
X121284084Y-36958054D01*
X121192043Y-37107275D01*
X121192041Y-37107280D01*
X121136894Y-37273702D01*
X121136893Y-37273709D01*
X121126400Y-37376413D01*
X120504506Y-37376413D01*
X122012700Y-35868219D01*
X122074023Y-35834734D01*
X122100381Y-35831900D01*
X125213407Y-35831900D01*
X125280446Y-35851585D01*
G37*
%TD.AperFunction*%
%TA.AperFunction,Conductor*%
G36*
X116872258Y-42142606D02*
G01*
X116917028Y-42196247D01*
X116927300Y-42245663D01*
X116927300Y-42611568D01*
X116927301Y-42611580D01*
X116931731Y-42652793D01*
X116931731Y-42679296D01*
X116927800Y-42715865D01*
X116927800Y-42763700D01*
X116943411Y-42779311D01*
X116957284Y-42783385D01*
X116989511Y-42813388D01*
X117034064Y-42872903D01*
X117065860Y-42915377D01*
X117070255Y-42921247D01*
X117162676Y-42990434D01*
X117204547Y-43046368D01*
X117209531Y-43116059D01*
X117176045Y-43177382D01*
X117114722Y-43210866D01*
X117088365Y-43213700D01*
X116927800Y-43213700D01*
X116927800Y-43261535D01*
X116931983Y-43300448D01*
X116931983Y-43326952D01*
X116927800Y-43365864D01*
X116927800Y-43413700D01*
X117088365Y-43413700D01*
X117155404Y-43433385D01*
X117201159Y-43486189D01*
X117211103Y-43555347D01*
X117182078Y-43618903D01*
X117162676Y-43636966D01*
X117070255Y-43706152D01*
X116989511Y-43814012D01*
X116941694Y-43849805D01*
X116927800Y-43863700D01*
X116927800Y-43911532D01*
X116931731Y-43948099D01*
X116931731Y-43974605D01*
X116927300Y-44015822D01*
X116927300Y-44561569D01*
X116927301Y-44561578D01*
X116931479Y-44600445D01*
X116931479Y-44626950D01*
X116927300Y-44665822D01*
X116927300Y-44665827D01*
X116927300Y-44797893D01*
X116927301Y-44837199D01*
X116907617Y-44904239D01*
X116854813Y-44949994D01*
X116803301Y-44961200D01*
X116054794Y-44961200D01*
X115987755Y-44941515D01*
X115947859Y-44895838D01*
X115946605Y-44896613D01*
X115942812Y-44890463D01*
X115850712Y-44741144D01*
X115726656Y-44617088D01*
X115723819Y-44615338D01*
X115722283Y-44613630D01*
X115720989Y-44612607D01*
X115721163Y-44612385D01*
X115677096Y-44563394D01*
X115665872Y-44494432D01*
X115693713Y-44430349D01*
X115723817Y-44404262D01*
X115726656Y-44402512D01*
X115850712Y-44278456D01*
X115942814Y-44129134D01*
X115997999Y-43962597D01*
X116008500Y-43859809D01*
X116008499Y-43223080D01*
X116028183Y-43156042D01*
X116044818Y-43135400D01*
X116206235Y-42973983D01*
X116413011Y-42767208D01*
X116413386Y-42766645D01*
X116413753Y-42766098D01*
X116413754Y-42766098D01*
X116413761Y-42766084D01*
X116481683Y-42664433D01*
X116528985Y-42550235D01*
X116543953Y-42474986D01*
X116553100Y-42429005D01*
X116553100Y-42303353D01*
X116572785Y-42236314D01*
X116625589Y-42190559D01*
X116638082Y-42185652D01*
X116694934Y-42166814D01*
X116738205Y-42140124D01*
X116805594Y-42121684D01*
X116872258Y-42142606D01*
G37*
%TD.AperFunction*%
%TA.AperFunction,Conductor*%
G36*
X118120339Y-43083884D02*
G01*
X118166094Y-43136688D01*
X118177300Y-43188199D01*
X118177300Y-43439200D01*
X118157615Y-43506239D01*
X118104811Y-43551994D01*
X118053300Y-43563200D01*
X117851800Y-43563200D01*
X117784761Y-43543515D01*
X117739006Y-43490711D01*
X117727800Y-43439200D01*
X117727800Y-43188199D01*
X117747485Y-43121160D01*
X117800289Y-43075405D01*
X117851798Y-43064199D01*
X118053300Y-43064199D01*
X118120339Y-43083884D01*
G37*
%TD.AperFunction*%
%TA.AperFunction,Conductor*%
G36*
X128298651Y-36039313D02*
G01*
X128324737Y-36069417D01*
X128326488Y-36072256D01*
X128450544Y-36196312D01*
X128481596Y-36215465D01*
X128528320Y-36267409D01*
X128540500Y-36321003D01*
X128540500Y-37943900D01*
X128520815Y-38010939D01*
X128468011Y-38056694D01*
X128416500Y-38067900D01*
X127768398Y-38067900D01*
X127768380Y-38067901D01*
X127665603Y-38078400D01*
X127665600Y-38078401D01*
X127499068Y-38133585D01*
X127499063Y-38133587D01*
X127349745Y-38225687D01*
X127255727Y-38319705D01*
X127194403Y-38353189D01*
X127124712Y-38348205D01*
X127080365Y-38319704D01*
X126986745Y-38226084D01*
X126837524Y-38134043D01*
X126837519Y-38134041D01*
X126671097Y-38078894D01*
X126671090Y-38078893D01*
X126568386Y-38068400D01*
X126418400Y-38068400D01*
X126418400Y-39394400D01*
X126398715Y-39461439D01*
X126345911Y-39507194D01*
X126294400Y-39518400D01*
X125068401Y-39518400D01*
X125068401Y-39768386D01*
X125078894Y-39871097D01*
X125134041Y-40037519D01*
X125134043Y-40037524D01*
X125226084Y-40186745D01*
X125231934Y-40192595D01*
X125265419Y-40253918D01*
X125260435Y-40323610D01*
X125249247Y-40346248D01*
X125156611Y-40493676D01*
X125097031Y-40663945D01*
X125097030Y-40663949D01*
X125083739Y-40781915D01*
X125056672Y-40846329D01*
X125001474Y-40885072D01*
X124872480Y-40930209D01*
X124719739Y-41026183D01*
X124595456Y-41150466D01*
X124534133Y-41183950D01*
X124464441Y-41178966D01*
X124408509Y-41137095D01*
X124385347Y-41106155D01*
X124385344Y-41106152D01*
X124270135Y-41019906D01*
X124270128Y-41019902D01*
X124210967Y-40997837D01*
X124155033Y-40955966D01*
X124130616Y-40890502D01*
X124130300Y-40881655D01*
X124130300Y-39040568D01*
X124149985Y-38973529D01*
X124166614Y-38952892D01*
X124351093Y-38768413D01*
X125068400Y-38768413D01*
X125068400Y-39018400D01*
X125918400Y-39018400D01*
X125918400Y-38068400D01*
X125768427Y-38068400D01*
X125768412Y-38068401D01*
X125665702Y-38078894D01*
X125499280Y-38134041D01*
X125499275Y-38134043D01*
X125350054Y-38226084D01*
X125226084Y-38350054D01*
X125134043Y-38499275D01*
X125134041Y-38499280D01*
X125078894Y-38665702D01*
X125078893Y-38665709D01*
X125068400Y-38768413D01*
X124351093Y-38768413D01*
X126729089Y-36390416D01*
X126790410Y-36356933D01*
X126816768Y-36354099D01*
X126819181Y-36354099D01*
X126819191Y-36354100D01*
X127569208Y-36354099D01*
X127569216Y-36354098D01*
X127569219Y-36354098D01*
X127625502Y-36348348D01*
X127671997Y-36343599D01*
X127838534Y-36288414D01*
X127987856Y-36196312D01*
X128111912Y-36072256D01*
X128113661Y-36069419D01*
X128115369Y-36067883D01*
X128116393Y-36066589D01*
X128116614Y-36066763D01*
X128165606Y-36022696D01*
X128234568Y-36011472D01*
X128298651Y-36039313D01*
G37*
%TD.AperFunction*%
%TA.AperFunction,Conductor*%
G36*
X51108834Y-36537385D02*
G01*
X51154589Y-36590189D01*
X51159501Y-36602695D01*
X51203586Y-36735733D01*
X51203587Y-36735736D01*
X51238469Y-36792288D01*
X51295688Y-36885056D01*
X51419744Y-37009112D01*
X51569066Y-37101214D01*
X51735603Y-37156399D01*
X51838391Y-37166900D01*
X52320512Y-37166899D01*
X52387551Y-37186583D01*
X52408193Y-37203218D01*
X52816400Y-37611424D01*
X52816421Y-37611447D01*
X52925828Y-37720854D01*
X52925835Y-37720860D01*
X53049408Y-37803428D01*
X53049409Y-37803428D01*
X53049410Y-37803429D01*
X53186720Y-37860305D01*
X53186722Y-37860305D01*
X53186724Y-37860306D01*
X53210904Y-37865115D01*
X53210910Y-37865116D01*
X53332486Y-37889301D01*
X53332488Y-37889301D01*
X53487226Y-37889301D01*
X53487246Y-37889300D01*
X57288065Y-37889300D01*
X57355104Y-37908985D01*
X57393059Y-37947328D01*
X57442387Y-38025833D01*
X57485384Y-38094262D01*
X57612938Y-38221816D01*
X57699588Y-38276262D01*
X57758603Y-38313344D01*
X57765678Y-38317789D01*
X57898107Y-38364128D01*
X57935945Y-38377368D01*
X57935950Y-38377369D01*
X58115196Y-38397565D01*
X58115200Y-38397565D01*
X58115204Y-38397565D01*
X58294449Y-38377369D01*
X58294451Y-38377368D01*
X58294455Y-38377368D01*
X58294458Y-38377366D01*
X58294462Y-38377366D01*
X58389545Y-38344095D01*
X58459324Y-38340533D01*
X58519951Y-38375261D01*
X58552179Y-38437254D01*
X58554500Y-38461136D01*
X58554500Y-39892820D01*
X58534815Y-39959859D01*
X58482011Y-40005614D01*
X58412853Y-40015558D01*
X58364528Y-39997814D01*
X58312323Y-39965011D01*
X58142054Y-39905431D01*
X58142049Y-39905430D01*
X57962804Y-39885235D01*
X57962796Y-39885235D01*
X57783550Y-39905430D01*
X57783545Y-39905431D01*
X57613276Y-39965011D01*
X57460537Y-40060984D01*
X57332984Y-40188537D01*
X57272579Y-40284672D01*
X57220244Y-40330963D01*
X57167585Y-40342700D01*
X55952652Y-40342700D01*
X55885613Y-40323015D01*
X55839858Y-40270211D01*
X55829914Y-40201053D01*
X55834946Y-40179696D01*
X55886705Y-40023497D01*
X55886706Y-40023490D01*
X55897200Y-39920778D01*
X55897200Y-39670800D01*
X54671200Y-39670800D01*
X54604161Y-39651115D01*
X54558406Y-39598311D01*
X54547200Y-39546800D01*
X54547200Y-39170800D01*
X55047200Y-39170800D01*
X55897199Y-39170800D01*
X55897199Y-38920828D01*
X55897198Y-38920813D01*
X55886705Y-38818102D01*
X55831558Y-38651680D01*
X55831556Y-38651675D01*
X55739515Y-38502454D01*
X55615545Y-38378484D01*
X55466324Y-38286443D01*
X55466319Y-38286441D01*
X55299897Y-38231294D01*
X55299890Y-38231293D01*
X55197186Y-38220800D01*
X55047200Y-38220800D01*
X55047200Y-39170800D01*
X54547200Y-39170800D01*
X54547200Y-38220800D01*
X54397227Y-38220800D01*
X54397212Y-38220801D01*
X54294502Y-38231294D01*
X54128080Y-38286441D01*
X54128075Y-38286443D01*
X53978857Y-38378482D01*
X53885234Y-38472105D01*
X53823910Y-38505589D01*
X53754219Y-38500605D01*
X53709872Y-38472104D01*
X53615857Y-38378089D01*
X53615856Y-38378088D01*
X53503744Y-38308937D01*
X53466536Y-38285987D01*
X53466531Y-38285985D01*
X53419290Y-38270331D01*
X53299997Y-38230801D01*
X53299995Y-38230800D01*
X53197216Y-38220300D01*
X53197209Y-38220300D01*
X52715087Y-38220300D01*
X52648048Y-38200615D01*
X52627406Y-38183981D01*
X52160569Y-37717143D01*
X52160568Y-37717142D01*
X52036992Y-37634572D01*
X52036991Y-37634571D01*
X52036989Y-37634570D01*
X52036986Y-37634568D01*
X52036981Y-37634566D01*
X51934215Y-37592000D01*
X51899680Y-37577695D01*
X51875494Y-37572884D01*
X51753914Y-37548699D01*
X51753912Y-37548699D01*
X51605288Y-37548699D01*
X51599174Y-37548699D01*
X51599154Y-37548700D01*
X47408036Y-37548700D01*
X47340997Y-37529015D01*
X47307718Y-37497585D01*
X47267560Y-37442313D01*
X47244359Y-37410379D01*
X47091821Y-37257841D01*
X46920704Y-37133517D01*
X46878040Y-37078188D01*
X46872061Y-37008574D01*
X46904667Y-36946780D01*
X46920702Y-36932884D01*
X47091821Y-36808559D01*
X47244359Y-36656021D01*
X47307718Y-36568815D01*
X47363048Y-36526149D01*
X47408036Y-36517700D01*
X51041795Y-36517700D01*
X51108834Y-36537385D01*
G37*
%TD.AperFunction*%
%TA.AperFunction,Conductor*%
G36*
X105071814Y-37953901D02*
G01*
X105071974Y-37953305D01*
X105079824Y-37955408D01*
X105079826Y-37955408D01*
X105079828Y-37955409D01*
X105189899Y-37969900D01*
X105388700Y-37969899D01*
X105430130Y-37964445D01*
X105499166Y-37975211D01*
X105551421Y-38021591D01*
X105570306Y-38088860D01*
X105569254Y-38103569D01*
X105563800Y-38144997D01*
X105563800Y-38343803D01*
X105578289Y-38453868D01*
X105580394Y-38461722D01*
X105577114Y-38462600D01*
X105582881Y-38516473D01*
X105579817Y-38526922D01*
X105580395Y-38527077D01*
X105578290Y-38534929D01*
X105563800Y-38644998D01*
X105563800Y-38843803D01*
X105578289Y-38953868D01*
X105580394Y-38961722D01*
X105577114Y-38962600D01*
X105582881Y-39016473D01*
X105579817Y-39026922D01*
X105580395Y-39027077D01*
X105578290Y-39034929D01*
X105563800Y-39144998D01*
X105563800Y-39343803D01*
X105578289Y-39453868D01*
X105580394Y-39461722D01*
X105577310Y-39462548D01*
X105583149Y-39517137D01*
X105580314Y-39527053D01*
X105580882Y-39527206D01*
X105578778Y-39535058D01*
X105567673Y-39619400D01*
X105595794Y-39619400D01*
X105662833Y-39639085D01*
X105694185Y-39667934D01*
X105694952Y-39668934D01*
X105720133Y-39734108D01*
X105706081Y-39802550D01*
X105694952Y-39819866D01*
X105694185Y-39820866D01*
X105637766Y-39862081D01*
X105595794Y-39869400D01*
X105567673Y-39869400D01*
X105569766Y-39885297D01*
X105559000Y-39954333D01*
X105512620Y-40006588D01*
X105445351Y-40025473D01*
X105430643Y-40024421D01*
X105388703Y-40018900D01*
X105189896Y-40018900D01*
X105079831Y-40033389D01*
X105071978Y-40035494D01*
X105071102Y-40032224D01*
X105017153Y-40037967D01*
X105006777Y-40034918D01*
X105006623Y-40035495D01*
X104998770Y-40033390D01*
X104888701Y-40018900D01*
X104689896Y-40018900D01*
X104579831Y-40033389D01*
X104571978Y-40035494D01*
X104571102Y-40032224D01*
X104517153Y-40037967D01*
X104506777Y-40034918D01*
X104506623Y-40035495D01*
X104498770Y-40033390D01*
X104388701Y-40018900D01*
X104189896Y-40018900D01*
X104079831Y-40033389D01*
X104071978Y-40035494D01*
X104071102Y-40032224D01*
X104017153Y-40037967D01*
X104006777Y-40034918D01*
X104006623Y-40035495D01*
X103998770Y-40033390D01*
X103888701Y-40018900D01*
X103689903Y-40018900D01*
X103648466Y-40024355D01*
X103579431Y-40013587D01*
X103527176Y-39967205D01*
X103508293Y-39899936D01*
X103509343Y-39885247D01*
X103514800Y-39843801D01*
X103514799Y-39645000D01*
X103514020Y-39639085D01*
X103505628Y-39575332D01*
X103500309Y-39534928D01*
X103500308Y-39534925D01*
X103498205Y-39527074D01*
X103501507Y-39526189D01*
X103495692Y-39472475D01*
X103498801Y-39461885D01*
X103498205Y-39461726D01*
X103500308Y-39453875D01*
X103500308Y-39453874D01*
X103500309Y-39453872D01*
X103514800Y-39343801D01*
X103514799Y-39145000D01*
X103500309Y-39034928D01*
X103500308Y-39034925D01*
X103498205Y-39027074D01*
X103501507Y-39026189D01*
X103495692Y-38972475D01*
X103498801Y-38961885D01*
X103498205Y-38961726D01*
X103500308Y-38953875D01*
X103500308Y-38953874D01*
X103500309Y-38953872D01*
X103514800Y-38843801D01*
X103514799Y-38645000D01*
X103513080Y-38631945D01*
X103502517Y-38551703D01*
X103500309Y-38534928D01*
X103500308Y-38534925D01*
X103498205Y-38527074D01*
X103501507Y-38526189D01*
X103495692Y-38472475D01*
X103498801Y-38461885D01*
X103498205Y-38461726D01*
X103500308Y-38453875D01*
X103500308Y-38453874D01*
X103500309Y-38453872D01*
X103514800Y-38343801D01*
X103514799Y-38145000D01*
X103513356Y-38134041D01*
X103509345Y-38103568D01*
X103520111Y-38034533D01*
X103566492Y-37982278D01*
X103633761Y-37963393D01*
X103648455Y-37964443D01*
X103689899Y-37969900D01*
X103888700Y-37969899D01*
X103888701Y-37969899D01*
X103905387Y-37967702D01*
X103998772Y-37955409D01*
X103998775Y-37955407D01*
X104006626Y-37953305D01*
X104007510Y-37956607D01*
X104061225Y-37950792D01*
X104071814Y-37953901D01*
X104071974Y-37953305D01*
X104079824Y-37955408D01*
X104079826Y-37955408D01*
X104079828Y-37955409D01*
X104189899Y-37969900D01*
X104388700Y-37969899D01*
X104388701Y-37969899D01*
X104405387Y-37967702D01*
X104498772Y-37955409D01*
X104498775Y-37955407D01*
X104506626Y-37953305D01*
X104507510Y-37956607D01*
X104561225Y-37950792D01*
X104571814Y-37953901D01*
X104571974Y-37953305D01*
X104579824Y-37955408D01*
X104579826Y-37955408D01*
X104579828Y-37955409D01*
X104689899Y-37969900D01*
X104888700Y-37969899D01*
X104888701Y-37969899D01*
X104905387Y-37967702D01*
X104998772Y-37955409D01*
X104998775Y-37955407D01*
X105006626Y-37953305D01*
X105007510Y-37956607D01*
X105061225Y-37950792D01*
X105071814Y-37953901D01*
G37*
%TD.AperFunction*%
%TA.AperFunction,Conductor*%
G36*
X53833868Y-33997385D02*
G01*
X53872367Y-34036602D01*
X53937288Y-34141856D01*
X54061344Y-34265912D01*
X54210666Y-34358014D01*
X54377203Y-34413199D01*
X54479991Y-34423700D01*
X55149312Y-34423699D01*
X55216351Y-34443383D01*
X55236993Y-34460018D01*
X56945594Y-36168619D01*
X56979079Y-36229942D01*
X56974095Y-36299634D01*
X56932223Y-36355567D01*
X56866759Y-36379984D01*
X56857913Y-36380300D01*
X55462400Y-36380300D01*
X55395361Y-36360615D01*
X55349606Y-36307811D01*
X55338400Y-36256300D01*
X55338400Y-36216400D01*
X54112400Y-36216400D01*
X54045361Y-36196715D01*
X53999606Y-36143911D01*
X53988400Y-36092400D01*
X53988400Y-35716400D01*
X54488400Y-35716400D01*
X55338399Y-35716400D01*
X55338399Y-35466428D01*
X55338398Y-35466413D01*
X55327905Y-35363702D01*
X55272758Y-35197280D01*
X55272756Y-35197275D01*
X55180715Y-35048054D01*
X55056745Y-34924084D01*
X54907524Y-34832043D01*
X54907519Y-34832041D01*
X54741097Y-34776894D01*
X54741090Y-34776893D01*
X54638386Y-34766400D01*
X54488400Y-34766400D01*
X54488400Y-35716400D01*
X53988400Y-35716400D01*
X53988400Y-34766400D01*
X53838427Y-34766400D01*
X53838412Y-34766401D01*
X53735702Y-34776894D01*
X53569280Y-34832041D01*
X53569275Y-34832043D01*
X53420057Y-34924082D01*
X53326434Y-35017705D01*
X53265110Y-35051189D01*
X53195419Y-35046205D01*
X53151072Y-35017704D01*
X53057057Y-34923689D01*
X53057056Y-34923688D01*
X52907734Y-34831586D01*
X52741197Y-34776401D01*
X52741195Y-34776400D01*
X52638410Y-34765900D01*
X51838398Y-34765900D01*
X51838380Y-34765901D01*
X51735603Y-34776400D01*
X51735600Y-34776401D01*
X51569068Y-34831585D01*
X51569063Y-34831587D01*
X51419742Y-34923689D01*
X51371051Y-34972381D01*
X51309728Y-35005866D01*
X51283370Y-35008700D01*
X47408036Y-35008700D01*
X47340997Y-34989015D01*
X47307718Y-34957585D01*
X47244361Y-34870382D01*
X47244359Y-34870379D01*
X47102375Y-34728395D01*
X47068890Y-34667072D01*
X47073874Y-34597380D01*
X47115746Y-34541447D01*
X47137657Y-34528329D01*
X47138322Y-34528017D01*
X47138334Y-34528014D01*
X47287656Y-34435912D01*
X47411712Y-34311856D01*
X47503814Y-34162534D01*
X47536897Y-34062695D01*
X47576670Y-34005251D01*
X47641186Y-33978428D01*
X47654603Y-33977700D01*
X53766829Y-33977700D01*
X53833868Y-33997385D01*
G37*
%TD.AperFunction*%
%TD*%
M02*
