%TF.GenerationSoftware,KiCad,Pcbnew,8.0.5*%
%TF.CreationDate,2024-11-05T12:58:27-06:00*%
%TF.ProjectId,golf_club_imu,676f6c66-5f63-46c7-9562-5f696d752e6b,rev?*%
%TF.SameCoordinates,Original*%
%TF.FileFunction,Legend,Top*%
%TF.FilePolarity,Positive*%
%FSLAX46Y46*%
G04 Gerber Fmt 4.6, Leading zero omitted, Abs format (unit mm)*
G04 Created by KiCad (PCBNEW 8.0.5) date 2024-11-05 12:58:27*
%MOMM*%
%LPD*%
G01*
G04 APERTURE LIST*
%ADD10C,0.150000*%
%ADD11C,0.120000*%
G04 APERTURE END LIST*
D10*
X149453695Y-45463619D02*
X149453695Y-44463619D01*
X149453695Y-44939809D02*
X150025123Y-44939809D01*
X150025123Y-45463619D02*
X150025123Y-44463619D01*
X151025123Y-45463619D02*
X150453695Y-45463619D01*
X150739409Y-45463619D02*
X150739409Y-44463619D01*
X150739409Y-44463619D02*
X150644171Y-44606476D01*
X150644171Y-44606476D02*
X150548933Y-44701714D01*
X150548933Y-44701714D02*
X150453695Y-44749333D01*
X144322895Y-65952419D02*
X144322895Y-64952419D01*
X144322895Y-65428609D02*
X144894323Y-65428609D01*
X144894323Y-65952419D02*
X144894323Y-64952419D01*
X145322895Y-65047657D02*
X145370514Y-65000038D01*
X145370514Y-65000038D02*
X145465752Y-64952419D01*
X145465752Y-64952419D02*
X145703847Y-64952419D01*
X145703847Y-64952419D02*
X145799085Y-65000038D01*
X145799085Y-65000038D02*
X145846704Y-65047657D01*
X145846704Y-65047657D02*
X145894323Y-65142895D01*
X145894323Y-65142895D02*
X145894323Y-65238133D01*
X145894323Y-65238133D02*
X145846704Y-65380990D01*
X145846704Y-65380990D02*
X145275276Y-65952419D01*
X145275276Y-65952419D02*
X145894323Y-65952419D01*
X147242495Y-61121619D02*
X147242495Y-61931142D01*
X147242495Y-61931142D02*
X147290114Y-62026380D01*
X147290114Y-62026380D02*
X147337733Y-62074000D01*
X147337733Y-62074000D02*
X147432971Y-62121619D01*
X147432971Y-62121619D02*
X147623447Y-62121619D01*
X147623447Y-62121619D02*
X147718685Y-62074000D01*
X147718685Y-62074000D02*
X147766304Y-62026380D01*
X147766304Y-62026380D02*
X147813923Y-61931142D01*
X147813923Y-61931142D02*
X147813923Y-61121619D01*
X148813923Y-62121619D02*
X148242495Y-62121619D01*
X148528209Y-62121619D02*
X148528209Y-61121619D01*
X148528209Y-61121619D02*
X148432971Y-61264476D01*
X148432971Y-61264476D02*
X148337733Y-61359714D01*
X148337733Y-61359714D02*
X148242495Y-61407333D01*
X136228419Y-60626284D02*
X135228419Y-60626284D01*
X136228419Y-60150094D02*
X135228419Y-60150094D01*
X135228419Y-60150094D02*
X135942704Y-59816761D01*
X135942704Y-59816761D02*
X135228419Y-59483428D01*
X135228419Y-59483428D02*
X136228419Y-59483428D01*
X135228419Y-59007237D02*
X136037942Y-59007237D01*
X136037942Y-59007237D02*
X136133180Y-58959618D01*
X136133180Y-58959618D02*
X136180800Y-58911999D01*
X136180800Y-58911999D02*
X136228419Y-58816761D01*
X136228419Y-58816761D02*
X136228419Y-58626285D01*
X136228419Y-58626285D02*
X136180800Y-58531047D01*
X136180800Y-58531047D02*
X136133180Y-58483428D01*
X136133180Y-58483428D02*
X136037942Y-58435809D01*
X136037942Y-58435809D02*
X135228419Y-58435809D01*
X136323657Y-58197714D02*
X136323657Y-57435809D01*
X136228419Y-57197713D02*
X135228419Y-57197713D01*
X135228419Y-56531047D02*
X135228419Y-56340571D01*
X135228419Y-56340571D02*
X135276038Y-56245333D01*
X135276038Y-56245333D02*
X135371276Y-56150095D01*
X135371276Y-56150095D02*
X135561752Y-56102476D01*
X135561752Y-56102476D02*
X135895085Y-56102476D01*
X135895085Y-56102476D02*
X136085561Y-56150095D01*
X136085561Y-56150095D02*
X136180800Y-56245333D01*
X136180800Y-56245333D02*
X136228419Y-56340571D01*
X136228419Y-56340571D02*
X136228419Y-56531047D01*
X136228419Y-56531047D02*
X136180800Y-56626285D01*
X136180800Y-56626285D02*
X136085561Y-56721523D01*
X136085561Y-56721523D02*
X135895085Y-56769142D01*
X135895085Y-56769142D02*
X135561752Y-56769142D01*
X135561752Y-56769142D02*
X135371276Y-56721523D01*
X135371276Y-56721523D02*
X135276038Y-56626285D01*
X135276038Y-56626285D02*
X135228419Y-56531047D01*
X136228419Y-55150095D02*
X136228419Y-55721523D01*
X136228419Y-55435809D02*
X135228419Y-55435809D01*
X135228419Y-55435809D02*
X135371276Y-55531047D01*
X135371276Y-55531047D02*
X135466514Y-55626285D01*
X135466514Y-55626285D02*
X135514133Y-55721523D01*
X148251942Y-52476780D02*
X148204323Y-52524400D01*
X148204323Y-52524400D02*
X148061466Y-52572019D01*
X148061466Y-52572019D02*
X147966228Y-52572019D01*
X147966228Y-52572019D02*
X147823371Y-52524400D01*
X147823371Y-52524400D02*
X147728133Y-52429161D01*
X147728133Y-52429161D02*
X147680514Y-52333923D01*
X147680514Y-52333923D02*
X147632895Y-52143447D01*
X147632895Y-52143447D02*
X147632895Y-52000590D01*
X147632895Y-52000590D02*
X147680514Y-51810114D01*
X147680514Y-51810114D02*
X147728133Y-51714876D01*
X147728133Y-51714876D02*
X147823371Y-51619638D01*
X147823371Y-51619638D02*
X147966228Y-51572019D01*
X147966228Y-51572019D02*
X148061466Y-51572019D01*
X148061466Y-51572019D02*
X148204323Y-51619638D01*
X148204323Y-51619638D02*
X148251942Y-51667257D01*
X149204323Y-52572019D02*
X148632895Y-52572019D01*
X148918609Y-52572019D02*
X148918609Y-51572019D01*
X148918609Y-51572019D02*
X148823371Y-51714876D01*
X148823371Y-51714876D02*
X148728133Y-51810114D01*
X148728133Y-51810114D02*
X148632895Y-51857733D01*
X150156704Y-52572019D02*
X149585276Y-52572019D01*
X149870990Y-52572019D02*
X149870990Y-51572019D01*
X149870990Y-51572019D02*
X149775752Y-51714876D01*
X149775752Y-51714876D02*
X149680514Y-51810114D01*
X149680514Y-51810114D02*
X149585276Y-51857733D01*
X139903580Y-53250157D02*
X139951200Y-53297776D01*
X139951200Y-53297776D02*
X139998819Y-53440633D01*
X139998819Y-53440633D02*
X139998819Y-53535871D01*
X139998819Y-53535871D02*
X139951200Y-53678728D01*
X139951200Y-53678728D02*
X139855961Y-53773966D01*
X139855961Y-53773966D02*
X139760723Y-53821585D01*
X139760723Y-53821585D02*
X139570247Y-53869204D01*
X139570247Y-53869204D02*
X139427390Y-53869204D01*
X139427390Y-53869204D02*
X139236914Y-53821585D01*
X139236914Y-53821585D02*
X139141676Y-53773966D01*
X139141676Y-53773966D02*
X139046438Y-53678728D01*
X139046438Y-53678728D02*
X138998819Y-53535871D01*
X138998819Y-53535871D02*
X138998819Y-53440633D01*
X138998819Y-53440633D02*
X139046438Y-53297776D01*
X139046438Y-53297776D02*
X139094057Y-53250157D01*
X139998819Y-52297776D02*
X139998819Y-52869204D01*
X139998819Y-52583490D02*
X138998819Y-52583490D01*
X138998819Y-52583490D02*
X139141676Y-52678728D01*
X139141676Y-52678728D02*
X139236914Y-52773966D01*
X139236914Y-52773966D02*
X139284533Y-52869204D01*
X138998819Y-51678728D02*
X138998819Y-51583490D01*
X138998819Y-51583490D02*
X139046438Y-51488252D01*
X139046438Y-51488252D02*
X139094057Y-51440633D01*
X139094057Y-51440633D02*
X139189295Y-51393014D01*
X139189295Y-51393014D02*
X139379771Y-51345395D01*
X139379771Y-51345395D02*
X139617866Y-51345395D01*
X139617866Y-51345395D02*
X139808342Y-51393014D01*
X139808342Y-51393014D02*
X139903580Y-51440633D01*
X139903580Y-51440633D02*
X139951200Y-51488252D01*
X139951200Y-51488252D02*
X139998819Y-51583490D01*
X139998819Y-51583490D02*
X139998819Y-51678728D01*
X139998819Y-51678728D02*
X139951200Y-51773966D01*
X139951200Y-51773966D02*
X139903580Y-51821585D01*
X139903580Y-51821585D02*
X139808342Y-51869204D01*
X139808342Y-51869204D02*
X139617866Y-51916823D01*
X139617866Y-51916823D02*
X139379771Y-51916823D01*
X139379771Y-51916823D02*
X139189295Y-51869204D01*
X139189295Y-51869204D02*
X139094057Y-51821585D01*
X139094057Y-51821585D02*
X139046438Y-51773966D01*
X139046438Y-51773966D02*
X138998819Y-51678728D01*
X154925733Y-62440780D02*
X154878114Y-62488400D01*
X154878114Y-62488400D02*
X154735257Y-62536019D01*
X154735257Y-62536019D02*
X154640019Y-62536019D01*
X154640019Y-62536019D02*
X154497162Y-62488400D01*
X154497162Y-62488400D02*
X154401924Y-62393161D01*
X154401924Y-62393161D02*
X154354305Y-62297923D01*
X154354305Y-62297923D02*
X154306686Y-62107447D01*
X154306686Y-62107447D02*
X154306686Y-61964590D01*
X154306686Y-61964590D02*
X154354305Y-61774114D01*
X154354305Y-61774114D02*
X154401924Y-61678876D01*
X154401924Y-61678876D02*
X154497162Y-61583638D01*
X154497162Y-61583638D02*
X154640019Y-61536019D01*
X154640019Y-61536019D02*
X154735257Y-61536019D01*
X154735257Y-61536019D02*
X154878114Y-61583638D01*
X154878114Y-61583638D02*
X154925733Y-61631257D01*
X155401924Y-62536019D02*
X155592400Y-62536019D01*
X155592400Y-62536019D02*
X155687638Y-62488400D01*
X155687638Y-62488400D02*
X155735257Y-62440780D01*
X155735257Y-62440780D02*
X155830495Y-62297923D01*
X155830495Y-62297923D02*
X155878114Y-62107447D01*
X155878114Y-62107447D02*
X155878114Y-61726495D01*
X155878114Y-61726495D02*
X155830495Y-61631257D01*
X155830495Y-61631257D02*
X155782876Y-61583638D01*
X155782876Y-61583638D02*
X155687638Y-61536019D01*
X155687638Y-61536019D02*
X155497162Y-61536019D01*
X155497162Y-61536019D02*
X155401924Y-61583638D01*
X155401924Y-61583638D02*
X155354305Y-61631257D01*
X155354305Y-61631257D02*
X155306686Y-61726495D01*
X155306686Y-61726495D02*
X155306686Y-61964590D01*
X155306686Y-61964590D02*
X155354305Y-62059828D01*
X155354305Y-62059828D02*
X155401924Y-62107447D01*
X155401924Y-62107447D02*
X155497162Y-62155066D01*
X155497162Y-62155066D02*
X155687638Y-62155066D01*
X155687638Y-62155066D02*
X155782876Y-62107447D01*
X155782876Y-62107447D02*
X155830495Y-62059828D01*
X155830495Y-62059828D02*
X155878114Y-61964590D01*
D11*
%TO.C,U1*%
X149844400Y-60346800D02*
X149364400Y-60346800D01*
X149604400Y-60016800D01*
X149844400Y-60346800D01*
G36*
X149844400Y-60346800D02*
G01*
X149364400Y-60346800D01*
X149604400Y-60016800D01*
X149844400Y-60346800D01*
G37*
X146404400Y-56816800D02*
X146404400Y-57066800D01*
X146404400Y-56816800D02*
X146654400Y-56816800D01*
X146404400Y-60016800D02*
X146404400Y-59766800D01*
X146404400Y-60016800D02*
X146654400Y-60016800D01*
X149604400Y-56816800D02*
X149354400Y-56816800D01*
X149604400Y-56816800D02*
X149604400Y-57066800D01*
%TO.C,IMU_IO1*%
X133653600Y-51162000D02*
X129653600Y-51162000D01*
X134683600Y-51452000D02*
X128663600Y-51452000D01*
X128663600Y-51452000D02*
X128663600Y-64372000D01*
X134683600Y-52032000D02*
X134083600Y-52032000D01*
X134083600Y-52032000D02*
X134083600Y-53632000D01*
X129663600Y-52832000D02*
X130193600Y-53082000D01*
X129663600Y-52832000D02*
X129663600Y-62992000D01*
X128663600Y-52832000D02*
X129663600Y-52832000D01*
X130193600Y-53082000D02*
X130193600Y-62742000D01*
X128663600Y-53082000D02*
X129663600Y-53082000D01*
X134083600Y-53632000D02*
X134683600Y-53632000D01*
X134683600Y-54572000D02*
X134083600Y-54572000D01*
X134083600Y-54572000D02*
X134083600Y-56172000D01*
X134083600Y-56172000D02*
X134683600Y-56172000D01*
X134683600Y-57112000D02*
X134083600Y-57112000D01*
X134083600Y-57112000D02*
X134083600Y-58712000D01*
X134083600Y-58712000D02*
X134683600Y-58712000D01*
X134683600Y-59652000D02*
X134083600Y-59652000D01*
X134083600Y-59652000D02*
X134083600Y-61252000D01*
X134083600Y-61252000D02*
X134683600Y-61252000D01*
X134683600Y-62192000D02*
X134083600Y-62192000D01*
X134083600Y-62192000D02*
X134083600Y-63792000D01*
X130193600Y-62742000D02*
X129663600Y-62992000D01*
X128663600Y-62742000D02*
X129663600Y-62742000D01*
X129663600Y-62992000D02*
X128663600Y-62992000D01*
X134083600Y-63792000D02*
X134683600Y-63792000D01*
X134683600Y-64372000D02*
X134683600Y-51452000D01*
X128663600Y-64372000D02*
X134683600Y-64372000D01*
%TO.C,C11*%
X148633548Y-53062200D02*
X149156052Y-53062200D01*
X148633548Y-54532200D02*
X149156052Y-54532200D01*
%TO.C,C10*%
X141959000Y-52868552D02*
X141959000Y-52346048D01*
X140489000Y-52868552D02*
X140489000Y-52346048D01*
%TO.C,C9*%
X155353652Y-59666200D02*
X154831148Y-59666200D01*
X155353652Y-61136200D02*
X154831148Y-61136200D01*
%TD*%
M02*
