%TF.GenerationSoftware,KiCad,Pcbnew,8.0.5*%
%TF.CreationDate,2024-11-05T12:58:27-06:00*%
%TF.ProjectId,golf_club_imu,676f6c66-5f63-46c7-9562-5f696d752e6b,rev?*%
%TF.SameCoordinates,Original*%
%TF.FileFunction,Copper,L1,Top*%
%TF.FilePolarity,Positive*%
%FSLAX46Y46*%
G04 Gerber Fmt 4.6, Leading zero omitted, Abs format (unit mm)*
G04 Created by KiCad (PCBNEW 8.0.5) date 2024-11-05 12:58:27*
%MOMM*%
%LPD*%
G01*
G04 APERTURE LIST*
G04 Aperture macros list*
%AMRoundRect*
0 Rectangle with rounded corners*
0 $1 Rounding radius*
0 $2 $3 $4 $5 $6 $7 $8 $9 X,Y pos of 4 corners*
0 Add a 4 corners polygon primitive as box body*
4,1,4,$2,$3,$4,$5,$6,$7,$8,$9,$2,$3,0*
0 Add four circle primitives for the rounded corners*
1,1,$1+$1,$2,$3*
1,1,$1+$1,$4,$5*
1,1,$1+$1,$6,$7*
1,1,$1+$1,$8,$9*
0 Add four rect primitives between the rounded corners*
20,1,$1+$1,$2,$3,$4,$5,0*
20,1,$1+$1,$4,$5,$6,$7,0*
20,1,$1+$1,$6,$7,$8,$9,0*
20,1,$1+$1,$8,$9,$2,$3,0*%
G04 Aperture macros list end*
%TA.AperFunction,SMDPad,CuDef*%
%ADD10RoundRect,0.050000X-0.050000X0.225000X-0.050000X-0.225000X0.050000X-0.225000X0.050000X0.225000X0*%
%TD*%
%TA.AperFunction,SMDPad,CuDef*%
%ADD11RoundRect,0.050000X0.225000X0.050000X-0.225000X0.050000X-0.225000X-0.050000X0.225000X-0.050000X0*%
%TD*%
%TA.AperFunction,ComponentPad*%
%ADD12RoundRect,0.250000X-0.845000X0.620000X-0.845000X-0.620000X0.845000X-0.620000X0.845000X0.620000X0*%
%TD*%
%TA.AperFunction,ComponentPad*%
%ADD13O,2.190000X1.740000*%
%TD*%
%TA.AperFunction,SMDPad,CuDef*%
%ADD14RoundRect,0.250000X-0.337500X-0.475000X0.337500X-0.475000X0.337500X0.475000X-0.337500X0.475000X0*%
%TD*%
%TA.AperFunction,SMDPad,CuDef*%
%ADD15RoundRect,0.250000X0.475000X-0.337500X0.475000X0.337500X-0.475000X0.337500X-0.475000X-0.337500X0*%
%TD*%
%TA.AperFunction,SMDPad,CuDef*%
%ADD16RoundRect,0.250000X0.337500X0.475000X-0.337500X0.475000X-0.337500X-0.475000X0.337500X-0.475000X0*%
%TD*%
%TA.AperFunction,ViaPad*%
%ADD17C,0.600000*%
%TD*%
%TA.AperFunction,Conductor*%
%ADD18C,0.152400*%
%TD*%
G04 APERTURE END LIST*
D10*
%TO.P,U1,24,SDA/SDI*%
%TO.N,/SDA*%
X149004400Y-59916800D03*
%TO.P,U1,23,SCL/SCLK*%
%TO.N,/SCL*%
X148604400Y-59916800D03*
%TO.P,U1,22,~{CS}*%
%TO.N,unconnected-(U1-~{CS}-Pad22)*%
X148204400Y-59916800D03*
%TO.P,U1,21,AUX_DA*%
%TO.N,unconnected-(U1-AUX_DA-Pad21)*%
X147804400Y-59916800D03*
%TO.P,U1,20,GND*%
%TO.N,GND*%
X147404400Y-59916800D03*
%TO.P,U1,19,RESV*%
%TO.N,unconnected-(U1-RESV-Pad19)*%
X147004400Y-59916800D03*
D11*
%TO.P,U1,18,GND*%
%TO.N,GND*%
X146504400Y-59416800D03*
%TO.P,U1,17,NC*%
%TO.N,unconnected-(U1-NC-Pad17)*%
X146504400Y-59016800D03*
%TO.P,U1,16,NC*%
%TO.N,unconnected-(U1-NC-Pad16)*%
X146504400Y-58616800D03*
%TO.P,U1,15,NC*%
%TO.N,unconnected-(U1-NC-Pad15)*%
X146504400Y-58216800D03*
%TO.P,U1,14,NC*%
%TO.N,unconnected-(U1-NC-Pad14)*%
X146504400Y-57816800D03*
%TO.P,U1,13,VDD*%
%TO.N,/3V3*%
X146504400Y-57416800D03*
D10*
%TO.P,U1,12,INT1*%
%TO.N,unconnected-(U1-INT1-Pad12)*%
X147004400Y-56916800D03*
%TO.P,U1,11,FSYNC*%
%TO.N,unconnected-(U1-FSYNC-Pad11)*%
X147404400Y-56916800D03*
%TO.P,U1,10,REGOUT*%
%TO.N,Net-(U1-REGOUT)*%
X147804400Y-56916800D03*
%TO.P,U1,9,SDO/AD0*%
%TO.N,unconnected-(U1-SDO{slash}AD0-Pad9)*%
X148204400Y-56916800D03*
%TO.P,U1,8,VDDIO*%
%TO.N,/1V8*%
X148604400Y-56916800D03*
%TO.P,U1,7,AUX_CL*%
%TO.N,unconnected-(U1-AUX_CL-Pad7)*%
X149004400Y-56916800D03*
D11*
%TO.P,U1,6,NC*%
%TO.N,unconnected-(U1-NC-Pad6)*%
X149504400Y-57416800D03*
%TO.P,U1,5,NC*%
%TO.N,unconnected-(U1-NC-Pad5)*%
X149504400Y-57816800D03*
%TO.P,U1,4,NC*%
%TO.N,unconnected-(U1-NC-Pad4)*%
X149504400Y-58216800D03*
%TO.P,U1,3,NC*%
%TO.N,unconnected-(U1-NC-Pad3)*%
X149504400Y-58616800D03*
%TO.P,U1,2,NC*%
%TO.N,unconnected-(U1-NC-Pad2)*%
X149504400Y-59016800D03*
%TO.P,U1,1,NC*%
%TO.N,unconnected-(U1-NC-Pad1)*%
X149504400Y-59416800D03*
%TD*%
D12*
%TO.P,IMU_IO1,1,Pin_1*%
%TO.N,/3V3*%
X131653600Y-52832000D03*
D13*
%TO.P,IMU_IO1,2,Pin_2*%
%TO.N,/SDA*%
X131653600Y-55372000D03*
%TO.P,IMU_IO1,3,Pin_3*%
%TO.N,/SCL*%
X131653600Y-57912000D03*
%TO.P,IMU_IO1,4,Pin_4*%
%TO.N,GND*%
X131653600Y-60452000D03*
%TO.P,IMU_IO1,5,Pin_5*%
%TO.N,/1V8*%
X131653600Y-62992000D03*
%TD*%
D14*
%TO.P,C11,1*%
%TO.N,Net-(U1-REGOUT)*%
X147857300Y-53797200D03*
%TO.P,C11,2*%
%TO.N,GND*%
X149932300Y-53797200D03*
%TD*%
D15*
%TO.P,C10,2*%
%TO.N,GND*%
X141224000Y-51569800D03*
%TO.P,C10,1*%
%TO.N,/3V3*%
X141224000Y-53644800D03*
%TD*%
D16*
%TO.P,C9,2*%
%TO.N,/1V8*%
X154054900Y-60401200D03*
%TO.P,C9,1*%
%TO.N,GND*%
X156129900Y-60401200D03*
%TD*%
D17*
%TO.N,GND*%
X133959600Y-56692800D03*
X135432800Y-51460400D03*
X133959600Y-61569600D03*
X144780000Y-59436000D03*
%TO.N,/SDA*%
X148336000Y-61976000D03*
X139852400Y-57759600D03*
%TD*%
D18*
%TO.N,GND*%
X147190904Y-60468000D02*
X145812000Y-60468000D01*
X145812000Y-60468000D02*
X144780000Y-59436000D01*
X147404400Y-60254504D02*
X147190904Y-60468000D01*
X147404400Y-59916800D02*
X147404400Y-60254504D01*
X144799200Y-59416800D02*
X144780000Y-59436000D01*
X146504400Y-59416800D02*
X144799200Y-59416800D01*
%TO.N,Net-(U1-REGOUT)*%
X147804400Y-53850100D02*
X147804400Y-56916800D01*
X147857300Y-53797200D02*
X147804400Y-53850100D01*
%TO.N,/SCL*%
X148604400Y-60254504D02*
X148604400Y-59916800D01*
X147441704Y-61417200D02*
X148604400Y-60254504D01*
X140716000Y-61417200D02*
X147441704Y-61417200D01*
X137210800Y-57912000D02*
X140716000Y-61417200D01*
X131653600Y-57912000D02*
X137210800Y-57912000D01*
%TO.N,/SDA*%
X149004400Y-61307600D02*
X148336000Y-61976000D01*
X149004400Y-59916800D02*
X149004400Y-61307600D01*
X137464800Y-55372000D02*
X139852400Y-57759600D01*
X131653600Y-55372000D02*
X137464800Y-55372000D01*
%TO.N,/1V8*%
X148604400Y-56579096D02*
X148604400Y-56916800D01*
X149659096Y-55524400D02*
X148604400Y-56579096D01*
X153416000Y-55524400D02*
X149659096Y-55524400D01*
X154054900Y-56163300D02*
X153416000Y-55524400D01*
X154054900Y-60401200D02*
X154054900Y-56163300D01*
X151464100Y-62992000D02*
X154054900Y-60401200D01*
X131653600Y-62992000D02*
X151464100Y-62992000D01*
%TO.N,/3V3*%
X141173200Y-53644800D02*
X140360400Y-52832000D01*
X140360400Y-52832000D02*
X131653600Y-52832000D01*
X141224000Y-53644800D02*
X141173200Y-53644800D01*
X144996000Y-57416800D02*
X141224000Y-53644800D01*
X146504400Y-57416800D02*
X144996000Y-57416800D01*
%TD*%
%TA.AperFunction,Conductor*%
%TO.N,GND*%
G36*
X136987600Y-58508385D02*
G01*
X137008242Y-58525019D01*
X140361898Y-61878675D01*
X140493402Y-61954599D01*
X140640076Y-61993900D01*
X140640078Y-61993900D01*
X147421638Y-61993900D01*
X147488677Y-62013585D01*
X147534432Y-62066389D01*
X147544858Y-62104016D01*
X147550630Y-62155249D01*
X147550631Y-62155254D01*
X147550632Y-62155255D01*
X147583905Y-62250345D01*
X147583906Y-62250346D01*
X147587467Y-62320125D01*
X147552738Y-62380752D01*
X147490745Y-62412979D01*
X147466864Y-62415300D01*
X133198893Y-62415300D01*
X133131854Y-62395615D01*
X133088408Y-62347595D01*
X133050756Y-62273700D01*
X133050722Y-62273653D01*
X132923959Y-62099179D01*
X132771421Y-61946641D01*
X132599879Y-61822008D01*
X132557214Y-61766678D01*
X132551235Y-61697064D01*
X132583841Y-61635269D01*
X132599880Y-61621372D01*
X132771091Y-61496979D01*
X132771097Y-61496974D01*
X132923574Y-61344497D01*
X132923574Y-61344496D01*
X133050328Y-61170036D01*
X133148227Y-60977901D01*
X133214866Y-60772809D01*
X133226081Y-60702000D01*
X132196309Y-60702000D01*
X132208052Y-60681661D01*
X132248600Y-60530333D01*
X132248600Y-60373667D01*
X132208052Y-60222339D01*
X132196309Y-60202000D01*
X133226081Y-60202000D01*
X133214866Y-60131190D01*
X133148227Y-59926098D01*
X133050328Y-59733963D01*
X132923574Y-59559503D01*
X132923574Y-59559502D01*
X132771097Y-59407025D01*
X132599879Y-59282627D01*
X132557214Y-59227297D01*
X132551235Y-59157683D01*
X132583841Y-59095888D01*
X132599880Y-59081991D01*
X132771421Y-58957359D01*
X132923959Y-58804821D01*
X133050757Y-58630299D01*
X133088408Y-58556405D01*
X133136383Y-58505609D01*
X133198893Y-58488700D01*
X136920561Y-58488700D01*
X136987600Y-58508385D01*
G37*
%TD.AperFunction*%
%TA.AperFunction,Conductor*%
G36*
X139941539Y-53428385D02*
G01*
X139987294Y-53481189D01*
X139998500Y-53532700D01*
X139998500Y-54032301D01*
X139998501Y-54032319D01*
X140009000Y-54135096D01*
X140009001Y-54135099D01*
X140064185Y-54301631D01*
X140064187Y-54301636D01*
X140076854Y-54322173D01*
X140156288Y-54450956D01*
X140280344Y-54575012D01*
X140429666Y-54667114D01*
X140596203Y-54722299D01*
X140698991Y-54732800D01*
X141445060Y-54732799D01*
X141512099Y-54752483D01*
X141532741Y-54769118D01*
X144534525Y-57770902D01*
X144641898Y-57878275D01*
X144773402Y-57954199D01*
X144920076Y-57993500D01*
X145605049Y-57993500D01*
X145672088Y-58013185D01*
X145717843Y-58065989D01*
X145727913Y-58119992D01*
X145728900Y-58119992D01*
X145728900Y-58123697D01*
X145728900Y-58123698D01*
X145728900Y-58309902D01*
X145734622Y-58357554D01*
X145739961Y-58402017D01*
X145739961Y-58431583D01*
X145739180Y-58438089D01*
X145728900Y-58523698D01*
X145728900Y-58709902D01*
X145734622Y-58757554D01*
X145739961Y-58802017D01*
X145739961Y-58831583D01*
X145734118Y-58880240D01*
X145728900Y-58923698D01*
X145728900Y-59109902D01*
X145734638Y-59157683D01*
X145740214Y-59204121D01*
X145740214Y-59233687D01*
X145729400Y-59323745D01*
X145729400Y-59509853D01*
X145740013Y-59598243D01*
X145795479Y-59738895D01*
X145886835Y-59859364D01*
X146007304Y-59950720D01*
X146147956Y-60006186D01*
X146236346Y-60016800D01*
X146279900Y-60016800D01*
X146346939Y-60036485D01*
X146392694Y-60089289D01*
X146403900Y-60140800D01*
X146403900Y-60184902D01*
X146408396Y-60222339D01*
X146414522Y-60273361D01*
X146470039Y-60414143D01*
X146561477Y-60534722D01*
X146670895Y-60617696D01*
X146712419Y-60673889D01*
X146716970Y-60743610D01*
X146683105Y-60804724D01*
X146621575Y-60837828D01*
X146595970Y-60840500D01*
X141006239Y-60840500D01*
X140939200Y-60820815D01*
X140918558Y-60804181D01*
X137564904Y-57450527D01*
X137564898Y-57450522D01*
X137433400Y-57374602D01*
X137433399Y-57374601D01*
X137433398Y-57374601D01*
X137286724Y-57335300D01*
X137286723Y-57335300D01*
X133198893Y-57335300D01*
X133131854Y-57315615D01*
X133088408Y-57267595D01*
X133050756Y-57193700D01*
X133004318Y-57129784D01*
X132923959Y-57019179D01*
X132771421Y-56866641D01*
X132600304Y-56742317D01*
X132557640Y-56686988D01*
X132551661Y-56617374D01*
X132584267Y-56555580D01*
X132600302Y-56541684D01*
X132771421Y-56417359D01*
X132923959Y-56264821D01*
X133050757Y-56090299D01*
X133088408Y-56016405D01*
X133136383Y-55965609D01*
X133198893Y-55948700D01*
X137174561Y-55948700D01*
X137241600Y-55968385D01*
X137262242Y-55985019D01*
X139017424Y-57740201D01*
X139050909Y-57801524D01*
X139052963Y-57813998D01*
X139067030Y-57938849D01*
X139126610Y-58109121D01*
X139204400Y-58232922D01*
X139222584Y-58261862D01*
X139350138Y-58389416D01*
X139502878Y-58485389D01*
X139568597Y-58508385D01*
X139673145Y-58544968D01*
X139673150Y-58544969D01*
X139852396Y-58565165D01*
X139852400Y-58565165D01*
X139852404Y-58565165D01*
X140031649Y-58544969D01*
X140031652Y-58544968D01*
X140031655Y-58544968D01*
X140201922Y-58485389D01*
X140354662Y-58389416D01*
X140482216Y-58261862D01*
X140578189Y-58109122D01*
X140637768Y-57938855D01*
X140637769Y-57938849D01*
X140657965Y-57759603D01*
X140657965Y-57759596D01*
X140637769Y-57580350D01*
X140637768Y-57580345D01*
X140613119Y-57509902D01*
X140578189Y-57410078D01*
X140482216Y-57257338D01*
X140354662Y-57129784D01*
X140298438Y-57094456D01*
X140201921Y-57033810D01*
X140031649Y-56974230D01*
X139906798Y-56960163D01*
X139842384Y-56933096D01*
X139833001Y-56924624D01*
X137818904Y-54910527D01*
X137818898Y-54910522D01*
X137687400Y-54834602D01*
X137687399Y-54834601D01*
X137687398Y-54834601D01*
X137540724Y-54795300D01*
X137540723Y-54795300D01*
X133198893Y-54795300D01*
X133131854Y-54775615D01*
X133088408Y-54727595D01*
X133074727Y-54700745D01*
X133050757Y-54653701D01*
X132923959Y-54479179D01*
X132781975Y-54337195D01*
X132748490Y-54275872D01*
X132753474Y-54206180D01*
X132795346Y-54150247D01*
X132817257Y-54137129D01*
X132817922Y-54136817D01*
X132817934Y-54136814D01*
X132967256Y-54044712D01*
X133091312Y-53920656D01*
X133183414Y-53771334D01*
X133238599Y-53604797D01*
X133247252Y-53520098D01*
X133273648Y-53455406D01*
X133330829Y-53415254D01*
X133370610Y-53408700D01*
X139874500Y-53408700D01*
X139941539Y-53428385D01*
G37*
%TD.AperFunction*%
%TA.AperFunction,Conductor*%
G36*
X140500875Y-50311685D02*
G01*
X140546630Y-50364489D01*
X140556574Y-50433647D01*
X140527549Y-50497203D01*
X140472840Y-50533706D01*
X140429880Y-50547941D01*
X140429875Y-50547943D01*
X140280654Y-50639984D01*
X140156684Y-50763954D01*
X140064643Y-50913175D01*
X140064641Y-50913180D01*
X140009494Y-51079602D01*
X140009493Y-51079609D01*
X139999000Y-51182313D01*
X139999000Y-51319800D01*
X142448999Y-51319800D01*
X142448999Y-51182328D01*
X142448998Y-51182313D01*
X142438505Y-51079602D01*
X142383358Y-50913180D01*
X142383356Y-50913175D01*
X142291315Y-50763954D01*
X142167345Y-50639984D01*
X142018124Y-50547943D01*
X142018119Y-50547941D01*
X141975159Y-50533706D01*
X141917714Y-50493934D01*
X141890891Y-50429418D01*
X141903206Y-50360642D01*
X141950749Y-50309442D01*
X142014163Y-50292000D01*
X162138700Y-50292000D01*
X162205739Y-50311685D01*
X162251494Y-50364489D01*
X162262700Y-50416000D01*
X162262700Y-65916000D01*
X162243015Y-65983039D01*
X162190211Y-66028794D01*
X162138700Y-66040000D01*
X127370500Y-66040000D01*
X127303461Y-66020315D01*
X127257706Y-65967511D01*
X127246500Y-65916000D01*
X127246500Y-52161983D01*
X130058100Y-52161983D01*
X130058100Y-53502001D01*
X130058101Y-53502018D01*
X130068600Y-53604796D01*
X130068601Y-53604799D01*
X130123785Y-53771331D01*
X130123786Y-53771334D01*
X130215888Y-53920656D01*
X130339944Y-54044712D01*
X130489266Y-54136814D01*
X130489268Y-54136814D01*
X130489269Y-54136815D01*
X130489948Y-54137132D01*
X130490335Y-54137473D01*
X130495413Y-54140605D01*
X130494877Y-54141472D01*
X130542387Y-54183304D01*
X130561539Y-54250498D01*
X130541323Y-54317379D01*
X130525225Y-54337195D01*
X130383240Y-54479180D01*
X130256443Y-54653700D01*
X130158509Y-54845908D01*
X130158508Y-54845910D01*
X130158508Y-54845911D01*
X130152335Y-54864910D01*
X130091845Y-55051077D01*
X130058100Y-55264133D01*
X130058100Y-55479866D01*
X130091845Y-55692922D01*
X130091846Y-55692926D01*
X130158508Y-55898089D01*
X130256443Y-56090299D01*
X130383241Y-56264821D01*
X130535779Y-56417359D01*
X130587355Y-56454831D01*
X130706894Y-56541682D01*
X130749559Y-56597012D01*
X130755538Y-56666626D01*
X130722932Y-56728421D01*
X130706894Y-56742318D01*
X130683467Y-56759339D01*
X130535779Y-56866641D01*
X130535777Y-56866643D01*
X130535776Y-56866643D01*
X130383243Y-57019176D01*
X130383243Y-57019177D01*
X130383241Y-57019179D01*
X130328786Y-57094129D01*
X130256443Y-57193700D01*
X130158509Y-57385908D01*
X130091845Y-57591077D01*
X130058100Y-57804133D01*
X130058100Y-58019866D01*
X130091845Y-58232922D01*
X130091846Y-58232926D01*
X130158508Y-58438089D01*
X130256443Y-58630299D01*
X130383241Y-58804821D01*
X130535779Y-58957359D01*
X130707320Y-59081991D01*
X130749985Y-59137321D01*
X130755964Y-59206935D01*
X130723358Y-59268730D01*
X130707320Y-59282627D01*
X130536103Y-59407024D01*
X130383625Y-59559502D01*
X130383625Y-59559503D01*
X130256871Y-59733963D01*
X130158972Y-59926098D01*
X130092333Y-60131190D01*
X130081119Y-60202000D01*
X131110891Y-60202000D01*
X131099148Y-60222339D01*
X131058600Y-60373667D01*
X131058600Y-60530333D01*
X131099148Y-60681661D01*
X131110891Y-60702000D01*
X130081119Y-60702000D01*
X130092333Y-60772809D01*
X130158972Y-60977901D01*
X130256871Y-61170036D01*
X130383625Y-61344496D01*
X130383625Y-61344497D01*
X130536102Y-61496974D01*
X130707320Y-61621372D01*
X130749985Y-61676702D01*
X130755964Y-61746316D01*
X130723358Y-61808110D01*
X130707320Y-61822008D01*
X130535777Y-61946642D01*
X130383243Y-62099176D01*
X130383243Y-62099177D01*
X130383241Y-62099179D01*
X130379727Y-62104016D01*
X130256443Y-62273700D01*
X130158509Y-62465908D01*
X130091845Y-62671077D01*
X130058100Y-62884133D01*
X130058100Y-63099866D01*
X130091845Y-63312922D01*
X130091846Y-63312926D01*
X130158508Y-63518089D01*
X130256443Y-63710299D01*
X130383241Y-63884821D01*
X130535779Y-64037359D01*
X130710301Y-64164157D01*
X130902511Y-64262092D01*
X131107674Y-64328754D01*
X131187573Y-64341408D01*
X131320734Y-64362500D01*
X131320739Y-64362500D01*
X131986466Y-64362500D01*
X132104830Y-64343752D01*
X132199526Y-64328754D01*
X132404689Y-64262092D01*
X132596899Y-64164157D01*
X132771421Y-64037359D01*
X132923959Y-63884821D01*
X133050757Y-63710299D01*
X133088408Y-63636405D01*
X133136383Y-63585609D01*
X133198893Y-63568700D01*
X151540022Y-63568700D01*
X151540024Y-63568700D01*
X151686698Y-63529399D01*
X151818202Y-63453475D01*
X153608659Y-61663016D01*
X153669980Y-61629533D01*
X153696329Y-61626699D01*
X154442408Y-61626699D01*
X154442416Y-61626698D01*
X154442419Y-61626698D01*
X154498702Y-61620948D01*
X154545197Y-61616199D01*
X154711734Y-61561014D01*
X154861056Y-61468912D01*
X154985112Y-61344856D01*
X154987152Y-61341547D01*
X154989145Y-61339755D01*
X154989593Y-61339189D01*
X154989689Y-61339265D01*
X155039094Y-61294823D01*
X155108056Y-61283595D01*
X155172140Y-61311434D01*
X155198229Y-61341539D01*
X155200081Y-61344541D01*
X155200083Y-61344544D01*
X155324054Y-61468515D01*
X155473275Y-61560556D01*
X155473280Y-61560558D01*
X155639702Y-61615705D01*
X155639709Y-61615706D01*
X155742419Y-61626199D01*
X155879899Y-61626199D01*
X156379900Y-61626199D01*
X156517372Y-61626199D01*
X156517386Y-61626198D01*
X156620097Y-61615705D01*
X156786519Y-61560558D01*
X156786524Y-61560556D01*
X156935745Y-61468515D01*
X157059715Y-61344545D01*
X157151756Y-61195324D01*
X157151758Y-61195319D01*
X157206905Y-61028897D01*
X157206906Y-61028890D01*
X157217399Y-60926186D01*
X157217400Y-60926173D01*
X157217400Y-60651200D01*
X156379900Y-60651200D01*
X156379900Y-61626199D01*
X155879899Y-61626199D01*
X155879900Y-61626198D01*
X155879900Y-60151200D01*
X156379900Y-60151200D01*
X157217399Y-60151200D01*
X157217399Y-59876228D01*
X157217398Y-59876213D01*
X157206905Y-59773502D01*
X157151758Y-59607080D01*
X157151756Y-59607075D01*
X157059715Y-59457854D01*
X156935745Y-59333884D01*
X156786524Y-59241843D01*
X156786519Y-59241841D01*
X156620097Y-59186694D01*
X156620090Y-59186693D01*
X156517386Y-59176200D01*
X156379900Y-59176200D01*
X156379900Y-60151200D01*
X155879900Y-60151200D01*
X155879900Y-59176200D01*
X155742427Y-59176200D01*
X155742412Y-59176201D01*
X155639702Y-59186694D01*
X155473280Y-59241841D01*
X155473275Y-59241843D01*
X155324054Y-59333884D01*
X155200083Y-59457855D01*
X155200079Y-59457860D01*
X155198226Y-59460865D01*
X155196418Y-59462490D01*
X155195602Y-59463523D01*
X155195425Y-59463383D01*
X155146274Y-59507585D01*
X155077311Y-59518801D01*
X155013231Y-59490952D01*
X154987153Y-59460853D01*
X154986455Y-59459722D01*
X154985112Y-59457544D01*
X154861056Y-59333488D01*
X154711734Y-59241386D01*
X154711733Y-59241385D01*
X154705191Y-59238336D01*
X154706328Y-59235895D01*
X154659131Y-59203199D01*
X154632325Y-59138676D01*
X154631600Y-59125291D01*
X154631600Y-56087378D01*
X154631600Y-56087376D01*
X154592299Y-55940702D01*
X154567697Y-55898091D01*
X154516377Y-55809201D01*
X154516372Y-55809195D01*
X153770104Y-55062927D01*
X153770098Y-55062922D01*
X153638600Y-54987002D01*
X153638599Y-54987001D01*
X153638598Y-54987001D01*
X153491924Y-54947700D01*
X150954323Y-54947700D01*
X150887284Y-54928015D01*
X150841529Y-54875211D01*
X150831585Y-54806053D01*
X150858576Y-54746948D01*
X150857639Y-54746207D01*
X150862115Y-54740546D01*
X150954156Y-54591324D01*
X150954158Y-54591319D01*
X151009305Y-54424897D01*
X151009306Y-54424890D01*
X151019799Y-54322186D01*
X151019800Y-54322173D01*
X151019800Y-54047200D01*
X149806300Y-54047200D01*
X149739261Y-54027515D01*
X149693506Y-53974711D01*
X149682300Y-53923200D01*
X149682300Y-53547200D01*
X150182300Y-53547200D01*
X151019799Y-53547200D01*
X151019799Y-53272228D01*
X151019798Y-53272213D01*
X151009305Y-53169502D01*
X150954158Y-53003080D01*
X150954156Y-53003075D01*
X150862115Y-52853854D01*
X150738145Y-52729884D01*
X150588924Y-52637843D01*
X150588919Y-52637841D01*
X150422497Y-52582694D01*
X150422490Y-52582693D01*
X150319786Y-52572200D01*
X150182300Y-52572200D01*
X150182300Y-53547200D01*
X149682300Y-53547200D01*
X149682300Y-52572200D01*
X149544827Y-52572200D01*
X149544812Y-52572201D01*
X149442102Y-52582694D01*
X149275680Y-52637841D01*
X149275675Y-52637843D01*
X149126454Y-52729884D01*
X149002483Y-52853855D01*
X149002479Y-52853860D01*
X149000626Y-52856865D01*
X148998818Y-52858490D01*
X148998002Y-52859523D01*
X148997825Y-52859383D01*
X148948674Y-52903585D01*
X148879711Y-52914801D01*
X148815631Y-52886952D01*
X148789553Y-52856853D01*
X148789537Y-52856828D01*
X148787512Y-52853544D01*
X148663456Y-52729488D01*
X148514134Y-52637386D01*
X148347597Y-52582201D01*
X148347595Y-52582200D01*
X148244810Y-52571700D01*
X147469798Y-52571700D01*
X147469780Y-52571701D01*
X147367003Y-52582200D01*
X147367000Y-52582201D01*
X147200468Y-52637385D01*
X147200463Y-52637387D01*
X147051142Y-52729489D01*
X146927089Y-52853542D01*
X146834987Y-53002863D01*
X146834985Y-53002868D01*
X146834915Y-53003080D01*
X146779801Y-53169403D01*
X146779801Y-53169404D01*
X146779800Y-53169404D01*
X146769300Y-53272183D01*
X146769300Y-54322201D01*
X146769301Y-54322219D01*
X146779800Y-54424996D01*
X146779801Y-54424999D01*
X146829510Y-54575010D01*
X146834986Y-54591534D01*
X146927088Y-54740856D01*
X147051144Y-54864912D01*
X147168797Y-54937481D01*
X147215521Y-54989426D01*
X147227700Y-55043018D01*
X147227700Y-56017449D01*
X147208015Y-56084488D01*
X147155211Y-56130243D01*
X147101208Y-56140312D01*
X147101208Y-56141300D01*
X147097502Y-56141300D01*
X146911298Y-56141300D01*
X146872253Y-56145988D01*
X146822838Y-56151922D01*
X146682056Y-56207439D01*
X146561477Y-56298877D01*
X146470039Y-56419456D01*
X146414522Y-56560238D01*
X146410107Y-56597012D01*
X146403900Y-56648698D01*
X146403900Y-56648703D01*
X146403900Y-56692300D01*
X146384215Y-56759339D01*
X146331411Y-56805094D01*
X146279900Y-56816300D01*
X146236298Y-56816300D01*
X146202031Y-56820415D01*
X146147838Y-56826922D01*
X146144215Y-56828350D01*
X146136342Y-56831455D01*
X146090855Y-56840100D01*
X145286239Y-56840100D01*
X145219200Y-56820415D01*
X145198558Y-56803781D01*
X142485818Y-54091041D01*
X142452333Y-54029718D01*
X142449499Y-54003368D01*
X142449499Y-53257292D01*
X142438999Y-53154503D01*
X142383814Y-52987966D01*
X142291712Y-52838644D01*
X142167656Y-52714588D01*
X142164342Y-52712543D01*
X142162546Y-52710548D01*
X142161989Y-52710107D01*
X142162064Y-52710011D01*
X142117618Y-52660597D01*
X142106397Y-52591634D01*
X142134240Y-52527552D01*
X142164348Y-52501465D01*
X142167342Y-52499618D01*
X142291315Y-52375645D01*
X142383356Y-52226424D01*
X142383358Y-52226419D01*
X142438505Y-52059997D01*
X142438506Y-52059990D01*
X142448999Y-51957286D01*
X142449000Y-51957273D01*
X142449000Y-51819800D01*
X139999001Y-51819800D01*
X139999001Y-51957286D01*
X140009494Y-52059997D01*
X140020197Y-52092296D01*
X140022599Y-52162124D01*
X139986867Y-52222166D01*
X139924347Y-52253359D01*
X139902491Y-52255300D01*
X133370609Y-52255300D01*
X133303570Y-52235615D01*
X133257815Y-52182811D01*
X133247251Y-52143901D01*
X133238599Y-52059203D01*
X133238598Y-52059200D01*
X133204827Y-51957286D01*
X133183414Y-51892666D01*
X133091312Y-51743344D01*
X132967256Y-51619288D01*
X132817934Y-51527186D01*
X132651397Y-51472001D01*
X132651395Y-51472000D01*
X132548610Y-51461500D01*
X130758598Y-51461500D01*
X130758581Y-51461501D01*
X130655803Y-51472000D01*
X130655800Y-51472001D01*
X130489268Y-51527185D01*
X130489263Y-51527187D01*
X130339942Y-51619289D01*
X130215889Y-51743342D01*
X130123787Y-51892663D01*
X130123786Y-51892666D01*
X130068601Y-52059203D01*
X130068601Y-52059204D01*
X130068600Y-52059204D01*
X130058100Y-52161983D01*
X127246500Y-52161983D01*
X127246500Y-50416000D01*
X127266185Y-50348961D01*
X127318989Y-50303206D01*
X127370500Y-50292000D01*
X140433836Y-50292000D01*
X140500875Y-50311685D01*
G37*
%TD.AperFunction*%
%TD*%
M02*
